<svg
  xmlns="http://www.w3.org/2000/svg"
  width="2001"
  height="1129"
  viewBox="0 0 2001 1129"
  fill="none"
>
  <script xmlns="" id="eppiocemhmnlbhjplcgkofciiegomcon" />
  <rect x="0.864746" y="0.0230713" width="2000" height="1128" fill="#DD3AA3" />
  <rect x="0.864746" y="441.487" width="2000" height="245.073" fill="#FAD44F" />
  <path
    d="M0.864746 252.159L488.989 562.897L0.864746 875.887V252.159Z"
    fill="#69C9FD"
  />
  <path
    d="M2000.86 252.159L1512.74 562.897L2000.86 875.887V252.159Z"
    fill="#69C9FD"
  />
  <circle cx="1000.86" cy="564.023" r="355.911" fill="#FAD44F" />
  <path
    d="M1068.28 493.219C1068.28 493.219 1126.99 468.052 1163.82 500.192C1200.64 532.333 1195.48 537.29 1195.48 537.29C1195.48 537.29 1180.95 533.158 1144.72 532.333C1108.5 531.508 1095.08 542.728 1095.08 542.728C1095.08 542.728 1128.99 552.024 1144.72 576.645C1160.46 601.266 1158.29 629.881 1158.29 629.881C1158.29 629.881 1153.26 633.071 1110.73 601.251C1068.19 569.43 1017.95 562.801 1017.95 562.801C1017.95 562.801 985.217 699.284 983.58 788.406C981.943 877.527 996.772 930.934 996.772 930.934H960.095C960.095 930.934 945.907 832.9 950.027 759.653C954.147 686.406 983.58 583.849 983.58 583.849C983.58 583.849 974.873 600.964 939.696 621.084C904.519 641.204 879.652 641.542 879.652 641.542C879.652 641.542 877.47 621.351 905.718 585.641C933.967 549.931 953.097 540.887 953.097 540.887C953.097 540.887 936.099 533.541 894.586 531.942C853.074 530.343 818.276 536.386 818.276 536.386C818.276 536.386 833.765 499.564 877.47 493.967C921.175 488.371 981.943 508.767 981.943 508.767C981.943 508.767 979.874 488.284 934.007 450.79C888.139 413.296 894.586 414.454 894.586 414.454C894.586 414.454 929.882 407.63 968.126 429.835C1006.37 452.04 1009.56 489.945 1009.56 489.945C1009.56 489.945 1026.94 445.666 1052.04 429.835C1077.15 414.005 1118.24 425.198 1118.24 425.198C1118.24 425.198 1095.06 431.274 1080.99 455.42C1066.91 479.565 1068.28 493.219 1068.28 493.219Z"
    fill="#DD3AA3"
  />
</svg>
