<svg xmlns="http://www.w3.org/2000/svg" xmlns:svg="http://www.w3.org/2000/svg" width="750" height="500" viewBox="0 0 750 500" fill="none" version="1.1" id="svg6"><script xmlns="" id="eppiocemhmnlbhjplcgkofciiegomcon"/><script xmlns=""/><script xmlns=""/>
<defs id="defs10"/>
<rect style="fill:#0043ff;fill-opacity:1;stroke-width:21.0011;stroke-linecap:round;stroke-linejoin:round;paint-order:markers stroke fill" id="rect775" width="750" height="500" x="0" y="0" rx="0"/>
<path d="m 428.26705,244.31818 c 0,12.31818 -0.66591,24.19205 -1.83069,35.51137 H 323.56364 c -1.22046,-11.31932 -1.83069,-23.19319 -1.83069,-35.51137 0,-12.31818 0.66591,-24.19204 1.83069,-35.51136 h 102.87272 c 1.22046,11.31932 1.83069,23.19318 1.83069,35.51136 z m 15.97954,-35.51136 h 68.30455 c 2.94091,11.375 4.49431,23.24886 4.49431,35.51136 0,12.2625 -1.5534,24.13637 -4.49431,35.51137 h -68.30455 c 1.16591,-11.43069 1.77614,-23.30455 1.77614,-35.51137 0,-12.20682 -0.61023,-24.08068 -1.77614,-35.51136 z M 506.725,191.05114 h -64.75227 c -5.54887,-35.45569 -16.53523,-65.14091 -30.68409,-84.1175 43.44545,11.48568 78.79091,43.00159 95.38068,84.1175 z m -82.73068,0 h -97.98864 c 3.38409,-20.19659 8.6,-38.06364 14.98068,-52.54546 5.82614,-13.09545 12.31819,-22.58295 18.58864,-28.57579 6.21477,-5.88159 11.375,-7.65716 15.425,-7.65716 4.05,0 9.21023,1.77557 15.425,7.65716 6.27045,5.99284 12.7625,15.48034 18.58864,28.57579 6.43636,14.42614 11.59659,32.29318 14.98068,52.54546 z m -115.96705,0 H 243.275 c 16.64545,-41.11591 51.93523,-72.63182 95.43636,-84.1175 -14.14886,18.97659 -25.13522,48.66181 -30.68409,84.1175 z m -70.57841,17.75568 h 68.30341 c -1.16477,11.43068 -1.775,23.30454 -1.775,35.51136 0,12.20682 0.61023,24.08068 1.775,35.51137 h -68.30341 c -2.94091,-11.375 -4.49431,-23.24887 -4.49431,-35.51137 0,-12.2625 1.5534,-24.13636 4.49431,-35.51136 z M 340.98636,350.075 C 334.55,335.64886 329.38977,317.78182 326.00568,297.58523 h 97.98864 c -3.38409,20.19659 -8.6,38.06363 -14.98068,52.48977 -5.82614,13.09545 -12.31819,22.58295 -18.58864,28.57614 -6.21477,5.9375 -11.375,7.7125 -15.425,7.7125 -4.05,0 -9.21023,-1.775 -15.425,-7.65682 -6.27045,-5.99318 -12.7625,-15.48068 -18.58864,-28.57614 z m -32.95909,-52.48977 c 5.54887,35.45568 16.53523,65.14091 30.68409,84.11704 -43.50113,-11.48522 -78.79091,-43.00113 -95.43636,-84.11704 z m 198.69773,0 c -16.64545,41.11591 -51.93523,72.63182 -95.38182,84.11704 14.15,-18.97613 25.08068,-48.66136 30.68409,-84.11704 z" fill="#ffffff" id="path4" style="stroke-width:11.3636"/>
</svg>