<?xml version="1.0" encoding="utf-8"?>
<svg id="LOGO_LAYER" viewBox="0 0 125.33 131.4429" version="1.1" width="125.33" height="131.4429" xmlns="http://www.w3.org/2000/svg">
  <defs id="defs1">
    <style id="style1">.cls-1{fill:#0054a6;}.cls-2{fill:#f7941e;}.cls-3{fill:#ed1b35;}</style>
  </defs>
  <g>
    <path class="cls-3" d="M 95.417 8.686 C 90.203 8.686 83.209 7.88 78.155 10.756 C 67.401 16.876 59.587 29.119 58.147 33.227 C 56.513 37.89 54.678 36.219 54.055 33.232 C 53.432 30.245 48.02 19.571 36.73 19.571 C 31.058 19.571 19.643 24.546 13.856 37.747 C 12.461 40.931 11.683 45.753 11.057 49.761 L 110.717 39.2 C 110.737 38.84 110.357 8.686 95.417 8.686 Z" id="path1" style="fill: rgb(200, 16, 46);"/>
    <path class="cls-2" d="M 56.47 121.183 C 51.63 124.308 89.99 80.673 92.356 78.851 L 19.752 86.878 C 19.749 89.457 51.125 116.346 56.47 121.183 Z" id="path3" style="fill: rgb(200, 16, 46);"/>
    <path class="cls-1" d="M 13.51 48.53 C 13.454 48.892 12.277 47.289 11.948 48.53 C 10.909 52.447 11.419 63.378 12.652 69.669 C 13.638 74.698 18.062 84.196 20.857 87.657 C 22.723 89.965 21.624 85.76 22.82 87.34 L 88.96 80.39 C 89.438 79.826 90.379 80.637 90.858 80.053 C 100.251 68.588 108.995 52.058 110.737 38.467 C 110.862 37.486 109.571 39.423 109.63 38.43 L 13.51 48.53 Z" id="path2" style="fill: rgb(255, 255, 255);"/>
    <path d="M 95.36 0 C 81.94 0 66.07 9.91 56.47 26.38 C 53.88 20.43 44.64 13.95 33.67 13.95 C 24.83 13.95 0 25 0 60.68 C 0 106.73 46.59 116.19 56.01 130.5 C 56.66 131.49 58.74 132.23 59.54 129.88 C 67.05 107.7 125.33 82.64 125.33 37.51 C 125.33 12.2 108.8 0 95.38 0 L 95.36 0 Z M 109.69 37.36 C 109.68 37.72 109.65 38.08 109.63 38.43 C 108.71 53.87 99.51 67.95 88.96 80.39 C 75.48 96.28 59.81 109.51 56.45 119.49 C 52.87 112.25 34.58 102.88 22.81 87.34 C 16.86 79.49 12.58 70.07 12.71 58.55 C 12.75 54.89 13.03 51.57 13.51 48.53 C 16.73 27.9 28.9 21.11 35.95 21.11 C 47.23 21.11 51.89 29.72 52.66 33.54 C 53.42 37.35 57.69 40.4 59.06 34.15 C 60.43 27.9 73.71 8.84 90.02 8.84 C 104.96 8.84 110.14 24.25 109.69 37.36 Z" id="path4"/>
  </g>
</svg>