<?xml version="1.0" encoding="UTF-8"?>
<svg width="125.33" height="131.46" version="1.1" xmlns="http://www.w3.org/2000/svg">
  <defs>
    <clipPath id="heartClip">
      <!-- Only the OUTER sub-path of the heart, so clip covers the full interior -->
      <path d="m95.378 0c-13.42 0-29.29 9.9111-38.896 26.382-2.592-5.9483-11.827-12.43-22.805-12.43-8.8462 0-33.676 11.056-33.676 46.74 0 46.052 46.593 55.508 56.011 69.825 0.64721 0.98433 2.7319 1.728 3.5276-0.62388 7.5157-22.18 65.791-47.242 65.791-92.379-5.3e-4 -25.314-16.536-37.513-29.955-37.513z"/>
    </clipPath>
  </defs>

  <!-- Flag fills the full heart interior -->
  <g clip-path="url(#heartClip)">
    <svg x="0" y="0" width="125.33" height="131.46" viewBox="0 0 800 600" preserveAspectRatio="xMidYMid slice">
      <rect width="800" height="600" x="0" y="0" fill="#007fff"/>
      <path d="m 36,120 84,0 26,-84 26,84 84,0 -68,52 26,84 -68,-52 -68,52 26,-84 -68,-52 z M 750,0 0,450 0,600 0,600 50,600 800,150 800,0 750,0" fill="#f7d618"/>
      <path d="M 800,0 0,480 0,600 0,600 0,600 800,120 800,0" fill="#ce1021"/>
    </svg>
  </g>

  <!-- Original thick black heart drawn on top -->
  <path fill="black" d="m12.726 58.556c0.31803-28.513 15.157-37.437 23.237-37.437 11.285 0 15.946 8.6151 16.707 12.429 0.76116 3.8111 5.0324 6.8595 6.4047 0.60798 1.3734-6.2515 14.649-25.315 30.966-25.315 14.943 0 20.119 15.41 19.671 28.518-1.2228 35.683-47.19 64.158-53.239 82.143-5.3875-10.891-44.126-26.634-43.746-60.946zm82.652-58.556c-13.42 0-29.29 9.9111-38.896 26.382-2.592-5.9483-11.827-12.43-22.805-12.43-8.8462 0-33.676 11.056-33.676 46.74 0 46.052 46.593 55.508 56.011 69.825 0.64721 0.98433 2.7319 1.728 3.5276-0.62388 7.5157-22.18 65.791-47.242 65.791-92.379-5.3e-4 -25.314-16.536-37.513-29.955-37.513z"/>
</svg>
