<?xml version="1.0" encoding="utf-8"?>
<svg id="LOGO_LAYER" viewBox="0 0 125.33 131.4429" version="1.1" width="125.33" height="131.4429" xmlns="http://www.w3.org/2000/svg">
  <defs id="defs1">
    <style id="style1">.cls-1{fill:#f9f9f9;}.cls-2{fill:#012169;}.cls-3{fill:#c8102e;}</style>
  </defs>
  <g id="LOGO_GROUP" transform="translate(-232.76,-97.88)">
    <g id="SELECT_FLAG_HERE">
      <g id="BLACK_FLAG">
        <path class="cls-2" d="M 278.868 119.799 C 253.825 100.106 240.723 149.557 244.285 162.869 C 250.683 186.781 261.427 196.923 289.026 218.853 C 302.857 203.307 359.044 145.61 341.613 115.753 C 323.387 91.631 296.768 114.364 290.6 130.303 L 288.901 130.47 L 278.868 119.799 Z" id="path3"/>
        <path class="cls-1" d="M 302.06 175.95 L 302.06 199.63 C 293.525 218.846 288.885 228.888 278.56 206.86 L 278.56 178.4 L 260 190.48 C 254.093 192.037 237.881 156.566 245.54 154.03 L 251.03 153.45 L 245.72 151.11 C 242.714 149.401 245.921 135.266 249.24 135.46 L 278.55 148.37 L 278.55 121.8 C 281.223 119.944 286.441 128.383 287.342 129.717 C 288.539 131.49 289.655 131.067 290.881 129.106 C 294.037 124.06 299.535 114.04 302.06 116.68 L 302.06 145.89 L 340.51 120.87 C 342.618 121.352 345.426 135.827 342.37 136.88 L 329.59 145.2 L 341.27 143.97 C 346.386 147.134 320.251 184.152 317.73 182.85 L 302.06 175.95 Z" id="path7" style="fill: rgb(255, 255, 255);"/>
        <path class="cls-3" d="M 266.8 151.81 L 256.29 152.91 L 246 148.38 C 244.425 147.875 245.023 142.555 246.91 143.04 L 266.8 151.8 L 266.8 151.81 Z M 266.81 177.46 L 277.33 176.35 L 258.39 188.67 C 256.528 187.991 255.934 186.458 255.35 184.9 L 266.8 177.45 L 266.81 177.46 Z M 331.41 165.51 L 297.36 169.09 L 297.36 205.86 C 293.44 210.45 290.47 214.63 289.22 218.35 C 288.22 216.34 286.08 214.15 283.26 211.72 L 283.26 170.57 L 249.06 174.16 C 247.945 174.534 243.021 161.189 245.54 159.14 L 283.26 155.18 L 283.26 125.51 C 290.366 129.069 290.843 125.793 297.36 121 L 297.36 153.71 L 339.72 149.26 C 342.367 149.677 333.927 166.333 331.41 165.53 L 331.41 165.51 Z M 303.31 147.96 L 341.22 123.29 C 342.87 124.553 343.203 126.266 342.17 128.41 L 313.82 146.86 L 303.31 147.96 Z M 324.33 171.41 L 326.51 172.37 C 327.794 173.526 324.203 177.055 323.12 176.61 L 313.82 172.51 L 324.33 171.41 Z" id="path8"/>
        <path d="m 328.12,97.88 c -13.42,0 -29.29,9.91 -38.89,26.38 -2.59,-5.95 -11.83,-12.43 -22.8,-12.43 -8.84,0 -33.67,11.05 -33.67,46.73 0,46.05 46.59,55.51 56.01,69.82 0.65,0.99 2.73,1.73 3.53,-0.62 7.51,-22.18 65.79,-47.24 65.79,-92.37 0,-25.31 -16.53,-37.51 -29.95,-37.51 z m -10.39,84.96 c -5.31,5.93 -10.74,11.45 -15.45,16.54 -0.07,0.08 -0.15,0.16 -0.22,0.24 -1.67,1.81 -3.25,3.56 -4.7,5.26 -3.92,4.59 -6.89,8.77 -8.14,12.49 -1,-2.02 -3.14,-4.2 -5.96,-6.63 -1.41,-1.22 -3,-2.51 -4.7,-3.86 -1.74,-1.39 -3.6,-2.86 -5.52,-4.42 -4.29,-3.49 -8.87,-7.44 -13.04,-11.97 v 0 c -0.55,-0.59 -1.09,-1.2 -1.62,-1.81 v 0 c -1.05,-1.21 -2.07,-2.47 -3.04,-3.77 v 0 c -2.46,-3.29 -4.62,-6.85 -6.29,-10.72 v 0 c -1.96,-4.56 -3.24,-9.54 -3.52,-15.02 v 0 c -0.05,-0.9 -0.07,-1.81 -0.06,-2.74 0,-0.82 0.03,-1.61 0.07,-2.4 v 0 c 0.04,-1 0.1,-1.97 0.18,-2.92 v 0 c 0.08,-0.94 0.17,-1.85 0.28,-2.74 v 0 c 0.23,-1.89 0.54,-3.66 0.91,-5.34 v 0 c 0.62,-2.81 1.41,-5.33 2.33,-7.58 v 0 c 1.3,-3.16 2.86,-5.79 4.56,-7.95 4.83,-6.15 10.76,-8.51 14.91,-8.51 4.15,0 7.36,1.16 9.84,2.81 1.25,0.83 2.31,1.78 3.2,2.77 0.57,0.64 1.07,1.3 1.51,1.96 1.21,1.83 1.91,3.63 2.16,4.9 0.76,3.81 5.03,6.86 6.4,0.61 0.44,-2.02 2.14,-5.39 4.78,-9.02 0.24,-0.33 0.5,-0.67 0.76,-1 1.36,-1.78 2.94,-3.59 4.7,-5.32 5.49,-5.4 12.73,-9.97 20.72,-9.97 8.53,0 13.87,5.02 16.81,11.77 0.34,0.78 0.64,1.57 0.92,2.39 v 0 c 0.27,0.79 0.5,1.59 0.71,2.41 v 0 c 0.43,1.67 0.74,3.39 0.95,5.12 v 0 c 0.27,2.28 0.36,4.59 0.29,6.83 -0.02,0.55 -0.05,1.1 -0.09,1.65 v 0 c -0.17,2.4 -0.55,4.76 -1.1,7.09 v 0 c -0.42,1.78 -0.94,3.55 -1.55,5.29 v 0 c -1.97,5.64 -4.87,11.07 -8.31,16.27 v 0 c -1.54,2.32 -3.18,4.6 -4.9,6.83 v 0 c -1.1,1.43 -2.24,2.85 -3.39,4.24 v 0 c -1.76,2.12 -3.56,4.2 -5.38,6.23 v 0 z" id="path16"/>
      </g>
    </g>
  </g>
</svg>