<?xml version="1.0" encoding="UTF-8" standalone="no"?>
<svg
   width="125.33"
   height="131.45284"
   xml:space="preserve"
   id="svg2"
   version="1.1"
   xmlns:xlink="http://www.w3.org/1999/xlink"
   xmlns="http://www.w3.org/2000/svg"
   xmlns:svg="http://www.w3.org/2000/svg"
   xmlns:rdf="http://www.w3.org/1999/02/22-rdf-syntax-ns#"
   xmlns:cc="http://creativecommons.org/ns#"
   xmlns:dc="http://purl.org/dc/elements/1.1/"><metadata
     id="metadata39"><rdf:RDF><cc:Work
         rdf:about=""><dc:format>image/svg+xml</dc:format><dc:type
           rdf:resource="http://purl.org/dc/dcmitype/StillImage" /></cc:Work></rdf:RDF></metadata><defs
     id="defs4"><g
       id="petal"><line
         x1="0"
         y1="0"
         x2="25"
         y2="0"
         stroke="#ffd700"
         stroke-width="2"
         id="line7" /><circle
         cx="25"
         cy="0"
         r="5"
         fill="#ffd700"
         id="circle9" /></g><pattern
       y="0"
       x="0"
       height="6"
       width="6"
       patternUnits="userSpaceOnUse"
       id="EMFhbasepattern" /></defs><path
     style="fill:#fad201;fill-opacity:1;stroke-width:0.530046"
     d="M 4.7693575,63.605567 110.77864,56.184918 57.243951,126.15104 20.670749,94.878305"
     id="path4" /><path
     style="fill:#00a1de;fill-opacity:1;stroke-width:0.530046"
     d="M 14.840239,28.09246 37.632234,16.961486 56.713909,30.212646 78.445806,9.0107887 109.1885,6.3605551 119.25938,60.425289 6.3594966,70.49617"
     id="path6" /><path
     d="M 57.193326,124.98495 21.719796,98.003251 90.689703,91.339418 Z"
     id="path4255"
     style="fill:#20603d;fill-opacity:1;stroke-width:0.530046" /><g
     transform="matrix(0.15858656,-0.01387453,0,0.15858656,89.958382,35.866254)"
     id="g10"><g
       id="h"><path
         id="q"
         d="M 116.1,0 35.69202,4.69894 112.14399,30.04889 33.25966,13.7766 100.54555,58.05 28.56072,21.91541 82.0951,82.0951 21.91541,28.56072 58.05,100.54555 13.7766,33.25966 30.04889,112.14399 4.69894,35.69202 0,116.1 -1,-1 Z"
         style="fill:#e5be01" /><use
         xlink:href="#q"
         transform="scale(1,-1)"
         id="use14"
         x="0"
         y="0"
         width="100%"
         height="100%" /></g><use
       xlink:href="#h"
       transform="scale(-1,1)"
       id="use16"
       x="0"
       y="0"
       width="100%"
       height="100%" /><circle
       r="34.299999"
       id="circle18"
       cx="0"
       cy="0"
       style="fill:#e5be01;stroke:#00a1de;stroke-width:3.4" /></g><path
     d="M 12.720053,58.554225 C 13.038081,30.041971 27.8762,21.11811 35.956757,21.11811 c 11.284688,0 15.945386,8.614844 16.707068,12.429058 0.761141,3.811034 5.03226,6.85933 6.40455,0.607963 1.372821,-6.249247 14.650478,-25.3150172 30.965306,-25.3139571 14.942009,0 20.118449,15.4100401 19.670029,28.5170281 C 108.48089,73.040923 62.529578,101.49381 56.464258,119.49949 51.076861,108.60704 12.33789,92.865718 12.719523,58.554225 Z M 95.375488,0 C 81.956304,0 66.086184,9.9108075 56.480159,26.380411 53.888232,20.43223 44.653228,13.950291 33.675438,13.950821 24.828963,13.950821 0,25.00653 0,60.690312 c 0,46.050428 46.591078,55.509108 56.010533,69.823008 0.646656,0.9843 2.731859,1.72795 3.527458,-0.62386 C 67.054049,107.70967 125.33,82.649074 125.33,37.513505 125.33,12.198488 108.79256,0.00212022 95.375488,0.00159017 Z"
     id="path8"
     style="stroke-width:0.530046" /></svg>
