<?xml version="1.0" encoding="UTF-8" standalone="no"?>
<svg
   width="125.33"
   height="131.45284"
   id="svg2"
   version="1.1"
   xmlns:xlink="http://www.w3.org/1999/xlink"
   xmlns="http://www.w3.org/2000/svg"
   xmlns:svg="http://www.w3.org/2000/svg"
   xmlns:rdf="http://www.w3.org/1999/02/22-rdf-syntax-ns#"
   xmlns:cc="http://creativecommons.org/ns#"
   xmlns:dc="http://purl.org/dc/elements/1.1/">
  <metadata
     id="metadata16">
    <rdf:RDF>
      <cc:Work
         rdf:about="">
        <dc:format>image/svg+xml</dc:format>
        <dc:type
           rdf:resource="http://purl.org/dc/dcmitype/StillImage" />
      </cc:Work>
    </rdf:RDF>
  </metadata>
  <defs
     id="defs14" />
  <path
     style="fill:#f9f9f9;fill-opacity:1;stroke-width:0.530046"
     d="M 4.7693575,63.60565 110.77864,56.185 57.243951,126.15112 20.670749,94.87839"
     id="path4" />
  <path
     style="fill:#ed2939;fill-opacity:1;stroke-width:0.530046"
     d="M 14.840239,28.0929 37.632234,16.96193 56.713909,30.21309 78.445806,9.01123 109.1885,6.361 119.25938,60.42573 6.3594966,70.49661"
     id="path6" />
  <g
     id="g949"
     transform="translate(2.49957)">
    <path
       style="fill:#f9f9f9;fill-opacity:1;stroke-width:0.530046"
       d="m 47.045976,46.060142 a 14.864806,16.223442 43.747616 0 1 -31.058546,2.71727 14.864806,16.223442 43.747616 1 1 31.058546,-2.71727 z"
       id="path8-3" />
    <path
       style="fill:#ed2939;stroke-width:0.530046"
       d="M 51.925781,45.633214 A 14.047722,15.331676 43.747616 0 1 22.574452,48.201123 14.047722,15.331676 43.747616 1 1 51.925781,45.633214 Z"
       id="path10" />
    <path
       style="fill:#f9f9f9;fill-opacity:1;stroke-width:0.530046"
       id="star"
       d="M 33.438636,47.625293 31.329052,46.191541 29.22,47.995144 l 0.811969,-2.680595 -2.116294,-1.423456 2.61141,-0.22294 0.801113,-2.68335 0.801971,2.542807 2.611409,-0.234935 -2.115766,1.794481 z" />
    <use
       height="100%"
       width="100%"
       y="0"
       x="0"
       xlink:href="#star"
       transform="translate(16.552757,-1.4481786)"
       id="use13"
       style="fill:#f9f9f9;fill-opacity:1" />
    <use
       height="100%"
       width="100%"
       y="0"
       x="0"
       xlink:href="#star"
       transform="translate(8.2848176,-6.8680295)"
       id="use15"
       style="fill:#f9f9f9;fill-opacity:1" />
    <use
       height="100%"
       width="100%"
       y="0"
       x="0"
       xlink:href="#star"
       transform="translate(3.0972375,9.5584639)"
       id="use17"
       style="fill:#f9f9f9;fill-opacity:1" />
    <use
       height="100%"
       width="100%"
       y="0"
       x="0"
       xlink:href="#star"
       transform="translate(13.455506,8.6522325)"
       id="use19"
       style="fill:#f9f9f9;fill-opacity:1" />
  </g>
  <path
     d="M 12.720053,58.55423 C 13.038081,30.04197 27.8762,21.11811 35.956757,21.11811 c 11.284688,0 15.945389,8.61484 16.707068,12.42906 0.761141,3.81103 5.03226,6.85933 6.40455,0.60796 1.372821,-6.24925 14.650478,-25.31502 30.965306,-25.31396 14.942009,0 20.118449,15.41004 19.670029,28.51703 -1.22282,35.68272 -47.174132,64.13561 -53.239452,82.14129 C 51.076863,108.60704 12.33789,92.86572 12.719523,58.55423 Z M 95.375488,0 C 81.956304,0 66.086184,9.91081 56.480159,26.38041 53.888232,20.43223 44.653228,13.95029 33.675438,13.95082 24.828963,13.95082 0,25.00653 0,60.69031 c 0,46.05043 46.591078,55.50911 56.010533,69.82301 0.646656,0.9843 2.731859,1.72795 3.527458,-0.62386 C 67.054049,107.70967 125.33,82.64907 125.33,37.5135 125.33,12.19849 108.79256,0.00212 95.375488,0.00159 Z"
     id="path8"
     style="stroke-width:0.530046" />
</svg>
