<?xml version="1.0" encoding="UTF-8" standalone="no"?>
<svg
   width="125.33"
   height="131.45125"
   id="svg2"
   version="1.1"
   xmlns="http://www.w3.org/2000/svg"
   xmlns:svg="http://www.w3.org/2000/svg"
   xmlns:rdf="http://www.w3.org/1999/02/22-rdf-syntax-ns#"
   xmlns:cc="http://creativecommons.org/ns#"
   xmlns:dc="http://purl.org/dc/elements/1.1/">
  <metadata
     id="metadata14">
    <rdf:RDF>
      <cc:Work
         rdf:about="">
        <dc:format>image/svg+xml</dc:format>
        <dc:type
           rdf:resource="http://purl.org/dc/dcmitype/StillImage" />
      </cc:Work>
    </rdf:RDF>
  </metadata>
  <defs
     id="defs12" />
  <path
     d="M 2.3931595,71.255727 C 20.67711,89.554519 38.984912,107.85278 57.245011,126.15104 77.91682,103.35905 98.588629,80.567052 119.26044,57.775057 116.61021,41.69716 113.95997,25.618732 111.30974,9.5408351 100.53231,8.6572478 89.754346,7.7741905 78.976913,6.8906031 71.202722,14.841299 63.429062,22.791995 55.654871,30.742691 50.707948,26.325814 45.760495,21.908408 40.813572,17.491531 31.711616,20.771988 22.610189,24.052445 13.508232,27.332902 9.8032081,41.973844 6.0981838,56.614785 2.3931595,71.255727 Z"
     id="path4"
     style="fill:#2a936a;fill-opacity:1;stroke-width:0.530046" />
  <path
     style="fill:#f9f9f9;fill-opacity:1;stroke-width:0.530046"
     d="M 5.530979,56.055247 6.5954807,35.012921 113.12448,57.65154 111.22469,62.977934 107.86891,68.975918 27.451202,100.13687 12.414003,88.996958 Z"
     id="path6" />
  <path
     style="fill:#ffc20e;fill-opacity:1;stroke-width:0.530046"
     d="M 6.9075842,61.218095 9.7180264,39.244816 116.59274,61.992064 23.420872,98.125756 11.897776,82.382238 Z"
     id="path8-7" />
  <path
     style="fill:#0b0e0e;fill-opacity:1;stroke-width:0.530046"
     d="M 6.5634331,54.416238 8.677565,40.425934 60.356701,66.912082 18.295835,95.82845 9.4887178,78.240053 Z"
     id="path10" />
  <path
     style="fill:#be1e2d;fill-opacity:1;stroke-width:0.530046"
     d="M 4.8426767,61.581103 8.9236411,45.328623 52.39903,67.608287 16.467043,92.309493 11.381549,82.072972 Z"
     id="path12" />
  <path
     d="M 12.747616,58.554755 C 13.065644,30.0425 27.903762,21.118638 35.98432,21.118638 c 11.284687,0 15.945385,8.614845 16.707062,12.429058 0.761147,3.811034 5.03226,6.859331 6.404551,0.607964 1.37335,-6.251368 14.648892,-25.3139561 30.96531,-25.3139561 14.943067,0 20.118437,15.4100391 19.670547,28.5217961 -1.24666,35.676893 -47.212818,64.1547 -53.263297,82.13652 C 51.081101,108.63301 12.34372,92.88533 12.747616,58.554755 Z M 95.375488,0 C 81.956304,0 66.086184,9.9108075 56.480154,26.380939 53.888227,20.432758 44.653228,13.950821 33.675438,13.950821 24.829493,13.950821 0,25.006529 0,60.689252 c 0,46.050428 46.596379,55.509108 56.010533,69.822478 0.647186,0.9843 2.731859,1.72795 3.527458,-0.62386 C 67.077371,107.73193 125.33,82.647484 125.33,37.511913 125.32947,12.199018 108.79414,0 95.375488,0 Z"
     id="path8"
     style="stroke-width:0.530046" />
</svg>
