<?xml version="1.0" encoding="UTF-8" standalone="no"?>
<!-- Created with Inkscape (http://www.inkscape.org/) -->

<svg
   width="125.33"
   height="131.45125"
   viewBox="0 0 33.160229 34.77981"
   version="1.1"
   id="svg5"
   xmlns="http://www.w3.org/2000/svg"
   xmlns:svg="http://www.w3.org/2000/svg">
  <defs
     id="defs2">
    <g
       id="petal">
      <line
         x1="0"
         y1="0"
         x2="25"
         y2="0"
         stroke="#ffd700"
         stroke-width="2"
         id="line7" />
      <circle
         cx="25"
         cy="0"
         r="5"
         fill="#ffd700"
         id="circle9" />
    </g>
    <pattern
       y="0"
       x="0"
       height="6"
       width="6"
       patternUnits="userSpaceOnUse"
       id="EMFhbasepattern" />
    <g
       id="petal-7">
      <line
         x1="0"
         y1="0"
         x2="25"
         y2="0"
         stroke="gold"
         stroke-width="2"
         id="line7-2" />
      <circle
         cx="25"
         cy="0"
         r="5"
         fill="gold"
         id="circle9-9" />
    </g>
    <pattern
       y="0"
       x="0"
       height="6"
       width="6"
       patternUnits="userSpaceOnUse"
       id="EMFhbasepattern-6" />
    <clipPath
       id="t">
      <path
         d="m0 0h63v63H0z"
         id="path2988" />
    </clipPath>
    <g
       id="petal-1">
      <line
         x1="0"
         y1="0"
         x2="25"
         y2="0"
         stroke="gold"
         stroke-width="2"
         id="line7-4" />
      <circle
         cx="25"
         cy="0"
         r="5"
         fill="gold"
         id="circle9-5" />
    </g>
    <pattern
       y="0"
       x="0"
       height="6"
       width="6"
       patternUnits="userSpaceOnUse"
       id="EMFhbasepattern-9" />
  </defs>
  <g
     id="layer1">
    <path
       style="fill:#6da9d2;fill-opacity:1;fill-rule:evenodd;stroke:none;stroke-width:0.140241px;stroke-linecap:butt;stroke-linejoin:miter;stroke-opacity:1"
       d="m 2.340604,10.919663 -0.9485585,6.431033 4.3779626,9.029598 9.2666879,6.558841 4.377962,-5.198781 9.04779,-8.525979 L 31.745919,9.2226243 28.754311,2.0418197 22.406265,1.2838128 18.247201,4.0555632 14.890763,8.2164137 12.263986,5.3086871 6.8644987,4.7595565 Z"
       id="path4168" />
    <rect
       y="14.368931"
       width="28.193176"
       height="7.3685646"
       id="rect6"
       x="1.7013704"
       style="fill:#f9f9f9;stroke-width:0.140241;fill-opacity:1"
       transform="matrix(0.9961947,-0.08715576,0,1,0,0)" />
    <rect
       y="15.597025"
       width="27.607218"
       height="4.9123764"
       id="rect8"
       x="1.9943495"
       transform="matrix(0.9961947,-0.08715576,0,1,0,0)"
       style="fill:#0b0e0e;fill-opacity:1;stroke-width:0.140241" />
    <path
       d="m 3.3664958,15.492612 c 0.084145,-7.5438674 4.0100637,-9.9049723 6.1480445,-9.9049723 2.9857407,0 4.2188827,2.2793441 4.4204097,3.2885215 0.201387,1.008336 1.331453,1.8148648 1.694538,0.160857 0.363365,-1.6540076 3.875852,-6.6976507 8.192905,-6.6976507 3.953686,0 5.323004,4.0772393 5.2045,7.5451297 C 28.703356,19.32527 16.541478,26.860022 14.940622,31.617713 13.515208,28.736172 3.2659427,24.570861 3.3664958,15.492612 Z M 25.234764,0 C 21.684272,0 17.485303,2.6222344 14.943707,6.9799567 14.257926,5.4061673 11.8145,3.6911547 8.9099594,3.6911547 6.56947,3.6911547 0,6.6163107 0,16.057364 0,28.241541 12.327363,30.744149 14.819453,34.531229 14.990688,34.791657 15.542258,34.988416 15.75276,34.366165 17.741243,28.497762 33.160229,21.867147 33.160229,9.925027 33.160088,3.2276567 28.785117,0 25.234764,0 Z"
       id="path29-0"
       style="stroke-width:0.140241;fill:#000000;fill-opacity:1" />
  </g>
</svg>
