<?xml version="1.0" encoding="utf-8"?>
<svg id="LOGO_LAYER" viewBox="0 0 125.33 131.4429" version="1.1" width="125.33" height="131.4429" xmlns="http://www.w3.org/2000/svg">
  <defs id="defs1">
    <style id="style1">.cls-1{fill:#f9f9f9;}.cls-2{fill:#d00920;}</style>
  </defs>
  <g id="LOGO_GROUP" transform="translate(-232.76,-97.88)">
    <path class="cls-1" d="M 289.532 219.092 C 299.673 209.25 333.734 166.847 337.472 156.598 L 245.368 166.517 C 244.059 184.286 274.47 206.963 289.532 219.092 Z" id="path2"/>
    <path class="cls-2" d="M 324.355 103.747 C 309.534 101.144 288.269 128.349 288.544 129.996 C 288.544 129.996 275.076 113.391 264.026 115.704 C 245.62 119.557 228.608 169.997 246.63 166.82 L 336.23 157.37 C 366.941 140.398 338.214 106.181 324.355 103.747 Z" id="path1"/>
    <path d="m 328.12,97.88 c -13.42,0 -29.29,9.91 -38.89,26.38 -2.59,-5.95 -11.83,-12.43 -22.8,-12.43 -8.84,0 -33.67,11.05 -33.67,46.73 0,46.05 46.59,55.51 56.01,69.82 0.65,0.99 2.73,1.73 3.53,-0.62 7.51,-22.18 65.79,-47.24 65.79,-92.37 0,-25.31 -16.53,-37.51 -29.95,-37.51 z m 14.33,37.36 c -0.26,7.73 -2.63,15.12 -6.24,22.14 -13.03,25.38 -42.26,45.91 -47,59.99 -4.81,-9.72 -36.2,-23.32 -42.6,-50.54 -0.77,-3.27 -1.18,-6.73 -1.14,-10.4 0.32,-28.51 15.16,-37.43 23.23,-37.43 11.28,0 15.94,8.61 16.71,12.43 0.76,3.81 5.03,6.86 6.4,0.61 1.37,-6.25 14.65,-25.31 30.96,-25.31 14.94,0 20.12,15.41 19.67,28.52 z" id="path3"/>
  </g>
</svg>