<?xml version="1.0" encoding="UTF-8" standalone="no"?>
<svg
   width="125.33"
   height="131.44646"
   xml:space="preserve"
   id="svg2"
   version="1.1"
   xmlns="http://www.w3.org/2000/svg"
   xmlns:svg="http://www.w3.org/2000/svg"
   xmlns:rdf="http://www.w3.org/1999/02/22-rdf-syntax-ns#"
   xmlns:cc="http://creativecommons.org/ns#"
   xmlns:dc="http://purl.org/dc/elements/1.1/"><metadata
     id="metadata39"><rdf:RDF><cc:Work
         rdf:about=""><dc:format>image/svg+xml</dc:format><dc:type
           rdf:resource="http://purl.org/dc/dcmitype/StillImage" /></cc:Work></rdf:RDF></metadata><defs
     id="defs4"><g
   id="petal"><line
     x1="0"
     y1="0"
     x2="25"
     y2="0"
     stroke="#ffd700"
     stroke-width="2"
     id="line7" /><circle
     cx="25"
     cy="0"
     r="5"
     fill="#ffd700"
     id="circle9" /></g><pattern
   y="0"
   x="0"
   height="6"
   width="6"
   patternUnits="userSpaceOnUse"
   id="EMFhbasepattern" />
	
	

		
		
	
			
			
			
		</defs><path
     fill="#ffc400"
     d="M 6.9618199,73.051149 26.10713,101.64166 80.266937,96.830373 109.60788,62.599272 112.74968,28.828266 11.748548,38.552462 Z"
     id="path687"
     style="fill:#00a95c;fill-opacity:1;stroke-width:0.262912" /><path
     fill="#c60b1e"
     d="M 104.25429,6.4332294 73.251636,11.099805 57.401829,30.851884 42.134618,17.985362 19.327674,23.389164 14.662054,42.837028 109.81492,32.78673 l 2.43702,-8.432185 z"
     id="path689"
     style="fill:#d01c1f;fill-opacity:1;stroke-width:0.262912" /><path
     fill="#c60b1e"
     d="M 56.845242,123.76922 75.82353,103.51458 78.429022,92.095909 31.601984,97.040702 27.838874,103.8614 Z"
     id="path691"
     style="fill:#d01c1f;fill-opacity:1;stroke-width:0.262912" /><path
     d="M 95.384359,0 C 81.975863,0 66.095997,9.9117706 56.499721,26.370041 53.896895,20.428238 44.668695,13.934319 33.705278,13.934319 24.818863,13.96061 0,25.002901 0,60.680016 c 0,46.062134 46.58795,55.526954 56.000189,69.829344 0.657279,0.97277 2.734281,1.73522 3.523016,-0.63099 C 67.04248,107.68863 125.33,82.633142 125.33,37.491206 125.33,12.199102 108.79286,0 95.384359,0 Z M 12.724926,58.550432 C 13.04042,30.050805 27.868639,21.111808 35.966318,21.111808 c 11.278912,0 15.95874,8.623503 16.694892,12.435722 0.762444,3.81222 5.021614,6.861995 6.415046,0.604697 1.36714,-6.257298 14.64418,-25.3183944 30.970996,-25.3183944 14.933388,0 20.112748,15.4066244 19.665798,28.5259174 -1.2094,35.677115 -47.192651,64.15045 -53.23962,82.13361 C 51.08374,108.60882 12.356849,92.860406 12.724926,58.550432 Z"
     id="path4115"
     style="stroke-width:0.262912" /><g
     transform="matrix(0.16376972,-0.014328,0,0.16376972,152.13017,61.277478)"
     id="g4585-6"
     style="fill:#ffd700;fill-opacity:1"><path
       style="fill:#ffd700;fill-opacity:1"
       d="M -800.66626,-96.181715 A 222,222.01712 0 0 0 -580.28929,101.34327 222,222.01712 0 0 0 -359.78148,-95.970785 239.21317,222.01712 0 0 1 -580.28929,40.037745 239.21317,222.01712 0 0 1 -800.66626,-96.181715 Z"
       id="crescent-5" /><path
       style="fill:#ffd700;fill-opacity:1"
       d="m -544.10477,-27.453925 -36.11944,-26.06505 -36.11943,26.06479 13.61911,-42.41794 -35.94183,-26.30959 44.53644,-0.15047 13.90609,-42.324735 13.9059,42.324885 44.53656,0.151 -35.94244,26.30891 z"
       id="star-0" /></g></svg>
