<?xml version="1.0" encoding="utf-8"?>
<svg id="LOGO_LAYER" viewBox="0 0 125.33 131.4429" version="1.1" width="125.33" height="131.4429" xmlns="http://www.w3.org/2000/svg">
  <defs id="defs1">
    <style id="style1">.cls-1{fill:#f9f9f9;}.cls-2{fill:#003893;}.cls-3{fill:#d00;}</style>
  </defs>
  <g id="LOGO_GROUP" transform="translate(-232.76,-97.88)">
    <g id="SELECT_FLAG_HERE">
      <g id="BLACK_FLAG">
        <path class="cls-2" d="M 331.125 102.713 C 314.815 102.713 293.2 120.971 291.83 127.221 C 290.987 131.067 290.368 134.263 288.631 133.473 C 287.545 132.979 285.261 131.471 286.231 127.252 C 288.753 116.282 275.287 115.874 262.789 118.509 C 255.9 119.962 228.434 151.63 242.914 147.051 L 344.323 136.31 C 344.343 135.95 347.259 136.241 347.269 135.881 C 347.719 122.771 346.065 102.713 331.125 102.713 Z" id="path1"/>
        <path class="cls-3" d="M 289.541 221.217 C 294.087 210.325 356.189 158.218 324.295 176.827 L 253.025 183.617 C 227.218 177.613 289.541 221.217 289.541 221.217 Z" id="path3"/>
        <path class="cls-1" d="M 245.48 156.43 C 243.06 199.227 249.596 181.546 255.58 185.22 L 321.72 178.27 C 348.759 166.654 344.035 135.881 342.39 136.31 L 246.27 146.41 C 242.594 146.875 245.51 152.77 245.47 156.43 L 245.48 156.43 Z" id="path2"/>
        <path d="m 328.12,97.88 c -13.42,0 -29.29,9.91 -38.89,26.38 -2.59,-5.95 -11.83,-12.43 -22.8,-12.43 -8.84,0 -33.67,11.05 -33.67,46.73 0,46.05 46.59,55.51 56.01,69.82 0.65,0.99 2.73,1.73 3.53,-0.62 7.51,-22.18 65.79,-47.24 65.79,-92.37 0,-25.31 -16.53,-37.51 -29.95,-37.51 z m 14.33,37.36 c -0.01,0.36 -0.04,0.72 -0.06,1.07 -0.92,15.44 -10.12,29.52 -20.67,41.96 -13.48,15.89 -29.15,29.12 -32.51,39.1 -3.58,-7.24 -21.87,-16.61 -33.64,-32.15 -5.95,-7.85 -10.23,-17.27 -10.1,-28.79 0.04,-3.66 0.32,-6.98 0.8,-10.02 3.22,-20.63 15.39,-27.42 22.44,-27.42 11.28,0 15.94,8.61 16.71,12.43 0.76,3.81 5.03,6.86 6.4,0.61 1.37,-6.25 14.65,-25.31 30.96,-25.31 14.94,0 20.12,15.41 19.67,28.52 z" id="path4" style=""/>
      </g>
    </g>
  </g>
</svg>