<?xml version="1.0" encoding="UTF-8" standalone="no"?>
<!-- Created with Inkscape (http://www.inkscape.org/) -->

<svg
   width="125.33"
   height="131.45284"
   viewBox="0 0 33.160228 34.780229"
   version="1.1"
   id="svg1063"
   xmlns:xlink="http://www.w3.org/1999/xlink"
   xmlns="http://www.w3.org/2000/svg"
   xmlns:svg="http://www.w3.org/2000/svg">
  <defs
     id="defs1060">
    <g
       id="b"
       fill="#1eb53a">
      <g
         id="s">
        <g
           id="t">
          <g
             id="c">
            <path
               id="h"
               d="M0,-20V0H20"
               transform="rotate(30,0,-20)" />
            <use
               xlink:href="#h"
               transform="scale(-1,1)"
               id="use11" />
          </g>
          <use
             xlink:href="#c"
             transform="rotate(120)"
             id="use13" />
          <use
             xlink:href="#c"
             transform="rotate(240)"
             id="use15" />
        </g>
        <use
           xlink:href="#t"
           transform="rotate(180)"
           id="use17" />
      </g>
      <use
         xlink:href="#s"
         fill="#ce1126"
         transform="scale(0.82)"
         id="use19" />
    </g>
    <use
       id="star"
       xlink:href="#b"
       x="250"
       y="106" />
  </defs>
  <g
     id="layer1">
    <path
       d="M 0.6331901,18.853076 C 5.4708186,23.694632 10.314758,28.536047 15.146076,33.377462 20.615492,27.34708 26.084908,21.316698 31.554324,15.286316 30.853117,11.032374 30.15191,6.7782902 29.450702,2.5243459 26.599173,2.2905634 23.747504,2.0569212 20.895975,1.8231387 18.839053,3.9267603 16.782272,6.0303819 14.725351,8.1340043 13.416478,6.9653724 12.107464,5.7965994 10.798591,4.6279675 8.3903649,5.4959218 5.9822791,6.363876 3.5740531,7.2318312 2.5937654,11.10558 1.6134778,14.979329 0.6331901,18.853076 Z"
       id="path4"
       style="fill:#003893;fill-opacity:1;stroke-width:0.140241" />
    <rect
       width="25.236174"
       height="5.8377872"
       y="18.08156"
       id="rect6"
       x="2.7407527"
       style="fill:#f9f9f9;stroke-width:0.140241;fill-opacity:1"
       transform="matrix(0.9961947,-0.08715576,0,1,0,0)" />
    <rect
       width="25.674013"
       height="1.9459291"
       y="20.027487"
       id="rect8"
       x="2.4488599"
       style="fill:#cf2027;stroke-width:0.140241"
       transform="matrix(0.9961947,-0.08715576,0,1,0,0)" />
    <g
       transform="matrix(0.0778371,-0.00680987,0,0.07783716,13.335529,19.949495)"
       id="g10"
       style="fill:#f7d116">
      <g
         id="s2">
        <g
           id="s-0"
           transform="translate(0,-75)">
          <g
             id="c-9">
            <path
               id="t-9"
               d="M 0,-15 V 0 h 7.5"
               transform="rotate(18,1.6441255e-7,-15)" />
            <use
               xlink:href="#t-9"
               transform="scale(-1,1)"
               id="use16"
               x="0"
               y="0"
               width="100%"
               height="100%" />
          </g>
          <use
             xlink:href="#c-9"
             transform="rotate(72)"
             id="use18"
             x="0"
             y="0"
             width="100%"
             height="100%" />
          <use
             xlink:href="#c-9"
             transform="rotate(144)"
             id="use20"
             x="0"
             y="0"
             width="100%"
             height="100%" />
          <use
             xlink:href="#c-9"
             transform="rotate(-144)"
             id="use22"
             x="0"
             y="0"
             width="100%"
             height="100%" />
          <use
             xlink:href="#c-9"
             transform="rotate(-72)"
             id="use24"
             x="0"
             y="0"
             width="100%"
             height="100%" />
        </g>
        <use
           xlink:href="#s-0"
           y="150"
           id="use26"
           x="0"
           width="100%"
           height="100%" />
      </g>
      <use
         xlink:href="#s2"
         transform="rotate(72)"
         id="use28"
         x="0"
         y="0"
         width="100%"
         height="100%" />
      <use
         xlink:href="#s2"
         transform="rotate(144)"
         id="use30"
         x="0"
         y="0"
         width="100%"
         height="100%" />
      <use
         xlink:href="#s2"
         transform="rotate(-144)"
         id="use32"
         x="0"
         y="0"
         width="100%"
         height="100%" />
      <use
         xlink:href="#s2"
         transform="rotate(-72)"
         id="use34"
         x="0"
         y="0"
         width="100%"
         height="100%" />
    </g>
    <path
       d="m 3.3728066,15.492611 c 0.084145,-7.5438656 4.0100638,-9.9049713 6.1480445,-9.9049713 2.9857399,0 4.2188829,2.2793449 4.4204099,3.2885223 0.201387,1.008336 1.331453,1.814865 1.694538,0.160857 0.363365,-1.6540076 3.875852,-6.6976516 8.192905,-6.6976516 3.953686,0 5.323004,4.0772394 5.2045,7.5463928 C 28.703356,19.325269 16.541478,26.860023 14.940622,31.617712 13.515208,28.742482 3.2659427,24.575909 3.3728066,15.492611 Z M 25.234764,0 C 21.684272,0 17.485303,2.6222344 14.943707,6.9799575 14.257926,5.4061673 11.8145,3.6911547 8.9099594,3.6911547 6.56947,3.6911547 0,6.6163106 0,16.057363 0,28.24154 12.328625,30.744148 14.819453,34.531228 c 0.171235,0.26043 0.722805,0.457187 0.933307,-0.165064 C 17.747554,28.504072 33.160229,21.867145 33.160229,9.9250278 33.160088,3.2276567 28.785117,0 25.234764,0 Z"
       id="path8"
       style="stroke-width:0.140241" />
  </g>
</svg>
