<?xml version="1.0" encoding="utf-8"?>
<svg id="LOGO_LAYER" viewBox="0 0 125.33 131.4429" version="1.1" width="125.33" height="131.4429" xmlns="http://www.w3.org/2000/svg">
  <defs id="defs1">
    <style id="style1">.cls-1{fill:#f9f9f9;}.cls-2{fill:red;}</style>
  </defs>
  <g id="LOGO_GROUP" transform="translate(-232.76,-97.88)">
    <g id="SELECT_FLAG_HERE">
      <g id="BLACK_FLAG">
        <path class="cls-1" d="M 296.4 206.03 C 306.32 194.09 323.36 179.2 333.71 161.9 L 296.4 165.82 L 296.4 206.02 L 296.4 206.03 Z" id="path1"/>
        <path class="cls-1" d="M 282.23 125.13 C 279.61 121.93 275.3 118.99 268.71 118.99 C 260.63 118.99 245.79 127.91 245.48 156.42 C 245.48 156.62 245.48 156.81 245.48 157 L 282.23 153.14 L 282.23 125.13 Z" id="path2"/>
        <path class="cls-1" d="M 247.8 170.93 C 254.14 189.45 271.94 201.23 282.23 209.86 L 301.747 143.438 L 247.8 170.93 Z" id="path3"/>
        <path class="cls-1" d="M 325.371 104.623 C 308.673 104.779 291.196 124.227 289.142 128.623 C 277.058 111.514 246.837 111.944 242.365 152.95 C 239.581 188.646 289.306 219.271 289.306 219.271 C 291.08 220.082 339.919 161.948 341.911 150.095 C 350.006 137.164 341.891 104.469 325.371 104.623 Z" id="path4" style="fill: rgb(255, 255, 255);"/>
        <path class="cls-2" d="M 296.4 122.3 C 293.88 125.82 284.11 126.41 282.24 124.13 L 282.24 153.14 L 245.49 157 C 242.787 157.01 245.275 170.655 247.81 170.92 L 282.24 167.3 L 282.24 209.85 C 286.4 221.939 294.258 224.699 296.41 206.02 L 296.41 165.82 L 333.72 161.9 C 336.524 161.959 342.309 147.966 340.47 147.03 L 296.41 151.66 L 296.41 122.3 L 296.4 122.3 Z" id="path5"/>
        <path class="cls-2" d="m 308.75,179.31 c -0.09,1.83 -0.32,3.67 -0.68,5.5 1.65,-0.39 3.33,-0.57 4.98,-0.52 -0.36,-1.76 -0.59,-3.55 -0.68,-5.36 1.82,-0.1 3.63,-0.07 5.43,0.1 -0.22,-1.63 -0.22,-3.3 0,-4.98 -1.8,0.55 -3.61,0.97 -5.43,1.25 0.09,-1.83 0.32,-3.67 0.68,-5.5 -1.65,0.39 -3.33,0.57 -4.98,0.52 0.36,1.76 0.59,3.55 0.68,5.36 -1.82,0.1 -3.63,0.07 -5.43,-0.1 0.22,1.63 0.22,3.3 0,4.98 1.8,-0.55 3.61,-0.97 5.43,-1.25 z" id="path6"/>
        <path class="cls-2" d="m 275.31,178.51 c -1.8,0.55 -3.61,0.97 -5.43,1.25 0.09,-1.83 0.32,-3.67 0.68,-5.5 -1.65,0.39 -3.33,0.57 -4.98,0.52 0.36,1.76 0.59,3.55 0.68,5.36 -1.82,0.1 -3.63,0.07 -5.43,-0.1 0.22,1.63 0.22,3.3 0,4.98 1.8,-0.55 3.61,-0.97 5.43,-1.25 -0.09,1.83 -0.32,3.67 -0.68,5.5 1.65,-0.39 3.33,-0.57 4.98,-0.52 -0.36,-1.76 -0.59,-3.55 -0.68,-5.36 1.82,-0.1 3.63,-0.07 5.43,0.1 -0.22,-1.63 -0.22,-3.3 0,-4.98 z" id="path7"/>
        <path class="cls-2" d="m 312.38,135.19 c 0.09,-1.83 0.32,-3.67 0.68,-5.5 -1.65,0.39 -3.33,0.57 -4.98,0.52 0.36,1.76 0.59,3.55 0.68,5.36 -1.82,0.1 -3.63,0.07 -5.43,-0.1 0.22,1.63 0.22,3.3 0,4.98 1.8,-0.55 3.61,-0.96 5.43,-1.25 -0.09,1.83 -0.32,3.67 -0.68,5.5 1.65,-0.39 3.33,-0.57 4.98,-0.52 -0.36,-1.76 -0.59,-3.55 -0.68,-5.36 1.82,-0.1 3.63,-0.07 5.43,0.1 -0.22,-1.63 -0.22,-3.3 0,-4.98 -1.8,0.55 -3.61,0.97 -5.43,1.25 z" id="path8"/>
        <path class="cls-2" d="m 269.88,139.66 c 0.09,-1.83 0.32,-3.67 0.68,-5.5 -1.65,0.39 -3.33,0.57 -4.98,0.52 0.36,1.76 0.59,3.55 0.68,5.36 -1.82,0.1 -3.63,0.07 -5.43,-0.1 0.22,1.63 0.22,3.3 0,4.98 1.8,-0.55 3.61,-0.97 5.43,-1.25 -0.09,1.83 -0.32,3.67 -0.68,5.5 1.65,-0.39 3.33,-0.57 4.98,-0.52 -0.36,-1.76 -0.59,-3.55 -0.68,-5.36 1.82,-0.1 3.63,-0.07 5.43,0.1 -0.22,-1.63 -0.22,-3.3 0,-4.98 -1.8,0.55 -3.61,0.97 -5.43,1.25 z" id="path9"/>
        <path d="m 328.12,97.88 c -13.42,0 -29.29,9.91 -38.89,26.38 -2.59,-5.95 -11.83,-12.43 -22.8,-12.43 -8.84,0 -33.67,11.05 -33.67,46.73 0,46.05 46.59,55.51 56.01,69.82 0.65,0.99 2.73,1.73 3.53,-0.62 7.51,-22.18 65.79,-47.24 65.79,-92.37 0,-25.31 -16.53,-37.51 -29.95,-37.51 z m 14.33,37.36 c -0.14,4.02 -0.85,7.96 -2,11.79 -1.55,5.13 -3.89,10.1 -6.75,14.87 -10.35,17.3 -27.39,32.19 -37.31,44.13 -3.44,4.14 -6.03,7.93 -7.18,11.34 -1.11,-2.25 -3.66,-4.72 -6.99,-7.51 -10.29,-8.63 -28.1,-20.41 -34.43,-38.93 -1.46,-4.27 -2.31,-8.89 -2.32,-13.92 0,-0.19 0,-0.39 0,-0.58 0.32,-28.51 15.16,-37.43 23.23,-37.43 6.59,0 10.9,2.94 13.52,6.14 1.87,2.28 2.87,4.7 3.19,6.29 0.76,3.81 5.03,6.86 6.4,0.61 0.43,-1.97 2.05,-5.21 4.57,-8.73 5.48,-7.64 15.22,-16.58 26.39,-16.58 14.94,0 20.12,15.41 19.67,28.52 z" id="path10"/>
      </g>
    </g>
  </g>
</svg>