<?xml version="1.0" encoding="UTF-8" standalone="no"?>
<svg
   width="125.33"
   height="131.45284"
   id="svg2"
   version="1.1"
   xmlns="http://www.w3.org/2000/svg"
   xmlns:svg="http://www.w3.org/2000/svg"
   xmlns:rdf="http://www.w3.org/1999/02/22-rdf-syntax-ns#"
   xmlns:cc="http://creativecommons.org/ns#"
   xmlns:dc="http://purl.org/dc/elements/1.1/">
  <metadata
     id="metadata58">
    <rdf:RDF>
      <cc:Work
         rdf:about="">
        <dc:format>image/svg+xml</dc:format>
        <dc:type
           rdf:resource="http://purl.org/dc/dcmitype/StillImage" />
      </cc:Work>
    </rdf:RDF>
  </metadata>
  <defs
     id="defs56" />
  <path
     style="fill:#072357;fill-opacity:1;stroke-width:0.530046"
     d="M 4.7693575,63.605567 110.77864,56.184918 57.243951,126.15104 20.670749,94.878305"
     id="path4-4" />
  <path
     style="fill:#f9f9f9;fill-opacity:1;stroke-width:0.530046"
     d="M 56.184918,32.642985 83.754592,4.2348357 117.09104,15.852528 113.22043,66.049076 56.184918,124.73325 Z"
     id="path4" />
  <path
     style="fill:#da121a;fill-opacity:1;stroke-width:0.530046"
     d="M 14.840239,28.092459 37.632234,16.961485 56.713904,30.212644 78.445806,9.0107887 109.1885,6.3605551 119.25938,60.619933 6.3594966,70.49686"
     id="path6-7" />
  <path
     style="fill:#f9f9f9;fill-opacity:1;stroke-width:0.530046"
     d="M 11.85594,33.360905 37.880134,16.74586 56.18496,32.689361 56.184918,66.13823 5.9362021,70.534424 Z"
     id="path6" />
  <path
     style="opacity:1;fill:#072357;fill-opacity:1;stroke:none;stroke-opacity:1"
     id="path4393"
     d="m -66.682708,-64.459684 -4.715604,-13.566188 -14.359412,-0.292622 11.445009,-8.676988 -4.159002,-13.747038 11.789009,8.203515 11.789006,-8.203515 -4.159001,13.747039 11.44501,8.676986 -14.359413,0.292624 z"
     transform="matrix(-0.53004639,0.04637305,0,-0.53004708,4.7705803,10.300822)" />
  <path
     transform="matrix(-0.53004639,0.04637305,0,-0.53004708,-5.8302941,-0.30008056)"
     d="m -146.90961,-144.68648 -4.7156,-13.56618 -14.35941,-0.29262 11.44501,-8.67699 -4.15901,-13.74704 11.78901,8.20351 11.78901,-8.20351 -4.159,13.74704 11.44501,8.67698 -14.35941,0.29263 z"
     id="path4488"
     style="opacity:1;fill:#da121a;fill-opacity:1;stroke:none;stroke-opacity:1" />
  <path
     d="M 12.720053,58.554225 C 13.038081,30.04197 27.8762,21.118108 35.956757,21.118108 c 11.284688,0 15.945386,8.614844 16.707063,12.429058 0.761146,3.811034 5.03226,6.859331 6.40455,0.607964 1.37282,-6.249247 14.650483,-25.3150162 30.965311,-25.3139561 14.942009,0 20.118439,15.4100391 19.670019,28.5170261 -1.22281,35.682723 -47.174127,64.13561 -53.239448,82.14129 C 51.076861,108.60704 12.33789,92.865718 12.719523,58.55423 Z M 95.375488,0 C 81.956304,0 66.086184,9.9108075 56.480154,26.380409 53.888227,20.432228 44.653228,13.950291 33.675438,13.950821 24.828963,13.950821 0,25.006529 0,60.690312 c 0,46.050428 46.591078,55.509108 56.010533,69.823008 0.646656,0.9843 2.731859,1.72795 3.527458,-0.62386 C 67.054049,107.70967 125.33,82.649074 125.33,37.513504 125.33,12.198488 108.79255,0.00212022 95.375488,0.00159012 Z"
     id="path8"
     style="stroke-width:0.530046" />
</svg>
