<?xml version="1.0" encoding="utf-8"?>
<svg id="LOGO_LAYER" viewBox="0 0 125.33 131.4429" version="1.1" width="125.33" height="131.4429" xmlns="http://www.w3.org/2000/svg">
  <defs id="defs1">
    <style id="style1">.cls-1{fill:#f4c800;}.cls-2{fill:#fff;}.cls-3{fill:#290072;}</style>
  </defs>
  <g id="LOGO_GROUP" transform="translate(-232.76,-97.88)">
    <g id="SELECT_FLAG_HERE">
      <g id="BLACK_FLAG">
        <path class="cls-3" d="M 244.48 155.43 C 244.1 189.74 276.456 211.327 289.38 219.011 C 292.54 209.611 307.412 196.341 320.292 181.681 L 255.47 123.58 C 249.7 129.03 244.66 138.96 244.48 155.43 Z" id="path1" style="fill: rgb(0, 20, 137);"/>
        <polygon class="cls-2" points="254.31,146.27 252.49,152.11 257.27,148.13 262.06,151.1 260.24,145.64 265.02,141.65 259.1,142.27 257.27,136.82 255.45,142.66 249.52,143.28 " id="polygon1"/>
        <polygon class="cls-2" points="268.37,158.11 273.16,161.07 271.34,155.62 276.12,151.62 270.2,152.25 268.37,146.79 266.54,152.63 260.62,153.26 265.41,156.24 263.58,162.09 " id="polygon2"/>
        <polygon class="cls-2" points="279.46,168.08 284.25,171.05 282.43,165.59 287.21,161.6 281.29,162.22 279.46,156.76 277.64,162.61 271.72,163.23 276.51,166.21 274.67,172.06 " id="polygon3"/>
        <polygon class="cls-2" points="290.56,178.05 295.35,181.02 293.53,175.56 298.31,171.57 292.39,172.19 290.56,166.74 288.73,172.58 282.81,173.2 287.6,176.19 285.77,182.03 " id="polygon4"/>
        <polygon class="cls-2" points="301.66,188.03 306.44,191 304.62,185.54 309.4,181.54 303.48,182.17 301.66,176.71 299.83,182.55 293.91,183.18 298.7,186.16 296.87,192.01 " id="polygon5"/>
        <path class="cls-1" d="M 321.027 105.758 C 304.717 105.758 291.276 125.139 289.906 131.389 C 288.536 137.639 288.755 135.551 287.995 131.741 C 287.235 127.931 279.048 116.746 267.758 116.746 C 264.348 116.746 260.69 120.59 256.48 124.57 L 319.34 181.03 C 324.66 174.97 332.345 168.35 336.405 161.51 L 336.084 109.869 C 333.224 107.509 327.981 105.267 323.431 105.267 L 321.027 105.758 Z" id="path5" style="fill: rgb(255, 205, 0);"/>
        <path class="cls-3" d="M 333.84 109.51 L 333.84 162.67 C 338.76 154.39 345.025 144.881 345.345 135.551 C 345.655 126.441 340.36 114.9 333.84 109.51 Z" id="path6" style="fill: rgb(0, 20, 137);"/>
        <path d="m 328.12,97.88 c -13.42,0 -29.29,9.91 -38.89,26.38 -2.59,-5.95 -11.83,-12.43 -22.8,-12.43 -8.84,0 -33.67,11.05 -33.67,46.73 0,46.05 46.59,55.51 56.01,69.82 0.65,0.99 2.73,1.73 3.53,-0.62 7.51,-22.18 65.79,-47.24 65.79,-92.37 0,-25.31 -16.53,-37.51 -29.95,-37.51 z m 14.33,37.36 c -0.32,9.33 -3.7,18.16 -8.62,26.44 -4.06,6.84 -9.18,13.31 -14.5,19.36 -12.88,14.66 -26.95,26.93 -30.11,36.33 -5.39,-10.89 -44.12,-26.63 -43.74,-60.94 0.18,-16.47 5.22,-26.4 10.99,-31.85 4.22,-3.98 8.83,-5.58 12.24,-5.58 11.28,0 15.94,8.61 16.71,12.43 0.76,3.81 5.03,6.86 6.4,0.61 1.37,-6.25 14.65,-25.31 30.96,-25.31 4.55,0 8.19,1.44 11.05,3.8 6.52,5.39 8.93,15.61 8.62,24.72 z" id="path7"/>
      </g>
    </g>
  </g>
</svg>