<?xml version="1.0" encoding="UTF-8" standalone="no"?>
<svg
   width="125.33"
   height="131.45125"
   id="svg2"
   version="1.1"
   xmlns:xlink="http://www.w3.org/1999/xlink"
   xmlns="http://www.w3.org/2000/svg"
   xmlns:svg="http://www.w3.org/2000/svg"
   xmlns:rdf="http://www.w3.org/1999/02/22-rdf-syntax-ns#"
   xmlns:cc="http://creativecommons.org/ns#"
   xmlns:dc="http://purl.org/dc/elements/1.1/">
  <metadata
     id="metadata14">
    <rdf:RDF>
      <cc:Work
         rdf:about="">
        <dc:format>image/svg+xml</dc:format>
        <dc:type
           rdf:resource="http://purl.org/dc/dcmitype/StillImage" />
      </cc:Work>
    </rdf:RDF>
  </metadata>
  <defs
     id="defs12" />
  <path
     style="opacity:1;fill:#0b0e0e;fill-opacity:1;stroke-width:0.530046"
     d="M 2.3931595,71.255727 C 20.67711,89.554519 38.96106,107.85278 57.245011,126.15104 77.91682,103.35905 98.588629,80.567052 119.26044,57.775057 116.61021,41.69716 113.95997,25.618732 111.30974,9.5408351 100.53231,8.6572478 89.754346,7.7741905 78.976913,6.8906031 71.202722,14.841299 63.429062,22.791995 55.654871,30.742691 50.707948,26.325814 45.760495,21.908408 40.813572,17.491531 31.711616,20.771988 22.610189,24.052445 13.508232,27.332902 9.8032081,41.973844 6.0981838,56.614785 2.3931595,71.255727 Z"
     id="path4" />
  <path
     style="fill:#f9f9f9;fill-opacity:1;fill-rule:evenodd;stroke:none;stroke-width:0.530046px;stroke-linecap:butt;stroke-linejoin:miter;stroke-opacity:1"
     d="M 18.846804,81.340686 56.352651,124.63638 91.24181,73.262488 Z"
     id="path4290" />
  <g
     transform="matrix(0.99789381,-0.0873044,0,0.99789381,55.911552,64.676441)"
     id="g8">
    <g
       id="c3">
      <!-- y3 = -y2 = 30*sin(11.25deg)/sqrt(5-4*cos(11.25deg)-sin^2(11.25deg)) -->
      <path
         id="c"
         d="M -30,0 0,-5.7423716 V 5.7423716 Z"
         style="fill:#fcd116" />
      <use
         xlink:href="#c"
         transform="rotate(22.5)"
         id="use12"
         x="0"
         y="0"
         width="100%"
         height="100%" />
      <use
         xlink:href="#c"
         transform="rotate(45)"
         id="use14"
         x="0"
         y="0"
         width="100%"
         height="100%" />
    </g>
    <use
       xlink:href="#c3"
       transform="rotate(67.5)"
       id="use16"
       x="0"
       y="0"
       width="100%"
       height="100%" />
    <use
       xlink:href="#c3"
       transform="rotate(135)"
       id="use18"
       x="0"
       y="0"
       width="100%"
       height="100%" />
  </g>
  <rect
     y="69.568069"
     width="95.239044"
     height="19.957874"
     id="rect20"
     x="9.5804434"
     style="fill:#0072c6;stroke-width:0.530046"
     transform="matrix(0.9961947,-0.08715574,0,1,0,0)" />
  <path
     d="M 7.1937897,85.305937 57.19049,125.69547 109.44892,74.517511 121.13679,33.490054 109.79782,17.677269 55.911552,117.37822 10.06823,40.10527 Z"
     id="path22"
     style="opacity:1;fill:#ce1126;stroke-width:0.530046" />
  <path
     d="M 12.723764,58.554755 C 13.041792,30.0425 27.87991,21.118638 35.960468,21.118638 c 11.284687,0 15.945385,8.614845 16.707062,12.429058 0.761147,3.811034 5.03226,6.859331 6.404551,0.607964 1.37335,-6.251368 14.648892,-25.3139561 30.96531,-25.3139561 14.943069,0 20.118439,15.4100391 19.670549,28.5170261 C 108.48513,73.040393 62.518972,101.5182 56.468493,119.50002 51.081101,108.60916 12.34372,92.866248 12.723764,58.554755 Z M 95.375488,0 C 81.956304,2.650232e-8 66.086184,9.9108075 56.480154,26.380939 53.888227,20.432758 44.653228,13.950821 33.675438,13.950821 24.829493,13.950821 0,25.006529 0,60.689252 c 0,46.050428 46.591608,55.509108 56.010533,69.822478 0.647186,0.9843 2.731859,1.72795 3.527458,-0.62386 C 67.053519,107.70808 125.33,82.647484 125.33,37.511913 125.32947,12.199018 108.79414,2.650232e-8 95.375488,0 Z"
     id="path8"
     style="opacity:1;stroke-width:0.530046" />
</svg>
