<?xml version="1.0" encoding="UTF-8" standalone="no"?>
<!-- Created with Inkscape (http://www.inkscape.org/) -->

<svg
   width="125.33"
   height="131.45125"
   viewBox="0 0 33.160229 34.779808"
   version="1.1"
   id="svg5"
   xmlns="http://www.w3.org/2000/svg"
   xmlns:svg="http://www.w3.org/2000/svg">
  <defs
     id="defs2">
    <g
       id="petal">
      <line
         x1="0"
         y1="0"
         x2="25"
         y2="0"
         stroke="#ffd700"
         stroke-width="2"
         id="line7" />
      <circle
         cx="25"
         cy="0"
         r="5"
         fill="#ffd700"
         id="circle9" />
    </g>
    <pattern
       y="0"
       x="0"
       height="6"
       width="6"
       patternUnits="userSpaceOnUse"
       id="EMFhbasepattern" />
    <g
       id="petal-2">
      <line
         x1="0"
         y1="0"
         x2="25"
         y2="0"
         stroke="gold"
         stroke-width="2"
         id="line7-7" />
      <circle
         cx="25"
         cy="0"
         r="5"
         fill="gold"
         id="circle9-4" />
    </g>
    <pattern
       y="0"
       x="0"
       height="6"
       width="6"
       patternUnits="userSpaceOnUse"
       id="EMFhbasepattern-0" />
  </defs>
  <g
     id="layer1">
    <path
       d="M 4.768209,22.43863 25.103218,20.47525 15.146076,33.377463 Z"
       id="path23"
       style="fill:#fce100;fill-opacity:1;stroke-width:0.140241" />
    <path
       d="M 30.743027,10.225144 26.225149,20.615492 4.3474846,22.578872 1.9633802,12.761971 Z"
       id="path25"
       style="fill:#0b0e0e;fill-opacity:1;stroke-width:0.140241" />
    <path
       d="M 3.9267603,7.4327963 9.9571422,4.4877261 15.005834,7.9937621 20.755733,2.3841045 28.889737,1.6828969 31.554324,10.377866 1.6828973,13.042454 Z"
       id="path27"
       style="fill:#007168;fill-opacity:1;stroke-width:0.140241" />
    <path
       style="fill:#f9f9f9;fill-opacity:1;fill-rule:evenodd;stroke:none;stroke-width:0.140241px;stroke-linecap:butt;stroke-linejoin:miter;stroke-opacity:1"
       d="M 1.5891934,13.362903 30.842425,10.803577 30.963926,9.8817988 1.8321947,12.430495 Z"
       id="path4238" />
    <path
       id="path4242"
       d="M 3.8330565,23.189086 26.074216,21.243236 27.037165,20.24784 2.9541262,22.354833 Z"
       style="fill:#f9f9f9;fill-opacity:1;fill-rule:evenodd;stroke:none;stroke-width:0.140241px;stroke-linecap:butt;stroke-linejoin:miter;stroke-opacity:1" />
    <g
       transform="matrix(0.14024144,0,0,0.14024144,-0.14024144,-0.14017234)"
       id="g4144">
      <path
         style="fill:#d21034;fill-opacity:1"
         id="path8"
         d="M 114.162,124.976 34.17,50.337 12.364,117.063 57.025,194.396 Z" />
    </g>
    <g
       id="g4231"
       transform="matrix(0.10106754,-0.00884226,0,0.10106754,3.4508726,5.6864601)">
      <path
         style="fill:#fce100"
         id="path16"
         d="M 73.930982,158.39338 46.673759,139.8349 19.453448,158.39867 30.010141,128.55648 2.6135541,110.21834 36.395173,110.33333 46.683463,80.435968 57.004956,110.34923 90.760055,110.20978 63.357474,128.5822 Z" />
      <path
         style="fill:#ffffff;fill-rule:evenodd;stroke:#111111;stroke-width:0.565793;stroke-linecap:round;stroke-linejoin:round;stroke-opacity:1"
         id="path18"
         d="m 23.016783,137.58346 h 19.635608 c 1.579905,1.6482 5.104888,2.3204 8.462304,-0.0196 6.154404,-3.13402 18.060959,0.0196 18.060959,0.0196 l 2.344512,-2.31647 -5.715071,-17.44271 -2.051624,-2.0441 c 0,0 -4.395668,-2.45266 -12.748609,-1.6351 -8.352471,0.81755 -11.283229,-0.27238 -11.283229,-0.27238 0,0 -7.326566,0.81756 -9.378096,1.77129 -0.225533,0.1698 -2.344559,2.18029 -2.344559,2.18029 z" />
      <path
         style="fill:none;stroke:#111111;stroke-width:0.565793;stroke-linecap:round;stroke-linejoin:round;stroke-opacity:1"
         id="path20"
         d="m 26.973259,133.08671 c 0,0 18.756333,-2.18029 24.178517,4.49675 -3.062182,1.94851 -5.758254,2.10914 -8.645829,0.13663 0.459984,-0.7128 6.740649,-6.81367 22.712903,-4.76957" />
      <path
         style="stroke:#111111;stroke-width:0.565793;stroke-linecap:round;stroke-linejoin:round;stroke-opacity:1"
         id="path22"
         d="m 47.048527,115.64399 -0.146444,19.21445 m 16.851388,-18.94207 3.517003,15.26243 m -36.733556,-15.50207 -1.951789,7.87085" />
      <path
         style="fill:#111111;fill-opacity:1;fill-rule:evenodd;stroke:#111111;stroke-width:0.565793;stroke-linecap:round;stroke-linejoin:round;stroke-opacity:1"
         id="path24"
         d="m 10.263716,139.67558 4.617774,5.03495 c 0.542265,0.30074 1.023935,0.28154 1.505604,0 l 6.843676,-7.63689 2.874339,-3.30949 c 0.445059,-0.49019 0.587137,-1.03711 0.547476,-1.52729 l 5.495123,-4.54085 c 0.449518,0.0288 0.717247,0.076 1.166765,0.10433 -0.531094,-0.1279 -0.920767,-0.3684 -0.502604,-0.90966 l 1.231773,-0.89088 0.957988,1.14536 c 0,0 -1.368501,1.65475 -1.505369,1.65475 -0.136869,0 -1.505604,0 -1.505604,0 l -2.87434,2.41861 1.256509,1.03274 1.891568,4.82238 2.327005,-1.52773 -1.505792,-4.9638 3.28518,-3.30949 -1.232101,-1.78221 0.821401,-1.01834 c 0,0 11.369125,6.65653 15.749303,4.87476 0.118281,0.0397 0.264725,-4.7473 0.264725,-4.7473 0,0 -11.770907,-1.14536 -12.04502,-3.30949 -0.273643,-2.1637 2.60079,-2.41818 2.60079,-2.41818 l -1.232101,-1.65474 0.274113,-0.89132 2.053032,2.41861 4.653822,-3.69143 27.374234,29.02114 c 1.49448,-0.56351 1.813653,-0.90354 1.916445,-2.29115 -0.03849,-0.0349 -26.826946,-28.63921 -26.826946,-28.63921 l 2.053032,-2.03624 c 0.404598,-0.42427 0.546818,-0.60455 0.547287,-1.27325 l 3.148077,-2.54555 c 0.946723,0.30245 1.550336,0.83013 2.053033,1.52721 l 8.654747,-6.82104 c 0.228115,0.21213 0.920907,0.42427 1.391218,0.18568 l 14.3088,-12.772365 -15.594879,10.243367 -0.547287,-0.381845 c 0,-0.424315 0.565593,-0.529248 0,-1.272858 -0.605959,-0.676172 -1.505745,0.636451 -1.642332,0.636451 -0.137057,0 -2.25721,-0.696819 -2.721888,-1.579583 l -0.152545,2.343272 -3.969478,3.436731 -3.01102,-0.12728 -4.380178,3.94581 -0.547288,1.52725 0.684344,1.27325 c 0,0 -2.327145,1.90922 -2.327145,1.78177 0,-0.12702 -0.470311,-0.56264 -0.490494,-0.61895 l 1.996239,-1.67221 0.273643,-1.14549 -0.666038,-0.96718 c -0.20183,0.1364 -2.755682,2.62206 -2.892739,2.36715 -0.228115,-0.23745 -7.390729,-7.76426 -7.390729,-7.76426 l 0.410231,-1.40014 -4.653352,-4.70959 c -1.696544,-0.5447 -4.380084,-0.636408 -4.927559,2.80028 -0.426331,0.807207 -3.969337,0.127282 -3.969337,0.127282 l -1.916211,0.381888 -10.813012,14.25596 6.022416,6.74601 12.318617,-14.51044 0.365687,-4.11072 2.584737,2.68762 c 0.861767,0.10297 1.682698,0.112 2.463733,-0.25456 l 7.298262,7.57565 -1.215203,1.10258 c 0.4107,0.42427 0.693262,0.69533 1.103962,1.11961 0.4107,-0.25448 0.802626,-0.56003 1.213326,-0.81494 0.137057,0.17023 0.365172,0.4928 0.502228,0.6626 -0.611591,0.30947 -1.040597,0.72152 -1.652189,1.031 -0.97864,-0.5932 -1.923485,-1.33174 -1.851672,-2.50722 l -4.106064,3.18204 -0.137057,0.6364 -12.18156,9.4191 -1.094998,0.12745 -0.273737,2.92756 7.938626,-6.1096 v -0.89132 l 0.82126,0.63641 6.159097,-4.58187 c 0,0 0.410701,0.50895 0.274113,0.50895 -0.137056,0 -5.475222,4.58231 -5.475222,4.58231 l -0.136587,0.50895 -0.95827,0.76386 -0.547522,-0.38193 -7.391151,6.1096 h -1.094951 l -4.106205,3.81888 c -1.059091,0.0856 -1.976807,0.18988 -2.87434,0.76343 z" />
    </g>
    <path
       d="m 3.3664958,15.492612 c 0.084145,-7.5438674 4.0100637,-9.9049723 6.1480445,-9.9049723 2.9857407,0 4.2188827,2.2793441 4.4204097,3.2885215 0.201387,1.008336 1.331453,1.8148648 1.694538,0.160857 0.363365,-1.6540076 3.875852,-6.6976507 8.192905,-6.6976507 3.953686,0 5.323004,4.0772394 5.2045,7.5451297 C 28.703356,19.32527 16.541478,26.860022 14.940622,31.617713 13.515208,28.736172 3.2659427,24.570861 3.3664958,15.492612 Z M 25.234764,0 C 21.684272,0 17.485303,2.6222345 14.943707,6.9799567 14.257926,5.4061673 11.8145,3.6911547 8.9099594,3.6911547 6.56947,3.6911547 0,6.6163107 0,16.057364 0,28.241541 12.327363,30.744149 14.819453,34.531229 14.990688,34.791657 15.542258,34.988416 15.75276,34.366165 17.741243,28.497762 33.160229,21.867147 33.160229,9.925027 33.160088,3.2276568 28.785117,0 25.234764,0 Z"
       id="path29"
       style="stroke-width:0.140241" />
  </g>
</svg>
