<?xml version="1.0" encoding="UTF-8" standalone="no"?>
<svg
   width="125.33"
   height="131.45125"
   xml:space="preserve"
   id="svg2"
   version="1.1"
   xmlns="http://www.w3.org/2000/svg"
   xmlns:svg="http://www.w3.org/2000/svg"
   xmlns:rdf="http://www.w3.org/1999/02/22-rdf-syntax-ns#"
   xmlns:cc="http://creativecommons.org/ns#"
   xmlns:dc="http://purl.org/dc/elements/1.1/"><metadata
     id="metadata39"><rdf:RDF><cc:Work
         rdf:about=""><dc:format>image/svg+xml</dc:format><dc:type
           rdf:resource="http://purl.org/dc/dcmitype/StillImage" /></cc:Work></rdf:RDF></metadata><defs
     id="defs4"><g
       id="petal"><line
         x1="0"
         y1="0"
         x2="25"
         y2="0"
         stroke="#ffd700"
         stroke-width="2"
         id="line7" /><circle
         cx="25"
         cy="0"
         r="5"
         fill="#ffd700"
         id="circle9" /></g><pattern
       y="0"
       x="0"
       height="6"
       width="6"
       patternUnits="userSpaceOnUse"
       id="EMFhbasepattern" /><pattern
       y="0"
       x="0"
       height="6"
       width="6"
       patternUnits="userSpaceOnUse"
       id="EMFhbasepattern-9" /></defs><path
     d="M 18.021577,84.807423 94.878305,77.386774 57.245011,126.15104 Z"
     id="path23"
     style="fill:#009739;fill-opacity:1;stroke-width:0.530046" /><path
     d="M 14.841299,28.092459 37.633294,16.961485 56.714964,30.212644 78.446866,9.0107887 109.18956,6.3605551 119.26044,39.223432 6.3605567,49.294313 Z"
     id="path27"
     style="fill:#009739;fill-opacity:1;stroke-width:0.530046" /><path
     id="path4271"
     d="M 6.8829736,44.029559 119.71878,34.157706 112.54669,60.216339 97.456832,83.621566 13.24353,90.989275 3.9376839,68.697389 Z"
     style="fill:#ffd100;fill-opacity:1;fill-rule:nonzero;stroke:none;stroke-width:0.530046" /><g
     id="g4407"
     transform="matrix(0.43208522,-0.03780256,0,0.43208522,10.655557,16.27908)"
     style="fill:#0b0e0e;fill-opacity:1"><path
       style="fill:#0b0e0e;fill-opacity:1;fill-rule:nonzero;stroke:none"
       d="m 106.17842,89.768717 -9.196961,28.461933 14.231101,4.5501 z"
       id="path4275" /><path
       style="fill:#0b0e0e;fill-opacity:1;fill-rule:nonzero;stroke:none"
       d="m 106.17842,89.768717 9.29379,28.461933 -14.2311,4.5501 z"
       id="path4277" /><path
       style="fill:#0b0e0e;fill-opacity:1;fill-rule:nonzero;stroke:none"
       d="m 134.64062,110.38917 h -29.91434 v 15.00547 z"
       id="path4279" /><path
       style="fill:#0b0e0e;fill-opacity:1;fill-rule:nonzero;stroke:none"
       d="m 134.64062,110.38917 -24.20255,17.61934 -8.71291,-12.10131 z"
       id="path4281" /><path
       style="fill:#0b0e0e;fill-opacity:1;fill-rule:nonzero;stroke:none"
       d="m 123.79788,143.88523 -9.29378,-28.46205 -14.13428,4.64688 z"
       id="path4283" /><path
       style="fill:#0b0e0e;fill-opacity:1;fill-rule:nonzero;stroke:none"
       d="m 123.79788,143.88523 -24.20255,-17.61931 8.80974,-12.1013 z"
       id="path4285" /><path
       style="fill:#0b0e0e;fill-opacity:1;fill-rule:nonzero;stroke:none"
       d="m 88.655792,143.88523 24.202528,-17.61931 -8.80972,-12.1013 z"
       id="path4287" /><path
       style="fill:#0b0e0e;fill-opacity:1;fill-rule:nonzero;stroke:none"
       d="m 88.655792,143.88523 9.196963,-28.46205 14.231095,4.64688 z"
       id="path4289" /><path
       style="fill:#0b0e0e;fill-opacity:1;fill-rule:nonzero;stroke:none"
       d="m 77.813049,110.38917 24.202551,17.61934 8.71291,-12.10131 z"
       id="path4291" /><path
       style="fill:#0b0e0e;fill-opacity:1;fill-rule:nonzero;stroke:none"
       d="m 77.813049,110.38917 h 29.914341 v 15.00547 z"
       id="path4293" /></g><g
     id="g4395"
     transform="matrix(0.43208522,-0.03780256,0,0.43208522,-7.5560366,18.217139)"
     style="fill:#0b0e0e;fill-opacity:1"><path
       style="fill:#0b0e0e;fill-opacity:1;fill-rule:nonzero;stroke:none"
       d="m 210.82896,89.768717 -9.19698,28.461933 14.2311,4.5501 z"
       id="path4295" /><path
       style="fill:#0b0e0e;fill-opacity:1;fill-rule:nonzero;stroke:none"
       d="m 210.82896,89.768717 9.29377,28.461933 -14.2311,4.5501 z"
       id="path4297" /><path
       style="fill:#0b0e0e;fill-opacity:1;fill-rule:nonzero;stroke:none"
       d="M 239.29116,110.38917 H 209.3768 v 15.00547 z"
       id="path4299" /><path
       style="fill:#0b0e0e;fill-opacity:1;fill-rule:nonzero;stroke:none"
       d="m 239.29116,110.38917 -24.20257,17.61934 -8.80972,-12.10131 z"
       id="path4301" /><path
       style="fill:#0b0e0e;fill-opacity:1;fill-rule:nonzero;stroke:none"
       d="m 228.4484,143.88523 -9.29378,-28.46205 -14.2311,4.64688 z"
       id="path4303" /><path
       style="fill:#0b0e0e;fill-opacity:1;fill-rule:nonzero;stroke:none"
       d="m 228.4484,143.88523 -24.20253,-17.61931 8.80972,-12.1013 z"
       id="path4305" /><path
       style="fill:#0b0e0e;fill-opacity:1;fill-rule:nonzero;stroke:none"
       d="m 193.30631,143.88523 24.10574,-17.61931 -8.71293,-12.1013 z"
       id="path4307" /><path
       style="fill:#0b0e0e;fill-opacity:1;fill-rule:nonzero;stroke:none"
       d="m 193.30631,143.88523 9.19696,-28.46205 14.2311,4.64688 z"
       id="path4309" /><path
       style="fill:#0b0e0e;fill-opacity:1;fill-rule:nonzero;stroke:none"
       d="m 182.36676,110.38917 24.20254,17.61934 8.80972,-12.10131 z"
       id="path4311" /><path
       style="fill:#0b0e0e;fill-opacity:1;fill-rule:nonzero;stroke:none"
       d="m 182.36676,110.38917 h 29.91434 v 15.00547 z"
       id="path4313" /></g><path
     style="fill:#ef3340;fill-opacity:1;stroke-width:0.530046"
     d="M 44.079718,69.647386 17.581639,28.694062 6.0234472,64.061937 23.335293,103.4883 Z"
     id="path8" /><path
     d="M 12.723764,58.554755 C 13.041792,30.0425 27.87991,21.118638 35.960468,21.118638 c 11.284687,0 15.945385,8.614845 16.707062,12.429058 0.761147,3.811034 5.03226,6.859331 6.404551,0.607964 1.37335,-6.251368 14.648892,-25.3139561 30.96531,-25.3139561 14.943069,0 20.118439,15.4100391 19.670549,28.5170261 C 108.48513,73.040393 62.518972,101.5182 56.468493,119.50002 51.081101,108.60916 12.34372,92.866248 12.723764,58.554755 Z M 95.375488,0 C 81.956304,2.650232e-8 66.086184,9.9108075 56.480154,26.380939 53.888227,20.432758 44.653228,13.950821 33.675438,13.950821 24.829493,13.950821 0,25.006529 0,60.689252 c 0,46.050428 46.591608,55.509108 56.010533,69.822478 0.647186,0.9843 2.731859,1.72795 3.527458,-0.62386 C 67.053519,107.70808 125.33,82.647484 125.33,37.511913 125.32947,12.199018 108.79414,2.650232e-8 95.375488,0 Z"
     id="path29"
     style="stroke-width:0.530046" /></svg>
