<?xml version="1.0" encoding="utf-8"?>
<svg id="LOGO_LAYER" viewBox="0 0 125.33 131.4429" version="1.1" width="125.33" height="131.4429" xmlns="http://www.w3.org/2000/svg">
  <defs id="defs1">
    <style id="style1">.cls-1{fill:#006234;}.cls-2{fill:#c2272d;}</style>
  </defs>
  <g id="LOGO_GROUP" transform="translate(-232.76,-97.88)">
    <g id="SELECT_FLAG_HERE">
      <g id="BLACK_FLAG">
        <path class="cls-2" d="M 289.074 219.864 C 412.337 87.705 303.27 86.061 289.17 129.213 C 281.998 101.716 174.193 122.373 289.074 219.864 Z" id="path5" style="fill: rgb(193, 39, 45);"/>
        <path class="cls-1" d="m 295.65,156.42 -4.94,-14.68 -4.94,15.72 -15.95,1.68 12.9,8.02 -4.96,15.8 13,-10.81 12.87,8 -4.92,-14.62 12.98,-10.79 -16.04,1.69 z m -12.57,18.64 2.02,-6.43 3.27,2.03 z m 1.79,-14.74 -1.26,4.01 -5.33,-3.31 6.59,-0.69 z m 3.83,-3.17 2.03,-6.47 2.03,6.04 z m 4.96,2.25 1.8,5.36 -4.78,3.98 -4.7,-2.92 1.82,-5.79 5.86,-0.62 z m 9.43,-0.99 -5.3,4.41 -1.25,-3.72 z m -10.02,11.81 3.3,-2.75 2.04,6.07 -5.35,-3.32 z" id="path6" style="fill: rgb(0, 98, 51);"/>
        <path d="m 328.12,97.88 c -13.42,0 -29.29,9.91 -38.89,26.38 -2.59,-5.95 -11.83,-12.43 -22.8,-12.43 -8.84,0 -33.67,11.05 -33.67,46.73 0,46.05 46.59,55.51 56.01,69.82 0.65,0.99 2.73,1.73 3.53,-0.62 7.51,-22.18 65.79,-47.24 65.79,-92.37 0,-25.31 -16.53,-37.51 -29.95,-37.51 z m 14.33,37.36 c -1.22,35.68 -47.19,64.15 -53.24,82.14 -5.39,-10.89 -44.12,-26.63 -43.74,-60.94 0.32,-28.51 15.16,-37.43 23.23,-37.43 11.28,0 15.94,8.61 16.71,12.43 0.76,3.81 5.03,6.86 6.4,0.61 1.37,-6.25 14.65,-25.31 30.96,-25.31 14.94,0 20.12,15.41 19.67,28.52 z" id="path7"/>
      </g>
    </g>
  </g>
</svg>