<?xml version="1.0" encoding="UTF-8" standalone="no"?>
<svg
   width="125.33"
   height="131.45125"
   xml:space="preserve"
   id="svg2"
   version="1.1"
   xmlns="http://www.w3.org/2000/svg"
   xmlns:svg="http://www.w3.org/2000/svg"
   xmlns:rdf="http://www.w3.org/1999/02/22-rdf-syntax-ns#"
   xmlns:cc="http://creativecommons.org/ns#"
   xmlns:dc="http://purl.org/dc/elements/1.1/"><metadata
     id="metadata39"><rdf:RDF><cc:Work
         rdf:about=""><dc:format>image/svg+xml</dc:format><dc:type
           rdf:resource="http://purl.org/dc/dcmitype/StillImage" /></cc:Work></rdf:RDF></metadata><defs
     id="defs4"><g
       id="petal"><line
         x1="0"
         y1="0"
         x2="25"
         y2="0"
         stroke="#ffd700"
         stroke-width="2"
         id="line7" /><circle
         cx="25"
         cy="0"
         r="5"
         fill="#ffd700"
         id="circle9" /></g><pattern
       y="0"
       x="0"
       height="6"
       width="6"
       patternUnits="userSpaceOnUse"
       id="EMFhbasepattern" /><pattern
       y="0"
       x="0"
       height="6"
       width="6"
       patternUnits="userSpaceOnUse"
       id="EMFhbasepattern-7" /></defs><path
     style="fill:#006a4e;fill-opacity:1;fill-rule:evenodd;stroke:none;stroke-width:0.530046px;stroke-linecap:butt;stroke-linejoin:miter;stroke-opacity:1"
     d="M 18.374844,25.315343 6.0341515,47.663015 6.8218556,77.001711 27.039586,102.80252 56.709759,125.15066 72.726404,106.15734 102.65915,76.756639 118.15065,44.418291 108.96078,9.7756313 85.067098,5.564427 68.000182,15.72233 56.709759,30.101078 44.1065,18.60046 27.302153,18.75781 Z"
     id="path4301" /><path
     d="M 12.72376,58.554755 C 13.04179,30.0425 27.87991,21.118638 35.96047,21.118638 c 11.28468,0 15.94538,8.614845 16.70706,12.429058 0.76115,3.811034 5.03226,6.859331 6.40455,0.607964 1.37335,-6.251368 14.64889,-25.3139561 30.96531,-25.3139561 14.94307,0 20.11844,15.4100391 19.67055,28.5170261 C 108.48513,73.040393 62.51897,101.5182 56.46849,119.50002 51.0811,108.60916 12.34372,92.866248 12.72376,58.554755 Z M 95.37549,0 C 81.9563,0 66.08618,9.9108075 56.48015,26.380939 53.88823,20.432758 44.65323,13.950821 33.67544,13.950821 24.82949,13.950821 0,25.006529 0,60.689252 c 0,46.050428 46.59161,55.509108 56.01053,69.822478 0.64719,0.9843 2.73186,1.72795 3.52746,-0.62386 C 67.05352,107.70808 125.33,82.647484 125.33,37.511913 125.32947,12.199018 108.79414,0 95.37549,0 Z"
     id="path29"
     style="fill:#000000;fill-opacity:1;stroke-width:0.530046" /><g
     id="g1397"
     transform="matrix(0.13723,-0.01442345,0,0.13723,-2.93,34.683561)"><circle
       cx="400"
       cy="300"
       r="200"
       fill="#f42a41"
       id="circle921" /></g></svg>