<?xml version="1.0" encoding="UTF-8" standalone="no"?>
<svg
   width="125.33"
   height="131.45511"
   version="1.1"
   xml:space="preserve"
   id="svg2107"
   xmlns="http://www.w3.org/2000/svg"
   xmlns:svg="http://www.w3.org/2000/svg"
   xmlns:rdf="http://www.w3.org/1999/02/22-rdf-syntax-ns#"
   xmlns:cc="http://creativecommons.org/ns#"
   xmlns:dc="http://purl.org/dc/elements/1.1/"><metadata
     id="metadata2087"><rdf:RDF><cc:Work
         rdf:about=""><dc:format>image/svg+xml</dc:format><dc:type
           rdf:resource="http://purl.org/dc/dcmitype/StillImage" /></cc:Work></rdf:RDF></metadata><defs
     id="defs2089" /><path
     d="M 18.023625,84.809575 94.882302,77.388737 57.248053,126.15424 Z"
     fill="#078930"
     id="path2091"
     style="stroke-width:0.53006" /><path
     d="M 8.4030387,39.078132 3.7246245,65.378641 11.907688,78.231002 V 89.435937 L 102.00196,81.553418 V 71.264956 l 17.87203,-41.2747 z"
     fill="#ffffff"
     id="path2093"
     style="fill:#f9f9f9;fill-opacity:1;stroke-width:0.53006" /><path
     d="M 14.843266,28.093172 37.635839,16.961915 56.717994,30.213411 78.450447,9.0110174 109.19392,6.3607181 119.26506,35.791231 6.3623083,45.668896 Z"
     fill="#111111"
     id="path2095"
     style="fill:#0b0e0e;fill-opacity:1;stroke-width:0.53006" /><rect
     transform="matrix(0.99619464,-0.08715641,0,1,0,0)"
     x="7.1426225"
     y="51.757576"
     width="103.31349"
     height="33.188637"
     fill="#da121a"
     id="rect2099"
     style="stroke-width:0.530059" /><path
     d="M 59.983162,65.71682 17.582615,26.153683 6.0241301,61.522456 29.697133,102.51357 Z"
     fill="#009edb"
     id="path2101"
     style="stroke-width:0.53006" /><polygon
     transform="matrix(3.0099448e-5,8.0648605e-6,-1.0617099e-5,2.9170253e-5,31.790339,67.344103)"
     points="-158734,-488533 -158734,488533 415571,-301930 -513674,0 415571,301930 "
     fill="#fcdd09"
     id="polygon2103" /><path
     d="M 12.725677,58.555711 C 13.043713,30.042732 27.882208,21.118644 35.96297,21.118644 c 11.284974,0 15.945791,8.615063 16.707487,12.429374 0.761166,3.81113 5.032388,6.859504 6.404713,0.607978 1.373385,-6.251526 14.649264,-25.3145978 30.966096,-25.3145978 14.943444,0 20.118954,15.4104298 19.671054,28.5177498 C 108.48947,73.041717 62.522149,101.51759 56.473106,119.50252 51.085578,108.61138 12.347214,92.868075 12.727267,58.556241 Z M 95.377908,0 C 81.958383,0 66.087861,9.911059 56.481587,26.381609 53.889594,20.433277 44.654362,13.951175 33.676292,13.951175 24.830123,13.951175 0,25.007163 0,60.690792 c 0,46.051598 46.59279,55.507868 56.011424,69.824788 0.647203,0.98432 2.731928,1.72799 3.527548,-0.62388 C 67.054691,107.71134 125.33,82.650111 125.33,37.512865 125.32947,12.199327 108.79372,0 95.374728,0 Z"
     id="path2105"
     style="stroke-width:0.53006" /></svg>
