<?xml version="1.0" encoding="UTF-8" standalone="no"?>
<svg
   width="125.33"
   height="131.45125"
   version="1.1"
   id="svg1776"
   xmlns="http://www.w3.org/2000/svg"
   xmlns:svg="http://www.w3.org/2000/svg">
  <defs
     id="defs1780" />
  <path
     d="M 2.3931595,71.255727 C 20.67711,89.554519 38.96106,107.85278 57.245011,126.15104 77.91682,103.35905 98.588629,80.567052 119.26044,57.775057 116.61021,41.69716 113.95997,25.618732 111.30974,9.5408351 100.53231,8.6572478 89.754346,7.7741905 78.976913,6.8906031 71.202722,14.841299 63.429062,22.791995 55.654871,30.742691 50.707948,26.325814 45.760495,21.908408 40.813572,17.491531 31.711616,20.771988 22.610189,24.052445 13.508232,27.332902 9.8032081,41.973844 6.0981838,56.614785 2.3931595,71.255727 Z"
     fill="#ffffff"
     id="path1768"
     style="stroke-width:0.530046;fill:#f9f9f9;fill-opacity:1" />
  <path
     d="M 12.723764,58.554755 C 13.041792,30.0425 27.87991,21.118638 35.960468,21.118638 c 11.284687,0 15.945385,8.614845 16.707062,12.429058 0.761147,3.811034 5.03226,6.859331 6.404551,0.607964 1.37335,-6.251368 14.648892,-25.3139561 30.96531,-25.3139561 14.943069,0 20.118439,15.4100391 19.670549,28.5170261 C 108.48513,73.040393 62.518972,101.5182 56.468493,119.50002 51.081101,108.60916 12.34372,92.866248 12.723764,58.554755 Z M 95.375488,0 C 81.956304,0 66.086184,9.9108075 56.480154,26.380939 53.888227,20.432758 44.653228,13.950821 33.675438,13.950821 24.829493,13.950821 0,25.006529 0,60.689252 c 0,46.050428 46.591608,55.509108 56.010533,69.822478 0.647186,0.9843 2.731859,1.72795 3.527458,-0.62386 C 67.053519,107.70808 125.33,82.647484 125.33,37.511913 125.32947,12.199018 108.79414,0 95.375488,0 Z"
     id="path1770"
     style="stroke-width:0.530046" />
  <path
     d="m 43.501438,46.733131 c 0,1.25833 0.157423,1.401972 0.23587,1.631482 0.07845,0.22898 0.177036,4.546738 -0.471741,5.783867 -0.648777,1.237128 -1.927249,2.017356 -2.438743,2.18008 -0.511495,0.162725 -2.123896,-0.836943 -3.618627,-1.177763 -1.494731,-0.34135 -1.415754,-0.269263 -2.044919,-0.214138 -0.629165,0.05512 -2.045449,0.709732 -2.438744,1.078644 -0.255482,-0.01696 -0.314847,-0.129861 -0.471741,0.04134 -0.157424,0.171205 -0.786589,0.855494 -0.944013,1.26257 -0.157423,0.407076 -0.550718,1.93626 -1.022459,2.134497 -0.471741,0.198767 -1.750213,1.588549 -2.595637,1.721591 -0.845424,0.133041 -0.609554,0.01378 -1.179884,0.02438 -0.570329,0.0106 -0.629165,-0.574041 -1.179883,-0.840654 -0.550718,-0.266613 -0.708142,-0.488703 -0.708142,-0.488703 0,0 -0.157424,-0.615383 -0.393294,-0.594712 -0.235871,0.02067 -0.471742,1.14278 -0.471742,1.457098 0,0.314847 0.629166,1.439606 0.944013,1.647914 0.314848,0.208308 0.314848,1.624592 0.157424,2.031668 -0.157424,0.407076 0.314847,0.759026 0.393294,1.14543 0.07845,0.386404 -0.471741,0.748956 -0.23587,0.807261 0.23587,0.05778 0.550718,0.502484 0.550718,0.974225 0,0.471741 1.179883,0.525806 1.415754,0.977406 0.23587,0.451069 0.314847,1.231297 0.393294,1.696148 0.07845,0.464851 0.354071,0.22474 0.393295,1.381301 0.373682,0.144173 0.944012,0.468031 1.415754,0.662558 0.471741,0.194527 0.393294,0.752136 1.022459,0.932882 0.629165,0.180746 0.629165,-0.05513 0.944013,-0.0042 0.314847,0.05141 -0.157424,0.171205 0.393294,0.280395 0.550718,0.109189 0.786589,-0.147353 1.25886,0.04717 0.471742,0.194527 0.708142,0.725103 1.02246,0.854435 0.314847,0.129861 1.652154,0.406015 1.730601,0.478102 0.07845,0.07156 0.944013,0.310607 1.101437,0.296826 0.157423,-0.01378 0.629165,-0.369973 0.629165,-0.369973 0,0 0.550718,0.10919 1.022459,-0.08958 0.471742,-0.198237 0.786589,-0.698071 1.101437,-0.725633 0.314847,-0.02756 0.393294,0.122971 0.708142,0.09541 0.314847,-0.02756 0.786588,-0.22633 0.786588,-0.22633 0,0 0.708142,-0.219439 1.258331,0.04718 0.550718,0.266613 1.809048,1.651094 1.809048,2.280259 0,0.629165 -0.07845,0.950903 -0.07845,0.950903 0,0 0.629165,-0.134101 0.865036,0.0027 0.23587,0.136752 0.216259,-0.156364 1.966472,-0.01431 -0.1182,-0.422447 -1.809048,-1.49367 -0.235871,-3.362084 1.573178,-1.868413 1.671767,-1.168752 2.045449,-1.515933 0.373683,-0.34771 1.809049,-1.397732 4.247792,-0.764857 2.359767,-0.599482 0.629165,-0.762736 1.966472,-0.958323 0.235871,-0.119261 0.688531,-0.04081 1.179884,0.05406 0.157423,-0.309017 0.491883,-0.613263 1.022459,-0.561849 0.09859,-0.284105 0.747365,-0.714502 1.415754,-0.831643 0.09859,-0.539587 1.789967,-1.355858 2.753591,-1.499501 0.393294,-0.388524 0.845424,-2.001455 2.988932,-1.441196 0.07845,-0.517855 0.432517,-1.37494 1.022459,-1.583779 0.1182,-1.072284 -0.275624,-3.181338 0.786589,-4.00185 1.061683,-1.056382 2.065061,-0.928111 3.854497,-1.045251 1.219107,0.148943 1.809049,1.021399 2.202343,1.065923 0.393295,0.04452 0.550718,0.03074 1.02246,-0.325449 0.471741,-0.356191 -0.07845,-0.937122 0.314847,-0.971575 0.393295,-0.03445 0.235871,0.05777 0.865036,-0.0758 0.629165,-0.133572 0.550718,-0.34294 0.944012,-0.475982 0.629696,0.259723 1.337308,-0.03869 1.652155,0.170145 0.314848,0.208308 0.354071,0.184986 1.02246,0.22527 0.23587,0.372622 0.865035,0.317497 0.865035,0.317497 0,0 -0.471741,-0.11608 -0.314317,-0.365732 0.157424,-0.249651 0,-0.944012 -0.314848,-1.231297 -0.314317,-0.287286 -0.471741,-0.351951 -0.707612,-0.646127 -0.23587,-0.294176 0.07845,-0.321738 -0.314847,-0.68058 -0.393295,-0.358841 -1.25833,-0.676339 -1.494201,-1.127938 -0.235871,-0.4516 -0.157424,-0.772808 -0.550718,-1.131649 -0.393295,-0.358842 -1.966472,-1.558337 -2.044919,-2.96773 -0.07845,-1.408863 0.07845,-2.779563 1.022459,-3.31438 -0.03922,-0.822632 0.157424,-0.957794 1.02246,-1.505332 0.865035,-0.547538 0.944012,-0.240111 1.494731,-0.287815 0.550718,-0.04823 0.865565,0.0032 1.415753,-0.438348 0.550719,-0.441529 0.07845,-1.265221 1.494731,-2.648112 1.416284,-1.382361 1.966472,-2.059761 2.438744,-2.180081 0.471741,-0.119791 2.182731,-1.469289 2.910485,-1.434306 0.511494,-0.654077 1.022459,-1.426885 1.652154,-1.953751 0.629165,-0.526866 1.337307,-0.588881 1.652155,-1.009738 0.314847,-0.420857 0.23587,-1.122108 1.179883,-1.833961 0.944013,-0.711852 1.730602,-1.174052 2.123896,-1.522823 0.393294,-0.3493 1.25833,-0.188696 1.573178,-0.531106 0.314847,-0.34241 0.314847,-1.522294 0.629165,-1.785727 0.314847,-0.263433 -1.02246,0.640296 -1.730602,1.016629 -0.708142,0.376333 -1.730601,1.016629 -2.595637,1.013979 -0.865036,-0.0032 -0.393294,0.506194 -0.865036,0.704962 -0.471741,0.198767 -1.25833,0.188696 -1.573177,0.531106 -0.314848,0.34241 -0.865036,1.176703 -1.337307,1.532894 -0.472272,0.355662 -0.708142,0.297887 -1.179884,0.575101 -0.472271,0.277214 -0.865035,0.547538 -1.25833,0.739415 -0.393294,0.191876 -1.573178,0.216258 -1.573178,0.216258 0,0 -1.022459,1.426885 -1.49473,1.93997 -0.471742,0.513085 -1.02246,0.482873 -1.494731,0.760087 -0.471741,0.277214 -4.483663,3.224272 -7.236724,3.858207 -2.753061,0.633936 -1.49473,-0.104949 -2.359766,0.206719 -0.865036,0.311667 -2.123896,2.073541 -3.146356,2.241566 -1.022459,0.168024 -1.337307,0.11714 -1.573177,0.137812 -0.235871,0.02067 -1.494731,0.91751 -2.28132,0.828992 -1.160272,0.45531 -2.025307,0.45266 -2.359767,0.442059 -0.334459,-0.01007 -0.944012,0.475982 -1.809048,0.158484 -0.668388,-0.157424 -0.668388,0.314317 -1.966472,0.01484 -1.298084,-0.299476 -2.202873,0.349831 -2.832038,0.09064 -0.629165,-0.259723 -0.550718,-0.502484 -1.022459,-0.46114 -0.471742,0.04134 -0.471742,0.356191 -1.02246,0.403895 -0.550718,0.04823 -0.629165,-0.259723 -1.101436,-0.218379 -0.471742,0.04134 -1.02246,0.403895 -1.730602,0.387464 -0.708142,-0.01696 -0.944012,-0.310607 -1.415754,-0.269264 -0.472271,0.04081 -3.067908,-0.833232 -3.067908,-0.833232 z"
     fill="#ee8800"
     id="path1772"
     style="stroke-width:0.530046" />
  <path
     d="m 51.549662,94.080585 c 1.36593,-1.103027 2.567545,-1.535545 4.424827,-2.025838 1.857283,-0.490292 3.823755,-1.208505 4.861586,-1.572647 1.037831,-0.364142 -3.495656,1.616641 -4.643206,2.044919 -1.147021,0.428277 -4.643207,1.553566 -4.643207,1.553566 z m 7.483725,-3.550251 c -0.382163,-2.315243 0.545948,-4.854695 2.676204,-6.024507 0.491883,1.650034 -1.03783,4.679249 -2.676204,6.024507 z m 3.597425,-1.537135 c -1.13907,-1.846151 0.788709,-4.524476 2.201283,-5.878744 0.647716,1.116278 -0.499834,4.712642 -2.201283,5.878744 z m 3.340352,-1.801097 c -1.218046,-1.562047 0.218379,-4.607693 1.748093,-5.888816 0.600543,1.586429 0,4.588612 -1.748093,5.888816 z m 3.340883,-2.378848 c -1.101967,-1.47724 -0.33658,-4.002381 1.247199,-5.725031 1.14755,1.210625 0.163784,4.137542 -1.247199,5.725031 z m 2.667723,-2.352876 c -0.928641,-1.393492 0.218379,-5.044982 1.693499,-6.157019 0.655667,1.253559 0.163784,5.011588 -1.693499,6.157019 z m 2.130257,-0.733054 c -0.272974,-2.106405 3.441591,-4.780489 4.971305,-4.859466 -0.163784,1.762404 -1.748093,3.813154 -4.971305,4.859466 z m -2.075662,2.585036 c 1.748093,-1.955341 5.13456,-2.251637 6.336705,-1.974423 -0.327569,1.066453 -4.315108,3.709265 -6.336705,1.974423 z m -2.40376,2.013116 c 2.458355,-0.870336 4.042664,-1.555686 5.517253,-0.154774 -1.037831,1.401973 -5.0259,1.36805 -5.517253,0.154774 z m -3.495656,1.890145 c 2.348635,-1.461868 5.189154,0.146823 5.626442,1.201086 -2.622139,1.321935 -5.680507,-0.922811 -5.626442,-1.201086 z m -3.223212,2.084673 c 2.130256,-1.006028 4.588611,-0.128271 5.571847,0.987476 -1.14702,0.646657 -4.151853,1.510633 -5.571847,-0.987476 z m -2.949709,1.186774 c 2.458356,-0.488173 4.817062,1.166102 5.330677,2.184321 -3.145825,0.57404 -4.347441,-0.249122 -5.330677,-2.184321 z m -0.791889,1.926718 c -1.365929,-0.863975 -2.567545,-1.086595 -4.424827,-1.251439 -1.857283,-0.165375 -3.823755,-0.539057 -4.861586,-0.721923 -1.037831,-0.182336 3.496186,1.004968 4.643207,1.232358 1.14702,0.227389 4.643206,0.741004 4.643206,0.741004 z M 51.686414,91.17328 c 0.382164,-2.382028 -0.545948,-4.759286 -2.676734,-5.555946 -0.491883,1.736432 1.037831,4.497974 2.676734,5.555946 z m -3.597425,-0.907969 c 1.13907,-2.045449 -0.788709,-4.386664 -2.201282,-5.493401 -0.647717,1.229178 0.499833,4.625185 2.201282,5.493401 z m -3.340352,-1.216457 c 1.218046,-1.775125 -0.218379,-4.56953 -1.748093,-5.582978 -0.600543,1.691378 0,4.588611 1.748093,5.582978 z m -3.341413,-1.794207 c 1.101967,-1.670176 0.33658,-4.061215 -1.247199,-5.506652 -1.14702,1.411514 -0.163784,4.166165 1.247199,5.506652 z m -2.667193,-1.886435 c 0.928641,-1.556216 -0.218379,-5.006818 -1.693498,-5.860723 -0.655668,1.36858 -0.163785,5.040211 1.693498,5.860723 z m -2.130787,-0.359901 c 0.272974,-2.154109 -3.441591,-4.178356 -4.971305,-3.98966 0.163785,1.733782 1.748093,3.507317 4.971305,3.98966 z m 2.075662,2.221954 c -1.748093,-1.649504 -5.134559,-1.353208 -6.336705,-0.865566 0.327569,1.009209 4.315108,2.954479 6.336705,0.865566 z m 2.40376,1.59226 c -2.458355,-0.440469 -4.042663,-0.848075 -5.517252,0.81044 1.03783,1.220167 5.025899,0.488703 5.517252,-0.81044 z m 3.496186,1.278471 c -2.348635,-1.051082 -5.189154,1.054793 -5.626442,2.185382 2.62214,0.863445 5.680507,-1.916648 5.626442,-2.185382 z m 3.223213,1.520704 c -2.130257,-0.632876 -4.588612,0.674749 -5.571848,1.962231 1.14702,0.445769 4.151853,0.783939 5.571848,-1.962231 z m 2.949708,0.670508 c -2.458355,-0.05778 -4.817062,2.008876 -5.331207,3.117203 3.145825,0.02385 4.347441,-1.009738 5.331207,-3.117203 z"
     fill="#006655"
     id="path1774"
     style="stroke-width:0.530046" />
</svg>
