<?xml version="1.0" encoding="UTF-8" standalone="no"?>
<svg
   width="125.33"
   height="131.45125"
   version="1.1"
   id="svg2428"
   xmlns="http://www.w3.org/2000/svg"
   xmlns:svg="http://www.w3.org/2000/svg">
  <defs
     id="defs2432" />
  <path
     d="M 2.3931595,71.255727 C 20.67711,89.554519 38.96106,107.85278 57.245011,126.15104 77.91682,103.35905 98.588629,80.567052 119.26044,57.775057 116.61021,41.69716 113.95997,25.618732 111.30974,9.5408351 100.53231,8.6572478 89.754346,7.7741905 78.976913,6.8906031 71.202722,14.841299 63.429062,22.791995 55.654871,30.742691 50.707948,26.325814 45.760495,21.908408 40.813572,17.491531 31.711616,20.771988 22.610189,24.052445 13.508232,27.332902 9.8032081,41.973844 6.0981838,56.614785 2.3931595,71.255727 Z"
     fill="#e70013"
     id="path2422"
     style="stroke-width:0.530046" />
  <path
     d="M 53.182205,47.372896 C 42.04752,48.053476 33.336208,57.623464 33.724732,68.748077 34.113786,79.872691 43.455324,88.339652 54.590008,87.659073 65.724693,86.978493 74.436005,77.408505 74.047481,66.283892 73.658427,55.159278 64.31689,46.692317 53.182205,47.372896 Z m 0.175975,5.035971 c 5.02431,-0.306897 9.558857,1.870004 12.440189,5.469019 -2.224074,-1.850392 -5.14251,-2.887163 -8.302116,-2.694226 -6.680705,0.408136 -11.907493,6.150128 -11.674272,12.825003 0.23322,6.674874 5.838461,11.754839 12.519166,11.346703 3.160136,-0.192937 5.993234,-1.581129 8.078967,-3.694954 -2.617899,3.935595 -6.981241,6.655793 -12.005551,6.96269 C 46.063152,83.133537 39.056999,76.783581 38.765473,68.43959 38.473948,60.09613 45.007299,52.918772 53.35871,52.408337 Z m 1.455508,6.411441 4.061215,5.091626 6.197833,-2.419662 -3.688593,5.565487 4.061215,5.091626 -6.339885,-1.653215 -3.688592,5.565488 -0.230041,-6.584237 -6.339884,-1.653214 6.197832,-2.419662 -0.23004,-6.584237 z"
     fill="#fff"
     id="path2424"
     style="fill:#f9f9f9;fill-opacity:1;stroke-width:0.530046" />
  <path
     d="M 12.723764,58.554755 C 13.041792,30.0425 27.87991,21.118638 35.960468,21.118638 c 11.284687,0 15.945385,8.614845 16.707062,12.429058 0.761147,3.811034 5.03226,6.859331 6.404551,0.607964 1.37335,-6.251368 14.648892,-25.3139561 30.96531,-25.3139561 14.943069,0 20.118439,15.4100391 19.670549,28.5170261 C 108.48513,73.040393 62.518972,101.5182 56.468493,119.50002 51.081101,108.60916 12.34372,92.866248 12.723764,58.554755 Z M 95.375488,0 C 81.956304,0 66.086184,9.9108075 56.480154,26.380939 53.888227,20.432758 44.653228,13.950821 33.675438,13.950821 24.829493,13.950821 0,25.006529 0,60.689252 c 0,46.050428 46.591608,55.509108 56.010533,69.822478 0.647186,0.9843 2.731859,1.72795 3.527458,-0.62386 C 67.053519,107.70808 125.33,82.647484 125.33,37.511913 125.32947,12.199018 108.79414,0 95.375488,0 Z"
     id="path2426"
     style="stroke-width:0.530046" />
</svg>
