<?xml version="1.0" encoding="utf-8"?>
<svg id="LOGO_LAYER" viewBox="0 0 125.33 131.4429" version="1.1" width="125.33" height="131.4429" xmlns="http://www.w3.org/2000/svg">
  <defs id="defs4">
    <style id="style2">.cls-1{fill:#f8e929;}.cls-2{fill:#d91b20;}</style>
  </defs>
  <g id="SELECT_FLAG_HERE" transform="translate(-232.76,-97.88)">
    <g id="BLACK_FLAG">
      <path class="cls-2" d="M 288.57 128.877 C 252.447 90.349 203.017 155.426 289.71 221.402 C 382.102 148.793 341.752 59.489 288.57 128.877 Z" id="path6" style="fill: rgb(206, 32, 40);"/>
      <path class="cls-1" d="m 290.46,177.58 c 8.63,-0.91 15.64,-8.67 15.64,-17.34 0,-8.67 -7,-14.95 -15.64,-14.04 -8.64,0.91 -15.64,8.67 -15.64,17.34 0,8.67 7,14.95 15.64,14.04 z" id="path8" style="fill: rgb(249, 214, 22);"/>
      <path class="cls-1" d="M 274.55 152.17 L 248.85 136.45 C 247.314 135.867 244.51 143.711 246.6 144.51 L 272.97 154.96 C 273.43 153.99 273.96 153.06 274.55 152.17 Z" id="path10" style="fill: rgb(249, 214, 22);"/>
      <path class="cls-1" d="M 271.01 165.89 C 270.94 165.25 270.91 164.61 270.91 163.95 C 270.91 163.29 270.94 162.64 271.01 161.99 L 245.79 162.12 C 244.116 162.626 245.402 171.423 247.72 170.69 L 271.01 165.9 L 271.01 165.89 Z" id="path12" style="fill: rgb(249, 214, 22);"/>
      <path class="cls-1" d="M 290.46 142.28 C 291.78 142.14 293.05 142.14 294.3 142.25 L 298.54 120.53 C 291.073 127.358 284.529 125.099 283.28 126.52 L 286.65 143.06 C 287.89 142.68 289.17 142.42 290.48 142.28 L 290.46 142.28 Z" id="path14" style="fill: rgb(249, 214, 22);"/>
      <path class="cls-1" d="M 307.94 151.27 L 342.36 130.37 C 343.998 130.22 341.51 120.827 340.47 120.76 L 306.36 148.81 C 306.95 149.58 307.48 150.4 307.94 151.27 Z" id="path16" style="fill: rgb(249, 214, 22);"/>
      <path class="cls-1" d="M 290.46 181.5 C 289.15 181.64 287.87 181.64 286.63 181.53 L 281.26 209.05 C 280.689 210.772 287.384 219.751 289.543 219.091 C 291.422 218.51 299.374 204.841 298.87 203.16 L 294.31 180.72 C 293.07 181.1 291.79 181.36 290.47 181.5 L 290.46 181.5 Z" id="path18" style="fill: rgb(249, 214, 22);"/>
      <path class="cls-1" d="M 310 159.83 C 310 160.49 309.97 161.14 309.9 161.79 L 333.83 161.67 C 335.084 162.109 340.02 152.307 338.7 151.96 L 309.9 157.89 C 309.96 158.53 310 159.17 310 159.83 Z" id="path20" style="fill: rgb(249, 214, 22);"/>
      <path class="cls-1" d="M 272.97 172.51 L 254.49 183.74 C 253.146 184.431 256.89 189.131 258.18 188.44 L 274.55 174.97 C 273.96 174.2 273.43 173.38 272.97 172.51 Z" id="path22" style="fill: rgb(249, 214, 22);"/>
      <path class="cls-1" d="M 306.36 171.62 L 320.18 180.07 C 321.384 181.004 325.863 176.431 324.21 175.28 L 307.94 168.83 C 307.48 169.8 306.95 170.73 306.36 171.62 Z" id="path24" style="fill: rgb(249, 214, 22);"/>
      <path d="m 328.12,97.88 c -13.42,0 -29.29,9.91 -38.89,26.38 -2.59,-5.95 -11.83,-12.43 -22.8,-12.43 -8.84,0 -33.67,11.05 -33.67,46.73 0,46.05 46.59,55.51 56.01,69.82 0.65,0.99 2.73,1.73 3.53,-0.62 7.51,-22.18 65.79,-47.24 65.79,-92.37 0,-25.31 -16.53,-37.51 -29.95,-37.51 z m -82.64,58.55 c 0.05,-4.43 0.45,-8.39 1.12,-11.92 0.57,-2.99 1.34,-5.67 2.25,-8.06 4.92,-12.92 14.11,-17.46 19.86,-17.46 7.53,0 12.1,3.84 14.54,7.53 1.21,1.84 1.91,3.63 2.16,4.9 0.76,3.81 5.03,6.86 6.4,0.61 0.54,-2.48 2.97,-6.97 6.7,-11.5 5.68,-6.88 14.42,-13.82 24.26,-13.82 9.84,0 15,6.18 17.69,14.04 1.04,3.04 1.65,6.33 1.89,9.61 0.12,1.63 0.15,3.27 0.1,4.86 -0.2,5.77 -1.57,11.35 -3.75,16.73 -1.34,3.31 -2.99,6.55 -4.87,9.71 -2.8,4.72 -6.1,9.25 -9.63,13.6 -1.32,1.62 -2.66,3.22 -4.03,4.79 -7.4,8.52 -15.28,16.25 -21.33,23.09 -4.66,5.28 -8.23,10.03 -9.64,14.21 -1.22,-2.47 -4.16,-5.19 -7.97,-8.32 -6.55,-5.39 -15.68,-11.99 -23.07,-20.61 -1.29,-1.5 -2.53,-3.07 -3.69,-4.7 -2.81,-3.94 -5.17,-8.27 -6.77,-13.05 -0.91,-2.71 -1.57,-5.56 -1.93,-8.57 -0.22,-1.84 -0.33,-3.73 -0.31,-5.69 z" id="path26"/>
    </g>
  </g>
</svg>