<?xml version="1.0" encoding="utf-8"?>
<svg id="LOGO_LAYER" viewBox="0 0 125.33 131.4429" version="1.1" width="125.33" height="131.4429" xmlns="http://www.w3.org/2000/svg">
  <defs id="defs1">
    <style id="style1">.cls-1{fill:#f9f9f9;}.cls-2{fill:#007c30;}.cls-3{fill:#cf1721;}</style>
  </defs>
  <path class="cls-2" d="M 96.254 73.695 C 29.717 51.719 9.267 104.028 56.595 122.189 L 96.254 73.695 Z" id="path1" style="fill: rgb(0, 151, 57);"/>
  <path class="cls-2" d="M 36.594 18.564 C 20.699 21.774 10.04 43.147 9.749 60.684 C 12.597 79.172 25.414 95.957 36.236 105.117 C 36.311 88.225 36.594 18.564 36.594 18.564 Z" id="path-1" style="fill: rgb(255, 255, 255);"/>
  <path class="cls-3" d="M 94.67 74.79 C 156.712 -11.454 75.052 -5.685 57.464 32.444 C 57.464 32.444 46.851 21.082 37.287 20.053 C 36.635 19.983 37.062 21.143 36.36 21.13 L 36.36 21.64 L 35.32 21.75 L 35.32 23.44 L 36.36 23.33 L 36.36 28.67 L 35.32 28.78 L 35.32 27 L 34.27 27.11 L 34.27 25.33 L 33.28 25.43 L 33.23 25.43 L 33.23 27.22 L 32.19 27.33 L 32.19 29.11 L 31.15 29.22 L 31.15 31 L 32.19 30.89 L 32.19 32.58 L 33.23 32.47 L 33.23 34.25 L 34.27 34.14 L 34.27 32.36 L 35.32 32.25 L 35.32 30.56 L 36.36 30.45 L 36.36 35.7 L 35.32 35.81 L 35.32 37.59 L 36.36 37.48 L 36.36 40.95 L 35.32 41.06 L 35.32 39.37 L 34.27 39.48 L 34.27 37.7 L 33.23 37.81 L 33.23 36.03 L 32.19 36.14 L 32.19 34.36 L 31.15 34.47 L 31.15 32.69 L 30.11 32.8 L 30.11 34.58 L 29.17 34.68 L 29.17 36.46 L 28.13 36.57 L 28.13 38.35 L 27.09 38.46 L 27.09 40.24 L 26.05 40.35 L 26.05 42.04 L 25.01 42.15 L 25.01 43.93 L 23.97 44.04 L 23.97 42.26 L 22.92 42.37 L 22.92 40.68 L 21.88 40.79 L 21.88 39.01 L 20.83 39.12 L 20.83 37.34 L 19.79 37.45 L 19.79 35.67 L 18.74 35.78 L 18.74 34 L 18.18 34.06 C 17.968 34.27 17.627 34.281 17.7 34.99 L 17.7 35.89 L 17.23 35.94 C 16.832 36.052 16.662 36.392 16.75 37 L 16.75 37.77 L 16.42 37.81 C 15.792 39.366 14.323 41.05 13.834 42.867 C 13.422 44.4 13.505 45.858 13.595 47.594 C 13.615 47.977 13.614 47.948 13.62 48.08 L 13.62 48.7 L 14.66 48.59 L 14.66 50.37 L 15.7 50.26 L 15.7 52.04 L 16.75 51.93 L 16.75 50.15 L 17.69 50.05 L 17.69 48.27 L 18.73 48.16 L 18.73 46.38 L 17.69 46.49 L 16.75 46.59 L 16.75 44.81 L 17.69 44.71 L 18.73 44.6 L 19.78 44.49 L 19.78 46.27 L 20.82 46.16 L 20.82 47.94 L 21.86 47.83 L 21.86 49.61 L 20.82 49.72 L 20.82 51.5 L 19.78 51.61 L 19.78 53.3 L 18.73 53.41 L 18.73 55.19 L 17.69 55.3 L 17.69 57.08 L 16.75 57.18 L 16.75 58.96 L 15.7 59.07 L 15.7 57.29 L 14.66 57.4 L 14.66 55.62 L 13.62 55.73 L 13.62 53.95 L 12.93 54.02 C 12.469 53.686 12.427 55.3 12.496 56.336 C 12.545 57.076 12.351 59.152 12.74 59.37 L 13.61 59.28 L 13.61 60.97 L 14.65 60.86 L 14.65 62.64 L 15.69 62.53 L 15.69 64.31 L 16.74 64.2 L 16.74 65.98 L 15.69 66.09 L 15.69 67.87 L 14.65 67.98 L 14.65 69.76 L 14.09 69.82 C 13.737 69.596 14.034 70.429 14.343 71.725 C 14.652 73.021 15.022 73.649 15.1 73.18 L 15.7 73.12 L 15.7 71.34 L 16.75 71.23 L 16.75 73.01 L 17.69 72.91 L 17.69 74.69 L 18.73 74.58 L 18.73 76.36 L 19.78 76.25 L 19.78 77.94 L 20.82 77.83 L 20.82 79.61 L 21.86 79.5 L 21.86 81.28 L 20.82 81.39 L 20.82 83.17 L 20 83.26 C 19.326 83.139 22.753 88.308 22.9 87.43 L 22.9 86.51 L 23.94 86.4 L 23.94 84.62 L 24.98 84.51 L 24.98 86.29 L 26.03 86.18 L 26.03 87.87 L 27.07 87.76 L 27.07 89.54 L 28.11 89.43 L 28.11 91.21 L 29.15 91.1 L 29.15 92.88 L 30.09 92.78 L 30.09 94.56 L 31.13 94.45 L 31.13 92.67 L 32.17 92.56 L 32.17 90.78 L 33.21 90.67 L 33.21 88.89 L 34.25 88.78 L 34.25 87 L 35.29 86.89 L 35.29 85.2 L 36.33 85.09 L 36.33 81.53 L 35.29 81.64 L 35.29 79.86 L 34.24 79.97 L 34.24 78.19 L 33.2 78.3 L 33.2 76.52 L 32.16 76.63 L 32.16 78.41 L 31.12 78.52 L 31.12 80.3 L 30.08 80.41 L 30.08 82.19 L 31.12 82.08 L 32.16 81.97 L 32.16 83.75 L 31.12 83.86 L 30.08 83.97 L 29.14 84.07 L 29.14 82.29 L 28.1 82.4 L 28.1 80.62 L 27.06 80.73 L 27.06 78.95 L 28.1 78.84 L 28.1 77.06 L 29.14 76.95 L 29.14 75.26 L 30.08 75.16 L 30.08 73.38 L 31.12 73.27 L 31.12 71.49 L 32.16 71.38 L 32.16 69.6 L 33.2 69.49 L 33.2 71.27 L 34.24 71.16 L 34.24 72.94 L 35.29 72.83 L 35.29 74.61 L 36.33 74.5 L 36.33 76.19 L 35.29 76.3 L 35.29 78.08 L 36.33 77.97 L 36.33 80.94 L 93.4 74.92 C 94.609 73.362 93.508 76.405 94.67 74.79 Z M 34.26 29.79 L 34.26 30.68 L 33.22 30.79 L 33.22 29.01 L 34.26 28.9 L 34.26 29.79 Z M 30.09 60.13 L 30.09 68.14 L 29.15 68.24 L 29.15 69.93 L 28.11 70.04 L 28.11 71.82 L 27.07 71.93 L 27.07 73.71 L 26.02 73.82 L 26.02 75.6 L 24.98 75.71 L 24.98 77.4 L 23.94 77.51 L 23.94 75.82 L 22.9 75.93 L 22.9 74.15 L 21.86 74.26 L 21.86 72.48 L 20.82 72.59 L 20.82 70.81 L 19.78 70.92 L 19.78 69.23 L 18.74 69.34 L 18.74 60.44 L 19.78 60.33 L 19.78 58.64 L 20.82 58.53 L 20.82 56.75 L 21.86 56.64 L 21.86 54.86 L 22.9 54.75 L 22.9 52.97 L 23.94 52.86 L 23.94 51.17 L 24.98 51.06 L 24.98 52.75 L 26.02 52.64 L 26.02 54.42 L 27.07 54.31 L 27.07 56.09 L 28.11 55.98 L 28.11 57.76 L 29.15 57.65 L 29.15 59.34 L 30.09 59.24 L 30.09 60.13 Z M 36.35 69.16 L 35.31 69.27 L 35.31 67.58 L 34.26 67.69 L 34.26 65.91 L 33.22 66.02 L 33.22 64.24 L 32.18 64.35 L 32.18 62.57 L 33.22 62.46 L 33.22 60.68 L 34.26 60.57 L 34.26 58.79 L 35.31 58.68 L 35.31 56.99 L 36.35 56.88 L 36.35 69.16 Z M 36.35 48.08 L 35.31 48.19 L 35.31 49.97 L 36.35 49.86 L 36.35 51.55 L 35.31 51.66 L 35.31 53.44 L 34.26 53.55 L 34.26 55.33 L 33.22 55.44 L 33.22 57.22 L 32.18 57.33 L 32.18 55.55 L 31.14 55.66 L 31.14 53.88 L 30.1 53.99 L 30.1 52.21 L 29.16 52.31 L 29.16 50.62 L 28.12 50.73 L 28.12 48.95 L 27.08 49.06 L 27.08 47.28 L 28.12 47.17 L 28.12 45.39 L 29.16 45.28 L 29.16 43.5 L 30.1 43.4 L 31.14 43.29 L 32.18 43.18 L 32.18 44.96 L 31.14 45.07 L 30.1 45.18 L 30.1 46.96 L 31.14 46.85 L 31.14 48.63 L 32.18 48.52 L 32.18 50.3 L 33.22 50.19 L 33.22 48.41 L 34.26 48.3 L 34.26 46.52 L 35.31 46.41 L 35.31 44.63 L 36.35 44.52 L 36.35 48.08 Z" id="path25" style="fill: rgb(210, 39, 48);"/>
  <polygon class="cls-3" points="24.97 36.01 24.97 35.12 23.93 35.23 23.93 36.12 23.93 37.01 23.93 37.9 23.93 38.79 24.97 38.68 24.97 37.79 24.97 36.9" id="polygon24" style="fill: rgb(210, 39, 48);"/>
  <path class="cls-3" d="M 24.97 25.58 C 24.57 25.77 24.143 25.953 24 26.42 L 24.97 26.32 L 24.97 25.58 Z" id="path24" style="fill: rgb(210, 39, 48);"/>
  <path class="cls-3" d="M 19.76 33.09 L 19.76 33.89 L 20.8 33.78 L 20.8 35.56 L 21.84 35.45 L 21.84 33.67 L 22.88 33.56 L 22.88 31.87 L 23.92 31.76 L 23.92 29.98 L 22.88 30.09 L 22.88 28.31 L 22.06 28.4 C 21.545 28.982 20.845 29.522 20.353 30.187 C 19.889 30.814 19.631 31.562 19.19 32.26 L 19.75 32.2 L 19.75 33.09 L 19.76 33.09 Z M 20.8 31.2 L 20.8 30.31 L 21.84 30.2 L 21.84 31.98 L 20.8 32.09 L 20.8 31.2 Z" id="path22" style="fill: rgb(210, 39, 48);"/>
  <path class="cls-3" d="M 13.6 51.36 L 13.6 50.47 L 13.25 50.51 C 12.898 51.009 12.78 51.583 13.06 52.31 L 13.61 52.25 L 13.61 51.36 L 13.6 51.36 Z" id="path21" style="fill: rgb(210, 39, 48);"/>
  <polygon class="cls-3" points="24.97 59.77 24.97 60.66 24.97 61.55 23.93 61.66 23.93 60.77 23.93 59.88 22.89 59.99 22.89 59.1 22.89 58.3 21.84 58.41 21.84 59.21 21.84 60.1 21.84 60.99 21.84 61.88 22.89 61.77 22.89 62.66 22.89 63.55 23.93 63.44 23.93 64.33 23.93 65.22 22.89 65.33 22.89 66.22 22.89 67.11 21.84 67.22 21.84 68.11 21.84 69 21.84 69.89 21.84 70.69 22.89 70.58 22.89 69.78 22.89 68.89 23.93 68.78 23.93 67.89 23.93 67 24.97 66.89 24.97 67.78 24.97 68.67 26.02 68.56 26.02 69.45 26.02 70.25 27.06 70.14 27.06 69.34 27.06 68.45 27.06 67.56 27.06 66.67 26.02 66.78 26.02 65.89 26.02 65 24.97 65.11 24.97 64.22 24.97 63.33 26.02 63.22 26.02 62.33 26.02 61.44 27.06 61.33 27.06 60.44 27.06 59.55 27.06 58.66 27.06 57.86 26.02 57.97 26.02 58.77 26.02 59.66" id="polygon20" style="fill: rgb(210, 39, 48);"/>
  <path class="cls-3" d="M 27.618 93.041 C 27.618 93.041 27.94 93.423 28.1 93.593 L 28.1 92.99 L 27.618 93.041 Z" id="path19" style="fill: rgb(210, 39, 48);"/>
  <path class="cls-3" d="M 24.748 89.781 C 24.759 89.798 24.954 90.078 24.97 90.061 L 24.97 89.76 L 24.748 89.781 Z" id="path18" style="fill: rgb(210, 39, 48);"/>
  <path class="cls-3" d="M 35.31 99.25 L 35.31 97.47 L 36.35 97.36 L 36.35 95.58 L 35.31 95.69 L 35.31 94 L 34.26 94.11 L 34.26 92.33 L 33.22 92.44 L 33.22 94.22 L 32.18 94.33 L 32.18 96.02 L 31.14 96.13 L 31.14 96.621 C 32.18 97.621 33.22 98.592 34.27 99.532 L 34.27 99.36 L 35.32 99.25 L 35.31 99.25 Z M 33.22 96.8 L 33.22 95.91 L 34.26 95.8 L 34.26 97.58 L 33.22 97.69 L 33.22 96.8 Z" id="path17" style="fill: rgb(210, 39, 48);"/>
  <polygon class="cls-3" points="23.93 54.63 23.93 55.52 23.93 56.41 24.97 56.3 24.97 55.41 24.97 54.52" id="polygon17" style="fill: rgb(210, 39, 48);"/>
  <polygon class="cls-3" points="21.01 65.53 21.01 64.64 21.01 63.75 19.96 63.86 19.96 64.75 19.96 65.64" id="polygon16" style="fill: rgb(210, 39, 48);"/>
  <polygon class="cls-3" points="24.97 73.92 24.97 73.03 24.97 72.14 23.93 72.25 23.93 73.14 23.93 74.03" id="polygon15" style="fill: rgb(210, 39, 48);"/>
  <polygon class="cls-3" points="28.94 64.69 28.94 63.8 28.94 62.91 27.9 63.02 27.9 63.91 27.9 64.8" id="polygon14" style="fill: rgb(210, 39, 48);"/>
  <polygon class="cls-3" points="36.35 90.34 36.35 89.45 36.35 88.55 35.31 88.66 35.31 89.55 35.31 90.45" id="polygon13" style="fill: rgb(210, 39, 48);"/>
  <path class="cls-1" d="M 31.13 22.02 C 30.92 22.09 30.71 22.17 30.5 22.26 L 31.13 22.19 L 31.13 22.02 Z" id="path12" style="fill: rgb(210, 39, 48);"/>
  <path class="cls-3" d="M 26.02 32.43 L 26.02 33.23 L 27.07 33.12 L 27.07 34.9 L 28.11 34.79 L 28.11 33.01 L 29.16 32.9 L 29.16 31.21 L 30.1 31.11 L 30.1 29.33 L 29.16 29.43 L 29.16 27.65 L 28.11 27.76 L 28.11 25.98 L 27.07 26.09 L 27.07 27.87 L 26.02 27.98 L 26.02 29.76 L 24.98 29.87 L 24.98 31.65 L 26.02 31.54 L 26.02 32.43 Z M 27.07 30.54 L 27.07 29.65 L 28.11 29.54 L 28.11 31.32 L 27.07 31.43 L 27.07 30.54 Z" id="path20" style="fill: rgb(210, 39, 48);"/>
  <path class="cls-3" d="M 29.15 24.1 L 29.15 25.88 L 30.09 25.78 L 30.09 27.56 L 31.14 27.45 L 31.14 25.67 L 32.18 25.56 L 32.18 23.78 L 33.23 23.67 L 33.23 21.98 L 34.27 21.87 L 34.27 21.24 C 33.262 21.214 32.182 21.21 31.14 22.03 L 31.14 22.2 L 30.51 22.27 C 29.624 22.356 28.809 22.711 28.11 23.42 L 28.11 24.21 L 29.16 24.1 L 29.15 24.1 Z" id="path23" style="fill: rgb(210, 39, 48);"/>
  <path d="M 95.36 0 C 81.94 0 66.07 9.91 56.47 26.38 C 53.88 20.43 44.64 13.95 33.67 13.95 C 24.83 13.95 0 25 0 60.68 C 0 106.73 46.59 116.19 56.01 130.5 C 56.66 131.49 58.74 132.23 59.54 129.88 C 67.05 107.7 125.33 82.64 125.33 37.51 C 125.33 12.2 108.8 0 95.38 0 L 95.36 0 Z M 109.69 37.36 C 109.22 50.99 102.22 63.57 93.41 74.92 C 79.17 93.27 60.19 108.39 56.45 119.5 C 54.1 114.74 45.38 109.06 36.34 101.31 C 35.64 100.71 34.95 100.1 34.25 99.48 C 33.2 98.54 32.15 97.58 31.12 96.58 C 30.1 95.6 29.08 94.58 28.09 93.54 C 27.93 93.38 27.78 93.21 27.62 93.04 C 26.71 92.07 25.82 91.07 24.96 90.04 C 24.89 89.95 24.82 89.87 24.75 89.78 C 24.11 89.01 23.49 88.23 22.88 87.43 C 21.86 86.09 20.89 84.7 19.98 83.26 C 18.01 80.14 16.33 76.79 15.08 73.19 C 14.7 72.09 14.37 70.97 14.07 69.83 C 13.23 66.55 12.75 63.08 12.72 59.38 C 12.72 59.11 12.72 58.83 12.72 58.56 C 12.74 56.99 12.81 55.48 12.91 54.03 C 12.95 53.45 13 52.89 13.05 52.33 C 13.11 51.72 13.17 51.12 13.24 50.53 C 13.34 49.7 13.46 48.89 13.59 48.1 C 14.23 44.19 15.2 40.78 16.39 37.83 C 16.5 37.56 16.61 37.29 16.72 37.02 C 16.87 36.66 17.03 36.31 17.2 35.96 C 17.35 35.64 17.51 35.32 17.67 35.01 C 17.83 34.7 17.98 34.38 18.15 34.08 C 18.49 33.45 18.84 32.86 19.2 32.28 C 20.1 30.84 21.07 29.55 22.07 28.42 C 22.71 27.7 23.35 27.04 24.01 26.44 C 24.33 26.15 24.65 25.87 24.98 25.6 C 26.02 24.75 27.07 24.03 28.11 23.44 C 28.92 22.98 29.72 22.6 30.51 22.29 C 30.72 22.21 30.93 22.13 31.14 22.05 C 32.23 21.66 33.28 21.4 34.27 21.26 C 34.86 21.18 35.42 21.14 35.96 21.14 C 36.1 21.14 36.22 21.16 36.36 21.16 C 47.35 21.37 51.92 29.8 52.67 33.57 C 53.43 37.38 57.7 40.43 59.07 34.18 C 60.44 27.93 73.72 8.87 90.03 8.87 C 104.97 8.87 110.15 24.28 109.7 37.39 L 109.69 37.36 Z" id="path26"/>
</svg>