<?xml version="1.0" encoding="UTF-8" standalone="no"?>
<svg
   width="125.33"
   height="131.45125"
   id="svg2"
   version="1.1"
   xmlns:xlink="http://www.w3.org/1999/xlink"
   xmlns="http://www.w3.org/2000/svg"
   xmlns:svg="http://www.w3.org/2000/svg"
   xmlns:rdf="http://www.w3.org/1999/02/22-rdf-syntax-ns#"
   xmlns:cc="http://creativecommons.org/ns#"
   xmlns:dc="http://purl.org/dc/elements/1.1/">
  <metadata
     id="metadata14">
    <rdf:RDF>
      <cc:Work
         rdf:about="">
        <dc:format>image/svg+xml</dc:format>
        <dc:type
           rdf:resource="http://purl.org/dc/dcmitype/StillImage" />
      </cc:Work>
    </rdf:RDF>
  </metadata>
  <defs
     id="defs12" />
  <path
     style="fill:#046a38;fill-opacity:1;stroke-width:0.530046"
     d="M 2.3931595,71.255727 C 20.67711,89.554519 38.96106,107.85278 57.245011,126.15104 77.91682,103.35905 98.588629,80.567052 119.26044,57.775057 116.61021,41.69716 113.95997,25.618732 111.30974,9.5408351 100.53231,8.6572478 89.754346,7.7741905 78.976913,6.8906031 71.202722,14.841299 63.429062,22.791995 55.654871,30.742691 50.707948,26.325814 45.760495,21.908408 40.813572,17.491531 31.711616,20.771988 22.610189,24.052445 13.508232,27.332902 9.8032081,41.973844 6.0981838,56.614785 2.3931595,71.255727 Z"
     id="path4" />
  <path
     style="fill:#ffcd00;fill-opacity:1;stroke-width:0.530046"
     d="M 43.955157,19.969486 V 54.580261 L 4.0930183,58.067977 12.277465,79.618603 43.955157,76.84698 v 40.31234 l 12.421108,7.55901 9.845081,-7.89662 V 74.899086 l 39.862144,-3.487722 8.18444,-22.982282 -48.046584,4.203285 V 18.987864 l -9.845081,10.794913 z"
     id="path6" />
  <path
     id="path4727"
     d="m 55.616178,36.970856 v 27.190126 l -51.5231597,4.507922 8.1844467,10.949699 43.338713,-3.79183 v 40.312347 l 0.760087,8.57921 9.845081,-7.89662 V 74.899086 l 39.862144,-3.487722 8.18444,-12.381353 -48.046584,4.203284 V 18.987864 L 56.376265,30.84287 Z"
     style="fill:#f9f9f9;fill-opacity:1;stroke-width:0.530046" />
  <path
     id="path4725"
     d="m 51.447893,24.614283 v 36.955896 l -47.3548747,4.143383 6.0642607,6.810651 41.290614,-3.612786 v 47.592233 l 4.928372,8.21467 2.412771,-7.24638 V 68.269435 l 49.414634,-4.323451 6.06426,-7.871316 -55.478894,4.853524 V 24.938571 l -3.023258,4.405402 z"
     style="fill:#0b0e0e;fill-opacity:1;stroke-width:0.530046" />
  <path
     d="M 12.723764,58.554755 C 13.041792,30.0425 27.87991,21.118638 35.960468,21.118638 c 11.284687,0 15.945385,8.614845 16.707062,12.429058 0.761147,3.811034 5.03226,6.859331 6.404551,0.607964 1.37335,-6.251368 14.648892,-25.3139561 30.96531,-25.3139561 14.943069,0 20.118439,15.4100391 19.670549,28.5170261 C 108.48513,73.040393 62.518972,101.5182 56.468493,119.50002 51.081101,108.60916 12.34372,92.866248 12.723764,58.554755 Z M 95.375488,0 C 81.956304,0 66.086184,9.9108075 56.480154,26.380939 53.888227,20.432758 44.653228,13.950821 33.675438,13.950821 24.829493,13.950821 0,25.006529 0,60.689252 c 0,46.050428 46.591608,55.509108 56.010533,69.822478 0.647186,0.9843 2.731859,1.72795 3.527458,-0.62386 C 67.053519,107.70808 125.33,82.647484 125.33,37.511913 125.32947,12.199018 108.79414,0 95.375488,0 Z"
     id="path8"
     style="opacity:1;stroke-width:0.530046" />
  <g
     id="g6702"
     transform="matrix(0.53004639,-0.04637305,0,0.53004639,-198.98129,32.348486)">
    <circle
       r="41.550499"
       fill="#d50032"
       id="circle5875"
       cx="479.39203"
       cy="103.23233"
       style="stroke:none;stroke-width:48.4756" />
    <g
       id="b"
       transform="matrix(0.02308361,0,0,0.02308361,479.39203,103.23233)"
       style="fill:#046a38;stroke:#000000;stroke-width:7">
      <g
         id="a">
        <path
           id="s"
           stroke-width="12"
           d="m 0,-1600.6 56.3,173.2 h 182 l -147.3,107 56.3,173.1 -147.3,-107 -147.3,107 56.3,-173.1 -147.3,-107 h 182 z" />
        <use
           xlink:href="#s"
           transform="rotate(36)"
           id="use5880"
           x="0"
           y="0"
           width="100%"
           height="100%" />
      </g>
      <use
         xlink:href="#s"
         transform="rotate(72)"
         id="use5883"
         x="0"
         y="0"
         width="100%"
         height="100%" />
      <use
         xlink:href="#a"
         transform="rotate(108)"
         id="use5885"
         x="0"
         y="0"
         width="100%"
         height="100%" />
    </g>
    <use
       xlink:href="#b"
       transform="rotate(180,479.39203,103.23233)"
       id="use5888"
       x="0"
       y="0"
       width="100%"
       height="100%"
       style="fill:#046a38;stroke:#000000;stroke-width:7" />
    <g
       transform="matrix(0.00161023,0.02302738,-0.02302738,0.00161023,479.39203,103.23233)"
       id="g5896"
       style="fill:#046a38;stroke:#000000;stroke-width:7">
      <ellipse
         cx="492"
         cy="-213"
         rx="530"
         ry="108"
         id="ellipse5890" />
      <ellipse
         cx="498"
         cy="-318"
         rx="530"
         ry="114"
         id="ellipse5892" />
      <ellipse
         cx="523"
         cy="-267"
         rx="586"
         ry="91"
         id="ellipse5894" />
    </g>
    <path
       fill="#9c4a00"
       d="m 489.52573,123.2689 c -3.71645,0.39242 -19.96732,0.57709 -20.65982,0.0692 -0.69251,-0.50784 -1.73128,-2.65461 -1.73128,-2.77003 2.1237,-0.0923 1.20035,-1.22343 2.28528,-1.82361 1.06185,-0.62326 2.58537,-0.20775 3.04704,0.53092 0.46167,0.76177 0.0923,1.50044 0.66942,1.52352 0.60018,0 12.14198,-0.554 16.38936,-0.25391 0.69251,0.0461 1.22344,0.66942 1.22344,1.36193 0,0.6925 -0.53093,1.29268 -1.22344,1.36193 z"
       id="path5898"
       style="stroke:#000000;stroke-width:0.161586" />
    <path
       id="c"
       fill="#ffcd00"
       d="m 478.4456,122.11472 c -0.0231,1.61585 2.33145,1.15418 2.37762,2.49303 -0.0693,1.4081 -3.97038,0.0923 -4.01655,-2.51612 0.16158,-2.58536 3.97038,-3.85496 4.01655,-2.3776 0.0461,1.22342 -2.33145,0.80792 -2.37762,2.40069 z"
       style="stroke:#000000;stroke-width:0.161586" />
    <use
       xlink:href="#c"
       x="0"
       id="use5901"
       y="0"
       width="100%"
       height="100%"
       transform="translate(1.3850163)"
       style="fill:#046a38;stroke:#000000;stroke-width:7" />
    <use
       xlink:href="#c"
       x="0"
       id="use5903"
       y="0"
       width="100%"
       height="100%"
       transform="translate(2.885451)"
       style="fill:#046a38;stroke:#000000;stroke-width:7" />
    <use
       xlink:href="#c"
       x="0"
       id="use5905"
       y="0"
       width="100%"
       height="100%"
       transform="translate(4.2935513)"
       style="fill:#046a38;stroke:#000000;stroke-width:7" />
    <g
       transform="matrix(0.01962107,0,0,0.0415505,479.39203,103.23233)"
       id="g5923"
       style="fill:#046a38;stroke:#000000;stroke-width:7">
      <g
         transform="rotate(48.1)"
         id="g5913">
        <ellipse
           cx="317"
           cy="154"
           rx="68"
           ry="58"
           id="ellipse5907" />
        <ellipse
           cx="245"
           cy="229"
           rx="68"
           ry="58"
           id="ellipse5909" />
        <ellipse
           cx="148"
           cy="242"
           rx="68"
           ry="58"
           id="ellipse5911" />
      </g>
      <ellipse
         transform="rotate(63.2)"
         cx="251"
         cy="100"
         rx="73"
         ry="57"
         id="ellipse5915" />
      <g
         transform="rotate(57.7)"
         id="g5921">
        <ellipse
           cx="175"
           cy="124"
           rx="69"
           ry="57"
           id="ellipse5917" />
        <ellipse
           cx="109"
           cy="192"
           rx="69"
           ry="57"
           id="ellipse5919" />
      </g>
    </g>
    <path
       fill="#9063cd"
       d="m 475.30623,88.643485 c 0,0 -4.06271,3.508704 -3.60104,13.042235 0.50784,9.60278 8.97952,14.10409 8.97952,14.10409 h 1.33885 V 88.643485 Z"
       id="path5925"
       style="stroke:#000000;stroke-width:0.161586" />
    <g
       transform="matrix(0.01962107,0,0,0.0415505,479.39203,103.23233)"
       id="g5947"
       style="fill:#046a38;stroke:#000000;stroke-width:7">
      <g
         transform="rotate(40.6)"
         id="g5933">
        <ellipse
           cx="421"
           cy="95"
           rx="58"
           ry="68"
           id="ellipse5927" />
        <ellipse
           cx="337"
           cy="151"
           rx="58"
           ry="68"
           id="ellipse5929" />
        <ellipse
           cx="255"
           cy="132"
           rx="58"
           ry="68"
           id="ellipse5931" />
      </g>
      <ellipse
         transform="rotate(24.1)"
         cx="305"
         cy="161"
         rx="58"
         ry="73"
         id="ellipse5935" />
      <g
         transform="rotate(29.9)"
         id="g5945">
        <ellipse
           cx="450"
           cy="70"
           rx="57"
           ry="69"
           id="ellipse5937" />
        <ellipse
           cx="375"
           cy="79"
           rx="57"
           ry="69"
           id="ellipse5939" />
        <ellipse
           cx="279"
           cy="87"
           rx="57"
           ry="69"
           id="ellipse5941" />
        <ellipse
           cx="192"
           cy="106"
           rx="57"
           ry="69"
           id="ellipse5943" />
      </g>
    </g>
    <ellipse
       transform="rotate(66.500003)"
       fill="#d50032"
       stroke-width="0.0923345"
       cx="289.26682"
       cy="-401.90698"
       rx="10.526126"
       ry="3.4163742"
       id="ellipse5949"
       style="stroke:#000000" />
    <g
       transform="matrix(0.02885451,0,0,0.01962107,479.39203,103.23233)"
       id="g5971"
       style="fill:#046a38;stroke:#000000;stroke-width:7">
      <ellipse
         cx="56"
         cy="-579"
         rx="49"
         ry="63"
         id="ellipse5951" />
      <ellipse
         cx="50"
         cy="-658"
         rx="49"
         ry="63"
         id="ellipse5953" />
      <ellipse
         cx="-18"
         cy="-563"
         rx="46"
         ry="67"
         id="ellipse5955" />
      <ellipse
         cx="-4"
         cy="-649"
         rx="46"
         ry="66"
         id="ellipse5957" />
      <ellipse
         cx="-80"
         cy="-647"
         rx="52"
         ry="67"
         id="ellipse5959" />
      <ellipse
         cx="15"
         cy="-758"
         rx="49"
         ry="63"
         id="ellipse5961" />
      <ellipse
         cx="-50"
         cy="-746"
         rx="46"
         ry="66"
         id="ellipse5963" />
      <ellipse
         cx="-148"
         cy="-643"
         rx="46"
         ry="67"
         id="ellipse5965" />
      <ellipse
         cx="-132"
         cy="-693"
         rx="46"
         ry="66"
         id="ellipse5967" />
      <ellipse
         cx="-113"
         cy="-749"
         rx="46"
         ry="66"
         id="ellipse5969" />
    </g>
    <g
       transform="matrix(0.00931528,0.02112057,-0.02112057,0.00931528,479.39203,103.23233)"
       id="g5977"
       style="fill:#046a38;stroke:#000000;stroke-width:7">
      <ellipse
         cx="103"
         cy="-216"
         rx="543"
         ry="188"
         id="ellipse5973" />
      <ellipse
         cx="245"
         cy="-323"
         rx="114"
         ry="36"
         id="ellipse5975" />
    </g>
    <path
       d="m 488.11764,105.40219 c 3.53179,4.31663 3.0932,7.06358 2.72386,9.37194 l -5.00914,-5.37848 v -5.40157 z"
       id="path5979"
       style="fill:#046a38;stroke:#000000;stroke-width:0.161586" />
    <path
       d="m 488.41772,108.88781 c 3.55488,4.31664 3.11629,7.06358 2.74695,9.37195 l -6.80966,-10.54921 v -7.08667 c 0.53092,1.38501 0.53092,3.9473 4.06271,8.26393 z"
       id="path5981"
       style="fill:#046a38;stroke:#000000;stroke-width:0.161586" />
    <path
       d="m 488.53314,111.70401 c 3.62413,4.2243 3.23171,6.99434 2.90854,9.32578 -1.15418,-2.65461 -1.80052,-4.33972 -5.44774,-8.5871 -3.62412,-4.24739 -1.91594,-7.31751 -1.70818,-8.91028 0.57709,1.36194 0.62325,3.92422 4.24738,8.1716 z"
       id="path5983"
       style="fill:#046a38;stroke:#000000;stroke-width:0.161586" />
    <ellipse
       transform="rotate(65.000008)"
       cx="297.22189"
       cy="-397.65857"
       rx="4.6628895"
       ry="1.5235183"
       id="ellipse5985"
       style="fill:#046a38;stroke:#000000;stroke-width:0.161586" />
    <ellipse
       transform="rotate(65.700006)"
       cx="293.9483"
       cy="-398.98538"
       rx="3.8318799"
       ry="1.3388497"
       id="ellipse5987"
       style="fill:#046a38;stroke:#000000;stroke-width:0.161586" />
    <ellipse
       transform="rotate(66.799997)"
       cx="287.08423"
       cy="-402.35931"
       rx="3.8318796"
       ry="1.3388495"
       id="ellipse5989"
       style="fill:#046a38;stroke:#000000;stroke-width:0.161586" />
    <ellipse
       transform="rotate(62.000007)"
       cx="315.17084"
       cy="-380.9306"
       rx="2.9316182"
       ry="1.061846"
       id="ellipse5991"
       style="fill:#046a38;stroke:#000000;stroke-width:0.161586" />
    <ellipse
       transform="rotate(65.600005)"
       cx="291.03525"
       cy="-398.22235"
       rx="2.9316185"
       ry="1.0618461"
       id="ellipse5993"
       style="fill:#046a38;stroke:#000000;stroke-width:0.161586" />
    <g
       stroke-linecap="round"
       id="g6011"
       transform="matrix(0.02308361,0,0,0.02308361,479.39203,103.23233)"
       style="fill:#046a38;stroke:#000000;stroke-width:7">
      <path
         fill="none"
         d="m 439,750 a 59,59 0 1 0 0,118"
         id="path5995" />
      <path
         d="m 21,-146 a 217.37168,46.078789 68 1 0 82,-43"
         id="path5997" />
      <ellipse
         transform="rotate(65.6)"
         cx="-166"
         cy="-233"
         rx="127"
         ry="46"
         id="ellipse5999" />
      <ellipse
         transform="rotate(66.8)"
         cx="-167"
         cy="-145"
         rx="127"
         ry="46"
         id="ellipse6001" />
      <path
         d="m -30,-299 a 158.12673,33.66569 59.7 1 0 54,-41"
         id="path6003" />
      <path
         d="m 1,-349 a 146.17761,33.412025 59.8 1 0 65,-21"
         id="path6005" />
      <path
         d="m 117,-323 a 216.56673,46.551728 59.3 1 0 75,-56"
         id="path6007" />
      <path
         d="m 48,-388 a 161,34 62.4 1 0 53,-45"
         id="path6009" />
    </g>
    <g
       fill="#9063cd"
       id="g6022"
       transform="matrix(0.02308361,0,0,0.02308361,479.39203,103.23233)"
       style="stroke:#000000;stroke-width:7">
      <path
         id="n"
         d="m 97,-553 c -29,30 1,84 27,106 31,26 201,207 321,56 -96,-2 -276,-228 -348,-162 z" />
      <use
         xlink:href="#n"
         x="-21"
         y="-89"
         id="use6014"
         width="100%"
         height="100%" />
      <use
         xlink:href="#n"
         x="-48"
         y="-174"
         id="use6016"
         width="100%"
         height="100%" />
      <use
         xlink:href="#n"
         x="-107"
         y="-271"
         id="use6018"
         width="100%"
         height="100%" />
      <path
         d="m -219,-917 c 61,-46 173,-59 260,-15 73,36 194,181 285,216 -64,11 -103,1 -144,-18 -81,58 -110,67 -192,79 -115,16 -210,-14 -244,-73 -34,-57 -19,-147 35,-189 z"
         id="path6020" />
    </g>
    <g
       transform="matrix(0.03231706,0,0,0.01615853,479.39203,103.23233)"
       id="g6028"
       style="fill:#046a38;stroke:#000000;stroke-width:7">
      <ellipse
         fill="#d50032"
         cx="-64"
         cy="-1181"
         rx="38"
         ry="44"
         id="ellipse6024" />
      <ellipse
         fill="#000000"
         stroke="none"
         cx="-66"
         cy="-1184"
         rx="13"
         ry="23"
         id="ellipse6026" />
    </g>
    <g
       fill="#ffcd00"
       id="g6034"
       transform="matrix(0.02308361,0,0,0.02308361,479.39203,103.23233)"
       style="stroke:#000000;stroke-width:7">
      <ellipse
         transform="rotate(69.6)"
         cx="-747"
         cy="-11"
         rx="45"
         ry="73"
         id="ellipse6030" />
      <path
         d="m -206,-786 c 5,23 -12,55 -50,66 -38,16 -67,52 -84,111 -58,-134 -21,-191 41,-205 53,-17 85,-15 93,28 z"
         id="path6032" />
    </g>
    <circle
       fill="#000000"
       stroke="none"
       cx="473.34412"
       cy="85.781113"
       r="0.30008695"
       id="circle6036"
       style="stroke-width:0.161586" />
  </g>
</svg>
