<?xml version="1.0" encoding="utf-8"?>
<svg id="LOGO_LAYER" viewBox="232.76 97.88 125.33 131.4429" width="125.33" height="131.4429" xmlns="http://www.w3.org/2000/svg">
  <defs>
    <style>.cls-1{stroke:#fff;}.cls-1,.cls-2,.cls-3,.cls-4{fill:none;stroke-linecap:round;stroke-linejoin:round;stroke-width:0px;}.cls-2{stroke:#edb92e;}.cls-5{fill:#f9f9f9;}.cls-6{fill:#fff;}.cls-7{fill:#edb92e;}.cls-8{fill:#c6363c;}.cls-9{fill:#0c4076;}.cls-3{stroke:#c6363c;}.cls-4{stroke:#1d1d1b;}.cls-4,.cls-10{opacity:1;}.cls-10{fill:#1d1d1b;}</style>
    <filter id="null">
      <feBlend mode="normal" in="SourceGraphic"/>
    </filter>
    <clipPath id="c">
      <path id="s" d="M -461.478 -1696.235 C -461.478 -1696.235 -405.459 -1135.235 -405.459 -13.235 C -413.462 1132.764 -1270.752 1712.764 -1899.966 2017.764 C -2529.179 1712.764 -3386.469 1132.764 -3394.472 -13.235 C -3394.472 -1135.235 -3338.453 -1696.235 -3338.453 -1696.235 L -461.478 -1696.235 Z"/>
    </clipPath>
  </defs>
  <g id="LOGO_GROUP" filter="url(#null)">
    <path class="cls-8" d="M 344.286 141.67 C 345.353 84.496 300.387 107.121 289.038 127.625 C 284.245 122.901 279.048 117.227 267.758 117.227 C 259.728 117.227 245.105 125.12 244.605 153.2 C 244.605 153.2 344.219 145.281 344.286 141.67 Z" style="fill: rgb(255, 255, 255);"/>
    <path class="cls-9" d="M 328.87 170.252 L 250.291 179.354 C 246.276 180.259 286.803 220.079 289.426 218.768 C 291.013 219.085 323.104 183.558 328.87 170.252 Z" style="fill: rgb(238, 28, 37);"/>
    <path d="M 251.425 179.622 C 248.35 178.55 242.312 156.179 245.116 152.203 L 342.904 141.963 C 345.227 142.1 330.292 171.019 328.523 170.915 L 251.425 179.622 Z" style="fill: rgb(11, 78, 162);"/>
  </g>
  <path d="m328.12,97.88c-13.42,0-29.29,9.91-38.89,26.38-2.59-5.95-11.83-12.43-22.8-12.43-8.84,0-33.67,11.05-33.67,46.73,0,46.05,46.59,55.51,56.01,69.82.65.99,2.73,1.73,3.53-.62,7.51-22.18,65.79-47.24,65.79-92.37,0-25.31-16.53-37.51-29.95-37.51Zm14.33,37.36c-.12,3.61-.71,7.15-1.66,10.61-3.84,13.95-13.7,26.65-23.84,37.87-12.19,13.49-24.77,24.84-27.74,33.66-3.21-6.5-18.3-14.72-29.86-27.59-7.82-8.7-14.03-19.51-13.88-33.35,0-.18.01-.35.01-.54.5-28.08,15.19-36.9,23.22-36.9,11.28,0,15.94,8.61,16.71,12.43.76,3.81,5.03,6.86,6.4.61,1.37-6.25,14.65-25.31,30.96-25.31,14.94,0,20.12,15.41,19.67,28.52Z" style=""/>
  <title>Flag of Slovakia</title>
  <g style="" transform="matrix(0.012545, -0.001344, 0, 0.012545, 298.864014, 158.962708)">
    <path d="M -461.645 -1696.236 C -461.645 -1696.236 -405.645 -1135.236 -405.645 -13.236 C -413.645 1132.764 -1270.645 1712.764 -1899.645 2017.764 C -2528.645 1712.764 -3385.645 1132.764 -3393.645 -13.236 C -3393.645 -1135.236 -3337.645 -1696.236 -3337.645 -1696.236 L -461.645 -1696.236 Z" style="fill: rgb(238, 28, 38);"/>
    <path d="M -1772.645 667.225 L -2026.645 677.501 L -2026.645 -45.236 C -2501.645 -45.236 -2636.645 -3.236 -2778.645 39.764 C -2765.288 -103.592 -2765.288 -247.88 -2778.645 -391.236 C -2636.645 -348.236 -2501.645 -306.236 -2026.645 -306.236 L -2026.645 -696.236 C -2176.645 -696.236 -2383.645 -690.236 -2621.645 -609.236 C -2608.226 -752.923 -2608.226 -897.549 -2621.645 -1041.236 C -2383.645 -961.236 -2176.645 -955.236 -2026.645 -955.236 C -2026.645 -1068.236 -2061.645 -1311.236 -2105.645 -1512.236 C -1968.582 -1500.034 -1830.707 -1500.034 -1693.645 -1512.236 C -1737.645 -1311.236 -1772.645 -1068.236 -1772.645 -955.236 C -1622.645 -955.236 -1415.645 -961.236 -1177.645 -1041.236 C -1191.063 -897.549 -1191.063 -752.923 -1177.645 -609.236 C -1415.645 -690.236 -1622.645 -696.236 -1772.645 -696.236 L -1772.645 -306.236 C -1297.645 -306.236 -1162.645 -348.236 -1020.645 -391.236 C -1034.001 -247.88 -1034.001 -103.592 -1020.645 39.764 C -1162.645 -3.236 -1297.645 -45.236 -1772.645 -45.236 L -1772.645 667.225 Z" style="fill: rgb(255, 255, 255);"/>
    <path clip-path="url(#c)" d="M -1901.008 2009.722 C -2597.642 1758.17 -3079.564 1067.47 -3079.564 1067.47 C -2909.432 684.922 -2582.687 608.38 -2357.645 919.764 C -2123.828 371.187 -1675.461 371.187 -1441.645 919.764 C -1209.645 598.754 -888.784 698.189 -723.375 1057.506 C -720.961 1036.041 -1265.48 1833.112 -1901.008 2009.722 Z" style="fill: rgb(13, 77, 162);"/>
    <path d="M -461.645 -1696.236 C -461.645 -1696.236 -405.645 -1135.236 -405.645 -13.236 C -413.645 1132.764 -1270.645 1712.764 -1899.645 2017.764 C -2528.645 1712.764 -3385.645 1132.764 -3393.645 -13.236 C -3393.645 -1135.236 -3337.645 -1696.236 -3337.645 -1696.236 L -461.645 -1696.236 Z" stroke-width="108" style="fill: none; fill-opacity: 0; stroke: rgb(255, 255, 255);"/>
  </g>
</svg>