<?xml version="1.0" encoding="UTF-8" standalone="no"?>
<!-- Created with Inkscape (http://www.inkscape.org/) -->

<svg
   width="125.33"
   height="131.45284"
   viewBox="0 0 33.160228 34.780229"
   version="1.1"
   id="svg1063"
   xmlns:xlink="http://www.w3.org/1999/xlink"
   xmlns="http://www.w3.org/2000/svg"
   xmlns:svg="http://www.w3.org/2000/svg">
  <defs
     id="defs1060">
    <g
       id="b"
       fill="#1eb53a">
      <g
         id="s">
        <g
           id="t">
          <g
             id="c">
            <path
               id="h"
               d="M0,-20V0H20"
               transform="rotate(30,0,-20)" />
            <use
               xlink:href="#h"
               transform="scale(-1,1)"
               id="use11" />
          </g>
          <use
             xlink:href="#c"
             transform="rotate(120)"
             id="use13" />
          <use
             xlink:href="#c"
             transform="rotate(240)"
             id="use15" />
        </g>
        <use
           xlink:href="#t"
           transform="rotate(180)"
           id="use17" />
      </g>
      <use
         xlink:href="#s"
         fill="#ce1126"
         transform="scale(0.82)"
         id="use19" />
    </g>
    <use
       id="star"
       xlink:href="#b"
       x="250"
       y="106" />
    <g
       id="petal">
      <line
         x1="0"
         y1="0"
         x2="25"
         y2="0"
         stroke="gold"
         stroke-width="2"
         id="line7" />
      <circle
         cx="25"
         cy="0"
         r="5"
         fill="gold"
         id="circle9" />
    </g>
    <pattern
       y="0"
       x="0"
       height="6"
       width="6"
       patternUnits="userSpaceOnUse"
       id="EMFhbasepattern" />
    <g
       id="petal-7">
      <line
         x1="0"
         y1="0"
         x2="25"
         y2="0"
         stroke="gold"
         stroke-width="2"
         id="line7-0" />
      <circle
         cx="25"
         cy="0"
         r="5"
         fill="gold"
         id="circle9-1" />
    </g>
    <pattern
       y="0"
       x="0"
       height="6"
       width="6"
       patternUnits="userSpaceOnUse"
       id="EMFhbasepattern-2" />
  </defs>
  <g
     id="layer1">
    <path
       d="M 20.054527,2.6645878 29.310461,1.8231391 V 16.54849 l -9.255934,10.377867 z"
       fill="#e23"
       id="path4"
       style="fill:#009460;fill-opacity:1;stroke-width:0.140241" />
    <path
       d="M 9.8169009,4.7682094 15.005835,7.9937623 20.194768,2.524346 v 24.962977 l -5.188933,5.469416 -5.1889341,-3.506036 z"
       fill="#fe4"
       id="path6"
       style="fill:#fcd116;fill-opacity:1;stroke-width:0.140241" />
    <path
       d="M 3.9267608,7.4327967 9.9571427,4.7682094 V 29.17022 L 1.5426561,20.335009 Z"
       fill="#111"
       id="path8"
       style="fill:#ce1126;fill-opacity:1;stroke-width:0.140241" />
    <path
       d="M 3.3664959,15.492612 C 3.4506408,7.9487449 7.3765598,5.58764 9.5145407,5.58764 c 2.9857403,0 4.2188833,2.2793442 4.4204103,3.2885213 0.201387,1.0083364 1.331452,1.8148647 1.694537,0.1608569 0.363366,-1.6540072 3.875853,-6.6976505 8.192905,-6.6976505 3.953687,0 5.323004,4.0772394 5.2045,7.54513 C 28.703356,19.325271 16.541478,26.860023 14.940622,31.617714 13.515208,28.736173 3.2659429,24.570862 3.3664959,15.492612 Z M 25.234765,0 C 21.684272,0 17.485303,2.6222344 14.943707,6.9799568 14.257927,5.4061675 11.8145,3.6911551 8.9099597,3.6911551 6.5694704,3.6911551 0,6.6163111 0,16.057365 0,28.241541 12.327363,30.74415 14.819453,34.53123 14.990689,34.791658 15.542258,34.988417 15.75276,34.366165 17.741244,28.497762 33.160229,21.867147 33.160229,9.9250272 33.160089,3.2276571 28.785117,0 25.234765,0 Z"
       id="path10"
       style="stroke-width:0.140241" />
  </g>
</svg>
