<?xml version="1.0" encoding="utf-8"?>
<svg id="LOGO_LAYER" viewBox="0 0 125.33 131.4429" version="1.1" width="125.33" height="131.4429" xmlns="http://www.w3.org/2000/svg">
  <defs id="defs1">
    <style id="style1">.cls-1{fill:#f7f7f7;}.cls-2{fill:#00008b;}.cls-3{fill:red;}</style>
  </defs>
  <g id="LOGO_GROUP" transform="translate(-232.76,-97.88)">
    <g id="SELECT_FLAG_HERE">
      <g id="BLACK_FLAG">
        <path class="cls-2" d="M 289.452 221.665 C 424.204 69.011 291.032 94.698 289.802 131.951 C 261.013 87.263 193.766 145.026 289.452 221.665 Z" id="path-1"/>
        <path class="cls-1" d="M 262.45 120.49 C 262.579 118.598 269.82 119.02 270.33 119.06 L 270.33 127.83 L 278.52 121.76 C 279.259 121.513 283.127 123.785 282.53 125.49 L 279.52 127.72 L 283.74 127.28 C 285.366 127.731 289.346 134.976 289.96 135.38 L 289.96 136.63 L 279.51 137.73 L 289.96 143.28 L 289.96 146.64 L 284.69 147.19 L 270.31 139.55 L 270.31 148.69 L 262.46 149.52 L 262.46 140.38 L 248.08 151.03 L 245.207 151.266 C 245.207 151.266 245.892 146.715 246.42 145.55 L 253.25 140.49 L 247.38 141.11 C 246.117 139.468 250.317 130.773 251.63 130.66 L 253.24 130.49 L 252.11 129.89 C 251.752 129.247 253.74 124.884 255.86 125.17 L 262.45 128.67 L 262.45 120.49 Z" id="path12" style="fill: rgb(255, 255, 255);"/>
        <polygon class="cls-1" points="266.43,167.89 265.06,163.77 263.68,168.18 259.49,167.03 261.97,170.51 258.11,173.2 262.58,173.12 261.97,177.63 265.06,174.05 268.15,176.98 267.53,172.6 272,171.74 268.14,169.86 270.62,165.86 " id="polygon14" style="fill: rgb(255, 255, 255);"/>
        <polygon class="cls-1" points="321.47,162.46 320.82,160.5 320.16,162.6 318.17,162.05 319.35,163.71 317.51,164.99 319.64,164.95 319.35,167.1 320.82,165.4 322.29,166.79 322,164.7 324.12,164.3 322.29,163.4 323.47,161.5 " id="polygon15" style="fill: rgb(255, 255, 255);"/>
        <polygon class="cls-1" points="309.6,144.91 308.95,142.95 308.29,145.05 306.3,144.51 307.48,146.16 305.64,147.44 307.77,147.4 307.48,149.55 308.95,147.85 310.42,149.24 310.13,147.16 312.25,146.75 310.42,145.85 311.6,143.95 " id="polygon16" style="fill: rgb(255, 255, 255);"/>
        <polygon class="cls-1" points="320.82,133.74 322.29,135.13 322,133.05 324.12,132.64 322.29,131.74 323.47,129.84 321.47,130.81 320.82,128.84 320.16,130.94 318.17,130.4 319.35,132.05 317.51,133.34 319.64,133.3 319.35,135.44 " id="polygon17" style="fill: rgb(255, 255, 255);"/>
        <polygon class="cls-1" points="332.02,139.39 331.37,137.43 330.72,139.53 328.72,138.98 329.9,140.64 328.06,141.92 330.19,141.88 329.9,144.03 331.37,142.33 332.84,143.72 332.55,141.63 334.68,141.23 332.84,140.33 334.02,138.43 " id="polygon18" style="fill: rgb(255, 255, 255);"/>
        <polygon class="cls-1" points="325.05,148.88 323.68,149.13 324.73,149.9 324.4,151.26 325.57,150.42 326.73,151.02 326.4,149.72 327.45,148.73 326.08,148.77 325.57,147.56 " id="polygon19" style="fill: rgb(255, 255, 255);"/>
        <path class="cls-3" d="M 262.04 139.56 L 258.53 139.93 L 245.91 149.28 C 245.383 149.28 245.193 151.27 245.72 151.27 L 246.33 151.21 L 262.05 139.56 L 262.04 139.56 Z" id="path7"/>
        <path class="cls-3" d="M 258.52 129.93 L 253.85 127.45 C 252.876 127.745 252.42 128.254 252.67 129.06 L 255.01 130.3 L 258.53 129.93 L 258.52 129.93 Z" id="path8"/>
        <path class="cls-3" d="m 274.24,128.28 6.46,-4.79 c -0.44,-0.41 -0.91,-0.81 -1.42,-1.18 l -8.55,6.34 z" id="path9"/>
        <polygon class="cls-3" points="289.96,146.63 289.96,144.39 277.76,137.91 274.24,138.28 289.96,146.63 " id="polygon9"/>
        <path class="cls-3" d="M 264.02 149.35 L 268.73 148.86 L 268.73 136.86 L 287.37 134.9 C 286.898 133.962 285.781 129.742 284.69 129.18 L 268.73 130.85 L 268.73 117.99 C 268.73 117.99 265.7 117.62 264.01 118.85 L 264.01 131.34 L 250.46 132.76 C 248.713 133.283 247.189 137.552 247.95 139.02 L 264.01 137.33 L 264.01 149.33 L 264.02 149.35 Z" id="path14"/>
        <path d="M 328.12 97.88 C 314.7 97.88 298.83 107.79 289.23 124.26 C 286.64 118.31 277.4 111.83 266.43 111.83 C 257.59 111.83 232.76 122.88 232.76 158.56 C 232.76 204.61 279.35 214.07 288.77 228.38 C 289.42 229.37 291.5 230.11 292.3 227.76 C 299.81 205.58 358.09 180.52 358.09 135.39 C 358.09 110.08 341.56 97.88 328.14 97.88 L 328.12 97.88 Z M 342.45 135.24 C 341.23 170.92 295.26 199.39 289.21 217.38 C 283.82 206.49 245.09 190.75 245.47 156.44 C 245.49 154.64 245.57 152.93 245.7 151.28 C 245.75 150.6 245.82 149.94 245.89 149.29 C 246.03 147.99 246.21 146.75 246.42 145.55 C 246.69 143.99 247.01 142.51 247.37 141.11 C 247.55 140.4 247.75 139.72 247.96 139.05 C 248.68 136.73 249.53 134.65 250.47 132.79 C 250.84 132.05 251.23 131.34 251.63 130.67 C 251.79 130.41 251.95 130.16 252.12 129.9 C 252.3 129.62 252.48 129.34 252.67 129.07 C 253.06 128.51 253.45 127.97 253.85 127.46 C 254.5 126.63 255.18 125.87 255.86 125.18 C 258 123.02 260.27 121.49 262.45 120.5 C 262.98 120.26 263.51 120.05 264.02 119.87 C 265.71 119.28 267.31 119.01 268.71 119.01 C 268.71 119.01 269.8 119.05 270.31 119.09 C 273.65 119.34 276.36 120.38 278.5 121.79 C 278.77 121.97 279.02 122.15 279.27 122.34 C 279.78 122.72 280.25 123.11 280.69 123.52 C 281.38 124.16 281.98 124.84 282.51 125.52 C 282.97 126.12 283.37 126.72 283.72 127.31 C 284.11 127.97 284.43 128.6 284.68 129.21 C 285.03 130.05 285.28 130.82 285.4 131.45 C 285.68 132.86 286.44 134.16 287.36 134.93 C 288.17 135.61 289.11 135.87 289.94 135.41 C 290.71 134.98 291.39 133.96 291.8 132.07 C 293.17 125.82 306.45 106.76 322.76 106.76 C 337.7 106.76 342.88 122.17 342.43 135.28 L 342.45 135.24 Z" id="path19" style=""/>
      </g>
    </g>
  </g>
</svg>