<?xml version="1.0" encoding="UTF-8"?>
<svg width="125.32" height="131.48" version="1.1" xmlns="http://www.w3.org/2000/svg" xmlns:cc="http://creativecommons.org/ns#" xmlns:dc="http://purl.org/dc/elements/1.1/" xmlns:rdf="http://www.w3.org/1999/02/22-rdf-syntax-ns#">
 <metadata>
  <rdf:RDF>
   <cc:Work rdf:about="">
    <dc:format>image/svg+xml</dc:format>
    <dc:type rdf:resource="http://purl.org/dc/dcmitype/StillImage"/>
   </cc:Work>
  </rdf:RDF>
 </metadata>
 <g transform="scale(1.0001 .99975)">
  <path d="m2.393 71.269c18.283 18.302 36.566 36.604 54.848 54.905 20.67-22.796 41.341-45.592 62.011-68.389-2.6501-16.081-5.3001-32.162-7.9502-48.243-10.777-0.88375-21.554-1.767-32.331-2.6507-7.7737 7.9522-15.547 15.904-23.321 23.857-4.9466-4.4177-9.8937-8.8359-14.84-13.254-9.1014 3.2811-18.202 6.5621-27.304 9.8432-3.7048 14.644-7.4096 29.287-11.114 43.931z" fill="#244aa5" stroke-width=".53008"/>
  <path d="m12.723 58.566c0.31801-28.518 15.155-37.443 23.235-37.443 11.284 0 15.944 8.6164 16.706 12.431 0.7611 3.8117 5.0319 6.8606 6.4041 0.60808 1.3733-6.2525 14.648-25.319 30.963-25.319 14.942 0 20.117 15.413 19.669 28.522-1.2227 35.688-47.186 64.171-53.236 82.156-5.387-10.893-44.122-26.639-43.742-60.957zm82.646-58.566c-13.418 0-29.287 9.9126-38.893 26.386-2.5918-5.9493-11.826-12.432-22.803-12.432-8.8454 0-33.673 11.058-33.673 46.747 0 46.059 46.589 55.519 56.007 69.835 0.64715 0.98448 2.7317 1.7283 3.5272-0.62398 7.515-22.184 65.788-47.249 65.788-92.393-5.3e-4 -25.318-16.535-37.519-29.953-37.519z" stroke-width=".53008"/>
  <path d="m52.589 44.273-0.93557 2.9613-3.0281 0.26506 2.4496 1.5655-0.93556 2.9613 2.4496-1.994 2.4496 1.5655-0.93557-2.7974 2.4472-1.994-3.0257 0.26465-0.93556-2.7974zm9.6828-0.84744-0.93557 2.9613-3.0257 0.26465 2.4471 1.5655-0.93556 2.9613 2.4496-1.994 2.4496 1.5655-0.93557-2.7974 2.4496-1.994-3.0281 0.26506-0.93556-2.7974zm-19.218 3.3628-0.93556 2.9613-3.0281 0.26506 2.4496 1.5655-0.93556 2.9613 2.4496-1.994 2.4496 1.5655-0.93556-2.7974 2.4472-1.994-3.0257 0.26464-0.93556-2.7974zm28.754-2.5162-0.93556 2.9613-3.0257 0.26464 2.4471 1.5655-0.93557 2.9613 2.4496-1.994 2.4496 1.5655-0.93556-2.7974 2.4496-1.994-3.0281 0.26506-0.93557-2.7974zm-37.853 6.6261-0.93556 2.9613-3.0281 0.26506 2.4496 1.5655-0.93556 2.9613 2.4496-1.994 2.4496 1.5655-0.93556-2.7974 2.4472-1.994-3.0257 0.26464-0.93556-2.7974zm46.952-4.1086-0.93556 2.9613-3.0257 0.26464 2.4471 1.5655-0.93557 2.9613 2.4496-1.994 2.4496 1.5655-0.93556-2.7974 2.4496-1.994-3.0281 0.26506-0.93557-2.7974z" fill="#f9f9f9" stroke-width=".41475"/>
  <path d="m56.238 57.292c0.43607 0.42376 0.7419 0.8591 0.7931 1.418-0.31578 0.19387-0.76666 0.30255-1.0033 0.6223 1.6212-0.38099 2.1228 1.4938 3.8958 0.60242 0.09094 0.25769 0.3758 0.46374 0.6937 0.33424l0.14892-0.54267c0.7029-0.2631 0.61423 0.93681 1.3841 0.63396 0.42428 0.29279 0.21163 0.87456 0.51162 1.2461 0.04203 0.45902 0.27525 0.83499 0.50804 1.2109 0.17616-0.24673 0.27609-0.58758 0.74572-0.53122 0.36019 0.33058 0.65405 0.63534 0.75668 1.0231-0.06415 0.76852-0.20101 1.4426 0.62282 1.7643l0.0211 0.23035c0.54857 0.18202 1.6881-0.387 1.7723 0.53285-0.03689 0.33506 0.33012 0.0037 0.48169 0.18813 0.31509-0.16188 0.78181-0.13719 1.1756-0.17329 0.39033 0.65951-0.28554 1.218-0.42532 1.8604 0.35702 0.29727 0.28124 0.9018 0.25038 1.3l-0.18805 0.11663c0.53303 0.05042 1.1757-0.17161 1.6636 0.08162l0.88452 0.2488c0.37287-0.26465 0.82698-0.34169 1.3576-0.3549 0.42102 0.25949-0.06135 0.80019 0.29021 0.99856 0.46073-0.0422 0.86067-0.01134 0.96008 0.37681l0.0787 0.124c0.27299-0.62104 1.2304-0.31157 1.5853-0.77312 0.65757-0.06026 0.8537 0.64896 1.2168 1.013 0.2271 1.0077-0.97902 1.5831-0.49209 2.5635-0.21864 0.51653-0.70652 0.95871-1.0581 1.4555 0.13617 0.05487 0.08409 0.22289 0.09312 0.32134-0.37252 0.26836 0.02125 0.92744-0.50051 1.0393-0.02401 0.43472-0.82692 0.34169-0.52443 0.77853 0.59053 0.64116-0.15812 1.139-0.10077 1.7651-0.29744 0.39256-1.0185-0.24014-0.95498 0.45283-0.38493 0.13455-0.82095-0.29005-1.0451 0.12786-0.09134 0.47307 0.3173 0.59874 0.29622 1.0654 0.64805-0.12687 0.90531 0.51292 1.2051 0.88278l0.71782 0.59745c-0.60955 0.58441-1.5183 0.07168-2.2791 0.43936-0.20599-0.08039-0.03286-0.35877-0.23886-0.43917-0.21825-0.21422-0.61206-0.17812-0.94491-0.21159 0.0904 0.28991-0.49138 0.44237-0.19479 0.77699 9e-3 0.09844 0.16616 0.38211-0.09409 0.40596-0.51233 0.2137-0.50249-0.41501-0.94238-0.14423-0.56983 0.28283-0.02788 1.1271-0.89146 1.1069 0.20259 0.77961-1.1912 1.4359-0.14345 2.0352 0.14199 0.11831 0.09937 0.38811 0.11741 0.58513-0.54255 0.58177-1.6087 0.48094-2.2842 0.34406-0.53972-0.08523-0.26947-0.77336-0.49919-1.1141-0.22726-0.31255-0.83897-0.48707-0.88118-0.94789-0.40901-0.12588-0.74859-0.19718-1.0423-0.50048-0.83661 0.97064-1.8763 1.9278-3.1855 2.0798-0.56372 0.34961-0.78564 1.5655-1.7487 1.1569-0.30632 0.62421-1.4454 0.13248-1.4325 0.98994-0.41215 0.20442-0.16394 0.74563-0.40204 1.03-0.03827 0.66676 0.11149 1.217 0.70494 1.5601 0.27542 0.47126-0.44726 0.53749-0.10964 0.97136 0.08174 0.15574 0.03609 0.39391-0.0562 0.46972-0.18795 0.11649-0.2439 0.22114-0.16088 0.41208-0.16351 0.015-0.22116 0.11955-0.33954 0.2616-0.13536 0.34239-0.64422 0.55566-0.98542 0.81752-0.35148 0.13149-0.63908-0.10467-0.88893-0.31574-0.03371 0.36838-0.31093 0.59246-0.67144 0.62551-0.5258 0.04824-0.46948-0.42166-0.88143-0.58246 0.10936-0.60603-0.44017-0.81818-0.3233-1.3609 0.39715-0.36628 1.097-0.66452 0.83687-1.3358-0.50985-0.51385-0.42172-1.3519-0.94088-1.9676-0.31924-0.23326-0.84769-0.58204-0.74155-1.2232 0.38218-0.53152-0.09925-1.0834-0.37756-1.5864-0.13772-0.42002-0.43587-0.78992-0.481-1.2825-0.76163-0.35933-0.89758-1.4749-1.9246-1.4801-0.72265 0.06621-0.93696-0.84-1.6538-0.71045-0.07869-0.12399-0.25122-0.20745-0.39504-0.32558-0.49114 0.40681-1.1906 0.0099-1.8317 0.23173-0.49335-0.68199 0.20418-1.7391-0.98504-2.0629l-0.04189-0.45723c0.13765 0.05116 0.1908-0.08508 0.21804-0.15481 0.01997-0.49844-0.87212-0.48053-0.56108-1.0731-0.21208-0.14719-0.44852-0.19299-0.3466-0.5322-0.58717-0.97135-2.0552-0.73739-2.4775-1.7273 0.24282-0.25272 0.22154-0.48499 0.30202-0.69093-0.26649-0.37291-0.37046-0.79264-0.34447-1.2242 0.22426-0.08803 0.32729-0.39529 0.43788-0.63966-0.31343-0.16982-0.70111-0.43223-1.0208-0.30366-0.5998-0.04432-1.0691-0.46248-1.6189-0.6781-0.14379-0.11814-0.09817-0.35629-0.113-0.51818 0.70124-0.2985-0.21298-1.2415 0.68529-1.1907 0.20335-0.31659 0.68655-0.46027 1.0261-0.72368 0.35619-0.09818 0.66366 0.0066 1.0332 0.07206 0.33132 0.36516 0.84214 0.1534 1.1675 0.45514 0.28927-0.09386 0.63655-0.29075 1.012-0.16011-0.05108-0.55759 0.18087-0.91053 0.54025-1.3408 0.04416-0.23464 0.3895-0.43291 0.67296-0.59021 0.57118 0.07896 1.2271 0.01882 1.5866-0.41144 0.27719 0.14122 0.47736-0.2087 0.77274-0.23577 0.35425-0.09982 0.65877-0.02858 0.93768 0.11272-0.02864-0.66073 1.1725-0.20686 1.3308-1.0159 0.21388-0.54995-0.78887-0.65659-0.7661-1.1234-0.21171-0.51094 0.15824-0.80906 0.32204-1.1877 0.22126-0.11968 0.47127-0.27548 0.77261-0.23756 0.73208-0.33143-2.67e-4 -1.8214 1.2661-1.3735 0.015 0.16367-0.03376 0.3667 0.06773 0.39114 0.42725-0.03912 0.44768-0.53813 0.72931-0.73009 0.08801-0.47094-0.25849-1.0032 0.10229-1.3999 0.19391-0.05142 0.35315-0.13165 0.46819-0.30893-0.03302-0.36058-0.24804-0.53942-0.56454-0.74281-0.08339 0.17318-0.35744 0.06646-0.51631 0.14671-0.03609-0.39402-0.28918-0.63504-0.38916-0.99131-0.20599-0.08039-0.3194-0.23493-0.27373-0.47152 0.26833-0.32254-0.09329-1.0183 0.61104-0.91755 0.2411-0.25306 0.71668-0.13172 0.94264-0.54976 0.65322-0.4571 1.5727-0.54137 2.0323-1.3124 0.23334 0.01225 0.47429-0.24214 0.72265-0.06622 0.10435 0.42127 0.71343 0.1987 0.7496 0.59357" fill="#d0a650" stroke-width=".11257"/>
 </g>
</svg>