<?xml version="1.0" encoding="UTF-8" standalone="no"?>
<!-- Created with Inkscape (http://www.inkscape.org/) -->

<svg
   width="125.33"
   height="131.45125"
   viewBox="0 0 33.160229 34.77981"
   version="1.1"
   id="svg16422"
   xmlns:xlink="http://www.w3.org/1999/xlink"
   xmlns="http://www.w3.org/2000/svg"
   xmlns:svg="http://www.w3.org/2000/svg">
  <defs
     id="defs16419" />
  <g
     id="layer1">
    <path
       d="M 20.054526,2.6645874 29.310461,1.8231387 V 16.54849 l -9.255935,10.377866 z"
       id="path4"
       style="fill:#fcd116;fill-opacity:1;stroke-width:0.140241" />
    <path
       d="M 9.8169008,4.768209 15.005834,7.9937621 20.194767,2.5243459 V 27.487322 l -5.188933,5.469416 -5.1889332,-3.506036 z"
       id="path6"
       style="fill:#ce1126;fill-opacity:1;stroke-width:0.140241" />
    <path
       d="M 3.9267603,7.4327963 9.9571422,4.768209 V 29.17022 L 1.5426558,20.335009 Z"
       id="path8"
       style="fill:#007a5e;fill-opacity:1;stroke-width:0.140241" />
    <g
       id="g4224"
       transform="matrix(0.14024144,-0.01226954,0,0.14024144,-0.14024144,1.3226002)">
      <g
         transform="matrix(2.4218599,0,0,2.4218599,108.34041,118.73676)"
         id="c"
         style="fill:#fcd116">
        <path
           id="t"
           d="M 0,-8 V 0 H 4 Z"
           transform="rotate(18,5.4706275e-8,-8.0000003)" />
        <use
           height="100%"
           width="100%"
           y="0"
           x="0"
           xlink:href="#t"
           transform="scale(-1,1)"
           id="use14" />
      </g>
      <use
         height="100%"
         width="100%"
         y="0"
         x="0"
         xlink:href="#c"
         transform="rotate(72,108.34041,118.73676)"
         id="use16"
         style="fill:#fcd116" />
      <use
         height="100%"
         width="100%"
         y="0"
         x="0"
         xlink:href="#c"
         transform="rotate(144,108.34041,118.73676)"
         id="use18"
         style="fill:#fcd116" />
      <use
         height="100%"
         width="100%"
         y="0"
         x="0"
         xlink:href="#c"
         transform="rotate(-144,108.34041,118.73676)"
         id="use20"
         style="fill:#fcd116" />
      <use
         height="100%"
         width="100%"
         y="0"
         x="0"
         xlink:href="#c"
         transform="rotate(-72,108.34041,118.73676)"
         id="use22"
         style="fill:#fcd116" />
    </g>
    <path
       d="m 3.3664958,15.492612 c 0.084145,-7.5438674 4.0100637,-9.9049723 6.1480445,-9.9049723 2.9857407,0 4.2188827,2.2793441 4.4204097,3.2885215 0.201387,1.008336 1.331453,1.8148648 1.694538,0.160857 0.363365,-1.6540076 3.875852,-6.6976507 8.192905,-6.6976507 3.953686,0 5.323004,4.0772393 5.2045,7.5451297 C 28.703356,19.32527 16.541478,26.860022 14.940622,31.617713 13.515208,28.736172 3.2659427,24.570861 3.3664958,15.492612 Z M 25.234764,0 C 21.684272,0 17.485303,2.6222344 14.943707,6.9799567 14.257926,5.4061673 11.8145,3.6911547 8.9099594,3.6911547 6.56947,3.6911547 0,6.6163107 0,16.057364 0,28.241541 12.327363,30.744149 14.819453,34.531229 14.990688,34.791657 15.542258,34.988416 15.75276,34.366165 17.741243,28.497762 33.160229,21.867147 33.160229,9.925027 33.160088,3.2276567 28.785117,0 25.234764,0 Z"
       id="path10"
       style="stroke-width:0.140241" />
  </g>
</svg>
