<?xml version="1.0" encoding="UTF-8" standalone="no"?>
<svg
   width="125.33"
   height="131.45125"
   xml:space="preserve"
   id="svg2"
   version="1.1"
   xmlns="http://www.w3.org/2000/svg"
   xmlns:svg="http://www.w3.org/2000/svg"
   xmlns:rdf="http://www.w3.org/1999/02/22-rdf-syntax-ns#"
   xmlns:cc="http://creativecommons.org/ns#"
   xmlns:dc="http://purl.org/dc/elements/1.1/"><metadata
     id="metadata39"><rdf:RDF><cc:Work
         rdf:about=""><dc:format>image/svg+xml</dc:format><dc:type
           rdf:resource="http://purl.org/dc/dcmitype/StillImage" /></cc:Work></rdf:RDF></metadata><defs
     id="defs4"><g
       id="petal"><line
         x1="0"
         y1="0"
         x2="25"
         y2="0"
         stroke="#ffd700"
         stroke-width="2"
         id="line7" /><circle
         cx="25"
         cy="0"
         r="5"
         fill="#ffd700"
         id="circle9" /></g><pattern
       y="0"
       x="0"
       height="6"
       width="6"
       patternUnits="userSpaceOnUse"
       id="EMFhbasepattern" /></defs><path
     d="M 18.021577,84.807423 94.878305,77.386774 57.245011,126.15104 Z"
     id="path23"
     style="fill:#009a44;fill-opacity:1;stroke-width:0.530046" /><path
     d="M 116.19412,33.345749 113.41735,56.944119 99.118676,81.367427 16.431438,88.601622 6.8230752,66.019637 7.4206495,42.933758 Z"
     id="path25"
     style="fill:#f9f9f9;fill-opacity:1;stroke-width:0.530046" /><path
     d="M 14.841299,28.092459 37.633294,16.961485 56.714964,30.212644 78.446866,9.0107887 109.18956,6.3605551 119.26044,35.546736 6.3605567,45.424195 Z"
     id="path27"
     style="fill:#001489;fill-opacity:1;stroke-width:0.530046" /><g
     id="g10"
     style="fill:#ffffff"
     transform="matrix(0.36715449,-0.03212186,0,0.36715449,-26.900702,15.290192)"><path
       d="m 224.76,95.569 c -1.7098,0.03684 -3.3781,1.9308 -3.3781,1.9308 l 0.14732,20.233 -6.3878,6.692 h 5.1711 l -0.0437,11.603 -30.591,41.193 -4.5222,-1.563 -7.9041,16.861 c 0,0 19.55,12.242 47.925,11.907 31.144,-0.37035 48.064,-12.471 48.064,-12.471 l -8.1677,-16.644 -3.9996,1.7393 -30.983,-40.979 -0.0437,-11.949 h 5.1711 l -7.0378,-6.6088 0.0416,-20.159 c 0,0 -1.7514,-1.8203 -3.4613,-1.7835 z"
       id="path12"
       style="fill:#000000;stroke:#000000" /><path
       d="m 235.43,144.01 h -21.153 c 0,0 -7.6776,-16.176 -6.4331,-27.485 1.2672,-11.515 7.8483,-16.963 16.598,-17.059 10.345,-0.11526 15.767,5.0691 17.405,16.598 1.6231,11.424 -6.4172,27.947 -6.4172,27.947 z"
       id="path14"
       style="fill:none;stroke:#000000;stroke-width:5" /><path
       d="m 187.79,182.57 c -0.3458,0.46106 -2.8816,5.5326 -2.8816,5.5326 l 4.38,-0.92211 -1.4984,-4.6105 z"
       id="path16" /><path
       d="m 190.32,189.14 -4.6105,1.4984 5.5327,2.19 -0.92212,-3.6884 z"
       id="path18" /><path
       d="m 192.4,182.68 2.3053,6.8006 5.6479,-1.6137 -1.4984,-3.2274 z"
       id="path20" /><path
       d="m 195.97,191.91 0.80685,2.7663 7.4921,1.8442 -2.9968,-6.3395 -5.3021,1.729 z"
       id="path22" /><path
       d="m 204.27,186.14 2.6511,6.3395 5.6479,-2.19 -1.8442,-2.7663 z"
       id="path24" /><path
       d="m 207.96,194.79 0.92211,2.4205 8.76,1.2679 -3.6884,-5.7632 -5.9937,2.0747 z"
       id="path26" /><path
       d="m 216.37,187.99 3.2274,5.6479 8.1837,-2.9969 -0.9221,-2.19 -10.489,-0.46106 z"
       id="path28" /><path
       d="m 221.1,195.71 1.729,2.9969 10.143,-0.3458 -3.8037,-5.6479 -8.0684,2.9968 z"
       id="path30" /><path
       d="m 231.82,188.22 2.7663,4.7258 6.4548,-3.1121 -1.729,-2.5358 -7.4921,0.92212 z"
       id="path32" /><path
       d="m 242.42,191.79 -6.4548,3.2274 1.729,2.7663 8.6448,-1.3832 -3.919,-4.6106 z"
       id="path34" /><path
       d="m 244.5,186.83 3.3426,4.1495 5.4174,-4.2648 -1.8442,-1.9595 z"
       id="path36" /><path
       d="m 254.41,189.02 -5.1869,3.919 1.3832,2.4205 7.1464,-1.8442 -3.3426,-4.4953 z"
       id="path38" /><path
       d="m 261.56,180.84 1.2679,1.8442 -3.5732,5.3021 -3.6884,-4.7258 z"
       id="path40" /><path
       d="m 263.98,185.45 2.19,4.38 -4.38,1.4984 -0.34579,-2.0748 2.5358,-3.8037 z"
       id="path42" /></g><path
     d="M 12.723764,58.554755 C 13.041792,30.0425 27.87991,21.118638 35.960468,21.118638 c 11.284687,0 15.945385,8.614845 16.707062,12.429058 0.761147,3.811034 5.03226,6.859331 6.404551,0.607964 1.37335,-6.251368 14.648892,-25.3139561 30.96531,-25.3139561 14.943069,0 20.118439,15.4100391 19.670549,28.5170261 C 108.48513,73.040393 62.518972,101.5182 56.468493,119.50002 51.081101,108.60916 12.34372,92.866248 12.723764,58.554755 Z M 95.375488,0 C 81.956304,0 66.086184,9.9108075 56.480154,26.380939 53.888227,20.432758 44.653228,13.950821 33.675438,13.950821 24.829493,13.950821 0,25.006529 0,60.689252 c 0,46.050428 46.591608,55.509108 56.010533,69.822478 0.647186,0.9843 2.731859,1.72795 3.527458,-0.62386 C 67.053519,107.70808 125.33,82.647484 125.33,37.511913 125.32947,12.199018 108.79414,0 95.375488,0 Z"
     id="path29"
     style="stroke-width:0.530046" /></svg>
