<?xml version="1.0" encoding="UTF-8" standalone="no"?>
<svg
   width="125.33"
   height="131.45149"
   viewBox="0 0 94.787396 63.096716"
   id="svg2"
   version="1.1"
   xmlns:xlink="http://www.w3.org/1999/xlink"
   xmlns="http://www.w3.org/2000/svg"
   xmlns:svg="http://www.w3.org/2000/svg"
   xmlns:rdf="http://www.w3.org/1999/02/22-rdf-syntax-ns#"
   xmlns:cc="http://creativecommons.org/ns#"
   xmlns:dc="http://purl.org/dc/elements/1.1/">
  <metadata
     id="metadata38">
    <rdf:RDF>
      <cc:Work
         rdf:about="">
        <dc:format>image/svg+xml</dc:format>
        <dc:type
           rdf:resource="http://purl.org/dc/dcmitype/StillImage" />
      </cc:Work>
    </rdf:RDF>
  </metadata>
  <defs
     id="defs4">
    <g
       id="s"
       transform="translate(0,-36)">
      <g
         id="f">
        <g
           id="t">
          <path
             d="M 0,-5 V 0 H 3 Z"
             fill="#ffffff"
             transform="rotate(18,0,-5)"
             id="o" />
          <use
             xlink:href="#o"
             transform="scale(-1,1)"
             id="use10"
             x="0"
             y="0"
             width="100%"
             height="100%" />
        </g>
        <use
           xlink:href="#t"
           transform="rotate(72)"
           id="use12"
           x="0"
           y="0"
           width="100%"
           height="100%" />
      </g>
      <use
         xlink:href="#t"
         transform="rotate(-72)"
         id="use14"
         x="0"
         y="0"
         width="100%"
         height="100%" />
      <use
         xlink:href="#f"
         transform="rotate(144)"
         id="use16"
         x="0"
         y="0"
         width="100%"
         height="100%" />
    </g>
    <pattern
       y="0"
       x="0"
       height="6"
       width="6"
       patternUnits="userSpaceOnUse"
       id="EMFhbasepattern" />
  </defs>
  <path
     id="path4195"
     d="M 13.618349,45.973113 71.759652,40.380588 43.29012,77.242783 Z"
     style="fill:#cf142b;fill-opacity:1;fill-rule:nonzero;stroke:none;stroke-width:0.530046" />
  <path
     id="path4197"
     d="M 87.87294,11.065093 74.946312,40.771465 12.415884,46.394061 5.6217144,18.311264 Z"
     style="fill:#00247d;fill-opacity:1;fill-rule:nonzero;stroke:none;stroke-width:0.530046" />
  <path
     id="path4199"
     d="M 11.213362,3.0972907 28.469324,-5.3214933 42.899301,4.6908507 59.313627,-11.334929 82.581874,-13.349437 90.187769,11.516111 4.8100112,19.12307 Z"
     style="fill:#ffcc00;fill-opacity:1;fill-rule:nonzero;stroke:none;stroke-width:0.530046" />
  <g
     transform="matrix(0.69519283,-0.06083063,0,0.69529725,41.722488,46.505156)"
     id="g24"
     style="fill:#f9f9f9;fill-opacity:1">
    <g
       id="s4"
       style="fill:#f9f9f9;fill-opacity:1">
      <g
         id="s2"
         style="fill:#f9f9f9;fill-opacity:1">
        <use
           height="100%"
           width="100%"
           y="0"
           x="0"
           xlink:href="#s"
           transform="rotate(10)"
           id="use28"
           style="fill:#f9f9f9;fill-opacity:1" />
        <use
           height="100%"
           width="100%"
           y="0"
           x="0"
           xlink:href="#s"
           transform="rotate(30)"
           id="use30"
           style="fill:#f9f9f9;fill-opacity:1" />
      </g>
      <use
         height="100%"
         width="100%"
         y="0"
         x="0"
         xlink:href="#s2"
         transform="rotate(40)"
         id="use32"
         style="fill:#f9f9f9;fill-opacity:1" />
    </g>
    <use
       height="100%"
       width="100%"
       y="0"
       x="0"
       xlink:href="#s4"
       transform="rotate(-80)"
       id="use34"
       style="fill:#f9f9f9;fill-opacity:1" />
  </g>
  <path
     id="path4201"
     d="M 9.6200414,26.128659 C 9.8605494,4.5705887 21.073912,-2.1945313 27.206689,-2.1945313 c 8.507717,0 12.055132,6.524575 12.626327,9.4110118 0.571063,2.8864735 3.787791,5.1715405 4.840002,0.4510181 1.052192,-4.7205409 11.06313,-19.1527606 23.418956,-19.1527606 11.303637,0 15.211409,11.66606467 14.880719,21.588216 C 82.040749,37.073185 47.288484,58.631477 42.688859,72.221543 38.630494,63.983063 9.349467,52.076797 9.6200414,26.128659 Z M 72.120406,-18.160189 c -10.131184,0 -22.156342,7.486733 -29.401481,19.9645847 -1.954093,-4.510067 -8.958574,-9.411012 -17.255886,-9.411012 C 18.78917,-7.6066163 0,0.75208267 0,27.75229 c 0,34.818014 35.23339,41.973651 42.358172,52.797898 0.480997,0.751685 2.074338,1.29291 2.675598,-0.48107 5.681865,-16.777596 49.753625,-35.719636 49.753625,-69.845901 0,-19.1527983 -12.506158,-28.383406 -22.666989,-28.383406 z"
     style="fill:#000000;fill-opacity:1;fill-rule:nonzero;stroke:none;stroke-width:0.530046" />
</svg>
