<?xml version="1.0" encoding="UTF-8" standalone="no"?>
<svg
   width="125.33"
   height="131.45125"
   id="svg2"
   version="1.1"
   xmlns="http://www.w3.org/2000/svg"
   xmlns:svg="http://www.w3.org/2000/svg"
   xmlns:rdf="http://www.w3.org/1999/02/22-rdf-syntax-ns#"
   xmlns:cc="http://creativecommons.org/ns#"
   xmlns:dc="http://purl.org/dc/elements/1.1/">
  <metadata
     id="metadata16">
    <rdf:RDF>
      <cc:Work
         rdf:about="">
        <dc:format>image/svg+xml</dc:format>
        <dc:type
           rdf:resource="http://purl.org/dc/dcmitype/StillImage" />
      </cc:Work>
    </rdf:RDF>
  </metadata>
  <defs
     id="defs14" />
  <g
     id="g10636">
    <path
       style="fill:#f9f9f9;fill-opacity:1;fill-rule:evenodd;stroke:none;stroke-width:0.530046px;stroke-linecap:butt;stroke-linejoin:miter;stroke-opacity:1"
       d="M 11.396374,34.550288 4.457366,64.865005 15.082723,90.390375 41.320849,112.16452 56.49993,124.4977 73.413763,103.50197 109.40987,65.874516 117.4331,23.104836 98.784513,3.7025063 74.064294,8.9010612 63.222095,20.691832 56.06624,29.991649 49.344078,22.122845 30.912336,16.579561 Z"
       id="path4168" />
    <ellipse
       style="opacity:1;fill:#bc002d;fill-opacity:1;stroke:none;stroke-width:9.93837;stroke-linecap:round;stroke-linejoin:round;stroke-miterlimit:4;stroke-dasharray:none;stroke-opacity:1"
       id="path4135"
       cx="55.508316"
       cy="72.849777"
       rx="24.788824"
       ry="24.694496"
       transform="matrix(0.9961947,-0.08715574,0,1,0,0)" />
    <path
       d="M 12.723764,58.554755 C 13.041792,30.0425 27.87991,21.118638 35.960468,21.118638 c 11.284687,0 15.945385,8.614845 16.707062,12.429058 0.761147,3.811034 5.03226,6.859331 6.404551,0.607964 1.37335,-6.251368 14.648892,-25.3139561 30.96531,-25.3139561 14.943069,0 20.118439,15.4100391 19.670549,28.5170261 C 108.48513,73.040393 62.518972,101.5182 56.468493,119.50002 51.081101,108.60916 12.34372,92.866248 12.723764,58.554755 Z M 95.375488,0 C 81.956304,2.650232e-8 66.086184,9.9108075 56.480154,26.380939 53.888227,20.432758 44.653228,13.950821 33.675438,13.950821 24.829493,13.950821 0,25.006529 0,60.689252 c 0,46.050428 46.591608,55.509108 56.010533,69.822478 0.647186,0.9843 2.731859,1.72795 3.527458,-0.62386 C 67.053519,107.70808 125.33,82.647484 125.33,37.511913 125.32947,12.199018 108.79414,2.650232e-8 95.375488,0 Z"
       id="path10"
       style="stroke-width:0.530046" />
  </g>
</svg>
