<?xml version="1.0" encoding="UTF-8"?>
<svg width="125.32" height="131.44" version="1.1" xmlns="http://www.w3.org/2000/svg">
<g transform="matrix(.53006 0 0 .53001 .0015902 0)">
<path d="m5.515 135.43c34.495 34.523 68.99 69.045 103.48 103.57 39-43 78-86 117-129-5-30.333-10-60.667-15-91-20.333-1.667-40.667-3.333-61-5-14.667 15-29.333 30-44 45-9.333-8.333-18.667-16.667-28-25-17.172 6.189-34.343 12.378-51.515 18.567-6.99 27.622-13.98 55.244-20.97 82.866z" fill="#f9f9f9" />
<path class="cls-3" d="m198.24 127.07c7.5922-11.477 13.993-23.439 18.34-35.909l-93.49 9.8213v-69.985c-0.57383 0.75039-1.1477 1.4787-1.6774 2.207-5.8266 8.0116-9.5786 15.449-10.55 19.907-3.0236 13.794-12.448 7.0625-14.125-1.3463-0.55176-2.8029-2.0967-6.7535-4.7672-10.814v63.276l-83.25 8.7399c0.61797 12.095 3.443 23.108 7.7688 33.15l75.481-7.9233v88.613c6.2239 5.3631 10.947 10.197 13.154 14.633 2.7588-8.2102 9.3137-17.436 17.965-27.566v-78.946l75.15-7.9012z" fill="#c8102e" stroke-width="2.207" />
<path d="m24.005 110.47c0.6-53.792 28.594-70.628 43.839-70.628 21.29 0 30.083 16.253 31.52 23.449 1.436 7.19 9.494 12.941 12.083 1.147 2.591-11.794 27.637-47.758 58.42-47.758 28.192 0 37.956 29.073 37.111 53.801-2.307 67.318-89.028 121.04-100.44 154.97-10.164-20.547-83.247-50.248-82.53-114.98zm155.93-110.47c-25.317 0-55.258 18.698-73.381 49.771-4.89-11.222-22.313-23.451-43.024-23.451-16.689 0-63.533 20.858-63.533 88.178 0 86.88 87.901 104.72 105.67 131.73 1.221 1.857 5.154 3.26 6.655-1.177 14.179-41.845 124.12-89.125 124.12-174.28-1e-3 -47.756-31.197-70.771-56.513-70.771z" />
</g>
</svg>