<?xml version="1.0" encoding="UTF-8" standalone="no"?>
<svg
   version="1.0"
   width="125.33"
   height="131.45125"
   viewBox="0 0 263.29832 157.7415"
   id="svg2"
   xmlns:xlink="http://www.w3.org/1999/xlink"
   xmlns="http://www.w3.org/2000/svg"
   xmlns:svg="http://www.w3.org/2000/svg"
   xmlns:rdf="http://www.w3.org/1999/02/22-rdf-syntax-ns#"
   xmlns:cc="http://creativecommons.org/ns#"
   xmlns:dc="http://purl.org/dc/elements/1.1/">
  <metadata
     id="metadata46">
    <rdf:RDF>
      <cc:Work
         rdf:about="">
        <dc:format>image/svg+xml</dc:format>
        <dc:type
           rdf:resource="http://purl.org/dc/dcmitype/StillImage" />
      </cc:Work>
    </rdf:RDF>
  </metadata>
  <defs
     id="defs4">
    <g
       id="s">
      <g
         id="c">
        <path
           id="t"
           d="M 0,-1 V 0 H 0.5"
           transform="rotate(18,0,-1)"
           fill="#fcd116" />
        <use
           xlink:href="#t"
           transform="scale(-1,1)"
           id="use9"
           x="0"
           y="0"
           width="100%"
           height="100%" />
      </g>
      <use
         xlink:href="#c"
         transform="rotate(72)"
         id="use11"
         x="0"
         y="0"
         width="100%"
         height="100%" />
      <use
         xlink:href="#c"
         transform="rotate(144)"
         id="use13"
         x="0"
         y="0"
         width="100%"
         height="100%" />
      <use
         xlink:href="#c"
         transform="rotate(-144)"
         id="use15"
         x="0"
         y="0"
         width="100%"
         height="100%" />
      <use
         xlink:href="#c"
         transform="rotate(-72)"
         id="use17"
         x="0"
         y="0"
         width="100%"
         height="100%" />
    </g>
  </defs>
  <g
     id="g7108">
    <path
       style="fill:#ce1126;fill-opacity:1;stroke-width:0.530046"
       d="M 5.0273109,90.488632 C 43.438981,128.93145 81.900751,167.37319 120.26229,205.81491 163.69046,157.93257 207.11863,110.05023 250.54681,62.167886 244.97908,28.390774 239.41138,-5.3874295 233.84367,-39.16452 211.202,-41.0208 188.55922,-42.875963 165.91754,-44.732233 149.58522,-28.029098 133.25399,-11.32595 116.92166,5.3771835 106.52897,-3.9019605 96.135161,-13.182227 85.742471,-22.461379 66.620711,-15.569662 47.500061,-8.6779445 28.378311,-1.7862275 20.594641,28.972043 12.810981,59.730325 5.0273109,90.488632 Z"
       id="path4-5" />
    <g
       id="g7086">
      <g
         id="g6805"
         transform="matrix(0.83983661,-0.01466834,0,0.83983661,19.836615,-0.41322188)">
        <use
           id="use34-5"
           y="0"
           x="0"
           xlink:href="#s2-1"
           width="100%"
           height="100%"
           transform="translate(-41.820407,151.77663)" />
        <use
           id="use36-8"
           y="0"
           xlink:href="#s2-1"
           x="0"
           width="100%"
           height="100%"
           transform="translate(-1.181312e-7,148.11782)" />
        <use
           id="use38-1"
           y="0"
           x="0"
           xlink:href="#s2-1"
           width="100%"
           height="100%"
           transform="translate(41.820406,144.45901)" />
      </g>
      <g
         id="g6472"
         transform="matrix(0.83983661,-0.02932774,0,0.83983661,19.836615,28.759481)">
        <use
           id="use29-2"
           x="0"
           xlink:href="#s2-1"
           y="0"
           width="100%"
           height="100%"
           transform="translate(-41.820407,3.6588117)" />
        <use
           transform="matrix(11.194951,-0.97943137,0,11.194951,116.14972,7.5234155)"
           xlink:href="#s"
           id="s2-1"
           x="0"
           y="0"
           width="100%"
           height="100%" />
        <use
           id="use32-3"
           x="0"
           xlink:href="#s2-1"
           y="0"
           width="100%"
           height="100%"
           transform="translate(41.820406,-3.6588115)" />
      </g>
      <g
         id="g5621"
         transform="matrix(0.33391655,-0.03509603,0,0.33391655,30.174635,39.12766)">
        <path
           fill="#007a5e"
           d="M 92,42 H 433 V 258 H 92 Z"
           id="path859"
           style="stroke-width:0.905379" />
        <path
           d="M 92,42 H 433 L 92,258 h 341 z"
           fill="#fcd116"
           id="path861"
           style="stroke-width:0.905379" />
        <g
           id="g5357"
           transform="translate(6.2499952)">
          <path
             d="m 125.44391,150.113 c 4.262,8.515 12.757,17.893 20.313,21.321 0.367,-8.513 -2.341,-19.515 -6.224,-28.33 z"
             fill="#ce1126"
             id="path865" />
          <path
             d="m 117.78391,121.487 c 6.35,13.695 -17.533,45.856 21.453,53.976 -4.736,-6.643 -7.33,-17.752 -6.04,-26.456 8.095,3.448 16.212,11.464 19.402,18.972 13.444,-37.484 -26.456,-33.922 -34.815,-46.492 z"
             fill="#fcd116"
             id="path867" />
        </g>
        <g
           id="g5361"
           transform="translate(12.5,-200)">
          <circle
             r="36"
             cy="350"
             cx="250"
             fill="#ce1126"
             id="circle863" />
          <path
             d="m 250,317 -19.397,59.697 50.782,-36.895 h -62.769 l 50.782,36.895 z"
             fill="#fcd116"
             id="path881" />
        </g>
      </g>
    </g>
    <path
       d="m 26.78071,63.805894 c 0.66812,-59.8996965 31.84064,-78.6473 48.8166,-78.647299 23.70732,0 33.49871,18.0984125 35.09887,26.111471 1.59905,8.006364 10.57198,14.410349 13.45495,1.277229 2.88518,-13.13312053 30.77498,-53.180579 65.05317,-53.180579 31.393,0 42.26563,32.3740285 41.32469,59.919736 C 227.90993,94.237905 131.34238,154.06524 118.63129,191.84217 107.31325,169.01231 25.93219,135.92895 26.78071,63.805894 Z M 200.36868,-59.208291 c -28.19156,0 -61.53215,20.821021 -81.71289,55.4221405 C 113.21056,-16.282331 93.8093,-29.899843 70.74672,-29.899843 52.1628,-29.899843 0,-6.6735675 0,68.290145 0,165.03475 97.89155,184.90591 117.66919,214.97602 c 1.35964,2.06785 5.7392,3.63015 7.41063,-1.31063 15.83903,-46.54611 138.2185,-99.2445 138.2185,-194.067137 -10e-4,-53.178357 -34.73919,-78.806544 -62.92964,-78.806544 z"
       id="path8-9"
       style="stroke-width:0.530046" />
  </g>
</svg>
