<?xml version="1.0" encoding="UTF-8" standalone="no"?>
<!-- Created with Inkscape (http://www.inkscape.org/) -->

<svg
   width="125.33"
   height="131.45284"
   viewBox="0 0 33.160228 34.780229"
   version="1.1"
   id="svg1063"
   xmlns:xlink="http://www.w3.org/1999/xlink"
   xmlns="http://www.w3.org/2000/svg"
   xmlns:svg="http://www.w3.org/2000/svg">
  <defs
     id="defs1060">
    <g
       id="b"
       fill="#1eb53a">
      <g
         id="s">
        <g
           id="t">
          <g
             id="c">
            <path
               id="h"
               d="M0,-20V0H20"
               transform="rotate(30,0,-20)" />
            <use
               xlink:href="#h"
               transform="scale(-1,1)"
               id="use11" />
          </g>
          <use
             xlink:href="#c"
             transform="rotate(120)"
             id="use13" />
          <use
             xlink:href="#c"
             transform="rotate(240)"
             id="use15" />
        </g>
        <use
           xlink:href="#t"
           transform="rotate(180)"
           id="use17" />
      </g>
      <use
         xlink:href="#s"
         fill="#ce1126"
         transform="scale(0.82)"
         id="use19" />
    </g>
    <use
       id="star"
       xlink:href="#b"
       x="250"
       y="106" />
    <g
       id="petal">
      <line
         x1="0"
         y1="0"
         x2="25"
         y2="0"
         stroke="gold"
         stroke-width="2"
         id="line7" />
      <circle
         cx="25"
         cy="0"
         r="5"
         fill="gold"
         id="circle9" />
    </g>
    <pattern
       y="0"
       x="0"
       height="6"
       width="6"
       patternUnits="userSpaceOnUse"
       id="EMFhbasepattern" />
    <g
       id="petal-7">
      <line
         x1="0"
         y1="0"
         x2="25"
         y2="0"
         stroke="gold"
         stroke-width="2"
         id="line7-0" />
      <circle
         cx="25"
         cy="0"
         r="5"
         fill="gold"
         id="circle9-1" />
    </g>
    <pattern
       y="0"
       x="0"
       height="6"
       width="6"
       patternUnits="userSpaceOnUse"
       id="EMFhbasepattern-2" />
  </defs>
  <g
     id="layer1">
    <g
       transform="matrix(0.14025209,0,0,0.14025209,-0.13893774,-0.14002957)"
       id="g4357">
      <path
         d="m 9.998,121 200,-14 -101,132 -69,-59"
         fill="#009e49"
         id="path4351" />
      <path
         d="m 28.998,53.997 43,-21 36,25 41,-40 58,-5 19,102 -213,19"
         fill="#fcd116"
         id="path4353" />
      <path
         d="M 28.22,49.116 82.993,34.475 v 174 L 10.125,146 Z"
         fill="#ce1126"
         stroke-width="1.0507"
         id="path4355" />
    </g>
    <g
       transform="matrix(3.5922325,-0.31428882,0,3.5922325,7.4890223,17.641593)"
       id="g4371"
       style="fill:#0b0e0e;fill-opacity:1">
      <g
         id="c-9"
         style="fill:#0b0e0e;fill-opacity:1">
        <path
           id="t-1"
           transform="rotate(18,0,-1)"
           d="M 0,-1 V 0 H 0.5"
           style="fill:#0b0e0e;fill-opacity:1" />
        <use
           transform="scale(-1,1)"
           width="100%"
           height="100%"
           xlink:href="#t-1"
           id="use4360"
           x="0"
           y="0"
           style="fill:#0b0e0e;fill-opacity:1" />
      </g>
      <use
         transform="rotate(72)"
         width="100%"
         height="100%"
         xlink:href="#c-9"
         id="use4363"
         x="0"
         y="0"
         style="fill:#0b0e0e;fill-opacity:1" />
      <use
         transform="rotate(144)"
         width="100%"
         height="100%"
         xlink:href="#c-9"
         id="use4365"
         x="0"
         y="0"
         style="fill:#0b0e0e;fill-opacity:1" />
      <use
         transform="rotate(-144)"
         width="100%"
         height="100%"
         xlink:href="#c-9"
         id="use4367"
         x="0"
         y="0"
         style="fill:#0b0e0e;fill-opacity:1" />
      <use
         transform="rotate(-72)"
         width="100%"
         height="100%"
         xlink:href="#c-9"
         id="use4369"
         x="0"
         y="0"
         style="fill:#0b0e0e;fill-opacity:1" />
    </g>
    <path
       d="m 3.3671895,15.493522 c 0.08415,-7.5445041 4.0104239,-9.9057498 6.1484068,-9.9057498 2.9859367,0 4.2191487,2.2796547 4.4207527,3.2887138 0.201397,1.0084063 1.331566,1.815031 1.694573,0.1608679 0.363243,-1.6536286 3.876614,-6.6983306 8.193375,-6.6980339 3.953607,0 5.323447,4.0774769 5.204769,7.5458393 C 28.705506,19.326879 16.54667,26.85462 14.942145,31.619538 13.51663,28.737445 3.2661649,24.572146 3.3671895,15.492691 Z M 25.236565,1.1867793e-4 C 21.685721,1.1867793e-4 17.486451,2.6224558 14.944666,6.9804577 14.258842,5.40664 11.815278,3.6914473 8.9104872,3.6915956 6.569565,3.6915956 0,6.6168582 0,16.059023 0,28.243982 12.328115,30.746158 14.819758,34.534209 14.990862,34.794648 15.54261,34.99143 15.753145,34.369128 17.74189,28.500356 33.16023,21.869078 33.16023,9.9259252 33.16023,3.2275946 28.784427,1.4834741e-4 25.234176,0 Z"
       stroke-width="0.140252"
       id="path4373" />
  </g>
</svg>
