<?xml version="1.0" encoding="UTF-8" standalone="no"?>
<svg
   width="125.33"
   height="131.4523"
   version="1.1"
   id="svg1211"
   xmlns:xlink="http://www.w3.org/1999/xlink"
   xmlns="http://www.w3.org/2000/svg"
   xmlns:svg="http://www.w3.org/2000/svg">
  <defs
     id="defs1149">
    <style
       id="style1147">.str1{stroke:#000;stroke-width:.46;stroke-miterlimit:22.9256}.fil3{fill:none}</style>
  </defs>
  <path
     d="M 11.387517,34.550014 4.4484673,64.864427 15.073777,90.389342 41.312134,112.16365 56.491605,124.49677 73.40538,103.50057 109.40189,65.873636 117.4251,23.104192 98.777007,3.702374 74.056704,8.9009629 63.214077,20.691315 56.058238,29.991085 49.336082,22.122334 30.904249,16.579003 Z"
     fill="#ce1126"
     fill-rule="evenodd"
     id="path1151"
     style="stroke-width:1.06009" />
  <g
     transform="matrix(0.27057808,0,0,0.27057808,2.5887466,60.359036)"
     id="g1175">
    <g
       transform="translate(-104.24,-94.703)"
       id="g1173">
      <path
         class="str1"
         d="M 305.75,27.34 C 286.67,19.45 274.99,18 261.94,17.87 c -18.9,0.13 -27.92,8.25 -45.94,9 7.14,7.69 33.02,9.57 43.93,-0.53 16.22,1.69 19.9,6.07 24.25,11.52 -6.77,-1.07 -14.57,-3.02 -21.04,4.14 -5.46,1.1 -7.99,0 -17.33,0 -4.36,0 -5.87,2.14 -5.81,6 2.82,-3.9 22.31,-1.6 27.09,0 3.67,1.23 7.57,6.32 12.22,7.15 12.19,2.17 29.68,-4.2 45.81,-8.54 L 360,42 H 336.07 L 366,36 h -32.54 c -0.69,-0.79 -2.34,-1.81 -3.66,-2.68 8.37,-5.39 15.77,-15.19 17.66,-19.92 15.09,-0.15 24.83,-1.55 36.54,-4.29 -77.18,-8.54 -59.61,0.67 -78.25,18.23 z"
         fill="#f8d000"
         id="path1153" />
      <path
         d="m 270.06,39.89 c 0.83,0 1.5,0.67 1.5,1.5 0,0.83 -0.67,1.5 -1.5,1.5 -0.82,0 -1.5,-0.67 -1.5,-1.5 0,-0.83 0.68,-1.5 1.5,-1.5 z"
         id="path1155" />
      <path
         d="m 270.06,39.89 c 0.83,0 1.5,0.67 1.5,1.5 0,0.83 -0.67,1.5 -1.5,1.5 -0.82,0 -1.5,-0.67 -1.5,-1.5 0,-0.83 0.68,-1.5 1.5,-1.5 z"
         fill="none"
         stroke="#000000"
         stroke-miterlimit="22.926"
         stroke-width="0.15"
         id="path1157" />
      <path
         class="fil3 str1"
         d="m 290.13,38.29 c 0,0 -6.27,3.71 -10.43,3.71 m 45.42,4.61 c 0,0 5.73,-4.61 10.95,-4.61 M 233.82,24.6 c 0,0 4.66,-2.44 6.86,-3.09 m 12.45,-0.39 c 0,0 7.39,-3.19 15.62,-3.03 m 4.36,3.81 c 0,0 9.69,-1.63 18.64,0.36 m -7.5,1.98 c 0,0 8.04,-1.35 15.75,0.83 m -7.48,1.62 c 0,0 8.19,0.11 12.26,1.69 M 216,26.87 c 0,0 11.49,3.14 20.83,-1.35"
         id="path1159" />
      <path
         class="fil3 str1"
         d="m 217.46,28.23 c 0,0 14.92,3.68 21.74,-3.15"
         id="path1161" />
      <path
         class="fil3 str1"
         d="m 222.46,30.81 c 0,0 11.24,3.62 20.08,-5.72 m -9.64,7.99 c 0,0 9.08,-2.6 12.52,-7.95 m -5.42,8.1 c 0,0 6.09,-4.22 8.28,-7.98 m 70.18,3.22 c 0,0 2.38,2.99 11.34,4.85 m -9.76,-6.26 c 0,0 3.85,3.85 11.87,4.79 m -9.93,-6.6 c 0,0 3.91,3.36 12.42,4.61 m -10.49,-6.54 c 0,0 5.98,3.99 12.79,4.45 M 326.27,20.8 c 0,0 4.19,3.91 12.5,4.88 m -10.74,-6.89 c 0,0 4.91,4.22 12.63,4.8 m -10.9,-6.9 c 0,0 3.01,3.48 12.94,4.39 m -11.18,-6.66 c 0,0 3.35,3.68 12.78,4.48 m -11.41,-6.35 c 0,0 5.9,4.45 12.73,4.36 m -11.56,-6.06 c 0,0 7.8,4.68 12.45,4.53 M 335.48,8.69 c 0,0 6.2,3.86 11.98,4.71 m -38.62,16.98 c 0,0 2.5,1.89 4.84,1.81 m -3.4,-3.21 c 0,0 2.17,1.85 5.15,1.84 m -3.4,-3.56 c 0,0 2.46,2.3 5.41,1.88 m -3.75,-3.54 c 0,0 2.94,2 5.57,1.94 m -3.73,-3.83 c 0,0 2.18,1.89 5.63,2.07 m -3.99,-4.15 c 0,0 2.56,2.27 5.82,2.35 m -4.09,-3.85 c 0,0 2.48,1.59 5.99,1.89 m -4.42,-3.64 c 0,0 3.35,1.18 6.42,1.47 m -4.61,-3.61 c 0,0 2.31,1.62 6.41,1.52 m -4.78,-3.66 c 0,0 2.74,1.82 6.26,1.86 m -5.06,-3.89 c 0,0 3.68,2.06 6.85,1.6 m -5.51,-4.03 c 0,0 2.33,2.55 6.67,2.46 m -5.73,-3.56 c 0,0 4.18,2.35 7.01,1.75 m -5.24,-3.08 c 0,0 3.17,1.93 6.07,1.85 m -2.85,-2.82 c 0,0 5.65,2.88 13.29,-0.24 m -8.48,2.29 c 0,0 11.42,2.62 16.37,-1.96"
         id="path1163" />
      <path
         class="fil3 str1"
         d="m 346.15,8.97 c 0,0 7.85,0.82 16.63,-1.96"
         id="path1165" />
      <path
         class="fil3 str1"
         d="m 351.37,9.02 c 0,0 11.92,2.4 32.63,0.09 M 243.24,32.96 c 0,0 5.33,-3.51 7.54,-7.55 m -3.55,6.9 c 0,0 4.29,-4.16 5.54,-6.74 m -1.58,5.67 c 0,0 3.53,-3.17 4.31,-5.39"
         id="path1167" />
      <path
         class="fil3 str1"
         d="m 233.95,25.66 c 0,0 7.66,-1.67 25.98,0.68 m -18.9,-3.74 c 0,0 6.42,-3.11 12.14,-4.06 m -5.76,2.77 c 0,0 4.69,-2.21 11.61,-3.31 m -0.95,2.89 c 0,0 6.49,-2.77 14.43,-2.51 m -6.22,2.56 c 0,0 8.9,-1.99 17.1,-0.87 m 6.73,5.22 c 0,0 6.79,-0.31 14.6,1.63 M 278.5,22.56 c 0,0 9.73,-0.52 16.4,0.71 m 43.77,-14.7 c 0,0 3.36,2.91 12.72,4.76 m -7.44,-4.29 c 0,0 5.26,2.99 13.56,4.03 m -8.04,-3.99 c 0,0 7.38,3.21 15.18,3.41 m -7.01,-2.71 c 0,0 7.52,1.81 16.84,1.32 m -112.07,9.68 c 0,0 5.1,-2.1 14.14,-1.93 m 19.49,9.57 c 0,0 3.06,-0.37 6.86,1.44"
         id="path1169" />
      <path
         class="fil3 str1"
         d="m 284.18,37.86 c 2.11,0.33 4.12,0.58 5.95,0.43 7.16,-3.91 12.05,-7.58 15.62,-10.95"
         id="path1171" />
    </g>
  </g>
  <g
     transform="matrix(0.22757011,-0.03580463,0,0.22757011,-13.927499,47.468304)"
     fill="#f8d000"
     stroke="#000000"
     stroke-miterlimit="22.926"
     stroke-width="0.46"
     id="g1193">
    <g
       id="rays_6-4">
      <g
         id="rays_2-1"
         transform="rotate(-84.706,300,156)">
        <path
           transform="rotate(13.4,300,156)"
           d="M 290.63,105.87 A 50,50 0 0 1 300,66 a 50,50 0 0 0 9.37,39.87"
           id="path1177" />
        <path
           d="M 290.63,105.87 300,63 l 9.37,42.87"
           id="path1179" />
      </g>
      <use
         transform="rotate(21.18,300,156)"
         width="100%"
         height="100%"
         xlink:href="#rays_2-1"
         id="use1182"
         x="0"
         y="0" />
      <use
         transform="rotate(42.35,300,156)"
         width="100%"
         height="100%"
         xlink:href="#rays_2-1"
         id="use1184"
         x="0"
         y="0" />
    </g>
    <use
       transform="rotate(63.53,300,156)"
       width="100%"
       height="100%"
       xlink:href="#rays_6-4"
       id="use1187"
       x="0"
       y="0" />
    <use
       transform="rotate(127.06,300,156)"
       width="100%"
       height="100%"
       xlink:href="#rays_6-4"
       id="use1189"
       x="0"
       y="0" />
    <circle
       cx="300"
       cy="156"
       r="51"
       id="circle1191" />
  </g>
  <path
     d="M 8.8024802,80.646685 34.824048,109.95189 55.95276,125.00627 C 63.325174,116.17251 70.813669,107.43523 78.415594,98.798655 85.724931,90.494947 93.139221,82.283467 100.65634,74.1674 88.036463,74.667103 75.42825,75.473486 62.847068,76.58563 50.73339,77.656429 38.645152,79.010698 26.595078,80.646896 Z"
     fill="#183070"
     fill-rule="evenodd"
     id="path1195"
     style="stroke-width:0.530046" />
  <g
     fill="#ffffff"
     id="g1203"
     transform="matrix(0.53004639,0,0,0.53004639,-0.53852713,-70.464239)"
     style="fill:#f9f9f9;fill-opacity:1">
    <path
       d="m 59.791,336.92 c 4.1944,-1.622 8.3889,-2.9825 12.583,-3.3494 11.387,-0.9962 22.773,5.3292 34.16,4.333 11.387,-0.9962 22.773,-9.314 34.16,-10.31 l 12.826,-11.002 c -4.2752,-0.91517 -8.5504,-1.5732 -12.826,-1.1992 -11.387,0.9962 -22.773,9.314 -34.16,10.31 -11.387,0.99621 -22.773,-5.3292 -34.16,-4.333 -5.3823,0.47089 -10.765,2.5777 -16.147,4.7738 z"
       id="path1197"
       style="fill:#f9f9f9;fill-opacity:1" />
    <path
       d="m 38.215,319.48 c 11.387,-0.9962 22.773,-9.314 34.16,-10.31 11.387,-0.9962 22.773,5.3292 34.16,4.333 11.387,-0.9962 22.773,-9.314 34.16,-10.31 11.387,-0.996 22.773,5.3292 34.16,4.333 v -12.201 c -11.387,0.99621 -22.773,-5.3292 -34.16,-4.333 -11.387,0.9962 -22.773,9.314 -34.16,10.31 -11.387,0.99621 -22.773,-5.3292 -34.16,-4.333 -11.387,0.9962 -22.773,9.314 -34.16,10.31 z"
       id="path1199"
       style="fill:#f9f9f9;fill-opacity:1" />
    <path
       d="m 22.454,293.22 c 5.2535,1.2193 10.507,2.3182 15.76,1.8586 11.387,-0.9962 22.773,-9.314 34.16,-10.31 11.387,-0.9962 22.773,5.3292 34.16,4.333 11.387,-0.9962 22.773,-9.314 34.16,-10.31 11.387,-0.996 22.773,5.3292 34.16,4.333 11.387,-0.9962 22.773,-9.314 34.16,-10.31 v -12.201 c -11.387,0.9962 -22.773,9.314 -34.16,10.31 -11.387,0.99621 -22.773,-5.3292 -34.16,-4.333 -11.387,0.9962 -22.773,9.314 -34.16,10.31 -11.387,0.99621 -22.773,-5.3292 -34.16,-4.333 -11.387,0.9962 -22.773,9.314 -34.16,10.31 -5.0371,0.44069 -10.074,-0.55139 -15.111,-1.7086 z"
       id="path1201"
       style="fill:#f9f9f9;fill-opacity:1" />
  </g>
  <path
     d="m 12.723234,58.556878 c 0.318028,-28.512258 15.156146,-37.43612 23.237233,-37.43612 11.284688,0 15.945916,8.614844 16.707061,12.428528 0.76115,3.811034 5.032264,6.85933 6.40455,0.607963 1.373354,-6.251367 14.648365,-25.313955 30.965311,-25.313955 14.943061,0 20.118441,15.409508 19.671081,28.516496 -1.22282,35.681664 -47.188969,64.15894 -53.239976,82.14129 C 51.081101,108.60969 12.34319,92.867307 12.723764,58.556347 Z M 95.374429,0.00159014 c -13.418654,0 -29.289303,9.91080766 -38.894808,26.38146886 C 53.887694,20.434878 44.653228,13.952411 33.674908,13.952411 24.828963,13.952411 0,25.008119 0,60.690845 c 0,46.050425 46.591078,55.508575 56.01106,69.821945 0.647188,0.9843 2.731863,1.72796 3.527461,-0.62386 C 67.054048,107.70967 125.33,82.649078 125.33,37.512443 125.32947,12.199548 108.79467,0 95.376017,0 Z"
     stroke-width="0.530046"
     id="path1207" />
</svg>
