<?xml version="1.0" encoding="UTF-8" standalone="no"?>
<svg
   width="125.33"
   height="131.45123"
   id="svg2"
   version="1.1"
   xmlns:xlink="http://www.w3.org/1999/xlink"
   xmlns="http://www.w3.org/2000/svg"
   xmlns:svg="http://www.w3.org/2000/svg"
   xmlns:rdf="http://www.w3.org/1999/02/22-rdf-syntax-ns#"
   xmlns:cc="http://creativecommons.org/ns#"
   xmlns:dc="http://purl.org/dc/elements/1.1/">
  <metadata
     id="metadata16">
    <rdf:RDF>
      <cc:Work
         rdf:about="">
        <dc:format>image/svg+xml</dc:format>
        <dc:type
           rdf:resource="http://purl.org/dc/dcmitype/StillImage" />
      </cc:Work>
    </rdf:RDF>
  </metadata>
  <defs
     id="defs14">
    <clipPath
       id="c">
      <path
         style="fill:#000000"
         d="M 0,0 V 475 L 420,280 H 900 V 195 H 420 Z"
         id="path5" />
    </clipPath>
  </defs>
  <path
     style="fill:#009543;fill-opacity:1;stroke-width:0.530046"
     d="M 4.7704175,63.605562 110.7797,56.184913 57.245011,126.15104 20.671809,94.878299 Z"
     id="path4" />
  <path
     style="fill:#d21034;fill-opacity:1;stroke-width:0.530046"
     d="M 14.841299,28.092456 37.633294,16.961485 56.714964,30.212642 78.446866,9.0107887 109.18956,6.3605551 119.26044,60.425284 6.3605567,70.49617 Z"
     id="path6" />
  <path
     id="path913"
     style="fill:#0b0e0e;fill-opacity:1;stroke:none;stroke-width:0.530046px;stroke-linecap:butt;stroke-linejoin:miter;stroke-opacity:1"
     d="m 17.555716,26.766563 -2.714417,1.326151 -2.009414,7.085229 -1.57254,-1.033176 -6.1307322,36.940714 14.6187212,26.260073 1.995956,-1.550799 7.745717,6.623505 35.561764,-27.841925 37.755449,-3.302438 9.15987,-11.032624 v -8.706429 l -46.915319,4.103718 z" />
  <path
     id="path930"
     style="color:#000000;font-style:normal;font-variant:normal;font-weight:normal;font-stretch:normal;font-size:medium;line-height:normal;font-family:sans-serif;font-variant-ligatures:normal;font-variant-position:normal;font-variant-caps:normal;font-variant-numeric:normal;font-variant-alternates:normal;font-variant-east-asian:normal;font-feature-settings:normal;font-variation-settings:normal;text-indent:0;text-align:start;text-decoration:none;text-decoration-line:none;text-decoration-style:solid;text-decoration-color:#000000;letter-spacing:normal;word-spacing:normal;text-transform:none;writing-mode:lr-tb;direction:ltr;text-orientation:mixed;dominant-baseline:auto;baseline-shift:baseline;text-anchor:start;white-space:normal;shape-padding:0;shape-margin:0;inline-size:0;clip-rule:nonzero;display:inline;overflow:visible;visibility:visible;opacity:1;isolation:auto;mix-blend-mode:normal;color-interpolation:sRGB;color-interpolation-filters:linearRGB;solid-color:#000000;solid-opacity:1;vector-effect:none;fill:#fdce12;fill-opacity:1;fill-rule:nonzero;stroke:none;stroke-width:5.57079;stroke-linecap:butt;stroke-linejoin:miter;stroke-miterlimit:4;stroke-dasharray:none;stroke-dashoffset:0;stroke-opacity:1;color-rendering:auto;image-rendering:auto;shape-rendering:auto;text-rendering:auto;enable-background:accumulate;stop-color:#000000;stop-opacity:1"
     d="m 13.591756,32.496838 -1.640866,5.787723 45.252713,27.510336 -36.707785,28.737595 0.175991,0.345903 3.846977,3.289908 38.436648,-30.091816 45.834516,-4.010002 3.17614,-3.825663 v -2.022869 l -49.010656,4.287874 z" />
  <g
     id="g861"
     style="opacity:1"
     transform="matrix(0.1504056,-0.01315878,0,0.1504056,9.3495853,27.115572)">
    <path
       d="m 115.481,339.524 c 0,0 0,20.595 0,32.476 28.253,0 83.7,-21.65 83.7,-91.356 C 199.181,210.938 140.037,198 122.346,198 104.656,198 50,210.674 50,267.706 c 0,57.032 53.6,62.313 64.161,62.313 10.561,0 50.167,-9.506 45.679,-52.28 0,12.146 -13.73,37.758 -42.511,37.758 -28.78,0 -46.734,-21.388 -46.734,-42.51 0,-21.124 17.426,-49.376 47.79,-49.376 30.364,0 52.543,26.931 52.543,54.128 0,27.196 -21.386,61.785 -55.447,61.785 z"
       fill="#fdce12"
       id="path16" />
    <g
       id="frond"
       fill="#fdce12">
      <path
         d="m 90.728,297.245 1.683,1.089 c 0,0 13.367,-30.496 49.309,-52.18 -4.555,2.475 -28.615,14.456 -50.992,51.091 z"
         stroke="#fdce12"
         id="path18" />
      <path
         d="m 94.193,291.997 c 0,0 -4.158,-8.515 -0.495,-12.277 3.664,-3.763 1.981,10 1.981,10 l 1.584,-2.277 c 0,0 -2.476,-10.397 0.297,-12.575 2.772,-2.178 1.386,10 1.386,10 l 1.683,-2.178 c 0,0 -1.782,-10.099 0.891,-11.981 2.674,-1.881 0.991,9.506 0.991,9.506 l 1.98,-2.278 c 0,0 -1.485,-9.604 1.782,-11.881 3.268,-2.278 0.396,9.109 0.396,9.109 l 2.178,-2.376 c 0,0 -0.99,-8.813 1.783,-10.793 2.772,-1.98 0.396,8.317 0.396,8.317 l 1.98,-2.079 c 0,0 -0.594,-8.218 2.079,-10.099 2.674,-1.882 0.198,7.822 0.198,7.822 l 2.08,-1.981 c 0,0 -0.495,-8.218 2.871,-9.802 3.366,-1.584 -0.594,7.723 -0.594,7.723 l 2.277,-1.98 c 0,0 0.693,-9.604 3.565,-10.496 2.871,-0.891 -1.287,8.516 -1.287,8.516 l 2.079,-1.684 c 0,0 1.089,-8.218 4.257,-9.208 3.169,-0.99 -1.98,7.525 -1.98,7.525 l 2.079,-1.584 c 0,0 2.278,-8.218 5.248,-9.109 2.971,-0.891 -3.069,7.723 -3.069,7.723 l 1.98,-1.386 c 0,0 3.267,-7.427 5.941,-7.922 2.673,-0.495 -2.971,6.139 -2.971,6.139 l 2.476,-1.485 c 0,0 4.257,-7.723 5.743,-5.347 1.485,2.377 -5.941,5.842 -5.941,5.842 l -2.476,1.386 c 0,0 9.011,-4.257 10.1,-2.079 1.089,2.178 -12.377,3.565 -12.377,3.565 l -2.178,1.485 c 0,0 9.01,-2.476 7.921,-0.198 -1.089,2.277 -10,1.782 -10,1.782 l -2.08,1.485 c 0,0 9.01,-2.178 7.822,-0.099 -1.188,2.079 -10,1.881 -10,1.881 l -2.178,1.783 c 0,0 8.812,-2.278 7.525,0.396 -1.288,2.673 -11.288,2.574 -11.288,2.574 l -2.475,2.277 c 0,0 9.307,-3.168 8.515,-0.693 -0.792,2.476 -11.387,3.763 -11.387,3.763 l -2.376,2.376 c 0,0 10,-3.366 7.03,-0.297 -2.97,3.07 -10.198,3.862 -10.198,3.862 l -2.872,3.465 c 0,0 9.902,-5.941 8.515,-2.574 -1.386,3.366 -11.089,5.644 -11.089,5.644 l -1.98,2.376 c 0,0 8.911,-5.149 8.02,-2.277 -0.891,2.871 -10.397,5.94 -10.397,5.94 l -1.584,2.179 c 0,0 10.495,-6.238 9.604,-3.07 -0.891,3.169 -10.891,5.446 -10.891,5.446 l -1.287,1.98 c 0,0 9.703,-5.544 9.802,-2.871 0.099,2.673 -11.387,5.347 -11.387,5.347 z"
         id="path20" />
    </g>
    <use
       xlink:href="#frond"
       transform="matrix(-1,0,0,1,238.5,0)"
       id="use23"
       x="0"
       y="0"
       width="100%"
       height="100%" />
  </g>
  <path
     d="M 12.723764,58.554755 C 13.041792,30.042496 27.87991,21.118636 35.960468,21.118636 c 11.284687,-10e-7 15.945385,8.614844 16.707062,12.429057 0.761147,3.811034 5.03226,6.859331 6.404551,0.607964 1.37335,-6.251367 14.648892,-25.3139531 30.96531,-25.3139531 14.943069,0 20.118439,15.4100361 19.670549,28.5170231 C 108.48513,73.040388 62.518972,101.51819 56.468493,119.50002 51.081101,108.60915 12.34372,92.866243 12.723764,58.554755 Z M 95.375488,0 C 81.956304,0 66.086184,9.910807 56.480154,26.380936 53.888227,20.432758 44.653228,13.950821 33.675438,13.950821 24.829493,13.950821 0,25.006526 0,60.689247 c 0,46.050433 46.591608,55.509113 56.010533,69.822483 0.647186,0.98429 2.731859,1.72795 3.527458,-0.62387 C 67.053519,107.70808 125.33,82.647479 125.33,37.511911 125.32947,12.199017 108.79414,0 95.375488,0 Z"
     id="path10"
     style="opacity:1;stroke-width:0.530046" />
</svg>
