<?xml version="1.0" encoding="UTF-8" standalone="no"?>
<svg
   width="125.33"
   height="131.4429"
   fill="#ffd300"
   version="1.1"
   id="svg30073"
   xmlns="http://www.w3.org/2000/svg"
   xmlns:svg="http://www.w3.org/2000/svg">
  <defs
     id="defs30077" />
  <g
     id="g35311">
    <g
       id="g35299">
      <path
         class="cls-3"
         d="m 91.910142,7.3210734 c -4.187,-0.178 -11.137,1.24 -14.777,3.2199996 l 0.461,84.222004 c 14.48,-15.36 13.277,-13.236 26.186998,-29.864 11.713,-15.086 11.875,-56.5680036 -11.870998,-57.5780036 z"
         id="path1"
         style="fill:#da2031;fill-opacity:1" />
      <path
         class="cls-2"
         d="m 41.079142,18.225073 c -8.08,0 -27.612999,4.431 -31.8859995,32.621004 -2.765,18.239 6.4650005,38.739 34.4549995,57.569003 l 0.615,-86.297007 c -2.06,-0.9 -0.304,-3.893 -3.184,-3.893 z"
         id="path3"
         style="fill:#da2031;fill-opacity:1" />
      <path
         class="cls-1"
         d="m 56.146142,33.380073 c -0.839,1.432 -0.715,1.507 -1.629,0.16 -1.626,-2.398 -5.147,-9.34 -11.167,-11.96 v 86.450007 c 6.21,4.96 11.698,11.962 13.428,15.462 2.48,-7.37 11.372,-19.512 21.432,-30.192003 V 11.080073 c -10.53,5.72 -19.663,18.201 -22.064,22.3 z"
         id="path2"
         style="fill:#0066b2;fill-opacity:1" />
      <g
         transform="matrix(0.01988636,-0.00200245,0,0.01988636,47.140051,38.745988)"
         id="g34375"
         style="fill:#ffd300;fill-opacity:1">
        <path
           d="m -1239.998,1080 h 200 v 960 h -200 z m 680,0 h 200 v 960 h -200 z m -440,840 200,120 200,-120 z m 0,-120 h 400 v 80 h -400 z m 0,-720 200,120 200,-120 z m 0,160 h 400 v 80 h -400 z M -705,1384.216 a 118.04,118.04 0 0 1 22.968,69.768 c 0.03,65.176 -52.796,118.028 -117.968,118.044 a 94,94 0 0 0 -93.988,93.988 A 94,94 0 0 0 -800,1760 c 110.452,0 200,-89.544 200,-200 0,-73.424 -40.392,-140.908 -105,-175.784 z m -95,241.8 a 40,40 0 0 1 40,40 40,40 0 0 1 -40,40 40,40 0 0 1 -40,-40 40,40 0 0 1 40,-40 z"
           id="path34367"
           style="fill:#ffd300;fill-opacity:1" />
        <path
           d="m -895,1735.784 a 118.04,118.04 0 0 1 -22.968,-69.768 c -0.03,-65.176 52.796,-118.028 117.968,-118.044 a 94,94 0 0 0 93.988,-93.988 A 94,94 0 0 0 -800,1360 c -110.452,0 -200,89.544 -200,200 0,73.424 40.392,140.908 105,175.784 z m 95,-241.8 a 40,40 0 0 1 -40,-40 40,40 0 0 1 40,-40 40,40 0 0 1 40,40 40,40 0 0 1 -40,40 z M -1019.602,815.62 a 220,220 0 0 0 -0.4,4.38 220,220 0 0 0 220,220 220,220 0 0 0 220,-220 220,220 0 0 0 0,-4 240,240 0 0 1 -219.844,143.984 240,240 0 0 1 -219.764,-144.376 z"
           id="path34369"
           style="fill:#ffd300;fill-opacity:1" />
        <circle
           cx="-799.83502"
           cy="759.99701"
           r="160"
           id="circle34371"
           style="fill:#ffd300;fill-opacity:1" />
        <path
           d="m -783.186,240.05 c -19.88,9.02 -27.308,25.284 -28.908,41.484 -1,13.64 5.02,29.004 5.62,42.344 0,22.956 -23.752,30.516 -23.752,63.28 0,11.26 10.4,23.668 10.4,52.892 -1.8,15.34 -10.36,18.8 -20,20 a 20,20 0 0 1 -20,-20 20,20 0 0 1 5.54,-13.76 20,20 0 0 1 2.04,-2 c 4.56,-4.6 10.82,-6.38 10.78,-18.52 0,-6.24 -4.04,-11.92 -7.9,-22.968 -3.64,-10.72 -1,-28.64 7.66,-39.22 -14,5.4 -22.628,18.82 -27.028,30.86 -4.64,14.8 -0.6,23.324 -6.96,35.624 -3.88,7.96 -8.5,11.26 -12.88,17.9 -5.18,7.24 -11.26,24.172 -11.26,32.032 a 100,100 0 0 0 100,100 100,100 0 0 0 100,-100 c 0,-7.86 -6,-24.792 -11.18,-32.032 -4.38,-6.64 -9.08,-9.94 -12.96,-17.9 -6.28,-12.3 -2.24,-20.824 -6.88,-35.624 -4.4,-12.04 -13.04,-25.456 -27.032,-30.86 8.66,10.58 11.3,28.5 7.66,39.22 -3.88,11.04 -7.96,16.72 -7.96,22.968 0,12.14 6.22,13.92 10.78,18.52 a 20,20 0 0 1 2.04,2 20,20 0 0 1 5.54,13.76 20,20 0 0 1 -20,20 c -11.06,-1.4 -19,-6.56 -20,-20 0,-38.504 16.48,-40.96 16.48,-69.452 0,-40.684 -36.484,-59.944 -36.484,-89.688 0,-10.08 2.36,-27.26 16.64,-40.86 z"
           id="path34373"
           style="fill:#ffd300;fill-opacity:1" />
      </g>
    </g>
    <path
       d="M 95.36,0 C 81.94,0 66.07,9.91 56.47,26.38 53.88,20.43 44.64,13.95 33.67,13.95 24.83,13.95 0,25 0,60.68 c 0,46.05 46.59,55.51 56.01,69.82 0.65,0.99 2.73,1.73 3.53,-0.62 C 67.05,107.7 125.33,82.64 125.33,37.51 125.33,12.2 108.8,0 95.38,0 Z m 14.33,37.36 C 108.97,58.41 92.68,76.95 78.2,92.3 68.13,102.98 58.94,112.12 56.46,119.49 54.73,115.99 49.55,111.99 43.34,107.03 30.22,96.56 12.46,81.83 12.72,58.54 13.04,30.03 27.88,21.11 35.95,21.11 c 2.88,0 5.33,0.57 7.39,1.47 6.02,2.62 8.75,8.12 9.32,10.96 0.76,3.81 5.03,6.86 6.4,0.61 1.02,-4.64 8.61,-16.35 19.14,-22.07 3.64,-1.98 7.63,-3.24 11.82,-3.24 14.94,0 20.12,15.41 19.67,28.52 z"
       id="path4"
       style="fill:#000000;fill-opacity:1" />
  </g>
</svg>
