<?xml version="1.0" encoding="UTF-8" standalone="no"?>
<svg
   width="125.33"
   height="131.44955"
   version="1.1"
   viewBox="0 0 117.49534 123.23241"
   id="svg15767"
   xmlns:xlink="http://www.w3.org/1999/xlink"
   xmlns="http://www.w3.org/2000/svg"
   xmlns:svg="http://www.w3.org/2000/svg"
   xmlns:rdf="http://www.w3.org/1999/02/22-rdf-syntax-ns#"
   xmlns:cc="http://creativecommons.org/ns#"
   xmlns:dc="http://purl.org/dc/elements/1.1/">
  <defs
     id="defs15771" />
  <metadata
     id="metadata15737">
    <rdf:RDF>
      <cc:Work
         rdf:about="">
        <dc:format>image/svg+xml</dc:format>
        <dc:type
           rdf:resource="http://purl.org/dc/dcmitype/StillImage" />
      </cc:Work>
    </rdf:RDF>
  </metadata>
  <path
     d="M 4.4736241,59.628446 103.85437,52.671794 53.667092,118.26308 19.380736,88.945765 Z"
     fill="#ce1126"
     id="path15739"
     style="stroke-width:0.496904" />
  <path
     d="M 13.914795,25.745575 35.281654,15.612715 53.170188,27.675549 73.54324,8.3753121 102.36366,5.9627452 111.80483,55.17907 5.9643353,64.346944 Z"
     fill="#0038a8"
     stroke-width="0.489654"
     id="path15741" />
  <path
     d="M 60.305725,59.6036 14.475302,25.595013 2.4343313,61.099777 26.946095,91.144564 Z"
     fill="#ffffff"
     stroke-width="0.545799"
     id="path15743"
     style="fill:#f9f9f9;fill-opacity:1" />
  <path
     id="s"
     d="m 55.495697,59.240861 -1.943638,0.976415 0.239815,2.161333 -1.528923,-1.546861 -1.981751,0.896315 0.998677,-1.932211 -1.464723,-1.607881 2.146177,0.352837 1.076442,-1.889824 0.327748,2.149704 z"
     fill="#fcd116"
     stroke-width="0.607465" />
  <use
     transform="rotate(120,33.290561,63.708025)"
     width="100%"
     height="100%"
     xlink:href="#s"
     id="use15748"
     x="0"
     y="0" />
  <use
     transform="rotate(-120,29.67658,59.181232)"
     width="100%"
     height="100%"
     xlink:href="#s"
     id="use15750"
     x="0"
     y="0" />
  <path
     d="m 11.929664,54.892953 c 0.298143,-26.729444 14.208465,-35.095315 21.783762,-35.095315 10.57908,0 14.948355,8.076176 15.662405,11.651895 0.713554,3.572738 4.717604,6.430431 6.004088,0.569948 1.287477,-5.860482 13.732928,-23.7311271 29.029115,-23.7311271 14.008709,0 18.860476,14.4464821 18.440596,26.7339171 C 101.70327,68.472835 58.611284,95.167496 52.940618,112.02744 47.890089,101.81756 11.574875,87.059021 11.931155,54.89345 Z M 89.41186,0 C 76.831749,0 61.953955,9.2911056 52.948569,24.731395 50.51871,19.155141 41.861156,13.078506 31.569784,13.078506 23.276958,13.078506 0,23.442923 0,56.894481 c 0,43.170999 43.678333,52.035759 52.507815,65.457129 0.60672,0.92275 2.561042,1.6199 3.306895,-0.58486 7.045597,-20.79293 61.68066,-44.286542 61.68066,-86.600377 C 117.49487,11.436239 101.99346,0 89.413848,0 Z"
     id="path15752"
     style="stroke-width:0.496904" />
  <g
     transform="matrix(2.2811856,-0.11955503,0.11955503,2.2811856,76.310994,108.0865)"
     fill="#fcd116"
     id="g15765">
    <circle
       cx="-18.622"
       cy="-21.750999"
       r="2.71"
       stroke-width="0.30111"
       id="circle15754" />
    <g
       id="c"
       transform="matrix(0.30111,0,0,0.30111,-18.622,-21.751)"
       fill="#fcd116">
      <g
         id="b">
        <path
           id="a"
           d="m 0,0 -3.164,-15.909 0.945,-0.946 z M 0,0 -1.169,-17.831 0,-19 l 1.169,1.169 z m 0,0 2.219,-16.855 0.945,0.946 z"
           fill="#fcd116" />
        <use
           transform="scale(-1)"
           width="100%"
           height="100%"
           fill="#fcd116"
           xlink:href="#a"
           id="use15757"
           x="0"
           y="0" />
      </g>
      <use
         transform="rotate(90)"
         width="100%"
         height="100%"
         fill="#fcd116"
         xlink:href="#b"
         id="use15760"
         x="0"
         y="0" />
    </g>
    <use
       transform="rotate(45,-18.622,-21.751)"
       width="100%"
       height="100%"
       xlink:href="#c"
       id="use15763"
       x="0"
       y="0" />
  </g>
</svg>
