<?xml version="1.0" encoding="UTF-8" standalone="no"?>
<svg
   width="125.33"
   height="131.45125"
   xml:space="preserve"
   id="svg2"
   version="1.1"
   xmlns="http://www.w3.org/2000/svg"
   xmlns:svg="http://www.w3.org/2000/svg"
   xmlns:rdf="http://www.w3.org/1999/02/22-rdf-syntax-ns#"
   xmlns:cc="http://creativecommons.org/ns#"
   xmlns:dc="http://purl.org/dc/elements/1.1/"><metadata
     id="metadata39"><rdf:RDF><cc:Work
         rdf:about=""><dc:format>image/svg+xml</dc:format><dc:type
           rdf:resource="http://purl.org/dc/dcmitype/StillImage" /></cc:Work></rdf:RDF></metadata><defs
     id="defs4"><g
       id="petal"><line
         x1="0"
         y1="0"
         x2="25"
         y2="0"
         stroke="#ffd700"
         stroke-width="2"
         id="line7" /><circle
         cx="25"
         cy="0"
         r="5"
         fill="#ffd700"
         id="circle9" /></g><pattern
       y="0"
       x="0"
       height="6"
       width="6"
       patternUnits="userSpaceOnUse"
       id="EMFhbasepattern" /></defs><path
     style="fill:#01411c;fill-opacity:1;fill-rule:evenodd;stroke:none;stroke-width:0.530046px;stroke-linecap:butt;stroke-linejoin:miter;stroke-opacity:1"
     d="M 6.1944837,47.25221 9.5567487,77.512596 39.480908,112.14393 57.637139,123.91186 77.810731,100.71223 107.06244,72.469199 117.14923,47.924665 111.43338,9.931068 86.888846,5.5601231 68.396386,15.646919 54.947328,31.449564 45.196759,19.681637 23.342036,20.35409 Z"
     id="path4164" /><ellipse
     id="circle10"
     cx="68.400368"
     cy="68.450508"
     style="fill:#f9f9f9;fill-opacity:1;stroke-width:0.530046"
     transform="matrix(0.9961947,-0.08715574,0,1,0,0)"
     rx="23.89032"
     ry="23.79941" /><ellipse
     cx="14.197885"
     cy="92.316292"
     transform="matrix(0.71550728,-0.69860528,0.69397111,0.72000285,0,0)"
     id="circle12"
     style="fill:#01411c;stroke-width:0.530046"
     rx="22.78883"
     ry="20.885374" /><polygon
     points="488533,-158734 -301930,415571 0,-513674 301930,415571 -488533,-158734 "
     transform="matrix(1.4148604e-5,-7.4290815e-6,6.1912392e-6,1.3606941e-5,79.998694,50.91054)"
     id="polygon14"
     style="fill:#f9f9f9;fill-opacity:1" /><path
     style="fill:#f9f9f9;fill-opacity:1;fill-rule:evenodd;stroke:none;stroke-width:0.530046px;stroke-linecap:butt;stroke-linejoin:miter;stroke-opacity:1"
     d="M 27.356242,21.514419 V 97.789765 L 5.820757,71.128468 9.5564407,34.020805 Z"
     id="path4209" /><path
     d="M 12.723764,58.554755 C 13.041792,30.0425 27.87991,21.118638 35.960468,21.118638 c 11.284687,0 15.945385,8.614845 16.707062,12.429058 0.761147,3.811034 5.03226,6.859331 6.404551,0.607964 1.37335,-6.251368 14.648892,-25.3139561 30.96531,-25.3139561 14.943069,0 20.118439,15.4100391 19.670549,28.5170261 C 108.48513,73.040393 62.518972,101.5182 56.468493,119.50002 51.081101,108.60916 12.34372,92.866248 12.723764,58.554755 Z M 95.375488,0 C 81.956304,0 66.086184,9.9108075 56.480154,26.380939 53.888227,20.432758 44.653228,13.950821 33.675438,13.950821 24.829493,13.950821 0,25.006529 0,60.689252 c 0,46.050428 46.591608,55.509108 56.010533,69.822478 0.647186,0.9843 2.731859,1.72795 3.527458,-0.62386 C 67.053519,107.70808 125.33,82.647484 125.33,37.511913 125.32947,12.199018 108.79414,0 95.375488,0 Z"
     id="path10"
     style="stroke-width:0.530046" /></svg>
