<?xml version="1.0" encoding="utf-8"?>
<svg id="LOGO_LAYER" viewBox="0 0 125.33 131.4429" version="1.1" width="125.33" height="131.4429" xmlns="http://www.w3.org/2000/svg">
  <defs id="defs1">
    <style id="style1">.cls-1{fill:#da291c;}.cls-2{fill:#200;}</style>
  </defs>
  <g id="SELECT_FLAG_HERE" transform="translate(-232.76,-97.88)">
    <g id="BLACK_FLAG">
      <path class="cls-1" d="m 296.4,143.31 c 0.3,0.05 0.86,0 1.3,-0.19 0.43,-0.18 0.35,-0.55 -0.03,-0.67 -0.38,-0.12 -0.88,0 -1.33,0.28 -0.38,0.23 -0.24,0.54 0.06,0.59 z" id="path1"/>
      <path class="cls-1" d="M 323.609 104.638 C 306.835 104.638 291.734 122.524 290.326 129.073 C 288.917 135.622 287.09 132.907 286.309 128.915 C 285.527 124.923 279.612 117.494 268.001 117.494 C 259.692 117.494 244.43 126.84 244.111 156.712 C 243.72 192.663 283.551 209.155 289.095 220.566 C 295.317 201.726 342.584 171.885 343.849 134.499 C 344.311 120.762 338.984 104.616 323.619 104.616 L 323.609 104.638 Z" id="path2" style="fill: rgb(255, 0, 0); stroke-width: 1.048;"/>
      <path class="cls-1" d="m 282.01,144.23 c -0.45,-0.18 -0.95,-0.2 -1.33,0 -0.38,0.2 -0.46,0.59 -0.03,0.68 0.43,0.09 1,0.03 1.3,-0.08 0.3,-0.11 0.43,-0.45 0.06,-0.6 z" id="path3"/>
      <path class="cls-2" d="m 310.72,175.87 c -0.57,-0.47 -1.3,-0.39 -2.07,0.46 -0.81,0.17 -1.95,0.37 -3.49,0.57 0.49,-0.38 1.18,-0.94 1.99,-1.51 0.73,0.17 1.5,-0.2 1.74,-0.79 0.53,-0.54 1.14,-0.49 1.87,-0.44 -0.08,-1.17 -0.98,-1.2 -2.23,-0.58 -0.73,-0.33 -1.87,0.2 -2.03,1.15 -0.49,0.74 -1.46,1.25 -2.55,2.1 -1.38,-0.42 -3.13,-0.81 -4.79,-1.49 0.36,-0.41 0.73,-0.89 1.13,-1.34 -2.7,-1.07 -4.76,-2.26 -5.68,-5.09 -0.31,-0.94 0.24,-0.78 0.49,-0.19 0.45,1.09 1.16,1.78 2.3,2.17 0.81,0.28 1.27,-0.68 0.68,-1.16 -0.59,-0.48 -1.14,-1.34 -1.16,-2.45 -0.02,-0.78 0.87,-0.78 1.03,-0.38 1.3,3.39 2.89,5.63 4.24,4.89 1.35,-0.74 0.71,-1.46 0,-1.73 -1.38,-0.53 -2.16,-2.51 -2.24,-3.56 -0.08,-1.05 0.57,-1.09 1,-0.32 0.43,0.77 1.62,2.19 3.57,4.15 1.95,1.96 4.65,2.17 6.14,0.71 1.31,-1.29 0.05,-1.87 -1.24,-1.41 -2.49,0.88 -5.06,-1.42 -6.6,-5.24 -0.24,-0.59 0.22,-0.73 0.49,-0.43 3.46,3.89 6.35,3.96 8,2.35 0.58,-0.56 1.24,-2.24 -1.43,-1.45 -2.89,0.86 -4.62,-1.14 -6.65,-3.9 -0.9,-1.23 -0.08,-1.35 0.73,-0.65 0.81,0.7 2.03,1.49 3.38,2.16 1.35,0.67 4.08,0.27 4.44,-1.39 0.35,-1.66 -0.86,-1.48 -2.19,-0.91 -2.3,1 -4,-0.42 -5.65,-2.14 -0.74,-0.77 -0.43,-1.31 0.21,-1.08 0.65,0.23 2.19,0.8 3.19,1.24 1,0.44 3.19,0.59 4.25,-0.99 1.05,-1.58 -0.6,-2.27 -1.92,-1.18 -1.33,1.09 -4.57,0.56 -5.84,-0.98 -1.27,-1.55 0.16,-1.37 0.95,-1.05 1.99,0.82 4.46,0.67 6.6,-1.1 0.97,-0.8 0.82,-1.3 0.49,-1.84 -0.19,-0.31 -0.84,-0.32 -1.68,0.29 -2.84,2.05 -5.11,1.92 -6.81,-0.26 -0.68,-0.87 0.16,-1.02 0.95,-0.72 3.31,1.25 6.71,-0.11 7.71,-2.6 0.47,-1.17 -0.6,-2.32 -1.68,-0.8 -1.4,1.97 -3.65,2.25 -5.95,2.17 -1.1,-0.04 -1.11,-1.44 0.06,-1.71 2.51,-0.59 6.49,-2.66 7.68,-4.82 0.99,-1.79 -1,-3.55 -2.05,-1.44 -1.05,2.12 -3.27,3.65 -5.71,4.67 -0.86,0.36 -1.16,0.37 -1.19,0.1 -0.04,-0.38 -0.32,-1.02 -0.6,-0.8 -0.68,0.45 -3.11,1.55 -4.3,2.11 -1.19,0.56 -1.73,1.7 -1.68,2.7 0.05,1 0.33,2.73 -1.43,2.92 -2.81,0.3 -1.64,-4.38 0.03,-5.93 1.28,-1.2 2.68,-1.86 3.73,-1.94 1.05,-0.08 2.31,-0.65 2.43,-1.62 0.26,-0.08 0.74,-0.25 1.24,-0.31 0.38,-0.04 1.1,-0.51 1.45,-0.86 0.35,-0.35 0.77,-0.89 0.42,-1.15 -0.35,-0.26 -0.91,0.3 -1.12,0.74 -0.22,0.44 -0.68,0.79 -0.92,0.84 -0.35,0.08 -0.95,0.24 -1.28,0.35 -0.32,0.11 -0.85,0.09 -0.99,-0.06 -0.27,-0.29 0.03,-0.51 0.39,-0.68 0.41,-0.19 0.84,-0.19 0.97,0.06 0.09,0.17 0.25,0.32 0.54,0.32 0.33,-1.85 -1.43,-1.58 -2.89,-1.35 -0.87,-1.29 -3.11,-0.11 -4.65,0.79 -0.73,0.24 -1.97,0.29 -2.6,0.08 -0.62,-0.21 -0.59,0.12 -0.38,0.39 0.22,0.27 1,0.73 1.33,0.78 0.32,0.05 0.22,0.22 0.11,0.37 -0.34,0.46 -1.11,0.96 -1.46,1.05 -0.35,0.09 -0.46,0.26 -0.27,0.38 0.19,0.12 0.46,0.25 0.73,0.3 0.27,0.05 0.24,0.16 0.08,0.4 -0.33,0.48 -1.22,1.02 -1.51,1 -0.3,-0.02 -0.32,0.14 -0.22,0.27 0.11,0.12 0.51,0.27 0.73,0.25 0.22,-0.02 0.23,0.02 0.06,0.26 -0.2,0.27 -0.64,0.86 -1.03,0.79 -0.53,-0.1 -0.66,0.05 -0.5,0.25 0.38,0.49 0.36,0.72 -0.4,0.92 -0.76,-0.05 -0.78,-0.27 -0.4,-0.84 0.16,-0.24 0.03,-0.36 -0.5,-0.15 -0.39,0.15 -0.83,-0.34 -1.03,-0.57 -0.18,-0.21 -0.16,-0.25 0.05,-0.28 0.22,-0.02 0.62,-0.25 0.73,-0.4 0.11,-0.15 0.08,-0.31 -0.22,-0.22 -0.3,0.09 -1.18,-0.27 -1.52,-0.68 -0.16,-0.2 -0.19,-0.31 0.08,-0.41 0.27,-0.11 0.54,-0.3 0.73,-0.46 0.19,-0.15 0.08,-0.31 -0.27,-0.32 -0.35,-0.02 -1.12,-0.35 -1.46,-0.74 -0.11,-0.12 -0.22,-0.27 0.11,-0.39 0.32,-0.12 1.11,-0.74 1.33,-1.06 0.22,-0.32 0.24,-0.65 -0.38,-0.31 -0.62,0.34 -1.87,0.55 -2.6,0.46 -1.54,-0.57 -3.79,-1.28 -4.65,0.19 -1.46,0.07 -3.22,0.18 -2.89,1.96 0.29,-0.06 0.45,-0.24 0.54,-0.44 0.13,-0.28 0.56,-0.37 0.97,-0.26 0.36,0.09 0.65,0.25 0.39,0.6 -0.14,0.18 -0.66,0.31 -0.99,0.27 -0.32,-0.05 -0.93,-0.08 -1.28,-0.08 -0.24,0 -0.7,-0.25 -0.92,-0.65 -0.22,-0.4 -0.77,-0.84 -1.12,-0.5 -0.35,0.34 0.07,0.79 0.42,1.07 0.35,0.28 1.07,0.59 1.45,0.55 0.5,-0.05 0.99,0.02 1.24,0.04 0.12,0.94 1.38,1.24 2.43,1.11 1.05,-0.14 2.45,0.23 3.73,1.16 1.66,1.2 2.84,5.63 0.03,5.93 -1.76,0.19 -1.49,-1.6 -1.43,-2.61 0.05,-1.01 -0.49,-2.04 -1.68,-2.34 -1.19,-0.31 -3.62,-0.89 -4.3,-1.2 -0.27,-0.16 -0.56,0.54 -0.59,0.93 -0.03,0.27 -0.33,0.33 -1.19,0.15 -2.43,-0.5 -4.65,-1.57 -5.71,-3.46 -1.06,-1.89 -3.04,0.29 -2.06,1.87 1.19,1.91 5.16,3.14 7.68,3.2 1.17,0.03 1.16,1.43 0.05,1.7 -2.3,0.57 -4.55,0.76 -5.95,-0.92 -1.08,-1.29 -2.15,0.08 -1.68,1.15 1,2.28 4.4,2.93 7.71,0.98 0.78,-0.46 1.62,-0.49 0.95,0.52 -1.7,2.54 -3.97,3.14 -6.82,1.7 -0.84,-0.43 -1.49,-0.28 -1.68,0.07 -0.33,0.61 -0.48,1.14 0.49,1.74 2.14,1.32 4.61,0.95 6.6,-0.29 0.78,-0.49 2.22,-0.97 0.95,0.85 -1.27,1.82 -4.52,3.03 -5.84,2.22 -1.33,-0.81 -2.98,0.23 -1.92,1.58 1.06,1.35 3.25,0.74 4.25,0.1 1,-0.65 2.54,-1.54 3.19,-1.91 0.65,-0.37 0.95,0.11 0.22,1.03 -1.65,2.07 -3.35,3.84 -5.65,3.33 -1.33,-0.29 -2.54,-0.22 -2.19,1.37 0.35,1.59 3.08,1.41 4.43,0.45 1.35,-0.95 2.57,-2 3.38,-2.88 0.81,-0.87 1.63,-0.93 0.73,0.49 -2.03,3.19 -3.76,5.56 -6.65,5.31 -2.68,-0.23 -2.01,1.31 -1.43,1.75 1.65,1.26 4.54,0.58 8.01,-4.04 0.27,-0.36 0.72,-0.31 0.49,0.33 -1.54,4.15 -4.11,6.99 -6.6,6.63 -1.29,-0.19 -2.56,0.67 -1.25,1.67 1.49,1.14 4.19,0.37 6.14,-2 1.95,-2.37 3.14,-4.04 3.57,-4.9 0.43,-0.86 1.08,-0.95 1,0.11 -0.08,1.06 -0.86,3.21 -2.25,4.03 -0.71,0.43 -1.35,1.28 0,1.73 1.35,0.45 2.95,-2.13 4.25,-5.79 0.15,-0.43 1.05,-0.63 1.03,0.16 -0.03,1.11 -0.57,2.09 -1.16,2.7 -0.6,0.6 -0.13,1.46 0.68,1.01 1.14,-0.63 1.85,-1.47 2.3,-2.65 0.24,-0.65 0.79,-0.92 0.49,0.08 -0.92,3.02 -2.97,4.65 -5.68,6.29 0.41,0.36 0.77,0.77 1.14,1.1 -1.66,1.03 -3.41,1.78 -4.79,2.5 -1.1,-0.62 -2.07,-0.92 -2.56,-1.56 -0.16,-0.92 -1.3,-1.2 -2.03,-0.72 -1.26,-0.36 -2.15,-0.14 -2.23,1.05 0.73,-0.2 1.34,-0.39 1.87,0.05 0.24,0.54 1.01,0.75 1.75,0.43 0.81,0.4 1.5,0.82 1.99,1.09 -1.54,0.12 -2.68,0.16 -3.49,0.17 -0.77,-0.69 -1.5,-0.61 -2.07,-0.03 -0.93,-0.11 -1.66,0.41 -1.91,1.24 0.7,-0.15 1.35,-0.47 1.81,-0.27 0.38,0.67 1.43,0.58 2.11,0 1.03,-0.14 3.03,-0.37 3.49,-0.42 -0.68,0.48 -1.49,1.05 -1.89,1.34 -1.6,-0.16 -2.46,0.56 -2.35,1.71 -0.38,0.64 -0.35,1.47 0.11,1.8 0.11,-0.5 0.38,-1.15 0.76,-1.54 0.97,0.09 1.68,-0.31 1.97,-1.43 0.62,-0.47 1.43,-1.07 1.76,-1.33 0.32,-0.25 0.58,-0.53 1.33,-0.28 0.73,0.25 1.41,0.45 1.84,0.65 0.24,0.92 1.16,0.88 1.76,0.38 0.38,0.18 0.7,0.52 0.92,0.91 0.35,-0.66 0.16,-1.48 -0.52,-1.62 -0.24,-0.71 -1.11,-0.86 -1.73,-0.44 -0.52,-0.16 -1.25,-0.44 -1.57,-0.54 1.05,-0.49 3.73,-1.78 4.68,-2.28 0.89,0.58 1.89,1.13 2.62,0.86 0.11,-0.66 0.44,-1.23 0.89,-2.21 0.72,-1.55 1.61,-3.03 2.34,-3.96 0.73,-0.93 1.47,-0.52 1.42,0.66 -0.12,2.86 -2.22,7.33 -5.3,7.82 -1.05,0.17 -1.47,0.43 -0.89,1.15 0.54,0.67 2.22,0.59 3.15,-0.2 0.93,-0.79 1.26,-0.78 1.07,0.16 -0.19,0.94 -1.24,1.4 -2.03,1.54 -1.14,0.2 -2.43,0.75 -1.38,1.61 1.05,0.86 2.79,0.14 4.06,-1.46 0.44,-0.55 0.79,-0.74 0.76,0.08 -0.05,1.42 -0.89,2.4 -1.76,2.68 -0.87,0.28 -1.73,0.6 -1.49,1.08 0.41,0.8 1.76,0.79 2.51,0.3 0.76,-0.49 1.57,-1.33 1.73,-1.81 0.16,-0.48 0.49,-0.25 0.41,0.39 -0.19,1.37 -1.14,1.45 -1.14,2.56 0,1.11 0.92,2.1 2,3.2 1.08,-1.33 2,-2.52 2,-3.63 0,-1.11 -0.95,-0.98 -1.14,-2.32 -0.09,-0.62 0.24,-0.92 0.41,-0.48 0.16,0.44 0.97,1.12 1.73,1.44 0.76,0.32 2.11,0.05 2.52,-0.84 0.24,-0.53 -0.62,-0.67 -1.49,-0.76 -0.87,-0.1 -1.71,-0.9 -1.76,-2.31 -0.03,-0.81 0.32,-0.7 0.76,-0.24 1.27,1.33 3,1.69 4.06,0.6 1.06,-1.09 -0.24,-1.36 -1.38,-1.32 -0.78,0.03 -1.84,-0.21 -2.03,-1.11 -0.19,-0.9 0.14,-0.98 1.07,-0.38 0.93,0.59 2.61,0.32 3.15,-0.47 0.58,-0.85 0.16,-1.02 -0.89,-0.96 -3.08,0.16 -5.18,-3.87 -5.3,-6.7 -0.05,-1.17 0.69,-1.74 1.42,-0.96 0.73,0.78 1.62,2.06 2.34,3.47 0.45,0.88 0.79,1.38 0.9,2.02 0.73,0.11 1.73,-0.64 2.62,-1.41 0.95,0.31 3.62,1.03 4.68,1.29 -0.33,0.17 -1.05,0.6 -1.57,0.87 -0.62,-0.29 -1.49,0.05 -1.73,0.81 -0.68,0.29 -0.87,1.15 -0.51,1.73 0.22,-0.43 0.54,-0.84 0.92,-1.1 0.6,0.37 1.52,0.22 1.76,-0.76 0.43,-0.29 1.11,-0.63 1.84,-1.03 0.74,-0.41 1,-0.19 1.32,0 0.32,0.18 1.14,0.61 1.76,0.95 0.3,1.05 1,1.3 1.97,1.01 0.38,0.31 0.65,0.91 0.76,1.38 0.46,-0.43 0.49,-1.27 0.11,-1.83 0.11,-1.18 -0.76,-1.71 -2.35,-1.22 -0.4,-0.2 -1.22,-0.6 -1.89,-0.94 0.46,-0.05 2.46,-0.23 3.49,-0.31 0.68,0.44 1.73,0.3 2.11,-0.44 0.46,-0.29 1.11,-0.12 1.81,-0.11 -0.24,-0.79 -0.97,-1.14 -1.91,-0.84 z m -14.37,-33.15 c 0.45,-0.27 0.95,-0.4 1.33,-0.28 0.38,0.12 0.46,0.49 0.03,0.67 -0.43,0.18 -1,0.24 -1.3,0.19 -0.3,-0.05 -0.43,-0.36 -0.06,-0.59 z m -14.39,2.11 c -0.3,0.11 -0.87,0.17 -1.3,0.08 -0.43,-0.09 -0.35,-0.48 0.03,-0.68 0.38,-0.2 0.88,-0.18 1.33,0 0.38,0.15 0.24,0.49 -0.06,0.6 z" id="path4" style="fill: rgb(0, 0, 0);"/>
      <path d="m 328.12,97.88 c -13.42,0 -29.29,9.91 -38.89,26.38 -2.59,-5.95 -11.83,-12.43 -22.8,-12.43 -8.84,0 -33.67,11.05 -33.67,46.73 0,46.05 46.59,55.51 56.01,69.82 0.65,0.99 2.73,1.73 3.53,-0.62 7.51,-22.18 65.79,-47.24 65.79,-92.37 0,-25.31 -16.53,-37.51 -29.95,-37.51 z m 14.33,37.36 c -1.22,35.68 -47.19,64.15 -53.24,82.14 -5.39,-10.89 -44.12,-26.63 -43.74,-60.94 0.32,-28.51 15.16,-37.43 23.23,-37.43 11.28,0 15.94,8.61 16.71,12.43 0.76,3.81 5.03,6.86 6.4,0.61 1.37,-6.25 14.65,-25.31 30.96,-25.31 14.94,0 20.12,15.41 19.67,28.52 z" id="path5"/>
    </g>
  </g>
</svg>