<?xml version="1.0" encoding="UTF-8" standalone="no"?>
<svg
   width="125.32999"
   height="131.46028"
   version="1.1"
   viewBox="0 0 117.49523 123.24665"
   xml:space="preserve"
   id="svg13435"
   xmlns:xlink="http://www.w3.org/1999/xlink"
   xmlns="http://www.w3.org/2000/svg"
   xmlns:svg="http://www.w3.org/2000/svg"
   xmlns:rdf="http://www.w3.org/1999/02/22-rdf-syntax-ns#"
   xmlns:cc="http://creativecommons.org/ns#"
   xmlns:dc="http://purl.org/dc/elements/1.1/"><defs
     id="defs13439" /><metadata
     id="metadata12975"><rdf:RDF><cc:Work
         rdf:about=""><dc:format>image/svg+xml</dc:format><dc:type
           rdf:resource="http://purl.org/dc/dcmitype/StillImage" /></cc:Work></rdf:RDF></metadata><path
     d="M 16.895681,79.511742 88.956319,72.554399 53.673213,118.27326 Z"
     fill="#007e3c"
     stroke-width="0.496942"
     id="path12977" /><path
     d="M 106.4693,39.542907 90.848278,74.288608 15.206694,80.854202 6.9636807,48.026754 Z"
     fill="#df1a23"
     stroke-width="0.476871"
     id="path12979" /><path
     d="M 16.251531,28.346796 36.054535,15.490093 52.633109,30.795616 71.514847,6.3068833 98.225239,3.2457786 106.97568,41.203814 8.8808807,52.83637 Z"
     fill="#fff"
     stroke-width="0.52673"
     id="path12981"
     style="fill:#f9f9f9;fill-opacity:1" /><path
     d="M 43.107055,15.634172 V 106.95094 L 5.1979217,72.595414 16.143209,23.942389 Z"
     fill="#df1a23"
     fill-rule="evenodd"
     stroke-width="0.480762"
     id="path12983" /><g
     transform="matrix(0.12114748,-0.01099735,0,0.12570122,10.098192,26.328109)"
     id="g13431"
     style="fill:#f9f9f9;fill-opacity:1"><g
       id="a"
       fill="#fff"
       fill-rule="evenodd"
       stroke="#db161b"
       stroke-width="0.26422pt"
       style="fill:#f9f9f9;fill-opacity:1"><rect
         x="65.853996"
         y="102.64"
         width="38.668999"
         height="21.216999"
         rx="3.2154"
         ry="3.0151999"
         stroke-width="0.28333pt"
         id="rect12985"
         style="fill:#f9f9f9;fill-opacity:1" /><rect
         x="66.846001"
         y="103.52"
         width="36.686001"
         height="19.448999"
         rx="3.0504999"
         ry="2.7639999"
         stroke-width="0.26422pt"
         id="rect12987"
         style="fill:#f9f9f9;fill-opacity:1" /><path
         d="m 83.904,108.83 1.853,0.06 0.084,0.84 1.516,0.77 1.18,-0.96 1.431,0.77 -1.347,0.84 0.337,1.16 1.684,-0.06 v 1.55 l -1.347,-0.07 -0.674,0.97 1.516,1.1 -1.179,0.9 -1.264,-0.97 -1.853,0.39 0.084,1.42 -2.021,0.13 -0.253,-1.36 -1.684,-0.71 -0.927,0.97 -1.432,-0.71 0.843,-1.1 -1.011,-0.71 h -1.432 l -0.084,-2 1.432,0.13 1.01,-1.16 -1.179,-0.9 1.516,-1.04 1.095,0.84 1.853,-0.25 z"
         stroke-width="0.16681pt"
         id="path12989"
         style="fill:#f9f9f9;fill-opacity:1" /><ellipse
         transform="matrix(0.18418,0,0,0.1752,71.766,38.246)"
         cx="68.944"
         cy="426.78"
         rx="11.049"
         ry="9.9439001"
         stroke-width="1pt"
         id="ellipse12991"
         style="fill:#f9f9f9;fill-opacity:1" /><path
         d="m 71.803,104.41 -2.974,2.65"
         id="path12993"
         style="fill:#f9f9f9;fill-opacity:1" /><path
         d="m 73.786,104.41 -2.974,2.65"
         id="path12995"
         style="fill:#f9f9f9;fill-opacity:1" /><path
         d="m 75.769,104.41 -2.974,2.65"
         id="path12997"
         style="fill:#f9f9f9;fill-opacity:1" /><path
         d="m 77.752,104.41 -2.974,2.65"
         id="path12999"
         style="fill:#f9f9f9;fill-opacity:1" /><path
         d="m 79.735,104.41 -2.974,2.65"
         id="path13001"
         style="fill:#f9f9f9;fill-opacity:1" /><path
         d="m 81.718,104.41 -2.974,2.65"
         id="path13003"
         style="fill:#f9f9f9;fill-opacity:1" /><path
         d="m 83.702,104.41 -2.975,2.65"
         id="path13005"
         style="fill:#f9f9f9;fill-opacity:1" /><path
         d="m 85.685,104.41 -2.975,2.65"
         id="path13007"
         style="fill:#f9f9f9;fill-opacity:1" /><path
         d="m 87.668,104.41 -2.975,2.65"
         id="path13009"
         style="fill:#f9f9f9;fill-opacity:1" /><path
         d="m 89.651,104.41 -2.975,2.65"
         id="path13011"
         style="fill:#f9f9f9;fill-opacity:1" /><path
         d="m 91.634,104.41 -2.975,2.65"
         id="path13013"
         style="fill:#f9f9f9;fill-opacity:1" /><path
         d="m 93.617,104.41 -2.975,2.65"
         id="path13015"
         style="fill:#f9f9f9;fill-opacity:1" /><path
         d="m 85.685,104.41 -2.975,2.65"
         id="path13017"
         style="fill:#f9f9f9;fill-opacity:1" /><path
         d="m 95.6,104.41 -2.975,2.65"
         id="path13019"
         style="fill:#f9f9f9;fill-opacity:1" /><path
         d="m 97.583,104.41 -2.975,2.65"
         id="path13021"
         style="fill:#f9f9f9;fill-opacity:1" /><path
         d="m 99.566,104.41 -2.975,2.65"
         id="path13023"
         style="fill:#f9f9f9;fill-opacity:1" /><path
         d="m 101.55,104.41 -2.976,2.65"
         id="path13025"
         style="fill:#f9f9f9;fill-opacity:1" /><path
         d="m 98.574,104.41 2.976,2.65"
         id="path13027"
         style="fill:#f9f9f9;fill-opacity:1" /><path
         d="m 96.591,104.41 2.975,2.65"
         id="path13029"
         style="fill:#f9f9f9;fill-opacity:1" /><path
         d="m 94.608,104.41 2.975,2.65"
         id="path13031"
         style="fill:#f9f9f9;fill-opacity:1" /><path
         d="m 92.625,104.41 2.975,2.65"
         id="path13033"
         style="fill:#f9f9f9;fill-opacity:1" /><path
         d="m 90.642,104.41 2.975,2.65"
         id="path13035"
         style="fill:#f9f9f9;fill-opacity:1" /><path
         d="m 88.659,104.41 2.975,2.65"
         id="path13037"
         style="fill:#f9f9f9;fill-opacity:1" /><path
         d="m 86.676,104.41 2.975,2.65"
         id="path13039"
         style="fill:#f9f9f9;fill-opacity:1" /><path
         d="m 84.693,104.41 2.975,2.65"
         id="path13041"
         style="fill:#f9f9f9;fill-opacity:1" /><path
         d="m 82.71,104.41 2.975,2.65"
         id="path13043"
         style="fill:#f9f9f9;fill-opacity:1" /><path
         d="m 80.727,104.41 2.975,2.65"
         id="path13045"
         style="fill:#f9f9f9;fill-opacity:1" /><path
         d="m 78.744,104.41 2.975,2.65"
         id="path13047"
         style="fill:#f9f9f9;fill-opacity:1" /><path
         d="m 76.761,104.41 2.974,2.65"
         id="path13049"
         style="fill:#f9f9f9;fill-opacity:1" /><path
         d="m 84.693,104.41 2.975,2.65"
         id="path13051"
         style="fill:#f9f9f9;fill-opacity:1" /><path
         d="m 74.778,104.41 2.974,2.65"
         id="path13053"
         style="fill:#f9f9f9;fill-opacity:1" /><path
         d="m 72.795,104.41 2.974,2.65"
         id="path13055"
         style="fill:#f9f9f9;fill-opacity:1" /><path
         d="m 70.812,104.41 2.974,2.65"
         id="path13057"
         style="fill:#f9f9f9;fill-opacity:1" /><path
         d="m 68.829,104.41 2.974,2.65"
         id="path13059"
         style="fill:#f9f9f9;fill-opacity:1" /><path
         d="m 71.803,119.43 -2.974,2.66"
         id="path13061"
         style="fill:#f9f9f9;fill-opacity:1" /><path
         d="m 73.786,119.43 -2.974,2.66"
         id="path13063"
         style="fill:#f9f9f9;fill-opacity:1" /><path
         d="m 75.769,119.43 -2.974,2.66"
         id="path13065"
         style="fill:#f9f9f9;fill-opacity:1" /><path
         d="m 77.752,119.43 -2.974,2.66"
         id="path13067"
         style="fill:#f9f9f9;fill-opacity:1" /><path
         d="m 79.735,119.43 -2.974,2.66"
         id="path13069"
         style="fill:#f9f9f9;fill-opacity:1" /><path
         d="m 81.718,119.43 -2.974,2.66"
         id="path13071"
         style="fill:#f9f9f9;fill-opacity:1" /><path
         d="m 83.702,119.43 -2.975,2.66"
         id="path13073"
         style="fill:#f9f9f9;fill-opacity:1" /><path
         d="m 85.685,119.43 -2.975,2.66"
         id="path13075"
         style="fill:#f9f9f9;fill-opacity:1" /><path
         d="m 87.668,119.43 -2.975,2.66"
         id="path13077"
         style="fill:#f9f9f9;fill-opacity:1" /><path
         d="m 89.651,119.43 -2.975,2.66"
         id="path13079"
         style="fill:#f9f9f9;fill-opacity:1" /><path
         d="m 91.634,119.43 -2.975,2.66"
         id="path13081"
         style="fill:#f9f9f9;fill-opacity:1" /><path
         d="m 93.617,119.43 -2.975,2.66"
         id="path13083"
         style="fill:#f9f9f9;fill-opacity:1" /><path
         d="m 85.685,119.43 -2.975,2.66"
         id="path13085"
         style="fill:#f9f9f9;fill-opacity:1" /><path
         d="m 95.6,119.43 -2.975,2.66"
         id="path13087"
         style="fill:#f9f9f9;fill-opacity:1" /><path
         d="m 97.583,119.43 -2.975,2.66"
         id="path13089"
         style="fill:#f9f9f9;fill-opacity:1" /><path
         d="m 99.566,119.43 -2.975,2.66"
         id="path13091"
         style="fill:#f9f9f9;fill-opacity:1" /><path
         d="m 101.55,119.43 -2.976,2.66"
         id="path13093"
         style="fill:#f9f9f9;fill-opacity:1" /><path
         d="m 98.574,119.43 2.976,2.66"
         id="path13095"
         style="fill:#f9f9f9;fill-opacity:1" /><path
         d="m 96.591,119.43 2.975,2.66"
         id="path13097"
         style="fill:#f9f9f9;fill-opacity:1" /><path
         d="m 94.608,119.43 2.975,2.66"
         id="path13099"
         style="fill:#f9f9f9;fill-opacity:1" /><path
         d="m 92.625,119.43 2.975,2.66"
         id="path13101"
         style="fill:#f9f9f9;fill-opacity:1" /><path
         d="m 90.642,119.43 2.975,2.66"
         id="path13103"
         style="fill:#f9f9f9;fill-opacity:1" /><path
         d="m 88.659,119.43 2.975,2.66"
         id="path13105"
         style="fill:#f9f9f9;fill-opacity:1" /><path
         d="m 86.676,119.43 2.975,2.66"
         id="path13107"
         style="fill:#f9f9f9;fill-opacity:1" /><path
         d="m 84.693,119.43 2.975,2.66"
         id="path13109"
         style="fill:#f9f9f9;fill-opacity:1" /><path
         d="m 82.71,119.43 2.975,2.66"
         id="path13111"
         style="fill:#f9f9f9;fill-opacity:1" /><path
         d="m 80.727,119.43 2.975,2.66"
         id="path13113"
         style="fill:#f9f9f9;fill-opacity:1" /><path
         d="m 78.744,119.43 2.975,2.66"
         id="path13115"
         style="fill:#f9f9f9;fill-opacity:1" /><path
         d="m 76.761,119.43 2.974,2.66"
         id="path13117"
         style="fill:#f9f9f9;fill-opacity:1" /><path
         d="m 84.693,119.43 2.975,2.66"
         id="path13119"
         style="fill:#f9f9f9;fill-opacity:1" /><path
         d="m 74.778,119.43 2.974,2.66"
         id="path13121"
         style="fill:#f9f9f9;fill-opacity:1" /><path
         d="m 72.795,119.43 2.974,2.66"
         id="path13123"
         style="fill:#f9f9f9;fill-opacity:1" /><path
         d="m 70.812,119.43 2.974,2.66"
         id="path13125"
         style="fill:#f9f9f9;fill-opacity:1" /><path
         d="m 68.829,119.43 2.974,2.66"
         id="path13127"
         style="fill:#f9f9f9;fill-opacity:1" /></g><use
       transform="scale(-1,1)"
       x="-300"
       width="100%"
       height="100%"
       xlink:href="#a"
       id="use13130"
       style="fill:#f9f9f9;fill-opacity:1"
       y="0" /><g
       id="b"
       style="fill:#f9f9f9;fill-opacity:1"><path
         d="m 126.51,147.12 c -48.114,47.05 -68.638,53 -59.006,56.79 9.632,3.79 40.616,-20.49 72.856,-52.75 32.24,-32.25 51.98,-60.956 42.35,-64.747 -9.63,-3.792 -5.03,10.662 -56.2,60.707 z"
         fill="#fff"
         fill-rule="evenodd"
         stroke="#db161b"
         stroke-width="0.42368pt"
         id="path13132"
         style="fill:#f9f9f9;fill-opacity:1" /><path
         d="m 86.008,181.31 16.852,4.42 c -15.861,15.03 -33.708,21.22 -38.665,18.57 -4.958,-2.65 8.923,-8.84 21.813,-22.99 z"
         fill="#fff"
         fill-rule="evenodd"
         stroke="#db161b"
         stroke-width="0.33028"
         id="path13134"
         style="fill:#f9f9f9;fill-opacity:1" /><path
         d="m 86.008,183.08 13.881,3.54 c -15.453,14.45 -30.737,18.56 -34.692,16.8 -3.977,-1.77 8.255,-6.74 20.811,-20.34 z"
         fill="#fff"
         fill-rule="evenodd"
         stroke="#db161b"
         stroke-width="0.33028"
         id="path13136"
         style="fill:#f9f9f9;fill-opacity:1" /><path
         d="m 137.79,145.06 c -0.04,0.23 -0.15,1.24 -0.25,1.64 0,0.56 -0.06,0.98 -0.12,1.42 -0.16,0.38 -0.13,0.73 -0.62,0.87 -0.33,0.46 -0.54,0.58 -0.98,0.77 -0.3,0.23 -0.76,0.46 -1.24,0.65 -0.49,0.19 -0.94,0.21 -1.47,0.11 -0.44,-0.27 -0.75,-0.54 -1.11,-0.76 -0.09,-0.35 -0.16,-0.86 -0.25,-1.2 0.13,0.35 0.23,0.91 0.25,1.41 -0.05,0.55 -0.25,0.79 -0.49,1.2"
         fill="none"
         stroke="#db161b"
         stroke-width="0.33028"
         id="path13138"
         style="fill:#f9f9f9;fill-opacity:1" /><path
         d="m 133.23,152.37 c -0.04,-0.03 -0.08,-0.07 -0.12,-0.11 0.29,0.26 0.17,0.14 -0.5,-0.21 -0.47,-0.22 -0.98,-0.34 -1.6,-0.44 h -1.72 c -0.67,0 -1.12,0.09 -1.6,0.22 -0.35,0.31 -0.87,0.48 -1.23,0.76 -0.38,0.23 -0.54,0.5 -0.74,0.87 -0.34,0.3 -0.56,0.76 -0.87,0.99 -0.13,0.5 -0.42,0.48 -0.61,0.87 0.58,0.04 1.05,0.11 1.35,0.43 0.52,0.24 -0.43,-0.23 -0.61,-0.43 -0.41,-0.11 -0.51,-0.22 -1.11,-0.22 -0.56,-0.16 -0.9,0.13 -1.48,0.22 -0.33,0.17 -0.43,0.22 -0.86,0.22"
         fill="none"
         stroke="#db161b"
         stroke-width="0.33028"
         id="path13140"
         style="fill:#f9f9f9;fill-opacity:1" /><path
         d="m 126.58,157.83 c -0.25,0.01 -1.4,0.2 -1.85,0 -0.5,-0.12 -0.8,-0.36 -1.11,-0.77 -0.15,-0.29 0,0.53 0,0.88 -0.05,0.64 -0.27,0.65 -0.61,1.09 -0.36,0.2 -0.74,0.49 -1.11,0.65 -0.31,0.24 -0.69,0.4 -1.11,0.55 -0.37,0.15 -0.81,0.31 -1.11,0.54 -0.41,0.26 -0.37,0.58 -0.61,0.98 0.04,0.54 0.14,0.84 0.49,1.1 0.14,0.36 0.47,0.73 0.74,0.98 0.3,0.5 0.64,0.73 -0.13,0.87 -0.42,0.16 -0.65,0.03 -1.1,0"
         fill="none"
         stroke="#db161b"
         stroke-width="0.33028"
         id="path13142"
         style="fill:#f9f9f9;fill-opacity:1" /><path
         d="m 118.82,165.46 c -0.3,-0.06 -1.38,-0.38 -1.85,-0.54 h -1.72 c -0.67,0.04 -0.8,0.22 -1.36,0.43 -0.36,0.33 -0.61,0.56 -1.11,0.77 -0.26,0.3 -0.78,0.81 -0.98,1.2 -0.15,0.37 -0.25,0.87 -0.25,1.42 0.01,0.63 0.2,0.74 0.25,1.31 0.14,0.46 0.36,0.89 0.74,1.3 0.05,0.14 0.09,0.18 0.24,0.22"
         fill="none"
         stroke="#db161b"
         stroke-width="0.33028"
         id="path13144"
         style="fill:#f9f9f9;fill-opacity:1" /><path
         d="m 112.95,173 c -0.05,0 -0.17,0.28 -0.35,0.52 -0.39,0.4 -0.44,0.43 -1.05,0.43 -0.54,-0.02 -0.49,-0.21 -0.87,-0.35 -0.18,-0.27 -0.41,-0.49 -0.61,-0.86 -0.14,-0.22 -0.27,-0.57 -0.44,-0.77 -0.16,-0.26 -0.36,-0.45 -0.53,-0.69 -0.16,-0.07 -0.22,-0.14 -0.43,-0.17 0.5,0.08 0.54,0.25 0.87,0.51 0.15,0.25 0.31,0.5 0.44,0.78 0.05,0.37 0.17,0.66 0.17,1.12 0,0.47 0,0.81 -0.17,1.2 -0.21,0.22 -0.36,0.44 -0.61,0.61 -0.21,0.19 -0.46,0.45 -0.62,0.68 -0.27,0.17 -0.47,0.31 -0.78,0.52 -0.27,0.15 -0.55,0.31 -0.96,0.35 -0.52,-0.04 -0.67,-0.18 -1.05,-0.35 -0.33,-0.24 -0.59,-0.39 -0.88,-0.6 -0.23,-0.16 -0.46,-0.47 -0.61,-0.69 -0.47,-0.12 -0.77,-0.07 -1.05,0.17 -0.24,0.16 -0.45,0.37 -0.61,0.6 -0.15,0.07 -0.38,0.28 -0.53,0.35"
         fill="none"
         stroke="#db161b"
         stroke-width="0.33028"
         id="path13146"
         style="fill:#f9f9f9;fill-opacity:1" /><path
         d="m 103.32,176.56 c 0.14,0.06 0.64,0.41 0.87,0.54 0.14,0.45 0.36,0.7 0.43,1.18 0.12,0.47 0.11,0.98 0.11,1.51 -0.12,0.55 -0.35,0.95 -0.54,1.39 -0.35,0.24 -0.52,0.4 -0.98,0.65 -0.43,0.06 -0.86,0.11 -1.41,0.11 -0.34,0.11 -0.98,0.16 -1.31,0 -0.48,-0.07 -0.843,-0.26 -1.194,-0.43 -0.402,-0.23 -0.649,-0.44 -1.088,-0.65 -0.213,-0.31 -0.544,-0.59 -0.869,-0.97 -0.271,-0.36 -0.47,-0.56 -0.653,-0.96 0.161,0.46 0.405,0.86 0.544,1.29 0.247,0.45 0.391,0.62 0.435,1.18 0.151,0.45 0.109,0.99 0.109,1.5 -0.048,0.35 -0.073,1.01 -0.218,1.29 v 0.33"
         fill="none"
         stroke="#db161b"
         stroke-width="0.33028"
         id="path13148"
         style="fill:#f9f9f9;fill-opacity:1" /><path
         d="m 87.242,186.23 v 0.16 c 0,-0.42 -0.011,-0.21 0.175,0.62 0.33,0.37 1.104,0.47 1.749,0.31 0.566,-0.41 0.548,-0.73 1.574,-0.93 0.991,0.06 1.369,0.32 1.924,0.62 0.658,0.29 0.962,0.44 1.399,1.09 0.217,0.53 0.338,0.89 -0.35,1.09 -0.547,0.35 -1.197,0.54 -1.924,0.63 -0.808,0 -1.39,-0.09 -1.749,0.31 -0.555,0.51 -0.524,0.82 -0.524,1.71 -0.187,0.28 -0.224,1.1 -0.35,1.41 -0.486,0.2 -0.771,0.31 -1.574,0.31 -0.189,-0.48 -0.398,-1.35 -0.525,-1.87 -0.137,-0.56 -0.179,-1.34 -0.525,-1.72 -0.326,-0.42 -0.743,-0.8 -1.224,-1.09 -0.214,-0.27 -0.622,-0.49 -1.049,-0.62 0.686,0.31 0.784,0.65 0.874,1.4 -0.603,0.27 -0.764,0.46 -1.749,0.47 -0.968,-0.07 -1.202,-0.29 -1.574,-0.78 -0.067,0.78 -0.348,1.04 -0.524,1.72 -0.36,0.47 -0.513,0.95 -0.875,1.55 0.154,0.76 0.486,0.79 0.525,1.72 0.227,0.61 0.202,1.19 0.699,1.56 0.222,0.24 0.388,0.29 0.875,0.31 -1.013,0 -1.603,-0.1 -2.274,-0.47 -0.519,-0.28 -0.911,-0.64 -1.399,-0.93 -0.619,-0.4 -1.384,-0.77 -2.099,-0.94 -0.808,0 -1.39,-0.08 -1.749,0.31 -0.495,0.32 -0.828,0.86 -1.049,1.56 -0.162,0.81 -0.224,1.35 0.175,1.87 0.296,0.61 0.363,0.84 0,1.56 -0.407,0.51 -1.012,0.57 -1.924,0.78 -0.666,-0.03 -1.306,-0.16 -1.749,-0.31"
         fill="none"
         stroke="#db161b"
         stroke-width="0.33028"
         id="path13150"
         style="fill:#f9f9f9;fill-opacity:1" /><path
         d="m 181.41,104.66 c 21.35,-36.858 35.52,-68.222 31.62,-70.014 -3.89,-1.791 -24.37,26.665 -45.72,63.518 z"
         fill="#fff"
         fill-rule="evenodd"
         stroke="#db161b"
         stroke-width="0.33521pt"
         id="path13152"
         style="fill:#f9f9f9;fill-opacity:1" /><path
         d="m 180,104.01 c 20.59,-35.557 34.78,-65.574 31.67,-67.007 -3.11,-1.433 -22.35,26.258 -42.95,61.81"
         fill="#fff"
         fill-rule="evenodd"
         stroke="#db161b"
         stroke-width="0.29448pt"
         id="path13154"
         style="fill:#f9f9f9;fill-opacity:1" /><path
         d="m 176.46,85.461 c -2.51,4.157 -5.16,8.908 -7.74,13.352 L 180,104.01 c 2.57,-4.448 5.38,-9.13 7.73,-13.356 z"
         fill="#fff"
         fill-rule="evenodd"
         stroke="#db161b"
         stroke-width="0.33422pt"
         id="path13156"
         style="fill:#f9f9f9;fill-opacity:1" /><path
         d="m 177.41,86.895 c -2.5,4.157 -4.25,7.338 -6.82,11.782 l 8.45,3.893 c 2.58,-4.442 4.48,-7.554 6.83,-11.78 z"
         fill="#fff"
         fill-rule="evenodd"
         stroke="#db161b"
         stroke-width="0.33422pt"
         id="path13158"
         style="fill:#f9f9f9;fill-opacity:1" /><rect
         transform="matrix(-0.90832,-0.41827,-0.50125,0.8653,0,0)"
         x="-205.69"
         y="6.5584998"
         width="6.2072001"
         height="9.9849005"
         fill="#fff"
         stroke="#db161b"
         stroke-width="0.33495pt"
         id="rect13160"
         style="fill:#f9f9f9;fill-opacity:1" /><path
         d="m 183.55,91.712 -10.64,6.043"
         fill="#fff"
         fill-rule="evenodd"
         stroke="#db161b"
         stroke-width="0.33422pt"
         id="path13162"
         style="fill:#f9f9f9;fill-opacity:1" /><path
         d="M 178.54,100.35 177.91,89.115"
         fill="#fff"
         fill-rule="evenodd"
         stroke="#db161b"
         stroke-width="0.33422pt"
         id="path13164"
         style="fill:#f9f9f9;fill-opacity:1" /><path
         d="M 209.03,47.727 203.39,45.13"
         fill="#fff"
         fill-rule="evenodd"
         stroke="#db161b"
         stroke-width="0.33422pt"
         id="path13166"
         style="fill:#f9f9f9;fill-opacity:1" /><circle
         transform="matrix(-0.449,0.11321,0.10134,0.39387,444.35,-55.798)"
         cx="545.66998"
         cy="92.125999"
         r="3.5432999"
         fill="#db161b"
         stroke="#db161b"
         stroke-width="1pt"
         id="circle13168"
         style="fill:#f9f9f9;fill-opacity:1" /></g><use
       transform="scale(-1,1)"
       x="-300"
       width="100%"
       height="100%"
       xlink:href="#b"
       id="use13171"
       style="fill:#f9f9f9;fill-opacity:1"
       y="0" /><g
       fill="#fff"
       stroke="#db161b"
       id="g13429"
       style="fill:#f9f9f9;fill-opacity:1"><g
         fill-rule="evenodd"
         id="g13185"
         style="fill:#f9f9f9;fill-opacity:1"><path
           d="m 135.26,84.958 c 0,30.942 0.18,42.602 -2.1,44.202 -2.16,1.71 -62.348,0 -62.348,8.84 0,8.84 49.578,17.68 64.448,17.68 19.83,0 29.75,-8.84 29.75,-26.52 V 84.958 Z"
           stroke-width="0.3051pt"
           id="path13173"
           style="fill:#f9f9f9;fill-opacity:1" /><g
           stroke-width="0.26422pt"
           id="g13183"
           style="fill:#f9f9f9;fill-opacity:1"><path
             d="m 135.26,93.798 v 4.42 c 9.92,1.474 19.83,1.474 29.75,0 v -4.42 c -9.92,1.474 -19.83,1.474 -29.75,0 z"
             id="path13175"
             style="fill:#f9f9f9;fill-opacity:1" /><path
             d="m 135.26,84.958 v 4.42 c 9.92,1.473 19.83,1.473 29.75,0 v -4.42 c -9.92,1.473 -19.83,1.473 -29.75,0 z"
             id="path13177"
             style="fill:#f9f9f9;fill-opacity:1" /><path
             d="m 135.26,89.378 v 4.42 c 9.92,1.474 19.83,1.474 29.75,0 v -4.42 c -9.92,1.473 -19.83,1.473 -29.75,0 z"
             id="path13179"
             style="fill:#f9f9f9;fill-opacity:1" /><path
             d="m 135.26,98.218 v 4.422 c 9.92,1.47 19.83,1.47 29.75,0 v -4.422 c -9.92,1.474 -19.83,1.474 -29.75,0 z"
             id="path13181"
             style="fill:#f9f9f9;fill-opacity:1" /></g></g><ellipse
         transform="matrix(0.15263,0,0,0.035884,97.403,84.326)"
         cx="256.89001"
         cy="210.83"
         rx="8.8583002"
         ry="26.575001"
         stroke-width="4.4628"
         id="ellipse13187"
         style="fill:#f9f9f9;fill-opacity:1" /><ellipse
         transform="matrix(0.15263,0,0,0.035884,97.403,83.531)"
         cx="292.32001"
         cy="246.25999"
         rx="8.8583002"
         ry="26.575001"
         stroke-width="4.4628"
         id="ellipse13189"
         style="fill:#f9f9f9;fill-opacity:1" /><ellipse
         transform="matrix(0.15263,0,0,0.035883,97.403,83.372)"
         cx="327.76001"
         cy="263.98001"
         rx="8.8583002"
         ry="26.575001"
         stroke-width="4.4629"
         id="ellipse13191"
         style="fill:#f9f9f9;fill-opacity:1" /><ellipse
         transform="matrix(0.15263,0,0,0.035883,97.403,83.372)"
         cx="363.19"
         cy="263.98001"
         rx="8.8583002"
         ry="26.575001"
         stroke-width="4.4629"
         id="ellipse13193"
         style="fill:#f9f9f9;fill-opacity:1" /><ellipse
         transform="matrix(0.15263,0,0,0.035884,97.403,83.531)"
         cx="398.62"
         cy="246.25999"
         rx="8.8583002"
         ry="26.575001"
         stroke-width="4.4628"
         id="ellipse13195"
         style="fill:#f9f9f9;fill-opacity:1" /><ellipse
         transform="matrix(0.15263,0,0,0.035884,97.403,84.326)"
         cx="434.06"
         cy="210.83"
         rx="8.8583002"
         ry="26.575001"
         stroke-width="4.4628"
         id="ellipse13197"
         style="fill:#f9f9f9;fill-opacity:1" /><g
         fill-rule="evenodd"
         stroke-width="0.26422pt"
         id="g13303"
         style="fill:#f9f9f9;fill-opacity:1"><path
           d="m 135.26,107.06 29.75,23.87"
           id="path13199"
           style="fill:#f9f9f9;fill-opacity:1" /><path
           d="m 138.23,107.06 26.78,21.21"
           id="path13201"
           style="fill:#f9f9f9;fill-opacity:1" /><path
           d="m 142.2,107.94 22.81,17.68"
           id="path13203"
           style="fill:#f9f9f9;fill-opacity:1" /><path
           d="m 145.18,107.94 19.83,15.03"
           id="path13205"
           style="fill:#f9f9f9;fill-opacity:1" /><path
           d="m 148.15,107.94 16.86,12.38"
           id="path13207"
           style="fill:#f9f9f9;fill-opacity:1" /><path
           d="m 151.12,107.94 13.89,9.73"
           id="path13209"
           style="fill:#f9f9f9;fill-opacity:1" /><path
           d="m 154.1,107.94 10.91,7.07"
           id="path13211"
           style="fill:#f9f9f9;fill-opacity:1" /><path
           d="m 157.07,107.94 7.94,5.31"
           id="path13213"
           style="fill:#f9f9f9;fill-opacity:1" /><path
           d="m 160.05,107.94 4.96,3.54"
           id="path13215"
           style="fill:#f9f9f9;fill-opacity:1" /><path
           d="m 163.02,107.94 1.99,1.77"
           id="path13217"
           style="fill:#f9f9f9;fill-opacity:1" /><path
           d="m 135.26,109.71 29.75,23.87"
           id="path13219"
           style="fill:#f9f9f9;fill-opacity:1" /><path
           d="m 165.01,107.06 -32.72,26.52"
           id="path13221"
           style="fill:#f9f9f9;fill-opacity:1" /><path
           d="m 162.03,107.06 -28.75,22.98"
           id="path13223"
           style="fill:#f9f9f9;fill-opacity:1" /><path
           d="m 158.07,107.94 -22.81,17.68"
           id="path13225"
           style="fill:#f9f9f9;fill-opacity:1" /><path
           d="m 155.09,107.94 -19.83,15.03"
           id="path13227"
           style="fill:#f9f9f9;fill-opacity:1" /><path
           d="m 152.12,107.94 -16.86,12.38"
           id="path13229"
           style="fill:#f9f9f9;fill-opacity:1" /><path
           d="m 149.14,107.94 -13.88,9.73"
           id="path13231"
           style="fill:#f9f9f9;fill-opacity:1" /><path
           d="m 146.17,107.94 -10.91,7.07"
           id="path13233"
           style="fill:#f9f9f9;fill-opacity:1" /><path
           d="m 143.19,107.94 -7.93,5.31"
           id="path13235"
           style="fill:#f9f9f9;fill-opacity:1" /><path
           d="m 140.22,107.94 -4.96,3.54"
           id="path13237"
           style="fill:#f9f9f9;fill-opacity:1" /><path
           d="m 137.24,107.94 -1.98,1.77"
           id="path13239"
           style="fill:#f9f9f9;fill-opacity:1" /><path
           d="m 165.01,109.71 -32.72,26.52"
           id="path13241"
           style="fill:#f9f9f9;fill-opacity:1" /><path
           d="m 165.01,112.36 -32.72,26.52"
           id="path13243"
           style="fill:#f9f9f9;fill-opacity:1" /><path
           d="m 165.01,115.01 -32.72,26.53"
           id="path13245"
           style="fill:#f9f9f9;fill-opacity:1" /><path
           d="m 165.01,117.67 -32.72,26.52"
           id="path13247"
           style="fill:#f9f9f9;fill-opacity:1" /><path
           d="m 165.01,120.32 -32.72,26.52"
           id="path13249"
           style="fill:#f9f9f9;fill-opacity:1" /><path
           d="m 165.01,122.97 -32.72,26.52"
           id="path13251"
           style="fill:#f9f9f9;fill-opacity:1" /><path
           d="m 165.01,125.62 -32.72,26.52"
           id="path13253"
           style="fill:#f9f9f9;fill-opacity:1" /><path
           d="M 165.01,128.28 132.29,154.8"
           id="path13255"
           style="fill:#f9f9f9;fill-opacity:1" /><path
           d="m 165.01,130.93 -30.74,24.75"
           id="path13257"
           style="fill:#f9f9f9;fill-opacity:1" /><path
           d="m 165.01,133.58 -27.77,22.1"
           id="path13259"
           style="fill:#f9f9f9;fill-opacity:1" /><path
           d="M 164.01,137.12 142.2,154.8"
           id="path13261"
           style="fill:#f9f9f9;fill-opacity:1" /><path
           d="M 163.02,140.65 145.18,154.8"
           id="path13263"
           style="fill:#f9f9f9;fill-opacity:1" /><path
           d="m 161.04,145.07 -8.92,7.07"
           id="path13265"
           style="fill:#f9f9f9;fill-opacity:1" /><path
           d="m 135.26,112.36 28.75,22.99"
           id="path13267"
           style="fill:#f9f9f9;fill-opacity:1" /><path
           d="M 135.26,115.01 164.01,138"
           id="path13269"
           style="fill:#f9f9f9;fill-opacity:1" /><path
           d="m 135.26,117.67 27.76,22.1"
           id="path13271"
           style="fill:#f9f9f9;fill-opacity:1" /><path
           d="m 135.26,120.32 27.76,22.1"
           id="path13273"
           style="fill:#f9f9f9;fill-opacity:1" /><path
           d="m 135.26,122.97 26.77,21.22"
           id="path13275"
           style="fill:#f9f9f9;fill-opacity:1" /><path
           d="m 134.27,124.74 26.77,21.22"
           id="path13277"
           style="fill:#f9f9f9;fill-opacity:1" /><path
           d="m 134.27,127.39 24.79,19.45"
           id="path13279"
           style="fill:#f9f9f9;fill-opacity:1" /><path
           d="m 133.28,129.16 24.79,19.45"
           id="path13281"
           style="fill:#f9f9f9;fill-opacity:1" /><path
           d="m 132.29,130.93 23.79,18.56"
           id="path13283"
           style="fill:#f9f9f9;fill-opacity:1" /><path
           d="m 132.29,133.58 22.8,17.68"
           id="path13285"
           style="fill:#f9f9f9;fill-opacity:1" /><path
           d="m 132.29,136.23 19.83,15.91"
           id="path13287"
           style="fill:#f9f9f9;fill-opacity:1" /><path
           d="m 135.26,102.64 v 4.42 c 9.92,1.47 19.83,1.47 29.75,0 v -4.42 c -9.92,1.47 -19.83,1.47 -29.75,0 z"
           id="path13289"
           style="fill:#f9f9f9;fill-opacity:1" /><path
           d="m 132.29,138.88 17.84,14.15"
           id="path13291"
           style="fill:#f9f9f9;fill-opacity:1" /><path
           d="m 132.29,141.54 15.86,12.37"
           id="path13293"
           style="fill:#f9f9f9;fill-opacity:1" /><path
           d="m 132.29,144.19 13.88,10.61"
           id="path13295"
           style="fill:#f9f9f9;fill-opacity:1" /><path
           d="m 132.29,146.84 9.91,7.96"
           id="path13297"
           style="fill:#f9f9f9;fill-opacity:1" /><path
           d="m 132.29,149.49 7.93,6.19"
           id="path13299"
           style="fill:#f9f9f9;fill-opacity:1" /><path
           d="m 132.29,152.14 4.95,3.54"
           id="path13301"
           style="fill:#f9f9f9;fill-opacity:1" /></g><ellipse
         transform="matrix(0.15263,0,0,0.035884,97.403,97.586)"
         cx="256.89001"
         cy="210.83"
         rx="8.8583002"
         ry="26.575001"
         stroke-width="4.4628"
         id="ellipse13305"
         style="fill:#f9f9f9;fill-opacity:1" /><ellipse
         transform="matrix(0.15263,0,0,0.035884,97.403,96.791)"
         cx="292.32001"
         cy="246.25999"
         rx="8.8583002"
         ry="26.575001"
         stroke-width="4.4628"
         id="ellipse13307"
         style="fill:#f9f9f9;fill-opacity:1" /><ellipse
         transform="matrix(0.15263,0,0,0.035883,97.403,96.632)"
         cx="327.76001"
         cy="263.98001"
         rx="8.8583002"
         ry="26.575001"
         stroke-width="4.4629"
         id="ellipse13309"
         style="fill:#f9f9f9;fill-opacity:1" /><ellipse
         transform="matrix(0.15263,0,0,0.035883,97.403,96.632)"
         cx="363.19"
         cy="263.98001"
         rx="8.8583002"
         ry="26.575001"
         stroke-width="4.4629"
         id="ellipse13311"
         style="fill:#f9f9f9;fill-opacity:1" /><ellipse
         transform="matrix(0.15263,0,0,0.035884,97.403,96.791)"
         cx="398.62"
         cy="246.25999"
         rx="8.8583002"
         ry="26.575001"
         stroke-width="4.4628"
         id="ellipse13313"
         style="fill:#f9f9f9;fill-opacity:1" /><ellipse
         transform="matrix(0.15263,0,0,0.035884,97.403,97.586)"
         cx="434.06"
         cy="210.83"
         rx="8.8583002"
         ry="26.575001"
         stroke-width="4.4628"
         id="ellipse13315"
         style="fill:#f9f9f9;fill-opacity:1" /><g
         fill-rule="evenodd"
         id="g13365"
         style="fill:#f9f9f9;fill-opacity:1"><g
           stroke-width="0.26422pt"
           id="g13359"
           style="fill:#f9f9f9;fill-opacity:1"><path
             d="M 92.625,148.61 128.32,130.04"
             id="path13317"
             style="fill:#f9f9f9;fill-opacity:1" /><path
             d="M 90.642,147.72 124.35,130.04"
             id="path13319"
             style="fill:#f9f9f9;fill-opacity:1" /><path
             d="M 89.651,145.96 120.39,130.04"
             id="path13321"
             style="fill:#f9f9f9;fill-opacity:1" /><path
             d="M 88.659,144.19 115.43,130.04"
             id="path13323"
             style="fill:#f9f9f9;fill-opacity:1" /><path
             d="M 86.676,142.42 111.46,130.04"
             id="path13325"
             style="fill:#f9f9f9;fill-opacity:1" /><path
             d="m 87.668,139.77 16.852,-8.84"
             id="path13327"
             style="fill:#f9f9f9;fill-opacity:1" /><path
             d="m 86.676,138 12.89,-7.07"
             id="path13329"
             style="fill:#f9f9f9;fill-opacity:1" /><path
             d="M 86.676,135.35 95.6,130.93"
             id="path13331"
             style="fill:#f9f9f9;fill-opacity:1" /><path
             d="m 95.6,149.49 33.71,-17.68"
             id="path13333"
             style="fill:#f9f9f9;fill-opacity:1" /><path
             d="M 98.574,150.38 130.3,133.58"
             id="path13335"
             style="fill:#f9f9f9;fill-opacity:1" /><path
             d="m 101.55,151.26 29.74,-15.91"
             id="path13337"
             style="fill:#f9f9f9;fill-opacity:1" /><path
             d="m 104.52,152.14 24.79,-13.26"
             id="path13339"
             style="fill:#f9f9f9;fill-opacity:1" /><path
             d="M 108.49,152.14 130.3,140.65"
             id="path13341"
             style="fill:#f9f9f9;fill-opacity:1" /><path
             d="M 111.46,153.03 130.3,143.3"
             id="path13343"
             style="fill:#f9f9f9;fill-opacity:1" /><path
             d="m 114.44,153.91 14.87,-7.95"
             id="path13345"
             style="fill:#f9f9f9;fill-opacity:1" /><path
             d="m 118.4,153.91 11.9,-6.19"
             id="path13347"
             style="fill:#f9f9f9;fill-opacity:1" /><path
             d="m 122.37,154.8 7.93,-4.42"
             id="path13349"
             style="fill:#f9f9f9;fill-opacity:1" /><path
             d="m 126.34,154.8 4.95,-2.66"
             id="path13351"
             style="fill:#f9f9f9;fill-opacity:1" /><path
             d="m 133.28,129.16 h -4.96 c -1.65,8.84 -1.65,17.68 0,26.52 h 4.96 c -1.66,-8.84 -1.66,-17.68 0,-26.52 z"
             id="path13353"
             style="fill:#f9f9f9;fill-opacity:1" /><path
             d="M 74.778,141.54 86.676,132.7"
             id="path13355"
             style="fill:#f9f9f9;fill-opacity:1" /><path
             d="m 74.778,135.35 11.898,10.61"
             id="path13357"
             style="fill:#f9f9f9;fill-opacity:1" /></g><path
           d="m 92.625,130.93 -5.949,0.88 c -1.322,5.6 -1.322,10.31 0,15.91 l 5.949,1.77 c -1.322,-5.6 -1.322,-12.96 0,-18.56 z"
           stroke-width="0.18808pt"
           id="path13361"
           style="fill:#f9f9f9;fill-opacity:1" /><path
           d="m 164.97,86.726 v -4.457 c -4.45,0.037 -7.43,-2.615 -7.43,-5.305 l -14.85,0.037 c 0,2.653 -2.97,5.305 -7.43,5.305 v 4.42 z"
           stroke-width="0.32343pt"
           id="path13363"
           style="fill:#f9f9f9;fill-opacity:1" /></g><g
         stroke-width="0.27335pt"
         id="g13375"
         style="fill:#f9f9f9;fill-opacity:1"><rect
           x="143.75"
           y="71.696999"
           width="12.734"
           height="5.3041"
           id="rect13367"
           style="fill:#f9f9f9;fill-opacity:1" /><rect
           x="144.81"
           y="66.392998"
           width="10.612"
           height="5.3042002"
           id="rect13369"
           style="fill:#f9f9f9;fill-opacity:1" /><rect
           x="144.81"
           y="61.089001"
           width="10.612"
           height="5.3042002"
           id="rect13371"
           style="fill:#f9f9f9;fill-opacity:1" /><rect
           x="145.87"
           y="54.016998"
           width="8.4892998"
           height="7.0721998"
           id="rect13373"
           style="fill:#f9f9f9;fill-opacity:1" /></g><rect
         x="145.50999"
         y="47.828999"
         width="9.2210999"
         height="6.1882"
         stroke-width="0.28488pt"
         id="rect13377"
         style="fill:#f9f9f9;fill-opacity:1" /><ellipse
         transform="matrix(0.28916,0,0,0.24949,81.983,1.8592)"
         cx="237.39999"
         cy="161.22"
         rx="42.52"
         ry="33.660999"
         stroke-width="1pt"
         id="ellipse13379"
         style="fill:#f9f9f9;fill-opacity:1" /><path
         d="m 156.78,41.64 c 0,2.319 3.07,6.189 3.07,6.189 -2.23,1.52 -5.83,2.652 -9.22,2.652 -3.39,0 -7.62,-0.631 -9.22,-2.652 0,0 3.07,-3.87 3.07,-6.189 0,-2.318 -3.07,-5.304 -3.07,-5.304 2.22,-1.52 5.83,-2.652 9.22,-2.652 3.39,0 6.99,1.132 9.22,2.652 0,0 -3.07,2.986 -3.07,5.304 z"
         fill-rule="evenodd"
         stroke-width="0.26859pt"
         id="path13381"
         style="fill:#f9f9f9;fill-opacity:1" /><path
         d="m 154.73,41.64 c 0,2.319 3.07,7.073 3.07,7.073 -2.22,1.52 -3.78,1.768 -7.17,1.768 -3.39,0 -5.57,0.253 -7.17,-1.768 0,0 3.07,-4.754 3.07,-7.073 0,-2.318 -3.07,-6.188 -3.07,-6.188 2.22,-1.52 3.78,-1.768 7.17,-1.768 3.39,0 4.95,0.248 7.17,1.768 0,0 -3.07,3.87 -3.07,6.188 z"
         fill-rule="evenodd"
         stroke-width="0.26859pt"
         id="path13383"
         style="fill:#f9f9f9;fill-opacity:1" /><g
         stroke-width="1pt"
         id="g13397"
         style="fill:#f9f9f9;fill-opacity:1"><circle
           transform="matrix(0.28916,0,0,0.24949,81.983,0.97517)"
           cx="194.88"
           cy="166.53999"
           r="10.63"
           id="circle13385"
           style="fill:#f9f9f9;fill-opacity:1" /><circle
           transform="matrix(0.28916,0,0,0.24949,106.57,0.97517)"
           cx="194.88"
           cy="166.53999"
           r="10.63"
           id="circle13387"
           style="fill:#f9f9f9;fill-opacity:1" /><circle
           transform="matrix(0.28916,0,0,0.24949,94.278,0.97517)"
           cx="194.88"
           cy="166.53999"
           r="10.63"
           id="circle13389"
           style="fill:#f9f9f9;fill-opacity:1" /><circle
           transform="matrix(0.28916,0,0,0.24949,94.278,-7.8651)"
           cx="194.88"
           cy="166.53999"
           r="10.63"
           id="circle13391"
           style="fill:#f9f9f9;fill-opacity:1" /><circle
           transform="matrix(0.29948,0,0,0.24949,83.264,42.524)"
           cx="194.88"
           cy="166.53999"
           r="10.63"
           id="circle13393"
           style="fill:#f9f9f9;fill-opacity:1" /><circle
           transform="matrix(0.29948,0,0,0.24949,100.24,42.524)"
           cx="194.88"
           cy="166.53999"
           r="10.63"
           id="circle13395"
           style="fill:#f9f9f9;fill-opacity:1" /></g><path
         d="m 142.69,77.001 h 14.85 l -7.42,7.957 z"
         fill-rule="evenodd"
         stroke-width="0.27335pt"
         id="path13399"
         style="fill:#f9f9f9;fill-opacity:1" /><circle
         transform="matrix(0.39931,0,0,0.33266,72.298,27.791)"
         cx="194.88"
         cy="166.53999"
         r="10.63"
         stroke-width="1pt"
         id="circle13401"
         style="fill:#f9f9f9;fill-opacity:1" /><g
         stroke-width="0.33028"
         id="g13427"
         style="fill:#f9f9f9;fill-opacity:1"><rect
           x="133.77"
           y="109.72"
           width="22.805"
           height="5.3042002"
           rx="1.2377"
           ry="0.93810999"
           id="rect13403"
           style="fill:#f9f9f9;fill-opacity:1" /><g
           fill-rule="evenodd"
           id="g13415"
           style="fill:#f9f9f9;fill-opacity:1"><path
             d="m 163.52,105.3 c -2.75,0 -4.96,2.06 -4.96,4.62 v 4.02 c 0,2.56 2.21,4.62 4.96,4.62 2.75,0 4.96,-2.06 4.96,-4.62 v -4.02 c 0,-2.56 -2.21,-4.62 -4.96,-4.62 z m 0,1.77 c -1.65,0 -2.98,1.65 -2.98,3.7 v 2.33 c 0,2.05 1.33,3.69 2.98,3.69 1.65,0 2.97,-1.64 2.97,-3.69 v -2.33 c 0,-2.05 -1.32,-3.7 -2.97,-3.7 z"
             id="path13405"
             style="fill:#f9f9f9;fill-opacity:1" /><path
             d="m 137.74,106.19 c -1.65,0 -2.97,1.64 -2.97,3.69 v 4.1 c 0,2.05 1.32,3.7 2.97,3.7 1.65,0 2.97,-1.65 2.97,-3.7 v -4.1 c 0,-2.05 -1.32,-3.69 -2.97,-3.69 z m 0,-1.77 c -2.75,0 -4.96,2.06 -4.96,4.62 v 5.79 c 0,2.56 2.21,4.62 4.96,4.62 2.75,0 4.96,-2.06 4.96,-4.62 v -5.79 c 0,-2.56 -2.21,-4.62 -4.96,-4.62 z"
             id="path13407"
             style="fill:#f9f9f9;fill-opacity:1" /><path
             d="m 129.81,107.95 c -1.65,0 -2.98,1.65 -2.98,3.7 v 0.96 c 0,2.05 1.33,3.7 2.98,3.7 1.65,0 2.97,-1.65 2.97,-3.7 v -0.96 c 0,-2.05 -1.32,-3.7 -2.97,-3.7 z m 0,-1.76 c -2.75,0 -4.96,2.06 -4.96,4.62 v 2.65 c 0,2.56 2.21,4.62 4.96,4.62 2.74,0 4.96,-2.06 4.96,-4.62 v -2.65 c 0,-2.56 -2.22,-4.62 -4.96,-4.62 z"
             id="path13409"
             style="fill:#f9f9f9;fill-opacity:1" /><path
             d="m 117.91,105.51 c -2.97,0 -5.35,1.84 -5.35,4.13 v 4.58 c 0,2.29 2.38,4.13 5.35,4.13 2.97,0 5.35,-1.84 5.35,-4.13 v -4.58 c 0,-2.29 -2.38,-4.13 -5.35,-4.13 z m 0,-1.98 c -4.94,0 -8.92,2.31 -8.92,5.17 v 6.47 c 0,2.86 3.98,5.16 8.92,5.16 4.94,0 8.92,-2.3 8.92,-5.16 v -6.47 c 0,-2.86 -3.98,-5.17 -8.92,-5.17 z"
             id="path13411"
             style="fill:#f9f9f9;fill-opacity:1" /><path
             d="m 182.36,106.39 c -2.97,0 -5.36,1.85 -5.36,4.14 v 4.58 c 0,2.29 2.39,4.13 5.36,4.13 2.96,0 5.35,-1.84 5.35,-4.13 v -4.58 c 0,-2.29 -2.39,-4.14 -5.35,-4.14 z m 0,-1.97 c -4.95,0 -8.93,2.3 -8.93,5.16 v 6.47 c 0,2.86 3.98,5.16 8.93,5.16 4.94,0 8.92,-2.3 8.92,-5.16 v -6.47 c 0,-2.86 -3.98,-5.16 -8.92,-5.16 z"
             id="path13413"
             style="fill:#f9f9f9;fill-opacity:1" /></g><rect
           x="165.5"
           y="109.72"
           width="11.898"
           height="5.3042002"
           rx="0.64577001"
           ry="0.93810999"
           id="rect13417"
           style="fill:#f9f9f9;fill-opacity:1" /><rect
           x="154.60001"
           y="108.84"
           width="6.9405999"
           height="7.0721998"
           rx="0.37670001"
           ry="1.2508"
           id="rect13419"
           style="fill:#f9f9f9;fill-opacity:1" /><rect
           x="121.88"
           y="108.84"
           width="6.9405999"
           height="7.0721998"
           rx="0.37670001"
           ry="1.2508"
           id="rect13421"
           style="fill:#f9f9f9;fill-opacity:1" /><rect
           x="100.06"
           y="107.95"
           width="13.881"
           height="8.8402996"
           rx="0.75340003"
           ry="1.5635"
           id="rect13423"
           style="fill:#f9f9f9;fill-opacity:1" /><rect
           x="186.32001"
           y="108.84"
           width="12.89"
           height="8.8402996"
           rx="0.69959003"
           ry="1.5635"
           id="rect13425"
           style="fill:#f9f9f9;fill-opacity:1" /></g></g></g><path
     d="M 11.928629,54.897334 C 12.226794,28.165908 26.13831,19.799323 33.714037,19.799323 c 10.579831,-2e-6 14.949006,8.076849 15.663618,11.652537 0.713613,3.573007 4.717963,6.430981 6.004527,0.570007 C 56.669745,26.160893 69.11598,8.2887612 84.413617,8.2887612 98.42348,8.2887607 103.27537,22.736646 102.85575,35.02492 101.70932,68.478114 58.613973,95.180619 52.943352,112.03368 47.89243,101.82299 11.574741,87.06328 11.930732,54.896282 Z M 89.4159,0 C 76.835261,-2.2846541e-6 61.955664,9.2915315 52.949662,24.733247 50.519614,19.156751 41.861348,13.079658 31.569675,13.079658 c -8.293494,-1e-6 -31.57175079,10.36529 -31.57175079,43.819535 0,43.174337 43.68176679,52.044667 52.51161379,65.466647 0.606762,0.92279 2.561244,1.62 3.307143,-0.58489 C 62.86289,100.98675 117.4973,77.490794 117.4973,35.170419 117.49681,11.438364 101.99406,0.00141976 89.413954,0.00141976 Z"
     stroke-width="0.496942"
     id="path13433" /></svg>
