<?xml version="1.0" encoding="UTF-8" standalone="no"?>
<svg
   width="125.33"
   height="131.45125"
   xml:space="preserve"
   id="svg2"
   version="1.1"
   xmlns="http://www.w3.org/2000/svg"
   xmlns:svg="http://www.w3.org/2000/svg"
   xmlns:rdf="http://www.w3.org/1999/02/22-rdf-syntax-ns#"
   xmlns:cc="http://creativecommons.org/ns#"
   xmlns:dc="http://purl.org/dc/elements/1.1/"><metadata
     id="metadata39"><rdf:RDF><cc:Work
         rdf:about=""><dc:format>image/svg+xml</dc:format><dc:type
           rdf:resource="http://purl.org/dc/dcmitype/StillImage" /></cc:Work></rdf:RDF></metadata><defs
     id="defs4"><g
       id="petal"><line
         x1="0"
         y1="0"
         x2="25"
         y2="0"
         stroke="#ffd700"
         stroke-width="2"
         id="line7" /><circle
         cx="25"
         cy="0"
         r="5"
         fill="#ffd700"
         id="circle9" /></g><pattern
       y="0"
       x="0"
       height="6"
       width="6"
       patternUnits="userSpaceOnUse"
       id="EMFhbasepattern" /></defs><path
     style="fill:#d22730;fill-opacity:1;fill-rule:evenodd;stroke:none;stroke-width:0.530046px;stroke-linecap:butt;stroke-linejoin:miter;stroke-opacity:1"
     d="M 11.289447,36.237935 6.2888923,77.134466 57.43093,125.39324 87.661559,87.971816 118.34678,44.146277 106.98188,11.045884 83.1156,5.6330808 62.658783,19.924208 56.294441,31.845913 44.929544,19.202335 25.38192,19.776041 Z"
     id="path4174" /><path
     style="fill:#fed141;fill-opacity:1;stroke-width:0.530046"
     d="M 4.7199143,70.712981 7.6233578,37.436596 23.859211,19.768862 46.549577,18.236477 55.812603,30.736393 70.435888,13.113352 95.381488,5.1245898 105.82406,15.608543 16.811064,90.155915 Z"
     id="path6" /><path
     style="fill:#002f6c;fill-opacity:1;stroke-width:0.530046"
     d="M 7.6226799,46.873162 14.827183,27.010511 32.802438,17.696141 43.444331,21.066062 9.4090878,75.096623 Z"
     id="path8" /><path
     style="fill:#f9f9f9;fill-opacity:1;stroke-width:0.530046"
     d="M 56.331502,124.04554 64.765563,115.99601 87.56068,90.545711 105.72473,67.633453 25.40419,101.4341 Z"
     id="path10" /><path
     style="fill:#007a33;fill-opacity:1;stroke-width:0.530046"
     d="m 49.23491,117.35477 6.928721,6.49041 15.053381,-16.1632 L 86.346747,93.335159 33.584356,106.745 Z"
     id="path12" /><path
     d="M 12.723764,58.554755 C 13.041792,30.0425 27.87991,21.118638 35.960468,21.118638 c 11.284687,0 15.945385,8.614845 16.707062,12.429058 0.761147,3.811034 5.03226,6.859331 6.404551,0.607964 1.37335,-6.251368 14.648892,-25.3139561 30.96531,-25.3139561 14.943069,0 20.118439,15.4100391 19.670549,28.5170261 C 108.48513,73.040393 62.518972,101.5182 56.468493,119.50002 51.081101,108.60916 12.34372,92.866248 12.723764,58.554755 Z M 95.375488,0 C 81.956304,0 66.086184,9.9108075 56.480154,26.380939 53.888227,20.432758 44.653228,13.950821 33.675438,13.950821 24.829493,13.950821 0,25.006529 0,60.689252 c 0,46.050428 46.591608,55.509108 56.010533,69.822478 0.647186,0.9843 2.731859,1.72795 3.527458,-0.62386 C 67.053519,107.70808 125.33,82.647484 125.33,37.511913 125.32947,12.199018 108.79414,0 95.375488,0 Z"
     id="path29"
     style="stroke-width:0.530046" /></svg>
