<?xml version="1.0" encoding="UTF-8" standalone="no"?>
<!-- Created with Inkscape (http://www.inkscape.org/) -->

<svg
   width="125.33"
   height="131.45125"
   viewBox="0 0 33.160229 34.77981"
   version="1.1"
   id="svg5"
   xmlns="http://www.w3.org/2000/svg"
   xmlns:svg="http://www.w3.org/2000/svg">
  <defs
     id="defs2">
    <g
       id="petal">
      <line
         x1="0"
         y1="0"
         x2="25"
         y2="0"
         stroke="#ffd700"
         stroke-width="2"
         id="line7" />
      <circle
         cx="25"
         cy="0"
         r="5"
         fill="#ffd700"
         id="circle9" />
    </g>
    <pattern
       y="0"
       x="0"
       height="6"
       width="6"
       patternUnits="userSpaceOnUse"
       id="EMFhbasepattern" />
    <g
       id="petal-7">
      <line
         x1="0"
         y1="0"
         x2="25"
         y2="0"
         stroke="gold"
         stroke-width="2"
         id="line7-2" />
      <circle
         cx="25"
         cy="0"
         r="5"
         fill="gold"
         id="circle9-9" />
    </g>
    <pattern
       y="0"
       x="0"
       height="6"
       width="6"
       patternUnits="userSpaceOnUse"
       id="EMFhbasepattern-6" />
    <clipPath
       id="t">
      <path
         d="m0 0h63v63H0z"
         id="path2988" />
    </clipPath>
  </defs>
  <g
     id="layer1">
    <path
       style="fill:#006400;fill-opacity:1;fill-rule:evenodd;stroke:none;stroke-width:0.140241px;stroke-linecap:butt;stroke-linejoin:miter;stroke-opacity:1"
       d="M 2.9869995,9.5879536 1.6639361,20.408494 15.195267,33.176961 23.193787,23.275876 31.312586,11.680369 28.305623,2.9225567 21.991002,1.4904193 16.578469,5.2716132 14.894571,8.4258977 11.887608,5.0806177 6.7156329,5.2324108 Z"
       id="path4174" />
    <path
       id="path4457"
       d="M 1.6690571,9.7461371 1.6034453,20.032364 5.9391717,27.18367 22.885413,25.701066 29.509239,17.103258 31.466003,7.1392421 Z"
       style="fill:#ffd200;fill-opacity:1;fill-rule:evenodd;stroke:none;stroke-width:0.140241px;stroke-linecap:butt;stroke-linejoin:miter;stroke-opacity:1" />
    <path
       style="fill:#d40000;fill-opacity:1;fill-rule:evenodd;stroke:none;stroke-width:0.140241px;stroke-linecap:butt;stroke-linejoin:miter;stroke-opacity:1"
       d="M 1.096872,13.362201 2.7921538,23.896861 26.604616,21.813539 32.32428,10.626434 Z"
       id="path4453" />
    <rect
       x="1.795133"
       y="17.01663"
       width="28.462843"
       height="3.5622318"
       id="rect10"
       style="fill:#0b0e0e;fill-opacity:1;stroke-width:0.140241"
       transform="matrix(0.9961947,-0.08715576,0,1,0,0)" />
    <path
       style="fill:#0b0e0e;fill-opacity:1;stroke-width:0.140241"
       id="path4385"
       d="M 16.586564,17.30607 4.6457977,6.3226046 1.8739173,11.25618 0.56855821,16.227748 7.5960065,28.229368 Z" />
    <path
       d="M 15.858474,17.413429 4.4159163,6.7365997 1.2966494,16.281505 7.6852388,27.343702 Z"
       id="path8"
       style="fill:#f9f9f9;fill-opacity:1;stroke-width:0.140241" />
    <path
       d="m 3.3664958,15.492612 c 0.084145,-7.5438674 4.0100637,-9.9049723 6.1480445,-9.9049723 2.9857407,0 4.2188827,2.2793441 4.4204097,3.2885215 0.201387,1.008336 1.331453,1.8148648 1.694538,0.160857 0.363365,-1.6540076 3.875852,-6.6976507 8.192905,-6.6976507 3.953686,0 5.323004,4.0772393 5.2045,7.5451297 C 28.703356,19.32527 16.541478,26.860022 14.940622,31.617713 13.515208,28.736172 3.2659427,24.570861 3.3664958,15.492612 Z M 25.234764,0 C 21.684272,0 17.485303,2.6222344 14.943707,6.9799567 14.257926,5.4061673 11.8145,3.6911547 8.9099594,3.6911547 6.56947,3.6911547 0,6.6163107 0,16.057364 0,28.241541 12.327363,30.744149 14.819453,34.531229 14.990688,34.791657 15.542258,34.988416 15.75276,34.366165 17.741243,28.497762 33.160229,21.867147 33.160229,9.925027 33.160088,3.2276567 28.785117,0 25.234764,0 Z"
       id="path29"
       style="stroke-width:0.140241;fill:#000000;fill-opacity:1" />
    <g
       id="g3604"
       transform="matrix(1.6866461,-0.14756241,0,1.6866461,-2.7878614,34.840594)">
      <path
         fill="#d40000"
         d="M 6.7057475,-12.473962 8.4337223,-7.1557514 3.9097839,-10.442557 H 9.5017111 L 4.9777727,-7.1557514 Z"
         id="path3007"
         style="stroke-width:0.00104993" />
      <g
         fill="none"
         stroke="#000000"
         stroke-linejoin="round"
         stroke-linecap="round"
         stroke-width="38"
         id="g3019"
         transform="matrix(0.00104993,0,0,0.00104993,3.3459715,-15.801715)">
        <path
           fill="#ffd200"
           d="m 2290,4580 c -18,-45 -15,-95 8,-138 23,-42 65,-72 113,-80 51,-9 102,-12 154,-11 49,-76 131,-125 221,-132 90,-6 178,30 238,98 71,81 113,183 122,290 l 37,464 1412,1105 a 86,86 0 0 1 -76,150 l -59,-17 c -227,141 -395,387 -428,651 l -85,672 H 2454 l -198,-769 c -71,-86 -81,-207 -25,-303 73,-125 161,-241 262,-345 66,-66 96,-160 83,-253 -14,-92 -21,-185 -22,-278 -1,-77 16,-154 49,-223 l -19,-694 c -3,-82 -48,-157 -119,-197 z"
           id="path3009" />
        <path
           d="m 2465,4570 167,-10 m -29,901 580,-390 m 232,1167 c 229,64 372,45 439,-101 m -852,-566 c -62,179 50,338 200,381 l 1258,357 m -2040,631 c -47,-184 21,-513 312,-650 135,-63 179,-201 180,-318 0,-44 1,-95 64,-120 m -720,1011 44,-107 c 21,79 64,137 120,184 31,-65 58,-131 81,-198 26,52 47,123 65,194 -4,-161 81,-279 193,-329 l 434,-193 c 141,-63 276,-188 307,-378 m 742,460 H 3008 m -727,464 h 1751 m -1346,381 h 1297 m -1428,-381 131,381 v 291 m -63,-509 128,-128 128,128 128,-128 128,128 128,-128 128,128 128,-128 128,128 128,-128 128,128 124,-124 m -1366,269 90,-90 128,128 128,-128 128,128 128,-128 128,128 128,-128 128,128 128,-128 128,128 97,-97"
           id="path3011" />
        <circle
           r="76"
           cx="2799"
           cy="4459"
           id="circle3013" />
        <circle
           r="145"
           cx="3139"
           cy="6730"
           id="circle3015" />
        <circle
           r="145"
           cx="3714"
           cy="6730"
           id="circle3017" />
      </g>
    </g>
  </g>
</svg>
