<?xml version="1.0" encoding="UTF-8" standalone="no"?>
<svg
   width="125.33"
   height="131.45125"
   id="svg2"
   version="1.1"
   xmlns:xlink="http://www.w3.org/1999/xlink"
   xmlns="http://www.w3.org/2000/svg"
   xmlns:svg="http://www.w3.org/2000/svg"
   xmlns:rdf="http://www.w3.org/1999/02/22-rdf-syntax-ns#"
   xmlns:cc="http://creativecommons.org/ns#"
   xmlns:dc="http://purl.org/dc/elements/1.1/">
  <metadata
     id="metadata16">
    <rdf:RDF>
      <cc:Work
         rdf:about="">
        <dc:format>image/svg+xml</dc:format>
        <dc:type
           rdf:resource="http://purl.org/dc/dcmitype/StillImage" />
      </cc:Work>
    </rdf:RDF>
  </metadata>
  <defs
     id="defs14" />
  <g
     id="g14949">
    <path
       style="fill:#ee1c25;fill-opacity:1;fill-rule:evenodd;stroke:none;stroke-width:0.530046px;stroke-linecap:butt;stroke-linejoin:miter;stroke-opacity:1"
       d="M 8.3322742,44.91156 8.0860989,77.920626 32.949832,106.51728 55.844162,124.20833 76.522909,102.21278 107.29485,69.487158 119.11128,28.326737 97.201657,2.6719163 75.538205,9.7369099 65.198828,19.503809 56.090336,30.886248 48.705069,20.946826 32.949832,16.663192 16.456068,25.737652 Z"
       id="path4215" />
    <g
       id="g844"
       transform="matrix(0.15308639,-0.01339332,0,0.15308639,-12.631492,28.686301)"
       style="fill:#f9f9f9;fill-opacity:1">
      <g
         id="a"
         style="fill:#f9f9f9;fill-opacity:1">
        <path
           id="path4"
           style="fill:#f9f9f9;fill-opacity:1;stroke-width:0.288817"
           d="M 113.21875,78.820312 A 26.092333,26.092333 0 0 0 105.83789,129.03125 20.182727,20.182727 0 0 1 101,101.36523 a 4.5661582,4.5661582 0 0 0 0.32031,0.30274 19.747855,19.747855 0 0 0 4.92969,27.12305 11.162944,11.162944 0 0 1 3.12305,-18.57422 13.046166,13.046166 0 0 0 5.86133,-19.121097 8.0629741,8.0629741 0 0 1 4.30273,-12.070312 26.092333,26.092333 0 0 0 -6.31836,-0.205079 z m -10.75195,15.195313 2.20117,2.482422 3.04101,-1.326172 -1.68164,2.859375 2.20118,2.48242 -3.23829,-0.714842 -1.68164,2.861332 -0.32226,-3.300785 -3.238283,-0.714844 3.041013,-1.326172 z"
           transform="matrix(3.4624004,0,0,3.4624004,79.04978,-148.42275)" />
      </g>
      <g
         id="b"
         style="fill:#f9f9f9;fill-opacity:1">
        <use
           xlink:href="#a"
           transform="rotate(72,450,300)"
           id="use9"
           x="0"
           y="0"
           width="100%"
           height="100%"
           style="fill:#f9f9f9;fill-opacity:1" />
        <use
           xlink:href="#a"
           transform="rotate(-144,450,300)"
           id="use11"
           x="0"
           y="0"
           width="100%"
           height="100%"
           style="fill:#f9f9f9;fill-opacity:1" />
      </g>
      <use
         xlink:href="#b"
         transform="rotate(72,450,300)"
         id="use14"
         x="0"
         y="0"
         width="100%"
         height="100%"
         style="fill:#f9f9f9;fill-opacity:1" />
    </g>
    <path
       d="M 12.723764,58.554755 C 13.041792,30.0425 27.87991,21.118638 35.960468,21.118638 c 11.284687,0 15.945385,8.614845 16.707062,12.429058 0.761147,3.811034 5.03226,6.859331 6.404551,0.607964 1.37335,-6.251368 14.648892,-25.3139561 30.96531,-25.3139561 14.943069,0 20.118439,15.4100391 19.670549,28.5170261 C 108.48513,73.040393 62.518972,101.5182 56.468493,119.50002 51.081101,108.60916 12.34372,92.866248 12.723764,58.554755 Z M 95.375488,0 C 81.956304,0 66.086184,9.9108075 56.480154,26.380939 53.888227,20.432758 44.653228,13.950821 33.675438,13.950821 24.829493,13.950821 0,25.006529 0,60.689252 c 0,46.050428 46.591608,55.509108 56.010533,69.822478 0.647186,0.9843 2.731859,1.72795 3.527458,-0.62386 C 67.053519,107.70808 125.33,82.647484 125.33,37.511913 125.32947,12.199018 108.79414,0 95.375488,0 Z"
       id="path10"
       style="stroke-width:0.530046" />
  </g>
</svg>
