<?xml version="1.0" encoding="utf-8"?>
<svg id="LOGO_LAYER" viewBox="0 0 125.33 131.4429" version="1.1" width="125.33" height="131.4429" xmlns="http://www.w3.org/2000/svg">
  <defs id="defs1">
    <style id="style1">.cls-1{fill:#f9f9f9;}.cls-2{fill:#d7141a;}.cls-3{fill:#11457e;}</style>
  </defs>
  <g id="LOGO_GROUP" transform="translate(-232.76,-97.88)">
    <path class="cls-1" d="M 342.631 154.919 C 353.187 78.324 299.192 105.684 289.301 128.839 C 278.059 110.662 250.9 114.732 247.527 135.74 L 293.69 160.76 C 293.69 160.76 341.632 162.164 342.631 154.919 Z" id="path2" style="fill: rgb(255, 255, 255);"/>
    <path class="cls-2" d="M 293.68 160.76 C 237.039 188.501 248.44 189.971 289.381 218.66 C 338.71 161.616 341.49 156.493 336.8 156.23 L 293.68 160.76 Z" id="path1"/>
    <path class="cls-3" d="M 293.68 160.76 L 249.13 135.74 C 235.053 143.136 243.205 181.16 258.04 188.26 L 293.68 160.75 L 293.68 160.76 Z" id="path3"/>
    <path d="m 328.12,97.88 c -13.42,0 -29.29,9.91 -38.89,26.38 -2.59,-5.95 -11.83,-12.43 -22.8,-12.43 -8.84,0 -33.67,11.05 -33.67,46.73 0,46.05 46.59,55.51 56.01,69.82 0.65,0.99 2.73,1.73 3.53,-0.62 7.51,-22.18 65.79,-47.24 65.79,-92.37 0,-25.31 -16.53,-37.51 -29.95,-37.51 z m 14.33,37.36 c -0.25,7.31 -2.38,14.32 -5.66,20.99 -12.72,25.91 -42.77,46.84 -47.58,61.14 -3.34,-6.75 -19.48,-15.36 -31.18,-29.1 -7.18,-8.43 -12.7,-18.79 -12.56,-31.84 0.1,-8.57 1.51,-15.36 3.65,-20.68 4.98,-12.37 13.93,-16.75 19.58,-16.75 11.28,0 15.94,8.61 16.71,12.43 0.76,3.81 5.03,6.86 6.4,0.61 1.37,-6.25 14.65,-25.31 30.96,-25.31 14.94,0 20.12,15.41 19.67,28.52 z" id="path4"/>
  </g>
</svg>