<?xml version="1.0" encoding="UTF-8" standalone="no"?>
<svg
   width="125.33"
   height="131.45511"
   version="1.1"
   xml:space="preserve"
   id="svg11767"
   sodipodi:docname="EuroPalestine.svg"
   inkscape:version="1.1.1 (3bf5ae0d25, 2021-09-20)"
   xmlns:inkscape="http://www.inkscape.org/namespaces/inkscape"
   xmlns:sodipodi="http://sodipodi.sourceforge.net/DTD/sodipodi-0.dtd"
   xmlns="http://www.w3.org/2000/svg"
   xmlns:svg="http://www.w3.org/2000/svg"
   xmlns:rdf="http://www.w3.org/1999/02/22-rdf-syntax-ns#"
   xmlns:cc="http://creativecommons.org/ns#"
   xmlns:dc="http://purl.org/dc/elements/1.1/"><sodipodi:namedview
     id="namedview11769"
     pagecolor="#ffffff"
     bordercolor="#666666"
     borderopacity="1.0"
     inkscape:pageshadow="2"
     inkscape:pageopacity="0.0"
     inkscape:pagecheckerboard="0"
     showgrid="false"
     fit-margin-top="0"
     fit-margin-left="0"
     fit-margin-right="0"
     fit-margin-bottom="0"
     inkscape:zoom="4.86"
     inkscape:cx="47.427984"
     inkscape:cy="68.621399"
     inkscape:window-width="1920"
     inkscape:window-height="1017"
     inkscape:window-x="-8"
     inkscape:window-y="-8"
     inkscape:window-maximized="1"
     inkscape:current-layer="svg11767" /><metadata
     id="metadata11751"><rdf:RDF><cc:Work
         rdf:about=""><dc:format>image/svg+xml</dc:format><dc:type
           rdf:resource="http://purl.org/dc/dcmitype/StillImage" /></cc:Work></rdf:RDF></metadata><defs
     id="defs11753" /><g
     id="g12142"><g
       id="g11763"
       transform="matrix(0.53005984,0,0,0.53005984,-0.52846967,-0.53005984)"><path
         d="m 35,161 145,-14 -71,92 z"
         fill="#009639"
         id="path11755" /><path
         d="M 220.215,73.911 188,148 32,162 15,92 Z"
         fill="#fff"
         id="path11757"
         style="fill:#f9f9f9;fill-opacity:1" /><path
         d="M 29,54 72,33 108,58 149,18 207,13 226,75 13,94 Z"
         id="path11759"
         style="fill:#0b0e0e;fill-opacity:1" /><path
         d="M 92.514,124.98 29.533,50.341 12.364,117.067 47.527,194.4 Z"
         fill="#ed2e38"
         stroke-width="0.88732"
         id="path11761" /></g><path
       d="M 12.725677,58.555711 C 13.043713,30.042732 27.882208,21.118644 35.96297,21.118644 c 11.284974,0 15.945791,8.615063 16.707487,12.429374 0.761166,3.81113 5.032388,6.859504 6.404713,0.607978 1.373385,-6.251526 14.649264,-25.3145978 30.966096,-25.3145978 14.943444,0 20.118954,15.4104298 19.671054,28.5177498 C 108.48947,73.041717 62.522149,101.51759 56.473106,119.50252 51.085578,108.61138 12.347214,92.868075 12.727267,58.556241 Z M 95.377908,0 C 81.958383,0 66.087861,9.911059 56.481587,26.381609 53.889594,20.433277 44.654362,13.951175 33.676292,13.951175 24.830123,13.951175 0,25.007163 0,60.690792 c 0,46.051598 46.59279,55.507868 56.011424,69.824788 0.647203,0.98432 2.731928,1.72799 3.527548,-0.62388 C 67.054691,107.71134 125.33,82.650111 125.33,37.512865 125.32947,12.199327 108.79372,0 95.374728,0 Z"
       id="path11765"
       style="stroke-width:0.53006;fill:#000000;fill-opacity:1" /></g></svg>
