<?xml version="1.0" encoding="utf-8"?>
<svg id="LOGO_LAYER" viewBox="0 0 125.33 131.4429" version="1.1" width="125.33" height="131.4429" xmlns="http://www.w3.org/2000/svg">
  <defs id="defs1133">
    <style id="style1131">.cls-1{fill:#005eb8;}.cls-2{fill:#ef3340;}.cls-3{fill:#f9f9f9;}</style>
  </defs>
  <g id="SELECT_FLAG_HERE" transform="translate(-232.76,-97.88)">
    <g id="BLACK_FLAG">
      <path class="cls-3" d="M 241.215 154.715 C 238.92 145.694 252.657 115.713 264.909 117.034 C 265.416 117.089 278.025 117.566 278.95 118.039 C 279.288 118.212 288.858 130.849 288.125 130.124 C 287.003 129.014 295.548 120.783 300.982 115.747 C 309.502 107.85 317.053 105.591 324.494 105.54 C 347.384 105.383 346.998 124.382 348.489 137.599 C 348.822 140.552 346.134 147.29 345.464 150.16 L 331.02 174.388 C 330.082 176.654 297.418 210.654 289.278 221.204 L 267.045 202.983 C 253.443 199.229 233.424 157.375 241.215 154.715 Z" id="path1141" style="fill: rgb(255, 255, 255);"/>
      <path class="cls-1" d="M 270.19 119.06 C 273.629 110.39 289.357 135.235 294.51 126.13 L 294.51 148.91 L 341.25 144 C 350.924 147.699 344.549 169.774 328.53 169.67 L 294.52 173.24 L 294.52 208.36 C 296.82 211.6 290.831 222.771 289.402 222.331 C 288.841 222.241 261.287 199.655 270.18 200.09 L 270.18 175.8 L 250.81 177.84 C 235.29 175.98 241.156 154.83 245.54 154.05 L 270.19 151.46 L 270.19 119.06 Z" id="path1147"/>
      <path class="cls-2" d="M 288.44 133.51 C 288.644 127.173 282.619 120.493 276.27 119.54 L 276.27 156.91 L 245.6 160.13 C 243.108 163.784 241.526 167.193 248.19 172.02 L 276.27 169.07 L 276.27 206.04 C 281.66 210.34 286.24 213.91 288.44 217.07 L 288.44 167.79 L 332.96 163.11 C 345.672 159.927 342.283 155.12 339.36 150.27 L 288.44 155.62 L 288.44 133.51 Z" id="path1151"/>
      <path d="m 328.12,97.88 c -13.42,0 -29.29,9.91 -38.89,26.38 -2.59,-5.95 -11.83,-12.43 -22.8,-12.43 -8.84,0 -33.67,11.05 -33.67,46.73 0,46.05 46.59,55.51 56.01,69.82 0.65,0.99 2.73,1.73 3.53,-0.62 7.51,-22.18 65.79,-47.24 65.79,-92.37 0,-25.31 -16.53,-37.51 -29.95,-37.51 z m 14.33,37.36 c -0.1,2.97 -0.52,5.89 -1.19,8.76 -0.5,2.12 -1.14,4.22 -1.9,6.28 -1.63,4.42 -3.83,8.7 -6.4,12.84 -1.38,2.22 -2.86,4.41 -4.43,6.55 -11.03,15.11 -25.87,28.15 -34.01,38.69 -2.5,3.24 -4.37,6.25 -5.3,9.01 -0.21,-0.42 -0.47,-0.86 -0.78,-1.29 -2.2,-3.16 -6.78,-6.73 -12.17,-11.03 -1.95,-1.55 -4,-3.2 -6.08,-4.96 -7.09,-5.98 -14.53,-13.21 -19.37,-22.26 -0.99,-1.86 -1.88,-3.79 -2.62,-5.81 -1.37,-3.68 -2.28,-7.64 -2.59,-11.89 -0.09,-1.21 -0.13,-2.45 -0.12,-3.71 0,-0.81 0.03,-1.59 0.07,-2.37 1.09,-26.63 15.32,-35.06 23.17,-35.06 0.51,0 0.99,0.04 1.48,0.07 2.32,0.16 4.35,0.7 6.08,1.48 5.89,2.65 8.59,8.07 9.15,10.88 0.39,1.93 1.67,3.65 3.02,4.09 1.32,0.42 2.71,-0.39 3.39,-3.48 0.31,-1.43 1.25,-3.52 2.7,-5.9 4.9,-8.06 15.67,-19.41 28.26,-19.41 14.94,0 20.12,15.41 19.67,28.52 z" id="path1153"/>
    </g>
  </g>
</svg>