<?xml version="1.0" encoding="UTF-8" standalone="no"?>
<svg
   width="125.33"
   height="131.45125"
   id="svg2"
   version="1.1"
   xmlns="http://www.w3.org/2000/svg"
   xmlns:svg="http://www.w3.org/2000/svg"
   xmlns:rdf="http://www.w3.org/1999/02/22-rdf-syntax-ns#"
   xmlns:cc="http://creativecommons.org/ns#"
   xmlns:dc="http://purl.org/dc/elements/1.1/">
  <metadata
     id="metadata16">
    <rdf:RDF>
      <cc:Work
         rdf:about="">
        <dc:format>image/svg+xml</dc:format>
        <dc:type
           rdf:resource="http://purl.org/dc/dcmitype/StillImage" />
      </cc:Work>
    </rdf:RDF>
  </metadata>
  <defs
     id="defs14" />
  <path
     style="fill:#a51931;fill-opacity:1;fill-rule:evenodd;stroke:none;stroke-width:0.530046px;stroke-linecap:butt;stroke-linejoin:miter;stroke-opacity:1"
     d="M 5.4619717,45.262197 6.383821,72.837014 18.59832,93.662299 40.492233,111.10565 56.85505,123.73229 67.91724,108.24535 93.037623,84.384155 114.93153,53.430447 116.31431,21.044753 98.79918,5.5229223 78.288038,7.7783397 66.76493,16.852659 56.163663,30.455573 49.249798,21.841968 33.578365,16.99056 17.446009,24.624438 Z"
     id="path4168" />
  <path
     style="fill:#f4f5f8;fill-opacity:1;fill-rule:evenodd;stroke:none;stroke-width:0.530046px;stroke-linecap:butt;stroke-linejoin:miter;stroke-opacity:1"
     d="M 12.836764,30.073016 4.3096607,63.569529 26.019137,102.99104 83.127748,97.994686 109.16998,63.383467 l 9.44895,-28.712608 -3.91785,-13.509814 -55.080481,4.818917 -3.687395,4.726236 -3.687397,-4.081026 z"
     id="path4166" />
  <path
     style="fill:#2d2a4a;fill-opacity:1;stroke-width:0.530046"
     d="M 116.19412,38.646213 99.118676,77.91682 16.431438,85.337469 7.4206495,48.234222 Z"
     id="path6" />
  <path
     d="M 12.723764,58.554755 C 13.041792,30.0425 27.87991,21.118638 35.960468,21.118638 c 11.284687,0 15.945385,8.614845 16.707062,12.429058 0.761147,3.811034 5.03226,6.859331 6.404551,0.607964 1.37335,-6.251368 14.648892,-25.3139561 30.96531,-25.3139561 14.943069,0 20.118439,15.4100391 19.670549,28.5170261 C 108.48513,73.040393 62.518972,101.5182 56.468493,119.50002 51.081101,108.60916 12.34372,92.866248 12.723764,58.554755 Z M 95.375488,0 C 81.956304,0 66.086184,9.9108075 56.480154,26.380939 53.888227,20.432758 44.653228,13.950821 33.675438,13.950821 24.829493,13.950821 0,25.006529 0,60.689252 c 0,46.050428 46.591608,55.509108 56.010533,69.822478 0.647186,0.9843 2.731859,1.72795 3.527458,-0.62386 C 67.053519,107.70808 125.33,82.647484 125.33,37.511913 125.32947,12.199018 108.79414,0 95.375488,0 Z"
     id="path10"
     style="fill:#000000;fill-opacity:1;stroke-width:0.530046" />
</svg>
