<?xml version="1.0" encoding="UTF-8" standalone="no"?>
<svg
   width="125.33"
   height="131.45511"
   version="1.1"
   xml:space="preserve"
   id="svg13398"
   xmlns="http://www.w3.org/2000/svg"
   xmlns:svg="http://www.w3.org/2000/svg"
   xmlns:rdf="http://www.w3.org/1999/02/22-rdf-syntax-ns#"
   xmlns:cc="http://creativecommons.org/ns#"
   xmlns:dc="http://purl.org/dc/elements/1.1/"><metadata
     id="metadata13226"><rdf:RDF><cc:Work
         rdf:about=""><dc:format>image/svg+xml</dc:format><dc:type
           rdf:resource="http://purl.org/dc/dcmitype/StillImage" /></cc:Work></rdf:RDF></metadata><defs
     id="defs13228" /><path
     d="M 11.291335,36.238601 6.2906442,77.136429 57.433998,125.39626 87.665432,87.974032 118.35166,44.147624 106.98664,11.046447 83.119638,5.633476 62.662509,19.92495 56.29808,31.847056 44.933067,19.203008 25.38499,19.776745 Z"
     fill="#fff"
     fill-rule="evenodd"
     id="path13230"
     style="fill:#f9f9f9;fill-opacity:1;stroke-width:0.53006" /><g
     transform="matrix(5.6090933,-0.4907347,0,5.6090933,34.9866,44.310883)"
     fill="#0038a8"
     id="g13240"><rect
       x="5"
       y="-3"
       width="9.8319998"
       height="2"
       id="rect13232" /><rect
       x="5"
       y="1"
       width="9.448"
       height="2"
       id="rect13234" /><rect
       x="-4.4026999"
       y="5.0335999"
       width="17.187"
       height="1.9328001"
       id="rect13236" /><rect
       x="-1.7573"
       y="9"
       width="10.403"
       height="2"
       id="rect13238" /></g><g
     transform="matrix(0.60569938,-0.05299273,0,0.60569938,45.288843,-46.740677)"
     id="g13396"><g
       stroke="#7b3f00"
       stroke-miterlimit="20"
       id="g13352"><g
         fill="#fcd116"
         id="g13342"><path
           d="m -19.106,157.89 3.0655,4.5775 c -12.596,9.1158 -4.9062,14.506 -13.833,17.424 5.552,-5.4183 -0.73387,-6.254 3.944,-17.547"
           stroke-linecap="square"
           stroke-width="0.611"
           id="path13244" /><g
           transform="matrix(0.38982,0.94111,-0.94111,0.38982,-17.009,148.83)"
           stroke-width="0.6"
           id="g13252"><path
             d="M 1.5,9 6,12 C -2,25 7,27 0,33 3,26 -3.0116,27.4188 -3.0116,15.419"
             stroke-linecap="square"
             id="path13246" /><path
             d="m 1.501,9 -1.304,2.03 0.1,0.015 c -0.99,6.447 0.12,10.63 0.933,13.883 0.406,1.627 0.745,3.026 0.687,4.367 a 5.658,5.658 0 0 1 -0.71,2.538 C 5.856,26.68 -1.456,24.12 6.002,12 Z"
             fill="#7b3f00"
             stroke-linecap="square"
             stroke-width="0.273"
             id="path13248" /><path
             d="M 0,11 C -2,24 4.5,28 0,33"
             fill="none"
             id="path13250" /></g><path
           d="m -17.009,148.83 -4.3217,-4.3218 -19.448,28.091 28.091,-19.448 -4.3217,-4.3218 -23.77,23.77"
           stroke-width="0.611"
           id="path13254" /><g
           stroke-width="0.6"
           id="g13340"><g
             transform="matrix(0,1.0186,-1.0186,0,-17.009,148.83)"
             id="g13268"><g
               transform="rotate(22.5)"
               id="g13262"><path
                 d="M 1.5,9 6,12 C -2,25 7,27 0,33 3,26 -3.0252,27.5526 -3.0252,15.553"
                 stroke-linecap="square"
                 id="path13256" /><path
                 d="m 1.501,9 -1.304,2.03 0.1,0.015 c -0.99,6.447 0.12,10.63 0.933,13.883 0.406,1.627 0.745,3.026 0.687,4.367 a 5.658,5.658 0 0 1 -0.71,2.538 C 5.856,26.68 -1.456,24.12 6.002,12 Z"
                 fill="#7b3f00"
                 stroke-linecap="square"
                 stroke-width="0.273"
                 id="path13258" /><path
                 d="M 0,11 C -2,24 4.5,28 0,33"
                 fill="none"
                 id="path13260" /></g><path
               d="M 0,0 H -6 L 0,33 6,0 H 0 v 33"
               id="path13264" /><path
               d="M 0,0 H 6 0 V 33 L 6,0"
               fill="#7b3f00"
               stroke="none"
               id="path13266" /></g><g
             transform="matrix(-0.72029,0.72029,-0.72029,-0.72029,-17.009,148.83)"
             id="g13282"><g
               transform="rotate(22.5)"
               id="g13276"><path
                 d="M 1.5,9 6,12 C -2,25 7,27 0,33 3,26 -3.0161,26.7577 -3.0161,14.758"
                 stroke-linecap="square"
                 id="path13270" /><path
                 d="m 1.501,9 -1.304,2.03 0.1,0.015 c -0.99,6.447 0.12,10.63 0.933,13.883 0.406,1.627 0.745,3.026 0.687,4.367 a 5.658,5.658 0 0 1 -0.71,2.538 C 5.856,26.68 -1.456,24.12 6.002,12 Z"
                 fill="#7b3f00"
                 stroke-linecap="square"
                 stroke-width="0.273"
                 id="path13272" /><path
                 d="M 0,11 C -2,24 4.5,28 0,33"
                 fill="none"
                 id="path13274" /></g><path
               d="M 0,0 H -6 L 0,33 6,0 H 0 v 33"
               id="path13278" /><path
               d="M 0,0 H 6 0 V 33 L 6,0"
               fill="#7b3f00"
               stroke="none"
               id="path13280" /></g><g
             transform="matrix(-1.0186,0,0,-1.0186,-17.009,148.83)"
             id="g13310"><g
               transform="rotate(22.5)"
               id="g13290"><path
                 d="M 1.5,9 6,12 C -2,25 7,27 0,33 3,26 -3.0077,27.539 -3.0077,15.539"
                 stroke-linecap="square"
                 id="path13284" /><path
                 d="m 1.501,9 -1.304,2.03 0.1,0.015 c -0.99,6.447 0.12,10.63 0.933,13.883 0.406,1.627 0.745,3.026 0.687,4.367 a 5.658,5.658 0 0 1 -0.71,2.538 C 5.856,26.68 -1.456,24.12 6.002,12 Z"
                 fill="#7b3f00"
                 stroke-linecap="square"
                 stroke-width="0.273"
                 id="path13286" /><path
                 d="M 0,11 C -2,24 4.5,28 0,33"
                 fill="none"
                 id="path13288" /></g><path
               d="M 0,0 H -6 L 0,33 6,0 H 0 v 33"
               id="path13292" /><path
               d="M 0,0 H 6 0 V 33 L 6,0"
               fill="#7b3f00"
               stroke="none"
               id="path13294" /><g
               transform="rotate(45)"
               id="g13308"><g
                 transform="rotate(22.5)"
                 id="g13302"><path
                   d="M 1.5,9 6,12 C -2,25 7,27 0,33 3,26 -2.9511,27.2072 -2.9511,15.207"
                   stroke-linecap="square"
                   id="path13296" /><path
                   d="m 1.501,9 -1.304,2.03 0.1,0.015 c -0.99,6.447 0.12,10.63 0.933,13.883 0.406,1.627 0.745,3.026 0.687,4.367 a 5.658,5.658 0 0 1 -0.71,2.538 C 5.856,26.68 -1.456,24.12 6.002,12 Z"
                   fill="#7b3f00"
                   stroke-linecap="square"
                   stroke-width="0.273"
                   id="path13298" /><path
                   d="M 0,11 C -2,24 4.5,28 0,33"
                   fill="none"
                   id="path13300" /></g><path
                 d="M 0,0 H -6 L 0,33 6,0 H 0 v 33"
                 id="path13304" /><path
                 d="M 0,0 H 6 0 V 33 L 6,0"
                 fill="#7b3f00"
                 stroke="none"
                 id="path13306" /></g></g><g
             transform="matrix(0,-1.0186,1.0186,0,-17.009,148.83)"
             id="g13324"><g
               transform="rotate(22.5)"
               id="g13318"><path
                 d="M 1.5,9 6,12 C -2,25 7,27 0,33 3,26 -3.0168,27.4115 -3.0168,15.412"
                 stroke-linecap="square"
                 id="path13312" /><path
                 d="m 1.501,9 -1.304,2.03 0.1,0.015 c -0.99,6.447 0.12,10.63 0.933,13.883 0.406,1.627 0.745,3.026 0.687,4.367 a 5.658,5.658 0 0 1 -0.71,2.538 C 5.856,26.68 -1.456,24.12 6.002,12 Z"
                 fill="#7b3f00"
                 stroke-linecap="square"
                 stroke-width="0.273"
                 id="path13314" /><path
                 d="M 0,11 C -2,24 4.5,28 0,33"
                 fill="none"
                 id="path13316" /></g><path
               d="M 0,0 H -6 L 0,33 6,0 H 0 v 33"
               id="path13320" /><path
               d="M 0,0 H 6 0 V 33 L 6,0"
               fill="#7b3f00"
               stroke="none"
               id="path13322" /></g><g
             transform="matrix(0.72029,-0.72029,0.72029,0.72029,-17.009,148.83)"
             id="g13338"><g
               transform="rotate(22.5)"
               id="g13332"><path
                 d="M 1.5,9 6,12 C -2,25 7,27 0,33 3,26 -2.9819,27.3397 -2.9819,15.34"
                 stroke-linecap="square"
                 id="path13326" /><path
                 d="m 1.501,9 -1.304,2.03 0.1,0.015 c -0.99,6.447 0.12,10.63 0.933,13.883 0.406,1.627 0.745,3.026 0.687,4.367 a 5.658,5.658 0 0 1 -0.71,2.538 C 5.856,26.68 -1.456,24.12 6.002,12 Z"
                 fill="#7b3f00"
                 stroke-linecap="square"
                 stroke-width="0.273"
                 id="path13328" /><path
                 d="M 0,11 C -2,24 4.5,28 0,33"
                 fill="none"
                 id="path13330" /></g><path
               d="M 0,0 H -6 L 0,33 6,0 H 0 v 33"
               id="path13334" /><path
               d="M 0,0 H 6 0 V 33 L 6,0"
               fill="#7b3f00"
               stroke="none"
               id="path13336" /></g></g></g><path
         d="m -19.105,157.89 -2.0185,1.4021 0.08826,0.0531 c -3.4449,5.6814 -4.0308,10.051 -4.5338,13.429 -0.25215,1.6894 -0.47847,3.1382 -1.0558,4.3776 a 5.7635,5.7635 0 0 1 -1.6575,2.1118 c 6.3839,-3.0372 0.50051,-8.2968 12.244,-16.796 z"
         fill="#7b3f00"
         stroke-linecap="square"
         stroke-width="0.278"
         id="path13344" /><g
         stroke-width="0.611"
         id="g13350"><path
           d="m -21.297,159.19 c -6.9499,11.455 -2.3919,17.753 -8.576,20.704"
           fill="none"
           id="path13346" /><path
           d="m -17.009,148.83 h -6.1119 l 6.1119,33.615 6.1119,-33.615 h -6.1119 v 33.615"
           fill="#fcd116"
           id="path13348" /></g></g><path
       d="m -17.009,148.83 h 6.1119 -6.1119 v 33.615 l 6.1119,-33.615"
       fill="#7b3f00"
       id="path13354" /><path
       d="m -17.009,148.83 4.3217,4.3218 -4.3217,-4.3218 -23.77,23.77 28.091,-19.448"
       fill="#7b3f00"
       id="path13356" /><circle
       cx="-17.009001"
       cy="148.83"
       r="11.205"
       fill="#fcd116"
       stroke="#7b3f00"
       stroke-miterlimit="20"
       stroke-width="0.611"
       id="circle13358" /><g
       fill="#7b3f00"
       id="g13394"><path
         d="m -8.7579,144.35 c -0.71305,0.81492 -1.1205,-0.61119 -3.6671,-0.61119 -2.5466,0 -2.9541,1.528 -3.3615,1.2224 -0.40746,-0.3056 2.1392,-2.1392 2.9541,-2.241 0.81492,-0.10187 3.1578,0.71305 4.0746,1.6298 m -2.9541,0.91678 c 0.71305,0.61119 0.10186,1.9354 -0.61119,1.9354 -0.71305,0 -2.0373,-1.2224 -1.4261,-2.0373"
         id="path13360" /><path
         d="m -15.074,146.18 c 0.10186,-1.2224 1.1205,-1.4261 2.7503,-1.4261 1.6298,0 2.3429,1.2224 2.9541,1.528 -0.71305,0 -1.3242,-1.0186 -2.9541,-1.0186 -1.6298,0 -1.6298,0 -2.7503,1.0186 m 0.30559,0.20372 c 0.40746,-0.61118 0.91678,0.61119 2.0373,0.61119 1.1205,0 1.7317,-0.30559 2.4448,-0.81491 0.71305,-0.50933 -1.0186,1.2224 -2.1392,1.2224 -1.1206,0 -2.6485,-0.61119 -2.3429,-1.0186"
         id="path13362" /><path
         d="m -22.713,145.17 c -0.50932,0.20373 -1.3242,1.2222 0,1.9353 -1.0186,-0.71305 -0.20373,-1.7316 0,-1.9353 z"
         id="path13364" /><path
         d="m -11.304,145.17 c 0.20373,0.20373 1.0186,1.2222 0,1.9353 1.3242,-0.71305 0.50932,-1.7316 0,-1.9353 z"
         id="path13366" /><path
         d="m -18.639,149.55 c -0.91678,0.20372 -0.61135,1.528 -1.4263,1.6299 -0.81492,0.10187 -1.2222,1.0186 -1.1203,0.91674 0.50932,-0.40746 1.6299,-0.71313 2.4448,-0.71313 0.81492,0 1.0186,0.50952 1.7317,0.50952 0.7131,0 0.91676,-0.50952 1.7317,-0.50952 0.81492,0 1.9355,0.30567 2.4448,0.71313 0.10186,0.10186 -0.30543,-0.81487 -1.1203,-0.91674 -0.81492,-0.10186 -0.50949,-1.4262 -1.4263,-1.6299 0,0.40745 0.30534,0.30555 0.40721,0.91674 0,0.50932 -0.91662,0.50932 -1.1203,0 0.20373,0.81491 -0.40742,0.81493 -0.91674,0.81493 -0.50932,0 -1.1205,-2e-5 -0.91674,-0.81493 -0.20373,0.50932 -1.1203,0.50932 -1.1203,0 0.10186,-0.61119 0.40721,-0.50929 0.40721,-0.91674 z"
         id="path13368" /><path
         d="m -21.797,153.01 c -0.81492,0.61119 -1.0185,0.91682 -1.1203,1.6299 0.24432,-0.42756 0.36431,-0.60327 0.54984,-0.85472 -0.0491,-0.0211 -0.09131,-0.0405 -0.14211,-0.062 0.0593,0.007 0.11242,0.0163 0.1695,0.0243 0.1232,-0.1664 0.23265,-0.31052 0.54312,-0.73742 z"
         id="path13370" /><path
         d="m -22.34,153.75 c -0.0029,0.004 -0.01005,0.0137 -0.01291,0.0176 0.12735,0.0296 0.26244,0.0434 0.40411,0.0439 -0.12444,-0.022 -0.25524,-0.0425 -0.39119,-0.0615 z"
         id="path13372" /><path
         d="m -21.949,153.81 c 0.63523,0.11214 1.134,0.2583 1.5911,0.40617 0.57016,-0.0422 1.3566,-0.18655 3.3486,-0.18655 1.992,0 2.7785,0.14436 3.3486,0.18655 0.45716,-0.14787 0.95588,-0.29403 1.5911,-0.40617 -1.1225,0.004 -2.6186,-0.79892 -3.3099,-0.79892 -0.81492,0 -1.0187,0.20361 -1.6299,0.20361 -0.6112,0 -0.81496,-0.20361 -1.6299,-0.20361 -0.69128,0 -2.1874,0.80298 -3.3099,0.79892 z"
         id="path13374" /><path
         d="m -12.069,153.81 c 0.14167,-5.3e-4 0.27676,-0.0143 0.40411,-0.0439 -0.0029,-0.004 -0.01,-0.0136 -0.01291,-0.0176 -0.13595,0.019 -0.26675,0.0395 -0.39119,0.0615 z"
         id="path13376" /><path
         d="m -11.678,153.75 c 0.05708,-0.008 0.1102,-0.0169 0.1695,-0.0243 -0.0508,0.0215 -0.09301,0.0409 -0.14211,0.062 0.18553,0.25145 0.30552,0.42716 0.54984,0.85472 -0.10186,-0.71305 -0.30543,-1.0187 -1.1203,-1.6299 0.31047,0.4269 0.41993,0.57102 0.54312,0.73742 z"
         id="path13378" /><path
         d="m -11.651,153.78 c -0.0011,-0.002 -0.004,-0.006 -0.0052,-0.007 -1.0631,0.40958 -1.4374,0.47916 -2.0045,0.43718 -0.96581,0.31241 -1.762,0.62839 -3.3486,0.62839 -1.5866,0 -2.3828,-0.31598 -3.3486,-0.62839 -0.56713,0.042 -0.94142,-0.0276 -2.0045,-0.43718 -0.0011,0.002 -0.004,0.006 -0.0052,0.007 3.2,1.3774 2.8502,1.8733 5.3583,1.8733 2.5081,0 2.1583,-0.49592 5.3583,-1.8733 z"
         id="path13380" /><path
         d="m -22.362,153.78 c 0.0021,-0.003 0.0072,-0.0101 0.0093,-0.0129 -0.0531,-0.0123 -0.10655,-0.0236 -0.15658,-0.0419 0.05815,0.0228 0.09302,0.0339 0.14728,0.0548 z"
         id="path13382" /><path
         d="m -11.656,153.78 c 0.05426,-0.0209 0.08913,-0.032 0.14728,-0.0548 -0.05003,0.0182 -0.10348,0.0295 -0.15658,0.0418 0.0021,0.003 0.0072,0.0101 0.0093,0.0129 z"
         id="path13384" /><g
         transform="matrix(-0.10186,0,0,0.10186,-17.009,148.83)"
         id="g13390"><path
           d="m 81,-44 c -7,8 -11,-6 -36,-6 -25,0 -29,15 -33,12 -4,-3 21,-21 29,-22 8,-1 31,7 40,16 m -29,9 c 7,6 1,19 -6,19 -7,0 -20,-12 -14,-20"
           id="path13386" /><path
           d="m 19,-26 c 1,-12 11,-14 27,-14 16,0 23,12 29,15 -7,0 -13,-10 -29,-10 -16,0 -16,0 -27,10 m 3,2 c 4,-6 9,6 20,6 11,0 17,-3 24,-8 7,-5 -10,12 -21,12 -11,0 -26,-6 -23,-10"
           id="path13388" /></g><path
         d="m -17.009,156.58 c -0.50932,0 -1.8336,0.30559 0,0.30559 1.8336,0 0.50932,-0.30559 0,-0.30559"
         id="path13392" /></g></g><path
     d="m 12.72568,58.555711 c 0.31803,-28.512979 15.15653,-37.437067 23.23729,-37.437067 11.28497,0 15.9458,8.615063 16.70748,12.429374 0.76117,3.81113 5.03239,6.859504 6.40472,0.607978 1.37338,-6.251526 14.64926,-25.314598 30.96609,-25.314598 14.94346,0 20.11897,15.41043 19.67106,28.51775 C 108.48946,73.041717 62.52214,101.51759 56.4731,119.50252 51.08557,108.61138 12.34721,92.868075 12.72727,58.556241 Z M 95.3779,0 C 81.95838,0 66.08786,9.911059 56.48158,26.381609 53.88959,20.433277 44.65436,13.951175 33.67629,13.951175 24.83012,13.951175 0,25.007163 0,60.690792 c 0,46.051598 46.59279,55.507868 56.01142,69.824788 0.6472,0.98432 2.73193,1.72799 3.52755,-0.62388 7.51572,-22.18036 65.79102,-47.241589 65.79102,-92.378835 C 125.32947,12.199327 108.79372,0 95.37472,0 Z"
     id="path13242-0"
     style="stroke-width:0.53006" /></svg>
