<?xml version="1.0" encoding="UTF-8" standalone="no"?>
<!-- Created with Inkscape (http://www.inkscape.org/) -->

<svg
   width="125.33"
   height="131.45125"
   viewBox="0 0 33.160229 34.779808"
   version="1.1"
   id="svg5"
   xmlns:xlink="http://www.w3.org/1999/xlink"
   xmlns="http://www.w3.org/2000/svg"
   xmlns:svg="http://www.w3.org/2000/svg">
  <defs
     id="defs2">
    <g
       id="petal">
      <line
         x1="0"
         y1="0"
         x2="25"
         y2="0"
         stroke="#ffd700"
         stroke-width="2"
         id="line7" />
      <circle
         cx="25"
         cy="0"
         r="5"
         fill="#ffd700"
         id="circle9" />
    </g>
    <pattern
       y="0"
       x="0"
       height="6"
       width="6"
       patternUnits="userSpaceOnUse"
       id="EMFhbasepattern" />
    <g
       id="petal-5">
      <line
         x1="0"
         y1="0"
         x2="25"
         y2="0"
         stroke="gold"
         stroke-width="2"
         id="line7-7" />
      <circle
         cx="25"
         cy="0"
         r="5"
         fill="gold"
         id="circle9-3" />
    </g>
    <pattern
       y="0"
       x="0"
       height="6"
       width="6"
       patternUnits="userSpaceOnUse"
       id="EMFhbasepattern-3" />
  </defs>
  <g
     id="layer1">
    <path
       d="M 4.768209,22.43863 25.103218,20.47525 15.146076,33.377463 Z"
       id="path23"
       style="fill:#da121a;fill-opacity:1;stroke-width:0.140241" />
    <path
       d="M 30.743027,10.225144 26.225149,20.615492 4.3474846,22.578872 1.9633802,12.761971 Z"
       id="path25"
       style="fill:#fcdd09;fill-opacity:1;stroke-width:0.140241" />
    <path
       d="M 3.9267603,7.4327963 9.9571422,4.4877261 15.005834,7.9937621 20.755733,2.3841045 28.889737,1.6828969 31.554324,10.377866 1.6828973,13.042453 Z"
       id="path27"
       style="fill:#078930;fill-opacity:1;stroke-width:0.140241" />
    <g
       transform="matrix(0.0666404,-0.00583028,0,0.0666404,14.541988,16.803557)"
       id="g10">
      <circle
         r="120"
         id="circle12"
         cx="0"
         cy="0"
         style="fill:#0f47af" />
      <g
         id="t">
        <path
           d="m 0,-96 -4.205849,12.944272 17.347494,53.390097 H -9.987258 l -2.599358,8 h 74.162668 l 11.011056,-8 H 21.553343 Z"
           id="path15"
           style="fill:#fcdd09" />
        <path
           d="M 0,44 V 96"
           transform="rotate(-144)"
           id="path17"
           style="stroke:#fcdd09;stroke-width:4" />
      </g>
      <use
         xlink:href="#t"
         transform="rotate(72)"
         id="use19"
         x="0"
         y="0"
         width="100%"
         height="100%" />
      <use
         xlink:href="#t"
         transform="rotate(144)"
         id="use21"
         x="0"
         y="0"
         width="100%"
         height="100%" />
      <use
         xlink:href="#t"
         transform="rotate(-144)"
         id="use23"
         x="0"
         y="0"
         width="100%"
         height="100%" />
      <use
         xlink:href="#t"
         transform="rotate(-72)"
         id="use25"
         x="0"
         y="0"
         width="100%"
         height="100%" />
    </g>
    <path
       d="m 3.3664958,15.492612 c 0.084145,-7.5438674 4.0100637,-9.9049723 6.1480445,-9.9049723 2.9857407,0 4.2188827,2.2793441 4.4204097,3.2885215 0.201387,1.008336 1.331453,1.8148648 1.694538,0.160857 0.363365,-1.6540076 3.875852,-6.6976507 8.192905,-6.6976507 3.953686,0 5.323004,4.0772393 5.2045,7.5451297 C 28.703356,19.32527 16.541478,26.860022 14.940622,31.617713 13.515208,28.736172 3.2659427,24.570861 3.3664958,15.492612 Z M 25.234764,0 C 21.684272,0 17.485303,2.6222344 14.943707,6.9799567 14.257926,5.4061673 11.8145,3.6911547 8.9099594,3.6911547 6.56947,3.6911547 0,6.6163107 0,16.057364 0,28.241541 12.327363,30.744149 14.819453,34.531229 14.990688,34.791657 15.542258,34.988416 15.75276,34.366165 17.741243,28.497762 33.160229,21.867147 33.160229,9.925027 33.160088,3.2276567 28.785117,0 25.234764,0 Z"
       id="path29"
       style="stroke-width:0.140241" />
  </g>
</svg>
