<?xml version="1.0" encoding="utf-8"?>
<svg width="238" height="250" xmlns="http://www.w3.org/2000/svg">
  <path d="M5.515 135.433C40.01 169.956 74.505 204.478 109 239 148 196 187 153 226 110 221 79.667 216 49.333 211 19 190.667 17.333 170.333 15.667 150 14 135.333 29 120.667 44 106 59 96.667 50.667 87.333 42.333 78 34 60.828 40.189 43.657 46.378 26.485 52.567c-6.99 27.622-13.98 55.244-20.97 82.866z" style="fill: rgb(220, 20, 60);"/>
  <path d="M 135.089 25.591 C 119.056 32.279 123.74 41.031 109.031 60.375 C 105.035 63.356 104.154 56.331 102.063 54.469 C 90.075 38.13 61.854 33.319 46.611 47.196 C 27.369 62.674 22.235 90.546 22.091 114.24 C 22.477 143.568 39.802 171.132 61.571 189.617 C 74.343 201.464 90.991 209.782 102.125 223.251 C 106.385 228.447 109.774 235.36 110.719 232.595 C 117.003 207.744 138.704 191.79 154.657 173.158 C 178.761 147.423 205.417 117.784 210.16 81.397 C 212.646 60.619 208.654 32.206 190.578 19.434 C 184.02 15.201 185.228 11.827 177.432 12.288 L 135.089 25.591 Z M 175.498 26.275 C 187.766 28.323 196.307 43.728 198.109 56.997 C 201.629 90.562 185.953 115.65 168.626 137.468 C 149.757 161.906 116.089 193.788 105.967 210.419 C 65.122 178.496 45.826 163.012 37.091 133.125 C 31.201 110.374 30.218 88.095 47.048 62.977 C 53.147 53.875 65.158 47.217 75.377 49.75 C 85.531 52.267 90.896 58.89 95.748 73.747 C 98.157 81.123 114.112 82.233 116.26 75.815 C 118.688 67.902 125.25 56.776 130.562 50.209 C 141.439 36.667 159.349 23.579 175.498 26.275 Z" style="fill: rgb(0, 56, 147);"/>
  <path d="m25.005 111.471c0.6-53.792 28.594-70.628 43.839-70.628 21.29 0 30.083 16.253 31.52 23.449 1.436 7.19 9.494 12.941 12.083 1.147 2.591-11.794 27.637-47.758 58.42-47.758 28.192 0 37.956 29.073 37.111 53.801-2.307 67.318-89.028 121.045-100.443 154.97-10.164-20.547-83.247-50.248-82.53-114.981l0 0zM180.938 1c-25.317 0-55.258 18.698-73.381 49.771-4.89-11.222-22.313-23.451-43.024-23.451-16.689 0-63.533 20.858-63.533 88.178 0 86.88 87.901 104.725 105.671 131.729 1.221 1.857 5.154 3.26 6.655-1.177 14.179-41.845 124.125-89.125 124.125-174.279-0.001-47.756-31.197-70.771-56.513-70.771z" style=""/>
  <path d="M 83.198 110.944 C 96.454 110.364 107.2 98.862 107.2 85.25 C 105.091 90.849 101.275 95.574 96.413 98.756 L 94.365 97.279 L 98.381 94.009 L 93.522 92.944 L 96.093 88.357 L 91.07 89.32 L 91.813 84.173 L 87.455 87.045 L 86.211 82.047 L 83.198 86.304 L 80.184 82.312 L 78.919 87.397 L 74.582 84.949 L 75.325 90.071 L 70.302 89.528 L 72.913 93.888 L 68.014 95.381 L 72.03 98.299 L 70.022 99.974 C 65.261 97.297 61.384 93.012 59.216 87.416 C 59.216 101.026 69.961 111.588 83.218 111.006 L 83.198 110.944 Z" id="path13" style="fill-opacity: 1; stroke-width: 1.752; fill: rgb(255, 255, 255);"/>
  <path d="M 71.685 137.571 L 60.918 136.682 L 67.446 145.264 L 57.464 150.072 L 67.446 153.965 L 60.918 163.117 L 71.685 161.284 L 70.358 172.416 L 78.996 165.336 L 83.254 175.419 L 87.471 164.964 L 96.149 171.307 L 94.822 160.312 L 105.589 161.221 L 99.061 152.641 L 109.043 147.873 L 99.061 143.939 L 105.589 134.786 L 94.822 136.598 L 96.149 125.488 L 87.511 132.567 L 83.254 122.465 L 79.036 132.899 L 70.358 126.576 L 71.685 137.571 Z" id="path-1" style="fill-opacity: 1; stroke-width: 1.752; fill: rgb(255, 255, 255);"/>
</svg>