<?xml version="1.0" encoding="utf-8"?>
<svg id="LOGO_LAYER" viewBox="0 0 125.33 131.4429" version="1.1" width="125.33" height="131.4429" xmlns="http://www.w3.org/2000/svg">
  <defs id="defs1">
    <style id="style1">.cls-1{fill:#f9f9f9;}.cls-2{fill:#e40520;}.cls-3{fill:#3c95d2;}</style>
  </defs>
  <g id="LOGO_GROUP" transform="translate(-232.76,-97.88)">
    <g id="SELECT_FLAG_HERE">
      <g id="BLACK_FLAG">
        <path class="cls-2" d="M 343.69 136.632 C 344.231 79.863 288.447 115.709 288.333 129.968 C 283.064 110.807 244.506 112.532 245.151 147.216 L 343.69 136.632 Z" id="path1" style="fill: rgb(239, 51, 64);"/>
        <path class="cls-3" d="M 289.553 218.822 C 289.553 218.822 309.863 193.515 323.343 177.625 L 254.138 184.736 C 265.908 200.276 289.553 218.822 289.553 218.822 Z" id="path3" style="fill: rgb(0, 163, 224);"/>
        <path class="cls-1" d="M 246.27 146.41 C 239.144 155.13 246.198 180.557 255.58 185.22 L 321.72 178.27 C 333.346 166.345 344.864 152.902 342.39 136.31 L 246.27 146.41 Z" id="path2" style="fill: rgb(255, 255, 255);"/>
        <path d="m 328.12,97.88 c -13.42,0 -29.29,9.91 -38.89,26.38 -2.59,-5.95 -11.83,-12.43 -22.8,-12.43 -8.84,0 -33.67,11.05 -33.67,46.73 0,46.05 46.59,55.51 56.01,69.82 0.65,0.99 2.73,1.73 3.53,-0.62 7.51,-22.18 65.79,-47.24 65.79,-92.37 0,-25.31 -16.53,-37.51 -29.95,-37.51 z m 14.33,37.36 c -0.01,0.36 -0.04,0.72 -0.06,1.07 -0.92,15.44 -10.12,29.52 -20.67,41.96 -13.48,15.89 -29.15,29.12 -32.51,39.1 -3.58,-7.24 -21.87,-16.61 -33.64,-32.15 -5.95,-7.85 -10.23,-17.27 -10.1,-28.79 0.04,-3.66 0.32,-6.98 0.8,-10.02 3.22,-20.63 15.39,-27.42 22.44,-27.42 11.28,0 15.94,8.61 16.71,12.43 0.76,3.81 5.03,6.86 6.4,0.61 1.37,-6.25 14.65,-25.31 30.96,-25.31 14.94,0 20.12,15.41 19.67,28.52 z" id="path4"/>
      </g>
    </g>
  </g>
</svg>