<?xml version="1.0" encoding="utf-8"?>
<svg width="125.33" height="131.45" version="1.1" id="svg139" xmlns="http://www.w3.org/2000/svg">
  <g transform="matrix(0.53006,0,0,0.53001101,-0.53112012,-0.53001101)" id="g137">
    <path d="M 21.771 110.168 C 24.728 154.335 54.27 193.144 107.253 230.288 C 144.801 187.578 175.09 151.548 202.475 107.967 C 223.472 65.812 207.972 24.673 175.838 13.71 C 146.19 17.249 113.081 40.404 105.995 59 C 53.966 2.78 19.671 72.724 21.771 110.168 Z" fill="#005eb8" id="path131"/>
    <path d="m 15.065,79.528 163.64,86.759 m -149.04,14.445 192.86,-135.41" stroke-width="32" id="path133" style=""/>
    <path d="M 19.677 100.083 L 28.949 68.779 L 104.341 108.751 L 206.945 36.711 L 214.532 70.484 L 136.07 125.573 L 177.584 147.583 L 156.59 172.672 L 106.679 146.21 L 53.165 183.783 L 32.388 159.27 L 74.949 129.387 L 19.677 100.083 Z" style="fill: rgb(255, 255, 255);"/>
    <path d="m 25.05,111.47 c 0.6,-53.792 28.594,-70.628 43.839,-70.628 21.29,0 30.083,16.253 31.52,23.449 1.436,7.19 9.494,12.941 12.083,1.147 2.591,-11.794 27.637,-47.758 58.42,-47.758 28.192,0 37.956,29.073 37.111,53.81 -2.352,67.309 -89.073,121.04 -100.49,154.96 C 97.369,205.948 24.286,176.238 25.048,111.47 Z M 180.94,1 C 155.623,1 125.682,19.698 107.559,50.771 102.669,39.549 85.246,27.32 64.535,27.32 c -16.689,0 -63.533,20.858 -63.533,88.178 0,86.88 87.91,104.72 105.67,131.73 1.221,1.857 5.154,3.26 6.655,-1.177 14.224,-41.8 124.12,-89.125 124.12,-174.28 C 237.446,24.015 206.25,1 180.934,1 Z" id="path135"/>
  </g>
</svg>