<?xml version="1.0" encoding="UTF-8" standalone="no"?>
<!-- Created with Inkscape (http://www.inkscape.org/) -->

<svg
   width="125.33"
   height="131.45125"
   viewBox="0 0 33.160229 34.779808"
   version="1.1"
   id="svg5"
   xmlns:xlink="http://www.w3.org/1999/xlink"
   xmlns="http://www.w3.org/2000/svg"
   xmlns:svg="http://www.w3.org/2000/svg">
  <defs
     id="defs2">
    <g
       id="petal">
      <line
         x1="0"
         y1="0"
         x2="25"
         y2="0"
         stroke="#ffd700"
         stroke-width="2"
         id="line7" />
      <circle
         cx="25"
         cy="0"
         r="5"
         fill="#ffd700"
         id="circle9" />
    </g>
    <pattern
       y="0"
       x="0"
       height="6"
       width="6"
       patternUnits="userSpaceOnUse"
       id="EMFhbasepattern" />
  </defs>
  <path
     style="fill:#3e5eb9;fill-opacity:1;fill-rule:evenodd;stroke:none;stroke-width:0.140241px;stroke-linecap:butt;stroke-linejoin:miter;stroke-opacity:1"
     d="M 2.987028,9.5879536 1.663965,20.408494 15.195295,33.176961 23.193815,23.275876 31.312614,11.680369 28.305651,2.9225567 21.99103,1.4904193 16.578497,5.2716132 14.894599,8.4258977 11.887636,5.0806177 6.715661,5.2324108 Z"
     id="path4174" />
  <path
     style="fill:#ffd900;fill-opacity:1;fill-rule:evenodd;stroke:none;stroke-width:0.140241px;stroke-linecap:butt;stroke-linejoin:miter;stroke-opacity:1"
     d="M 2.092264,12.046056 1.558396,18.66524 4.810137,25.313524 24.077915,23.627812 30.241662,15.961645 30.047529,9.6002875 Z"
     id="path4237" />
  <path
     id="path4241"
     d="m 1.811962,13.421115 -0.64171,4.598624 2.798528,6.01688 21.231158,-1.857486 4.265313,-5.373015 0.301975,-5.830771 z"
     style="fill:#b10c0c;fill-opacity:1;fill-rule:evenodd;stroke:none;stroke-width:0.140241px;stroke-linecap:butt;stroke-linejoin:miter;stroke-opacity:1" />
  <g
     id="g2680"
     transform="matrix(0.97854039,-0.08561119,0,0.97854039,-25.090103,32.90817)">
    <g
       transform="matrix(0.04409723,0,0,0.04409723,27.806752,-20.995337)"
       fill="#ffd900"
       stroke="#0b0e0e"
       stroke-width="1.008"
       id="g293">
      <g
         id="a-2">
        <path
           d="m 492.85,154.28 -24.285,8.571 24.285,8.571 24.285,-8.571 z"
           fill="#f9f9f9"
           id="path282" />
        <rect
           x="122.85"
           y="160"
           width="357.13"
           height="5.7140002"
           rx="3.1059999"
           ry="2.8570001"
           id="rect284" />
        <path
           d="m 471.44,165.71 c 1.427,0 2.859,-1.429 2.859,-2.857 0,-1.428 -1.431,-2.857 -2.858,-2.857 m -2.861,5.714 c 1.427,0 2.859,-1.429 2.859,-2.857 0,-1.428 -1.431,-2.857 -2.858,-2.857 m -2.861,5.714 c 1.427,0 2.859,-1.429 2.859,-2.857 0,-1.428 -1.431,-2.857 -2.858,-2.857"
           id="path286" />
      </g>
      <use
         x="-23.27"
         y="17.15"
         width="100%"
         height="100%"
         xlink:href="#a-2"
         id="use289" />
      <rect
         x="59.812"
         y="195.72"
         width="485.70001"
         height="8.5710001"
         rx="4.224"
         ry="4.2859998"
         stroke-width="1.08"
         id="rect291" />
    </g>
    <path
       d="m 47.335355,-12.175892 c -1.259887,1.259799 -2.939815,3.7797201 -6.299729,3.7797201 -2.939815,0 -5.039431,-2.5197741 -6.29973,-3.7797201 1.259916,-1.260034 3.359621,-3.77972 6.29973,-3.77972 3.35962,0 5.03943,2.519803 6.299729,3.77972 z"
       fill="#f9f9f9"
       stroke="#0b0e0e"
       stroke-width="0.04445"
       id="path295" />
    <path
       d="m 40.595829,-14.640927 c 0.335198,0.376973 0.0553,0.52899 0.410104,0.553714 0.374151,0.02749 0.162043,0.398375 0.47678,0.41128 0.220045,0.0096 -0.02196,0.888589 0.189823,1.17866 0.215783,0.30239 0.396493,0.08861 0.400286,0.307035 0.0037,0.225954 -0.587258,0.20317 -0.597606,0.899142 -0.01735,0.401108 -0.49874,0.426773 -0.521729,0.684889 -0.02858,0.24274 0.948414,0.379001 0.935361,0.596312 -0.01341,0.2166643 -1.054894,0.1827388 -1.100226,0.4298302 -0.02322,0.2219561 1.430779,0.4038424 1.547725,1.0456922 -0.216959,0.070938 -0.83429,0.1377304 -1.300839,0.1380832 -2.939374,0.00212 -5.039431,-2.5200096 -6.299289,-3.7798376 1.259917,-1.260005 3.35968,-3.779838 6.29973,-3.779838 0,0 -0.872625,0.797366 -0.439679,1.314774 z"
       id="path297"
       style="stroke-width:0.0293982" />
    <g
       transform="matrix(0.04409723,0,0,0.04409723,27.806752,-20.995337)"
       stroke="#f9f9f9"
       id="g306">
      <g
         id="d"
         stroke-width="6.927">
        <g
           id="c-4">
          <path
             id="b-0"
             d="m 213.93,192.38 v -22.857 m 13.85,0 v 22.857 m 13.86,-22.857 v 22.857" />
          <use
             y="38.099998"
             width="100%"
             height="100%"
             xlink:href="#b-0"
             id="use300"
             x="0" />
        </g>
        <use
           x="41.560001"
           width="100%"
           height="100%"
           xlink:href="#c-4"
           id="use303"
           y="0" />
      </g>
    </g>
    <use
       transform="matrix(0.04409723,0,0,0.04409723,27.806752,-20.995337)"
       x="104.76"
       width="100%"
       height="100%"
       stroke="#0b0e0e"
       xlink:href="#d"
       id="use308"
       y="0" />
    <path
       d="m 50.355868,-12.325823 c -0.190853,0.330553 0.146462,-0.109949 0.969492,0.443442 0.152518,0.102805 0.28578,0.374356 0.28578,0.562651 -0.03872,-0.0259 -0.06747,-0.08352 -0.110096,-0.120973 -0.05971,0.05983 0.057,0.334139 0.07408,0.463756 -0.128676,-0.072 -0.116299,-0.106098 -0.159044,-0.194587 0.0085,0.10698 -0.02208,0.401579 0.0291,0.515056 -0.101424,-0.02899 -0.09466,-0.110596 -0.147608,-0.127 0.03601,0.128411 -0.0314,0.26817 -0.01352,0.412544 -0.05924,-0.05865 -0.122385,-0.104598 -0.149931,-0.128293 -0.0046,0.06873 -0.113976,0.249414 -0.116446,0.314413 -0.05027,-0.03037 -0.06394,-0.07773 -0.07232,-0.109626 -0.0625,0.07852 -0.284604,0.3685648 -0.298832,0.4570238 -0.171157,-0.1511652 -0.609571,-0.5192598 -0.666633,-0.7146398 -0.05045,0.11089 -0.123472,0.148343 -0.267817,0.229306 -0.057,-0.309651 -0.270287,-0.657696 -0.156222,-0.923132 -0.08084,0.04792 -0.147373,0.09587 -0.228159,0.154841 0.07655,-0.448469 0.466843,-0.974343 1.028318,-1.234782 z"
       fill="#333333"
       stroke="#0b0e0e"
       stroke-width="0.0377031"
       id="path310" />
    <path
       d="m 49.644286,-10.688934 c 0.07923,-0.158397 0.152223,-0.208609 0.203435,-0.31062 0.09043,-0.17927 0.103334,-0.321881 0.182151,-0.300979 0.07879,0.0209 0.0787,0.09434 -0.02337,0.270581 -0.102099,0.176271 -0.150636,0.21393 -0.362214,0.341018 z m 0.535781,0.377473 c -0.0102,-0.120621 0.02478,-0.17098 0.01843,-0.24862 -0.01088,-0.136672 -0.06676,-0.230453 0.0059,-0.237126 0.07267,-0.0066 0.106627,0.03998 0.106833,0.177682 2.35e-4,0.137731 -0.02108,0.173891 -0.131116,0.308093 z m 0.406576,0.236361 c -0.03175,-0.168363 -0.008,-0.243035 -0.02831,-0.351514 -0.03537,-0.190853 -0.105334,-0.316471 -0.03801,-0.333933 0.06732,-0.01746 0.108009,0.04427 0.133468,0.237831 0.02552,0.193528 0.01205,0.246709 -0.06715,0.447616 z m 0.422893,-1.179601 c -0.09931,-0.07538 -0.157251,-0.08043 -0.22128,-0.128852 -0.112801,-0.08496 -0.169863,-0.175948 -0.206169,-0.130792 -0.03628,0.04516 -0.01053,0.09454 0.107685,0.172949 0.118181,0.07841 0.158221,0.08458 0.319793,0.08669 z m -0.07011,0.558712 c -0.05233,-0.108685 -0.107421,-0.136261 -0.141287,-0.206199 -0.05982,-0.122884 -0.05991,-0.229217 -0.124825,-0.201965 -0.06491,0.02725 -0.07011,0.0829 -7.05e-4,0.201877 0.06938,0.118945 0.105745,0.140494 0.266817,0.206287 z"
       fill="#b3b3b3"
       id="path312"
       style="stroke-width:0.0293982" />
    <path
       d="m 31.369043,-12.007441 c -0.01067,-0.09625 0.0099,-0.107773 -0.0493,-0.180357 0.08623,0.03607 0.08949,0.131939 0.194322,0.06391 0.03848,-0.01993 0.05527,-0.02058 0.0085,-0.127499 0.109302,0.0051 0.467254,0.127823 0.52458,0.130645 0.150519,0.0069 0.425274,-0.158103 0.61598,0.04483 0.183062,0.185032 0.121943,0.377061 0.121943,0.633324 -0.07355,-0.03525 -0.0381,-0.05262 -0.116152,-0.144256 0.0585,0.223984 -0.0031,0.627827 -0.0031,0.865364 -0.03005,-0.05727 -0.02564,-0.03243 -0.055,-0.09172 -0.07805,0.216812 -0.171597,0.261438 -0.171597,0.517702 -0.02816,-0.100483 -9.7e-4,-0.07926 -0.03231,-0.132115 -0.07585,0.164629 -0.584729,0.305299 -0.388643,0.4712225 -0.176977,-0.1037755 -0.254588,-0.092868 -0.334845,-0.1862075 -0.0346,0.02231 -0.06206,0.06456 -0.09422,0.122443 -0.31118,-0.143169 -0.199908,-0.451997 -0.443707,-0.658283 -0.04219,0.08649 -0.02296,0.07396 -0.06856,0.214724 -0.04936,-0.195527 -0.06285,-0.319764 -0.118357,-0.463521 -0.04789,0.07967 -0.04363,0.04912 -0.130587,0.169569 -0.03598,-0.238184 -0.09454,-0.294394 -0.07138,-0.451997 -0.09243,0.06521 -0.03193,0.03881 -0.124325,0.119063 0.08755,-0.610306 0.465578,-1.061303 0.736865,-0.91687 z"
       fill="#333333"
       stroke="#0b0e0e"
       stroke-width="0.0470517"
       id="path314" />
    <path
       d="m 30.986162,-11.011137 c 0.0802,-0.196498 0.152459,-0.258204 0.204288,-0.384704 0.09149,-0.222339 0.106392,-0.400109 0.183238,-0.372975 0.07688,0.0271 0.07564,0.118681 -0.02719,0.337109 -0.102835,0.218516 -0.150959,0.264818 -0.360333,0.420511 z m 0.303565,0.491684 c 0.03216,-0.176154 0.08287,-0.24033 0.103717,-0.353778 0.03701,-0.199495 0.01638,-0.348074 0.08781,-0.340224 0.07144,0.0078 0.08758,0.08314 0.04004,0.281575 -0.04754,0.198467 -0.08035,0.245445 -0.231598,0.412427 z m 0.363097,0.341753 c 0.0091,-0.170803 0.0491,-0.237449 0.05509,-0.347486 0.01085,-0.193499 -0.0264,-0.331993 0.04172,-0.332787 0.06812,-7.94e-4 0.0924,0.06879 0.07153,0.262496 -0.02087,0.193734 -0.04607,0.242065 -0.168334,0.417777 z m 0.779698,-1.116982 c -0.149079,-0.14852 -0.239213,-0.176272 -0.335404,-0.271786 -0.169422,-0.167746 -0.251266,-0.325261 -0.311591,-0.269434 -0.06032,0.05586 -0.02402,0.139523 0.15434,0.299155 0.178388,0.159632 0.240418,0.182915 0.492655,0.242065 z m -0.09084,0.574145 c -0.0971,-0.149136 -0.168363,-0.187766 -0.231069,-0.283721 -0.110537,-0.168628 -0.148578,-0.313531 -0.211226,-0.277636 -0.06271,0.0359 -0.04868,0.111595 0.07114,0.275078 0.119797,0.163425 0.167981,0.193499 0.371151,0.286338 z"
       fill="#b3b3b3"
       id="path316"
       style="stroke-width:0.0293982" />
    <path
       d="m 38.998628,-15.284746 c -0.174537,0.337549 0.305593,-0.112272 1.058245,0.452849 0.139494,0.104981 0.339431,0.519759 0.339431,0.712023 -0.160249,-0.0341 -0.44403,-0.192264 -0.44403,-0.192264 0,0 0.333023,0.333551 0.333023,0.718079 -0.117652,-0.07355 -0.176507,-0.06253 -0.215636,-0.152841 0,0.124472 0.104658,0.203818 0.104658,0.396082 a 1.5562793,1.5562793 0 0 0 -0.228718,-0.152577 c 0.111007,0.192264 -0.202259,0.565238 -0.04548,0.68974 -0.274197,-0.03966 -0.554743,-0.214842 -0.665751,-0.407106 -0.05883,0.03963 -0.06521,0.101894 -0.0675,0.168246 0.0086,0.0072 -0.417395,-0.316207 -0.378236,-0.440444 -0.05715,0.08017 -0.06518,0.124237 -0.07823,0.214607 -0.156486,-0.15434 -0.299949,-0.308681 -0.35216,-0.508235 -0.06953,0.09034 -0.07391,0.09034 -0.143463,0.18071 -0.05215,-0.316236 -0.05215,-0.304947 0.05218,-0.575968 -0.07391,0.04895 -0.134762,0.09789 -0.208669,0.158162 0.06997,-0.457965 0.42695,-0.994981 0.940389,-1.260946 z"
       fill="#333333"
       stroke="#0b0e0e"
       stroke-width="0.0364243"
       id="path318" />
    <path
       d="m 38.568239,-13.63551 c 0.02793,-0.232598 0.08872,-0.320234 0.106891,-0.470018 0.03243,-0.263437 -0.0061,-0.456024 0.08731,-0.451114 0.09337,0.0048 0.120238,0.102011 0.07408,0.364948 -0.04612,0.262849 -0.08505,0.326702 -0.268287,0.556213 z m 0.487274,0.425979 c -0.0189,-0.196233 0.01734,-0.279782 0.0053,-0.406224 -0.02073,-0.222426 -0.08943,-0.373092 -0.0081,-0.386938 0.08134,-0.01385 0.122502,0.06077 0.131262,0.285338 0.0088,0.224602 -0.01296,0.284428 -0.128528,0.507824 z m 0.760677,0.347486 c -0.08273,-0.169833 -0.153811,-0.220457 -0.207198,-0.329759 -0.09434,-0.192087 -0.114065,-0.348956 -0.186796,-0.320557 -0.07276,0.02846 -0.06876,0.109596 0.03634,0.297627 0.105069,0.18803 0.152577,0.226395 0.357658,0.352689 z m 0.263261,-1.520913 c -0.210697,-0.110919 -0.318911,-0.112301 -0.454672,-0.183592 -0.239095,-0.124942 -0.378266,-0.266112 -0.427655,-0.188412 -0.04945,0.0777 0.01652,0.154957 0.263025,0.268552 0.246504,0.113594 0.322204,0.118974 0.619331,0.103452 z m 0.07717,0.635441 c -0.1534,-0.127617 -0.244122,-0.146403 -0.343077,-0.228512 -0.174331,-0.144051 -0.261055,-0.285574 -0.319293,-0.228188 -0.05821,0.05735 -0.01931,0.133114 0.16363,0.268846 0.182974,0.135731 0.245534,0.152576 0.49874,0.187854 z"
       fill="#b3b3b3"
       id="path320"
       style="stroke-width:0.0293982" />
  </g>
  <path
     d="M 3.366496,15.492612 C 3.450636,7.9487446 7.376559,5.5876397 9.51454,5.5876397 c 2.985741,0 4.218883,2.2793441 4.42041,3.2885215 0.201387,1.008336 1.331453,1.8148648 1.694538,0.160857 0.363365,-1.6540076 3.875852,-6.6976507 8.192905,-6.6976507 3.953686,0 5.323004,4.0772393 5.2045,7.5451297 C 28.703356,19.32527 16.541478,26.860022 14.940622,31.617713 13.515208,28.736172 3.265943,24.570861 3.366496,15.492612 Z M 25.234764,0 C 21.684272,0 17.485303,2.6222344 14.943707,6.9799567 14.257926,5.4061673 11.8145,3.6911547 8.909959,3.6911547 6.56947,3.6911547 0,6.6163107 0,16.057364 0,28.241541 12.327363,30.744149 14.819453,34.531229 14.990688,34.791657 15.542258,34.988416 15.75276,34.366165 17.741243,28.497762 33.160229,21.867147 33.160229,9.925027 33.160088,3.2276567 28.785117,0 25.234764,0 Z"
     id="path29-9"
     style="fill:#000000;fill-opacity:1;stroke-width:0.140241" />
</svg>
