<?xml version="1.0" encoding="UTF-8" standalone="no"?>
<!-- Created with Inkscape (http://www.inkscape.org/) -->

<svg
   width="125.33"
   height="131.45284"
   viewBox="0 0 33.160228 34.780229"
   version="1.1"
   id="svg1063"
   xmlns:xlink="http://www.w3.org/1999/xlink"
   xmlns="http://www.w3.org/2000/svg"
   xmlns:svg="http://www.w3.org/2000/svg">
  <defs
     id="defs1060">
    <g
       id="b"
       fill="#1eb53a">
      <g
         id="s">
        <g
           id="t">
          <g
             id="c">
            <path
               id="h"
               d="M0,-20V0H20"
               transform="rotate(30,0,-20)" />
            <use
               xlink:href="#h"
               transform="scale(-1,1)"
               id="use11" />
          </g>
          <use
             xlink:href="#c"
             transform="rotate(120)"
             id="use13" />
          <use
             xlink:href="#c"
             transform="rotate(240)"
             id="use15" />
        </g>
        <use
           xlink:href="#t"
           transform="rotate(180)"
           id="use17" />
      </g>
      <use
         xlink:href="#s"
         fill="#ce1126"
         transform="scale(0.82)"
         id="use19" />
    </g>
    <use
       id="star"
       xlink:href="#b"
       x="250"
       y="106" />
    <g
       id="petal">
      <line
         x1="0"
         y1="0"
         x2="25"
         y2="0"
         stroke="gold"
         stroke-width="2"
         id="line7" />
      <circle
         cx="25"
         cy="0"
         r="5"
         fill="gold"
         id="circle9" />
    </g>
    <pattern
       y="0"
       x="0"
       height="6"
       width="6"
       patternUnits="userSpaceOnUse"
       id="EMFhbasepattern" />
    <g
       id="petal-7">
      <line
         x1="0"
         y1="0"
         x2="25"
         y2="0"
         stroke="gold"
         stroke-width="2"
         id="line7-0" />
      <circle
         cx="25"
         cy="0"
         r="5"
         fill="gold"
         id="circle9-1" />
    </g>
    <pattern
       y="0"
       x="0"
       height="6"
       width="6"
       patternUnits="userSpaceOnUse"
       id="EMFhbasepattern-2" />
    <g
       id="petal-8">
      <line
         x1="0"
         y1="0"
         x2="25"
         y2="0"
         stroke="gold"
         stroke-width="2"
         id="line7-02" />
      <circle
         cx="25"
         cy="0"
         r="5"
         fill="gold"
         id="circle9-4" />
    </g>
    <pattern
       y="0"
       x="0"
       height="6"
       width="6"
       patternUnits="userSpaceOnUse"
       id="EMFhbasepattern-21" />
    <g
       id="petal-1">
      <line
         x1="0"
         y1="0"
         x2="25"
         y2="0"
         stroke="gold"
         stroke-width="2"
         id="line7-3" />
      <circle
         cx="25"
         cy="0"
         r="5"
         fill="gold"
         id="circle9-6" />
    </g>
    <pattern
       y="0"
       x="0"
       height="6"
       width="6"
       patternUnits="userSpaceOnUse"
       id="EMFhbasepattern-4" />
  </defs>
  <g
     id="layer1">
    <path
       d="M 20.054526,2.6645874 29.310461,1.8231387 V 16.54849 l -9.255935,10.377866 z"
       id="path4"
       style="fill:#e31b23;fill-opacity:1;stroke-width:0.140241" />
    <path
       d="M 9.8169008,4.768209 15.005834,7.9937621 20.194767,2.5243459 V 27.487322 l -5.188933,5.469416 -5.1889332,-3.506036 z"
       id="path6"
       style="fill:#fdef42;fill-opacity:1;stroke-width:0.140241" />
    <path
       d="M 3.9267603,7.4327963 9.9571422,4.768209 V 29.17022 L 1.5426558,20.335009 Z"
       id="path8"
       style="fill:#00853f;fill-opacity:1;stroke-width:0.140241" />
    <g
       id="g4156"
       transform="matrix(0.03423452,-0.00299513,0,0.03423452,-0.36991271,7.637133)">
      <g
         id="g10"
         transform="translate(450,300)"
         style="fill:#00853f">
        <g
           id="c-0">
          <path
             transform="rotate(18,1.2627503e-6,-100)"
             d="M 0,-100 V 0 h 50 z"
             id="t-1" />
          <use
             id="use14"
             transform="scale(-1,1)"
             xlink:href="#t-1"
             x="0"
             y="0"
             width="100%"
             height="100%" />
        </g>
        <use
           id="use16"
           transform="rotate(72)"
           xlink:href="#c-0"
           x="0"
           y="0"
           width="100%"
           height="100%" />
        <use
           id="use18"
           transform="rotate(144)"
           xlink:href="#c-0"
           x="0"
           y="0"
           width="100%"
           height="100%" />
        <use
           id="use20"
           transform="rotate(-144)"
           xlink:href="#c-0"
           x="0"
           y="0"
           width="100%"
           height="100%" />
        <use
           id="use22"
           transform="rotate(-72)"
           xlink:href="#c-0"
           x="0"
           y="0"
           width="100%"
           height="100%" />
      </g>
    </g>
    <path
       d="m 3.3664958,15.492612 c 0.084145,-7.5438674 4.0100637,-9.9049723 6.1480445,-9.9049723 2.9857407,0 4.2188827,2.2793441 4.4204097,3.2885215 0.201387,1.008336 1.331453,1.8148648 1.694538,0.160857 0.363365,-1.6540076 3.875852,-6.6976507 8.192905,-6.6976507 3.953686,0 5.323004,4.0772393 5.2045,7.5451297 C 28.703356,19.32527 16.541478,26.860022 14.940622,31.617713 13.515208,28.736172 3.2659427,24.570861 3.3664958,15.492612 Z M 25.234764,0 C 21.684272,0 17.485303,2.6222344 14.943707,6.9799567 14.257926,5.4061673 11.8145,3.6911547 8.9099594,3.6911547 6.56947,3.6911547 0,6.6163107 0,16.057364 0,28.241541 12.327363,30.744149 14.819453,34.531229 14.990688,34.791657 15.542258,34.988416 15.75276,34.366165 17.741243,28.497762 33.160229,21.867147 33.160229,9.925027 33.160088,3.2276567 28.785117,0 25.234764,0 Z"
       id="path10"
       style="stroke-width:0.140241" />
  </g>
</svg>
