<?xml version="1.0" encoding="UTF-8" standalone="no"?>
<svg
   width="125.33"
   height="131.45151"
   viewBox="0 0 7.5198 7.8870905"
   fill="#ffffff"
   version="1.1"
   id="svg439"
   xmlns:xlink="http://www.w3.org/1999/xlink"
   xmlns="http://www.w3.org/2000/svg"
   xmlns:svg="http://www.w3.org/2000/svg"
   xmlns:rdf="http://www.w3.org/1999/02/22-rdf-syntax-ns#"
   xmlns:cc="http://creativecommons.org/ns#">
  <defs
     id="defs443" />
  <path
     style="fill:#ef3340;fill-opacity:1;stroke-width:0.0318028"
     d="M 0.28616144,3.8162542 6.6467181,3.3710152 3.434637,7.5689824 1.2402449,5.6926182"
     id="path4" />
  <path
     style="fill:#f9f9f9;fill-opacity:1;stroke-width:0.0318028"
     d="M 0.89041433,1.6854676 2.257934,1.0176092 3.4028347,1.8126788 4.7067483,0.54056744 6.5513098,0.38155336 7.1555627,3.6254375 0.3815698,4.2296904"
     id="path6" />
  <path
     d="M 3.4315993,7.4990168 1.303188,5.8801152 5.441382,5.4802853 Z"
     id="path4255"
     style="fill:#003da5;fill-opacity:1;stroke-width:0.0318028" />
  <path
     style="fill:#ffd100;fill-opacity:1;stroke-width:0.0318028"
     id="path4157"
     d="M 0.23234902,2.6149538 1.8521713,1.0907047 2.7718787,1.2253931 3.3521353,1.8376057 4.2540376,0.7673754 5.4981739,0.17975198 7.3895114,1.8588 Z" />
  <path
     style="fill:#009639;fill-opacity:1;stroke-width:0.0318028"
     d="M 3.5988666,3.9391878 1.0548983,1.56546 0.36140683,3.6875324 1.7817509,6.1469366 Z"
     id="path8-1" />
  <g
     id="g8039-7"
     transform="matrix(0.48984737,-0.03425346,0,0.48984737,-6.8297019,1.4475871)">
    <path
       d="m 18.893883,4.7597098 a 1.98,1.98 0 0 0 0,3.9316801 2.04,2.04 0 1 1 0,-3.9316801 z"
       id="path431-8"
       style="fill:#f9f9f9;fill-opacity:1;stroke-width:0.24" />
    <g
       id="t-5"
       transform="matrix(0.24,0,0,0.24,15.889323,2.4055496)"
       style="fill:#f9f9f9;fill-opacity:1">
      <path
         id="s-0"
         d="m 12.519,10.75 1.029,3.166 -2.693,-1.957 h 3.329 l -2.693,1.957 z"
         style="fill:#f9f9f9;fill-opacity:1" />
      <use
         xlink:href="#s-0"
         y="3.75"
         id="use434-9"
         x="0"
         width="100%"
         height="100%"
         style="fill:#f9f9f9;fill-opacity:1" />
    </g>
    <use
       xlink:href="#t-5"
       y="0"
       id="use437-7"
       x="0"
       width="100%"
       height="100%"
       transform="translate(4e-8,1.7999999)"
       style="fill:#f9f9f9;fill-opacity:1" />
  </g>
  <path
     d="M 0.7632032,3.5132179 C 0.78228487,1.8024998 1.672572,1.2670736 2.1574054,1.2670736 c 0.6770813,0 0.9567231,0.5168854 1.0024243,0.7457359 0.045669,0.2286597 0.3019356,0.4115557 0.384273,0.036477 0.082369,-0.3749511 0.8790284,-1.5188856 1.8579181,-1.51882199 0.8965205,0 1.207107,0.92459289 1.1802018,1.71100419 -0.073369,2.140942 -2.8304477,3.8480981 -3.194367,4.928428 C 3.0646116,6.5163559 0.74027339,5.5718863 0.76317139,3.5132177 Z M 5.7225292,0 C 4.9173782,0 3.965171,0.59464235 3.3888097,1.5828084 3.2332941,1.2259212 2.6791937,0.83700892 2.0205262,0.83704073 1.4897378,0.83704073 0,1.5003764 0,3.6413818 0,6.4043799 2.7954647,6.9718947 3.3606319,7.8307204 3.3994313,7.8897771 3.5245435,7.9343959 3.5722794,7.7932885 4.0232429,6.4625143 7.5197999,4.9588938 7.5197999,2.250787 7.5197999,0.73190141 6.5275536,1.2668109e-4 5.7225292,9.4878304e-5 Z"
     id="path8"
     style="fill:#000000;fill-opacity:1;stroke-width:0.0318028" />
  <metadata
     id="metadata2429">
    <rdf:RDF>
      <cc:Work
         rdf:about="" />
    </rdf:RDF>
  </metadata>
</svg>
