<?xml version="1.0" encoding="UTF-8" standalone="no"?>
<svg
   width="125.33"
   height="131.45125"
   xml:space="preserve"
   id="svg2"
   version="1.1"
   xmlns="http://www.w3.org/2000/svg"
   xmlns:svg="http://www.w3.org/2000/svg"
   xmlns:rdf="http://www.w3.org/1999/02/22-rdf-syntax-ns#"
   xmlns:cc="http://creativecommons.org/ns#"
   xmlns:dc="http://purl.org/dc/elements/1.1/"><metadata
     id="metadata39"><rdf:RDF><cc:Work
         rdf:about=""><dc:format>image/svg+xml</dc:format><dc:type
           rdf:resource="http://purl.org/dc/dcmitype/StillImage" /></cc:Work></rdf:RDF></metadata><defs
     id="defs4"><g
       id="petal"><line
         x1="0"
         y1="0"
         x2="25"
         y2="0"
         stroke="#ffd700"
         stroke-width="2"
         id="line7" /><circle
         cx="25"
         cy="0"
         r="5"
         fill="#ffd700"
         id="circle9" /></g><pattern
       y="0"
       x="0"
       height="6"
       width="6"
       patternUnits="userSpaceOnUse"
       id="EMFhbasepattern" /></defs><path
     d="M 18.021577,84.807423 94.878305,77.386774 57.245011,126.15104 Z"
     id="path23"
     style="fill:#007a3d;fill-opacity:1;stroke-width:0.530046" /><path
     d="M 116.19412,38.646213 99.118676,77.91682 16.431438,85.337469 7.4206495,48.234222 Z"
     id="path25"
     style="fill:#f9f9f9;fill-opacity:1;stroke-width:0.530046" /><path
     d="M 14.841299,28.092459 37.633294,16.961485 56.714964,30.212644 78.446866,9.0107887 109.18956,6.3605551 119.26044,39.223432 6.3605567,49.294313 Z"
     id="path27"
     style="fill:#0b0e0e;fill-opacity:1;stroke-width:0.530046" /><path
     style="fill:#ce1126;fill-opacity:1;stroke-width:0.530046"
     d="M 59.98111,65.713292 17.58164,26.15116 6.0234488,61.519034 29.695851,102.50911 Z"
     id="path8" /><path
     id="path4273"
     d="m 30.106725,60.942349 1.642699,4.017264 4.2774,-1.684233 -2.228978,4.073651 3.691116,2.204494 -4.422187,1.0625 0.325353,4.433202 -3.285403,-2.748742 -3.285407,3.323609 0.325353,-4.490129 -4.422188,-0.288717 3.691116,-2.850356 -2.228978,-3.683632 4.2774,0.935787 z"
     style="opacity:1;fill:#f9f9f9;fill-opacity:1;stroke-width:0.530046" /><path
     d="M 12.723764,58.554755 C 13.041792,30.0425 27.87991,21.118638 35.960468,21.118638 c 11.284687,0 15.945385,8.614845 16.707062,12.429058 0.761147,3.811034 5.03226,6.859331 6.404551,0.607964 1.37335,-6.251368 14.648892,-25.3139561 30.96531,-25.3139561 14.943069,0 20.118439,15.4100391 19.670549,28.5170261 C 108.48513,73.040393 62.518972,101.5182 56.468493,119.50002 51.081101,108.60916 12.34372,92.866248 12.723764,58.554755 Z M 95.375488,0 C 81.956304,2.650232e-8 66.086184,9.9108075 56.480154,26.380939 53.888227,20.432758 44.653228,13.950821 33.675438,13.950821 24.829493,13.950821 0,25.006529 0,60.689252 c 0,46.050428 46.591608,55.509108 56.010533,69.822478 0.647186,0.9843 2.731859,1.72795 3.527458,-0.62386 C 67.053519,107.70808 125.33,82.647484 125.33,37.511913 125.32947,12.199018 108.79414,2.650232e-8 95.375488,0 Z"
     id="path29"
     style="stroke-width:0.530046" /></svg>
