<?xml version="1.0" encoding="UTF-8" standalone="no"?>
<svg
   width="125.33"
   height="131.45125"
   id="svg2"
   version="1.1"
   xmlns:xlink="http://www.w3.org/1999/xlink"
   xmlns="http://www.w3.org/2000/svg"
   xmlns:svg="http://www.w3.org/2000/svg"
   xmlns:rdf="http://www.w3.org/1999/02/22-rdf-syntax-ns#"
   xmlns:cc="http://creativecommons.org/ns#"
   xmlns:dc="http://purl.org/dc/elements/1.1/">
  <metadata
     id="metadata58">
    <rdf:RDF>
      <cc:Work
         rdf:about="">
        <dc:format>image/svg+xml</dc:format>
        <dc:type
           rdf:resource="http://purl.org/dc/dcmitype/StillImage" />
      </cc:Work>
    </rdf:RDF>
  </metadata>
  <defs
     id="defs56">
    <clipPath
       id="c">
      <!-- Inner circle of crescent shifted right from center by 5*sqrt(3)-sqrt(39) = 2.415256 -->
      <path
         d="M 0,0 H 60 V 40 H 0 Z m 32.415256,28 a 8,8 0 1 0 0,-16 8,8 0 1 0 0,16"
         id="path5" />
    </clipPath>
  </defs>
  <path
     d="M 55.654872,32.687981 83.754591,4.2334581 117.09104,15.851151 113.22043,66.047697 55.654872,124.77824 Z"
     fill="#c13"
     id="path4"
     style="fill:#f9f9f9;fill-opacity:1;stroke-width:0.529037" />
  <path
     d="M 11.85594,33.359528 37.880134,16.744482 56.18496,32.687983 V 122.72908 L 5.9362019,78.09168 Z"
     fill="#fff"
     id="path6"
     style="fill:#006233;fill-opacity:1;stroke-width:0.529037" />
  <path
     d="M 12.723764,58.554755 C 13.041792,30.0425 27.87991,21.118638 35.960468,21.118638 c 11.284687,0 15.945385,8.614845 16.707062,12.429058 0.761147,3.811034 5.03226,6.859331 6.404551,0.607964 1.37335,-6.251368 14.648892,-25.3139561 30.96531,-25.3139561 14.943069,0 20.118439,15.4100391 19.670549,28.5170261 C 108.48513,73.040393 62.518972,101.5182 56.468493,119.50002 51.081101,108.60916 12.34372,92.866248 12.723764,58.554755 Z M 95.375488,0 C 81.956304,0 66.086184,9.910807 56.480154,26.380939 53.888227,20.432758 44.653228,13.950821 33.675438,13.950821 24.829493,13.950821 0,25.006529 0,60.689252 c 0,46.050428 46.591608,55.509108 56.010533,69.822478 0.647186,0.9843 2.731859,1.72795 3.527458,-0.62386 C 67.053519,107.70808 125.33,82.647484 125.33,37.511913 125.32947,12.199018 108.79414,0 95.375488,0 Z"
     id="path52"
     style="stroke-width:0.530046" />
  <g
     style="fill:#d21034"
     transform="matrix(1.7330476,0,0,1.7330476,4.2074907,32.206268)"
     id="g11">
    <!-- Distance between center of star and center of flag is 5*cos(36 deg) = 4.045085 -->
    <g
       id="g4147"
       transform="matrix(1,-0.08748866,0,1,0,2.5795627)">
      <circle
         transform="matrix(1.0515465,0,0,1.0515465,-2.0618588,-1.5463941)"
         id="circle13"
         clip-path="url(#c)"
         r="10"
         cy="20"
         cx="30" />
      <g
         id="g15"
         transform="translate(34.045085,20)">
        <g
           id="f">
          <g
             id="t">
            <path
               id="o"
               transform="rotate(18,5.0000002,3.8137513e-8)"
               d="M 5,0 H 0 v 3 z" />
            <use
               id="use20"
               transform="scale(1,-1)"
               xlink:href="#o"
               x="0"
               y="0"
               width="744.09448"
               height="1052.3622" />
          </g>
          <use
             id="use22"
             transform="rotate(72)"
             xlink:href="#t"
             x="0"
             y="0"
             width="744.09448"
             height="1052.3622" />
        </g>
        <use
           id="use24"
           transform="rotate(-72)"
           xlink:href="#t"
           x="0"
           y="0"
           width="744.09448"
           height="1052.3622" />
        <use
           id="use26"
           transform="rotate(144)"
           xlink:href="#f"
           x="0"
           y="0"
           width="744.09448"
           height="1052.3622" />
      </g>
    </g>
  </g>
</svg>
