<?xml version="1.0" encoding="UTF-8" standalone="no"?>
<svg
   width="125.33"
   height="131.45284"
   id="svg2"
   version="1.1"
   xmlns:xlink="http://www.w3.org/1999/xlink"
   xmlns="http://www.w3.org/2000/svg"
   xmlns:svg="http://www.w3.org/2000/svg"
   xmlns:rdf="http://www.w3.org/1999/02/22-rdf-syntax-ns#"
   xmlns:cc="http://creativecommons.org/ns#"
   xmlns:dc="http://purl.org/dc/elements/1.1/">
  <metadata
     id="metadata58">
    <rdf:RDF>
      <cc:Work
         rdf:about="">
        <dc:format>image/svg+xml</dc:format>
        <dc:type
           rdf:resource="http://purl.org/dc/dcmitype/StillImage" />
      </cc:Work>
    </rdf:RDF>
  </metadata>
  <defs
     id="defs56" />
  <path
     style="fill:#fe0000;fill-opacity:1;stroke-width:0.530046"
     d="M 54.948802,31.02057 66.125975,16.127004 87.957383,2.1365772 117.09104,15.852528 113.22043,66.049076 56.184918,124.73325 11.969555,87.767568 6.5942256,50.640289 Z"
     id="path4" />
  <path
     style="fill:#000095;fill-opacity:1;stroke-width:0.530046"
     d="M 8.1475928,32.025982 37.880134,16.74586 56.18496,29.509083 56.184918,66.13823 5.9362021,70.534424 Z"
     id="path6" />
  <g
     id="g4377"
     transform="matrix(0.15580528,-0.0136312,0,0.15580528,153.95902,-89.839699)"
     style="opacity:1">
    <path
       style="fill:#f9f9f9"
       d="m -745,800 -30,112.5 -30,-112.5 30,-112.5 m 0,142.5 112.5,-30 -112.5,-30 -112.5,30"
       id="four_rays" />
    <use
       height="100%"
       width="100%"
       y="0"
       x="0"
       id="use9"
       transform="rotate(30,-774.99985,799.99995)"
       xlink:href="#four_rays" />
    <use
       height="100%"
       width="100%"
       y="0"
       x="0"
       id="use11"
       transform="rotate(60,-774.99997,800.00008)"
       xlink:href="#four_rays" />
    <circle
       style="fill:#000095"
       cy="800"
       cx="-775"
       id="circle13"
       r="63.75" />
    <circle
       style="fill:#f9f9f9"
       cy="800"
       cx="-775"
       id="circle15"
       r="56.25" />
  </g>
  <path
     d="M 12.720053,58.554225 C 13.038081,30.04197 27.8762,21.118108 35.956757,21.118108 c 11.284688,0 15.945386,8.614844 16.707063,12.429058 0.761146,3.811034 5.03226,6.859331 6.40455,0.607964 1.37282,-6.249247 14.650483,-25.3150162 30.965311,-25.3139561 14.942009,0 20.118439,15.4100391 19.670019,28.5170261 -1.22281,35.682723 -47.174127,64.13561 -53.239448,82.14129 C 51.076861,108.60704 12.33789,92.865718 12.719523,58.55423 Z M 95.375488,0 C 81.956304,0 66.086184,9.9108075 56.480154,26.380409 53.888227,20.432228 44.653228,13.950291 33.675438,13.950821 24.828963,13.950821 0,25.006529 0,60.690312 c 0,46.050428 46.591078,55.509108 56.010533,69.823008 0.646656,0.9843 2.731859,1.72795 3.527458,-0.62386 C 67.054049,107.70967 125.33,82.649074 125.33,37.513504 125.33,12.198488 108.79255,0.00212022 95.375488,0.00159012 Z"
     id="path8"
     style="opacity:1;stroke-width:0.530046" />
</svg>