<?xml version="1.0" encoding="UTF-8" standalone="no"?>
<svg
   width="125.33"
   height="131.45125"
   xml:space="preserve"
   id="svg2"
   version="1.1"
   xmlns:xlink="http://www.w3.org/1999/xlink"
   xmlns="http://www.w3.org/2000/svg"
   xmlns:svg="http://www.w3.org/2000/svg"
   xmlns:rdf="http://www.w3.org/1999/02/22-rdf-syntax-ns#"
   xmlns:cc="http://creativecommons.org/ns#"
   xmlns:dc="http://purl.org/dc/elements/1.1/"><metadata
     id="metadata39"><rdf:RDF><cc:Work
         rdf:about=""><dc:format>image/svg+xml</dc:format><dc:type
           rdf:resource="http://purl.org/dc/dcmitype/StillImage" /></cc:Work></rdf:RDF></metadata><defs
     id="defs4"><g
       id="petal"><line
         x1="0"
         y1="0"
         x2="25"
         y2="0"
         stroke="#ffd700"
         stroke-width="2"
         id="line7" /><circle
         cx="25"
         cy="0"
         r="5"
         fill="#ffd700"
         id="circle9" /></g><pattern
       y="0"
       x="0"
       height="6"
       width="6"
       patternUnits="userSpaceOnUse"
       id="EMFhbasepattern" /></defs><path
     style="fill:#dc241f;fill-opacity:1;fill-rule:evenodd;stroke:none;stroke-width:0.530046px;stroke-linecap:butt;stroke-linejoin:miter;stroke-opacity:1"
     d="M 6.1944837,47.25221 9.5567487,77.512596 39.480908,112.14393 57.637139,123.91186 77.810731,100.71223 107.06244,72.469199 117.14923,47.924665 111.43338,9.931068 86.888846,5.5601231 68.396386,15.646919 54.947328,31.449564 45.196759,19.681637 23.342036,20.35409 Z"
     id="path4164" /><path
     style="fill:#ffc726;fill-opacity:1;stroke-width:0.530046"
     d="M 59.98111,65.713032 17.581639,26.150899 6.0234472,61.518775 29.695849,102.50885 Z"
     id="path8" /><path
     id="path4215"
     d="M 46.305635,66.909479 17.581639,26.150899 6.0234472,61.518775 29.695849,102.50885 Z"
     style="fill:#111111;fill-opacity:1;stroke-width:0.530046" /><g
     transform="matrix(5.1366779,-3.0177401,2.568339,4.9119777,28.645875,68.742374)"
     id="g10"
     style="fill:#f9fff1;fill-opacity:1"><g
       id="f"
       style="fill:#f9fff1;fill-opacity:1"><g
         id="t"
         style="fill:#f9fff1;fill-opacity:1"><path
           style="fill:#f9fff1;fill-opacity:1"
           d="M 0,-2.1 V 0 h 1 z"
           transform="rotate(18,3.2382509e-8,-2.1)"
           id="o" /><use
           height="100%"
           width="100%"
           y="0"
           x="0"
           xlink:href="#o"
           transform="scale(-1,1)"
           id="use15"
           style="fill:#f9fff1;fill-opacity:1" /></g><use
         height="100%"
         width="100%"
         y="0"
         x="0"
         xlink:href="#t"
         transform="rotate(72)"
         id="use17"
         style="fill:#f9fff1;fill-opacity:1" /></g><use
       height="100%"
       width="100%"
       y="0"
       x="0"
       xlink:href="#t"
       transform="rotate(-72)"
       id="use19"
       style="fill:#f9fff1;fill-opacity:1" /><use
       height="100%"
       width="100%"
       y="0"
       x="0"
       xlink:href="#f"
       transform="rotate(144)"
       id="use21"
       style="fill:#f9fff1;fill-opacity:1" /></g><path
     d="M 12.723764,58.554755 C 13.041792,30.0425 27.87991,21.118638 35.960468,21.118638 c 11.284687,0 15.945385,8.614845 16.707062,12.429058 0.761147,3.811034 5.03226,6.859331 6.404551,0.607964 1.37335,-6.251368 14.648892,-25.3139561 30.96531,-25.3139561 14.943069,0 20.118439,15.4100391 19.670549,28.5170261 C 108.48513,73.040393 62.518972,101.5182 56.468493,119.50002 51.081101,108.60916 12.34372,92.866248 12.723764,58.554755 Z M 95.375488,0 C 81.956304,0 66.086184,9.9108075 56.480154,26.380939 53.888227,20.432758 44.653228,13.950821 33.675438,13.950821 24.829493,13.950821 0,25.006529 0,60.689252 c 0,46.050428 46.591608,55.509108 56.010533,69.822478 0.647186,0.9843 2.731859,1.72795 3.527458,-0.62386 C 67.053519,107.70808 125.33,82.647484 125.33,37.511913 125.32947,12.199018 108.79414,0 95.375488,0 Z"
     id="path10"
     style="stroke-width:0.530046" /></svg>
