<?xml version="1.0" encoding="UTF-8" standalone="no"?>
<svg
   id="LOGO_LAYER"
   viewBox="0 0 125.33001 131.4429"
   version="1.1"
   width="1.3055209in"
   height="1.3691969in"
   xmlns="http://www.w3.org/2000/svg"
   xmlns:svg="http://www.w3.org/2000/svg">
  <defs
     id="defs1">
    <style
       id="style1">.cls-1{fill:#0054a6;}.cls-2{fill:#f7941e;}.cls-3{fill:#ed1b35;}</style>
  </defs>
  <g
     id="g1378">
    <path
       class="cls-3"
       d="M 110.717,38.738 C 115.064,37.353 106.946,4.81 90.468,7.678 68.522,11.498 59.416,29.047 58.147,33.227 56.712,37.955 54.678,36.219 54.055,33.232 53.432,30.245 47.921,21.066 36.73,19.571 21.297,17.509 10.556,44.517 12.288,49.145 Z"
       id="path1"
       style="fill:#ce2939" />
    <path
       class="cls-2"
       d="m 56.47,121.183 c -4.84,3.125 31.211,-39.279 33.577,-41.101 l -68.602,6.95 c -0.003,2.579 29.68,29.314 35.025,34.151 z"
       id="path3"
       style="fill:#477050" />
    <path
       class="cls-1"
       d="m 13.51,48.53 c -0.056,0.362 -1.233,-1.241 -1.562,0 -1.039,3.917 -0.529,14.848 0.704,21.139 0.986,5.029 5.41,14.527 8.205,17.988 1.866,2.308 0.767,-1.897 1.963,-0.317 l 66.14,-6.95 c 0.478,-0.564 1.419,0.247 1.898,-0.337 9.393,-11.465 18.137,-27.995 19.879,-41.586 0.125,-0.981 -1.166,0.956 -1.107,-0.037 z"
       id="path2"
       style="fill:#ffffff;fill-opacity:1" />
  </g>
  <path
     d="M 95.36,0 C 81.94,0 66.07,9.91 56.47,26.38 53.88,20.43 44.64,13.95 33.67,13.95 24.83,13.95 0,25 0,60.68 c 0,46.05 46.59,55.51 56.01,69.82 0.65,0.99 2.73,1.73 3.53,-0.62 C 67.05,107.7 125.33,82.64 125.33,37.51 125.33,12.2 108.8,0 95.38,0 Z m 14.33,37.36 c -0.01,0.36 -0.04,0.72 -0.06,1.07 C 108.71,53.87 99.51,67.95 88.96,80.39 75.48,96.28 59.81,109.51 56.45,119.49 52.87,112.25 34.58,102.88 22.81,87.34 16.86,79.49 12.58,70.07 12.71,58.55 12.75,54.89 13.03,51.57 13.51,48.53 16.73,27.9 28.9,21.11 35.95,21.11 c 11.28,0 15.94,8.61 16.71,12.43 0.76,3.81 5.03,6.86 6.4,0.61 1.37,-6.25 14.65,-25.31 30.96,-25.31 14.94,0 20.12,15.41 19.67,28.52 z"
     id="path4"
     style="fill:#000000;fill-opacity:1" />
</svg>
