<?xml version="1.0" encoding="UTF-8" standalone="no"?>
<svg
   width="125.33"
   height="131.45125"
   xml:space="preserve"
   id="svg2"
   version="1.1"
   xmlns="http://www.w3.org/2000/svg"
   xmlns:svg="http://www.w3.org/2000/svg"
   xmlns:rdf="http://www.w3.org/1999/02/22-rdf-syntax-ns#"
   xmlns:cc="http://creativecommons.org/ns#"
   xmlns:dc="http://purl.org/dc/elements/1.1/"><metadata
     id="metadata39"><rdf:RDF><cc:Work
         rdf:about=""><dc:format>image/svg+xml</dc:format><dc:type
           rdf:resource="http://purl.org/dc/dcmitype/StillImage" /></cc:Work></rdf:RDF></metadata><defs
     id="defs4"><g
       id="petal"><line
         x1="0"
         y1="0"
         x2="25"
         y2="0"
         stroke="#ffd700"
         stroke-width="2"
         id="line7" /><circle
         cx="25"
         cy="0"
         r="5"
         fill="#ffd700"
         id="circle9" /></g><pattern
       y="0"
       x="0"
       height="6"
       width="6"
       patternUnits="userSpaceOnUse"
       id="EMFhbasepattern" /></defs><path
     d="M 18.021577,84.807423 94.878305,77.386774 57.245011,126.15104 Z"
     id="path23"
     style="fill:#0b0e0e;fill-opacity:1;stroke-width:0.530046" /><path
     d="M 116.19412,38.646213 99.118676,77.91682 16.431438,85.337469 7.4206495,48.234222 Z"
     id="path25"
     style="fill:#f9f9f9;fill-opacity:1;stroke-width:0.530046" /><path
     d="M 14.841299,28.092459 37.633294,16.961485 56.714964,30.212644 78.446866,9.0107887 109.18956,6.3605551 119.26044,39.223432 6.3605567,49.294313 Z"
     id="path27"
     style="fill:#ce1126;fill-opacity:1;stroke-width:0.530046" /><g
     transform="matrix(0.40067427,-0.03505445,0,0.40067427,-58.587342,-2.7634165)"
     id="g6"
     style="fill:#007a3d;fill-opacity:1"><g
       id="g8"
       style="fill:#007a3d;fill-opacity:1"><g
         id="g10"
         style="fill:#007a3d;fill-opacity:1"><path
           d="m 325.525,173.177 c -0.558,-0.294 -1.186,-0.767 -1.395,-1.053 -0.314,-0.439 -0.131,-0.456 1.163,-0.105 2.319,0.629 3.815,0.384 5.298,-0.872 l 1.308,-1.103 1.54,0.784 c 0.848,0.428 1.748,0.724 2.008,0.656 0.667,-0.176 2.05,-1.95 2.005,-2.564 -0.054,-0.759 0.587,-0.569 0.896,0.263 0.615,1.631 -0.281,3.503 -1.865,3.918 -0.774,0.202 -1.488,0.127 -2.659,-0.28 -1.439,-0.502 -1.684,-0.495 -2.406,0.057 -1.617,1.24 -3.869,1.356 -5.893,0.299 z"
           id="path12"
           style="fill:#007a3d;fill-opacity:1" /><path
           d="m 331.258,167.935 c -0.563,-0.716 -1.239,-3.423 -1.02,-4.088 0.192,-0.575 0.39,-0.69 0.914,-0.526 0.918,0.287 1.13,0.92 0.993,3.063 -0.107,1.748 -0.366,2.207 -0.887,1.551 z"
           id="path14"
           style="fill:#007a3d;fill-opacity:1" /></g><path
         d="m 263.743,165.991 c -0.185,1.31 2.325,4.567 3.458,5.157 -0.77,0.345 -1.728,0.189 -2.434,0.577 -3.948,3.948 -18.367,18.005 -21,21.366 7.799,0.154 16.449,-0.106 23.761,-0.44 -0.007,-5.299 5.018,-5.573 8.381,-7.503 1.73,2.725 6.075,2.516 6.618,6.618 0,4.91 0.009,12.306 0.009,17.646 -22.059,0 -44.566,0 -66.625,0 -1.172,5.176 -5.844,9.125 -12.354,7.5 2.014,-2.103 5.406,-2.827 6.619,-5.734 1.025,-6.365 -2.045,-10.296 -4.031,-13.907 3.284,-1.195 3.782,-1.493 7.121,-3.737 -2.343,7.12 6.091,6.338 12.353,6.175 0.211,-2.417 0.089,-5.271 -1.766,-5.624 2.396,-0.87 2.794,-1.168 6.619,-4.412 0,2.942 0,6.652 0,9.592 14.886,0 30.943,-0.111 46.139,-0.111 0,-3.002 0.795,-7.824 -1.581,-7.824 -2.269,0 -0.107,6.173 -1.87,6.173 -1.763,0 -23.719,0 -35.63,0 0,-1.328 -0.034,-4.104 -0.034,-6.104 1.51,-1.511 1.331,-1.38 11.648,-11.698 1.028,-1.029 8.266,-7.567 14.599,-13.71 z"
         id="path16"
         style="fill:#007a3d;fill-opacity:1" /><path
         d="m 352.803,165.737 c 2.488,1.338 4.457,3.191 7.502,3.971 -0.353,1.26 -1.475,1.759 -1.769,3.087 0,8.97 0,17.941 0,26.91 3.402,0.75 4.118,-1.178 5.737,-2.205 0.442,4.307 3.185,8.53 3.088,11.91 -4.851,0 -9.706,0 -14.559,0 10e-4,-14.555 10e-4,-29.114 10e-4,-43.673 z"
         id="path18"
         style="fill:#007a3d;fill-opacity:1" /><path
         d="m 333.391,180.149 c 0,0 5.296,-4.471 5.296,-4.643 0,7.646 0,15.837 0,23.485 l 3.814,-0.006 c 0,-8.948 -0.118,-18.023 -0.118,-26.338 1.548,-1.549 4.58,-3.792 5.338,-5.359 0,15.987 0,29.519 0,42.059 -10.746,0 -30.793,0.013 -33.443,0.013 -0.493,-8.73 -0.577,-17.771 9.599,-15.827 0,-1.488 0,-2.369 0,-3.562 -0.31,-0.609 -0.868,0.147 -0.998,-0.645 1.616,-1.617 2.163,-2.029 6.538,-5.851 0,4.612 0.081,15.499 0.081,15.499 1.07,0 3.153,0.004 3.857,0.004 10e-4,0.001 0.036,-18.228 0.036,-18.829 z m -12.554,18.602 c 0.716,1.075 3.155,1.056 3.04,-0.755 -0.411,-1.493 -3.615,-0.924 -3.04,0.755 z"
         id="path20"
         style="fill:#007a3d;fill-opacity:1" /><circle
         cx="224.026"
         cy="214.369"
         r="2.0420001"
         id="circle22"
         style="fill:#007a3d;fill-opacity:1" /><path
         d="M 341.175,199.295"
         id="path24"
         style="fill:#007a3d;fill-opacity:1" /><path
         d="M 329.451,199.295"
         id="path26"
         style="fill:#007a3d;fill-opacity:1" /><path
         d="m 287.048,165.779 c 2.488,1.339 4.457,3.191 7.502,3.971 -0.353,1.26 -1.476,1.759 -1.768,3.087 0,8.97 0,17.94 0,26.911 3.401,0.749 4.117,-1.179 5.736,-2.206 0.441,4.307 3.185,8.529 3.088,11.91 -4.851,0 -9.706,0 -14.559,0 10e-4,-14.555 10e-4,-29.114 10e-4,-43.673 z"
         id="path28"
         style="fill:#007a3d;fill-opacity:1" /></g></g><path
     d="M 12.723764,58.554755 C 13.041792,30.0425 27.87991,21.118638 35.960468,21.118638 c 11.284687,0 15.945385,8.614845 16.707062,12.429058 0.761147,3.811034 5.03226,6.859331 6.404551,0.607964 1.37335,-6.251368 14.648892,-25.3139561 30.96531,-25.3139561 14.943069,0 20.118439,15.4100391 19.670549,28.5170261 C 108.48513,73.040393 62.518972,101.5182 56.468493,119.50002 51.081101,108.60916 12.34372,92.866248 12.723764,58.554755 Z M 95.375488,0 C 81.956304,0 66.086184,9.9108075 56.480154,26.380939 53.888227,20.432758 44.653228,13.950821 33.675438,13.950821 24.829493,13.950821 0,25.006529 0,60.689252 c 0,46.050428 46.591608,55.509108 56.010533,69.822478 0.647186,0.9843 2.731859,1.72795 3.527458,-0.62386 C 67.053519,107.70808 125.33,82.647484 125.33,37.511913 125.32947,12.199018 108.79414,0 95.375488,0 Z"
     id="path29"
     style="stroke-width:0.530046" /></svg>
