<?xml version="1.0" encoding="UTF-8" standalone="no"?>
<svg
   width="125.33"
   height="131.45151"
   id="svg2"
   version="1.1"
   xmlns:xlink="http://www.w3.org/1999/xlink"
   xmlns="http://www.w3.org/2000/svg"
   xmlns:svg="http://www.w3.org/2000/svg"
   xmlns:rdf="http://www.w3.org/1999/02/22-rdf-syntax-ns#"
   xmlns:cc="http://creativecommons.org/ns#"
   xmlns:dc="http://purl.org/dc/elements/1.1/">
  <metadata
     id="metadata16">
    <rdf:RDF>
      <cc:Work
         rdf:about="">
        <dc:format>image/svg+xml</dc:format>
        <dc:type
           rdf:resource="http://purl.org/dc/dcmitype/StillImage" />
      </cc:Work>
    </rdf:RDF>
  </metadata>
  <defs
     id="defs14" />
  <path
     style="fill:#f9f9f9;fill-opacity:1;stroke-width:0.530046"
     d="M 14.840239,28.092175 37.632234,16.961313 56.713909,30.212339 78.445806,9.0106975 109.1885,6.360491 115.46789,65.028323 6.0886758,75.911559"
     id="path6" />
  <path
     d="M 52.91539,68.693933 5.7057729,72.824198 6.4924779,43.548639 18.184639,23.572361 41.612968,17.040719 52.91539,26.800371 Z"
     id="path8-3"
     style="fill:#0039a6;stroke-width:0.530046" />
  <path
     style="fill:#d52b1e;fill-opacity:1;stroke-width:0.530046"
     d="M 6.3594966,70.495195 119.25938,60.42442 57.243951,126.14976 20.670749,94.877345"
     id="path4" />
  <g
     id="g4153"
     transform="matrix(7.4601555,-0.65267236,0,7.4600802,31.648472,48.200723)"
     style="fill:#f9f9f9;fill-opacity:1">
    <g
       id="f"
       style="fill:#f9f9f9;fill-opacity:1">
      <g
         id="t"
         style="fill:#f9f9f9;fill-opacity:1">
        <path
           id="o"
           transform="rotate(18,2.6568758e-8,-2)"
           d="M 0,-2 V 0 H 1 Z"
           style="fill:#f9f9f9;fill-opacity:1" />
        <use
           id="use13"
           transform="scale(-1,1)"
           xlink:href="#o"
           x="0"
           y="0"
           width="100%"
           height="100%"
           style="fill:#f9f9f9;fill-opacity:1" />
      </g>
      <use
         id="use15"
         transform="rotate(72)"
         xlink:href="#t"
         x="0"
         y="0"
         width="100%"
         height="100%"
         style="fill:#f9f9f9;fill-opacity:1" />
    </g>
    <use
       id="use17"
       transform="rotate(-72)"
       xlink:href="#t"
       x="0"
       y="0"
       width="100%"
       height="100%"
       style="fill:#f9f9f9;fill-opacity:1" />
    <use
       id="use19"
       transform="rotate(144)"
       xlink:href="#f"
       x="0"
       y="0"
       width="100%"
       height="100%"
       style="fill:#f9f9f9;fill-opacity:1" />
  </g>
  <path
     d="M 12.720053,58.553632 C 13.038081,30.041666 27.8762,21.117895 35.956757,21.117895 c 11.284688,0 15.945389,8.614757 16.707068,12.428932 0.761141,3.810995 5.03226,6.859261 6.40455,0.607957 C 60.441196,27.9056 73.718853,8.8400242 90.033681,8.8410843 c 14.942009,0 20.118449,15.4098827 19.670029,28.5167377 C 108.48089,73.040181 62.529578,101.49279 56.464258,119.49828 51.076863,108.60594 12.33789,92.86478 12.719523,58.553632 Z M 95.375488,0 C 81.956304,0 66.086184,9.9107073 56.480159,26.380142 53.888232,20.432022 44.653228,13.95015 33.675438,13.95068 24.828963,13.95068 0,25.006276 0,60.689697 0,106.73966 46.591078,116.19824 56.010533,130.512 c 0.646656,0.98429 2.731859,1.72793 3.527458,-0.62386 C 67.054049,107.70858 125.33,82.648237 125.33,37.513124 125.33,12.198364 108.79256,0.00212022 95.375488,0.00159018 Z"
     id="path8"
     style="opacity:1;stroke-width:0.530046" />
</svg>
