<?xml version="1.0" encoding="UTF-8" standalone="no"?>
<svg
   width="125.33"
   height="131.45125"
   id="svg2"
   version="1.1"
   xmlns:xlink="http://www.w3.org/1999/xlink"
   xmlns="http://www.w3.org/2000/svg"
   xmlns:svg="http://www.w3.org/2000/svg"
   xmlns:rdf="http://www.w3.org/1999/02/22-rdf-syntax-ns#"
   xmlns:cc="http://creativecommons.org/ns#"
   xmlns:dc="http://purl.org/dc/elements/1.1/">
  <metadata
     id="metadata16">
    <rdf:RDF>
      <cc:Work
         rdf:about="">
        <dc:format>image/svg+xml</dc:format>
        <dc:type
           rdf:resource="http://purl.org/dc/dcmitype/StillImage" />
      </cc:Work>
    </rdf:RDF>
  </metadata>
  <defs
     id="defs14" />
  <path
     style="fill:#024fa2;fill-opacity:1;fill-rule:evenodd;stroke:none;stroke-width:0.530046px;stroke-linecap:butt;stroke-linejoin:miter;stroke-opacity:1"
     d="M 8.33218,44.91156 8.086,77.920626 32.94973,106.51728 55.84406,124.20833 76.52281,102.21278 107.29475,69.487158 119.11118,28.326737 97.20156,2.6719163 75.53811,9.7369099 65.19873,19.503809 56.09024,30.886248 48.70497,20.946826 32.94973,16.663192 16.45597,25.737652 Z"
     id="path4215" />
  <path
     style="fill:#f9f9f9;fill-opacity:1;fill-rule:evenodd;stroke:none;stroke-width:0.530046px;stroke-linecap:butt;stroke-linejoin:miter;stroke-opacity:1"
     d="M 13.00899,30.341964 4.393,65.980207 25.81027,103.33043 80.46125,98.549088 115.66436,53.537294 111.47937,21.726922 Z"
     id="path4195" />
  <path
     id="path4209"
     d="M 14.06926,33.337289 6.609,68.740477 26.37844,100.19324 79.72315,95.52618 114.18772,51.450945 110.74102,24.879607 Z"
     style="fill:#ed1c27;fill-opacity:1;fill-rule:evenodd;stroke:none;stroke-width:0.530046px;stroke-linecap:butt;stroke-linejoin:miter;stroke-opacity:1" />
  <g
     id="g1763"
     transform="matrix(0.87856436,0,0,0.87856436,5.236413,7.8533917)">
    <ellipse
       style="fill:#f9f9f9;fill-opacity:1;stroke-width:0.530046"
       cx="43.286873"
       cy="68.534615"
       id="circle10"
       transform="matrix(0.9961947,-0.08715574,0,1,0,0)"
       rx="24.797161"
       ry="24.702801" />
    <g
       style="fill:#ed1c27"
       id="star"
       transform="matrix(23.930837,-2.0936769,0,23.930837,43.122151,64.761911)">
      <g
         id="cone">
        <polygon
           id="triangle"
           points="0.5,1 0,0 0,1 "
           transform="rotate(18,3.1568758,-0.49999998)" />
        <use
           height="100%"
           width="100%"
           y="0"
           x="0"
           xlink:href="#triangle"
           transform="scale(-1,1)"
           id="use12" />
      </g>
      <use
         height="100%"
         width="100%"
         y="0"
         x="0"
         xlink:href="#cone"
         transform="rotate(72)"
         id="use14" />
      <use
         height="100%"
         width="100%"
         y="0"
         x="0"
         xlink:href="#cone"
         transform="rotate(-72)"
         id="use16" />
      <use
         height="100%"
         width="100%"
         y="0"
         x="0"
         xlink:href="#cone"
         transform="rotate(144)"
         id="use18" />
      <use
         height="100%"
         width="100%"
         y="0"
         x="0"
         xlink:href="#cone"
         transform="rotate(-144)"
         id="use20" />
    </g>
  </g>
  <path
     d="M 12.72376,58.554755 C 13.04179,30.0425 27.87991,21.118638 35.96047,21.118638 c 11.28468,0 15.94538,8.614845 16.70706,12.429058 0.76115,3.811034 5.03226,6.859331 6.40455,0.607964 1.37335,-6.251368 14.64889,-25.3139561 30.96531,-25.3139561 14.94307,0 20.11844,15.4100391 19.67055,28.5170261 C 108.48513,73.040393 62.51897,101.5182 56.46849,119.50002 51.0811,108.60916 12.34372,92.866248 12.72376,58.554755 Z M 95.37549,0 C 81.9563,0 66.08618,9.9108075 56.48015,26.380939 53.88823,20.432758 44.65323,13.950821 33.67544,13.950821 24.82949,13.950821 0,25.006529 0,60.689252 c 0,46.050428 46.59161,55.509108 56.01053,69.822478 0.64719,0.9843 2.73186,1.72795 3.52746,-0.62386 C 67.05352,107.70808 125.33,82.647484 125.33,37.511913 125.32947,12.199018 108.79414,0 95.37549,0 Z"
     id="path10"
     style="stroke-width:0.530046" />
</svg>
