<?xml version="1.0" encoding="utf-8"?>
<svg id="LOGO_LAYER" viewBox="0 0 125.33 131.4429" version="1.1" width="125.33" height="131.4429" xmlns="http://www.w3.org/2000/svg">
  <defs id="defs1">
    <style id="style1">.cls-1{fill:#f9f9f9;}.cls-2{fill:#d5233f;}</style>
  </defs>
  <g id="LOGO_GROUP" transform="translate(-232.76,-97.88)">
    <g id="SELECT_FLAG_HERE">
      <g id="BLACK_FLAG">
        <path class="cls-1" d="M 324.574 104.613 C 306.26 102.49 288.495 129.323 288.495 129.323 C 284.113 123.168 276.77 117.309 265.494 117.861 C 243.982 118.914 236.831 165.102 245.854 167.756 L 336.966 158.478 C 351.094 152.831 348.542 107.392 324.574 104.613 Z" id="path1" style="fill: rgb(255, 255, 255);"/>
        <path class="cls-2" d="M 289.22 220.112 C 319.113 184.438 339.21 158.635 336.15 157.52 L 246.65 166.96 C 243.926 169.744 250.709 186.369 289.22 220.112 Z" id="path2"/>
        <path d="m 328.12,97.88 c -13.42,0 -29.29,9.91 -38.89,26.38 -2.59,-5.95 -11.83,-12.43 -22.8,-12.43 -8.84,0 -33.67,11.05 -33.67,46.73 0,46.05 46.59,55.51 56.01,69.82 0.65,0.99 2.73,1.73 3.53,-0.62 7.51,-22.18 65.79,-47.24 65.79,-92.37 0,-25.31 -16.53,-37.51 -29.95,-37.51 z m 14.33,37.36 c -0.27,7.78 -2.66,15.22 -6.31,22.28 -13.07,25.32 -42.2,45.79 -46.93,59.85 -4.8,-9.71 -36.11,-23.27 -42.57,-50.41 -0.79,-3.3 -1.21,-6.81 -1.17,-10.53 0.32,-28.51 15.16,-37.43 23.23,-37.43 11.28,0 15.94,8.61 16.71,12.43 0.76,3.81 5.03,6.86 6.4,0.61 1.37,-6.25 14.65,-25.31 30.96,-25.31 14.94,0 20.12,15.41 19.67,28.52 z" id="path3"/>
      </g>
    </g>
  </g>
</svg>