<?xml version="1.0" encoding="UTF-8" standalone="no"?>
<svg
   width="125.33"
   height="131.45125"
   id="svg4251"
   version="1.1"
   xmlns="http://www.w3.org/2000/svg"
   xmlns:svg="http://www.w3.org/2000/svg"
   xmlns:rdf="http://www.w3.org/1999/02/22-rdf-syntax-ns#"
   xmlns:cc="http://creativecommons.org/ns#"
   xmlns:dc="http://purl.org/dc/elements/1.1/">
  <metadata
     id="metadata5515">
    <rdf:RDF>
      <cc:Work
         rdf:about="">
        <dc:format>image/svg+xml</dc:format>
        <dc:type
           rdf:resource="http://purl.org/dc/dcmitype/StillImage" />
      </cc:Work>
    </rdf:RDF>
  </metadata>
  <defs
     id="defs5513" />
  <g
     transform="matrix(0.37591025,-0.03288788,0,0.37591025,-16.772912,-266.6145)"
     style="opacity:1;fill:none;fill-opacity:1;stroke:#b30000;stroke-opacity:1"
     id="g19321" />
  <path
     style="opacity:1;fill:#e70013;fill-opacity:1;fill-rule:evenodd;stroke:none;stroke-width:0.530046px;stroke-linecap:butt;stroke-linejoin:miter;stroke-opacity:1"
     d="M 18.624254,24.550911 8.8389047,38.708437 6.9651144,45.787201 117.72694,34.336261 106.6924,9.1441921 90.036484,4.3556164 70.049384,13.30817 56.30826,32.254271 48.396699,21.01153 30.90799,16.639353 Z"
     id="path4799" />
  <path
     style="opacity:1;fill:#239e46;fill-opacity:1;fill-rule:evenodd;stroke:none;stroke-width:0.530046px;stroke-linecap:butt;stroke-linejoin:miter;stroke-opacity:1"
     d="M 22.163636,96.587736 58.182048,126.15198 92.11847,87.426987 Z"
     id="path4801" />
  <path
     d="M 3.8724819,43.582299 21.719795,98.001661 90.689703,91.337828 123.15853,30.979736 Z"
     id="path4255"
     style="opacity:1;fill:#0b0e0e;fill-opacity:1;stroke-width:0.530046" />
  <path
     id="circle10"
     style="fill:#f9f9f9;fill-opacity:1;stroke-width:0.529037"
     d="M 52.834002,52.458875 A 13.546664,14.784822 43.747616 0 0 38.681147,67.848917 13.546664,14.784822 43.747616 0 0 52.834002,80.763561 13.546664,14.784822 43.747616 0 0 62.839666,75.743047 11.770253,12.846047 43.747616 0 1 55.695425,78.657019 11.770253,12.846047 43.747616 0 1 43.398767,67.436181 11.770253,12.846047 43.747616 0 1 55.695425,54.064732 a 11.770253,12.846047 43.747616 0 1 7.146308,1.664743 13.546664,14.784822 43.747616 0 0 -10.007731,-3.2706 z m 14.151825,2.907004 v 7.644261 l -7.270535,2.998525 7.270535,1.726345 v 7.645294 l 4.494009,-6.577733 7.270535,1.72634 -4.494004,-5.792421 4.494004,-6.577743 -7.271569,2.998616 z" />
  <path
     d="M 12.723764,58.554755 C 13.041792,30.0425 27.87991,21.118638 35.960468,21.118638 c 11.284687,0 15.945385,8.614845 16.707062,12.429058 0.761147,3.811034 5.03226,6.859331 6.404551,0.607964 1.37335,-6.251368 14.648892,-25.313956 30.96531,-25.313956 14.943069,0 20.118439,15.410039 19.670549,28.517026 C 108.48513,73.040393 62.518972,101.5182 56.468493,119.50002 51.081101,108.60916 12.34372,92.866248 12.723764,58.554755 Z M 95.375488,0 C 81.956304,3e-8 66.086184,9.9108071 56.480154,26.380939 53.888227,20.432758 44.653228,13.950821 33.675438,13.950821 24.829493,13.950821 0,25.006529 0,60.689252 c 0,46.050428 46.591608,55.509108 56.010533,69.822478 0.647186,0.9843 2.731859,1.72795 3.527458,-0.62386 C 67.053519,107.70808 125.33,82.647484 125.33,37.511913 125.32947,12.199018 108.79414,3e-8 95.375488,0 Z"
     id="path4257"
     style="opacity:1;stroke-width:0.530046" />
</svg>
