<?xml version="1.0" encoding="UTF-8" standalone="no"?>
<svg
   viewBox="0 0 225.84271 232.7924"
   width="225.84271"
   height="232.7934"
   preserveAspectRatio="none"
   version="1.1"
   id="svg2"
   sodipodi:docname="Eurovision_2026_heart_-_Azerbaijan.svg"
   xmlns:inkscape="http://www.inkscape.org/namespaces/inkscape"
   xmlns:sodipodi="http://sodipodi.sourceforge.net/DTD/sodipodi-0.dtd"
   xmlns:xlink="http://www.w3.org/1999/xlink"
   xmlns="http://www.w3.org/2000/svg"
   xmlns:svg="http://www.w3.org/2000/svg">
  <sodipodi:namedview
     id="namedview2"
     pagecolor="#ffffff"
     bordercolor="#000000"
     borderopacity="0.25"
     inkscape:showpageshadow="2"
     inkscape:pageopacity="0.0"
     inkscape:pagecheckerboard="0"
     inkscape:deskcolor="#d1d1d1"
     showgrid="false">
    <inkscape:page
       x="0"
       y="0"
       width="225.84271"
       height="232.7924"
       id="page2"
       margin="0"
       bleed="0" />
  </sodipodi:namedview>
  <path
     d="M 25.585508,105.94071 C 10.246694,83.699706 60.550882,21.608198 95.51924,66.069054 c 37.51554,-79.110855 123.05763,-20.537437 91.64797,21.10803 z"
     style="fill:#007a3d;fill-opacity:1;stroke-width:56.963"
     id="path1" />
  <path
     d="M 43.814647,160.87326 17.521243,102.96409 189.69848,85.008843 c 7.48143,1.870106 -40.37503,64.289497 -44.82391,63.176947 z"
     style="fill:#f9f9f9;fill-opacity:1;stroke-width:56.963"
     id="object-1" />
  <path
     d="M 102.1085,213.35101 39.771573,157.608 163.90934,144.66248 Z"
     style="fill:#0b0e0e;fill-opacity:1;stroke-width:56.963"
     id="path2" />
  <path
     class="cls-1"
     d="m 99.721706,231.54128 c 1.863004,2.033 4.583004,1.535 5.838004,-1.106 29.79,-62.866 120.283,-91.3 120.283,-171.401997 0,-29.111 -19.597,-58.34299989 -57.277,-59.01999989 -35.867,-0.648 -68.057,22.45599989 -71.414004,59.85699989 -1.007,-23.682 -16.539,-34.601 -34.452,-34.601 -35.239,0 -64.1019999,31.812 -62.64699992,79.682997 2.42100002,75.29 74.80199992,99.012 99.66899992,126.589 z m -6.396,-153.627997 c 0.956,3.756 5.539,3.627 6.575,-0.09 15.513004,-56.23 86.847004,-62.377 86.847004,-5.439 0,44.951997 -79.673,92.913997 -85.741,135.584997 -14.416004,-27.996 -67.369004,-43.369 -67.369004,-104.222 0,-51.786997 50.353,-62.666997 59.688,-25.833997 z"
     style="stroke-width:0.996"
     id="object-0" />
  <defs
     id="defs2" />
  <use
     transform="translate(-41.289238,2.934334)"
     width="100%"
     height="100%"
     xlink:href="#s"
     id="use898"
     x="0"
     y="0"
     style="fill:#ce1126;fill-opacity:1" />
  <g
     id="s"
     transform="matrix(0.23737265,-0.0168697,0.01659882,0.2412463,99.969812,122.21612)"
     fill="#007a3d"
     style="fill:#ce1126;fill-opacity:1">
    <g
       id="c"
       style="fill:#ce1126;fill-opacity:1">
      <path
         id="t"
         transform="rotate(18,0,-60)"
         d="M 0,-60 V 0 h 30"
         style="fill:#ce1126;fill-opacity:1" />
      <use
         transform="scale(-1,1)"
         width="100%"
         height="100%"
         xlink:href="#t"
         id="use901"
         x="0"
         y="0"
         style="fill:#ce1126;fill-opacity:1" />
    </g>
    <use
       transform="rotate(72)"
       width="100%"
       height="100%"
       xlink:href="#c"
       id="use904"
       x="0"
       y="0"
       style="fill:#ce1126;fill-opacity:1" />
    <use
       transform="rotate(144)"
       width="100%"
       height="100%"
       xlink:href="#c"
       id="use906"
       x="0"
       y="0"
       style="fill:#ce1126;fill-opacity:1" />
    <use
       transform="rotate(-144)"
       width="100%"
       height="100%"
       xlink:href="#c"
       id="use908"
       x="0"
       y="0"
       style="fill:#ce1126;fill-opacity:1" />
    <use
       transform="rotate(-72)"
       width="100%"
       height="100%"
       xlink:href="#c"
       id="use910"
       x="0"
       y="0"
       style="fill:#ce1126;fill-opacity:1" />
  </g>
  <use
     transform="translate(41.289234,-2.934335)"
     width="100%"
     height="100%"
     xlink:href="#s"
     id="use913"
     x="0"
     y="0"
     style="fill:#ce1126;fill-opacity:1" />
</svg>
