<?xml version="1.0" encoding="UTF-8" standalone="no"?>
<svg
   width="125.33"
   height="131.45125"
   xml:space="preserve"
   id="svg2"
   version="1.1"
   xmlns:xlink="http://www.w3.org/1999/xlink"
   xmlns="http://www.w3.org/2000/svg"
   xmlns:svg="http://www.w3.org/2000/svg"
   xmlns:rdf="http://www.w3.org/1999/02/22-rdf-syntax-ns#"
   xmlns:cc="http://creativecommons.org/ns#"
   xmlns:dc="http://purl.org/dc/elements/1.1/"><metadata
     id="metadata39"><rdf:RDF><cc:Work
         rdf:about=""><dc:format>image/svg+xml</dc:format><dc:type
           rdf:resource="http://purl.org/dc/dcmitype/StillImage" /></cc:Work></rdf:RDF></metadata><defs
     id="defs4"><g
       id="petal"><line
         x1="0"
         y1="0"
         x2="25"
         y2="0"
         stroke="#ffd700"
         stroke-width="2"
         id="line7" /><circle
         cx="25"
         cy="0"
         r="5"
         fill="#ffd700"
         id="circle9" /></g><pattern
       y="0"
       x="0"
       height="6"
       width="6"
       patternUnits="userSpaceOnUse"
       id="EMFhbasepattern" /></defs><path
     d="M 18.021577,84.807423 94.878305,77.386774 57.245011,126.15104 Z"
     id="path23"
     style="fill:#74acdf;fill-opacity:1;stroke-width:0.530046" /><path
     d="M 116.19412,38.646213 99.118676,77.91682 16.431438,85.337469 7.4206495,48.234222 Z"
     id="path25"
     style="fill:#f9f9f9;fill-opacity:1;stroke-width:0.530046" /><path
     d="M 14.841299,28.092459 37.633294,16.961485 56.714964,30.212644 78.446866,9.0107887 109.18956,6.3605551 119.26044,39.223432 6.3605567,49.294313 Z"
     id="path27"
     style="fill:#74acdf;fill-opacity:1;stroke-width:0.530046" /><path
     d="M 12.723764,58.554755 C 13.041792,30.0425 27.87991,21.118638 35.960468,21.118638 c 11.284687,0 15.945385,8.614845 16.707062,12.429058 0.761147,3.811034 5.03226,6.859331 6.404551,0.607964 1.37335,-6.251368 14.648892,-25.3139561 30.96531,-25.3139561 14.943069,0 20.118439,15.4100391 19.670549,28.5170261 C 108.48513,73.040393 62.518972,101.5182 56.468493,119.50002 51.081101,108.60916 12.34372,92.866248 12.723764,58.554755 Z M 95.375488,0 C 81.956304,0 66.086184,9.9108075 56.480154,26.380939 53.888227,20.432758 44.653228,13.950821 33.675438,13.950821 24.829493,13.950821 0,25.006529 0,60.689252 c 0,46.050428 46.591608,55.509108 56.010533,69.822478 0.647186,0.9843 2.731859,1.72795 3.527458,-0.62386 C 67.053519,107.70808 125.33,82.647484 125.33,37.511913 125.32947,12.199018 108.79414,0 95.375488,0 Z"
     id="path29"
     style="stroke-width:0.530046;fill:#000000;fill-opacity:1" /><g
     id="sun"
     fill="#fcbf49"
     stroke="#843511"
     stroke-width="1.5"
     transform="matrix(0.09479326,-0.00829334,0,0.09479326,55.743,63.263883)"><g
       id="16rays"><g
         id="8rays"><g
           id="4rays"><g
             id="2rays"><path
               d="m -8,0 6,159.5 c 0,0 0,3 2,3 2,0 2,-3 2,-3 L 8,0"
               id="path2796" /><path
               d="M -4,0 0,109.5 4,0"
               fill="#843511"
               stroke="none"
               id="path2798" /><g
               transform="rotate(11.5)"
               id="g2804"><path
                 d="m -4.5,53.5 c -5,21.5 6,36 0.5,55 -5.5,19 3,32 4,40 1,8 -5,11.5 -3,13 C -1,163 5,158 5.5,147 6,136 -1.5,131.25 5,108 11.5,84.75 1,77 8,56"
                 id="path2800" /><path
                 d="M -1,58 C -4,79 6,90.5 0,109 8,95 -2,81 3,59"
                 fill="#843511"
                 stroke="none"
                 id="path2802" /></g></g><use
             xlink:href="#2rays"
             transform="scale(-1)"
             id="use2807"
             x="0"
             y="0"
             width="100%"
             height="100%" /></g><use
           xlink:href="#4rays"
           transform="rotate(90)"
           id="use2810"
           x="0"
           y="0"
           width="100%"
           height="100%" /></g><use
         xlink:href="#8rays"
         transform="rotate(45)"
         id="use2813"
         x="0"
         y="0"
         width="100%"
         height="100%" /></g><use
       xlink:href="#16rays"
       transform="rotate(22.5)"
       id="use2816"
       x="0"
       y="0"
       width="100%"
       height="100%" /><circle
       r="65"
       stroke-width="1"
       id="circle2818"
       cx="0"
       cy="0" /><g
       id="face_right"
       fill="#843511"
       stroke="none"><path
         id="eyebrow_nose-8"
         d="M 41,-14 C 29.5,-24 15,-25.5 7,-18 A 140,50 10 0 0 8.5,8.5 C 8,8.5 7,9 6.5,9.5 A 80,50 10 0 1 4,-19 c 11,-9 26,-10 37,5" /><path
         id="uppalpebra-5"
         d="m 23,-17 c -6.5,0 -8,1.5 -11,4 -3,2.5 -4.5,2 -5,2.5 -0.5,0.5 0,2 1,1.5 1,-0.5 3,-1.5 6,-4 3,-2.5 6,-2.5 9,-2.5 9,0 14,7.5 15,7 C 39,-9 33,-17 23,-17" /><path
         id="upeyecontour"
         d="M 34.5,-8.5 C 28,-15.5 16,-16 11,-8 h 2 c 5,-8 17,-4.5 18,-1 v 1" /><circle
         id="pupil-6"
         cx="22"
         cy="-9"
         r="4.5" /><path
         id="loweyecontour-3"
         d="m 11,-8 c 5,4.5 16,5 23.5,-0.5 L 31,-9 c -5,5.5 -13,5 -18,1 v -1" /><path
         id="lowpalpebra-4"
         d="M 35,-6 C 26.5,0.5 18,0 13,-3 8,-6 8,-7 9,-7 c 1,0 2,1 6,3 4,2 10,2 20,-2" /><path
         id="nose"
         d="m 10.5,9 a 3,3 0 1 1 -4,3 C 6,13 4,16 0,16 h -1 l 1,1.5 c 1,0 4,0 6,-1.5 a 4.5,4.5 0 1 0 4.5,-7" /><path
         id="uplip"
         d="M 16.5,30 C 12,27 10,22.5 5,22.5 4,22.5 2,23 0,24 h -1 l 1,1.5 c 2,0 5,-2.5 8.5,-0.5 3.5,2 5.5,4 8,5" /><path
         id="midlip"
         d="M 15,30 C 5,27 3,29 0,29 h -1 l 1,2 c 4,0 6,-3 15,-1" /><path
         id="path2829"
         d="M 16.5,30 C 5.5,29 9,35.5 0,35.5 H -1 L 0,37 c 11,0 6,-6 16.5,-7" /><path
         id="chin"
         d="M 9,46 A 9,9 0 0 0 -9,46 9.25,9.25 0 0 1 9,46" /></g><use
       xlink:href="#face_right"
       transform="scale(-1,1)"
       id="use2833"
       x="0"
       y="0"
       width="100%"
       height="100%" /></g></svg>
