<?xml version="1.0" encoding="UTF-8" standalone="no"?>
<!-- Generator: Adobe Illustrator 23.0.1, SVG Export Plug-In . SVG Version: 6.00 Build 0)  -->

<svg
   version="1.1"
   id="Livello_1"
   x="0px"
   y="0px"
   viewBox="0 0 125.33501 131.48885"
   enable-background="new 0 0 238.4 250"
   xml:space="preserve"
   width="125.33501"
   height="131.48885"
   xmlns="http://www.w3.org/2000/svg"
   xmlns:svg="http://www.w3.org/2000/svg"><defs
   id="defs39">
	
	
</defs>
<path
   style="fill:#0043ff;fill-opacity:1;stroke:none;stroke-width:0.525862px;stroke-linecap:butt;stroke-linejoin:miter;stroke-opacity:1"
   d="M 21.471254,23.039088 2.6592837,63.012896 30.237041,104.8574 56.632892,124.64738 124.23951,39.619214 95.438736,2.0676095 64.709239,18.608496 56.238926,31.309532 42.253063,17.820833 Z"
   id="path626" /><path
   d="m 67.255883,66.698764 c 0,2.270646 -0.122795,4.47013 -0.337574,6.575442 l -18.969477,1.659033 c -0.225049,-2.066842 -0.337573,-4.245746 -0.337573,-6.516392 0,-2.270647 0.122792,-4.470135 0.337573,-6.575447 l 18.969477,-1.659033 c 0.225051,2.066841 0.337574,4.245751 0.337574,6.516397 z m 2.946589,-6.803626 12.595182,-1.101547 c 0.542301,2.049354 0.828741,4.213048 0.828741,6.473437 0,2.260382 -0.28644,4.474183 -0.828741,6.618402 l -12.595182,1.101548 c 0.214989,-2.125854 0.327517,-4.324443 0.327517,-6.574564 0,-2.250125 -0.112528,-4.42903 -0.327517,-6.517276 z M 81.72333,55.61458 69.783176,56.658845 C 68.75998,50.212725 66.73412,44.91793 64.125109,41.648094 c 8.011228,1.416545 14.528842,6.655954 17.587954,13.967386 z m -15.255332,1.334207 -18.068859,1.580267 c 0.624017,-3.777474 1.585818,-7.155034 2.7624,-9.927416 1.074325,-2.507884 2.271448,-4.361443 3.4277,-5.567247 1.145991,-1.184399 2.097521,-1.594913 2.844334,-1.660228 0.746813,-0.06532 1.698343,0.178762 2.844334,1.162708 1.156252,1.003556 2.353371,2.647719 3.427696,4.967688 1.186852,2.555416 2.138377,5.765689 2.762395,9.444228 z M 45.083965,58.818991 33.143809,59.863256 C 36.21319,52.01584 42.720535,45.63729 50.742035,42.818553 c -2.609015,3.726195 -4.634873,9.375345 -5.65807,16.000438 z m -13.014481,4.41119 12.594977,-1.101537 c -0.214781,2.125833 -0.327305,4.324423 -0.327305,6.574548 0,2.250121 0.112524,4.429025 0.327305,6.517291 l -12.594977,1.101538 c -0.542296,-2.049365 -0.82874,-4.21306 -0.82874,-6.473442 0,-2.260389 0.286444,-4.474189 0.82874,-6.618398 z m 19.092055,24.370653 c -1.186849,-2.55542 -2.138383,-5.765686 -2.7624,-9.434009 l 18.068859,-1.580268 c -0.624018,3.777474 -1.585815,7.155072 -2.762395,9.917199 -1.074325,2.507884 -2.271444,4.361442 -3.427696,5.567308 -1.145991,1.194703 -2.097521,1.605115 -2.844334,1.670431 -0.746813,0.06531 -1.698343,-0.178662 -2.844334,-1.162647 -1.156252,-1.003623 -2.353375,-2.647777 -3.4277,-4.96775 z M 45.083965,78.45676 c 1.023197,6.446171 3.049055,11.740971 5.65807,15.010714 C 42.720535,92.051915 36.21319,86.811605 33.143809,79.501025 Z M 81.72333,75.25235 c -3.069379,7.847466 -9.576726,14.226017 -17.588165,17.04379 2.609222,-3.726126 4.624815,-9.374382 5.658068,-16.000403 z"
   fill="#ffffff"
   id="path4"
   style="stroke-width:2.09506" /><path
   d="M 95.408084,-1.0156067e-6 C 81.996253,-9.5256095e-7 66.112437,9.88449 56.487476,26.393692 53.910301,20.452482 44.653508,13.932924 33.661066,13.932924 24.825036,13.932925 0,24.974111 0,60.673947 0,106.73146 46.599538,116.19534 56.014117,130.4963 c 0.631145,0.99897 2.734962,1.73505 3.523893,-0.63092 7.521145,-22.18753 65.79687,-47.214215 65.79687,-92.377925 C 125.38747,12.197881 108.81991,-1.0260753e-6 95.408084,-1.0156067e-6 Z M 12.728091,58.570863 C 13.043663,30.021511 27.87557,21.135984 35.975264,21.135984 c 11.308015,1e-6 15.936411,8.622642 16.725342,12.408191 0.736336,3.785549 5.04916,6.835019 6.416641,0.630924 1.367481,-6.256672 14.674121,-25.2895739 30.9787,-25.2895739 14.937093,0 20.144043,15.4050839 19.670683,28.4967759 C 108.55694,73.082132 62.588544,101.52634 56.487476,119.5077 51.070148,108.62424 12.359923,92.851118 12.728091,58.570863 Z"
   id="path32"
   style="stroke-width:0.525862" />
</svg>
