<?xml version="1.0" encoding="UTF-8" standalone="no"?>
<svg
   width="125.33"
   height="131.44"
   version="1.1"
   id="svg652"
   xmlns="http://www.w3.org/2000/svg"
   xmlns:svg="http://www.w3.org/2000/svg">
  <defs
     id="defs956" />
  <style
     id="style592"><![CDATA[.B{stroke:#000}.C{stroke-width:1.157}]]></style>
  <g
     id="g1148">
    <path
       d="M 4.7721287,63.6012 110.7841,56.18106 57.248053,126.14238 20.673924,94.87179 Z M 14.843266,28.09053 37.635839,16.96032 56.717993,30.21057 78.450446,9.01017 109.19392,6.36012 119.26505,60.42114 6.3623083,70.49133 M 14.843266,28.09053 37.635839,16.96032 56.717993,30.21057 78.450446,9.01017 109.19392,6.36012 119.26505,60.42114 6.3623083,70.49133 M 14.843266,28.09053 37.635839,16.96032 56.717993,30.21057 78.450446,9.01017 109.19392,6.36012 119.26505,60.42114 6.3623083,70.49133"
       fill="#00aa33"
       id="path594"
       style="stroke-width:0.530035" />
    <path
       d="M 14.843266,28.09053 37.635839,16.96032 56.717993,30.21057 78.450446,9.01017 109.19392,6.36012 119.26505,60.42114 6.3623083,70.49133 Z"
       fill="#f9f9f9"
       id="path596"
       style="stroke-width:0.530035;fill:#ffffff;fill-opacity:1" />
    <g
       transform="matrix(0.10709859,-0.01125582,0.01125688,0.10708852,9.2066094,42.319708)"
       id="g646">
      <g
         class="B C"
         fill="#c8102e"
         id="g606">
        <path
           d="m 246.66,113.82 c -25.98,3.937 -91.82,10.123 -117.51,5.906 l 5.02,12.092 c 42.515,-3.937 83.259,9.843 121.05,-4.499 l -8.563,-13.498 z"
           id="path598" />
        <path
           d="m 145.98,143.34 c -16.24,-4.779 -43.107,-32.62 -47.535,-49.493 12.695,8.716 43.105,19.966 54.03,18.841 -3.544,2.531 -12.401,9.279 -19.192,10.123 3.25,6.188 9.448,14.06 12.697,20.528 z m 52.257,-8.436 c 4.726,6.468 29.526,3.796 42.072,-4.076 l -3.395,-5.485 -2.509,4.64 -3.985,-4.358 -1.032,6.889 -6.938,-5.062 -1.183,6.047 -4.428,-5.344 -1.623,6.609 -6.497,-5.064 -2.509,6.891 a 13.18,13.18 0 0 1 -3.101,-8.295 c -2.509,0.983 -4.576,4.217 -4.872,6.606 z m 2.067,-20.949 c 0,1.686 2.067,6.609 5.907,8.013 0.148,-2.108 -2.511,-7.03 -0.886,-9.137 l 3.395,3.093 1.034,-5.906 4.576,3.234 0.442,-6.889 4.724,3.093 v -7.592 c -7.677,0.701 -17.125,9.56 -19.192,12.091 z m 479.11,76.629 c -1.993,-4.499 -8.193,-9.982 -13.655,-13.357 l 8.779,-21.074 c -8.267,1.689 -25.459,2.936 -35.499,1.812 18.895,-17.997 58.459,-55.118 71.45,-71.991 -4.724,23.059 -1.18,74.802 8.267,92.799 -10.04,-3.937 -21.643,-12.089 -28.137,-21.088 -3.831,12.919 -8.529,26.996 -11.13,32.759"
           id="path600" />
        <path
           d="m 310.73,91.882 c 1.18,5.906 1.474,10.405 5.904,12.092 4.43,1.687 14.171,5.061 20.372,15.186 -7.381,-1.968 -17.715,-4.781 -18.601,1.969 -0.842,6.424 2.115,6.234 7.087,7.31 6.495,1.406 12.695,8.999 12.992,19.124 -5.316,-3.093 -12.697,-5.624 -17.421,-5.624 -4.724,0 -6.053,0.842 -7.233,6.466 -1.949,9.276 1.625,9.843 6.053,10.405 4.428,0.562 13.878,4.781 14.468,20.248 -5.02,-4.219 -15.088,-6.569 -21.259,-7.592 -3.395,-0.562 -3.985,1.124 -4.427,7.03 -0.442,5.906 0.294,7.875 6.198,9.561 5.904,1.686 12.697,5.906 14.468,14.905 -5.61,-2.531 -14.468,-1.687 -17.125,-0.563 -2.657,1.124 -4.096,7.41 1.514,19.501 a 176.19,176.19 0 0 1 37.164,-7.691 c 27.906,-2.798 21.259,-21.37 21.259,-50.617 0,-29.247 61.41,-61.866 154.71,-113.61 -22.439,54.554 8.268,49.493 25.39,43.307 17.122,-6.186 57.279,-21.934 88.575,-34.871 -43.107,27.558 -64.956,56.805 -27.163,69.741 -48.421,14.622 -70.86,54.554 -44.287,79.864 -18.12,-6.113 -43.232,5.42 -53.75,21.483 18.895,-1.689 55.52,2.703 77.959,8.888 21.367,5.89 56.64,-1.007 59.964,-19.157 a 14.99,14.99 0 0 0 0.268,-2.777 c 0,-6.327 -1.629,-11.104 -4.124,-14.585 -5.488,-7.66 -15.104,-9.318 -20.381,-9.318 -7.677,0 -15.648,3.093 -15.648,8.436 0,5.343 4.724,7.592 14.172,7.592 5.166,0 13.13,0.855 21.858,-6.711 2.495,3.481 4.124,8.258 4.124,14.585 -0.008,0.919 -0.102,1.836 -0.28,2.738 a 56.84,56.84 0 0 1 -26.885,6.823 c -18.896,0 -36.609,-7.312 -36.609,-26.996 0,-19.684 21.256,-30.933 38.381,-30.933 23.619,0 56.686,8.999 56.686,44.993 0,45.558 -62.714,66.864 -99.916,66.864 6.237,4.984 13.262,9.627 20.791,12.438 26.348,9.843 49.602,21.934 57.869,40.496 -10.038,0 -26.573,-7.874 -34.25,-15.749 21.259,24.748 -4.525,70.27 -1.77,85.49 2.951,16.309 23.029,6.186 23.029,18.841 0,11.247 -11.811,9.279 -16.239,4.217 -4.428,-5.062 -18.627,-9.314 -25.983,-4.217 -6.494,4.499 -16.532,6.748 -20.962,2.249 -4.43,-4.499 -20.666,-2.813 -27.457,3.375 -6.791,6.188 -16.276,6.669 -19.192,1.969 -3.122,-5.033 -2.324,-11.153 10.306,-13.271 -5.61,-5.626 -22.707,3.99 -25.658,-6.695 -2.123,-7.678 2.361,-11.249 17.123,-10.125 -1.477,-3.655 -12.399,-5.341 -10.924,-12.936 1.475,-7.595 10.01,-12.292 20.078,-1.124 26.866,29.809 39.267,13.218 48.419,0.282 -2.951,-6.75 0.296,-11.249 5.907,-15.467 -2.953,-4.782 -1.183,-11.529 0.884,-16.029 -4.428,-2.531 -7.085,-13.78 -2.361,-17.717 -3.84,0 -9.744,-4.219 -9.744,-11.529 a 13.77,13.77 0 0 1 -16.532,-1.687 c -5.61,3.093 -20.372,3.655 -26.869,-3.095 -8.858,3.375 -24.506,2.531 -28.637,-3.937 -7.796,1.971 -22.145,-4.499 -25.096,-11.529 a 30.64,30.64 0 0 1 -12.945,-3.935 c -11.808,8.437 -27.8,24.745 -11.857,37.119 15.943,12.374 49.011,2.248 49.602,33.182 -7.677,-6.186 -21.849,-4.499 -26.573,-10.685 -15.942,22.497 -38.971,43.025 -72.925,51.461 5.018,3.093 14.172,3.375 17.713,3.093 7.362,-0.584 13.581,5.344 7.973,12.374 -5.608,7.03 -17.125,1.125 -23.915,-4.779 -9.772,-8.5 -16.239,-3.657 -18.896,-1.689 -2.657,1.968 -6.201,3.095 -10.924,-1.406 -4.723,-4.501 -9.154,-1.404 -11.515,1.406 -3.838,4.57 -12.695,-5.906 -26.867,6.468 -6.814,5.95 -23.029,-1.686 -16.535,-10.405 -6.791,1.689 -18.801,-7.707 -8.857,-16.871 9.154,-8.436 26.572,10.967 40.744,5.341 -3.185,-3.86 -9.823,-11.011 -23.62,-12.654 -7.087,-0.844 -8.341,-8.695 -5.02,-14.342 4.133,-7.03 16.831,-2.248 25.392,8.719 6.744,8.639 15.648,8.717 24.8,7.03 6.43,-4.083 16.387,-4.219 20.817,-2.813 0,-4.217 6.937,-7.875 12.251,-7.875 -0.294,-5.624 1.477,-10.685 10.04,-12.091 0.713,-0.117 1.451,-0.232 2.213,-0.3 -5.965,0.273 -11.747,-2.098 -15.803,-6.479 -11.827,2.886 -24.929,-2.676 -26.855,-13.313 -18.694,-1.303 -20.553,-20.167 -15.947,-26.308 a 10.2,10.2 0 0 1 1.259,-1.409 c -5.564,4.184 -12.674,6.119 -21.467,3.073 -8.265,11.236 -22.65,16.14 -36.057,12.292 -3.717,5.618 -9.379,9.664 -15.898,11.362 0.551,6.816 -0.919,14.538 -9.915,23.612 2.361,-12.374 -14.172,-16.311 -10.628,-36.557 -1.183,14.622 -45.764,38.807 -52.851,70.865 6.497,2.813 13.584,4.779 18.011,3.937 11.137,-2.121 14.762,8.999 11.515,13.498 -3.247,4.499 -12.401,6.748 -16.239,2.811 -3.838,-3.937 -11.811,1.406 -15.648,-5.904 -3.837,-7.31 -14.468,-4.781 -18.895,0 -4.427,4.781 -19.192,-6.188 -29.82,4.779 -3.976,4.103 -17.419,8.437 -25.392,6.188 -7.973,-2.249 -12.695,-10.125 -10.038,-14.342 -5.314,-4.782 -5.388,-10.637 -0.294,-15.749 -1.921,-7.171 4.34,-21.342 14.91,-15.747 6.643,3.514 30.188,20.107 50.708,1.124 17.792,-16.664 7.427,-30.016 18.821,-31.777 -1.386,-6.766 2.954,-15.184 7.677,-16.873 -1.373,-2.806 -1.623,-6.03 -0.697,-9.014 -2.683,-0.208 -5.324,-0.786 -7.849,-1.72 -8.848,2.506 -17.986,3.846 -27.181,3.986 0,6.748 -8.265,23.059 -15.352,30.933 -2.361,-61.866 -61.41,-68.054 -69.384,-117.26 -0.294,7.31 -8.267,14.622 -9.152,20.808 -0.885,6.186 -4.724,10.967 -11.811,8.157 -7.087,-2.81 -8.857,-14.625 -1.77,-16.311 7.087,-1.686 5.758,-12.936 10.186,-14.342 4.428,-1.406 5.166,-5.906 3.395,-11.529 -1.771,-5.623 0.884,-12.374 2.657,-16.591 1.773,-4.217 -0.886,-11.249 -7.087,-13.78 -6.201,-2.531 -8.265,-8.717 -5.904,-14.06 -6.495,-4.499 -4.643,-14.223 4.133,-16.029 10.924,-2.251 10.628,14.902 16.829,16.873 -0.884,-3.375 0.296,-9.843 2.954,-14.062 -3.544,-7.313 0.886,-13.216 7.971,-13.216 12.401,0 8.267,19.684 5.314,25.872 4.134,-5.626 10.631,-12.094 15.648,-7.592 5.017,4.502 4.201,13.895 -1.181,17.995 -4.43,3.375 -13.581,8.718 -10.924,14.624 5.314,8.999 8.561,19.684 9.154,33.464 7.381,5.344 12.105,11.529 12.105,16.591 4.87,0.282 14.199,4.131 15.5,9.563 5.904,-0.564 14.723,0.564 17.271,5.765 1.921,-0.986 7.043,-1.314 10.144,-1.034 a 19.06,19.06 0 0 1 4.323,-12.043 c -10.038,-10.687 -9.744,-27.558 0.591,-34.308 -2.942,-7.006 -1.771,-19.966 7.971,-26.716 -0.21,-7.032 1.773,-16.309 11.515,-22.214 -1.477,-7.594 3.544,-17.997 9.744,-18.56 -1.477,-7.312 -0.361,-16.337 8.2,-20.557 -2.016,-2.116 -3.064,-4.972 -2.895,-7.89 -15.019,3.093 -20.888,11.847 -25.677,20.01 -0.59,-3.375 -1.477,-7.874 -3.544,-11.249 0,8.717 -6.791,11.811 -7.085,23.903 -5.02,-5.062 -6.791,-13.218 -6.497,-18.841 0.236,-4.502 -7.675,-8.717 -5.314,-16.591 11.811,10.405 35.726,-12.374 56.393,-5.061 -20.372,-40.776 -35.134,-21.093 -45.468,-14.06 -10.334,7.033 -17.715,-3.375 -16.532,-10.125 -13.878,-3.093 -30.412,-2.531 -48.421,0.844 13.285,-16.593 44.582,-23.903 67.611,-22.217 10.038,-17.715 22.145,-15.184 33.953,-13.498 7.721,1.105 16.739,1.129 25.686,0.699 5.61,-14.905 38.381,-16.445 41.631,-28.257 2.953,2.249 1.159,10.712 -1.794,18.021 8.536,-2.433 15.866,-5.033 18.326,-10.147 1.477,4.779 -0.884,17.715 -4.134,21.652 3.368,-0.898 6.852,-1.277 10.334,-1.125 -10.334,5.624 -23.323,14.06 -25.39,15.467 -2.067,1.407 -3.25,4.217 2.067,7.03 -5.907,1.125 -22.439,6.75 -29.23,2.251"
           id="path602" />
        <path
           d="m 86.345,167.95 c 7.823,-5.344 18.52,-1.393 20.814,6.468 1.477,5.061 -7.492,8.82 -8.267,4.078 -1.032,-6.327 -5.314,-10.264 -12.547,-10.546 z m 30.682,-16.349 c 9.105,-2.983 18.164,3.721 17.995,11.88 -0.109,5.251 -9.832,6.402 -9.147,1.649 0.914,-6.345 -2.002,-11.285 -8.848,-13.529 z m 33.86,14.396 c 8.684,3.957 10.203,14.788 4.074,20.49 -3.946,3.67 -11.723,-2.006 -7.733,-4.938 5.324,-3.908 6.884,-9.38 3.659,-15.552 z m -69.154,113.66 c 7.577,5.655 18.442,2.143 21.085,-5.619 1.701,-4.997 -7.094,-9.115 -8.078,-4.409 -1.314,6.278 -5.768,10.039 -13.007,10.028 z m 53.326,113.72 c 3.173,-8.657 14.31,-11.289 20.935,-6.115 4.263,3.333 -0.803,11.32 -4.301,7.866 -4.668,-4.61 -10.547,-5.485 -16.634,-1.75 z m -9.962,23.284 c 0.528,-9.155 13.41,-14.909 21.281,-11.688 5.069,2.075 2.528,11.088 -1.84,8.692 -5.826,-3.194 -14.681,-2.2 -19.442,2.996 z m 14,21.604 c -3.303,-8.613 3.56,-17.369 12.128,-17.362 5.516,0.005 6.909,9.241 1.905,8.679 -6.675,-0.75 -11.807,2.123 -14.033,8.683 z m 138.86,-7.689 c 1.141,-9.104 -7.651,-16.126 -15.988,-14.248 -5.367,1.21 -4.497,10.505 0.236,8.864 6.319,-2.189 12.005,-0.516 15.752,5.383 z m 53.268,2.907 c -1.977,-8.974 6.131,-16.705 14.609,-15.533 5.46,0.754 5.453,10.086 0.583,8.849 -6.494,-1.651 -12.003,0.491 -15.192,6.684 z m 132.83,-2.193 c 0.738,-9.144 -8.355,-15.808 -16.602,-13.597 -5.309,1.424 -4.031,10.676 0.628,8.848 6.217,-2.44 11.971,-0.996 15.974,4.749 z m -148.6,-16.849 c -1.412,-9.069 8.036,-16.875 16.426,-15.224 5.402,1.065 3.941,10.925 -0.842,9.415 -6.381,-2.017 -12.015,-0.19 -15.583,5.809 z m 12.366,-26.092 c 0.528,-9.155 11.431,-14.993 19.302,-11.77 5.067,2.075 1.553,11.457 -2.812,9.061 -5.826,-3.197 -11.73,-2.484 -16.491,2.709 z m 203.29,49.914 c -1.977,-8.974 6.131,-16.706 14.609,-15.533 5.46,0.756 5.453,10.088 0.583,8.851 -6.495,-1.651 -12.003,0.492 -15.192,6.682 z m 131.93,-4.295 c 2.043,-8.961 -6.008,-16.747 -14.496,-15.63 -5.462,0.719 -5.525,10.05 -0.648,8.844 6.508,-1.607 12.003,0.571 15.144,6.785 z m -148.92,-16.504 c -1.391,-9.072 7.205,-16.311 15.591,-14.64 5.399,1.076 4.784,10.39 0.007,8.867 -6.376,-2.03 -12.014,-0.216 -15.597,5.773 z m 4.913,-24.761 c 0.178,-9.169 9.897,-14.977 17.884,-12.028 5.143,1.898 2.946,10.992 -1.509,8.75 -5.944,-2.994 -11.815,-2.076 -16.375,3.278 z"
           id="path604" />
      </g>
      <g
         class="B C"
         fill="none"
         id="g622">
        <path
           d="m 552.24,93.289 c -22.439,7.312 -109.24,39.932 -125.18,44.993 -15.94,5.061 -24.209,6.188 -33.657,26.996"
           id="path608" />
        <path
           d="m 510.32,69.103 c -56.686,34.871 -102.74,65.241 -115.74,93.926 -13,28.685 -12.105,46.118 -43.697,51.179 m -90.935,53.994 c 14.172,-15.748 43.695,-34.87 72.039,-35.994 a 169.52,169.52 0 0 0 -14.172,26.996 m -0.59,10.685 c 7.087,-8.999 24.8,-28.12 36.02,-35.995 -5.314,15.187 -14.171,51.181 -9.447,75.926 2.951,-23.621 15.942,-60.178 29.523,-80.988 10.04,23.059 23.619,55.68 23.619,76.491 2.953,-24.747 -2.951,-67.492 -11.808,-86.051 24.209,11.809 54.325,45.555 67.317,66.366 -8.857,-29.247 -38.973,-64.679 -54.918,-75.929 39.564,6.75 96.843,30.935 118.1,48.933 -34.838,-30.933 -77.355,-55.118 -107.47,-66.368 47.239,-3.935 135.81,6.188 161.2,15.749 -37.201,-20.248 -113.96,-30.933 -160.02,-28.121 48.421,-19.686 134.63,-42.182 204.31,-51.743 -53.145,2.811 -121.64,16.311 -191.91,31.495 31.296,-20.248 128.14,-58.491 151.17,-65.241 M 274.121,79.79 c 4.217,-13.273 21.423,-16.796 35.407,-20.786"
           id="path610" />
        <path
           d="m 297.44,89.634 c -11.808,-0.844 -13.908,-4.841 -7.381,-9.281 4.134,-2.813 12.695,-7.312 18.602,-7.874 -1.477,-0.28 -5.61,-1.406 -7.678,-1.686 6.201,-2.531 16.535,-6.188 20.076,-9.563 m -37.348,7.031 c -4.518,0.39 -9.26,0.749 -14.023,0.979 m -16.533,65.105 c -2.881,0.144 -5.747,0.506 -8.573,1.083 m -39.448,142.29 c -0.114,8.089 2.796,15.928 8.161,21.983 4.724,5.061 33.66,6.75 34.84,-2.813 m -38.678,-31.214 c 10.038,10.685 42.515,4.217 42.515,-3.655 m -41.924,-30.653 c 3.543,8.436 41.334,16.029 41.924,6.186 M 218.019,204.65 c 0.296,9.843 34.712,16.236 35.726,8.999 m -24.212,-31.213 c 1.477,7.592 24.212,14.905 27.459,11.529 m -17.715,-30.089 c 1.076,5.333 17.419,10.123 23.029,8.155 M 247.477,143.32 c 3.349,3.873 9.848,7.478 21.03,9.307 m -77.649,-49.212 c 0.294,-5.906 6.198,-6.748 5.314,-12.654 m 56.687,36.839 c 2.067,3.093 7.381,9.561 7.971,14.342 2.954,-2.251 5.314,-7.032 6.201,-9.281 a 18.42,18.42 0 0 1 5.904,8.998 c 1.183,-3.375 3.25,-9.281 3.544,-12.936 a 27.39,27.39 0 0 1 11.515,5.624 c 0.59,-3.655 -1.18,-8.436 -4.134,-10.405 a 19.74,19.74 0 0 0 9.448,-1.968 c -2.067,-2.811 -5.314,-6.468 -8.562,-8.155 2.954,-0.844 7.085,-4.217 8.858,-5.624 -2.657,-1.124 -7.381,-3.657 -10.334,-5.061 1.771,-1.689 3.247,-5.061 4.134,-7.594 M 203.847,81.903 c -1.918,0 -2.805,4.217 0.738,6.889 2.548,1.922 2.509,9.843 -2.067,11.812"
           id="path612" />
        <path
           d="m 272.94,141.66 c -12.989,28.683 -24.947,83.098 -20.814,122.47 m 14.024,53.853 c 0,5.906 9.744,7.03 9.448,-7.03 m -0.885,7.03 c 1.18,5.061 11.218,6.186 9.151,-8.718"
           id="path614" />
        <path
           d="m 270.58,321.91 c 0.59,10.967 7.971,10.405 8.561,0 m 5.02,-7.594 c 2.951,6.75 11.218,3.375 8.858,-11.529"
           id="path616" />
        <path
           d="m 293.31,309.26 c 3.249,5.626 10.924,1.126 11.811,-8.717 m -50.193,-22.496 c -5.066,5.284 -10.878,17.147 -3.839,28.402 4.136,6.607 15.502,10.264 16.683,6.327"
           id="path618" />
        <path
           d="m 251.09,306.45 c -4.576,0.703 -11.306,10.046 -7.971,18.98 2.363,6.327 15.945,10.125 18.011,5.485 m 128.73,-16.592 c 14.762,1.689 34.249,-7.872 35.43,-26.996 m -1.773,8.999 c 8.268,5.062 25.393,6.75 32.477,-6.186 m -24.799,10.122 c -7.677,16.873 -14.632,34.8 1.18,47.806 12.991,10.687 22.64,-5.244 38.384,10.687 4.723,4.779 -0.887,13.778 -48.422,39.932 m -227.34,-119.94 c 3.101,6.327 2.805,18.701 -3.099,17.012 m -43.55,122.89 c 10.038,-14.622 21.891,-2.806 30.41,-5.344"
           id="path620" />
      </g>
      <path
         class="B C"
         d="m 226.74,84.429 c -1.773,4.078 2.942,9.783 7.381,10.266 5.166,0.562 12.547,-2.672 10.924,-7.874"
         fill="#ffffff"
         id="path624" />
      <g
         class="B C"
         fill="none"
         id="g642">
        <path
           d="m 221.57,84.852 c 2.657,-3.516 33.659,7.592 46.058,-0.282 m -146.44,105.18 c -1.18,2.529 -0.738,9.982 3.84,14.06 m 215.23,212.6 c 2.363,-2.81 11.105,-5.65 17.567,-4.076 6.348,1.545 17.715,-0.562 25.096,-3.375 m -109.98,-267.29 c -2.951,27.559 3.692,69.882 20.669,88.723 m -29.584,-64.256 c 0.486,24.522 6.791,53.637 19.254,69.664 m -26.077,-42.939 c 2.453,18.557 7.978,37.218 16.708,49.338 m -20.988,-21.171 c 2.949,11.013 7.101,21.121 12.492,28.722 m -14.012,-2.07 c 1.659,3.545 3.627,6.936 5.881,10.136"
           id="path626" />
        <path
           d="m 272.35,158.81 c -0.884,8.718 -6.494,15.466 -11.515,19.404 m 12.105,-7.31 c -0.884,8.716 -7.085,16.591 -15.204,20.387 m 16.977,-8.296 c -0.886,8.717 -9.744,19.404 -19.782,24.183 m 22.143,-12.092 c -0.884,8.719 -12.399,21.934 -24.122,26.176 m 27.814,-14.084 c -3.395,11.812 -16.977,25.592 -28.933,28.685 m 34.247,-16.591 c -0.886,8.716 -19.044,26.433 -34.692,31.495 m -73.663,22.217 c 1.919,8.013 -4.43,15.326 -7.677,13.357"
           id="path628" />
        <path
           d="m 211.53,300.82 c -30.706,-6.188 -53.537,-16.496 -66.134,-40.496 -3.249,-6.186 5.314,-7.874 4.724,-13.498 m -9.154,-33.464 c -5.314,-8.998 -6.497,-18.841 -3.544,-25.027"
           id="path630" />
        <path
           d="m 162.22,263.42 c 0,5.063 -6.348,11.529 -8.563,9.14 m 59.639,27.136 c -3.539,8.187 3.305,23.822 18.324,29.198 m 11.495,-3.467 a 9.53,9.53 0 0 0 -3.647,5.187 m 15.755,11.545 c -2.659,4.219 -12.991,1.126 -15.058,-2.531 m -26.499,48.65 c -12.519,11.723 -25.272,12.385 -40.522,14.06 -15.354,1.689 -19.634,-4.921 -25.096,0.562 m 165.63,-102.64 c 1.773,7.875 1.181,15.749 -5.904,27.56 -3.911,6.517 -0.206,13.546 0.468,21.944 m 73.422,-26.727 c 6.768,-5.088 11.234,-13.481 13.503,-19.964 m -34.97,23.037 c 7.7,-10.035 8.902,-23.617 3.083,-34.848 m -39.14,47.14 c 4.539,-6.675 7.254,-16.183 7.254,-28.581 m -98.908,46.682 c 1.181,5.764 10.334,8.295 11.811,5.485"
           id="path632" />
        <path
           d="m 305.71,288.73 c 0,5.624 -5.904,9.843 -10.334,6.468 0.59,8.155 -5.608,10.687 -10.038,6.75 0.886,11.529 -9.152,12.654 -15.648,3.655 -7.381,34.588 -32.181,60.46 -33.954,77.333 -0.59,3.937 -16.386,2.813 -12.253,-8.716 m 189.4,-53.712 c -8.858,-1.054 -24.436,-3.646 -31.218,2.529 m 34.762,23.904 c -8.186,3.093 -14.801,4.18 -20.073,3.811 m 42.658,19.793 c 8.159,-0.304 16.574,-5.471 19.93,-18.259 m -35.734,11.78 a 24.44,24.44 0 0 0 15.951,-12.343"
           id="path634" />
        <path
           d="m 463.37,373.38 c -5.14,-1.548 -15.991,-3.589 -24.357,-2.831 m -4.87,21.673 c 3.247,-1.689 -2.067,-9.281 -7.383,-9.281 m -54.62,21.934 c 7.518,-3.071 14.733,-6.836 21.552,-11.247 m 20.817,-2.813 c 4.009,1.274 9.89,6.186 7.823,7.874 m 30.116,-113.05 c 4.724,7.874 13.579,12.936 25.39,7.874 0.831,2.372 3.639,4.806 7.133,6.75 m 32.725,-16.592 c 5.907,4.499 -4.428,21.09 -19.78,20.528"
           id="path636" />
        <path
           d="m 600.37,385.19 c 2.048,4.68 9.744,4.217 12.697,0 3.372,-4.819 9.448,-19.686 5.904,-49.495 -3.544,-29.809 -33.657,-33.744 -68.497,-40.494 -34.84,-6.75 -43.697,-17.435 -50.782,-37.118"
           id="path638" />
        <path
           d="m 606.27,369.72 c 2.951,4.779 11.218,3.655 12.399,-1.126 m -11.515,-14.903 c 4.43,2.531 12.991,1.686 12.695,-3.937 m -15.056,-13.78 c 3.837,0 14.171,0.562 13.581,-3.937 m -23.325,-7.592 c 3.247,-2.251 12.401,-11.811 7.381,-14.625 m -23.913,12.938 c 5.608,-3.095 11.808,-19.124 5.018,-20.53 m -31.887,17.435 c 8.857,-3.375 17.125,-20.81 11.22,-21.934 m -39.857,17.997 c 14.465,-3.655 18.895,-22.214 13.285,-23.903 m 6.495,107.14 c 15.067,1.149 23.325,8.719 29.23,11.811 m -32.772,-164.51 c 13.727,-1.265 27.223,18.732 45.934,33.68 m 105.44,-122.26 c 2.583,-8.712 4.747,-16.897 5.698,-21.655 m -144.99,279.75 a 64.6,64.6 0 0 1 10.656,-0.789 m 123.12,-285.71 c -1.995,5.383 -6.284,16.34 -10.559,26.873 m -360.82,65.744 c -26.04,8.551 -53.007,24.97 -70.305,55.301 9.448,2.249 27.753,0 36.02,-2.813 0.591,7.312 0.591,16.873 0.591,23.061 8.267,-6.188 18.305,-15.187 25.982,-17.435 -0.592,7.31 -0.592,20.245 -0.592,25.309 11.221,-11.249 32.477,-12.374 38.384,4.497 4.723,-24.745 43.695,-25.87 53.143,-4.497 10.631,-19.686 37.793,-26.998 55.508,-19.686 7.675,-20.81 41.332,-32.057 63.181,-26.996 -7.242,-9.534 -5.948,-20.076 -0.014,-29.136"
           id="path640" />
      </g>
      <path
         class="B"
         d="m 230.23,85.391 11.581,2.04 c 0,0 -8.151,10.403 -11.581,-2.04 z"
         stroke-linejoin="round"
         stroke-width="1.692"
         id="path644" />
    </g>
    <path
       d="M 12.725677,58.550205 C 13.043713,30.039907 27.882208,21.116658 35.96297,21.116658 c 11.284974,0 15.94579,8.614253 16.707486,12.428205 0.761166,3.810772 5.032388,6.858859 6.404713,0.607921 1.373385,-6.250938 14.649264,-25.3122172 30.966096,-25.3122172 14.943445,0 20.118955,15.4089812 19.671055,28.5150682 C 108.48947,73.034848 62.522148,101.50805 56.473105,119.49128 51.085577,108.60117 12.347214,92.859342 12.727267,58.550735 Z M 95.377907,0 C 81.958383,0 66.087861,9.910127 56.481586,26.379128 53.889594,20.431355 44.654361,13.949863 33.676292,13.949863 24.830123,13.949863 0,25.004812 0,60.685085 0,106.73235 46.59279,116.18773 56.011423,130.5033 c 0.647203,0.98423 2.731929,1.72783 3.527549,-0.62382 C 67.05469,107.70121 125.33,82.642339 125.33,37.509338 125.32947,12.19818 108.79372,0 95.374727,0 Z"
       id="path648"
       style="stroke-width:0.530035" />
  </g>
</svg>
