<?xml version="1.0" encoding="UTF-8" standalone="no"?>
<svg
   width="125.33"
   height="131.45284"
   id="svg2"
   version="1.1"
   xmlns="http://www.w3.org/2000/svg"
   xmlns:svg="http://www.w3.org/2000/svg"
   xmlns:rdf="http://www.w3.org/1999/02/22-rdf-syntax-ns#"
   xmlns:cc="http://creativecommons.org/ns#"
   xmlns:dc="http://purl.org/dc/elements/1.1/">
  <metadata
     id="metadata16">
    <rdf:RDF>
      <cc:Work
         rdf:about="">
        <dc:format>image/svg+xml</dc:format>
        <dc:type
           rdf:resource="http://purl.org/dc/dcmitype/StillImage" />
      </cc:Work>
    </rdf:RDF>
  </metadata>
  <defs
     id="defs14" />
  <path
     style="fill:#003893;fill-opacity:1;stroke-width:0.530046"
     d="M 4.7693575,63.605568 110.77864,56.184918 57.243951,126.15104 20.670749,94.878305"
     id="path4" />
  <path
     style="fill:#fcd116;fill-opacity:1;stroke-width:0.530046"
     d="M 14.840239,28.092459 37.632234,16.961485 56.713909,30.212644 78.445806,9.010789 109.1885,6.3605552 119.25938,60.42529 6.3594966,70.496171"
     id="path6" />
  <path
     d="M 57.193326,124.98494 21.719796,98.003252 90.689703,91.339419 Z"
     id="path4255"
     style="fill:#ce1126;fill-opacity:1;stroke-width:0.530046" />
  <path
     d="M 12.720053,58.554226 C 13.038081,30.04197 27.8762,21.118108 35.956757,21.118108 c 11.284688,0 15.945389,8.614845 16.707068,12.429058 0.761141,3.811034 5.03226,6.859331 6.40455,0.607964 1.372821,-6.249247 14.650478,-25.3150162 30.965306,-25.3139561 14.942009,0 20.118449,15.4100391 19.670029,28.5170261 -1.22282,35.682724 -47.174132,64.13561 -53.239452,82.14129 C 51.076863,108.60704 12.33789,92.865719 12.719523,58.554226 Z M 95.375488,0 C 81.956304,0 66.086184,9.910808 56.480159,26.380409 53.888232,20.432228 44.653228,13.950291 33.675438,13.950821 24.828963,13.950821 0,25.006529 0,60.690313 c 0,46.050427 46.591078,55.509107 56.010533,69.823007 0.646656,0.9843 2.731859,1.72795 3.527458,-0.62386 C 67.054049,107.70967 125.33,82.649075 125.33,37.513504 125.33,12.198488 108.79256,0.00212022 95.375488,0.00159017 Z"
     id="path8"
     style="stroke-width:0.530046" />
</svg>
