<?xml version="1.0" encoding="UTF-8" standalone="no"?>
<svg
   width="125.33"
   height="131.45511"
   version="1.1"
   xml:space="preserve"
   id="svg6939"
   xmlns:xlink="http://www.w3.org/1999/xlink"
   xmlns="http://www.w3.org/2000/svg"
   xmlns:svg="http://www.w3.org/2000/svg"
   xmlns:rdf="http://www.w3.org/1999/02/22-rdf-syntax-ns#"
   xmlns:cc="http://creativecommons.org/ns#"
   xmlns:dc="http://purl.org/dc/elements/1.1/"><metadata
     id="metadata6897"><rdf:RDF><cc:Work
         rdf:about=""><dc:format>image/svg+xml</dc:format><dc:type
           rdf:resource="http://purl.org/dc/dcmitype/StillImage" /></cc:Work></rdf:RDF></metadata><defs
     id="defs6899" /><g
     id="g7581"><path
       d="M 18.023625,84.809574 94.882302,77.388737 57.248053,126.15424 Z"
       fill="#046a38"
       id="path6901"
       style="stroke-width:0.53006" /><path
       d="M 116.19866,38.647193 99.12278,77.918796 16.433445,85.339634 7.4224279,48.235445 Z"
       fill="#ffffff"
       id="path6903"
       style="stroke-width:0.53006;fill:#f9f9f9;fill-opacity:1" /><path
       d="M 14.843266,28.093172 37.635839,16.961915 56.717993,30.213411 78.450446,9.0110173 109.19392,6.3607181 119.26505,39.224428 6.3623082,49.295565 Z"
       fill="#ff671f"
       id="path6905"
       style="stroke-width:0.53006" /><path
       d="M 12.725677,58.555711 C 13.043713,30.042732 27.882208,21.118644 35.96297,21.118644 c 11.284974,0 15.945791,8.615063 16.707487,12.429374 0.761166,3.81113 5.032388,6.859504 6.404713,0.607978 1.373385,-6.251526 14.649264,-25.3145978 30.966096,-25.3145978 14.943444,0 20.118954,15.4104298 19.671054,28.5177498 C 108.48947,73.041717 62.522149,101.51759 56.473106,119.50252 51.085578,108.61138 12.347214,92.868075 12.727267,58.556241 Z M 95.377908,0 C 81.958383,0 66.087861,9.911059 56.481587,26.381609 53.889594,20.433277 44.654362,13.951175 33.676292,13.951175 24.830123,13.951175 0,25.007163 0,60.690792 c 0,46.051598 46.59279,55.507868 56.011424,69.824788 0.647203,0.98432 2.731928,1.72799 3.527548,-0.62388 C 67.054691,107.71134 125.33,82.650111 125.33,37.512865 125.32947,12.199327 108.79372,0 95.374728,0 Z"
       id="path6909"
       style="stroke-width:0.53006" /><g
       transform="matrix(0.18373994,0,-0.02582346,0.18373994,37.164086,-0.88640848)"
       id="g6937"><circle
         cx="159.92"
         cy="349.14999"
         r="92.5"
         fill="#2c2c6f"
         stroke-width="10"
         id="circle6911" /><circle
         cx="159.92"
         cy="349.14999"
         r="80"
         fill="#ffffff"
         stroke-width="10"
         id="circle6913" /><g
         fill="#2c2c6f"
         id="g6933"><circle
           cx="159.92"
           cy="349.14999"
           r="16"
           stroke-width="10"
           id="circle6915" /><g
           id="d-9"
           transform="matrix(10,0,0,10,159.92,349.15)"
           fill="#2c2c6f"><g
             id="c-7"><g
               id="b-6"
               fill="#2c2c6f"><g
                 id="a-4"><path
                   d="M 0,-8 0.3,-3.1859 0,-0.8023 -0.3,-3.1859 Z"
                   fill="#2c2c6f"
                   id="path6917" /><circle
                   transform="rotate(7.5)"
                   cy="-8"
                   r="0.34999999"
                   fill="#2c2c6f"
                   id="circle6919"
                   cx="0" /></g><use
                 transform="scale(-1)"
                 width="100%"
                 height="100%"
                 fill="#2c2c6f"
                 xlink:href="#a-4"
                 id="use6922"
                 x="0"
                 y="0" /></g><use
               transform="rotate(15)"
               width="100%"
               height="100%"
               fill="#2c2c6f"
               xlink:href="#b-6"
               id="use6925"
               x="0"
               y="0" /></g><use
             transform="rotate(30)"
             width="100%"
             height="100%"
             fill="#2c2c6f"
             xlink:href="#c-7"
             id="use6928"
             x="0"
             y="0" /></g><use
           transform="rotate(60,159.92,349.15)"
           width="100%"
           height="100%"
           xlink:href="#d-9"
           id="use6931"
           x="0"
           y="0" /></g><use
         transform="rotate(120,159.92,349.15)"
         width="100%"
         height="100%"
         xlink:href="#d-9"
         id="use6935"
         x="0"
         y="0" /></g></g></svg>
