<?xml version="1.0" encoding="utf-8"?>
<svg id="LOGO_LAYER" viewBox="0 0 125.33 131.4429" version="1.1" width="125.33" height="131.4429" xmlns="http://www.w3.org/2000/svg">
  <defs id="defs1">
    <style id="style1">.cls-1{fill:#ffffff;}.cls-2{fill:#9d2235;}</style>
  </defs>
  <g id="LOGO_GROUP" transform="translate(-232.76,-97.88)">
    <g id="SELECT_FLAG_HERE">
      <g id="BLACK_FLAG">
        <path class="cls-1" d="M 243.702 155.985 C 243.414 155.41 244.077 167.133 250.906 179.892 L 328.393 171.701 C 334.204 164.011 339.52 154.663 341.686 145.933 L 243.702 155.985 Z" id="path3" style="fill: rgb(255, 255, 255);"/>
        <path class="cls-2" d="M 289.541 221.377 C 320.724 174.809 326.224 178.673 327.55 170.99 L 251.46 179.02 C 243.499 183.51 286.342 215.16 289.541 221.377 Z" id="path1" style="fill: rgb(157, 34, 53);"/>
        <path class="cls-2" d="M 324.547 104.751 C 308.237 104.751 291.276 123.215 289.906 129.465 C 288.536 135.715 287.465 135.661 287.674 130.458 C 287.883 125.255 283.911 116.045 268.72 116.746 C 253.794 117.434 241.895 136.988 243.807 156.88 C 244.11 160.033 241.208 156.904 245.49 156.37 L 340.66 146.33 C 344.602 146.07 344.246 137.059 344.223 135.39 C 344.069 124.092 340.444 111.651 327.593 105.383 L 324.547 104.751 Z" id="path2" style="fill: rgb(157, 34, 53);"/>
        <path d="m 328.12,97.88 c -13.42,0 -29.29,9.91 -38.89,26.38 -2.59,-5.95 -11.83,-12.43 -22.8,-12.43 -8.84,0 -33.67,11.05 -33.67,46.73 0,46.05 46.59,55.51 56.01,69.82 0.65,0.99 2.73,1.73 3.53,-0.62 7.51,-22.18 65.79,-47.24 65.79,-92.37 0,-25.31 -16.53,-37.51 -29.95,-37.51 z m 14.33,37.36 c -0.13,3.78 -0.77,7.48 -1.8,11.1 -2.5,8.73 -7.34,16.97 -13.1,24.66 -14.37,19.16 -34.47,34.91 -38.33,46.38 -4.03,-8.15 -26.74,-19.02 -37.75,-38.35 -3.7,-6.5 -6.09,-13.96 -5.99,-22.59 0,-0.02 0,-0.04 0,-0.05 0.34,-28.47 15.16,-37.38 23.23,-37.38 11.28,0 15.94,8.61 16.71,12.43 0.76,3.81 5.03,6.86 6.4,0.61 1.37,-6.25 14.65,-25.31 30.96,-25.31 14.94,0 20.12,15.41 19.67,28.52 z" id="path4"/>
      </g>
    </g>
  </g>
</svg>