<?xml version="1.0" encoding="UTF-8" standalone="no"?>
<!-- Created with Inkscape (http://www.inkscape.org/) -->

<svg
   width="125.33"
   height="131.45125"
   viewBox="0 0 33.160229 34.77981"
   version="1.1"
   id="svg5"
   xmlns="http://www.w3.org/2000/svg"
   xmlns:svg="http://www.w3.org/2000/svg">
  <defs
     id="defs2">
    <g
       id="petal">
      <line
         x1="0"
         y1="0"
         x2="25"
         y2="0"
         stroke="#ffd700"
         stroke-width="2"
         id="line7" />
      <circle
         cx="25"
         cy="0"
         r="5"
         fill="#ffd700"
         id="circle9" />
    </g>
    <pattern
       y="0"
       x="0"
       height="6"
       width="6"
       patternUnits="userSpaceOnUse"
       id="EMFhbasepattern" />
    <g
       id="petal-7">
      <line
         x1="0"
         y1="0"
         x2="25"
         y2="0"
         stroke="gold"
         stroke-width="2"
         id="line7-2" />
      <circle
         cx="25"
         cy="0"
         r="5"
         fill="gold"
         id="circle9-9" />
    </g>
    <pattern
       y="0"
       x="0"
       height="6"
       width="6"
       patternUnits="userSpaceOnUse"
       id="EMFhbasepattern-6" />
    <clipPath
       id="t">
      <path
         d="m0 0h63v63H0z"
         id="path2988" />
    </clipPath>
    <g
       id="petal-1">
      <line
         x1="0"
         y1="0"
         x2="25"
         y2="0"
         stroke="gold"
         stroke-width="2"
         id="line7-4" />
      <circle
         cx="25"
         cy="0"
         r="5"
         fill="gold"
         id="circle9-5" />
    </g>
    <pattern
       y="0"
       x="0"
       height="6"
       width="6"
       patternUnits="userSpaceOnUse"
       id="EMFhbasepattern-9" />
    <g
       id="petal-74">
      <line
         x1="0"
         y1="0"
         x2="25"
         y2="0"
         stroke="gold"
         stroke-width="2"
         id="line7-8" />
      <circle
         cx="25"
         cy="0"
         r="5"
         fill="gold"
         id="circle9-0" />
    </g>
    <pattern
       y="0"
       x="0"
       height="6"
       width="6"
       patternUnits="userSpaceOnUse"
       id="EMFhbasepattern-0" />
  </defs>
  <g
     id="layer1">
    <path
       d="M 4.768209,22.43863 25.103218,20.47525 15.146076,33.377463 Z"
       id="path23"
       style="fill:#fcdc04;fill-opacity:1;stroke-width:0.140241" />
    <path
       style="fill:#d90000;fill-opacity:1;fill-rule:evenodd;stroke:none;stroke-width:0.140241px;stroke-linecap:butt;stroke-linejoin:miter;stroke-opacity:1"
       d="m 7.6085073,27.153391 7.4815497,6.240462 5.718044,-7.395278 z"
       id="path4257" />
    <path
       d="M 30.743027,10.225144 26.225149,20.615492 4.3474846,22.578872 1.9633802,12.761971 Z"
       id="path25"
       style="fill:#0b0e0e;fill-opacity:1;stroke-width:0.140241" />
    <path
       style="fill:#d90000;fill-opacity:1;fill-rule:evenodd;stroke:none;stroke-width:0.140241px;stroke-linecap:butt;stroke-linejoin:miter;stroke-opacity:1"
       d="M 2.3179823,11.852854 1.7301462,17.925948 29.572202,15.490085 31.549469,9.2954307 Z"
       id="path4253" />
    <path
       d="M 3.9267603,7.4327963 9.9571422,4.4877261 15.005834,7.9937621 20.755733,2.3841045 28.889737,1.6828969 31.554324,10.377866 1.6828973,13.042453 Z"
       id="path27"
       style="fill:#fcdc04;fill-opacity:1;stroke-width:0.140241" />
    <path
       style="fill:#0b0e0e;fill-opacity:1;fill-rule:evenodd;stroke:none;stroke-width:0.140241px;stroke-linecap:butt;stroke-linejoin:miter;stroke-opacity:1"
       d="M 5.0434043,5.8429288 11.509602,5.0634514 14.664621,8.7789077 17.873519,4.2254785 25.059629,0.6962799 29.465323,5.757844 2.6386203,8.1048762 Z"
       id="path4249" />
    <ellipse
       id="circle14"
       cy="18.077379"
       cx="14.77038"
       style="fill:#f9f9f9;stroke-width:0.140509;fill-opacity:1"
       transform="matrix(0.9961947,-0.08715577,0,1,0,0)"
       rx="4.5716028"
       ry="4.5542064" />
    <g
       transform="matrix(0.04870809,-0.00426141,0,0.04870809,-7.2044663,4.0952614)"
       id="g16"
       style="stroke:#000000">
      <path
         id="path18"
         d="m 433.52031,228.39062 -6.06438,-11.17029 c 2.34014,-2.34013 6.27719,-4.14905 12.55357,-4.14905 0,0.42563 -0.63844,12.23435 -0.63844,12.23435 z"
         style="fill:#d90000" />
      <path
         id="path20"
         d="m 439.37106,225.41204 0.85125,-12.34076 c 0,0 12.55357,-0.74404 19.36199,7.44685 0.1064,-0.1064 -6.70201,9.57418 -6.70201,9.57418 z"
         style="fill:#fcdc04" />
      <path
         id="path22"
         d="m 453.0951,229.98591 6.16998,-9.57418 c 4.14905,4.36187 5.85075,7.44685 6.48919,12.12794 0.10641,0.10641 -9.78699,2.44655 -9.78699,2.34014 0,-0.10641 -2.76577,-4.7875 -2.87218,-4.8939 z"
         style="fill:#d90000" />
      <path
         id="path24"
         d="m 436.60529,388.07318 c 0,0 11.59591,-13.29842 34.14929,-10.42544 -3.40421,-5.53234 -14.36168,-4.8939 -14.36168,-4.8939 0,0 -3.4042,-25.85118 -0.74484,-27.12806 2.65935,-1.27688 13.93604,0.10641 13.93604,0.10641 1.48889,0 4.04265,-4.04265 2.02173,-6.5956 -2.02173,-2.55377 -7.97889,-12.34076 -5.53234,-14.25608 2.44736,-1.91451 15.74496,1.06406 15.74496,1.06406 l -37.55349,-48.08533 c 0,0 -3.82983,-18.0851 3.82983,-26.80884 9.25578,-7.65967 8.29811,-15.95778 7.97889,-15.85137 -1.27688,-8.40452 -14.04245,-14.46889 -22.65978,-6.70201 -5.10672,6.16998 -1.70251,10.85106 -1.70251,10.85106 0,0 -13.40401,3.61702 -13.93605,5.95716 -0.53203,2.34095 15.10652,-0.42481 15.10652,-0.42481 l -1.48969,10.74465 c 0,0 -30.42586,27.65928 -7.12764,51.59595 0.21282,-0.10641 0.74485,-1.06407 0.74485,-1.06407 0,0 8.1917,10.10703 16.80822,12.34076 8.0853,8.29811 7.34126,7.02123 7.34126,7.02123 0,0 1.59529,13.0856 0.10641,15.63855 -2.02173,-0.63844 -22.65979,-1.38247 -25.74558,-0.21281 -2.76577,0.85126 -13.40402,0.31922 -10.74466,17.66029 2.02092,-4.68109 3.82984,-8.83015 3.82984,-8.83015 0,0 -0.31922,6.27638 2.23454,8.51093 -0.42563,-6.59641 2.44654,-11.06388 2.44654,-11.06388 0,0 0.53204,7.23404 2.12733,8.2973 1.5961,1.06407 1.5961,-11.70232 10.42625,-10.63825 8.82933,1.06407 15.21293,0.74485 15.21293,0.74485 0,0 2.97858,24.99992 2.02091,27.34087 -6.3836,-1.48969 -21.59571,0.63844 -22.55337,4.46828 8.93573,-0.53204 13.0856,0.53122 13.0856,0.53122 0,0 -7.23404,6.3836 -5.00031,10.10703 z" />
      <path
         id="path26"
         d="m 440.19145,251.66041 c 0,0 -22.13913,24.4021 -12.58769,43.07528 0.50848,-2.60412 0.28673,-4.24003 0.60595,-4.13362 -0.53203,-0.31922 2.74546,2.24673 2.49609,1.74718 0.0699,-1.34998 -0.99827,-4.24327 -0.99827,-4.24327 0.99827,0.24936 1.99736,0.49954 2.99564,0.7489 -0.5824,-1.08193 -1.16561,-2.16306 -1.748,-3.245 1.41497,0.16652 2.82912,0.33222 4.24409,0.49873 0,0 -1.49782,-3.99391 -0.99828,-3.99391 0.49874,0 3.49437,0.24937 3.49437,0.24937 -6.29587,-11.29862 -0.35658,-20.68192 2.4961,-30.70366 z"
         style="fill:#9ca69c;stroke:#9ca69c" />
      <path
         id="path28"
         d="m 447.88198,230.73075 c 0,0 1.17048,8.40452 -3.40421,10.85107 -0.74484,0.53203 -3.61702,1.48969 -3.19139,3.1922 0.53203,2.34014 1.8081,1.91451 3.61702,1.48888 4.78668,-0.85125 10.31903,-11.06387 2.97858,-15.53215 z"
         style="fill:#9ca69c;stroke:#9ca69c" />
      <circle
         id="circle30"
         r="1.8"
         cy="238"
         cx="438"
         style="fill:#ffffff;stroke:none" />
      <path
         id="path32"
         d="m 432.56264,244.98602 c -1.17047,0.95766 -7.34044,7.34126 -1.27688,9.6814 6.27719,-1.70251 4.57468,-2.87217 5.95797,-4.25546 0.0357,-2.87217 -3.12072,-3.61702 -4.68109,-5.42594 z"
         style="fill:#d90000" />
      <path
         id="path34"
         d="m 445.96666,305.30652 c -0.31922,1.38329 -1.7017,6.48919 0.21281,10.42543 5.31953,-2.23373 7.76608,-1.5961 9.57499,-0.42562 -4.36105,-3.51062 -6.06356,-5.00031 -9.7878,-9.99981 z"
         style="fill:#9ca69c;stroke:#9ca69c" />
      <path
         id="path36"
         d="m 455.11602,329.45519 0.31922,11.91513 c 0,0 4.14906,0.74485 6.06357,0 1.91532,-0.74485 -0.10641,-8.29811 -6.38279,-11.91513 z"
         style="fill:#ffffff;stroke:#ffffff" />
      <path
         id="path38"
         d="m 485.22266,330.94488 c 0,0 -7.65967,-18.51073 -27.23447,-23.19181 -19.57479,-4.68109 -17.02184,-25.53196 -15.42574,-26.80884 0.85126,-1.80892 1.4897,-4.57469 7.12763,-1.91452 5.63875,2.65936 31.59634,15.74416 35.31977,16.3826 3.72342,0.63844 0.53203,35.9582 0.21281,35.53257 z"
         style="fill:#9ca69c" />
      <path
         id="path40"
         d="m 466.60552,307.64666 c -0.31922,0.21281 26.1704,15.63774 18.19151,28.93616 7.55408,-5.00031 5.10672,-13.72323 5.10672,-13.72323 0,0 6.16997,16.06418 -8.83014,23.93667 1.5961,1.38328 2.66017,1.06325 2.66017,1.06325 l -2.55377,2.55377 c 0,0 -1.17047,1.91451 8.93655,-2.9794 -2.76657,2.23455 -2.97858,3.82984 -2.97858,3.82984 0,0 0.74404,2.12813 7.34045,-3.61702 -5.31953,5.74515 -6.49,8.72373 -6.49,8.61733 14.36167,-1.27688 45.63879,-47.97893 -9.8934,-61.80938 2.97939,3.08579 2.55295,2.66017 2.55295,2.66017 z"
         style="fill:#d90000" />
      <path
         id="path42"
         d="m 467.776,303.07198 c 3.61702,2.55295 4.89309,3.4042 5.31872,4.68109 -3.2978,-0.74404 -6.27638,-0.53204 -6.27638,-0.53204 0,0 -7.12764,-6.80841 -8.40452,-7.34045 -0.95766,0 -6.48919,-3.51061 -6.48919,-3.51061 -2.76577,-1.38329 -5.31872,-10.95747 4.8939,-8.1917 10.53103,4.99949 12.02073,5.42593 12.02073,5.42593 4.18479,1.31181 8.36877,2.62444 12.55357,3.93624 2.41161,2.6951 4.82242,5.3902 7.23404,8.0853 0,0 -12.87198,-6.3836 -14.46808,-6.49 3.51061,2.87217 5.53234,6.80841 5.53234,6.80841 -4.07839,-1.17048 -7.62393,-2.23373 -11.91513,-2.87217 z"
         style="fill:#ffffff" />
      <path
         id="path44"
         d="m 417.66893,245.94368 c 0,0 12.34076,-2.97858 13.82965,-2.55295"
         style="stroke:#ffffff" />
    </g>
    <path
       d="m 3.3664958,15.492612 c 0.084145,-7.5438674 4.0100637,-9.9049723 6.1480445,-9.9049723 2.9857407,0 4.2188827,2.2793441 4.4204097,3.2885215 0.201387,1.008336 1.331453,1.8148648 1.694538,0.160857 0.363365,-1.6540076 3.875852,-6.6976507 8.192905,-6.6976507 3.953686,0 5.323004,4.0772393 5.2045,7.5451297 C 28.703356,19.32527 16.541478,26.860022 14.940622,31.617713 13.515208,28.736172 3.2659427,24.570861 3.3664958,15.492612 Z M 25.234764,0 C 21.684272,0 17.485303,2.6222344 14.943707,6.9799567 14.257926,5.4061673 11.8145,3.6911547 8.9099594,3.6911547 6.56947,3.6911547 0,6.6163107 0,16.057364 0,28.241541 12.327363,30.744149 14.819453,34.531229 14.990688,34.791657 15.542258,34.988416 15.75276,34.366165 17.741243,28.497762 33.160229,21.867147 33.160229,9.925027 33.160088,3.2276567 28.785117,0 25.234764,0 Z"
       id="path29"
       style="stroke-width:0.140241;fill:#000000;fill-opacity:1" />
  </g>
</svg>
