<?xml version="1.0" encoding="UTF-8" standalone="no"?>
<svg
   width="125.33"
   height="131.45125"
   id="svg2"
   version="1.1"
   xmlns="http://www.w3.org/2000/svg"
   xmlns:svg="http://www.w3.org/2000/svg"
   xmlns:rdf="http://www.w3.org/1999/02/22-rdf-syntax-ns#"
   xmlns:cc="http://creativecommons.org/ns#"
   xmlns:dc="http://purl.org/dc/elements/1.1/">
  <metadata
     id="metadata16">
    <rdf:RDF>
      <cc:Work
         rdf:about="">
        <dc:format>image/svg+xml</dc:format>
        <dc:type
           rdf:resource="http://purl.org/dc/dcmitype/StillImage" />
      </cc:Work>
    </rdf:RDF>
  </metadata>
  <defs
     id="defs14" />
  <path
     style="fill:#12ad2b;fill-opacity:1;stroke-width:0.530046"
     d="M 4.7704175,63.605567 110.7797,56.184917 57.24501,126.15104 20.671809,94.878304 Z"
     id="path4" />
  <path
     style="fill:#6ab2e7;fill-opacity:1;stroke-width:0.530046"
     d="M 14.841299,28.092459 37.633294,16.961485 56.714964,30.212644 78.446866,9.0107887 109.18956,6.3605551 119.26044,60.425288 6.3605567,70.496165 Z"
     id="path6" />
  <path
     style="fill:#f9f9f9;fill-opacity:1;stroke-width:0.530046"
     d="M 59.98111,65.713031 17.581639,26.150899 6.0234472,61.518774 29.695849,102.50885 Z"
     id="path8" />
  <path
     d="m 31.341238,57.751411 2.634713,7.878308 8.526112,-0.74594 -6.897767,5.615004 2.634711,7.878307 -6.897769,-4.408046 -6.897771,5.614999 2.634714,-8.33932 -6.89777,-4.408052 8.526112,-0.745934 z"
     id="path6929"
     style="fill:#d7141a;stroke-width:0.530046" />
  <path
     d="M 12.723764,58.554755 C 13.041791,30.042499 27.87991,21.118638 35.960467,21.118638 c 11.284688,0 15.945386,8.614844 16.707062,12.429058 0.761147,3.811034 5.032261,6.85933 6.404551,0.607963 1.37335,-6.251367 14.648892,-25.3139551 30.96531,-25.3139551 14.94307,0 20.11844,15.4100391 19.67055,28.5170261 -1.22282,35.681663 -47.188968,64.15946 -53.239448,82.14129 C 51.081101,108.60916 12.34372,92.866248 12.723764,58.554755 Z M 95.375487,0 C 81.956303,2e-8 66.086184,9.9108074 56.480153,26.380939 53.888226,20.432758 44.653228,13.950821 33.675437,13.950821 24.829493,13.950821 0,25.006529 0,60.689252 c 0,46.050428 46.591608,55.509108 56.010532,69.822478 0.647187,0.9843 2.731859,1.72795 3.527459,-0.62386 C 67.053519,107.70808 125.33,82.647483 125.33,37.511913 125.32947,12.199018 108.79414,2e-8 95.375487,0 Z"
     id="path10"
     style="stroke-width:0.530046" />
</svg>
