<?xml version="1.0" encoding="UTF-8" standalone="no"?>
<svg
   width="125.33"
   height="131.45125"
   id="svg2"
   version="1.1"
   xmlns:xlink="http://www.w3.org/1999/xlink"
   xmlns="http://www.w3.org/2000/svg"
   xmlns:svg="http://www.w3.org/2000/svg"
   xmlns:rdf="http://www.w3.org/1999/02/22-rdf-syntax-ns#"
   xmlns:cc="http://creativecommons.org/ns#"
   xmlns:dc="http://purl.org/dc/elements/1.1/">
  <metadata
     id="metadata38">
    <rdf:RDF>
      <cc:Work
         rdf:about="">
        <dc:format>image/svg+xml</dc:format>
        <dc:type
           rdf:resource="http://purl.org/dc/dcmitype/StillImage" />
      </cc:Work>
    </rdf:RDF>
  </metadata>
  <defs
     id="defs4">
    <g
       id="b"
       fill="#43b02a">
      <g
         id="s">
        <g
           id="t">
          <g
             id="c">
            <path
               id="h"
               d="M 0,-20 V 0 h 20"
               transform="rotate(30,0,-20)" />
            <use
               xlink:href="#h"
               transform="scale(-1,1)"
               id="use11"
               x="0"
               y="0"
               width="100%"
               height="100%" />
          </g>
          <use
             xlink:href="#c"
             transform="rotate(120)"
             id="use13"
             x="0"
             y="0"
             width="100%"
             height="100%" />
          <use
             xlink:href="#c"
             transform="rotate(-120)"
             id="use15"
             x="0"
             y="0"
             width="100%"
             height="100%" />
        </g>
        <use
           xlink:href="#t"
           transform="scale(-1)"
           id="use17"
           x="0"
           y="0"
           width="100%"
           height="100%" />
      </g>
      <use
         xlink:href="#s"
         fill="#c8102e"
         transform="scale(0.82)"
         id="use19"
         x="0"
         y="0"
         width="100%"
         height="100%" />
    </g>
    <use
       id="star"
       xlink:href="#b"
       x="250"
       y="106"
       width="100%"
       height="100%" />
  </defs>
  <path
     d="M 2.3931595,71.255723 C 20.67711,89.554514 38.984912,107.85277 57.245011,126.15104 77.91682,103.35904 98.588629,80.567048 119.26044,57.775053 116.61021,41.697163 113.95997,25.618735 111.30974,9.5408349 100.53231,8.6572477 89.754346,7.7741904 78.976913,6.8906031 71.202722,14.841299 63.429062,22.791995 55.654871,30.742694 50.707948,26.325817 45.760495,21.908408 40.813572,17.491531 31.711616,20.771988 22.610189,24.052445 13.508232,27.332906 9.803208,41.973847 6.0981838,56.614787 2.3931595,71.255723 Z"
     id="path4"
     style="fill:#c8102e;fill-opacity:1;stroke-width:0.530046" />
  <path
     style="fill:#43b02a;fill-opacity:1;fill-rule:evenodd;stroke:none;stroke-width:0.530046px;stroke-linecap:butt;stroke-linejoin:miter;stroke-opacity:1"
     d="M 7.4679509,39.822834 7.6497197,70.905945 17.82899,91.082707 115.62266,27.280521 115.80444,56.909455 91.446901,87.083714 Z"
     id="path4148" />
  <path
     d="M 7.4551025,41.623486 94.194545,87.609774 m -78.998115,7.65652 102.2221,-71.773048"
     style="stroke:#f9f9f9;stroke-width:13.2512;stroke-miterlimit:4;stroke-dasharray:none;stroke-opacity:1"
     id="path6" />
  <g
     id="g4234"
     transform="matrix(0.3050565,-0.02668899,0,0.3050565,-20.646282,27.370438)">
    <circle
       style="fill:#f9f9f9"
       cx="250"
       cy="150"
       r="85"
       id="circle4236" />
    <use
       height="100%"
       width="100%"
       y="0"
       x="0"
       xlink:href="#star"
       id="use4238" />
    <use
       height="100%"
       width="100%"
       y="0"
       x="0"
       xlink:href="#star"
       transform="rotate(120,250,150)"
       id="use4240" />
    <use
       height="100%"
       width="100%"
       y="0"
       x="0"
       xlink:href="#star"
       transform="rotate(-120,250,150)"
       id="use4242" />
  </g>
  <path
     d="M 12.747616,58.554751 C 13.065644,30.042503 27.903762,21.118639 35.98432,21.118639 c 11.284687,0 15.945385,8.614847 16.707062,12.429061 0.761147,3.811033 5.03226,6.85933 6.404551,0.607963 1.37335,-6.251367 14.648892,-25.3139591 30.96531,-25.3139591 14.943067,0 20.118437,15.4100391 19.670547,28.5218001 C 108.48513,73.040389 62.518972,101.51819 56.468493,119.50001 51.081101,108.633 12.34372,92.885326 12.747616,58.554751 Z M 95.375488,0 C 81.956304,0 66.086184,9.9108079 56.480154,26.380942 53.888227,20.432759 44.653228,13.950821 33.675438,13.950821 24.829493,13.950821 0,25.006529 0,60.689248 c 0,46.050432 46.596379,55.509102 56.010533,69.822482 0.647186,0.9843 2.731859,1.72795 3.527458,-0.62387 C 67.077371,107.73192 125.33,82.64748 125.33,37.511917 125.32947,12.199018 108.79414,0 95.375488,0 Z"
     id="path8"
     style="stroke-width:0.530046" />
</svg>
