<?xml version="1.0" encoding="UTF-8" standalone="no"?>
<svg
   width="125.33"
   height="131.45125"
   id="svg2"
   version="1.1"
   xmlns:xlink="http://www.w3.org/1999/xlink"
   xmlns="http://www.w3.org/2000/svg"
   xmlns:svg="http://www.w3.org/2000/svg"
   xmlns:rdf="http://www.w3.org/1999/02/22-rdf-syntax-ns#"
   xmlns:cc="http://creativecommons.org/ns#"
   xmlns:dc="http://purl.org/dc/elements/1.1/">
  <metadata
     id="metadata16">
    <rdf:RDF>
      <cc:Work
         rdf:about="">
        <dc:format>image/svg+xml</dc:format>
        <dc:type
           rdf:resource="http://purl.org/dc/dcmitype/StillImage" />
      </cc:Work>
    </rdf:RDF>
  </metadata>
  <defs
     id="defs14">
    <path
       fill="#ffde00"
       d="M 0,-1 0.587785,0.809017 -0.951057,-0.309017 H 0.951057 L -0.587785,0.809017 Z"
       id="s" />
  </defs>
  <g
     id="g14501">
    <path
       style="fill:#ee1c25;fill-opacity:1;stroke-width:4.19009"
       d="M 5.1693384,75.313661 15.624122,27.81149 37.992794,16.537258 55.863492,29.986676 69.600805,14.016087 96.589151,2.984996 122.60519,38.644921 56.715134,123.86004 Z"
       id="rect3182" />
    <g
       id="g4889"
       transform="matrix(0.53004639,0,0,0.53004639,-0.53004639,-0.53004639)">
      <use
         id="use3184"
         transform="matrix(23.715401,-2.0860907,0,23.715401,50.736998,97.486286)"
         xlink:href="#s"
         x="0"
         y="0"
         width="1"
         height="1"
         style="fill:#ffde00;fill-opacity:1" />
      <use
         id="use3186"
         transform="matrix(7.2747586,2.4534705,-3.0933841,7.5468636,90.262668,70.294067)"
         xlink:href="#s"
         x="0"
         y="0"
         width="1"
         height="1"
         style="fill:#ffde00;fill-opacity:1" />
      <use
         id="use3188"
         transform="matrix(5.5042654,5.1898186,-5.6739933,6.0033699,106.07294,84.713607)"
         xlink:href="#s"
         x="0"
         y="0"
         width="1"
         height="1"
         style="fill:#ffde00;fill-opacity:1" />
      <use
         id="use3190"
         transform="matrix(2.7107931,7.1873647,-7.4258156,3.3639941,106.07294,108.42901)"
         xlink:href="#s"
         x="0"
         y="0"
         width="1"
         height="1"
         style="fill:#ffde00;fill-opacity:1" />
      <use
         id="use3192"
         transform="matrix(7.3967684,2.1384319,-2.7890779,7.6421055,90.262668,125.63)"
         xlink:href="#s"
         x="0"
         y="0"
         width="1"
         height="1"
         style="fill:#ffde00;fill-opacity:1" />
    </g>
    <path
       d="M 12.723764,58.554755 C 13.041792,30.0425 27.87991,21.118638 35.960468,21.118638 c 11.284687,0 15.945385,8.614845 16.707062,12.429058 0.761147,3.811034 5.03226,6.859331 6.404551,0.607964 1.37335,-6.251368 14.648892,-25.3139561 30.96531,-25.3139561 14.943069,0 20.118439,15.4100391 19.670549,28.5170261 C 108.48513,73.040393 62.518972,101.5182 56.468493,119.50002 51.081101,108.60916 12.34372,92.866248 12.723764,58.554755 Z M 95.375488,0 C 81.956304,0 66.086184,9.9108075 56.480154,26.380939 53.888227,20.432758 44.653228,13.950821 33.675438,13.950821 24.829493,13.950821 0,25.006529 0,60.689252 c 0,46.050428 46.591608,55.509108 56.010533,69.822478 0.647186,0.9843 2.731859,1.72795 3.527458,-0.62386 C 67.053519,107.70808 125.33,82.647484 125.33,37.511913 125.32947,12.199018 108.79414,0 95.375488,0 Z"
       id="path8"
       style="stroke-width:0.530046" />
  </g>
</svg>
