<?xml version="1.0" encoding="utf-8"?>
<svg id="LOGO_LAYER" viewBox="0 0 125.33 131.4429" version="1.1" width="125.33" height="131.4429" xmlns="http://www.w3.org/2000/svg">
  <defs id="defs1">
    <style id="style1">.cls-1{fill:#ffffff;}.cls-2{fill:#003893;}.cls-3{fill:#fcd115;}.cls-4{fill:#de0000;}</style>
  </defs>
  <g id="LOGO_GROUP" transform="translate(-232.76,-97.88)">
    <g id="SELECT_FLAG_HERE">
      <g id="BLACK_FLAG">
        <path class="cls-2" d="M 322.944 105.335 C 304.856 106.435 292.134 126.361 291.83 129.259 C 291.526 132.157 285.046 132.545 286.2 130.804 C 287.354 129.063 282.079 117.686 268.874 117.759 C 251.684 117.854 237.945 148.781 244.823 149.678 L 342.91 140.02 C 349.222 138.335 342.106 104.169 322.944 105.335 Z" id="path1"/>
        <path class="cls-4" d="M 324.963 175.63 L 253.035 183.178 C 257.491 190.269 279.507 212.497 289.21 219.659 C 298.087 205.749 317.924 184.808 324.963 175.63 Z" id="path4"/>
        <path class="cls-1" d="M 276.22 181.36 L 254.43 183.65 C 243.344 177.763 241.169 152.795 245.89 149.37 L 287.65 144.98 L 286.235 157.427 L 284.96 167.732 Z M 293.025 156.883 L 291.61 144.56 L 342.13 139.25 C 346.323 139.326 329.745 175.985 323.28 176.41 L 303.04 178.54 L 293.223 165.996 Z M 299.4 178.93 L 279.86 180.98 C 277.603 179.543 287.373 169.104 289.63 170.541 Z" id="path3"/>
        <polygon class="cls-4" points="289.63,171.23 301.65,178.7 297.06,165.05 309.08,155.05 294.22,156.61 289.63,142.96 285.04,157.57 270.18,159.14 282.2,166.61 277.61,181.22 " id="polygon4"/>
        <path class="cls-3" d="m 266.12,158.25 14.53,9.03 -4.43,14.09 -1.12,3.57 4.76,-3.95 9.77,-8.13 9.77,6.07 4.76,2.96 -1.12,-3.34 -4.43,-13.16 14.53,-12.08 -17.96,1.89 -3.57,-10.62 -1.98,-5.87 -1.98,6.29 -3.57,11.37 -17.96,1.89 z m 23.51,-15.28 4.59,13.65 14.86,-1.56 -12.02,10 4.59,13.65 -12.02,-7.47 -12.02,10 4.59,-14.61 -12.02,-7.47 14.86,-1.56 4.59,-14.61 z" id="path5"/>
        <path d="m 328.12,97.88 c -13.42,0 -29.29,9.91 -38.89,26.38 -2.59,-5.95 -11.83,-12.43 -22.8,-12.43 -8.84,0 -33.67,11.05 -33.67,46.73 0,46.05 46.59,55.51 56.01,69.82 0.65,0.99 2.73,1.73 3.53,-0.62 7.51,-22.18 65.79,-47.24 65.79,-92.37 0,-25.31 -16.53,-37.51 -29.95,-37.51 z m 14.33,37.36 c -0.05,1.35 -0.16,2.69 -0.33,4.03 -1.73,13.54 -9.62,25.99 -18.85,37.16 -13.8,16.72 -30.57,30.58 -34.06,40.95 -3.7,-7.48 -23.1,-17.24 -34.79,-33.71 -5.34,-7.53 -9.07,-16.47 -8.95,-27.23 0.03,-2.5 0.17,-4.85 0.41,-7.05 2.47,-22.95 15.45,-30.38 22.82,-30.38 11.28,0 15.94,8.61 16.71,12.43 0.76,3.81 5.03,6.86 6.4,0.61 1.37,-6.25 14.65,-25.31 30.96,-25.31 14.94,0 20.12,15.41 19.67,28.52 z" id="path6"/>
      </g>
    </g>
  </g>
</svg>