<?xml version="1.0" encoding="utf-8"?>
<svg xmlns="http://www.w3.org/2000/svg" viewBox="0 0 226.683 233.658" width="226.683px" height="233.659px" xmlns:bx="https://boxy-svg.com" preserveAspectRatio="none"><path class="cls-1" d="M 157.172 20.234 C 128.537 20.234 97.151 64.773 97.151 64.773 C 97.151 64.773 82.064 42.181 62.242 42.181 C 48.057 42.181 22.003 58.136 21.459 109.131 C 20.791 170.505 91.99 195.833 101.455 215.313 C 112.077 183.151 189.565 135.034 191.725 71.211 C 192.513 47.76 183.419 20.197 157.189 20.197 L 157.172 20.234 Z" id="path2" style="stroke-width: 1.048; fill: rgb(0, 165, 200);"/><defs/><g id="svg-1" transform="matrix(1, 0, 0, 1, 159.175232, -59.860771)"><g id="g14" transform="matrix(0.213092, -0.022409, 0, 0.213092, -171.687988, 140.93779)" style="fill:#ffe600;fill-opacity:1"><g transform="matrix(0.5,0,0,0.5,540.236,210)" id="g7" style="fill:#ffe600;fill-opacity:1"><circle r="134.55" id="circle1" cx="0" cy="0" style="fill:#ffe600;fill-opacity:1"/><g id="A" style="fill:#ffe600;fill-opacity:1"><g id="B" style="fill:#ffe600;fill-opacity:1"><path id="C" d="m 0,-152.9 c 8,-0.1 11,-5.1 11,-11.1 0,-8 -11,-46.1 -11,-46.1 0,0 -11,38.1 -11,46.1 0,6 3,11.1 11,11.1 z" style="fill:#ffe600;fill-opacity:1"/><path id="use1" d="m 0,-152.9 c 8,-0.1 11,-5.1 11,-11.1 0,-8 -11,-46.1 -11,-46.1 0,0 -11,38.1 -11,46.1 0,6 3,11.1 11,11.1 z" style="fill:#ffe600;fill-opacity:1" transform="matrix(0, 1, -1, 0, 0, 0)"/><path id="use2" d="m 0,-152.9 c 8,-0.1 11,-5.1 11,-11.1 0,-8 -11,-46.1 -11,-46.1 0,0 -11,38.1 -11,46.1 0,6 3,11.1 11,11.1 z" style="fill:#ffe600;fill-opacity:1" transform="matrix(-1, 0, 0, -1, 0, 0)"/><path id="use3" d="m 0,-152.9 c 8,-0.1 11,-5.1 11,-11.1 0,-8 -11,-46.1 -11,-46.1 0,0 -11,38.1 -11,46.1 0,6 3,11.1 11,11.1 z" style="fill:#ffe600;fill-opacity:1" transform="matrix(0, -1, 1, 0, 0, 0)"/></g><g id="use4" style="fill:#ffe600;fill-opacity:1" transform="matrix(0.9238795325112867, 0.3826834323650898, -0.3826834323650898, 0.9238795325112867, 0, 0)"><path d="m 0,-152.9 c 8,-0.1 11,-5.1 11,-11.1 0,-8 -11,-46.1 -11,-46.1 0,0 -11,38.1 -11,46.1 0,6 3,11.1 11,11.1 z" style="fill:#ffe600;fill-opacity:1"/><path d="m 0,-152.9 c 8,-0.1 11,-5.1 11,-11.1 0,-8 -11,-46.1 -11,-46.1 0,0 -11,38.1 -11,46.1 0,6 3,11.1 11,11.1 z" style="fill:#ffe600;fill-opacity:1" transform="matrix(0, 1, -1, 0, 0, 0)"/><path d="m 0,-152.9 c 8,-0.1 11,-5.1 11,-11.1 0,-8 -11,-46.1 -11,-46.1 0,0 -11,38.1 -11,46.1 0,6 3,11.1 11,11.1 z" style="fill:#ffe600;fill-opacity:1" transform="matrix(-1, 0, 0, -1, 0, 0)"/><path d="m 0,-152.9 c 8,-0.1 11,-5.1 11,-11.1 0,-8 -11,-46.1 -11,-46.1 0,0 -11,38.1 -11,46.1 0,6 3,11.1 11,11.1 z" style="fill:#ffe600;fill-opacity:1" transform="matrix(0, -1, 1, 0, 0, 0)"/></g><g id="use5" style="fill:#ffe600;fill-opacity:1" transform="matrix(0.7071067811865476, 0.7071067811865476, -0.7071067811865476, 0.7071067811865476, 0, 0)"><path d="m 0,-152.9 c 8,-0.1 11,-5.1 11,-11.1 0,-8 -11,-46.1 -11,-46.1 0,0 -11,38.1 -11,46.1 0,6 3,11.1 11,11.1 z" style="fill:#ffe600;fill-opacity:1"/><path d="m 0,-152.9 c 8,-0.1 11,-5.1 11,-11.1 0,-8 -11,-46.1 -11,-46.1 0,0 -11,38.1 -11,46.1 0,6 3,11.1 11,11.1 z" style="fill:#ffe600;fill-opacity:1" transform="matrix(0, 1, -1, 0, 0, 0)"/><path d="m 0,-152.9 c 8,-0.1 11,-5.1 11,-11.1 0,-8 -11,-46.1 -11,-46.1 0,0 -11,38.1 -11,46.1 0,6 3,11.1 11,11.1 z" style="fill:#ffe600;fill-opacity:1" transform="matrix(-1, 0, 0, -1, 0, 0)"/><path d="m 0,-152.9 c 8,-0.1 11,-5.1 11,-11.1 0,-8 -11,-46.1 -11,-46.1 0,0 -11,38.1 -11,46.1 0,6 3,11.1 11,11.1 z" style="fill:#ffe600;fill-opacity:1" transform="matrix(0, -1, 1, 0, 0, 0)"/></g><g id="use6" style="fill:#ffe600;fill-opacity:1" transform="matrix(0.3826834323650898, 0.9238795325112867, -0.9238795325112867, 0.3826834323650898, 0, 0)"><path d="m 0,-152.9 c 8,-0.1 11,-5.1 11,-11.1 0,-8 -11,-46.1 -11,-46.1 0,0 -11,38.1 -11,46.1 0,6 3,11.1 11,11.1 z" style="fill:#ffe600;fill-opacity:1"/><path d="m 0,-152.9 c 8,-0.1 11,-5.1 11,-11.1 0,-8 -11,-46.1 -11,-46.1 0,0 -11,38.1 -11,46.1 0,6 3,11.1 11,11.1 z" style="fill:#ffe600;fill-opacity:1" transform="matrix(0, 1, -1, 0, 0, 0)"/><path d="m 0,-152.9 c 8,-0.1 11,-5.1 11,-11.1 0,-8 -11,-46.1 -11,-46.1 0,0 -11,38.1 -11,46.1 0,6 3,11.1 11,11.1 z" style="fill:#ffe600;fill-opacity:1" transform="matrix(-1, 0, 0, -1, 0, 0)"/><path d="m 0,-152.9 c 8,-0.1 11,-5.1 11,-11.1 0,-8 -11,-46.1 -11,-46.1 0,0 -11,38.1 -11,46.1 0,6 3,11.1 11,11.1 z" style="fill:#ffe600;fill-opacity:1" transform="matrix(0, -1, 1, 0, 0, 0)"/></g></g><g id="use7" style="fill:#ffe600;fill-opacity:1" transform="matrix(0.9807852804032304, 0.19509032201612825, -0.19509032201612825, 0.9807852804032304, 0, 0)"><g style="fill:#ffe600;fill-opacity:1"><path d="m 0,-152.9 c 8,-0.1 11,-5.1 11,-11.1 0,-8 -11,-46.1 -11,-46.1 0,0 -11,38.1 -11,46.1 0,6 3,11.1 11,11.1 z" style="fill:#ffe600;fill-opacity:1"/><path d="m 0,-152.9 c 8,-0.1 11,-5.1 11,-11.1 0,-8 -11,-46.1 -11,-46.1 0,0 -11,38.1 -11,46.1 0,6 3,11.1 11,11.1 z" style="fill:#ffe600;fill-opacity:1" transform="matrix(0, 1, -1, 0, 0, 0)"/><path d="m 0,-152.9 c 8,-0.1 11,-5.1 11,-11.1 0,-8 -11,-46.1 -11,-46.1 0,0 -11,38.1 -11,46.1 0,6 3,11.1 11,11.1 z" style="fill:#ffe600;fill-opacity:1" transform="matrix(-1, 0, 0, -1, 0, 0)"/><path d="m 0,-152.9 c 8,-0.1 11,-5.1 11,-11.1 0,-8 -11,-46.1 -11,-46.1 0,0 -11,38.1 -11,46.1 0,6 3,11.1 11,11.1 z" style="fill:#ffe600;fill-opacity:1" transform="matrix(0, -1, 1, 0, 0, 0)"/></g><g style="fill:#ffe600;fill-opacity:1" transform="matrix(0.9238795325112867, 0.3826834323650898, -0.3826834323650898, 0.9238795325112867, 0, 0)"><path d="m 0,-152.9 c 8,-0.1 11,-5.1 11,-11.1 0,-8 -11,-46.1 -11,-46.1 0,0 -11,38.1 -11,46.1 0,6 3,11.1 11,11.1 z" style="fill:#ffe600;fill-opacity:1"/><path d="m 0,-152.9 c 8,-0.1 11,-5.1 11,-11.1 0,-8 -11,-46.1 -11,-46.1 0,0 -11,38.1 -11,46.1 0,6 3,11.1 11,11.1 z" style="fill:#ffe600;fill-opacity:1" transform="matrix(0, 1, -1, 0, 0, 0)"/><path d="m 0,-152.9 c 8,-0.1 11,-5.1 11,-11.1 0,-8 -11,-46.1 -11,-46.1 0,0 -11,38.1 -11,46.1 0,6 3,11.1 11,11.1 z" style="fill:#ffe600;fill-opacity:1" transform="matrix(-1, 0, 0, -1, 0, 0)"/><path d="m 0,-152.9 c 8,-0.1 11,-5.1 11,-11.1 0,-8 -11,-46.1 -11,-46.1 0,0 -11,38.1 -11,46.1 0,6 3,11.1 11,11.1 z" style="fill:#ffe600;fill-opacity:1" transform="matrix(0, -1, 1, 0, 0, 0)"/></g><g style="fill:#ffe600;fill-opacity:1" transform="matrix(0.7071067811865476, 0.7071067811865476, -0.7071067811865476, 0.7071067811865476, 0, 0)"><path d="m 0,-152.9 c 8,-0.1 11,-5.1 11,-11.1 0,-8 -11,-46.1 -11,-46.1 0,0 -11,38.1 -11,46.1 0,6 3,11.1 11,11.1 z" style="fill:#ffe600;fill-opacity:1"/><path d="m 0,-152.9 c 8,-0.1 11,-5.1 11,-11.1 0,-8 -11,-46.1 -11,-46.1 0,0 -11,38.1 -11,46.1 0,6 3,11.1 11,11.1 z" style="fill:#ffe600;fill-opacity:1" transform="matrix(0, 1, -1, 0, 0, 0)"/><path d="m 0,-152.9 c 8,-0.1 11,-5.1 11,-11.1 0,-8 -11,-46.1 -11,-46.1 0,0 -11,38.1 -11,46.1 0,6 3,11.1 11,11.1 z" style="fill:#ffe600;fill-opacity:1" transform="matrix(-1, 0, 0, -1, 0, 0)"/><path d="m 0,-152.9 c 8,-0.1 11,-5.1 11,-11.1 0,-8 -11,-46.1 -11,-46.1 0,0 -11,38.1 -11,46.1 0,6 3,11.1 11,11.1 z" style="fill:#ffe600;fill-opacity:1" transform="matrix(0, -1, 1, 0, 0, 0)"/></g><g style="fill:#ffe600;fill-opacity:1" transform="matrix(0.3826834323650898, 0.9238795325112867, -0.9238795325112867, 0.3826834323650898, 0, 0)"><path d="m 0,-152.9 c 8,-0.1 11,-5.1 11,-11.1 0,-8 -11,-46.1 -11,-46.1 0,0 -11,38.1 -11,46.1 0,6 3,11.1 11,11.1 z" style="fill:#ffe600;fill-opacity:1"/><path d="m 0,-152.9 c 8,-0.1 11,-5.1 11,-11.1 0,-8 -11,-46.1 -11,-46.1 0,0 -11,38.1 -11,46.1 0,6 3,11.1 11,11.1 z" style="fill:#ffe600;fill-opacity:1" transform="matrix(0, 1, -1, 0, 0, 0)"/><path d="m 0,-152.9 c 8,-0.1 11,-5.1 11,-11.1 0,-8 -11,-46.1 -11,-46.1 0,0 -11,38.1 -11,46.1 0,6 3,11.1 11,11.1 z" style="fill:#ffe600;fill-opacity:1" transform="matrix(-1, 0, 0, -1, 0, 0)"/><path d="m 0,-152.9 c 8,-0.1 11,-5.1 11,-11.1 0,-8 -11,-46.1 -11,-46.1 0,0 -11,38.1 -11,46.1 0,6 3,11.1 11,11.1 z" style="fill:#ffe600;fill-opacity:1" transform="matrix(0, -1, 1, 0, 0, 0)"/></g></g></g><path d="m 528.2335,355.7335 c -1.8,0.1 -3.55,0.333 -5.267,0.883 -2.35,0.317 -4.6,1.1335 -6.933,1.517 l -0.9335,0.15 -1.5665,0.15 c 0.1,0.433 0.1665,0.8665 0.1665,1.3 0,0.45 -0.05,0.883 -0.1665,1.25 -0.1,0.35 -0.417,0.783 -0.667,1.05 -0.333,0.3665 -0.683,0.683 -1.1,0.883 -0.4,0.2 -0.85,0.2835 -1.3,0.317 -0.45,0.0165 -0.9165,0 -1.35,-0.167 -0.45,-0.15 -0.8665,-0.433 -1.25,-0.7665 a 10.785,10.785 0 0 1 -1.4,0.25 c -0.4665,0.05 -0.9,0.05 -1.3165,0 -0.4665,-0.1335 -0.95,-0.2835 -1.4,-0.4665 a 8.07,8.07 0 0 1 -1.3,-0.6835 c -1.7,1 -3.6,1.95 -4.6335,3.7 -0.583,0.8 -0.7,1.7165 -0.833,2.6665 -0.0835,1.167 0.2165,2.4 0.7165,3.4835 0.1835,0.3165 0.3335,-1.15 0.9,-1.35 0.95,-0.7835 2.1335,-1.35 3.3335,-1.6665 1.0165,-0.517 0.883,0.033 0.4665,0.833 -0.1,0.417 -0.6665,2 0.1,1.2 3.3835,-1.5 7.1335,-1.8 10.7835,-2.083 5.3,-0.55 10.6165,-0.667 15.933,-0.7335 l 15,0.3165 c 2.3835,0.067 4.7835,0.6 7.1335,0.2 0.5665,-0.15 1.45,-0.183 1.7835,-0.5165 -1.067,-0.6165 -2.317,-0.6335 -3.5,-0.7835 H 540.1 c -2.65,-0.2665 -5.4165,-0.3 -7.9165,-1.3 -0.667,-0.2665 -1.2835,-0.9 -1.917,-0.2165 -0.95,0.3335 -1.9665,0.5665 -2.9665,0.6335 -1.75,0.133 -3.5,-0.2335 -5.1165,-0.8835 1.1665,-1.6165 2.5665,-3.0335 3.85,-4.5335 -1.0335,-0.1665 -2.0335,-0.383 -3.067,-0.633 1.817,-1.25 3.5,-2.667 5.267,-4 z" id="path7" style="fill:#ffe600;fill-opacity:1;stroke-width:0.5"/><path d="m 606.1,373.005 c -3.6225,2.175 -6.3875,-1.681 -9.4155,-2.8375 -2.1625,1.1745 -2.3645,5.104 -4.385,6.965 -2.4175,2.751 -5.38,-0.7685 -5.1595,-3.4825 -2.891,2.437 -4.353,7.961 -9.0285,7.223 -2.215,-1.8075 -3.8605,-5.6005 -5.553,-1.282 -1.38,2.111 -5.055,5.115 -6.958,1.927 -0.589,-2.815 -2,-6.125 -3.5315,-1.654 -1.051,3.1625 -4.425,5.489 -7.6895,4.1045 -1.787,-1.461 1.4325,-6.8635 -0.842,-6.479 -3.4,2.2475 -5.3765,7.829 -10.121,7.382 -1.8425,-2.068 1.118,-5.572 -0.903,-7.8675 -2.385,3.0615 -5.0315,7.5445 -9.1575,7.8675 -1.994,-1.616 0.0785,-6.2505 -1.195,-6.9365 -4.2335,2.539 -8.7005,7.064 -14.025,5.647 2.075,-7.9365 10.745,-10.721 18.0365,-11.34 12.5445,-1.542 25.742,1.293 37.812,-3.235 1.95,-1.1865 6.675,-2.8695 4.9925,-5.6215 -1.49,-2.1735 3.8765,-1.3235 4.3925,-3.862 -0.3195,-3.215 2.4635,-2.7725 5.182,-3.054 12.188,-0.526 24.2275,2.041 36.379,2.477 0.918,5.921 -5.65,10.0785 -10.938,8.25 -2.526,0.4095 -6.3135,-5.8075 -5.571,-1.285 -0.509,2.374 -0.1525,5.509 -2.3215,7.0945 M 502.4,360.882 c 2.8215,2.5825 4.8,-0.4865 7.4375,-1.608 8.846,-3.0425 16.564,-8.3595 24.173,-13.672 4.61,-3.815 8.607,-8.7625 14.7985,-10 12.0775,-3.6515 24.916,-3.2085 37.04,-6.5785 9.2325,-12.64 24.913,-17.1495 38.0485,-24.415 2.9495,-0.9165 4.089,-3.344 5.031,-6.024 5.014,-7.915 11.8445,-14.9285 19.9225,-19.7195 3.822,-2.0885 8.382,-3.291 12.709,-2.336 -0.31,5.1535 -3.2665,9.721 -6.836,13.285 2.921,-0.064 5.4315,-1.9095 8.3835,-1.8055 1.0115,5.289 -4.7,8.057 -7.739,11.35 1.6925,0.3935 8.1765,0.884 4.643,2.5795 -4.5025,3.125 -9.6445,5.2705 -13.801,8.8995 3.835,0.689 4.272,1.504 0.3725,2.891 -2.111,1.431 -6.1705,1.931 -6.563,4.7185 2.897,1.7805 -1.3345,3.5485 -2.9665,4.1275 -3.121,0.727 -6.399,2.0825 -2.2535,4.4535 -1.568,2.369 -4.9325,2.8745 -7.678,2.64 0.833,2.685 2.039,5.6895 -1.446,6.874 -7.812,5.905 -16.98,10.201 -26.8,11.1835 12.2675,0.943 24.903,-1.334 35.386,-8.0055 1.384,-1.6365 8.641,-3.395 4.582,-4.771 -1.911,-0.795 -6.008,-1.6785 -6.285,-3.1355 5.6775,-3.503 12.832,-2.257 18.94,-4.338 0.158,-1.9775 -4.646,-1.4275 -6.437,-1.8775 -4.2715,-0.35 -4.021,-1.44 0.0975,-1.844 5.211,-1.38 11.113,-1.6515 15.4965,-5.049 -3.569,-1.6535 -8.058,-0.198 -11.866,-1.548 6.4555,-2.825 14.071,-3.1085 19.863,-7.352 2.6385,-2.935 -3.38,-2.018 -5.1335,-1.9465 -3.575,0.6225 -5.228,-1.089 -1.166,-2.5745 6.935,-5.1135 15.7165,-8.435 20.588,-15.8485 1.154,-1.6595 2.7165,-6.6595 -0.964,-4.861 -4.84,1.6095 -9.099,7.0505 -14.614,5.3675 10.8665,-8.422 21.2065,-18.01 28.6335,-29.665 0.384,-3.3615 -4.8925,-3.725 -6.266,-1.086 -6.9815,6.727 -13.3,14.6675 -22.2385,18.885 8.5605,-8.2625 15.638,-18.046 21.813,-28.186 1.324,-3.016 4.882,-6.643 2.951,-9.9915 -3.1125,-2.5765 -7.0065,-0.218 -8.624,2.865 -5.427,7.085 -9.548,15.3545 -16.527,21.125 6.11,-11.6605 12.4355,-24.0735 12.59,-37.523 -0.019,-2.769 -0.575,-6.847 -4.335,-6.33 -2.981,0.5345 -2.273,4.996 -3.502,7.2525 -2.7055,9.1885 -3.9755,19.1395 -9.525,27.185 1.2485,-7.4665 3.433,-15.25 1.756,-22.79 -0.7835,-3.3695 -6.225,-1.92 -5.524,1.415 -6.501,32.93 -28.597,61.73 -57.495,78.39 -13.232,7.4865 -28.0115,12.313 -43.048,14.501 -4.045,0.8855 -8.42,0.366 -12.286,1.745 -9.368,7.1835 -15.04,19.2035 -26.901,22.9675 -5.316,2.642 -12.248,3.178 -16.049,8.1165 -0.329,0.6315 -0.4,1.3635 -0.387,2.064" id="path8" style="fill:#ffe600;fill-opacity:1;stroke-width:0.5"/><path d="m 537.9,327.475 c -1.75,3.177 -2.78,6.829 -5.03,9.6735 -6.7705,-6.1605 -16.5855,-5.957 -25.1735,-6.367 -7.0885,-0.3785 -14.797,-1.0325 -20.2815,-6.088 -5.7695,-4.726 -10.479,-10.862 -16.926,-14.6965 -5.8845,-1.6 -11.8165,-3.602 -16.5475,-7.6355 -10.11,-8.241 -15.9,-20.4685 -25.779,-28.9665 -1.8835,-1.854 -4.1045,-3.2905 -6.2145,-4.8635 -2.005,0.4885 -1.0975,4.8155 -3.551,2.61 -1.335,-0.95 -4.674,-1.0425 -4.975,0.2845 3.0205,3.98 6.044,8.5245 6.4625,13.615 -2.06,0.211 -5.7225,-0.435 -6.7435,0.332 2.7355,4.1 6.242,7.7365 10.226,10.6315 -1.911,0.307 -5.6765,0.14 -6.409,0.91 3.9545,3.223 8.195,6.517 13.3735,7.345 1.06,1.397 -1.55,4.095 0.645,5.288 1.2725,0.52 5.472,1.39 2.5795,2.8375 -1.985,1.3375 -1.2485,4.455 1.29,4.385 1.605,0.82 5.2085,1.0205 5.4905,2.44 -1.4225,1.4475 -5.849,3.164 -2.0815,4.52 3.5195,1.952 7.5335,3.2195 11.5525,3.3585 -2.017,1.697 -4.502,2.66 -6.578,4.2565 9.275,5.4385 19.5565,9.015 29.7165,12.4595 4.045,1.3515 8.137,2.6115 12.33,3.405 -12.184,-0.7035 -23.9605,-4.3105 -35.0575,-9.2475 -5.7515,-2.5225 -11.542,-4.96 -17.4365,-7.1325 2.5845,-1.345 5.574,-1.6735 8.2545,-2.8375 -5.564,-1.115 -11.6425,-1.48 -16.5335,-4.5385 0.75,-1.338 3.5915,-1.401 5.163,-2.082 2.9555,-0.708 4.789,-1.567 0.6215,-1.824 -4.2025,-1.1405 -9.0225,-0.6285 -12.726,-3.164 0.2385,-1.52 4.1145,-0.99 5.693,-1.6465 1.988,-0.3415 4.198,-0.6275 5.7865,-1.965 -6.497,-2.6935 -14.995,-0.785 -20.084,-6.5225 -1.1735,-2.186 3.6445,-0.425 5.0165,-0.7895 3.4865,0 7.2335,1.108 10.5535,-0.2975 -9.467,-4.1565 -19.6075,-8.0475 -26.8275,-15.7355 -0.8015,-1.236 -3.2035,-4.6125 -1.2655,-5.03 5.6195,0.7435 9.687,6.8765 15.698,5.922 0.7985,-1.0765 -3.492,-2.8405 -4.563,-4.379 -8.764,-7.5205 -17.27,-15.682 -23.4125,-25.533 -0.4225,-3.29 4.7485,-3.7825 6.11,-1.242 6.7025,6.4555 12.757,13.9885 21.105,18.3955 2.962,1.4365 -1.701,-1.7 -2.322,-2.8375 -7.7135,-8.957 -15.0565,-18.417 -20.4475,-28.966 -0.965,-1.901 -2.564,-5.343 0.323,-6.355 2.8865,-1.446 5.7505,0.524 7.214,3.0035 5.671,7.1525 9.844,15.6535 16.9085,21.6125 -6.0185,-11.6795 -12.4445,-23.974 -12.6,-37.414 0.1415,-2.605 0.309,-6.546 3.842,-6.439 2.9665,-0.45 2.498,3.348 3.47,5.159 2.923,9.8735 4.1975,20.5605 10.061,29.278 -1.295,-7.3245 -3.2015,-14.8675 -1.935,-22.3135 0.292,-2.445 3.0445,-3.185 4.841,-1.707 1.4525,3.555 1.755,7.945 3.0785,11.7455 7.53,25.76 24.4375,48.416 46.4705,63.62 18.146,12.4455 39.681,19.875 61.66,21.1705 1.985,0.173 3.978,0.233 5.966,0.355" id="path9" style="fill:#ffe600;fill-opacity:1;stroke-width:0.5"/><circle cx="510" cy="360.44351" r="1.1835001" id="circle9" style="fill:#ffe600;fill-opacity:1;stroke-width:0.5"/><circle cx="509.89999" cy="360.25351" r="0.48249999" stroke="#ffec2d" stroke-width="0.1905" id="circle10" style="fill:#ffe600;fill-opacity:1"/></g><g id="g13" transform="matrix(0.237288, -0.024902, 0, 0.237288, -126.535194, 116.034691)" style="fill:#ffe600;fill-opacity:1"><g id="D" transform="scale(0.5)" style="fill:#ffe600;fill-opacity:1"><g id="E" style="fill:#ffe600;fill-opacity:1"><path d="m 120,72.922 c 0,0 -9.61,-8.076 -12.874,-4.025 -5.25,6.515 16.14,38.968 16.14,50.396 0,18.759 -12.517,23.86 -27.973,26.539 -10.371,1.798 -27.259,-0.752 -27.259,-0.752 3.18,-4.273 5.248,-5.532 10.606,-5.873 -5.965,-3.097 -12.039,-9.82 -12.039,-20.284 0,-16.138 6.643,-22.79 6.643,-40.983 0,-10.093 -8.276,-22.941 -8.276,-22.941 14.629,1.464 21.879,15.009 17.754,25.834 2.328,0.335 4.442,-0.19 6.258,-1.91 1.07,3 -0.62,6.483 -2.883,9.484 1.823,0.974 3.162,0.39 6.066,-0.21 -0.276,3.092 -2.128,6.376 -6.66,9.468 13.151,-3.415 21.243,5.751 21.243,15.347 0,7.248 -5.079,12.443 -10.044,12.443 -1.604,0 -3.961,-0.661 -5.29,-1.654 -0.938,1.995 -0.455,4.665 0.51,6.66 -3.638,-0.962 -5.948,-3.123 -4.304,-7.621 -2.795,-0.257 -5.018,-1.201 -6.53,-3 1.532,-1.963 3.857,-3.093 6.53,-3.001 -2.035,-4.2 0.233,-6.55 3.538,-8.456 0,0 -2.102,8.456 3.265,8.456 2.413,0 4.612,-0.786 4.612,-4.343 0,-3.097 -2.707,-7.387 -8.966,-7.114 -6.259,0.273 -11.332,4.315 -11.332,14.306 0,9.216 7.434,13.8 17.23,14.096 8.833,0.273 15.5,-4.512 15.5,-13.625 0,-12.128 -17.508,-39.773 -17.508,-50.58 0,-8.11 7.292,-12.636 14.427,-12.636 9.252,0 17.058,9.161 17.058,9.161 l -5.435,6.815 z" id="path10" style="fill:#ffe600;fill-opacity:1"/><path id="F" d="m 122.02,292.14 c 0,20.27 -18.198,30.688 -32.498,30.688 -19.266,0 -29.524,-11.519 -29.524,-26.598 0,-8.548 1.566,-13.911 5.507,-22.092 l 44.153,-91.653 c 1.543,-3.188 2.041,-6.818 2.041,-12.138 0,-8.217 -7.97,-14.933 -16.327,-15.139 -7.618,-0.19 -15.918,7.102 -15.918,15.412 0,10.093 5.236,14.593 10.612,14.593 6.616,0 9.252,-2.72 9.252,-7.365 0,-3.237 -1.563,-4.637 -3.81,-4.637 -5.674,0 -4.081,7.638 -4.081,7.638 -2.818,-0.617 -5.134,-3.497 -3.81,-7.093 a 10.23,10.23 0 0 1 -5.51,-3.273 c 1.521,-1.475 3.266,-2.613 5.51,-3 -1.329,-4.388 0.447,-6.531 4.286,-7.433 -0.775,1.687 -0.801,3.24 -0.544,4.705 6.043,-1.719 15.306,1.016 15.306,11.456 0,10.365 -7.194,19.093 -20.681,16.912 3.208,1.534 4.84,4.673 5.17,8.183 -2.45,-0.954 -5.17,-1.09 -5.17,-1.09 1.577,2.78 3.767,5.177 3.673,10.637 -2.5,-1.137 -4.823,-3.242 -8.027,-1.91 5.03,9.898 -1.15,23.512 -16.871,26.733 5.754,-6.745 8.571,-14.027 8.571,-21.277 0,-23.496 -6.53,-27.445 -6.53,-43.78 0,-6.835 3.513,-14.215 10.476,-19.231 v 0.273 c -4.602,-1.233 -7.55,-3.499 -9.245,-6.578 10.515,-2.982 25.8,-2.927 34.006,0.302 9.434,1.093 16.02,8.33 17.96,12.004 1.94,3.674 5.709,16.953 0,28.912 l -44.898,95.198 c -1.948,4.165 -3.13,8.583 -3.13,13.366 0,12.03 11.02,16.23 17.28,16.23 7.483,0 15.102,-5.7 15.102,-12.82 0,-4.511 -2.45,-7.228 -5.987,-7.228 -8.458,0 -7.944,7.195 -6.258,11.729 -5.264,-2.367 -8.324,-6.592 -7.483,-11.047 -2.98,-0.409 -5.817,-1.822 -8.435,-4.774 2.06,-2.6 4.572,-4.567 8.435,-4.637 -1.687,-6.912 2.94,-9.835 7.483,-11.456 -1.437,5.073 -2.38,10.911 6.258,10.911 6.3,0 11.258,1.091 14.15,5.183 l 0.68,-27.005 c 0.364,-8.098 -10.838,-7.867 -17.958,-5.456 2.687,-9.327 8.198,-14.37 20.952,-13.093 -3.096,-1.295 -6.395,-4.208 -6.395,-9.82 0.002,-7.593 6.162,-16.005 10.206,-18.492 l 2.022,79.051 z" style="fill:#ffe600;fill-opacity:1"/><path id="use10" d="m 122.02,292.14 c 0,20.27 -18.198,30.688 -32.498,30.688 -19.266,0 -29.524,-11.519 -29.524,-26.598 0,-8.548 1.566,-13.911 5.507,-22.092 l 44.153,-91.653 c 1.543,-3.188 2.041,-6.818 2.041,-12.138 0,-8.217 -7.97,-14.933 -16.327,-15.139 -7.618,-0.19 -15.918,7.102 -15.918,15.412 0,10.093 5.236,14.593 10.612,14.593 6.616,0 9.252,-2.72 9.252,-7.365 0,-3.237 -1.563,-4.637 -3.81,-4.637 -5.674,0 -4.081,7.638 -4.081,7.638 -2.818,-0.617 -5.134,-3.497 -3.81,-7.093 a 10.23,10.23 0 0 1 -5.51,-3.273 c 1.521,-1.475 3.266,-2.613 5.51,-3 -1.329,-4.388 0.447,-6.531 4.286,-7.433 -0.775,1.687 -0.801,3.24 -0.544,4.705 6.043,-1.719 15.306,1.016 15.306,11.456 0,10.365 -7.194,19.093 -20.681,16.912 3.208,1.534 4.84,4.673 5.17,8.183 -2.45,-0.954 -5.17,-1.09 -5.17,-1.09 1.577,2.78 3.767,5.177 3.673,10.637 -2.5,-1.137 -4.823,-3.242 -8.027,-1.91 5.03,9.898 -1.15,23.512 -16.871,26.733 5.754,-6.745 8.571,-14.027 8.571,-21.277 0,-23.496 -6.53,-27.445 -6.53,-43.78 0,-6.835 3.513,-14.215 10.476,-19.231 v 0.273 c -4.602,-1.233 -7.55,-3.499 -9.245,-6.578 10.515,-2.982 25.8,-2.927 34.006,0.302 9.434,1.093 16.02,8.33 17.96,12.004 1.94,3.674 5.709,16.953 0,28.912 l -44.898,95.198 c -1.948,4.165 -3.13,8.583 -3.13,13.366 0,12.03 11.02,16.23 17.28,16.23 7.483,0 15.102,-5.7 15.102,-12.82 0,-4.511 -2.45,-7.228 -5.987,-7.228 -8.458,0 -7.944,7.195 -6.258,11.729 -5.264,-2.367 -8.324,-6.592 -7.483,-11.047 -2.98,-0.409 -5.817,-1.822 -8.435,-4.774 2.06,-2.6 4.572,-4.567 8.435,-4.637 -1.687,-6.912 2.94,-9.835 7.483,-11.456 -1.437,5.073 -2.38,10.911 6.258,10.911 6.3,0 11.258,1.091 14.15,5.183 l 0.68,-27.005 c 0.364,-8.098 -10.838,-7.867 -17.958,-5.456 2.687,-9.327 8.198,-14.37 20.952,-13.093 -3.096,-1.295 -6.395,-4.208 -6.395,-9.82 0.002,-7.593 6.162,-16.005 10.206,-18.492 l 2.022,79.051 z" style="fill:#ffe600;fill-opacity:1" transform="matrix(1, 0, 0, -1, 0, 645.0800170898438)"/></g><g id="use11" style="fill:#ffe600;fill-opacity:1" transform="matrix(-1, 0, 0, 1, 240, 0)"><path d="m 120,72.922 c 0,0 -9.61,-8.076 -12.874,-4.025 -5.25,6.515 16.14,38.968 16.14,50.396 0,18.759 -12.517,23.86 -27.973,26.539 -10.371,1.798 -27.259,-0.752 -27.259,-0.752 3.18,-4.273 5.248,-5.532 10.606,-5.873 -5.965,-3.097 -12.039,-9.82 -12.039,-20.284 0,-16.138 6.643,-22.79 6.643,-40.983 0,-10.093 -8.276,-22.941 -8.276,-22.941 14.629,1.464 21.879,15.009 17.754,25.834 2.328,0.335 4.442,-0.19 6.258,-1.91 1.07,3 -0.62,6.483 -2.883,9.484 1.823,0.974 3.162,0.39 6.066,-0.21 -0.276,3.092 -2.128,6.376 -6.66,9.468 13.151,-3.415 21.243,5.751 21.243,15.347 0,7.248 -5.079,12.443 -10.044,12.443 -1.604,0 -3.961,-0.661 -5.29,-1.654 -0.938,1.995 -0.455,4.665 0.51,6.66 -3.638,-0.962 -5.948,-3.123 -4.304,-7.621 -2.795,-0.257 -5.018,-1.201 -6.53,-3 1.532,-1.963 3.857,-3.093 6.53,-3.001 -2.035,-4.2 0.233,-6.55 3.538,-8.456 0,0 -2.102,8.456 3.265,8.456 2.413,0 4.612,-0.786 4.612,-4.343 0,-3.097 -2.707,-7.387 -8.966,-7.114 -6.259,0.273 -11.332,4.315 -11.332,14.306 0,9.216 7.434,13.8 17.23,14.096 8.833,0.273 15.5,-4.512 15.5,-13.625 0,-12.128 -17.508,-39.773 -17.508,-50.58 0,-8.11 7.292,-12.636 14.427,-12.636 9.252,0 17.058,9.161 17.058,9.161 l -5.435,6.815 z" style="fill:#ffe600;fill-opacity:1"/><path d="m 122.02,292.14 c 0,20.27 -18.198,30.688 -32.498,30.688 -19.266,0 -29.524,-11.519 -29.524,-26.598 0,-8.548 1.566,-13.911 5.507,-22.092 l 44.153,-91.653 c 1.543,-3.188 2.041,-6.818 2.041,-12.138 0,-8.217 -7.97,-14.933 -16.327,-15.139 -7.618,-0.19 -15.918,7.102 -15.918,15.412 0,10.093 5.236,14.593 10.612,14.593 6.616,0 9.252,-2.72 9.252,-7.365 0,-3.237 -1.563,-4.637 -3.81,-4.637 -5.674,0 -4.081,7.638 -4.081,7.638 -2.818,-0.617 -5.134,-3.497 -3.81,-7.093 a 10.23,10.23 0 0 1 -5.51,-3.273 c 1.521,-1.475 3.266,-2.613 5.51,-3 -1.329,-4.388 0.447,-6.531 4.286,-7.433 -0.775,1.687 -0.801,3.24 -0.544,4.705 6.043,-1.719 15.306,1.016 15.306,11.456 0,10.365 -7.194,19.093 -20.681,16.912 3.208,1.534 4.84,4.673 5.17,8.183 -2.45,-0.954 -5.17,-1.09 -5.17,-1.09 1.577,2.78 3.767,5.177 3.673,10.637 -2.5,-1.137 -4.823,-3.242 -8.027,-1.91 5.03,9.898 -1.15,23.512 -16.871,26.733 5.754,-6.745 8.571,-14.027 8.571,-21.277 0,-23.496 -6.53,-27.445 -6.53,-43.78 0,-6.835 3.513,-14.215 10.476,-19.231 v 0.273 c -4.602,-1.233 -7.55,-3.499 -9.245,-6.578 10.515,-2.982 25.8,-2.927 34.006,0.302 9.434,1.093 16.02,8.33 17.96,12.004 1.94,3.674 5.709,16.953 0,28.912 l -44.898,95.198 c -1.948,4.165 -3.13,8.583 -3.13,13.366 0,12.03 11.02,16.23 17.28,16.23 7.483,0 15.102,-5.7 15.102,-12.82 0,-4.511 -2.45,-7.228 -5.987,-7.228 -8.458,0 -7.944,7.195 -6.258,11.729 -5.264,-2.367 -8.324,-6.592 -7.483,-11.047 -2.98,-0.409 -5.817,-1.822 -8.435,-4.774 2.06,-2.6 4.572,-4.567 8.435,-4.637 -1.687,-6.912 2.94,-9.835 7.483,-11.456 -1.437,5.073 -2.38,10.911 6.258,10.911 6.3,0 11.258,1.091 14.15,5.183 l 0.68,-27.005 c 0.364,-8.098 -10.838,-7.867 -17.958,-5.456 2.687,-9.327 8.198,-14.37 20.952,-13.093 -3.096,-1.295 -6.395,-4.208 -6.395,-9.82 0.002,-7.593 6.162,-16.005 10.206,-18.492 l 2.022,79.051 z" style="fill:#ffe600;fill-opacity:1"/><path d="m 122.02,292.14 c 0,20.27 -18.198,30.688 -32.498,30.688 -19.266,0 -29.524,-11.519 -29.524,-26.598 0,-8.548 1.566,-13.911 5.507,-22.092 l 44.153,-91.653 c 1.543,-3.188 2.041,-6.818 2.041,-12.138 0,-8.217 -7.97,-14.933 -16.327,-15.139 -7.618,-0.19 -15.918,7.102 -15.918,15.412 0,10.093 5.236,14.593 10.612,14.593 6.616,0 9.252,-2.72 9.252,-7.365 0,-3.237 -1.563,-4.637 -3.81,-4.637 -5.674,0 -4.081,7.638 -4.081,7.638 -2.818,-0.617 -5.134,-3.497 -3.81,-7.093 a 10.23,10.23 0 0 1 -5.51,-3.273 c 1.521,-1.475 3.266,-2.613 5.51,-3 -1.329,-4.388 0.447,-6.531 4.286,-7.433 -0.775,1.687 -0.801,3.24 -0.544,4.705 6.043,-1.719 15.306,1.016 15.306,11.456 0,10.365 -7.194,19.093 -20.681,16.912 3.208,1.534 4.84,4.673 5.17,8.183 -2.45,-0.954 -5.17,-1.09 -5.17,-1.09 1.577,2.78 3.767,5.177 3.673,10.637 -2.5,-1.137 -4.823,-3.242 -8.027,-1.91 5.03,9.898 -1.15,23.512 -16.871,26.733 5.754,-6.745 8.571,-14.027 8.571,-21.277 0,-23.496 -6.53,-27.445 -6.53,-43.78 0,-6.835 3.513,-14.215 10.476,-19.231 v 0.273 c -4.602,-1.233 -7.55,-3.499 -9.245,-6.578 10.515,-2.982 25.8,-2.927 34.006,0.302 9.434,1.093 16.02,8.33 17.96,12.004 1.94,3.674 5.709,16.953 0,28.912 l -44.898,95.198 c -1.948,4.165 -3.13,8.583 -3.13,13.366 0,12.03 11.02,16.23 17.28,16.23 7.483,0 15.102,-5.7 15.102,-12.82 0,-4.511 -2.45,-7.228 -5.987,-7.228 -8.458,0 -7.944,7.195 -6.258,11.729 -5.264,-2.367 -8.324,-6.592 -7.483,-11.047 -2.98,-0.409 -5.817,-1.822 -8.435,-4.774 2.06,-2.6 4.572,-4.567 8.435,-4.637 -1.687,-6.912 2.94,-9.835 7.483,-11.456 -1.437,5.073 -2.38,10.911 6.258,10.911 6.3,0 11.258,1.091 14.15,5.183 l 0.68,-27.005 c 0.364,-8.098 -10.838,-7.867 -17.958,-5.456 2.687,-9.327 8.198,-14.37 20.952,-13.093 -3.096,-1.295 -6.395,-4.208 -6.395,-9.82 0.002,-7.593 6.162,-16.005 10.206,-18.492 l 2.022,79.051 z" style="fill:#ffe600;fill-opacity:1" transform="matrix(1, 0, 0, -1, 0, 645.0800170898438)"/></g></g><g id="use12" transform="matrix(0.5, 0, 0, -0.5, 0, 500)" style="fill:#ffe600;fill-opacity:1"><g style="fill:#ffe600;fill-opacity:1"><path d="m 120,72.922 c 0,0 -9.61,-8.076 -12.874,-4.025 -5.25,6.515 16.14,38.968 16.14,50.396 0,18.759 -12.517,23.86 -27.973,26.539 -10.371,1.798 -27.259,-0.752 -27.259,-0.752 3.18,-4.273 5.248,-5.532 10.606,-5.873 -5.965,-3.097 -12.039,-9.82 -12.039,-20.284 0,-16.138 6.643,-22.79 6.643,-40.983 0,-10.093 -8.276,-22.941 -8.276,-22.941 14.629,1.464 21.879,15.009 17.754,25.834 2.328,0.335 4.442,-0.19 6.258,-1.91 1.07,3 -0.62,6.483 -2.883,9.484 1.823,0.974 3.162,0.39 6.066,-0.21 -0.276,3.092 -2.128,6.376 -6.66,9.468 13.151,-3.415 21.243,5.751 21.243,15.347 0,7.248 -5.079,12.443 -10.044,12.443 -1.604,0 -3.961,-0.661 -5.29,-1.654 -0.938,1.995 -0.455,4.665 0.51,6.66 -3.638,-0.962 -5.948,-3.123 -4.304,-7.621 -2.795,-0.257 -5.018,-1.201 -6.53,-3 1.532,-1.963 3.857,-3.093 6.53,-3.001 -2.035,-4.2 0.233,-6.55 3.538,-8.456 0,0 -2.102,8.456 3.265,8.456 2.413,0 4.612,-0.786 4.612,-4.343 0,-3.097 -2.707,-7.387 -8.966,-7.114 -6.259,0.273 -11.332,4.315 -11.332,14.306 0,9.216 7.434,13.8 17.23,14.096 8.833,0.273 15.5,-4.512 15.5,-13.625 0,-12.128 -17.508,-39.773 -17.508,-50.58 0,-8.11 7.292,-12.636 14.427,-12.636 9.252,0 17.058,9.161 17.058,9.161 l -5.435,6.815 z" style="fill:#ffe600;fill-opacity:1"/><path d="m 122.02,292.14 c 0,20.27 -18.198,30.688 -32.498,30.688 -19.266,0 -29.524,-11.519 -29.524,-26.598 0,-8.548 1.566,-13.911 5.507,-22.092 l 44.153,-91.653 c 1.543,-3.188 2.041,-6.818 2.041,-12.138 0,-8.217 -7.97,-14.933 -16.327,-15.139 -7.618,-0.19 -15.918,7.102 -15.918,15.412 0,10.093 5.236,14.593 10.612,14.593 6.616,0 9.252,-2.72 9.252,-7.365 0,-3.237 -1.563,-4.637 -3.81,-4.637 -5.674,0 -4.081,7.638 -4.081,7.638 -2.818,-0.617 -5.134,-3.497 -3.81,-7.093 a 10.23,10.23 0 0 1 -5.51,-3.273 c 1.521,-1.475 3.266,-2.613 5.51,-3 -1.329,-4.388 0.447,-6.531 4.286,-7.433 -0.775,1.687 -0.801,3.24 -0.544,4.705 6.043,-1.719 15.306,1.016 15.306,11.456 0,10.365 -7.194,19.093 -20.681,16.912 3.208,1.534 4.84,4.673 5.17,8.183 -2.45,-0.954 -5.17,-1.09 -5.17,-1.09 1.577,2.78 3.767,5.177 3.673,10.637 -2.5,-1.137 -4.823,-3.242 -8.027,-1.91 5.03,9.898 -1.15,23.512 -16.871,26.733 5.754,-6.745 8.571,-14.027 8.571,-21.277 0,-23.496 -6.53,-27.445 -6.53,-43.78 0,-6.835 3.513,-14.215 10.476,-19.231 v 0.273 c -4.602,-1.233 -7.55,-3.499 -9.245,-6.578 10.515,-2.982 25.8,-2.927 34.006,0.302 9.434,1.093 16.02,8.33 17.96,12.004 1.94,3.674 5.709,16.953 0,28.912 l -44.898,95.198 c -1.948,4.165 -3.13,8.583 -3.13,13.366 0,12.03 11.02,16.23 17.28,16.23 7.483,0 15.102,-5.7 15.102,-12.82 0,-4.511 -2.45,-7.228 -5.987,-7.228 -8.458,0 -7.944,7.195 -6.258,11.729 -5.264,-2.367 -8.324,-6.592 -7.483,-11.047 -2.98,-0.409 -5.817,-1.822 -8.435,-4.774 2.06,-2.6 4.572,-4.567 8.435,-4.637 -1.687,-6.912 2.94,-9.835 7.483,-11.456 -1.437,5.073 -2.38,10.911 6.258,10.911 6.3,0 11.258,1.091 14.15,5.183 l 0.68,-27.005 c 0.364,-8.098 -10.838,-7.867 -17.958,-5.456 2.687,-9.327 8.198,-14.37 20.952,-13.093 -3.096,-1.295 -6.395,-4.208 -6.395,-9.82 0.002,-7.593 6.162,-16.005 10.206,-18.492 l 2.022,79.051 z" style="fill:#ffe600;fill-opacity:1"/><path d="m 122.02,292.14 c 0,20.27 -18.198,30.688 -32.498,30.688 -19.266,0 -29.524,-11.519 -29.524,-26.598 0,-8.548 1.566,-13.911 5.507,-22.092 l 44.153,-91.653 c 1.543,-3.188 2.041,-6.818 2.041,-12.138 0,-8.217 -7.97,-14.933 -16.327,-15.139 -7.618,-0.19 -15.918,7.102 -15.918,15.412 0,10.093 5.236,14.593 10.612,14.593 6.616,0 9.252,-2.72 9.252,-7.365 0,-3.237 -1.563,-4.637 -3.81,-4.637 -5.674,0 -4.081,7.638 -4.081,7.638 -2.818,-0.617 -5.134,-3.497 -3.81,-7.093 a 10.23,10.23 0 0 1 -5.51,-3.273 c 1.521,-1.475 3.266,-2.613 5.51,-3 -1.329,-4.388 0.447,-6.531 4.286,-7.433 -0.775,1.687 -0.801,3.24 -0.544,4.705 6.043,-1.719 15.306,1.016 15.306,11.456 0,10.365 -7.194,19.093 -20.681,16.912 3.208,1.534 4.84,4.673 5.17,8.183 -2.45,-0.954 -5.17,-1.09 -5.17,-1.09 1.577,2.78 3.767,5.177 3.673,10.637 -2.5,-1.137 -4.823,-3.242 -8.027,-1.91 5.03,9.898 -1.15,23.512 -16.871,26.733 5.754,-6.745 8.571,-14.027 8.571,-21.277 0,-23.496 -6.53,-27.445 -6.53,-43.78 0,-6.835 3.513,-14.215 10.476,-19.231 v 0.273 c -4.602,-1.233 -7.55,-3.499 -9.245,-6.578 10.515,-2.982 25.8,-2.927 34.006,0.302 9.434,1.093 16.02,8.33 17.96,12.004 1.94,3.674 5.709,16.953 0,28.912 l -44.898,95.198 c -1.948,4.165 -3.13,8.583 -3.13,13.366 0,12.03 11.02,16.23 17.28,16.23 7.483,0 15.102,-5.7 15.102,-12.82 0,-4.511 -2.45,-7.228 -5.987,-7.228 -8.458,0 -7.944,7.195 -6.258,11.729 -5.264,-2.367 -8.324,-6.592 -7.483,-11.047 -2.98,-0.409 -5.817,-1.822 -8.435,-4.774 2.06,-2.6 4.572,-4.567 8.435,-4.637 -1.687,-6.912 2.94,-9.835 7.483,-11.456 -1.437,5.073 -2.38,10.911 6.258,10.911 6.3,0 11.258,1.091 14.15,5.183 l 0.68,-27.005 c 0.364,-8.098 -10.838,-7.867 -17.958,-5.456 2.687,-9.327 8.198,-14.37 20.952,-13.093 -3.096,-1.295 -6.395,-4.208 -6.395,-9.82 0.002,-7.593 6.162,-16.005 10.206,-18.492 l 2.022,79.051 z" style="fill:#ffe600;fill-opacity:1" transform="matrix(1, 0, 0, -1, 0, 645.0800170898438)"/></g><g style="fill:#ffe600;fill-opacity:1" transform="matrix(-1, 0, 0, 1, 240, 0)"><path d="m 120,72.922 c 0,0 -9.61,-8.076 -12.874,-4.025 -5.25,6.515 16.14,38.968 16.14,50.396 0,18.759 -12.517,23.86 -27.973,26.539 -10.371,1.798 -27.259,-0.752 -27.259,-0.752 3.18,-4.273 5.248,-5.532 10.606,-5.873 -5.965,-3.097 -12.039,-9.82 -12.039,-20.284 0,-16.138 6.643,-22.79 6.643,-40.983 0,-10.093 -8.276,-22.941 -8.276,-22.941 14.629,1.464 21.879,15.009 17.754,25.834 2.328,0.335 4.442,-0.19 6.258,-1.91 1.07,3 -0.62,6.483 -2.883,9.484 1.823,0.974 3.162,0.39 6.066,-0.21 -0.276,3.092 -2.128,6.376 -6.66,9.468 13.151,-3.415 21.243,5.751 21.243,15.347 0,7.248 -5.079,12.443 -10.044,12.443 -1.604,0 -3.961,-0.661 -5.29,-1.654 -0.938,1.995 -0.455,4.665 0.51,6.66 -3.638,-0.962 -5.948,-3.123 -4.304,-7.621 -2.795,-0.257 -5.018,-1.201 -6.53,-3 1.532,-1.963 3.857,-3.093 6.53,-3.001 -2.035,-4.2 0.233,-6.55 3.538,-8.456 0,0 -2.102,8.456 3.265,8.456 2.413,0 4.612,-0.786 4.612,-4.343 0,-3.097 -2.707,-7.387 -8.966,-7.114 -6.259,0.273 -11.332,4.315 -11.332,14.306 0,9.216 7.434,13.8 17.23,14.096 8.833,0.273 15.5,-4.512 15.5,-13.625 0,-12.128 -17.508,-39.773 -17.508,-50.58 0,-8.11 7.292,-12.636 14.427,-12.636 9.252,0 17.058,9.161 17.058,9.161 l -5.435,6.815 z" style="fill:#ffe600;fill-opacity:1"/><path d="m 122.02,292.14 c 0,20.27 -18.198,30.688 -32.498,30.688 -19.266,0 -29.524,-11.519 -29.524,-26.598 0,-8.548 1.566,-13.911 5.507,-22.092 l 44.153,-91.653 c 1.543,-3.188 2.041,-6.818 2.041,-12.138 0,-8.217 -7.97,-14.933 -16.327,-15.139 -7.618,-0.19 -15.918,7.102 -15.918,15.412 0,10.093 5.236,14.593 10.612,14.593 6.616,0 9.252,-2.72 9.252,-7.365 0,-3.237 -1.563,-4.637 -3.81,-4.637 -5.674,0 -4.081,7.638 -4.081,7.638 -2.818,-0.617 -5.134,-3.497 -3.81,-7.093 a 10.23,10.23 0 0 1 -5.51,-3.273 c 1.521,-1.475 3.266,-2.613 5.51,-3 -1.329,-4.388 0.447,-6.531 4.286,-7.433 -0.775,1.687 -0.801,3.24 -0.544,4.705 6.043,-1.719 15.306,1.016 15.306,11.456 0,10.365 -7.194,19.093 -20.681,16.912 3.208,1.534 4.84,4.673 5.17,8.183 -2.45,-0.954 -5.17,-1.09 -5.17,-1.09 1.577,2.78 3.767,5.177 3.673,10.637 -2.5,-1.137 -4.823,-3.242 -8.027,-1.91 5.03,9.898 -1.15,23.512 -16.871,26.733 5.754,-6.745 8.571,-14.027 8.571,-21.277 0,-23.496 -6.53,-27.445 -6.53,-43.78 0,-6.835 3.513,-14.215 10.476,-19.231 v 0.273 c -4.602,-1.233 -7.55,-3.499 -9.245,-6.578 10.515,-2.982 25.8,-2.927 34.006,0.302 9.434,1.093 16.02,8.33 17.96,12.004 1.94,3.674 5.709,16.953 0,28.912 l -44.898,95.198 c -1.948,4.165 -3.13,8.583 -3.13,13.366 0,12.03 11.02,16.23 17.28,16.23 7.483,0 15.102,-5.7 15.102,-12.82 0,-4.511 -2.45,-7.228 -5.987,-7.228 -8.458,0 -7.944,7.195 -6.258,11.729 -5.264,-2.367 -8.324,-6.592 -7.483,-11.047 -2.98,-0.409 -5.817,-1.822 -8.435,-4.774 2.06,-2.6 4.572,-4.567 8.435,-4.637 -1.687,-6.912 2.94,-9.835 7.483,-11.456 -1.437,5.073 -2.38,10.911 6.258,10.911 6.3,0 11.258,1.091 14.15,5.183 l 0.68,-27.005 c 0.364,-8.098 -10.838,-7.867 -17.958,-5.456 2.687,-9.327 8.198,-14.37 20.952,-13.093 -3.096,-1.295 -6.395,-4.208 -6.395,-9.82 0.002,-7.593 6.162,-16.005 10.206,-18.492 l 2.022,79.051 z" style="fill:#ffe600;fill-opacity:1"/><path d="m 122.02,292.14 c 0,20.27 -18.198,30.688 -32.498,30.688 -19.266,0 -29.524,-11.519 -29.524,-26.598 0,-8.548 1.566,-13.911 5.507,-22.092 l 44.153,-91.653 c 1.543,-3.188 2.041,-6.818 2.041,-12.138 0,-8.217 -7.97,-14.933 -16.327,-15.139 -7.618,-0.19 -15.918,7.102 -15.918,15.412 0,10.093 5.236,14.593 10.612,14.593 6.616,0 9.252,-2.72 9.252,-7.365 0,-3.237 -1.563,-4.637 -3.81,-4.637 -5.674,0 -4.081,7.638 -4.081,7.638 -2.818,-0.617 -5.134,-3.497 -3.81,-7.093 a 10.23,10.23 0 0 1 -5.51,-3.273 c 1.521,-1.475 3.266,-2.613 5.51,-3 -1.329,-4.388 0.447,-6.531 4.286,-7.433 -0.775,1.687 -0.801,3.24 -0.544,4.705 6.043,-1.719 15.306,1.016 15.306,11.456 0,10.365 -7.194,19.093 -20.681,16.912 3.208,1.534 4.84,4.673 5.17,8.183 -2.45,-0.954 -5.17,-1.09 -5.17,-1.09 1.577,2.78 3.767,5.177 3.673,10.637 -2.5,-1.137 -4.823,-3.242 -8.027,-1.91 5.03,9.898 -1.15,23.512 -16.871,26.733 5.754,-6.745 8.571,-14.027 8.571,-21.277 0,-23.496 -6.53,-27.445 -6.53,-43.78 0,-6.835 3.513,-14.215 10.476,-19.231 v 0.273 c -4.602,-1.233 -7.55,-3.499 -9.245,-6.578 10.515,-2.982 25.8,-2.927 34.006,0.302 9.434,1.093 16.02,8.33 17.96,12.004 1.94,3.674 5.709,16.953 0,28.912 l -44.898,95.198 c -1.948,4.165 -3.13,8.583 -3.13,13.366 0,12.03 11.02,16.23 17.28,16.23 7.483,0 15.102,-5.7 15.102,-12.82 0,-4.511 -2.45,-7.228 -5.987,-7.228 -8.458,0 -7.944,7.195 -6.258,11.729 -5.264,-2.367 -8.324,-6.592 -7.483,-11.047 -2.98,-0.409 -5.817,-1.822 -8.435,-4.774 2.06,-2.6 4.572,-4.567 8.435,-4.637 -1.687,-6.912 2.94,-9.835 7.483,-11.456 -1.437,5.073 -2.38,10.911 6.258,10.911 6.3,0 11.258,1.091 14.15,5.183 l 0.68,-27.005 c 0.364,-8.098 -10.838,-7.867 -17.958,-5.456 2.687,-9.327 8.198,-14.37 20.952,-13.093 -3.096,-1.295 -6.395,-4.208 -6.395,-9.82 0.002,-7.593 6.162,-16.005 10.206,-18.492 l 2.022,79.051 z" style="fill:#ffe600;fill-opacity:1" transform="matrix(1, 0, 0, -1, 0, 645.0800170898438)"/></g></g></g></g><path class="cls-1" d="M 99.722 231.541 C 101.585 233.574 104.305 233.076 105.56 230.435 C 135.35 167.569 225.843 139.135 225.843 59.033 C 225.843 29.922 206.246 0.69 168.566 0.013 C 132.699 -0.635 100.509 22.469 97.152 59.87 C 96.145 36.188 80.613 25.269 62.7 25.269 C 27.461 25.269 -1.402 57.081 0.053 104.952 C 2.474 180.242 74.855 203.964 99.722 231.541 Z M 93.326 77.913 C 94.282 81.669 98.865 81.54 99.901 77.823 C 115.414 21.593 186.748 15.446 186.748 72.384 C 186.748 117.336 107.075 165.298 101.007 207.969 C 86.591 179.973 33.638 164.6 33.638 103.747 C 33.638 51.96 83.991 41.08 93.326 77.913 Z" style="stroke-width: 0.996;" id="object-0"/></svg>