<?xml version="1.0" encoding="UTF-8" standalone="no"?>
<svg
   width="125.329"
   height="131.451"
   xml:space="preserve"
   id="svg2"
   version="1.1"
   xmlns="http://www.w3.org/2000/svg"
   xmlns:svg="http://www.w3.org/2000/svg"
   xmlns:rdf="http://www.w3.org/1999/02/22-rdf-syntax-ns#"
   xmlns:cc="http://creativecommons.org/ns#"
   xmlns:dc="http://purl.org/dc/elements/1.1/"><metadata
     id="metadata39"><rdf:RDF><cc:Work
         rdf:about=""><dc:format>image/svg+xml</dc:format><dc:type
           rdf:resource="http://purl.org/dc/dcmitype/StillImage" /></cc:Work></rdf:RDF></metadata><defs
     id="defs4"><g
       id="petal"><line
         x1="0"
         y1="0"
         x2="25"
         y2="0"
         stroke="#ffd700"
         stroke-width="2"
         id="line7" /><circle
         cx="25"
         cy="0"
         r="5"
         fill="#ffd700"
         id="circle9" /></g></defs><path
     style="fill:#b31942;fill-opacity:1;fill-rule:evenodd;stroke:none;stroke-width:0.530043px;stroke-linecap:butt;stroke-linejoin:miter;stroke-opacity:1"
     d="M 5.558,54.921321 19.6811,97.71018 56.93687,124.75759 121.46485,48.51245 102.71521,3.466093 75.44301,9.3571307 56.93687,29.791127 41.35276,18.303702 22.60312,19.766563 Z"
     id="path4487" /><path
     d="m 60.50411,24.743377 53.01343,-4.824642 m 0,15.717245 -106.11942,9.657703 m 0,15.717243 106.11942,-9.657695 m -7.42059,16.392566 -98.69883,8.982375 m 9.54076,14.848966 79.61732,-7.245802 m -20.14161,17.550284 -44.63452,4.0621"
     id="path6"
     style="stroke:#f9f9f9;stroke-width:7.85858;stroke-opacity:1" /><path
     style="stroke:#f9f9f9;stroke-width:7.85858;stroke-opacity:1"
     id="path4485"
     d="M 17.04012,28.698809 52.5916,25.463348" /><rect
     style="fill:#0a3161;stroke-width:0.530043"
     y="25.219919"
     x="46.083012"
     id="rect4611"
     height="44.397469"
     width="5.2165675"
     transform="matrix(0.99646277,-0.08403543,0,1,0,0)" /><path
     style="fill:#0a3161;fill-opacity:1;fill-rule:evenodd;stroke:none;stroke-width:0.530043px;stroke-linecap:butt;stroke-linejoin:miter;stroke-opacity:1"
     d="M 13.76424,30.212173 4.997,57.311991 6.71233,67.447944 47.68965,63.718684 47.88024,19.674196 29.58339,16.955697 Z"
     id="path4831" /><rect
     width="43.77869"
     height="10.63979"
     id="rect8"
     x="7.550066"
     y="62.832302"
     style="fill:#0a3161;stroke-width:0.530043"
     transform="matrix(0.99588433,-0.09063332,0,1,0,0)" /><path
     id="path10457"
     d="M 13.590738,42.054546 14.966319,46.167804 11.365,43.866368 15.816476,43.476913 12.215156,46.4085 Z"
     style="fill:#f9f9f9;fill-opacity:1;stroke-width:0.0195023" /><path
     id="path10459"
     d="m 13.590738,50.245524 1.375581,4.113256 -3.601319,-2.301435 4.451476,-0.389454 -3.60132,2.931585 z"
     style="fill:#f9f9f9;fill-opacity:1;stroke-width:0.0195023" /><path
     id="path10461"
     d="m 13.590738,58.436502 1.375581,4.113256 -3.601319,-2.301435 4.451476,-0.389455 -3.60132,2.931586 z"
     style="fill:#f9f9f9;fill-opacity:1;stroke-width:0.0195023" /><path
     id="path10467"
     d="m 18.407813,29.34664 1.37558,4.113258 -3.601319,-2.301437 4.451477,-0.389455 -3.60132,2.931588 z"
     style="fill:#f9f9f9;fill-opacity:1;stroke-width:0.0195023" /><path
     id="path10469"
     d="m 18.407813,37.537618 1.37558,4.113257 -3.601319,-2.301437 4.451477,-0.389454 -3.60132,2.931587 z"
     style="fill:#f9f9f9;fill-opacity:1;stroke-width:0.0195023" /><path
     id="path10471"
     d="m 18.407813,45.728596 1.37558,4.113256 -3.601319,-2.301435 4.451477,-0.389455 -3.60132,2.931586 z"
     style="fill:#f9f9f9;fill-opacity:1;stroke-width:0.0195023" /><path
     id="path10473"
     d="m 18.407813,53.919573 1.37558,4.113257 -3.601319,-2.301436 4.451477,-0.389454 -3.60132,2.931585 z"
     style="fill:#f9f9f9;fill-opacity:1;stroke-width:0.0195023" /><path
     id="path10477"
     d="m 18.407813,62.11055 1.37558,4.113256 -3.601319,-2.301435 4.451477,-0.389454 -3.60132,2.931586 z"
     style="fill:#f9f9f9;fill-opacity:1;stroke-width:0.0195023" /><path
     id="path10481"
     d="m 23.224888,33.02069 1.37558,4.113256 -3.601319,-2.301436 4.451477,-0.389455 -3.60132,2.931587 z"
     style="fill:#f9f9f9;fill-opacity:1;stroke-width:0.0195023" /><path
     id="path10483"
     d="m 23.224888,41.211666 1.37558,4.113258 -3.601319,-2.301437 4.451477,-0.389454 -3.60132,2.931586 z"
     style="fill:#f9f9f9;fill-opacity:1;stroke-width:0.0195023" /><path
     id="path10485"
     d="m 23.224888,49.402644 1.37558,4.113256 -3.601319,-2.301435 4.451477,-0.389454 -3.60132,2.931585 z"
     style="fill:#f9f9f9;fill-opacity:1;stroke-width:0.0195023" /><path
     id="path10487"
     d="m 23.224888,57.593622 1.37558,4.113256 -3.601319,-2.301435 4.451477,-0.389455 -3.60132,2.931586 z"
     style="fill:#f9f9f9;fill-opacity:1;stroke-width:0.0195023" /><path
     id="path10493"
     d="m 28.041963,28.50376 1.37558,4.113258 -3.60132,-2.301437 4.451478,-0.389455 -3.60132,2.931587 z"
     style="fill:#f9f9f9;fill-opacity:1;stroke-width:0.0195023" /><path
     id="path10495"
     d="m 28.041963,36.694738 1.37558,4.113257 -3.60132,-2.301437 4.451478,-0.389454 -3.60132,2.931587 z"
     style="fill:#f9f9f9;fill-opacity:1;stroke-width:0.0195023" /><path
     id="path10497"
     d="m 28.041963,44.885716 1.37558,4.113256 -3.60132,-2.301435 4.451478,-0.389455 -3.60132,2.931586 z"
     style="fill:#f9f9f9;fill-opacity:1;stroke-width:0.0195023" /><path
     id="path10499"
     d="m 28.041963,53.076692 1.37558,4.113256 -3.60132,-2.301435 4.451478,-0.389454 -3.60132,2.931586 z"
     style="fill:#f9f9f9;fill-opacity:1;stroke-width:0.0195023" /><path
     id="path10503"
     d="m 28.041963,61.26767 1.37558,4.113256 -3.60132,-2.301435 4.451478,-0.389454 -3.60132,2.931585 z"
     style="fill:#f9f9f9;fill-opacity:1;stroke-width:0.0195023" /><path
     id="path10507"
     d="m 32.859037,32.177809 1.375581,4.113257 -3.60132,-2.301437 4.451477,-0.389454 -3.601319,2.931587 z"
     style="fill:#f9f9f9;fill-opacity:1;stroke-width:0.0195023" /><path
     id="path10509"
     d="m 32.859037,40.368786 1.375581,4.113257 -3.60132,-2.301437 4.451477,-0.389454 -3.601319,2.931587 z"
     style="fill:#f9f9f9;fill-opacity:1;stroke-width:0.0195023" /><path
     id="path10511"
     d="m 32.859037,48.559764 1.375581,4.113256 -3.60132,-2.301435 4.451477,-0.389454 -3.601319,2.931585 z"
     style="fill:#f9f9f9;fill-opacity:1;stroke-width:0.0195023" /><path
     id="path10513"
     d="m 32.859037,56.750741 1.375581,4.113257 -3.60132,-2.301435 4.451477,-0.389455 -3.601319,2.931585 z"
     style="fill:#f9f9f9;fill-opacity:1;stroke-width:0.0195023" /><path
     id="path10521"
     d="m 37.676112,27.66088 1.375581,4.113257 -3.60132,-2.301437 4.451477,-0.389454 -3.601319,2.931587 z"
     style="fill:#f9f9f9;fill-opacity:1;stroke-width:0.0195023" /><path
     id="path10523"
     d="m 37.676112,35.851858 1.375581,4.113256 -3.60132,-2.301436 4.451477,-0.389454 -3.601319,2.931587 z"
     style="fill:#f9f9f9;fill-opacity:1;stroke-width:0.0195023" /><path
     id="path10525"
     d="m 37.676112,44.042834 1.375581,4.113257 -3.60132,-2.301435 4.451477,-0.389455 -3.601319,2.931586 z"
     style="fill:#f9f9f9;fill-opacity:1;stroke-width:0.0195023" /><path
     id="path10527"
     d="m 37.676112,52.233812 1.375581,4.113256 -3.60132,-2.301435 4.451477,-0.389454 -3.601319,2.931585 z"
     style="fill:#f9f9f9;fill-opacity:1;stroke-width:0.0195023" /><path
     id="path10531"
     d="m 37.676112,60.42479 1.375581,4.113256 -3.60132,-2.301435 4.451477,-0.389455 -3.601319,2.931586 z"
     style="fill:#f9f9f9;fill-opacity:1;stroke-width:0.0195023" /><path
     id="path10535"
     d="m 42.493187,31.334928 1.375581,4.113258 -3.60132,-2.301437 4.451477,-0.389455 -3.601319,2.931587 z"
     style="fill:#f9f9f9;fill-opacity:1;stroke-width:0.0195023" /><path
     id="path10537"
     d="m 42.493187,39.525906 1.375581,4.113257 -3.60132,-2.301437 4.451477,-0.389454 -3.601319,2.931587 z"
     style="fill:#f9f9f9;fill-opacity:1;stroke-width:0.0195023" /><path
     id="path10539"
     d="m 42.493187,47.716884 1.375581,4.113256 -3.60132,-2.301435 4.451477,-0.389455 -3.601319,2.931586 z"
     style="fill:#f9f9f9;fill-opacity:1;stroke-width:0.0195023" /><path
     id="path10541"
     d="m 42.493187,55.907861 1.375581,4.113256 -3.60132,-2.301436 4.451477,-0.389453 -3.601319,2.931585 z"
     style="fill:#f9f9f9;fill-opacity:1;stroke-width:0.0195023" /><path
     id="path10547"
     d="M 47.310261,26.818 48.685842,30.931256 45.084523,28.62982 49.536,28.240366 45.93468,31.171953 Z"
     style="fill:#f9f9f9;fill-opacity:1;stroke-width:0.0195023" /><path
     id="path10549"
     d="M 47.310261,35.008978 48.685842,39.122234 45.084523,36.820798 49.536,36.431343 45.93468,39.36293 Z"
     style="fill:#f9f9f9;fill-opacity:1;stroke-width:0.0195023" /><path
     id="path10551"
     d="M 47.310261,43.199954 48.685842,47.31321 45.084523,45.011775 49.536,44.622321 45.93468,47.553906 Z"
     style="fill:#f9f9f9;fill-opacity:1;stroke-width:0.0195023" /><path
     id="path10553"
     d="m 47.310261,51.390932 1.375581,4.113256 -3.601319,-2.301435 4.451477,-0.389454 -3.60132,2.931585 z"
     style="fill:#f9f9f9;fill-opacity:1;stroke-width:0.0195023" /><path
     id="path10557"
     d="m 47.310261,59.581909 1.375581,4.113257 -3.601319,-2.301435 4.451477,-0.389455 -3.60132,2.931585 z"
     style="fill:#f9f9f9;fill-opacity:1;stroke-width:0.0195023" /><path
     d="M 12.72366,58.554642 C 13.04169,30.042443 27.87969,21.118601 35.96018,21.1186 c 11.2846,0 15.94526,8.614826 16.70693,12.429032 0.76114,3.811028 5.03222,6.859319 6.4045,0.607963 1.37334,-6.251356 14.64878,-25.313907 30.96506,-25.313907 14.94295,0 20.11828,15.41001 19.6704,28.516972 -1.22281,35.681591 -47.1886,64.15935 -53.23903,82.14114 C 51.08069,108.60895 12.34362,92.866073 12.72366,58.554642 Z M 95.37473,0 C 81.95565,0 66.08566,9.91079 56.4797,26.380888 53.8878,20.432721 44.65287,13.950796 33.67517,13.950796 24.8293,13.950796 0,25.006482 0,60.689136 c 0,46.050344 46.59124,55.509004 56.01009,69.822354 0.64718,0.9843 2.73183,1.72795 3.52743,-0.62386 C 67.05298,107.70787 125.329,82.647327 125.329,37.511843 125.32847,12.198996 108.79327,0 95.37473,0 Z"
     id="path29-2-2-7"
     style="stroke-width:0.530043" /></svg>
