<?xml version="1.0" encoding="utf-8"?>
<svg id="LOGO_LAYER" width="125.33" height="131.44" version="1.1" viewBox="0 0 125.33 131.44" xmlns="http://www.w3.org/2000/svg">
  <defs id="defs1231">
    <style id="style1229">.cls-1{fill:#f9f9f9;}.cls-2{fill:#012169;}.cls-3{fill:#c8102e;}</style>
  </defs>
  <g id="g2074">
    <g fill="#012169" id="g1245">
      <g>
        <path class="cls-2" d="M 90.03 6.183 C 73.053 4.848 56.983 32.097 57.21 34.49 C 53.345 8.674 1.122 17.399 8.657 58.719 C 14.812 92.474 37.56 106.528 56.939 121.638 C 111.186 69.333 140.878 2.293 90.03 6.183 Z" id="path1243"/>
      </g>
    </g>
    <g fill="#c8102e" id="g1255"/>
    <path class="cls-1" d="M 52.867 31.474 C 52.866 31.471 52.865 31.469 52.864 31.466 L 52.887 31.464 L 52.867 31.474 Z M 53.154 31.292 L 33.682 35.452 L 36 20.1 C 36.54 20.11 37.06 20.14 37.57 20.18 L 37.57 29.95 L 45.76 23.88 C 46.03 23.961 46.28 24.038 46.53 24.43 C 46.685 24.044 48.105 25.224 47.95 25.61 C 49.124 25.838 49.672 26.57 49.77 27.61 L 46.76 29.84 L 50.98 29.4 C 51.358 30.057 52.894 30.695 53.154 31.292 Z M 33.694 40.202 L 17.71 34.9 C 17.62 33.956 17.57 33.05 18.87 32.78 L 20.48 32.61 L 19.35 32.01 C 18.601 31.382 19.511 31.372 19.9 31.18 C 19.359 30.871 20.549 29.261 21.09 29.57 C 21.272 28.047 22.312 27.832 23.1 27.29 L 29.69 30.79 L 29.69 21.61 C 30.22 21.37 30.74 21.16 31.26 20.98 L 33.694 40.202 Z M 35.979 50.97 L 34.441 36.322 C 34.441 36.322 47.259 33.675 53.86 33.96 C 56.223 34.062 56.981 37.621 57.2 37.5 L 57.2 38.75 L 46.75 39.85 L 57.2 45.4 L 57.2 46.52 L 57.2 48.76 L 51.93 49.31 L 37.55 41.67 L 37.55 50.81 L 35.98 50.974 L 35.98 50.98 L 35.979 50.974 L 35.979 50.97 Z M 13.56 53.33 L 13.13 51.41 C 12.548 50.11 13.138 48.87 13.66 47.67 L 20.49 42.61 L 14.62 43.23 C 14.642 42.502 14.309 41.725 15.21 41.17 L 33.275 36.683 L 31.27 51.48 L 29.7 51.64 L 29.7 42.5 L 15.32 53.15 L 13.56 53.33 Z" id="path1263"/>
    <g transform="matrix(.12396 -.0086644 0 .12396 -.73846 21.374)" id="g1525">
      <g transform="matrix(45.4,0,0,45.4,675,120)" fill="#f9f9f9" id="g1299">
        <g transform="translate(0 -.32492)" id="g1273">
          <path d="m0 0v0.5l1-0.5z" id="path1269"/>
          <path transform="rotate(-36,1,0)" d="m0 0v-0.5l1 0.5z" id="path1271"/>
        </g>
        <g transform="matrix(-1 0 0 1 0 -.32492)" id="g1279">
          <path d="m0 0v0.5l1-0.5z" id="path1275"/>
          <path transform="rotate(-36,1,0)" d="m0 0v-0.5l1 0.5z" id="path1277"/>
        </g>
        <g transform="rotate(72 .22361 .16246)" id="g1285">
          <path d="m0 0v0.5l1-0.5z" id="path1281"/>
          <path transform="rotate(-36,1,0)" d="m0 0v-0.5l1 0.5z" id="path1283"/>
        </g>
        <g transform="rotate(-72 -.22361 .16246)" id="g1291">
          <path d="m0 0v0.5l1-0.5z" id="path1287"/>
          <path transform="rotate(-36,1,0)" d="m0 0v-0.5l1 0.5z" id="path1289"/>
        </g>
        <g transform="matrix(-.30902 .95106 .95106 .30902 -.30902 -.10041)" id="g1297">
          <path d="m0 0v0.5l1-0.5z" id="path1293"/>
          <path transform="rotate(-36,1,0)" d="m0 0v-0.5l1 0.5z" id="path1295"/>
        </g>
      </g>
      <g transform="matrix(30,0,0,30,675,120)" fill="#c8102e" id="g1331">
        <g transform="translate(0 -.32492)" id="g1305">
          <path d="m0 0v0.5l1-0.5z" id="path1301"/>
          <path transform="rotate(-36,1,0)" d="m0 0v-0.5l1 0.5z" id="path1303"/>
        </g>
        <g transform="matrix(-1 0 0 1 0 -.32492)" id="g1311">
          <path d="m0 0v0.5l1-0.5z" id="path1307"/>
          <path transform="rotate(-36,1,0)" d="m0 0v-0.5l1 0.5z" id="path1309"/>
        </g>
        <g transform="rotate(72 .22361 .16246)" id="g1317">
          <path d="m0 0v0.5l1-0.5z" id="path1313"/>
          <path transform="rotate(-36,1,0)" d="m0 0v-0.5l1 0.5z" id="path1315"/>
        </g>
        <g transform="rotate(-72 -.22361 .16246)" id="g1323">
          <path d="m0 0v0.5l1-0.5z" id="path1319"/>
          <path transform="rotate(-36,1,0)" d="m0 0v-0.5l1 0.5z" id="path1321"/>
        </g>
        <g transform="matrix(-.30902 .95106 .95106 .30902 -.30902 -.10041)" id="g1329">
          <path d="m0 0v0.5l1-0.5z" id="path1325"/>
          <path transform="rotate(-36,1,0)" d="m0 0v-0.5l1 0.5z" id="path1327"/>
        </g>
      </g>
      <g transform="matrix(40.4 -1.7007e-5 1.7007e-5 40.4 793.83 223.3)" fill="#f9f9f9" id="g1363">
        <g transform="translate(0 -.32492)" id="g1337">
          <path d="m0 0v0.5l1-0.5z" id="path1333"/>
          <path transform="rotate(-36,1,0)" d="m0 0v-0.5l1 0.5z" id="path1335"/>
        </g>
        <g transform="matrix(-1 0 0 1 0 -.32492)" id="g1343">
          <path d="m0 0v0.5l1-0.5z" id="path1339"/>
          <path transform="rotate(-36,1,0)" d="m0 0v-0.5l1 0.5z" id="path1341"/>
        </g>
        <g transform="rotate(72 .22361 .16246)" id="g1349">
          <path d="m0 0v0.5l1-0.5z" id="path1345"/>
          <path transform="rotate(-36,1,0)" d="m0 0v-0.5l1 0.5z" id="path1347"/>
        </g>
        <g transform="rotate(-72 -.22361 .16246)" id="g1355">
          <path d="m0 0v0.5l1-0.5z" id="path1351"/>
          <path transform="rotate(-36,1,0)" d="m0 0v-0.5l1 0.5z" id="path1353"/>
        </g>
        <g transform="matrix(-.30902 .95106 .95106 .30902 -.30902 -.10041)" id="g1361">
          <path d="m0 0v0.5l1-0.5z" id="path1357"/>
          <path transform="rotate(-36,1,0)" d="m0 0v-0.5l1 0.5z" id="path1359"/>
        </g>
      </g>
      <g transform="matrix(25 -6.8769e-5 6.8769e-5 25 793.83 223.3)" fill="#c8102e" id="g1395">
        <g transform="translate(0 -.32492)" id="g1369">
          <path d="m0 0v0.5l1-0.5z" id="path1365"/>
          <path transform="rotate(-36,1,0)" d="m0 0v-0.5l1 0.5z" id="path1367"/>
        </g>
        <g transform="matrix(-1 0 0 1 0 -.32492)" id="g1375">
          <path d="m0 0v0.5l1-0.5z" id="path1371"/>
          <path transform="rotate(-36,1,0)" d="m0 0v-0.5l1 0.5z" id="path1373"/>
        </g>
        <g transform="rotate(72 .22361 .16246)" id="g1381">
          <path d="m0 0v0.5l1-0.5z" id="path1377"/>
          <path transform="rotate(-36,1,0)" d="m0 0v-0.5l1 0.5z" id="path1379"/>
        </g>
        <g transform="rotate(-72 -.22361 .16246)" id="g1387">
          <path d="m0 0v0.5l1-0.5z" id="path1383"/>
          <path transform="rotate(-36,1,0)" d="m0 0v-0.5l1 0.5z" id="path1385"/>
        </g>
        <g transform="matrix(-.30902 .95106 .95106 .30902 -.30902 -.10041)" id="g1393">
          <path d="m0 0v0.5l1-0.5z" id="path1389"/>
          <path transform="rotate(-36,1,0)" d="m0 0v-0.5l1 0.5z" id="path1391"/>
        </g>
      </g>
      <g transform="matrix(45.4 6.4519e-5 -6.4519e-5 45.4 536.36 259.48)" fill="#f9f9f9" id="g1427">
        <g transform="translate(0 -.32492)" id="g1401">
          <path d="m0 0v0.5l1-0.5z" id="path1397"/>
          <path transform="rotate(-36,1,0)" d="m0 0v-0.5l1 0.5z" id="path1399"/>
        </g>
        <g transform="matrix(-1 0 0 1 0 -.32492)" id="g1407">
          <path d="m0 0v0.5l1-0.5z" id="path1403"/>
          <path transform="rotate(-36,1,0)" d="m0 0v-0.5l1 0.5z" id="path1405"/>
        </g>
        <g transform="rotate(72 .22361 .16246)" id="g1413">
          <path d="m0 0v0.5l1-0.5z" id="path1409"/>
          <path transform="rotate(-36,1,0)" d="m0 0v-0.5l1 0.5z" id="path1411"/>
        </g>
        <g transform="rotate(-72 -.22361 .16246)" id="g1419">
          <path d="m0 0v0.5l1-0.5z" id="path1415"/>
          <path transform="rotate(-36,1,0)" d="m0 0v-0.5l1 0.5z" id="path1417"/>
        </g>
        <g transform="matrix(-.30902 .95106 .95106 .30902 -.30902 -.10041)" id="g1425">
          <path d="m0 0v0.5l1-0.5z" id="path1421"/>
          <path transform="rotate(-36,1,0)" d="m0 0v-0.5l1 0.5z" id="path1423"/>
        </g>
      </g>
      <g transform="matrix(30 1.2757e-5 -1.2757e-5 30 536.36 259.48)" fill="#c8102e" id="g1459">
        <g transform="translate(0 -.32492)" id="g1433">
          <path d="m0 0v0.5l1-0.5z" id="path1429"/>
          <path transform="rotate(-36,1,0)" d="m0 0v-0.5l1 0.5z" id="path1431"/>
        </g>
        <g transform="matrix(-1 0 0 1 0 -.32492)" id="g1439">
          <path d="m0 0v0.5l1-0.5z" id="path1435"/>
          <path transform="rotate(-36,1,0)" d="m0 0v-0.5l1 0.5z" id="path1437"/>
        </g>
        <g transform="rotate(72 .22361 .16246)" id="g1445">
          <path d="m0 0v0.5l1-0.5z" id="path1441"/>
          <path transform="rotate(-36,1,0)" d="m0 0v-0.5l1 0.5z" id="path1443"/>
        </g>
        <g transform="rotate(-72 -.22361 .16246)" id="g1451">
          <path d="m0 0v0.5l1-0.5z" id="path1447"/>
          <path transform="rotate(-36,1,0)" d="m0 0v-0.5l1 0.5z" id="path1449"/>
        </g>
        <g transform="matrix(-.30902 .95106 .95106 .30902 -.30902 -.10041)" id="g1457">
          <path d="m0 0v0.5l1-0.5z" id="path1453"/>
          <path transform="rotate(-36,1,0)" d="m0 0v-0.5l1 0.5z" id="path1455"/>
        </g>
      </g>
      <g transform="matrix(50.4,0,0,50.4,675,480)" fill="#f9f9f9" id="g1491">
        <g transform="translate(0 -.32492)" id="g1465">
          <path d="m0 0v0.5l1-0.5z" id="path1461"/>
          <path transform="rotate(-36,1,0)" d="m0 0v-0.5l1 0.5z" id="path1463"/>
        </g>
        <g transform="matrix(-1 0 0 1 0 -.32492)" id="g1471">
          <path d="m0 0v0.5l1-0.5z" id="path1467"/>
          <path transform="rotate(-36,1,0)" d="m0 0v-0.5l1 0.5z" id="path1469"/>
        </g>
        <g transform="rotate(72 .22361 .16246)" id="g1477">
          <path d="m0 0v0.5l1-0.5z" id="path1473"/>
          <path transform="rotate(-36,1,0)" d="m0 0v-0.5l1 0.5z" id="path1475"/>
        </g>
        <g transform="rotate(-72 -.22361 .16246)" id="g1483">
          <path d="m0 0v0.5l1-0.5z" id="path1479"/>
          <path transform="rotate(-36,1,0)" d="m0 0v-0.5l1 0.5z" id="path1481"/>
        </g>
        <g transform="matrix(-.30902 .95106 .95106 .30902 -.30902 -.10041)" id="g1489">
          <path d="m0 0v0.5l1-0.5z" id="path1485"/>
          <path transform="rotate(-36,1,0)" d="m0 0v-0.5l1 0.5z" id="path1487"/>
        </g>
      </g>
      <g transform="matrix(35,0,0,35,675,480)" fill="#c8102e" id="g1523">
        <g transform="translate(0 -.32492)" id="g1497">
          <path d="m0 0v0.5l1-0.5z" id="path1493"/>
          <path transform="rotate(-36,1,0)" d="m0 0v-0.5l1 0.5z" id="path1495"/>
        </g>
        <g transform="matrix(-1 0 0 1 0 -.32492)" id="g1503">
          <path d="m0 0v0.5l1-0.5z" id="path1499"/>
          <path transform="rotate(-36,1,0)" d="m0 0v-0.5l1 0.5z" id="path1501"/>
        </g>
        <g transform="rotate(72 .22361 .16246)" id="g1509">
          <path d="m0 0v0.5l1-0.5z" id="path1505"/>
          <path transform="rotate(-36,1,0)" d="m0 0v-0.5l1 0.5z" id="path1507"/>
        </g>
        <g transform="rotate(-72 -.22361 .16246)" id="g1515">
          <path d="m0 0v0.5l1-0.5z" id="path1511"/>
          <path transform="rotate(-36,1,0)" d="m0 0v-0.5l1 0.5z" id="path1513"/>
        </g>
        <g transform="matrix(-.30902 .95106 .95106 .30902 -.30902 -.10041)" id="g1521">
          <path d="m0 0v0.5l1-0.5z" id="path1517"/>
          <path transform="rotate(-36,1,0)" d="m0 0v-0.5l1 0.5z" id="path1519"/>
        </g>
      </g>
    </g>
  </g>
  <path class="cls-3" d="M 29.28 41.68 L 25.77 42.05 L 13.15 51.4 C 12.978 52.025 12.544 52.593 12.96 53.39 L 13.57 53.33 L 29.29 41.68 L 29.28 41.68 Z" id="path1247"/>
  <path class="cls-3" d="M 25.76 32.05 L 21.09 29.57 C 20.469 29.933 20.047 30.448 19.91 31.18 L 22.25 32.42 L 25.77 32.05 L 25.76 32.05 Z" id="path1249"/>
  <polygon class="cls-3" points="57.2 48.75 57.2 46.51 45 40.03 41.48 40.4" id="polygon1253"/>
  <path class="cls-3" d="M 41.48 30.4 L 47.94 25.61 C 47.797 24.903 47.351 24.479 46.52 24.43 L 37.97 30.77 L 41.48 30.4 Z" id="path1251"/>
  <path class="cls-3" d="M 31.26 51.47 L 32.92 51.3 L 33.61 51.23 L 35.97 50.98 L 35.97 38.98 L 54.61 37.02 C 53.841 36.137 52.717 31.812 51.93 31.3 L 35.97 32.97 L 35.97 21.11 L 35.94 21.11 C 34.577 20.775 33.049 20.395 31.25 21.97 L 31.25 33.46 L 17.7 34.88 C 16.278 36.673 15.304 38.733 15.19 41.14 L 31.25 39.45 L 31.25 51.45 L 31.26 51.47 Z" fill="#c8102e" id="path1265"/>
  <path d="m95.36 0c-13.42 0-29.29 9.91-38.89 26.38-2.59-5.95-11.83-12.43-22.8-12.43-8.84 0-33.67 11.05-33.67 46.73 0 46.05 46.59 55.51 56.01 69.82 0.65 0.99 2.73 1.73 3.53-0.62 7.51-22.18 65.79-47.24 65.79-92.37 0-25.31-16.53-37.51-29.95-37.51zm14.33 37.36c-1.22 35.68-47.19 64.15-53.24 82.14-5.39-10.89-44.12-26.63-43.74-60.94 0.02-1.8 0.1-3.51 0.23-5.16 0.05-0.68 0.12-1.34 0.19-1.99 0.14-1.3 0.32-2.54 0.53-3.74 0.27-1.56 0.59-3.04 0.95-4.44 0.18-0.71 0.38-1.39 0.59-2.06 0.72-2.32 1.57-4.4 2.51-6.26 0.37-0.74 0.76-1.45 1.16-2.12 0.16-0.26 0.32-0.51 0.49-0.77 0.18-0.28 0.36-0.56 0.55-0.83 0.39-0.56 0.78-1.1 1.18-1.61 0.65-0.83 1.33-1.59 2.01-2.28 2.14-2.16 4.41-3.69 6.59-4.68 0.53-0.24 1.06-0.45 1.57-0.63 1.69-0.59 3.29-0.86 4.69-0.86h0.03c0.54 0 1.06 0.04 1.57 0.08 3.34 0.25 6.05 1.29 8.19 2.7 0.27 0.18 0.52 0.36 0.77 0.55 0.51 0.38 0.98 0.77 1.42 1.18 0.69 0.64 1.29 1.32 1.82 2 0.46 0.6 0.86 1.2 1.21 1.79 0.39 0.66 0.71 1.29 0.96 1.9 0.35 0.84 0.6 1.61 0.72 2.24 0.28 1.41 1.04 2.71 1.96 3.48 0.81 0.68 1.75 0.94 2.58 0.48 0.77-0.43 1.45-1.45 1.86-3.34 1.37-6.25 14.65-25.31 30.96-25.31 14.94 0 20.12 15.41 19.67 28.52z" id="path1267"/>
</svg>