<?xml version="1.0" encoding="UTF-8" standalone="no"?>
<svg
   width="125.33"
   height="131.45125"
   id="svg2"
   version="1.1"
   xmlns:xlink="http://www.w3.org/1999/xlink"
   xmlns="http://www.w3.org/2000/svg"
   xmlns:svg="http://www.w3.org/2000/svg"
   xmlns:rdf="http://www.w3.org/1999/02/22-rdf-syntax-ns#"
   xmlns:cc="http://creativecommons.org/ns#"
   xmlns:dc="http://purl.org/dc/elements/1.1/">
  <metadata
     id="metadata18">
    <rdf:RDF>
      <cc:Work
         rdf:about="">
        <dc:format>image/svg+xml</dc:format>
        <dc:type
           rdf:resource="http://purl.org/dc/dcmitype/StillImage" />
      </cc:Work>
    </rdf:RDF>
  </metadata>
  <defs
     id="defs16">
    <pattern
       y="0"
       x="0"
       height="6"
       width="6"
       patternUnits="userSpaceOnUse"
       id="EMFhbasepattern" />
  </defs>
  <path
     style="fill:#f9f9f9;fill-opacity:1;fill-rule:evenodd;stroke:none;stroke-width:0.530046px;stroke-linecap:butt;stroke-linejoin:miter;stroke-opacity:1"
     d="M 10.51666,37.120676 4.293,65.049286 17.36269,94.401766 90.95748,89.052199 116.47448,52.745208 112.4291,29.293634 Z"
     id="path4588" />
  <g
     id="g2014">
    <path
       d="m 51.04276,62.499799 a 1.8900771,2.0628291 43.747616 0 1 3.680589,0.609985 v 7.898259 l 1.484872,-0.129909 v -7.898259 a 1.8900771,2.0628291 43.747616 0 1 3.680589,-1.254005 4.4605819,4.8682766 43.747616 1 0 -8.84605,0.773929"
       id="path12"
       style="fill:#f8c300;stroke-width:0.157965" />
    <path
       d="m 52.101127,60.345759 a 3.0241233,3.3005265 43.747616 0 1 3.364658,1.214198 3.0241233,3.3005265 43.747616 0 1 3.364658,-1.802937 3.2509326,3.548066 43.747616 0 0 -6.729316,0.588739"
       id="path14"
       style="fill:#f9f9f9;stroke-width:0.157965;fill-opacity:1" />
    <path
       id="w"
       d="m 54.723349,67.853005 a 5.7458343,6.2710004 43.747616 0 1 -10.085287,4.723429 5.9726436,6.5185399 43.747616 0 1 -9.435892,3.584711 c 0.576509,5.703602 9.201787,3.774201 9.84439,-1.876799 2.709734,4.520051 8.668023,2.636318 10.411485,-3.34355 z"
       style="fill:#f8c300;stroke-width:0.157965" />
    <use
       xlink:href="#w"
       transform="matrix(-0.99999999,0.1749773,0,0.99999999,110.93158,-9.7052536)"
       id="use17"
       x="0"
       y="0"
       width="100%"
       height="100%"
       style="fill:#f8c300" />
    <path
       id="r"
       d="m 48.963938,78.574549 c -1.203394,2.703179 -3.608714,3.359869 -5.712653,1.446841 0,0 0.84573,-0.67159 1.751202,-0.91555 -0.169781,-0.707742 0.178359,-1.737741 0.669046,-2.321227 0.514572,0.306674 1.232697,0.948719 1.415337,1.751853 1.268318,-0.275153 1.8771,0.03821 1.8771,0.03821 z"
       style="fill:#f8c300;stroke-width:0.157965" />
    <use
       xlink:href="#r"
       transform="matrix(0.97241357,0.16405556,-0.16280937,1.0009015,23.557901,-9.2214449)"
       id="use20"
       x="0"
       y="0"
       width="100%"
       height="100%"
       style="fill:#f8c300" />
    <use
       xlink:href="#r"
       transform="matrix(0.91887837,0.32373331,-0.3212742,0.97509406,47.967265,-14.586396)"
       id="use22"
       x="0"
       y="0"
       width="100%"
       height="100%"
       style="fill:#f8c300" />
    <path
       d="M 40.143163,85.14201 A 51.410096,56.108951 43.747616 0 1 70.788407,82.460899"
       id="path24"
       style="fill:none;stroke:#f8c300;stroke-width:2.52744" />
    <g
       transform="matrix(0.15796518,-0.01382016,0,0.15796518,55.465785,68.320866)"
       id="g26"
       style="fill:#f8c300">
      <g
         transform="translate(0,-140)"
         id="g28">
        <polygon
           id="s"
           points="0,-513674 301930,415571 -488533,-158734 488533,-158734 -301930,415571 "
           transform="matrix(4.8669e-5,0,0,4.8669e-5,0,0)" />
      </g>
      <g
         id="h">
        <use
           xlink:href="#s"
           transform="translate(-70,-121.24356)"
           id="use32"
           x="0"
           y="0"
           width="100%"
           height="100%" />
        <use
           xlink:href="#s"
           transform="translate(-121.24356,-70)"
           id="use34"
           x="0"
           y="0"
           width="100%"
           height="100%" />
        <use
           xlink:href="#s"
           transform="translate(-140)"
           id="use36"
           x="0"
           y="0"
           width="100%"
           height="100%" />
      </g>
      <use
         xlink:href="#h"
         transform="scale(-1,1)"
         id="use38"
         x="0"
         y="0"
         width="100%"
         height="100%" />
    </g>
  </g>
  <path
     style="opacity:1;fill:#cc0000;fill-opacity:1;fill-rule:evenodd;stroke:none;stroke-width:0.530046px;stroke-linecap:butt;stroke-linejoin:miter;stroke-opacity:1"
     d="M 8.086,44.032147 116.6473,34.534264 108.31852,7.076271 87.35298,3.4537337 72.70582,12.776771 62.07945,22.322434 55.76107,31.778396 48.00669,20.681649 24.74355,19.557718 Z"
     id="path4559" />
  <path
     style="opacity:1;fill:#006600;fill-opacity:1;fill-rule:evenodd;stroke:none;stroke-width:0.530046px;stroke-linecap:butt;stroke-linejoin:miter;stroke-opacity:1"
     d="M 18.138,90.542573 93.95858,83.909132 69.25949,107.85403 56.33552,125.35508 Z"
     id="path4561" />
  <path
     d="M 12.72376,58.554755 C 13.04179,30.0425 27.87991,21.118638 35.96047,21.118638 c 11.28468,0 15.94538,8.614845 16.70706,12.429058 0.76115,3.811034 5.03226,6.859331 6.40455,0.607964 1.37335,-6.251368 14.64889,-25.3139561 30.96531,-25.3139561 14.94307,0 20.11844,15.4100391 19.67055,28.5170261 C 108.48513,73.040393 62.51897,101.5182 56.46849,119.50002 51.0811,108.60916 12.34372,92.866248 12.72376,58.554755 Z M 95.37549,0 C 81.9563,0 66.08618,9.9108075 56.48015,26.380939 53.88823,20.432758 44.65323,13.950821 33.67544,13.950821 24.82949,13.950821 0,25.006529 0,60.689252 c 0,46.050428 46.59161,55.509108 56.01053,69.822478 0.64719,0.9843 2.73186,1.72795 3.52746,-0.62386 C 67.05352,107.70808 125.33,82.647484 125.33,37.511913 125.32947,12.199018 108.79414,0 95.37549,0 Z"
     id="path10"
     style="stroke-width:0.530046" />
</svg>
