<?xml version="1.0" encoding="UTF-8" standalone="no"?>
<!-- Created with Inkscape (http://www.inkscape.org/) -->

<svg
   width="125.33"
   height="131.45125"
   viewBox="0 0 33.160229 34.779808"
   version="1.1"
   id="svg1216"
   xmlns:xlink="http://www.w3.org/1999/xlink"
   xmlns="http://www.w3.org/2000/svg"
   xmlns:svg="http://www.w3.org/2000/svg">
  <defs
     id="defs1213">
    <g
       id="petal">
      <line
         x1="0"
         y1="0"
         x2="25"
         y2="0"
         stroke="#ffd700"
         stroke-width="2"
         id="line7" />
      <circle
         cx="25"
         cy="0"
         r="5"
         fill="#ffd700"
         id="circle9" />
    </g>
    <pattern
       y="0"
       x="0"
       height="6"
       width="6"
       patternUnits="userSpaceOnUse"
       id="EMFhbasepattern" />
    <radialGradient
       id="rg1"
       xlink:href="#lg"
       gradientUnits="userSpaceOnUse"
       cx="842.31"
       cy="103.66"
       r="25.858999"
       gradientTransform="matrix(0.185743,0.047185,-0.04532,0.186354,233.79812,198.76959)" />
    <linearGradient
       id="lg">
      <stop
         stop-color="#fff"
         offset="0"
         id="stop7" />
      <stop
         stop-color="#f15770"
         offset="1"
         id="stop9" />
    </linearGradient>
    <radialGradient
       id="rg2"
       xlink:href="#lg"
       gradientUnits="userSpaceOnUse"
       cx="651.52002"
       cy="550.46002"
       r="25.858999"
       gradientTransform="matrix(-0.176418,-0.070669,0.065152,-0.163915,430.54435,377.87561)" />
    <radialGradient
       id="rg3"
       xlink:href="#lg"
       gradientUnits="userSpaceOnUse"
       cx="380.84"
       cy="740.37"
       r="25.858999"
       gradientTransform="matrix(0.098907,0.003695,-0.004498,0.194304,442.36222,123.30418)" />
  </defs>
  <path
     d="M 20.054526,2.6645874 29.310461,1.8231387 V 16.54849 l -9.255935,10.377866 z"
     id="path4"
     style="fill:#00267f;fill-opacity:1;stroke-width:0.140241" />
  <path
     d="M 9.8169008,4.768209 15.005834,7.9937621 20.194767,2.5243459 V 27.487322 l -5.188933,5.469416 -5.1889332,-3.506036 z"
     id="path6"
     style="fill:#ffc726;fill-opacity:1;stroke-width:0.140241" />
  <path
     d="M 3.9267603,7.4327963 9.9571422,4.768209 V 29.17022 L 1.5426558,20.335009 Z"
     id="path8"
     style="fill:#00267f;fill-opacity:1;stroke-width:0.140241" />
  <g
     id="g4160"
     transform="matrix(0.14024144,-0.01226954,0,0.14024144,-0.14024144,1.7476294)"
     style="fill:#0b0e0e;fill-opacity:1">
    <path
       d="m 108.1463,81.49795 c -2.38092,6.492604 -4.80764,13.250772 -9.999889,18.424709 1.611704,-0.53113 4.432189,-1.007315 6.245349,-0.961528 v 27.307399 l -7.710534,1.14467 c -0.274723,-0.0275 -0.366297,-0.45787 -0.366297,-1.04394 -0.74175,-8.47976 -2.747223,-15.60423 -5.05489,-22.97594 -0.164833,-1.00732 -3.086047,-4.85343 -0.833324,-4.175782 0.274722,0.03663 3.28751,1.263722 2.811325,0.677649 -4.10252,-4.249039 -10.100624,-7.307614 -15.924736,-8.214197 -0.512815,-0.128204 -0.81501,0.128203 -0.357139,0.723435 7.728854,11.895475 14.193985,25.933785 14.139041,42.591115 3.00363,0 10.283774,-1.77654 13.296554,-1.77654 0,0 0,19.26719 0,19.26719 h 3.80033 l 0.86995,-53.808939 z"
       id="h"
       style="fill:#0b0e0e;fill-opacity:1" />
    <use
       id="use11"
       transform="matrix(-1,0,0,1,216.29261,0)"
       xlink:href="#h"
       x="0"
       y="0"
       width="100%"
       height="100%"
       style="fill:#0b0e0e;fill-opacity:1" />
  </g>
  <path
     d="m 3.3664958,15.492612 c 0.084145,-7.5438674 4.0100637,-9.9049723 6.1480445,-9.9049723 2.9857407,0 4.2188827,2.2793441 4.4204097,3.2885215 0.201387,1.008336 1.331453,1.8148648 1.694538,0.160857 0.363365,-1.6540076 3.875852,-6.6976507 8.192905,-6.6976507 3.953686,0 5.323004,4.0772393 5.2045,7.5451297 C 28.703356,19.32527 16.541478,26.860022 14.940622,31.617713 13.515208,28.736172 3.2659427,24.570861 3.3664958,15.492612 Z M 25.234764,0 C 21.684272,0 17.485303,2.6222344 14.943707,6.9799567 14.257926,5.4061673 11.8145,3.6911547 8.9099594,3.6911547 6.56947,3.6911547 0,6.6163107 0,16.057364 0,28.241541 12.327363,30.744149 14.819453,34.531229 14.990688,34.791657 15.542258,34.988416 15.75276,34.366165 17.741243,28.497762 33.160229,21.867147 33.160229,9.925027 33.160088,3.2276567 28.785117,0 25.234764,0 Z"
     id="path10"
     style="stroke-width:0.140241" />
</svg>
