<?xml version="1.0" encoding="UTF-8" standalone="no"?>
<!-- Created with Inkscape (http://www.inkscape.org/) -->

<svg
   width="125.33"
   height="131.45284"
   viewBox="0 0 33.160228 34.780229"
   version="1.1"
   id="svg1063"
   xmlns="http://www.w3.org/2000/svg"
   xmlns:svg="http://www.w3.org/2000/svg">
  <defs
     id="defs1060" />
  <g
     id="layer1">
    <path
       style="fill:#e8112d;fill-opacity:1;stroke-width:0.140241"
       d="M 1.2618925,16.828973 29.31018,14.865593 15.145795,33.377463 5.4691357,25.103218"
       id="path4" />
    <path
       style="fill:#fcd116;fill-opacity:1;stroke-width:0.140241"
       d="M 3.9264798,7.4327963 9.9568618,4.4877261 15.005555,7.9937621 20.755453,2.3841045 28.889456,1.6828968 31.554044,15.987524 1.6826168,18.652112"
       id="path6" />
    <path
       d="M 4.2101153,6.6539903 11.079073,4.7686302 V 29.241479 L 1.2593,19.272847 Z"
       id="path8-7"
       style="fill:#008751;fill-opacity:1;stroke-width:0.140241" />
    <path
       d="m 3.3655141,15.492472 c 0.084145,-7.5438677 4.0100637,-9.9049726 6.1480445,-9.9049726 2.9857404,0 4.2188844,2.2793442 4.4204114,3.2885216 0.201385,1.0083359 1.331452,1.814864 1.694537,0.1608569 0.363226,-1.6534466 3.876272,-6.6979312 8.192904,-6.6976507 3.953406,0 5.323005,4.0772394 5.204361,7.5451297 C 28.702235,19.325411 16.544284,26.853571 14.939501,31.617573 13.514087,28.735611 3.2644,24.570721 3.3653738,15.492472 Z M 25.234764,-1.0646182e-8 C 21.684272,-1.0646182e-8 17.485303,2.6222344 14.943709,6.9798165 14.257928,5.406027 11.8145,3.6910144 8.9099594,3.6911547 6.5693298,3.6911547 0,6.6163106 0,16.057645 0,28.241821 12.327223,30.74443 14.819453,34.53165 c 0.171095,0.260428 0.722805,0.457187 0.933307,-0.165064 1.988624,-5.868403 17.407469,-12.499019 17.407469,-24.4411383 0,-6.6979312 -4.375532,-9.92488673647 -7.925465,-9.92502697791 z"
       id="path8"
       style="stroke-width:0.140241" />
  </g>
</svg>
