<?xml version="1.0" encoding="UTF-8" standalone="no"?>
<svg
   width="125.33"
   height="131.45125"
   id="svg2"
   version="1.1"
   xmlns:xlink="http://www.w3.org/1999/xlink"
   xmlns="http://www.w3.org/2000/svg"
   xmlns:svg="http://www.w3.org/2000/svg"
   xmlns:rdf="http://www.w3.org/1999/02/22-rdf-syntax-ns#"
   xmlns:cc="http://creativecommons.org/ns#"
   xmlns:dc="http://purl.org/dc/elements/1.1/">
  <metadata
     id="metadata16">
    <rdf:RDF>
      <cc:Work
         rdf:about="">
        <dc:format>image/svg+xml</dc:format>
        <dc:type
           rdf:resource="http://purl.org/dc/dcmitype/StillImage" />
      </cc:Work>
    </rdf:RDF>
  </metadata>
  <defs
     id="defs14" />
  <path
     style="fill:#cc0001;fill-opacity:1;fill-rule:evenodd;stroke:none;stroke-width:0.530046px;stroke-linecap:butt;stroke-linejoin:miter;stroke-opacity:1"
     d="M 9.39206,43.758721 6.68,73.777868 34.00962,105.36444 56.90395,123.05549 77.5827,101.05993 108.35465,68.334323 120.17108,27.173898 98.26145,1.5190773 76.59799,8.5840717 66.25862,18.35097 57.15013,29.733409 47.54556,21.960861 34.00962,15.510353 17.51586,24.584813 Z"
     id="path4215" />
  <rect
     width="36.159431"
     height="6.6809282"
     y="108.187"
     id="white"
     style="fill:#f9f9f9;stroke-width:0.530046;fill-opacity:1"
     x="37.201862"
     transform="matrix(0.9961947,-0.08715574,0,1,0,0)" />
  <use
     transform="matrix(1.8573594,-0.07500923,0,1,-50.292682,-8.9618172)"
     id="use3035"
     xlink:href="#white"
     x="0"
     y="0"
     width="100%"
     height="100%"
     style="fill:#f9f9f9;fill-opacity:1" />
  <use
     transform="matrix(2.4643132,-0.1281108,0,1,-83.557547,-19.413376)"
     id="use3038"
     xlink:href="#white"
     x="0"
     y="0"
     width="100%"
     height="100%"
     style="fill:#f9f9f9;fill-opacity:1" />
  <use
     transform="matrix(2.8440252,-0.16133129,0,1,-99.750306,-31.35855)"
     id="use3062"
     xlink:href="#white"
     x="0"
     y="0"
     width="100%"
     height="100%"
     style="fill:#f9f9f9;fill-opacity:1" />
  <use
     transform="matrix(3.1777995,-0.19053277,0,1,-115.44591,-43.347222)"
     id="use3064"
     xlink:href="#white"
     x="0"
     y="0"
     width="100%"
     height="100%"
     style="fill:#f9f9f9;fill-opacity:1" />
  <use
     transform="matrix(3.1233037,-0.185765,0,1,-109.97626,-57.187612)"
     id="use3066"
     xlink:href="#white"
     x="0"
     y="0"
     width="100%"
     height="100%"
     style="fill:#f9f9f9;fill-opacity:1" />
  <use
     transform="matrix(1.593729,-0.05194456,0,1,0.40453537,-80.20653)"
     id="use3068"
     xlink:href="#white"
     x="0"
     y="0"
     width="100%"
     height="100%"
     style="fill:#f9f9f9;fill-opacity:1" />
  <path
     id="path4178"
     d="m 7.22579,76.270194 48.9591,-4.283342 V 29.629735 L 49.39854,22.564241 36.9873,18.184232 24.83676,20.735261 12.92998,28.740689 6.482,50.136741 Z"
     style="fill:#010066;fill-opacity:1;fill-rule:evenodd;stroke:none;stroke-width:4.20524px;stroke-linecap:butt;stroke-linejoin:miter;stroke-opacity:1" />
  <g
     id="g4146"
     transform="matrix(0.34070707,-0.02980801,0,0.34070707,7.5639519,22.766754)">
    <path
       style="fill:#ffcc00"
       id="path4945"
       d="m 63.333229,49.990166 c -19.148082,0 -34.689714,15.489997 -34.689714,34.574466 0,19.084458 15.541632,34.574468 34.689714,34.574468 6.918034,0 13.363568,-2.02426 18.777039,-5.50693 -3.152397,1.08788 -6.535661,1.6829 -10.057821,1.68289 -16.979162,1e-5 -30.759352,-13.7344 -30.759352,-30.65716 0,-16.922755 13.780188,-30.657161 30.759352,-30.65716 3.752257,0 7.346597,0.670134 10.672194,1.897823 -5.536619,-3.729055 -12.21088,-5.908397 -19.391412,-5.908397 z" />
    <path
       style="fill:#ffcc00"
       id="path4959"
       d="M 120.86137,102.56341 106.24903,94.939419 110.56944,110.54268 100.79598,97.490434 97.746875,113.37668 94.748038,97.481335 84.93333,110.50411 89.303079,94.913926 74.666691,102.49392 85.539543,90.296712 68.980389,90.932589 84.202845,84.54419 69.000671,78.110019 85.557733,78.795716 74.723515,66.565863 l 14.612341,7.623986 -4.320412,-15.603264 9.773466,13.052247 3.049104,-15.886256 2.998836,15.895355 9.81471,-13.022781 -4.36975,15.59019 14.63639,-7.579983 -10.87285,12.197197 16.55915,-0.635877 -15.22246,6.388401 15.20218,6.43417 -16.55706,-0.685697 z" />
  </g>
  <path
     id="path4176"
     d="M 40.457906,107.92402 57.56985,123.78685 72.449794,105.12509 Z"
     style="fill:#f9f9f9;fill-opacity:1;fill-rule:evenodd;stroke:none;stroke-width:4.20524px;stroke-linecap:butt;stroke-linejoin:miter;stroke-opacity:1" />
  <rect
     style="opacity:1;fill:#cc0001;fill-opacity:1;stroke:none;stroke-width:1.06009;stroke-linecap:butt;stroke-miterlimit:4;stroke-dasharray:none;stroke-opacity:1"
     id="rect4208"
     width="99.302856"
     height="6.6807046"
     x="7.1431818"
     y="74.782417"
     transform="matrix(0.9961947,-0.08715574,0,1,0,0)" />
  <path
     d="M 12.72376,58.554755 C 13.04179,30.0425 27.87991,21.118638 35.96047,21.118639 c 11.28468,-1e-6 15.94538,8.614844 16.70706,12.429057 0.76115,3.811034 5.03226,6.859331 6.40455,0.607964 1.37335,-6.251368 14.64889,-25.3139561 30.96531,-25.3139561 14.94307,0 20.11844,15.4100391 19.67055,28.5170261 C 108.48513,73.040393 62.51897,101.5182 56.46849,119.50002 51.0811,108.60916 12.34372,92.866248 12.72376,58.554755 Z M 95.37549,0 C 81.9563,-3.1802783e-7 66.08618,9.9108075 56.48015,26.380939 53.88823,20.432758 44.65323,13.950822 33.67544,13.950821 24.82949,13.950821 0,25.006529 0,60.689252 c 0,46.050428 46.59161,55.509108 56.01053,69.822478 0.64719,0.98431 2.73186,1.72795 3.52746,-0.62386 C 67.05352,107.70808 125.33,82.647484 125.33,37.511913 125.32947,12.199018 108.79414,-5.300461e-8 95.37549,0 Z"
     id="path10"
     style="opacity:1;stroke-width:0.530046" />
</svg>
