<?xml version="1.0" encoding="UTF-8" standalone="no"?>
<svg
   width="125.33"
   height="131.45125"
   version="1.1"
   id="svg986"
   xmlns="http://www.w3.org/2000/svg"
   xmlns:svg="http://www.w3.org/2000/svg">
  <defs
     id="defs990" />
  <path
     d="M 2.3931595,71.255727 C 20.67711,89.554519 38.96106,107.85278 57.245011,126.15104 77.91682,103.35905 98.588629,80.567052 119.26044,57.775057 116.61021,41.69716 113.95997,25.618732 111.30974,9.5408351 100.53231,8.6572478 89.754346,7.7741905 78.976913,6.8906031 71.202722,14.841299 63.429062,22.791995 55.654871,30.742691 50.707948,26.325814 45.760495,21.908408 40.813572,17.491531 31.711616,20.771988 22.610189,24.052445 13.508232,27.332902 9.8032081,41.973844 6.0981838,56.614785 2.3931595,71.255727 Z"
     fill="#ee1133"
     id="path980"
     style="stroke-width:0.530046;fill:#ff0000;fill-opacity:1" />
  <path
     d="M 12.723764,58.554755 C 13.041792,30.0425 27.87991,21.118638 35.960468,21.118638 c 11.284687,0 15.945385,8.614845 16.707062,12.429058 0.761147,3.811034 5.03226,6.859331 6.404551,0.607964 1.37335,-6.251368 14.648892,-25.3139561 30.96531,-25.3139561 14.943069,0 20.118439,15.4100391 19.670549,28.5170261 C 108.48513,73.040393 62.518972,101.5182 56.468493,119.50002 51.081101,108.60916 12.34372,92.866248 12.723764,58.554755 Z M 95.375488,0 C 81.956304,0 66.086184,9.9108075 56.480154,26.380939 53.888227,20.432758 44.653228,13.950821 33.675438,13.950821 24.829493,13.950821 0,25.006529 0,60.689252 c 0,46.050428 46.591608,55.509108 56.010533,69.822478 0.647186,0.9843 2.731859,1.72795 3.527458,-0.62386 C 67.053519,107.70808 125.33,82.647484 125.33,37.511913 125.32947,12.199018 108.79414,0 95.375488,0 Z"
     id="path982"
     style="stroke-width:0.530046" />
  <g
     id="g1299"
     transform="matrix(0.18919521,-0.01655244,0,0.18919521,-6.3278732,33.814448)">
    <circle
       cx="330.72916"
       cy="198.4375"
       r="82.020836"
       style="fill:#ff0000;fill-opacity:1;stroke:none;stroke-width:0.883193;stroke-dasharray:none;stroke-opacity:1;paint-order:markers fill stroke"
       id="circle962" />
    <circle
       cx="330.72916"
       cy="198.4375"
       r="75.40625"
       style="fill:#00ff00;stroke-width:1.5875;paint-order:markers fill stroke"
       id="circle966" />
    <circle
       cx="330.72916"
       cy="198.4375"
       r="75.40625"
       style="fill:#ffff00;fill-opacity:1;stroke:none;stroke-width:0.811968;stroke-dasharray:none;stroke-opacity:1;paint-order:markers fill stroke"
       id="circle968" />
    <circle
       cx="330.72916"
       cy="198.4375"
       r="63.5"
       style="fill:#ff0000;stroke:none;stroke-width:1.77177;stroke-dasharray:none;stroke-opacity:1;paint-order:markers fill stroke"
       id="circle970" />
    <circle
       cx="330.72916"
       cy="194.96011"
       r="56.318451"
       style="fill:#ffff00;fill-opacity:1;stroke:none;stroke-width:1.57139;stroke-dasharray:none;stroke-opacity:1;paint-order:markers fill stroke"
       id="circle972" />
    <g
       style="fill:#ff0000;stroke:#ff0000;stroke-opacity:1"
       id="g984"
       transform="translate(0,99.875007)">
      <g
         style="fill:#ff0000;stroke:#ff0000;stroke-opacity:1"
         id="g976">
        <path
           d="m 669.75863,5.6998011 -3.09283,-0.936389 c -19.23257,1.8569712 -35.67898,14.4636009 -41.95897,24.5163789 -7.08927,11.348254 -7.99735,22.703735 -7.59164,34.131754 l 1.49205,3.948084 2.54428,-2.762623 C 620.66299,53.342547 620.82979,42.110613 627.91906,30.762359 634.19905,20.709581 644.46809,10.94454 667.7482,6.1429208 Z"
           style="fill:#ff0000;stroke:#ff0000;stroke-width:0.529167;stroke-dasharray:none;stroke-opacity:1;paint-order:markers fill stroke"
           transform="matrix(1.4285714,0,0,1.4285714,-576.36345,54.414627)"
           id="path974" />
      </g>
      <path
         d="m 612.31214,60.193088 c -0.0966,-9.88266 2.30578,-20.135871 9.39505,-31.484125 6.27999,-10.052778 26.7484,-24.9175038 44.49576,-25.4150213 l -0.9584,-1.0475332 C 646.47559,1.3217334 625.23856,17.019082 618.95857,27.07186 611.8693,38.420114 608.16786,46.477733 608.24559,57.031144 l 1.73321,5.325349 z"
         style="fill:#ff0000;stroke:#ff0000;stroke-width:0.529167;stroke-dasharray:none;stroke-opacity:1;paint-order:markers fill stroke"
         transform="matrix(1.4285714,0,0,1.4285714,-576.36345,54.414627)"
         id="path978" />
      <path
         d="m 604.33134,54.836111 c 0.0127,-8.242769 7.77208,-23.962283 12.89348,-30.390864 7.3857,-9.270817 24.12458,-22.4030047 46.68228,-23.6658046 l -1.50503,-1.2661853 c -20.05388,0.2387704 -42.19688,15.0767519 -48.36317,24.0601689 -6.14766,8.956255 -12.86791,20.389808 -13.00883,29.194002 l 1.73321,5.325349 z"
         style="fill:#ff0000;stroke:#ff0000;stroke-width:0.529167;stroke-dasharray:none;stroke-opacity:1;paint-order:markers fill stroke"
         transform="matrix(1.4285714,0,0,1.4285714,-576.36345,54.414627)"
         id="path980-6" />
      <path
         d="m 598.09976,46.199353 c 1.87123,-8.133443 9.08399,-19.04261 14.20539,-25.471191 7.3857,-9.270817 25.98312,-21.7470494 48.54082,-23.0098493 l -1.28638,-1.2661852 C 639.50571,-3.3091021 615.1063,11.49295 608.68192,20.293645 c -5.81968,7.97232 -11.66532,16.344744 -12.57153,21.541178 l 0.85861,7.730522 z"
         style="fill:#ff0000;stroke:#ff0000;stroke-width:0.529167;stroke-dasharray:none;stroke-opacity:1;paint-order:markers fill stroke"
         transform="matrix(1.4285714,0,0,1.4285714,-576.36345,54.414627)"
         id="path982-8" />
    </g>
    <g
       style="fill:#ff0000;stroke:#ff0000;stroke-opacity:1"
       id="g988"
       transform="translate(0,99.875007)">
      <path
         d="m 669.75863,5.6998011 -3.09283,-0.936389 c -19.23257,1.8569712 -35.67898,14.4636009 -41.95897,24.5163789 -7.08927,11.348254 -7.99735,22.703735 -7.59164,34.131754 l 1.49205,3.948084 2.54428,-2.762623 C 620.66299,53.342547 620.82979,42.110613 627.91906,30.762359 634.19905,20.709581 644.46809,10.94454 667.7482,6.1429208 Z"
         style="fill:#ff0000;stroke:#ff0000;stroke-width:0.529167;stroke-dasharray:none;stroke-opacity:1;paint-order:markers fill stroke"
         transform="matrix(-1.4285714,0,0,1.4285714,1238.2744,54.414627)"
         id="path986" />
    </g>
    <path
       d="m 363.54276,240.27976 c 0.13806,-14.11808 -3.29397,-28.76553 -13.4215,-44.97732 -8.97141,-14.36111 -38.212,-35.59644 -63.56537,-36.30717 l 1.36914,-1.49648 c 26.8128,-1.32096 57.15142,21.10382 66.12283,35.46493 10.12753,16.21179 15.4153,27.72268 15.30426,42.79898 l -2.47602,7.60764 z"
       style="fill:#ff0000;stroke:#ff0000;stroke-width:0.755953;stroke-dasharray:none;stroke-opacity:1;paint-order:markers fill stroke"
       id="path990" />
    <path
       d="m 374.9439,232.62694 c -0.0181,-11.77539 -11.10297,-34.23184 -18.41925,-43.41553 -10.551,-13.24402 -34.46369,-32.00429 -66.68897,-33.80829 l 2.15004,-1.80883 c 28.6484,0.3411 60.28125,21.53821 69.09024,34.37167 8.78237,12.79465 18.38273,29.1283 18.58404,41.70572 l -2.47601,7.60764 z"
       style="fill:#ff0000;stroke:#ff0000;stroke-width:0.755953;stroke-dasharray:none;stroke-opacity:1;paint-order:markers fill stroke"
       id="path992" />
    <path
       d="m 383.84616,220.28871 c -2.67319,-11.6192 -12.97713,-27.20373 -20.29341,-36.38742 -10.551,-13.24402 -37.11875,-31.06721 -69.34403,-32.87121 l 1.83768,-1.80883 c 28.6484,0.34109 63.5047,21.48688 72.68239,34.0593 8.31383,11.38903 16.66474,23.34964 17.95933,30.77312 l -1.22659,11.0436 z"
       style="fill:#ff0000;stroke:#ff0000;stroke-width:0.755953;stroke-dasharray:none;stroke-opacity:1;paint-order:markers fill stroke"
       id="path994" />
    <path
       d="m 330.72916,324.11457 -4.41351,-44.13504 c 0,0 0.86711,-3.54868 4.41353,-3.48995 3.61514,0.0599 4.41349,3.81688 4.41349,3.81688 M 456.40624,198.4375 412.2712,194.02399 c 0,0 -3.54869,0.86711 -3.48996,4.41353 0.0599,3.61514 3.81689,4.41349 3.81689,4.41349 m 42.26082,15.24672 -42.90124,-11.26341 c 0,0 -3.64065,0.30129 -4.13742,3.81324 -0.50638,3.58 3.07947,4.95624 3.07947,4.95624 m 39.35541,21.67006 -40.61107,-17.83598 c 0,0 -3.64296,-0.27193 -4.68301,3.11906 -1.06018,3.45671 2.26624,5.37696 2.26624,5.37696 m 35.48093,27.5598 -37.32092,-23.96935 c 0,0 -3.55556,-0.83847 -5.11328,2.34807 -1.58787,3.2483 1.3972,5.66528 1.3972,5.66528 m 30.73279,32.77094 -33.1118,-29.51253 c 0,0 -3.38062,-1.38436 -5.41764,1.51927 -2.07648,2.95991 0.49374,5.8141 0.49374,5.8141 m 25.22793,37.17514 -28.08737,-34.32901 c 0,0 -3.12244,-1.89616 -5.58861,0.65306 -2.51394,2.59864 -0.42186,5.81976 -0.42186,5.81976 m 19.10185,40.66397 -22.37132,-38.3002 c 0,0 -2.78737,-2.36127 -5.62196,-0.22923 -2.88951,2.17338 -1.32708,5.68211 -1.32708,5.68211 m 12.50543,43.15152 -16.10442,-41.3283 c 0,0 -2.38367,-2.76825 -5.5169,-1.10588 -3.19392,1.6946 -2.19961,5.40456 -2.19961,5.40456 m 5.60108,44.57653 -9.44098,-43.33877 c 0,0 -1.92127,-3.10705 -5.27597,-1.95529 -3.41969,1.1741 -3.01799,4.99392 -3.01799,4.99392 m -1.44118,44.90392 -2.54507,-44.28209 c 0,0 -1.41157,-3.36935 -4.90514,-2.75657 -3.56127,0.62469 -3.76206,4.46032 -3.76206,4.46032 m -134.12503,-81.55145 44.13504,-4.41351 c 0,0 3.54868,0.86711 3.48995,4.41353 -0.0599,3.61514 -3.81688,4.41349 -3.81688,4.41349 m -42.26082,-24.07374 44.28209,2.54507 c 0,0 3.36935,1.41157 2.75656,4.90514 -0.62469,3.56126 -4.46031,3.76206 -4.46031,3.76206 m -37.97456,-30.38839 43.33877,9.44098 c 0,0 3.10704,1.92127 1.95528,5.27597 -1.17409,3.41969 -4.99391,3.01799 -4.99391,3.01799 m -32.75323,-35.95479 41.3283,16.10443 c 0,0 2.76824,2.38366 1.10587,5.51688 -1.6946,3.19393 -5.40455,2.19962 -5.40455,2.19962 m -26.72542,-40.63586 38.3002,22.37132 c 0,0 2.36127,2.78737 0.22922,5.62196 -2.17338,2.88951 -5.6821,1.32708 -5.6821,1.32708 m -20.03954,-44.31634 34.32901,28.08736 c 0,0 1.89616,3.12244 -0.65307,5.58861 -2.59864,2.51394 -5.81975,0.42186 -5.81975,0.42186 m -12.86021,-46.905606 29.51253,33.111796 c 0,0 1.38436,3.38062 -1.51928,5.41764 -2.95991,2.07647 -5.81409,-0.49374 -5.81409,-0.49374 m -5.36423,-48.3399 23.96936,37.32092 c 0,0 0.83847,3.55555 -2.34808,5.11327 -3.2483,1.58787 -5.66527,-1.39719 -5.66527,-1.39719 m 2.26384,-48.583907 17.83597,40.611067 c 0,0 0.27194,3.64295 -3.11906,4.683 -3.45671,1.06018 -5.37696,-2.26623 -5.37696,-2.26623 m 9.83617,-47.631618 11.26342,42.901238 c 0,0 -0.3013,3.64064 -3.81325,4.13741 -3.57999,0.50638 -4.95624,-3.07946 -4.95624,-3.07946 m 17.1663,-45.506481 4.41351,44.135041 c 0,0 -0.86711,3.54868 -4.41353,3.48995 -3.61514,-0.0599 -4.41349,-3.81688 -4.41349,-3.81688 m -15.24672,205.99875 11.26341,-42.90124 c 0,0 -0.30129,-3.64065 -3.81324,-4.13742 -3.58,-0.50638 -4.95624,3.07947 -4.95624,3.07947 m -21.67006,39.35541 17.83598,-40.61107 c 0,0 0.27193,-3.64296 -3.11906,-4.68301 -3.45671,-1.06018 -5.37696,2.26624 -5.37696,2.26624 m -27.5598,35.48093 23.96935,-37.32092 c 0,0 0.83847,-3.55556 -2.34807,-5.11328 -3.2483,-1.58787 -5.66528,1.3972 -5.66528,1.3972 m -32.77094,30.73279 29.51253,-33.1118 c 0,0 1.38436,-3.38062 -1.51927,-5.41764 -2.95991,-2.07648 -5.8141,0.49374 -5.8141,0.49374 m -37.17514,25.22793 34.32901,-28.08737 c 0,0 1.89616,-3.12244 -0.65306,-5.58861 -2.59864,-2.51394 -5.81976,-0.42186 -5.81976,-0.42186 m -40.66397,19.10185 38.3002,-22.37132 c 0,0 2.36127,-2.78737 0.22923,-5.62196 -2.17338,-2.88951 -5.68211,-1.32708 -5.68211,-1.32708 m -43.15152,12.50543 41.3283,-16.10442 c 0,0 2.76825,-2.38367 1.10588,-5.5169 -1.6946,-3.19392 -5.40456,-2.19961 -5.40456,-2.19961 m -44.57653,5.60108 43.33877,-9.44098 c 0,0 3.10705,-1.92127 1.95529,-5.27597 -1.1741,-3.41969 -4.99392,-3.01799 -4.99392,-3.01799 m -44.90392,-1.44118 44.28209,-2.54507 c 0,0 3.36935,-1.41157 2.75657,-4.90514 -0.62469,-3.56127 -4.46032,-3.76206 -4.46032,-3.76206 M 350.38938,74.307719 347.84432,118.58981 c 0,0 -1.41157,3.36935 -4.90514,2.75656 -3.56126,-0.62469 -3.76206,-4.46031 -3.76206,-4.46031 m 30.38839,-37.974561 -9.44098,43.338771 c 0,0 -1.92127,3.10704 -5.27597,1.95528 -3.41969,-1.17409 -3.018,-4.99391 -3.018,-4.99391 m 35.9548,-32.753231 -16.10443,41.328301 c 0,0 -2.38367,2.76824 -5.51689,1.10587 -3.19392,-1.6946 -2.19961,-5.40455 -2.19961,-5.40455 m 40.63586,-26.725421 -22.37132,38.300201 c 0,0 -2.78737,2.36127 -5.62196,0.22922 -2.88951,-2.17338 -1.32709,-5.6821 -1.32709,-5.6821 m 44.31635,-20.03954 -28.08736,34.32901 c 0,0 -3.12244,1.89616 -5.58861,-0.65307 -2.51394,-2.59864 -0.42187,-5.81975 -0.42187,-5.81975 m 46.90562,-12.86021 -33.11181,29.51253 c 0,0 -3.38061,1.38436 -5.41763,-1.51928 -2.07648,-2.95991 0.49373,-5.81409 0.49373,-5.81409 m 48.33991,-5.36423 -37.32092,23.96936 c 0,0 -3.55555,0.83847 -5.11327,-2.34808 -1.58787,-3.2483 1.39719,-5.66527 1.39719,-5.66527 m 48.58391,2.26384 -40.61107,17.83597 c 0,0 -3.64295,0.27194 -4.683,-3.11906 -1.06018,-3.45671 2.26623,-5.37696 2.26623,-5.37696 m 47.63162,9.83617 -42.90124,11.26342 c 0,0 -3.64064,-0.3013 -4.13741,-3.81325 -0.50638,-3.57999 3.07946,-4.95624 3.07946,-4.95624"
       style="fill:#ffff00;stroke-width:1.46101;paint-order:markers fill stroke"
       id="path996" />
  </g>
</svg>
