<?xml version="1.0" encoding="UTF-8" standalone="no"?>
<!-- Creator: CorelDRAW -->

<svg
   xml:space="preserve"
   width="125.33"
   height="131.45149"
   style="clip-rule:evenodd;fill-rule:evenodd;image-rendering:optimizeQuality;shape-rendering:geometricPrecision;text-rendering:geometricPrecision"
   viewBox="0 0 115.09981 78.150015"
   version="1.0"
   id="svg2"
   xmlns="http://www.w3.org/2000/svg"
   xmlns:svg="http://www.w3.org/2000/svg"
   xmlns:rdf="http://www.w3.org/1999/02/22-rdf-syntax-ns#"
   xmlns:cc="http://creativecommons.org/ns#"
   xmlns:dc="http://purl.org/dc/elements/1.1/"><metadata
     id="metadata162"><rdf:RDF><cc:Work
         rdf:about=""><dc:format>image/svg+xml</dc:format><dc:type
           rdf:resource="http://purl.org/dc/dcmitype/StillImage" /></cc:Work></rdf:RDF></metadata><defs
     id="defs4"><style
       type="text/css"
       id="style6"><![CDATA[
    .fil3 {fill:none}
    .fil22 {fill:#007CC3}
    .fil1 {fill:#0A0B0C}
    .fil13 {fill:#DEA817}
    .fil10 {fill:#EA952F}
    .fil5 {fill:#FFF500}
    .fil9 {fill:white}
    .fil0 {fill:#00D1FF}
    .fil6 {fill:black}
    .fil7 {fill:white}
    .fil14 {fill:#004F81}
    .fil21 {fill:#008ECA}
    .fil4 {fill:#00A13A}
    .fil15 {fill:#2C6693}
    .fil20 {fill:#52A2D2}
    .fil16 {fill:#5981A8}
    .fil17 {fill:#84A5C3}
    .fil19 {fill:#86BBDB}
    .fil18 {fill:#C3DCE3}
    .fil8 {fill:#DA251D}
    .fil2 {fill:#EB8A1B}
    .fil11 {fill:#F2B004}
    .fil12 {fill:#F9D000}
   ]]></style></defs><g
     id="Layer_x0020_1"
     transform="translate(0,19.196438)"><metadata
       id="CorelCorpID_0Corel-Layer" /><g
       id="g5492"><path
         style="clip-rule:evenodd;fill:#ff0000;fill-opacity:1;fill-rule:evenodd;stroke:none;stroke-width:0.149591px;stroke-linecap:butt;stroke-linejoin:miter;stroke-opacity:1;image-rendering:optimizeQuality;shape-rendering:geometricPrecision;text-rendering:geometricPrecision"
         d="M 11.841864,-11.857039 4.5720328,14.014943 11.841864,39.886924 52.253388,73.883986 64.227165,58.489076 96.085941,27.271664 110.62555,-9.0773927 92.664916,-36.446103 l -19.671261,2.13817 -11.332285,9.194173 -9.407982,12.829087 -8.338906,-8.552713 -16.891583,-3.848723 z"
         id="path5065" /><path
         style="fill:#f9f9f9;fill-opacity:1;fill-rule:evenodd;stroke:none;stroke-width:0.486781px;stroke-linecap:butt;stroke-linejoin:miter;stroke-opacity:1"
         d="M 28.214716,-24.113741 V 55.489263 L 51.78623,73.23663 76.352967,49.297176 v -83.026795 l -13.867407,8.104454 -10.913314,14.3371 -6.633586,-9.415409 z"
         id="path4294" /><path
         style="fill:#ff0000;stroke-width:0.530046"
         d="M 51.498356,-3.0481264 48.20029,3.3917424 C 47.826049,4.0930303 47.155524,4.0896842 46.485,3.7749442 l -2.387718,-1.0275092 1.779629,9.29261 c 0.374215,1.693411 -0.826493,1.798459 -1.419059,1.103943 l -4.16703,-4.3003599 -0.676501,2.4281469 c -0.07801,0.317921 -0.421021,0.674679 -0.935629,0.641889 l -5.269259,-0.646872 1.383994,4.910628 c 0.296283,1.093692 0.527381,1.537031 -0.299086,1.904629 l -1.878134,1.04703 9.070668,6.574286 c 0.359036,0.247172 0.540417,0.732639 0.412612,1.197747 L 41.3056,29.575823 c 3.123189,-0.633253 5.921589,-1.41971 9.046339,-2.02666 0.275867,-0.05359 0.737666,0.361252 0.735762,0.681092 l -0.413802,9.580827 1.518487,-0.132851 -0.239028,-9.503243 c -0.0027,-0.319442 0.417046,-0.831866 0.692912,-0.826553 3.124753,0.06019 5.923154,0.35699 9.04633,0.443757 l -0.793877,-2.535801 c -0.127815,-0.442743 0.05358,-0.959948 0.412604,-1.269943 L 70.382011,15.825 68.503876,15.1066 C 67.677391,14.883617 67.908491,14.399841 68.204771,13.254306 L 69.58878,8.1015102 64.319521,9.6703828 C 63.80492,9.7932173 63.461906,9.4964772 63.383893,9.1922078 l -0.676508,-2.309774 -4.167024,5.0294942 c -0.592565,0.798202 -1.7933,0.903253 -1.419061,-0.855639 l 1.779604,-9.6040032 -2.387715,1.4453061 c -0.670525,0.4320662 -1.341023,0.5527365 -1.715268,-0.083067"
         id="path8" /><path
         d="m 11.685182,13.293021 c 0.292063,-26.184968 13.919006,-34.380419 21.339982,-34.380419 10.363561,0 14.643824,7.911667 15.343322,11.4145464 0.699016,3.4999646 4.621503,6.2994469 5.88177,0.5583408 1.261256,-5.7411062 13.453171,-23.2477252 28.437751,-23.2477252 13.723303,0 18.476243,14.152195 18.064903,26.189349 C 99.629922,26.596278 57.415794,52.749591 51.859199,69.263668 46.911553,59.261762 11.336149,44.803862 11.685182,13.293021 Z m 75.905192,-53.775265 c -12.323827,0 -26.898538,9.101843 -35.720464,24.227611 C 49.489546,-21.717302 41.008361,-27.670146 30.926652,-27.670146 22.802762,-27.670146 0,-17.516854 0,15.253276 c 0,42.291602 42.788524,50.97823 51.438621,64.123284 0.594353,0.903946 2.508862,1.586901 3.239531,-0.572948 C 61.580214,58.434227 115.09981,35.419179 115.09981,-6.0322106 115.09932,-29.278969 99.913703,-40.482244 87.590374,-40.482244 Z"
         id="path29"
         style="clip-rule:evenodd;opacity:1;fill-rule:evenodd;stroke-width:0.530046;image-rendering:optimizeQuality;shape-rendering:geometricPrecision;text-rendering:geometricPrecision" /></g></g></svg>
