<?xml version="1.0" encoding="utf-8"?>
<svg id="LOGO_LAYER" viewBox="0 0 125.33 131.4429" version="1.1" width="125.33" height="131.4429" xmlns="http://www.w3.org/2000/svg">
  <defs id="defs1">
    <style id="style1">.cls-1{fill:#f9f9f9;}.cls-2{fill:#000582;}.cls-3{fill:#db0e19;}</style>
  </defs>
  <g id="LOGO_GROUP" transform="translate(-232.76,-97.88)">
    <g id="SELECT_FLAG_HERE">
      <g id="BLACK_FLAG">
        <path class="cls-3" d="M 318.821 104.585 C 314.632 104.658 314.61 107.98 310.97 109.96 L 310.97 190.18 C 312.113 190.783 324.865 180.705 336.387 163.087 C 344.453 150.753 355.345 103.953 318.821 104.585 Z" id="path1" style="fill: rgb(206, 17, 38);"/>
        <path class="cls-1" d="m 291.83,132.03 c -1.37,6.25 -5.64,3.2 -6.4,-0.61 -0.57,-2.84 -3.3,-8.34 -9.32,-10.96 v 84.45 c 6.21,4.96 11.39,8.96 13.12,12.46 2.48,-7.37 11.68,-16.51 21.74,-27.19 v -80.22 c -10.53,5.72 -18.12,17.43 -19.14,22.07 z" id="path2" style="fill: rgb(255, 255, 255);"/>
        <path class="cls-2" d="M 275.84 117.952 C 269.091 115.624 244.508 119.866 243.03 148.572 C 241.168 184.748 274.113 207.975 276.1 204.91 L 276.1 120.46 C 276.195 118.944 278.563 118.891 275.84 117.952 Z" id="path3" style="fill: rgb(0, 38, 84);"/>
        <path d="m 328.12,97.88 c -13.42,0 -29.29,9.91 -38.89,26.38 -2.59,-5.95 -11.83,-12.43 -22.8,-12.43 -8.84,0 -33.67,11.05 -33.67,46.73 0,46.05 46.59,55.51 56.01,69.82 0.65,0.99 2.73,1.73 3.53,-0.62 7.51,-22.18 65.79,-47.24 65.79,-92.37 0,-25.31 -16.53,-37.51 -29.95,-37.51 z m 14.33,37.36 c -0.72,21.05 -17.01,39.59 -31.49,54.94 -10.07,10.68 -19.26,19.82 -21.74,27.19 -1.73,-3.5 -6.91,-7.5 -13.12,-12.46 -13.12,-10.47 -30.88,-25.2 -30.62,-48.49 0.32,-28.51 15.16,-37.43 23.23,-37.43 2.88,0 5.33,0.57 7.39,1.47 6.02,2.62 8.75,8.12 9.32,10.96 0.76,3.81 5.03,6.86 6.4,0.61 1.02,-4.64 8.61,-16.35 19.14,-22.07 3.64,-1.98 7.63,-3.24 11.82,-3.24 14.94,0 20.12,15.41 19.67,28.52 z" id="path4"/>
      </g>
    </g>
  </g>
</svg>