<?xml version="1.0" encoding="UTF-8" standalone="no"?>
<svg
   width="125.33"
   height="131.45125"
   xml:space="preserve"
   id="svg2"
   version="1.1"
   xmlns:xlink="http://www.w3.org/1999/xlink"
   xmlns="http://www.w3.org/2000/svg"
   xmlns:svg="http://www.w3.org/2000/svg"
   xmlns:rdf="http://www.w3.org/1999/02/22-rdf-syntax-ns#"
   xmlns:cc="http://creativecommons.org/ns#"
   xmlns:dc="http://purl.org/dc/elements/1.1/"><metadata
     id="metadata39"><rdf:RDF><cc:Work
         rdf:about=""><dc:format>image/svg+xml</dc:format><dc:type
           rdf:resource="http://purl.org/dc/dcmitype/StillImage" /></cc:Work></rdf:RDF></metadata><defs
     id="defs4"><g
       id="petal"><line
         x1="0"
         y1="0"
         x2="25"
         y2="0"
         stroke="#ffd700"
         stroke-width="2"
         id="line7" /><circle
         cx="25"
         cy="0"
         r="5"
         fill="#ffd700"
         id="circle9" /></g><pattern
       y="0"
       x="0"
       height="6"
       width="6"
       patternUnits="userSpaceOnUse"
       id="EMFhbasepattern" /></defs><path
     style="fill:#0051ba;fill-opacity:1;fill-rule:evenodd;stroke:none;stroke-width:0.530046px;stroke-linecap:butt;stroke-linejoin:miter;stroke-opacity:1"
     d="M 11.289447,36.237935 6.2888923,77.134466 57.43093,125.39324 87.661559,87.971816 118.34678,44.146277 106.98188,11.045884 83.1156,5.6330808 62.658783,19.924208 56.294441,31.845913 44.929544,19.202335 25.38192,19.776041 Z"
     id="path4174" /><path
     style="fill:#215b33;fill-opacity:1;fill-rule:evenodd;stroke:none;stroke-width:0.530046px;stroke-linecap:butt;stroke-linejoin:miter;stroke-opacity:1"
     d="M 15.10938,93.465052 118.22356,24.006629 106.82533,72.45227 55.93093,123.82323 Z"
     id="path4214" /><path
     d="m 15.19643,95.266558 102.2221,-71.77305"
     style="stroke:#fcd116;stroke-width:7.9507;stroke-miterlimit:4;stroke-dasharray:none;stroke-opacity:1"
     id="path6" /><g
     transform="matrix(0.13497088,-0.01180842,0,0.13497088,34.010162,46.308517)"
     id="g10"
     style="fill:#f9f9f9;fill-opacity:1"><g
       id="s"
       style="fill:#f9f9f9;fill-opacity:1"><g
         id="f"
         style="fill:#f9f9f9;fill-opacity:1"><g
           id="t"
           style="fill:#f9f9f9;fill-opacity:1"><path
             id="o"
             d="M 0,-40 V 0 h 20 z"
             transform="rotate(18,1.1568757e-7,-40.000001)"
             style="fill:#f9f9f9;fill-opacity:1" /><use
             xlink:href="#o"
             transform="scale(-1,1)"
             id="use16"
             x="0"
             y="0"
             width="100%"
             height="100%"
             style="fill:#f9f9f9;fill-opacity:1" /></g><use
           xlink:href="#t"
           transform="rotate(72)"
           id="use18"
           x="0"
           y="0"
           width="100%"
           height="100%"
           style="fill:#f9f9f9;fill-opacity:1" /></g><use
         xlink:href="#t"
         transform="rotate(-72)"
         id="use20"
         x="0"
         y="0"
         width="100%"
         height="100%"
         style="fill:#f9f9f9;fill-opacity:1" /><use
         xlink:href="#f"
         transform="rotate(144)"
         id="use22"
         x="0"
         y="0"
         width="100%"
         height="100%"
         style="fill:#f9f9f9;fill-opacity:1" /></g><g
       id="s2"
       transform="rotate(40.6)"
       style="fill:#f9f9f9;fill-opacity:1"><use
         id="s1"
         xlink:href="#s"
         x="-104"
         transform="rotate(-40.6,-104,2.6440216e-7)"
         y="0"
         width="100%"
         height="100%"
         style="fill:#f9f9f9;fill-opacity:1" /><use
         xlink:href="#s1"
         x="208"
         id="use26"
         y="0"
         width="100%"
         height="100%"
         style="fill:#f9f9f9;fill-opacity:1" /></g><use
       xlink:href="#s2"
       transform="scale(-1,1)"
       id="use28"
       x="0"
       y="0"
       width="100%"
       height="100%"
       style="fill:#f9f9f9;fill-opacity:1" /></g><path
     d="M 12.723764,58.554755 C 13.041792,30.0425 27.87991,21.118638 35.960468,21.118638 c 11.284687,0 15.945385,8.614845 16.707062,12.429058 0.761147,3.811034 5.03226,6.859331 6.404551,0.607964 1.37335,-6.251368 14.648892,-25.3139561 30.96531,-25.3139561 14.943069,0 20.118439,15.4100391 19.670549,28.5170261 C 108.48513,73.040393 62.518972,101.5182 56.468493,119.50002 51.081101,108.60916 12.34372,92.866248 12.723764,58.554755 Z M 95.375488,0 C 81.956304,0 66.086184,9.9108075 56.480154,26.380939 53.888227,20.432758 44.653228,13.950821 33.675438,13.950821 24.829493,13.950821 0,25.006529 0,60.689252 c 0,46.050428 46.591608,55.509108 56.010533,69.822478 0.647186,0.9843 2.731859,1.72795 3.527458,-0.62386 C 67.053519,107.70808 125.33,82.647484 125.33,37.511913 125.32947,12.199018 108.79414,0 95.375488,0 Z"
     id="path29"
     style="stroke-width:0.530046" /></svg>
