<?xml version="1.0" encoding="UTF-8" standalone="no"?>
<svg
   width="125.33"
   height="131.45125"
   id="svg2"
   version="1.1"
   xmlns="http://www.w3.org/2000/svg"
   xmlns:svg="http://www.w3.org/2000/svg"
   xmlns:rdf="http://www.w3.org/1999/02/22-rdf-syntax-ns#"
   xmlns:cc="http://creativecommons.org/ns#"
   xmlns:dc="http://purl.org/dc/elements/1.1/">
  <metadata
     id="metadata16">
    <rdf:RDF>
      <cc:Work
         rdf:about="">
        <dc:format>image/svg+xml</dc:format>
        <dc:type
           rdf:resource="http://purl.org/dc/dcmitype/StillImage" />
      </cc:Work>
    </rdf:RDF>
  </metadata>
  <defs
     id="defs14" />
  <path
     style="fill:#66ccff;fill-opacity:1;fill-rule:evenodd;stroke:none;stroke-width:0.530046px;stroke-linecap:butt;stroke-linejoin:miter;stroke-opacity:1"
     d="M 5.4621281,45.262197 6.3839795,72.837014 18.598475,93.662299 40.492391,111.10565 56.855209,123.73229 67.917399,108.24535 93.037782,84.384155 114.93169,53.430447 116.31447,21.044753 98.799339,5.5229223 78.288197,7.7783397 66.765089,16.852659 56.163817,30.455573 49.249955,21.841968 33.578524,16.99056 17.446164,24.624438 Z"
     id="path4168" />
  <g
     id="g8655"
     transform="matrix(0.38775164,0,0,0.38775164,14.71337,17.768416)">
    <polygon
       style="fill:#f9f9f9;fill-opacity:1"
       id="polygon6"
       points="400,274 300,27 200,274 300,260 "
       transform="matrix(0.54956767,-0.04808094,0,0.54956767,-59.217087,57.694244)" />
    <polygon
       id="polygon8"
       points="386.5,274 300,60 213.5,274 300,260 "
       transform="matrix(0.54956767,-0.04808094,0,0.54956767,-59.217087,57.694244)"
       style="fill:#0b0e0e;fill-opacity:1" />
    <polygon
       style="fill:#fcd116"
       id="polygon10"
       points="400,274 300,150 200,274 "
       transform="matrix(0.54956767,-0.04808094,0,0.54956767,-59.217087,57.694244)" />
  </g>
  <path
     d="M 12.72376,58.554755 C 13.04179,30.0425 27.87991,21.118638 35.96047,21.118638 c 11.28468,0 15.94538,8.614845 16.70706,12.429058 0.76115,3.811034 5.03226,6.859331 6.40455,0.607964 1.37335,-6.251368 14.64889,-25.3139561 30.96531,-25.3139561 14.94307,0 20.11844,15.4100391 19.67055,28.5170261 C 108.48513,73.040393 62.51897,101.5182 56.46849,119.50002 51.0811,108.60916 12.34372,92.866248 12.72376,58.554755 Z M 95.37549,0 C 81.9563,0 66.08618,9.9108075 56.48015,26.380939 53.88823,20.432758 44.65323,13.950821 33.67544,13.950821 24.82949,13.950821 0,25.006529 0,60.689252 c 0,46.050428 46.59161,55.509108 56.01053,69.822478 0.64719,0.9843 2.73186,1.72795 3.52746,-0.62386 C 67.05352,107.70808 125.33,82.647484 125.33,37.511913 125.32947,12.199018 108.79414,0 95.37549,0 Z"
     id="path10"
     style="stroke-width:0.530046" />
</svg>
