<?xml version="1.0" encoding="utf-8"?>
<svg id="LOGO_LAYER" viewBox="0 0 125.33 131.4429" version="1.1" width="125.33" height="131.4429" xmlns="http://www.w3.org/2000/svg">
  <defs id="defs1">
    <style id="style1">.cls-1{fill:#f9f9f9;}.cls-2{fill:#ff833f;}.cls-3{fill:#2ca063;}</style>
  </defs>
  <g id="LOGO_GROUP" transform="translate(-232.76,-97.88)">
    <g id="SELECT_FLAG_HERE">
      <g id="BLACK_FLAG">
        <path class="cls-2" d="M 343.912 136.208 C 342.075 103.624 322.018 100.862 310.325 108.96 L 310.164 191.986 C 327.133 176.828 339.695 162.099 343.912 136.208 Z" id="path1" style="fill: rgb(255, 136, 62);"/>
        <path class="cls-3" d="M 277.068 119.621 C 260.168 114.623 244.822 127.904 244.512 156.42 C 244.259 179.71 263.786 196.085 276.906 206.555 L 277.068 119.621 Z" id="path3" style="fill: rgb(22, 155, 98);"/>
        <path class="cls-1" d="M 310.97 108.96 C 283.847 125.943 298.259 131.758 276.11 119.46 L 276.11 205.91 C 288.732 228.266 292.658 224.708 310.97 191.18 L 310.97 108.96 Z" id="path2" style="fill: rgb(255, 255, 255);"/>
        <path d="m 328.12,97.88 c -13.42,0 -29.29,9.91 -38.89,26.38 -2.59,-5.95 -11.83,-12.43 -22.8,-12.43 -8.84,0 -33.67,11.05 -33.67,46.73 0,46.05 46.59,55.51 56.01,69.82 0.65,0.99 2.73,1.73 3.53,-0.62 7.51,-22.18 65.79,-47.24 65.79,-92.37 0,-25.31 -16.53,-37.51 -29.95,-37.51 z m 14.33,37.36 c -0.72,21.05 -17.01,39.59 -31.49,54.94 -10.07,10.68 -19.26,19.82 -21.74,27.19 -1.73,-3.5 -6.91,-7.5 -13.12,-12.46 -13.12,-10.47 -30.88,-25.2 -30.62,-48.49 0.32,-28.51 15.16,-37.43 23.23,-37.43 2.88,0 5.33,0.57 7.39,1.47 6.02,2.62 8.75,8.12 9.32,10.96 0.76,3.81 5.03,6.86 6.4,0.61 1.02,-4.64 8.61,-16.35 19.14,-22.07 3.64,-1.98 7.63,-3.24 11.82,-3.24 14.94,0 20.12,15.41 19.67,28.52 z" id="path4"/>
      </g>
    </g>
  </g>
</svg>