<?xml version="1.0" encoding="UTF-8" standalone="no"?>
<!-- Created with Inkscape (http://www.inkscape.org/) -->

<svg
   width="125.33"
   height="131.45125"
   viewBox="0 0 33.160229 34.77981"
   version="1.1"
   id="svg16422"
   xmlns:xlink="http://www.w3.org/1999/xlink"
   xmlns="http://www.w3.org/2000/svg"
   xmlns:svg="http://www.w3.org/2000/svg">
  <defs
     id="defs16419">
    <radialGradient
       id="rg1"
       xlink:href="#lg"
       gradientUnits="userSpaceOnUse"
       cx="842.31"
       cy="103.66"
       r="25.858999"
       gradientTransform="matrix(0.185743,0.047185,-0.04532,0.186354,233.79812,198.76959)" />
    <linearGradient
       id="lg">
      <stop
         stop-color="#fff"
         offset="0"
         id="stop7" />
      <stop
         stop-color="#f15770"
         offset="1"
         id="stop9" />
    </linearGradient>
    <radialGradient
       id="rg2"
       xlink:href="#lg"
       gradientUnits="userSpaceOnUse"
       cx="651.52002"
       cy="550.46002"
       r="25.858999"
       gradientTransform="matrix(-0.176418,-0.070669,0.065152,-0.163915,430.54435,377.87561)" />
    <radialGradient
       id="rg3"
       xlink:href="#lg"
       gradientUnits="userSpaceOnUse"
       cx="380.84"
       cy="740.37"
       r="25.858999"
       gradientTransform="matrix(0.098907,0.003695,-0.004498,0.194304,442.36222,123.30418)" />
  </defs>
  <g
     id="layer1">
    <path
       style="fill:#289728;fill-opacity:1;stroke-width:0.140241"
       d="M 1.2618925,16.828802 29.31018,14.865443 15.145795,33.377125 5.4691357,25.102964"
       id="path4" />
    <path
       style="fill:#f9f9f9;fill-opacity:1;stroke-width:0.140241"
       d="M 3.9264798,7.4327212 9.9568618,4.4876807 15.005555,7.9936812 20.755453,2.3840804 28.889456,1.6828798 31.554044,15.987363 1.6826168,18.651923"
       id="path6" />
    <path
       d="M 15.132401,33.068598 5.7466959,25.929765 23.994984,24.166644 Z"
       id="path4255"
       style="fill:#ffce00;fill-opacity:1;stroke-width:0.140241" />
    <path
       style="fill:#003082;fill-opacity:1;stroke-width:0.140241"
       id="path4157"
       d="m 1.0245941,11.531455 7.1429679,-6.7214469 4.055653,0.5939324 2.55877,2.6996604 3.977139,-4.7193706 5.486294,-2.59123065 8.340275,7.40406105 z" />
    <path
       style="fill:#ffce00;stroke-width:0.140241"
       d="M 8.1568184,6.2406486 9.3800138,9.8879171 6.1793437,7.8496419 10.130908,7.5039248 6.9301759,10.10225 Z"
       id="path14" />
    <path
       style="fill:#d21034;fill-opacity:1;fill-rule:evenodd;stroke:none;stroke-width:0.140241px;stroke-linecap:butt;stroke-linejoin:miter;stroke-opacity:1"
       d="M 11.409623,4.7212229 V 30.023492 l 3.557987,2.825028 3.338245,-3.708853 V 4.1709566 l -3.465739,3.3949042 z"
       id="path4175" />
    <path
       d="m 3.3655141,15.492315 c 0.084145,-7.543791 4.0100637,-9.9048721 6.1480445,-9.9048721 2.9857404,0 4.2188844,2.2793212 4.4204114,3.2884883 0.201385,1.0083257 1.331452,1.8148458 1.694537,0.1608553 0.363226,-1.6534299 3.876272,-6.6978635 8.192904,-6.697583 3.953406,0 5.323005,4.0771982 5.204361,7.5450534 C 28.702235,19.325215 16.544284,26.8533 14.939501,31.617254 13.514087,28.735321 3.2644,24.570473 3.3653738,15.492315 Z M 25.234764,0 C 21.684272,0 17.485303,2.6222079 14.943709,6.9797459 14.257928,5.4059723 11.8145,3.6909772 8.9099594,3.6911174 6.5693298,3.6911174 0,6.6162438 0,16.057483 c 0,12.184053 12.327223,14.686636 14.819453,18.473818 0.171095,0.260426 0.722805,0.457181 0.933307,-0.165063 1.988624,-5.868344 17.407469,-12.498892 17.407469,-24.4408907 0,-6.6978635 -4.375532,-9.92478632496 -7.925465,-9.9249265664 z"
       id="path8"
       style="stroke-width:0.140241" />
  </g>
</svg>
