<?xml version="1.0" encoding="UTF-8" standalone="no"?>
<svg
   width="125.33"
   height="131.45125"
   version="1.1"
   id="svg3889"
   sodipodi:docname="EuroMaldivas.svg"
   inkscape:version="1.2.1 (9c6d41e410, 2022-07-14)"
   xmlns:inkscape="http://www.inkscape.org/namespaces/inkscape"
   xmlns:sodipodi="http://sodipodi.sourceforge.net/DTD/sodipodi-0.dtd"
   xmlns="http://www.w3.org/2000/svg"
   xmlns:svg="http://www.w3.org/2000/svg">
  <sodipodi:namedview
     id="namedview262"
     pagecolor="#ffffff"
     bordercolor="#000000"
     borderopacity="0.25"
     inkscape:showpageshadow="2"
     inkscape:pageopacity="0.0"
     inkscape:pagecheckerboard="0"
     inkscape:deskcolor="#d1d1d1"
     showgrid="false"
     inkscape:zoom="4.3476194"
     inkscape:cx="100.39977"
     inkscape:cy="93.039422"
     inkscape:window-width="2560"
     inkscape:window-height="1355"
     inkscape:window-x="-9"
     inkscape:window-y="-9"
     inkscape:window-maximized="1"
     inkscape:current-layer="svg3889" />
  <defs
     id="defs3893" />
  <g
     id="g7420">
    <path
       d="M 2.39229,71.255077 C 20.67624,89.553869 38.96019,107.85213 57.244141,126.15039 77.91595,103.3584 98.587759,80.566402 119.25957,57.774407 116.60934,41.69651 113.9591,25.618082 111.30887,9.540185 100.53144,8.656598 89.753476,7.773541 78.976043,6.889953 71.201852,14.840649 63.428192,22.791345 55.654001,30.742041 50.707078,26.325164 45.75962,21.907758 40.8127,17.490881 31.71075,20.771338 22.60932,24.051795 13.50736,27.332252 9.80234,41.973194 6.09731,56.614135 2.39229,71.255077 Z"
       fill="#ee1133"
       id="path3532"
       style="fill:#d21034;fill-opacity:1;stroke-width:0.530046;stroke:none;stroke-opacity:1" />
    <path
       d="M 12.723764,58.554755 C 13.041791,30.042499 27.87991,21.118638 35.960467,21.118638 c 11.284688,0 15.945386,8.614844 16.707062,12.429058 0.761147,3.811034 5.032261,6.85933 6.404551,0.607963 1.37335,-6.251367 14.648892,-25.3139552 30.96531,-25.3139552 14.94307,0 20.11844,15.4100392 19.67055,28.5170262 -1.22282,35.681663 -47.188968,64.15946 -53.239448,82.14129 C 51.081101,108.60916 12.34372,92.866248 12.723764,58.554755 Z M 95.375487,0 C 81.956303,0 66.086184,9.9108074 56.480153,26.380939 53.888226,20.432758 44.653228,13.950821 33.675437,13.950821 24.829493,13.950821 0,25.006529 0,60.689252 c 0,46.050428 46.591608,55.509108 56.010532,69.822478 0.647187,0.9843 2.731859,1.72795 3.527459,-0.62386 C 67.053519,107.70808 125.33,82.647483 125.33,37.511913 125.32947,12.199018 108.79414,0 95.375487,0 Z"
       id="path3379"
       style="stroke-width:0.530046;fill:#000000;fill-opacity:1" />
    <g
       id="g7411">
      <path
         style="color:#000000;fill:#007e3a;stroke-linecap:round;paint-order:markers stroke fill;fill-opacity:1"
         d="m 90.037109,16.341797 c 4.893401,0 6.940575,1.756011 9.078125,5.535156 2.137556,3.779145 3.284506,9.758758 3.097656,15.226563 -0.50441,14.693522 -10.844533,29.514386 -22.898437,42.955078 -6.027215,6.720639 -12.341768,13.041413 -17.722656,19.021484 -2.408697,2.676912 -4.574235,5.237472 -6.53125,7.845702 -1.02051,-0.83425 -1.949402,-1.66988 -3.039063,-2.55078 C 47.502957,100.72213 42.353456,96.792752 37.541016,92.318359 27.916134,83.369576 20.064032,72.959728 20.222656,58.638672 20.51186,32.71059 33.402197,28.619141 35.960938,28.619141 c 3.733812,0 5.566044,1.178184 7.037109,2.626953 1.471064,1.448768 2.296549,3.679875 2.314453,3.769531 0.833049,4.171045 2.490514,7.852943 7.898438,9.705078 2.703962,0.926067 6.934417,0.268509 9.349609,-1.861328 2.415191,-2.129837 3.292751,-4.61236 3.837891,-7.095703 -0.02772,0.127686 0.733099,-1.983009 2.128906,-4.181641 1.396587,-2.199863 3.391735,-4.782989 5.734375,-7.132812 4.685278,-4.69965 10.537961,-8.107422 15.77539,-8.107422 z"
         id="path3638" />
      <g
         id="g1068"
         transform="matrix(1.4436091,-0.12629942,0,1.4436091,-223.73969,15.826978)">
        <circle
           fill="#ffffff"
           cx="197.4597"
           cy="54.157543"
           r="11.666666"
           id="circle135"
           style="fill:#f9f9f9;fill-opacity:1;stroke-width:0.145833" />
        <circle
           cx="201.8347"
           cy="54.157543"
           r="11.666666"
           id="circle137"
           style="fill:#007e3a;stroke-width:0.145833" />
      </g>
    </g>
  </g>
</svg>
