<?xml version="1.0" encoding="UTF-8" standalone="no"?>
<svg
   width="125.33"
   height="131.45125"
   version="1.0"
   viewBox="-2100 -1470 2211.7059 1545.8667"
   id="svg2"
   xmlns:xlink="http://www.w3.org/1999/xlink"
   xmlns="http://www.w3.org/2000/svg"
   xmlns:svg="http://www.w3.org/2000/svg"
   xmlns:rdf="http://www.w3.org/1999/02/22-rdf-syntax-ns#"
   xmlns:cc="http://creativecommons.org/ns#"
   xmlns:dc="http://purl.org/dc/elements/1.1/">
  <metadata
     id="metadata118">
    <rdf:RDF>
      <cc:Work
         rdf:about="">
        <dc:format>image/svg+xml</dc:format>
        <dc:type
           rdf:resource="http://purl.org/dc/dcmitype/StillImage" />
      </cc:Work>
    </rdf:RDF>
  </metadata>
  <defs
     id="defs4">
    <path
       id="D"
       fill-rule="evenodd"
       d="m -31.5,0 h 33 a 30,30 0 0 0 30,-30 v -10 a 30,30 0 0 0 -30,-30 h -33 z m 13,-13 h 19 a 19,19 0 0 0 19,-19 v -6 a 19,19 0 0 0 -19,-19 h -19 z" />
    <path
       id="E"
       transform="translate(-31.5)"
       d="M 0,0 H 63 V -13 H 12 V -31 H 52 V -43 H 12 V -57 H 60 V -70 H 0 Z" />
    <path
       id="e"
       d="m -26.25,0 h 52.5 v -12 h -40.5 v -16 h 33 v -12 h -33 V -51 H 25 v -12 h -51.25 z" />
    <g
       id="G">
      <clipPath
         id="gcut">
        <path
           d="m -31.5,0 v -70 h 63 V 0 Z M 0,-47 v 12 h 31.5 v -12 z"
           id="path11" />
      </clipPath>
      <use
         xlink:href="#O"
         clip-path="url(#gcut)"
         id="use13"
         x="0"
         y="0"
         width="100%"
         height="100%" />
      <rect
         y="-35"
         x="5"
         height="10"
         width="26.5"
         id="rect15" />
      <rect
         y="-35"
         x="21.5"
         height="35"
         width="10"
         id="rect17" />
    </g>
    <path
       id="M"
       d="m -31.5,0 h 12 v -48 l 14,48 h 11 l 14,-48 V 0 h 12 V -70 H 14 L 0,-22 -14,-70 h -17.5 z" />
    <path
       id="O"
       fill-rule="evenodd"
       d="M 0,0 A 31.5,35 0 0 0 0,-70 31.5,35 0 0 0 0,0 m 0,-13 a 18.5,22 0 0 0 0,-44 18.5,22 0 0 0 0,44" />
    <path
       id="P"
       fill-rule="evenodd"
       d="m -31.5,0 h 13 v -26 h 28 a 22,22 0 0 0 0,-44 h -40 z m 13,-39 h 27 a 9,9 0 0 0 0,-18 h -27 z" />
    <g
       id="R">
      <use
         xlink:href="#P"
         id="use23"
         x="0"
         y="0"
         width="100%"
         height="100%" />
      <path
         d="m 28,0 c 0,-10 0,-32 -15,-32 H -6 c 22,0 22,22 22,32"
         id="path25" />
    </g>
    <path
       id="S"
       d="m -15.75,-22 c 0,7 6.75,10.5 16.75,10.5 10,0 14.74,-3.25 14.75,-7.75 C 15.75,-33.5 -31,-24.5 -30.75,-49.5 -30.5,-71 -6,-70 3,-70 c 9,0 26,4 25.75,21.25 H 13.5 c 0,-7.5 -7,-10.25 -15,-10.25 -7.75,0 -13.25,1.25 -13.25,8.5 -0.25,11.75 46.25,4 46.25,28.75 C 31.5,-3.5 13.5,0 0,0 -11.5,0 -31.55,-4.5 -31.5,-22 Z" />
    <g
       id="star"
       fill="#f9f9f9">
      <g
         id="c">
        <path
           id="t"
           transform="rotate(18,0,-1)"
           d="M 0,-1 V 0 H 0.5" />
        <use
           xlink:href="#t"
           transform="scale(-1,1)"
           id="use31"
           x="0"
           y="0"
           width="100%"
           height="100%" />
      </g>
      <use
         xlink:href="#c"
         transform="rotate(72)"
         id="use33"
         x="0"
         y="0"
         width="100%"
         height="100%" />
      <use
         xlink:href="#c"
         transform="rotate(-72)"
         id="use35"
         x="0"
         y="0"
         width="100%"
         height="100%" />
      <use
         xlink:href="#c"
         transform="rotate(144)"
         id="use37"
         x="0"
         y="0"
         width="100%"
         height="100%" />
      <use
         xlink:href="#c"
         transform="rotate(-144)"
         id="use39"
         x="0"
         y="0"
         width="100%"
         height="100%" />
    </g>
    <use
       id="star1"
       xlink:href="#star"
       transform="scale(31.5)"
       x="0"
       y="0"
       width="100%"
       height="100%" />
    <use
       id="star2"
       xlink:href="#star"
       transform="scale(26.25)"
       x="0"
       y="0"
       width="100%"
       height="100%" />
    <use
       id="star3"
       xlink:href="#star"
       transform="scale(21)"
       x="0"
       y="0"
       width="100%"
       height="100%" />
    <use
       id="star4"
       xlink:href="#star"
       transform="scale(15)"
       x="0"
       y="0"
       width="100%"
       height="100%" />
    <use
       id="star5"
       xlink:href="#star"
       transform="scale(10.5)"
       x="0"
       y="0"
       width="100%"
       height="100%" />
    <clipPath
       id="band-0">
      <circle
         cy="0"
         cx="0"
         r="735"
         id="circle53-8" />
    </clipPath>
    <clipPath
       id="gcut-8">
      <path
         d="m -31.5,0 v -70 h 63 V 0 Z M 0,-47 v 12 h 31.5 v -12 z"
         id="path11-4" />
    </clipPath>
  </defs>
  <clipPath
     id="band">
    <circle
       r="735"
       id="circle53"
       cx="0"
       cy="0" />
  </clipPath>
  <path
     style="fill:#009b3a;fill-opacity:1;fill-rule:evenodd;stroke:none;stroke-width:0.530046px;stroke-linecap:butt;stroke-linejoin:miter;stroke-opacity:1"
     d="m -1985.2107,-976.3126 75.6989,611.0806 814.5208,716.00797 526.86458,-579.01547 551.088545,-696.197 -211.957005,-841.3964 -469.33361,41.0615 -345.18731,302.7161 -75.6989,103.5174 -272.5162,-248.6741 -493.5573,243.0259 z"
     id="path4268" />
  <g
     id="g2864"
     transform="matrix(0.53004637,0,0,0.53004637,-996.2564,-697.06885)">
    <path
       id="path48"
       d="M -1799.8765,194.17267 -222.57817,1063.3674 1354.72,-81.818866 -222.57817,-951.01356 Z"
       style="fill:#fedf00;stroke-width:0.904933" />
    <ellipse
       id="circle50"
       cx="-223.42133"
       cy="36.704445"
       style="fill:#002776;stroke-width:0.90666"
       transform="matrix(0.9961947,-0.08715577,0,1,0,0)"
       rx="667.66644"
       ry="665.12579" />
    <path
       id="path55"
       clip-path="url(#band-0)"
       d="m -2205,1470 a 1785,1785 0 0 1 3570,0 h -105 a 1680,1680 0 1 0 -3360,0 z"
       style="fill:#f9f9f9"
       transform="matrix(0.90493303,-0.07917141,0,0.90493303,-222.57114,56.176902)" />
    <g
       id="g57"
       transform="matrix(0.90493303,-0.07917141,0,0.90493303,-602.64301,1419.6804)"
       style="fill:#009b3a">
      <use
         id="use59"
         transform="rotate(-6.9999998)"
         xlink:href="#O"
         y="-1697.5"
         x="0"
         width="100%"
         height="100%" />
      <use
         id="use61"
         transform="rotate(-3.9999998)"
         xlink:href="#R"
         y="-1697.5"
         x="0"
         width="100%"
         height="100%" />
      <use
         id="use63"
         transform="rotate(-1.0000002)"
         xlink:href="#D"
         y="-1697.5"
         x="0"
         width="100%"
         height="100%" />
      <use
         id="use65"
         transform="rotate(2.0000002)"
         xlink:href="#E"
         y="-1697.5"
         x="0"
         width="100%"
         height="100%" />
      <use
         id="use67"
         transform="rotate(4.9999998)"
         xlink:href="#M"
         y="-1697.5"
         x="0"
         width="100%"
         height="100%" />
      <use
         id="use69"
         transform="rotate(9.7499998)"
         xlink:href="#e"
         y="-1697.5"
         x="0"
         width="100%"
         height="100%" />
      <use
         id="use71"
         transform="rotate(14.5)"
         xlink:href="#P"
         y="-1697.5"
         x="0"
         width="100%"
         height="100%" />
      <use
         id="use73"
         transform="rotate(17.5)"
         xlink:href="#R"
         y="-1697.5"
         x="0"
         width="100%"
         height="100%" />
      <use
         id="use75"
         transform="rotate(20.5)"
         xlink:href="#O"
         y="-1697.5"
         x="0"
         width="100%"
         height="100%" />
      <use
         id="use77"
         transform="rotate(23.5)"
         xlink:href="#G"
         y="-1697.5"
         x="0"
         width="100%"
         height="100%" />
      <use
         id="use79"
         transform="rotate(26.5)"
         xlink:href="#R"
         y="-1697.5"
         x="0"
         width="100%"
         height="100%" />
      <use
         id="use81"
         transform="rotate(29.5)"
         xlink:href="#E"
         y="-1697.5"
         x="0"
         width="100%"
         height="100%" />
      <use
         id="use83"
         transform="rotate(32.5)"
         xlink:href="#S"
         y="-1697.5"
         x="0"
         width="100%"
         height="100%" />
      <use
         id="use85"
         transform="rotate(35.5)"
         xlink:href="#S"
         y="-1697.5"
         x="0"
         width="100%"
         height="100%" />
      <use
         id="use87"
         transform="rotate(38.5)"
         xlink:href="#O"
         y="-1697.5"
         x="0"
         width="100%"
         height="100%" />
    </g>
    <use
       xlink:href="#star1"
       x="-600"
       y="-132"
       id="αCMi"
       width="100%"
       height="100%"
       transform="matrix(0.90493303,-0.07917141,0,0.90493303,-222.57114,56.176902)" />
    <use
       xlink:href="#star1"
       x="-535"
       y="177"
       id="αCMa"
       width="100%"
       height="100%"
       transform="matrix(0.90493303,-0.07917141,0,0.90493303,-222.57114,56.176902)" />
    <use
       xlink:href="#star1"
       x="228"
       y="-228"
       id="αVir"
       width="100%"
       height="100%"
       transform="matrix(0.90493303,-0.07917141,0,0.90493303,-222.57114,56.176902)" />
    <use
       xlink:href="#star1"
       x="515"
       y="258"
       id="αSco"
       width="100%"
       height="100%"
       transform="matrix(0.90493303,-0.07917141,0,0.90493303,-222.57114,56.176902)" />
    <use
       xlink:href="#star3"
       x="617"
       y="265"
       id="βSco"
       width="100%"
       height="100%"
       transform="matrix(0.90493303,-0.07917141,0,0.90493303,-222.57114,56.176902)" />
    <use
       xlink:href="#star2"
       x="545"
       y="323"
       id="εSco"
       width="100%"
       height="100%"
       transform="matrix(0.90493303,-0.07917141,0,0.90493303,-222.57114,56.176902)" />
    <use
       xlink:href="#star2"
       x="368"
       y="477"
       id="θSco"
       width="100%"
       height="100%"
       transform="matrix(0.90493303,-0.07917141,0,0.90493303,-222.57114,56.176902)" />
    <use
       xlink:href="#star3"
       x="367"
       y="551"
       id="ιSco"
       width="100%"
       height="100%"
       transform="matrix(0.90493303,-0.07917141,0,0.90493303,-222.57114,56.176902)" />
    <use
       xlink:href="#star3"
       x="441"
       y="419"
       id="κSco"
       width="100%"
       height="100%"
       transform="matrix(0.90493303,-0.07917141,0,0.90493303,-222.57114,56.176902)" />
    <use
       xlink:href="#star2"
       x="500"
       y="382"
       id="λSco"
       width="100%"
       height="100%"
       transform="matrix(0.90493303,-0.07917141,0,0.90493303,-222.57114,56.176902)" />
    <use
       xlink:href="#star3"
       x="365"
       y="405"
       id="μSco"
       width="100%"
       height="100%"
       transform="matrix(0.90493303,-0.07917141,0,0.90493303,-222.57114,56.176902)" />
    <use
       xlink:href="#star2"
       x="-280"
       y="30"
       id="αHya"
       width="100%"
       height="100%"
       transform="matrix(0.90493303,-0.07917141,0,0.90493303,-222.57114,56.176902)" />
    <use
       xlink:href="#star3"
       x="200"
       y="-37"
       id="γHya"
       width="100%"
       height="100%"
       transform="matrix(0.90493303,-0.07917141,0,0.90493303,-222.57114,56.176902)" />
    <use
       xlink:href="#star1"
       y="330"
       id="αCru"
       x="0"
       width="100%"
       height="100%"
       transform="matrix(0.90493303,-0.07917141,0,0.90493303,-222.57114,56.176902)" />
    <use
       xlink:href="#star2"
       x="85"
       y="184"
       id="βCru"
       width="100%"
       height="100%"
       transform="matrix(0.90493303,-0.07917141,0,0.90493303,-222.57114,56.176902)" />
    <use
       xlink:href="#star2"
       y="118"
       id="γCru"
       x="0"
       width="100%"
       height="100%"
       transform="matrix(0.90493303,-0.07917141,0,0.90493303,-222.57114,56.176902)" />
    <use
       xlink:href="#star3"
       x="-74"
       y="184"
       id="δCru"
       width="100%"
       height="100%"
       transform="matrix(0.90493303,-0.07917141,0,0.90493303,-222.57114,56.176902)" />
    <use
       xlink:href="#star4"
       x="-37"
       y="235"
       id="εCru"
       width="100%"
       height="100%"
       transform="matrix(0.90493303,-0.07917141,0,0.90493303,-222.57114,56.176902)" />
    <use
       xlink:href="#star2"
       x="220"
       y="495"
       id="αTrA"
       width="100%"
       height="100%"
       transform="matrix(0.90493303,-0.07917141,0,0.90493303,-222.57114,56.176902)" />
    <use
       xlink:href="#star3"
       x="283"
       y="430"
       id="βTrA"
       width="100%"
       height="100%"
       transform="matrix(0.90493303,-0.07917141,0,0.90493303,-222.57114,56.176902)" />
    <use
       xlink:href="#star3"
       x="162"
       y="412"
       id="γTrA"
       width="100%"
       height="100%"
       transform="matrix(0.90493303,-0.07917141,0,0.90493303,-222.57114,56.176902)" />
    <use
       xlink:href="#star1"
       x="-295"
       y="390"
       id="αCar"
       width="100%"
       height="100%"
       transform="matrix(0.90493303,-0.07917141,0,0.90493303,-222.57114,56.176902)" />
    <use
       xlink:href="#star5"
       y="575"
       id="σOct"
       x="0"
       width="100%"
       height="100%"
       transform="matrix(0.90493303,-0.07917141,0,0.90493303,-222.57114,56.176902)" />
  </g>
  <path
     d="m -1875.4629,-823.6113 c 5.6122,-503.1574 267.4615,-660.6374 410.0594,-660.6374 199.1416,1e-4 281.3892,152.0265 294.8305,219.3364 13.432,67.2534 88.8046,121.0469 113.0215,10.7287 24.2355,-110.3182 258.50985,-446.717 546.44662,-446.717 263.70127,0 355.03134,271.9421 347.12744,503.2417 -21.57914,629.67637 -832.74665,1132.225823 -939.51986,1449.55207 -95.0715,-192.191677 -778.6723,-470.00767 -771.9656,-1075.50447 z m 1458.55979,-1033.3193 c -236.80915,0 -516.87007,174.8965 -686.38819,465.5459 -45.74,-104.9679 -208.7105,-219.3548 -402.4363,-219.355 -156.1049,2e-4 -594.2724,195.1008 -594.2724,824.796 0,812.654573 822.2049,979.57243 988.4211,1232.16141 11.4209,17.36994 48.2093,30.49315 62.2494,-11.00948 132.62694,-391.408237 1161.03538,-833.65378 1161.03538,-1630.16383 -0.01,-446.6982 -291.80923,-661.9748 -528.60899,-661.975 z"
     id="path29"
     style="stroke-width:0.530046" />
</svg>
