<?xml version="1.0" encoding="UTF-8" standalone="no"?>
<svg
   width="125.33"
   height="131.45125"
   id="svg2"
   version="1.1"
   xmlns:xlink="http://www.w3.org/1999/xlink"
   xmlns="http://www.w3.org/2000/svg"
   xmlns:svg="http://www.w3.org/2000/svg"
   xmlns:rdf="http://www.w3.org/1999/02/22-rdf-syntax-ns#"
   xmlns:cc="http://creativecommons.org/ns#"
   xmlns:dc="http://purl.org/dc/elements/1.1/">
  <metadata
     id="metadata16">
    <rdf:RDF>
      <cc:Work
         rdf:about="">
        <dc:format>image/svg+xml</dc:format>
        <dc:type
           rdf:resource="http://purl.org/dc/dcmitype/StillImage" />
      </cc:Work>
    </rdf:RDF>
  </metadata>
  <defs
     id="defs14" />
  <path
     style="fill:#00785e;fill-opacity:1;fill-rule:evenodd;stroke:none;stroke-width:0.530046px;stroke-linecap:butt;stroke-linejoin:miter;stroke-opacity:1"
     d="M 8.3322742,44.91156 8.0860989,77.920626 32.949832,106.51728 55.844162,124.20833 76.522909,102.21278 107.29485,69.487158 119.11128,28.326737 97.201657,2.6719163 75.538205,9.7369099 65.198828,19.503809 56.090336,30.886248 48.705069,20.946826 32.949832,16.663192 16.456068,25.737652 Z"
     id="path4215" />
  <g
     id="g4149"
     transform="matrix(0.21752409,-0.0190309,0,0.21752409,-16.134126,27.822321)">
    <g
       id="g8408">
      <polygon
         id="polygon6"
         points="352.995,99.666 307.005,99.666 344.208,126.693 330,82.958 315.792,126.693 "
         style="fill:#ffde23;fill-opacity:1" />
      <g
         id="h">
        <path
           id="path9"
           d="m 330,303.99 h -93.937 c -1.184,-1.2 -2.35,-2.423 -3.488,-3.667 H 330 c 0.751,0.269 1.267,0.958 1.306,1.736 0.042,0.844 -0.488,1.635 -1.306,1.931 z m 0,-28.725 c 0.545,-1.114 1.607,-3.694 1.125,-6.921 -0.218,-1.463 -0.692,-2.644 -1.125,-3.492 -5.271,4.988 -15.175,12.981 -29.785,17.401 -6.821,2.064 -14.055,3.173 -21.548,3.173 h -57.872 c 1.706,2.507 3.494,4.954 5.364,7.333 h 55.945 c 18.242,10e-4 34.954,-6.58 47.896,-17.494 z M 229.539,252.628 c -2.785,1.072 -5.772,1.741 -8.887,1.926 13.629,15.415 33.545,25.144 55.723,25.144 21.066,0 40.091,-8.775 53.625,-22.867 2.297,-15.839 3.968,-33.969 4.167,-53.998 0.232,-23.321 -1.581,-44.2 -4.167,-62.032 -6.045,5.419 -17.371,17.128 -22.71,35.079 -1.998,6.72 -3.072,13.837 -3.072,21.203 0,15.291 4.623,29.506 12.547,41.329 -9.731,-12.57 -15.526,-28.338 -15.526,-45.454 0,-11.369 2.558,-22.144 7.126,-31.783 -3.154,-3.334 -5.551,-7.392 -6.904,-11.902 -6.121,10.804 -9.618,23.284 -9.618,36.581 0,16.539 5.409,31.819 14.552,44.172 -15.923,-16.693 -38.377,-27.099 -63.25,-27.099 -1.336,0 -2.667,0.034 -3.989,0.093 2.503,2.333 4.604,5.089 6.188,8.157 24.742,0.038 47.078,10.377 62.964,26.949 -15.171,-12.672 -34.698,-20.303 -55.995,-20.303 -11.902,0 -23.25,2.382 -33.594,6.696 10.629,28.085 37.78,48.075 69.574,48.075 2.059,0 4.1,-0.093 6.116,-0.258 -4.29,0.771 -8.709,1.174 -13.22,1.174 -20.061,0 -38.269,-7.956 -51.65,-20.882 z M 330,334.01 h -48.684 c 15.067,5.988 31.492,9.281 48.684,9.281 0.414,-0.788 1.125,-2.395 1.146,-4.542 0.022,-2.257 -0.729,-3.945 -1.146,-4.739 z m 0,-22.458 h -85.83 c 2.322,1.99 4.711,3.902 7.169,5.729 H 330 c 0.197,-0.201 1.167,-1.236 1.167,-2.865 0,-1.629 -0.97,-2.663 -1.167,-2.864 z m 0,11.458 h -70.304 c 4.257,2.686 8.675,5.139 13.242,7.333 H 330 c 0.33,-0.523 1.112,-1.917 1.063,-3.844 -0.045,-1.719 -0.728,-2.959 -1.063,-3.489 z"
           style="fill:#f9f9f9" />
        <polygon
           id="polygon11"
           points="252.019,164.076 220.444,160.202 243.712,181.901 237.639,150.67 224.197,179.509 "
           style="fill:#ffde23;fill-opacity:1" />
        <polygon
           id="polygon13"
           points="280.328,112.607 254.26,130.861 286.079,131.413 260.663,112.27 269.966,142.699 "
           style="fill:#ffde23;fill-opacity:1" />
      </g>
      <use
         id="use15"
         transform="matrix(-1,0,0,1,660,0)"
         xlink:href="#h"
         x="0"
         y="0"
         width="100%"
         height="100%"
         style="fill:#ffde23;fill-opacity:1" />
    </g>
  </g>
  <path
     d="M 12.723764,58.554755 C 13.041792,30.0425 27.87991,21.118638 35.960468,21.118638 c 11.284687,0 15.945385,8.614845 16.707062,12.429058 0.761147,3.811034 5.03226,6.859331 6.404551,0.607964 1.37335,-6.251368 14.648892,-25.3139561 30.96531,-25.3139561 14.943069,0 20.118439,15.4100391 19.670549,28.5170261 C 108.48513,73.040393 62.518972,101.5182 56.468493,119.50002 51.081101,108.60916 12.34372,92.866248 12.723764,58.554755 Z M 95.375488,0 C 81.956304,0 66.086184,9.9108075 56.480154,26.380939 53.888227,20.432758 44.653228,13.950821 33.675438,13.950821 24.829493,13.950821 0,25.006529 0,60.689252 c 0,46.050428 46.591608,55.509108 56.010533,69.822478 0.647186,0.9843 2.731859,1.72795 3.527458,-0.62386 C 67.053519,107.70808 125.33,82.647484 125.33,37.511913 125.32947,12.199018 108.79414,0 95.375488,0 Z"
     id="path10"
     style="stroke-width:0.530046" />
</svg>
