<?xml version="1.0" encoding="UTF-8" standalone="no"?>
<!-- Created with Inkscape (http://www.inkscape.org/) -->

<svg
   width="125.33"
   height="131.45284"
   viewBox="0 0 33.160228 34.780229"
   version="1.1"
   id="svg1063"
   xmlns:xlink="http://www.w3.org/1999/xlink"
   xmlns="http://www.w3.org/2000/svg"
   xmlns:svg="http://www.w3.org/2000/svg">
  <defs
     id="defs1060">
    <g
       id="b"
       fill="#1eb53a">
      <g
         id="s">
        <g
           id="t">
          <g
             id="c">
            <path
               id="h"
               d="M0,-20V0H20"
               transform="rotate(30,0,-20)" />
            <use
               xlink:href="#h"
               transform="scale(-1,1)"
               id="use11" />
          </g>
          <use
             xlink:href="#c"
             transform="rotate(120)"
             id="use13" />
          <use
             xlink:href="#c"
             transform="rotate(240)"
             id="use15" />
        </g>
        <use
           xlink:href="#t"
           transform="rotate(180)"
           id="use17" />
      </g>
      <use
         xlink:href="#s"
         fill="#ce1126"
         transform="scale(0.82)"
         id="use19" />
    </g>
    <use
       id="star"
       xlink:href="#b"
       x="250"
       y="106" />
    <g
       id="petal">
      <line
         x1="0"
         y1="0"
         x2="25"
         y2="0"
         stroke="gold"
         stroke-width="2"
         id="line7" />
      <circle
         cx="25"
         cy="0"
         r="5"
         fill="gold"
         id="circle9" />
    </g>
    <pattern
       y="0"
       x="0"
       height="6"
       width="6"
       patternUnits="userSpaceOnUse"
       id="EMFhbasepattern" />
    <g
       id="petal-7">
      <line
         x1="0"
         y1="0"
         x2="25"
         y2="0"
         stroke="gold"
         stroke-width="2"
         id="line7-0" />
      <circle
         cx="25"
         cy="0"
         r="5"
         fill="gold"
         id="circle9-1" />
    </g>
    <pattern
       y="0"
       x="0"
       height="6"
       width="6"
       patternUnits="userSpaceOnUse"
       id="EMFhbasepattern-2" />
    <g
       id="petal-8">
      <line
         x1="0"
         y1="0"
         x2="25"
         y2="0"
         stroke="gold"
         stroke-width="2"
         id="line7-02" />
      <circle
         cx="25"
         cy="0"
         r="5"
         fill="gold"
         id="circle9-4" />
    </g>
    <pattern
       y="0"
       x="0"
       height="6"
       width="6"
       patternUnits="userSpaceOnUse"
       id="EMFhbasepattern-21" />
  </defs>
  <path
     style="fill:#bf0a30;fill-opacity:1;fill-rule:evenodd;stroke:none;stroke-width:0.140241px;stroke-linecap:butt;stroke-linejoin:miter;stroke-opacity:1"
     d="M 2.9869995,9.5879536 1.6639361,20.408494 15.195267,33.176961 23.193787,23.275876 31.312586,11.680369 28.305623,2.9225567 21.991002,1.4904193 16.578469,5.2716132 14.894571,8.4258977 11.887608,5.0806177 6.7156329,5.2324108 Z"
     id="path4174" />
  <path
     d="M 15.68334,7.1896804 30.580008,5.88636 M 1.659167,13.143504 31.140974,10.564181 M 1.9396499,17.845863 29.738559,15.413775 M 3.0615814,22.474605 26.653247,20.410603 M 6.7078589,26.882497 21.885039,25.554666"
     id="path6"
     style="stroke:#f9f9f9;stroke-width:2.36349;stroke-miterlimit:4;stroke-dasharray:none;stroke-opacity:1" />
  <path
     style="fill:#002868;fill-opacity:1;fill-rule:evenodd;stroke:none;stroke-width:0.143405px;stroke-linecap:butt;stroke-linejoin:miter;stroke-opacity:1"
     d="M 1.8801772,16.669302 14.005502,15.654768 V 5.8581762 L 9.2351953,4.3117229 3.4450747,7.9390598 Z"
     id="path4213" />
  <g
     transform="matrix(3.5451739,-0.31016251,0,3.5451739,8.938494,11.030949)"
     id="g10"
     style="fill:#f9f9f9;fill-opacity:1">
    <g
       id="B"
       style="fill:#f9f9f9;fill-opacity:1">
      <polygon
         id="A"
         points="0,0 0,1 0.5,1 "
         transform="rotate(18,3.1568758,-0.49999998)"
         style="fill:#f9f9f9;fill-opacity:1" />
      <use
         xlink:href="#A"
         transform="scale(-1,1)"
         id="use14"
         x="0"
         y="0"
         width="100%"
         height="100%"
         style="fill:#f9f9f9;fill-opacity:1" />
    </g>
    <use
       xlink:href="#B"
       transform="rotate(72)"
       id="use16"
       x="0"
       y="0"
       width="100%"
       height="100%"
       style="fill:#f9f9f9;fill-opacity:1" />
    <use
       xlink:href="#B"
       transform="rotate(-72)"
       id="use18"
       x="0"
       y="0"
       width="100%"
       height="100%"
       style="fill:#f9f9f9;fill-opacity:1" />
    <use
       xlink:href="#B"
       transform="rotate(144)"
       id="use20"
       x="0"
       y="0"
       width="100%"
       height="100%"
       style="fill:#f9f9f9;fill-opacity:1" />
    <use
       xlink:href="#B"
       transform="rotate(-144)"
       id="use22"
       x="0"
       y="0"
       width="100%"
       height="100%"
       style="fill:#f9f9f9;fill-opacity:1" />
  </g>
  <path
     d="m 3.3664958,15.492612 c 0.084145,-7.5438674 4.0100637,-9.9049723 6.1480445,-9.9049723 2.9857407,0 4.2188827,2.2793441 4.4204097,3.2885215 0.201387,1.008336 1.331453,1.8148648 1.694538,0.160857 0.363365,-1.6540076 3.875852,-6.6976507 8.192905,-6.6976507 3.953686,0 5.323004,4.0772393 5.2045,7.5451297 C 28.703356,19.32527 16.541478,26.860022 14.940622,31.617713 13.515208,28.736172 3.2659427,24.570861 3.3664958,15.492612 Z M 25.234764,0 C 21.684272,0 17.485303,2.6222344 14.943707,6.9799567 14.257926,5.4061673 11.8145,3.6911547 8.9099594,3.6911547 6.56947,3.6911547 0,6.6163107 0,16.057364 0,28.241541 12.327363,30.744149 14.819453,34.531229 14.990688,34.791657 15.542258,34.988416 15.75276,34.366165 17.741243,28.497762 33.160229,21.867147 33.160229,9.925027 33.160088,3.2276567 28.785117,0 25.234764,0 Z"
     id="path29"
     style="stroke-width:0.140241" />
</svg>
