<?xml version="1.0" encoding="utf-8"?>
<svg id="LOGO_LAYER" viewBox="0 0 125.33 131.4429" version="1.1" width="125.33" height="131.4429" xmlns="http://www.w3.org/2000/svg">
  <defs id="defs1">
    <style id="style1">.cls-1{fill:#f9f9f9;}.cls-2{fill:blue;}.cls-3{fill:#ff0;}.cls-4{fill:red;}</style>
  </defs>
  <g id="LOGO_GROUP" transform="translate(-232.76,-97.88)">
    <path class="cls-4" d="M 289.528 218.899 C 287.655 217.338 309.608 192.75 323.529 177.027 L 253.687 184.027 C 265.447 199.727 285.928 211.629 289.528 218.899 Z" id="path3"/>
    <path class="cls-1" d="M 322.646 105.161 C 309.717 103.745 290.156 126.599 290.291 130.645 C 290.426 134.691 288.734 133.121 287.893 130.497 C 287.052 127.873 281.066 117.63 268.566 117.143 C 261.01 116.849 247.32 125.267 245.099 146.726 L 343.383 136.391 C 344.293 123.612 341.883 105.99 322.646 105.161 Z" id="path1" style="fill: rgb(255, 255, 255);"/>
    <path class="cls-2" d="M 342.39 136.03 L 246.31 146.12 C 240.962 151.169 244.113 179.323 255.36 184.96 L 321.97 177.96 C 327.269 178.653 349.994 137.187 342.39 136.03 Z" id="path2"/>
    <path class="cls-2" d="M 268.531 166.767 C 269.388 165.925 278.805 161.334 279.378 152.376 C 279.478 151.066 279.86 139.74 280.14 136.28 C 272.65 133.93 264.05 135.14 257.15 138.87 C 257.42 142.28 257.775 153.754 257.875 155.054 C 259.396 164.49 268.149 167.142 268.531 166.767 Z" id="path5"/>
    <path class="cls-1" d="m 272.11,159.31 c -1.75,0.2 -1.79,1.25 -3.46,1.49 -1.67,0.14 -1.71,-0.9 -3.46,-0.71 -1.58,0.18 -1.76,1.06 -3.02,1.4 2.3,2.64 5.26,3.95 6.48,3.81 1.21,-0.14 4.15,-2.12 6.44,-5.27 -1.22,-0.07 -1.42,-0.89 -2.98,-0.72 z" id="path6" style="fill: rgb(255, 255, 255);"/>
    <path class="cls-1" d="m 272.11,157.59 c -1.75,0.2 -1.79,1.25 -3.46,1.49 -1.67,0.14 -1.71,-0.9 -3.46,-0.71 -1.79,0.2 -1.79,1.3 -3.57,1.5 -0.24,0.03 -0.45,0.03 -0.63,0.02 0.19,0.29 0.38,0.57 0.58,0.84 0.02,0 0.03,0 0.05,0 1.79,-0.2 1.79,-1.3 3.57,-1.5 1.75,-0.2 1.79,0.85 3.46,0.71 1.67,-0.23 1.71,-1.29 3.46,-1.49 1.79,-0.2 1.79,0.9 3.57,0.7 0,0 0,0 0,0 0.2,-0.31 0.39,-0.64 0.58,-0.97 -0.17,0.05 -0.36,0.08 -0.58,0.11 -1.79,0.2 -1.79,-0.9 -3.57,-0.7 z" id="path7" style="fill: rgb(255, 255, 255);"/>
    <path class="cls-1" d="m 261.62,159.01 c 1.79,-0.2 1.79,-1.3 3.57,-1.5 1.75,-0.2 1.79,0.85 3.46,0.71 1.67,-0.23 1.71,-1.29 3.46,-1.49 1.79,-0.2 1.79,0.9 3.57,0.7 0.49,-0.05 0.84,-0.18 1.14,-0.34 0.46,-1.01 0.83,-2.09 1.06,-3.22 -0.01,0.07 -3.92,-4.83 -4.58,-5.72 -0.09,-0.06 -1.39,2.15 -1.89,2.68 -0.5,-0.47 -2.65,-5.47 -2.7,-5.35 0,0 -2.82,6.06 -2.84,5.95 0,0.07 -1.78,-2.25 -1.87,-2.17 -0.69,0.92 -4.61,6.7 -4.61,6.7 0.22,1.07 0.58,2.05 1.04,2.94 0.31,0.11 0.67,0.16 1.19,0.1 z" id="path8" style="fill: rgb(255, 255, 255);"/>
    <polygon class="cls-3" points="268.89,142.9 269.61,142.96 269.13,142.46 269.61,141.85 268.89,142.07 268.65,141.4 268.41,142.13 267.69,142.07 268.17,142.57 267.69,143.18 268.41,142.96 268.65,143.63 " id="polygon8"/>
    <polygon class="cls-3" points="265.42,138.69 266.14,138.75 265.66,138.25 266.14,137.64 265.42,137.86 265.18,137.19 264.94,137.91 264.21,137.85 264.7,138.36 264.21,138.97 264.94,138.75 265.18,139.42 " id="polygon9"/>
    <polygon class="cls-3" points="272.36,137.86 273.09,137.92 272.6,137.42 273.09,136.8 272.36,137.03 272.12,136.35 271.88,137.08 271.16,137.02 271.65,137.53 271.16,138.14 271.88,137.91 272.12,138.59 " id="polygon10"/>
    <path d="m 328.12,97.88 c -13.42,0 -29.29,9.91 -38.89,26.38 -2.59,-5.95 -11.83,-12.43 -22.8,-12.43 -8.84,0 -33.67,11.05 -33.67,46.73 0,46.05 46.59,55.51 56.01,69.82 0.65,0.99 2.73,1.73 3.53,-0.62 7.51,-22.18 65.79,-47.24 65.79,-92.37 0,-25.31 -16.53,-37.51 -29.95,-37.51 z m 14.33,37.36 c 0,0.26 -0.03,0.52 -0.04,0.79 -0.81,15.43 -9.92,29.49 -20.42,41.93 -13.54,16.03 -29.39,29.36 -32.77,39.42 -3.6,-7.28 -22.08,-16.72 -33.84,-32.41 -5.84,-7.8 -10.03,-17.14 -9.9,-28.53 0.04,-3.77 0.34,-7.2 0.85,-10.31 3.29,-20.4 15.38,-27.12 22.39,-27.12 11.28,0 15.94,8.61 16.71,12.43 0.76,3.81 5.03,6.86 6.4,0.61 1.37,-6.25 14.65,-25.31 30.96,-25.31 14.94,0 20.12,15.41 19.67,28.52 z" id="path10"/>
    <path class="cls-4" d="m 257.25,155.19 c 1.27,8.65 9.38,12.17 11.4,11.94 2.02,-0.23 10.13,-5.57 11.4,-14.5 0.03,-0.34 0.1,-1.35 0.2,-2.72 0.15,-2.02 0.35,-4.83 0.53,-7.42 0.17,-2.38 0.33,-4.57 0.43,-5.8 -0.05,-0.02 -1.07,-0.43 -1.07,-0.43 -0.28,3.47 -0.99,14.64 -1.09,15.95 -0.99,8.66 -8.38,13.76 -10.4,13.98 -2.02,0.23 -9.41,-3.2 -10.4,-11.64 -0.1,-1.29 -0.82,-12.3 -1.09,-15.71 l -1.07,0.67 c 0.09,1.17 0.25,3.25 0.42,5.52 0.19,2.59 0.4,5.44 0.55,7.47 0.1,1.34 0.17,2.34 0.2,2.67 z" id="path4"/>
  </g>
</svg>