<?xml version="1.0" encoding="UTF-8" standalone="no"?>
<svg
   width="125.33"
   height="131.45123"
   id="svg2"
   version="1.1"
   xmlns:xlink="http://www.w3.org/1999/xlink"
   xmlns="http://www.w3.org/2000/svg"
   xmlns:svg="http://www.w3.org/2000/svg"
   xmlns:rdf="http://www.w3.org/1999/02/22-rdf-syntax-ns#"
   xmlns:cc="http://creativecommons.org/ns#"
   xmlns:dc="http://purl.org/dc/elements/1.1/">
  <metadata
     id="metadata14">
    <rdf:RDF>
      <cc:Work
         rdf:about="">
        <dc:format>image/svg+xml</dc:format>
        <dc:type
           rdf:resource="http://purl.org/dc/dcmitype/StillImage" />
      </cc:Work>
    </rdf:RDF>
  </metadata>
  <defs
     id="defs12" />
  <path
     style="fill:#ce1126;fill-opacity:1;stroke-width:0.530046"
     d="M 2.3931595,71.255727 C 20.67711,89.554519 38.984912,107.85278 57.245011,126.15104 77.91682,103.35905 98.588629,80.567052 119.26044,57.775057 116.61021,41.69716 113.95997,25.618732 111.30974,9.5408351 100.53231,8.6572478 89.754346,7.7741905 78.976913,6.8906031 71.202722,14.841299 63.429062,22.791995 55.654871,30.742691 50.707948,26.325814 45.760495,21.908407 40.813572,17.49153 31.711616,20.771988 22.610189,24.052445 13.508232,27.332902 9.8032081,41.973843 6.0981838,56.614785 2.3931595,71.255727 Z"
     id="path4" />
  <path
     d="M 5.2192191,53.014583 19.032337,93.762292 56.744053,125.70024 92.898868,84.636796 14.788797,32.887974 Z"
     id="path8-7"
     style="opacity:1;fill:#0b0e0e;fill-opacity:1;stroke-width:0.530046" />
  <path
     d="m 70.236585,39.007091 c -0.901498,1.243282 -3.034809,-0.905768 -5.590438,-0.735526 -2.555635,0.170245 -4.365983,2.831069 -5.111269,3.748256 -0.745281,0.917188 -3.141194,5.599001 -3.088006,6.073516 0.05327,0.474526 1.490895,-1.461428 2.023262,-1.827458 0.05327,0.634246 -0.585718,1.435592 -0.425992,1.634524 0.159741,0.198951 1.863377,-1.440824 2.4491,-1.54526 0.159727,0.412025 -0.319462,0.879774 -0.159731,1.504703 0.213078,0.194277 1.171442,-1.167383 1.810353,-1.489382 0.106379,0.46987 -0.585733,1.435581 -0.213083,1.98854 0.26627,0.02993 1.863386,-1.973196 2.395913,-2.232862 0.532526,-0.259662 -0.266271,1.780282 0,1.916717 0.479174,-0.361377 1.970065,-2.195625 2.449254,-2.450457 0.479175,-0.254834 -0.05327,2.187639 0.159721,2.169006 0.58556,-0.477224 2.076451,-2.630749 2.236186,-2.964179 0.159722,-0.333429 -0.159735,3.101971 1.490722,4.767923 1.650467,1.665947 4.153074,3.52328 4.419174,3.500003 0.319454,-0.613669 -0.106384,-1.800878 0.159732,-1.770966 0.745286,0.733429 2.129633,1.783588 2.449086,1.755637 0.319458,-0.02796 -0.213074,-1.25917 0.212923,-1.296438 0.851984,0.724094 3.30107,3.651175 8.092895,4.669491 -0.319458,-0.877235 -1.011721,-1.615299 -1.064913,-2.036472 0.319453,0.0253 1.437698,0.459934 1.650627,0.387951 0.212909,-0.07204 -2.342721,-2.989578 -2.182984,-3.429536 0.585709,-0.104492 0.851979,0.244913 1.064889,-0.03993 -0.266251,-0.402546 -2.502443,-2.70934 -2.502443,-3.295059 0,-0.585723 0.692258,0.04596 0.905172,-0.0792 0.212919,-0.125162 -0.85182,-2.268193 -0.638911,-2.552923 0.212924,-0.284726 2.55548,1.213972 3.141203,1.162728 0.58571,-0.05124 0.159722,-2.090419 0.425983,-2.220249 0.26627,-0.129838 2.23634,0.922421 2.662173,0.885165 0.425828,-0.03726 0.372641,-0.937765 0.532377,-0.8452 0.159721,0.09257 4.79181,4.319385 3.194535,9.889847 -1.59727,4.026536 -4.79165,6.382452 -9.477086,5.088572 0.266106,0.402705 2.768548,2.260225 5.483914,1.277217 2.715355,-0.983016 6.01627,-3.401448 5.643639,-8.693014 -0.372649,-5.291585 -2.12981,-5.883298 -2.395917,-6.658654 -0.266101,-0.775345 0.426157,0.175636 1.011721,0.337483 0.585569,0.161844 -0.106544,-1.108931 -0.266271,-1.680669 -0.159736,-0.571738 1.756992,1.070911 2.236177,1.188705 0.479179,0.11781 -1.118086,-4.267985 -1.59727,-4.545515 -0.47918,-0.277531 0.479184,0.06446 0.798637,0.143045 0.319448,0.07859 -2.928434,-4.695335 -3.620537,-4.634784 -0.692099,0.06055 0.585559,-0.317494 0.958364,-0.350111 0.372804,-0.03262 -3.726743,-2.975031 -4.418997,-2.914466 -0.692272,0.06057 1.490563,-0.982392 1.703646,-1.054223 0.372794,0.02057 -4.738469,-2.300798 -9.317365,0.868355 -0.266261,-0.189462 2.156476,-2.078558 2.23618,-2.804302 0.02665,-0.188735 -0.798468,-0.515863 -0.851829,-0.724111 -0.05343,-0.208241 1.277832,-0.963616 1.331019,-1.447452 -0.319468,-0.398041 -0.905181,-0.187071 -1.22464,-0.2655 -0.07969,-0.392345 1.11825,-1.482189 1.011716,-1.898701 -0.07986,-0.232604 -0.958528,-0.235594 -1.171437,-0.05724 -0.212928,0.178354 0.559202,-1.167015 0.425997,-1.528003 -0.106385,-0.150418 -0.532376,-0.0067 -0.958368,0.137038 -0.266262,-0.0299 1.384356,-2.463832 1.064897,-2.755337 -0.319453,-0.291506 -4.791969,2.7618 -6.442427,5.88782 -1.650472,3.126019 -0.372491,5.410117 -0.585564,6.440311 -0.213074,1.030192 -0.479339,2.065199 -1.171428,2.125748 -0.692103,0.06055 -2.289214,-0.864619 -2.82175,-1.350399 -0.532531,-0.48578 -0.638901,-0.849276 -1.384351,-0.996974 -0.745446,-0.147697 -2.449096,0.64026 -3.088006,0.749347 -0.638907,0.109088 -3.141348,-0.20435 -3.301075,-0.03065 -0.159731,0.173702 2.44909,0.903822 3.034809,1.172032 0.585729,0.26821 0.639075,0.689536 1.064908,0.918386 0.425828,0.228849 4.419001,1.05093 3.141184,2.813183 z m 15.600066,6.142335 c 1.277817,1.166021 9.903073,6.161579 9.903073,13.189568 0,7.027992 -6.282705,7.364894 -8.092889,7.310205 2.023267,1.526619 9.690165,0.536403 9.690165,-7.449948 0,-7.027984 -9.903079,-13.189567 -11.180891,-13.716675 -1.277818,-0.52711 -1.597275,-0.499161 -0.319458,0.66685 z"
     id="path10"
     style="fill:#fcd116;stroke-width:0.582546" />
  <g
     id="g12"
     style="fill:#f9f9f9;fill-opacity:1"
     transform="matrix(0.12580965,-0.01100692,0,0.12580965,15.065753,33.58741)">
    <path
       d="M 220.254,418.599 231.709,381.748 243.164,419 213,396.168 h 37.418 z"
       id="path14"
       style="fill:#f9f9f9;fill-opacity:1" />
    <path
       id="sl"
       d="m 192.418,178.496 -22.909,73.702 60.327,-44.862 H 155 L 215.327,253 Z"
       style="fill:#f9f9f9;fill-opacity:1" />
    <use
       xlink:href="#sl"
       x="-88"
       y="112.504"
       id="use17"
       width="100%"
       height="100%"
       style="fill:#f9f9f9;fill-opacity:1" />
    <use
       xlink:href="#sl"
       x="87.582001"
       y="104.504"
       id="use19"
       width="100%"
       height="100%"
       style="fill:#f9f9f9;fill-opacity:1" />
    <use
       xlink:href="#sl"
       y="264.504"
       id="use21"
       x="0"
       width="100%"
       height="100%"
       style="fill:#f9f9f9;fill-opacity:1" />
  </g>
  <path
     d="M 12.747616,58.554755 C 13.065644,30.042499 27.903762,21.118638 35.98432,21.118638 c 11.284687,0 15.945385,8.614845 16.70706,12.429058 0.761149,3.811034 5.032262,6.859331 6.404553,0.607964 1.37335,-6.251368 14.648892,-25.3139566 30.96531,-25.3139561 14.943067,0 20.118437,15.4100381 19.670547,28.5217961 -1.24666,35.676893 -47.212818,64.15469 -53.263297,82.13652 C 51.081101,108.63301 12.34372,92.88533 12.747616,58.554755 Z M 95.375488,0 C 81.956304,0 66.086184,9.9108075 56.480154,26.380939 53.888227,20.432758 44.653228,13.950821 33.675438,13.950821 24.829493,13.950821 0,25.006529 0,60.689252 c 0,46.050428 46.596379,55.509108 56.010533,69.822478 0.647186,0.98429 2.731859,1.72795 3.527458,-0.62386 C 67.077371,107.73193 125.33,82.647484 125.33,37.511913 125.32947,12.199018 108.79414,0 95.375488,0 Z"
     id="path8"
     style="stroke-width:0.530046;fill:#000000;fill-opacity:1" />
</svg>
