<?xml version="1.0" encoding="UTF-8" standalone="no"?>
<!-- Creator: CorelDRAW -->

<svg
   xml:space="preserve"
   width="125.33"
   height="131.45149"
   style="clip-rule:evenodd;fill-rule:evenodd;image-rendering:optimizeQuality;shape-rendering:geometricPrecision;text-rendering:geometricPrecision"
   viewBox="0 0 115.09981 78.150016"
   version="1.0"
   id="svg2"
   xmlns="http://www.w3.org/2000/svg"
   xmlns:svg="http://www.w3.org/2000/svg"
   xmlns:rdf="http://www.w3.org/1999/02/22-rdf-syntax-ns#"
   xmlns:cc="http://creativecommons.org/ns#"
   xmlns:dc="http://purl.org/dc/elements/1.1/"><metadata
     id="metadata162"><rdf:RDF><cc:Work
         rdf:about=""><dc:format>image/svg+xml</dc:format><dc:type
           rdf:resource="http://purl.org/dc/dcmitype/StillImage" /></cc:Work></rdf:RDF></metadata><defs
     id="defs4"><style
       type="text/css"
       id="style6"><![CDATA[
    .fil3 {fill:none}
    .fil22 {fill:#007CC3}
    .fil1 {fill:#0A0B0C}
    .fil13 {fill:#DEA817}
    .fil10 {fill:#EA952F}
    .fil5 {fill:#FFF500}
    .fil9 {fill:white}
    .fil0 {fill:#00D1FF}
    .fil6 {fill:black}
    .fil7 {fill:white}
    .fil14 {fill:#004F81}
    .fil21 {fill:#008ECA}
    .fil4 {fill:#00A13A}
    .fil15 {fill:#2C6693}
    .fil20 {fill:#52A2D2}
    .fil16 {fill:#5981A8}
    .fil17 {fill:#84A5C3}
    .fil19 {fill:#86BBDB}
    .fil18 {fill:#C3DCE3}
    .fil8 {fill:#DA251D}
    .fil2 {fill:#EB8A1B}
    .fil11 {fill:#F2B004}
    .fil12 {fill:#F9D000}
   ]]></style></defs><g
     id="Layer_x0020_1"><metadata
       id="CorelCorpID_0Corel-Layer" /><path
       style="clip-rule:evenodd;fill:#002674;fill-opacity:1;fill-rule:evenodd;stroke:none;stroke-width:0.149591px;stroke-linecap:butt;stroke-linejoin:miter;stroke-opacity:1;image-rendering:optimizeQuality;shape-rendering:geometricPrecision;text-rendering:geometricPrecision"
       d="M 11.841864,7.3393993 4.5720329,33.211382 11.841864,59.083364 52.253389,93.080427 64.227166,77.685516 96.085943,46.468103 110.62556,10.119046 92.664918,-17.249665 l -19.671262,2.13817 -11.332285,9.1941733 -9.407982,12.829087 -8.338906,-8.552713 -16.891584,-3.848722 z"
       id="path5065" /><path
       style="fill:#007c2e;fill-opacity:1;fill-rule:evenodd;stroke:none;stroke-width:0.486781px;stroke-linecap:butt;stroke-linejoin:miter;stroke-opacity:1"
       d="M 71.153033,-14.070296 60.339478,80.323032 102.46729,35.717118 106.2971,-5.9601297 84.669984,-18.801227 Z"
       id="path4167" /><path
       style="fill:#fcd022;fill-opacity:1;fill-rule:evenodd;stroke:none;stroke-width:0.486781px;stroke-linecap:butt;stroke-linejoin:miter;stroke-opacity:1"
       d="M 28.214716,-4.9173017 V 74.685703 L 51.786231,92.433071 76.352968,68.493616 v -83.026797 l -13.867407,8.1044543 -10.913314,14.337101 -6.633586,-9.415409 z"
       id="path4294" /><g
       id="g10"
       style="fill:#007c2e"
       transform="matrix(1.3371171,-0.11698258,0,1.337117,4.0827177,8.5082043)"><path
         d="m 32,34 4,8 4,-8 -4,-8 z"
         id="path12" /><path
         d="m 27,24 4,8 4,-8 -4,-8 z"
         id="path14" /><path
         d="m 37,24 4,8 4,-8 -4,-8 z"
         id="path16" /></g><path
       d="M 11.685182,32.48946 C 11.977245,6.3044923 25.604188,-1.8909597 33.025165,-1.8909597 c 10.36356,0 14.643824,7.911668 15.343322,11.4145469 0.699015,3.4999648 4.621503,6.2994468 5.88177,0.5583408 1.261256,-5.7411057 13.453171,-23.247726 28.437751,-23.247726 13.723304,0 18.476242,14.15219528 18.064902,26.18935 C 99.629923,45.792717 57.415795,71.946031 51.8592,88.460108 46.911554,78.458202 11.336149,64.000302 11.685182,32.48946 Z m 75.905194,-53.775266 c -12.323828,0 -26.898539,9.101843 -35.720465,24.2276123 C 49.489547,-2.5208627 41.008362,-8.4737077 30.926653,-8.4737077 22.802763,-8.4737077 0,1.6795843 0,34.449715 c 0,42.291603 42.788525,50.978231 51.438621,64.123286 0.594354,0.903946 2.508863,1.586899 3.239532,-0.572949 6.902062,-20.369385 60.421657,-43.384433 60.421657,-84.835824 -4.8e-4,-23.246759 -15.186105,-34.450034 -27.509434,-34.450034 z"
       id="path29"
       style="clip-rule:evenodd;opacity:1;fill-rule:evenodd;stroke-width:0.530046;image-rendering:optimizeQuality;shape-rendering:geometricPrecision;text-rendering:geometricPrecision" /></g></svg>
