<?xml version="1.0" encoding="utf-8"?>
<svg id="LOGO_LAYER" viewBox="0 0 125.32031 131.44201" version="1.1" width="125.32031" height="131.44202" xmlns="http://www.w3.org/2000/svg">
  <g id="LOGO_GROUP" transform="translate(-232.75687,-97.8772)">
    <g id="SELECT_FLAG_HERE">
      <g id="ICELAND">
        <path d="M 290.277 220.689 C 189.304 140.654 265.129 95.487 288.987 129.609 C 342.994 61.304 390.445 124.524 290.277 220.689 Z" fill="#02529c" id="path1"/>
        <path d="M 341.007 145.063 C 341.607 144.064 340.036 163.539 328.77 169.347 L 292.051 173.206 L 292.051 211.818 C 294.386 236.872 270.341 201.474 269.053 199.126 L 269.053 175.623 L 250.668 177.556 C 245.701 175.46 243.73 154.84 245.516 155.099 L 269.053 152.625 L 269.053 119.011 C 267.912 112.137 281.418 120.03 292.051 130.222 L 292.051 150.208 L 341.007 145.063 Z" id="path6" style="fill: rgb(255, 255, 255);"/>
        <path d="M 286.301 131.622 C 286.257 130.899 283.342 120.998 274.802 118.969 L 274.802 157.771 L 245.654 160.834 C 242.946 160.807 245.616 172.122 248.207 172.065 L 274.802 169.27 L 274.802 204.873 C 279.399 208.56 283.535 211.729 286.301 214.554 L 286.301 168.061 L 332.935 163.16 C 335.419 162.923 340.976 151.273 339.083 151.015 L 286.301 156.562 L 286.301 131.622 Z" fill="#dc1e35" id="path9"/>
      </g>
    </g>
    <g id="CHANGE_GROUP_FILL_COLOUR">
      <path id="HEART_SHAPE" d="m 328.12497,97.8772 c -13.41791,0 -29.28711,9.91016 -38.8916,26.37885 -2.59277,-5.9477 -11.82617,-12.42865 -22.80365,-12.42865 -8.84473,0 -33.67285,11.05468 -33.67285,46.73486 0,46.04834 46.58832,55.50629 56.00635,69.81689 0.64697,0.98529 2.73187,1.72852 3.52685,-0.62408 7.51465,-22.17871 65.78711,-47.23627 65.78711,-92.36908 0,-25.31104 -16.53418,-37.50879 -29.95221,-37.50879 z m 14.33209,37.35699 c -1.22168,35.67817 -47.18554,64.15375 -53.23638,82.1352 -5.38666,-10.8916 -44.12061,-26.63281 -43.74067,-60.9419 0.31787,-28.50982 15.15528,-37.4331 23.23487,-37.4331 11.28375,0 15.94433,8.61377 16.70599,12.42816 0.76135,3.81164 5.03223,6.85944 6.4043,0.6084 1.37311,-6.25086 14.6485,-25.31201 30.96295,-25.31201 14.94238,0 20.11719,15.40875 19.66894,28.51525 z"/>
    </g>
  </g>
</svg>