<?xml version="1.0" encoding="utf-8"?>
<svg id="LOGO_LAYER" viewBox="0 0 125.33 131.4429" version="1.1" width="125.33" height="131.4429" xmlns="http://www.w3.org/2000/svg" xmlns:bx="https://boxy-svg.com"><defs id="defs1"><style id="style1">.cls-1{fill:#0054a6;}.cls-2{fill:#f7941e;}.cls-3{fill:#ed1b35;}</style><circle id="rb" r="145.663293" fill="none" stroke="#013ba6" stroke-width="39.030362"/><circle id="rw" r="145.663293" fill="none" stroke="#fff" stroke-width="17.346827"/></defs><g><path class="cls-1" d="M 110.737 38.467 C 112.009 -21.824 57.077 20.984 56.84 31.818 C 56.792 34.001 55.274 33.689 54.797 32.068 C 47.024 5.66 -2.062 22.068 12.652 69.669 C 14.165 74.565 18.255 84.048 20.857 87.657 C 61.507 144.043 59.871 121.233 90.858 80.053 C 99.77 68.209 110.448 52.166 110.737 38.467 Z" id="path2" style="fill: rgb(255, 255, 255);"/><path d="M 95.36 0 C 81.94 0 66.07 9.91 56.47 26.38 C 53.88 20.43 44.64 13.95 33.67 13.95 C 24.83 13.95 0 25 0 60.68 C 0 106.73 46.59 116.19 56.01 130.5 C 56.66 131.49 58.74 132.23 59.54 129.88 C 67.05 107.7 125.33 82.64 125.33 37.51 C 125.33 12.2 108.8 0 95.38 0 L 95.36 0 Z M 109.69 37.36 C 109.68 37.72 109.65 38.08 109.63 38.43 C 108.71 53.87 99.51 67.95 88.96 80.39 C 75.48 96.28 59.81 109.51 56.45 119.49 C 52.87 112.25 34.58 102.88 22.81 87.34 C 16.86 79.49 12.58 70.07 12.71 58.55 C 12.75 54.89 13.03 51.57 13.51 48.53 C 16.73 27.9 28.9 21.11 35.95 21.11 C 47.23 21.11 51.89 29.72 52.66 33.54 C 53.42 37.35 57.69 40.4 59.06 34.15 C 60.43 27.9 73.71 8.84 90.02 8.84 C 104.96 8.84 110.14 24.25 109.69 37.36 Z" id="path4" style=""/></g><g transform="matrix(0.374232, 0, 0, 0.374232, 14.903249, 19.632309)" id="g13936"><g transform="matrix(1.8031,-2.8624,2.7047,1.5665,106.48,121.59)" id="g13928"><g id="b2"><path id="b" d="M -6,-25 H 6 m -12,3 H 6 m -12,3 H 6" stroke="#0b0e0e" stroke-width="2"/><path id="use13919" d="M -6,-25 H 6 m -12,3 H 6 m -12,3 H 6" stroke="#0b0e0e" stroke-width="2" transform="matrix(1, 0, 0, 1, 0, 44)"/></g><path d="M 0,17 V 27" stroke="#f9f9f9" id="path13922"/><circle r="12" fill="#cd2e3a" id="circle13924" cx="0" cy="0"/><path d="M 0,-12 A 6,6 0 0 0 0,0 6,6 0 0 1 0,12 12,12 0 0 1 0,-12 Z" fill="#0047a0" id="path13926"/></g><g transform="matrix(-1.8031,-2.5469,2.7047,-2.0398,106.48,121.59)" id="g13934"><g id="use13930"><path d="M -6,-25 H 6 m -12,3 H 6 m -12,3 H 6" stroke="#0b0e0e" stroke-width="2"/><path d="M -6,-25 H 6 m -12,3 H 6 m -12,3 H 6" stroke="#0b0e0e" stroke-width="2" transform="matrix(1, 0, 0, 1, 0, 44)"/></g><path d="m 0,-23.5 v 3 M 0,17 v 3.5 m 0,3 v 3" stroke="#f9f9f9" id="path13932"/></g></g></svg>