<?xml version="1.0" encoding="utf-8"?>
<svg id="LOGO_LAYER" viewBox="0 0 125.33 131.4429" version="1.1" width="125.33" height="131.4429" xmlns="http://www.w3.org/2000/svg">
  <defs id="defs1">
    <style id="style1">.cls-1{fill:#f9f9f9;}.cls-2{fill:#0d5eaf;}</style>
  </defs>
  <g id="LOGO_GROUP" transform="translate(-232.76,-97.88)">
    <g id="SELECT_FLAG_HERE">
      <g id="BLACK_FLAG">
        <path class="cls-1" d="M 278.97 207.2 L 297.01 205.28 C 302.389 201.32 305.332 197.05 308.78 192.47 L 266.58 196.95 C 269.155 202.28 273.927 205.289 278.96 207.19 L 278.97 207.2 Z" id="path1"/>
        <path class="cls-1" d="M 272.67 173.2 L 272.67 150.09 L 295.53 147.66 L 295.53 136.11 L 272.67 138.54 L 272.67 119.39 C 271.45 119.14 270.13 119 268.71 119 C 266.56 119 263.94 119.64 261.24 121.1 L 261.24 139.76 L 247.34 141.24 C 246.45 144.67 245.84 148.57 245.6 152.98 L 261.24 151.32 L 261.24 174.43 L 249.72 175.65 C 247.376 175.538 254.565 186.719 256.56 186.48 L 320.53 179.68 C 323.781 179.606 332.203 167.362 330.38 167.08 L 272.69 173.21 L 272.67 173.2 Z" id="path2"/>
        <path class="cls-1" d="M 295.54 159.22 L 337.5 154.76 C 340.124 155.1 342.91 142.878 341.54 142.77 L 295.55 147.66 L 295.55 159.22 L 295.54 159.22 Z" id="path3"/>
        <path class="cls-1" d="M 295.54 124.55 L 295.54 136.11 L 342.41 131.13 C 344.014 131.282 342.379 118.985 340.13 119.82 L 295.54 124.56 L 295.54 124.55 Z" id="path4"/>
        <path class="cls-2" d="M 266.59 196.96 L 308.79 192.48 C 314.216 188.122 319.581 184.089 320.52 179.68 L 256.55 186.48 C 254.551 186.864 261.234 194.026 266.59 196.97 L 266.59 196.96 Z" id="path5"/>
        <path class="cls-2" d="M 289.23 219.961 C 289.23 219.961 299.389 206.978 297.02 205.29 L 278.98 207.21 C 278.073 208.872 289.23 219.961 289.23 219.961 Z" id="path6"/>
        <path class="cls-2" d="M 261.24 120.09 C 253.949 121.766 244.589 139.726 247.34 141.22 L 261.24 139.74 L 261.24 120.09 Z" id="path7"/>
        <path class="cls-2" d="M 261.24 151.31 L 245.6 152.97 C 243.246 154.09 245.037 169.97 249.72 175.64 L 261.24 174.42 L 261.24 151.31 Z" id="path8"/>
        <path class="cls-2" d="M 295.54 136.11 L 295.54 124.55 L 340.13 119.81 C 343.154 114.295 332.271 105.845 322.951 105.914 C 306.641 106.034 289.14 127.871 289.14 127.871 C 289.14 127.871 281.12 121.09 272.68 119.38 L 272.68 138.53 L 295.54 136.1 L 295.54 136.11 Z" id="path9"/>
        <path class="cls-2" d="M 295.54 147.66 L 272.68 150.09 L 272.68 173.2 L 295.54 170.77 L 330.37 167.07 C 335.5 163.705 336.908 159.203 337.49 154.76 L 295.53 159.22 L 295.53 147.66 L 295.54 147.66 Z" id="path10"/>
        <path class="cls-2" d="M 295.54 147.66 L 341.53 142.77 C 344.141 142.871 344.791 131.21 342.4 131.12 L 295.53 136.1 L 295.53 147.65 L 295.54 147.66 Z" id="path11"/>
        <path d="m 328.12,97.88 c -13.42,0 -29.29,9.91 -38.89,26.38 -2.59,-5.95 -11.83,-12.43 -22.8,-12.43 -8.84,0 -33.67,11.05 -33.67,46.73 0,46.05 46.59,55.51 56.01,69.82 0.65,0.99 2.73,1.73 3.53,-0.62 7.51,-22.18 65.79,-47.24 65.79,-92.37 0,-25.31 -16.53,-37.51 -29.95,-37.51 z m 14.33,37.36 c -0.09,2.55 -0.41,5.06 -0.92,7.54 -0.85,4.1 -2.24,8.1 -4.04,11.99 -1.96,4.24 -4.39,8.34 -7.12,12.31 -3.01,4.37 -6.37,8.57 -9.85,12.6 -3.88,4.49 -7.9,8.76 -11.73,12.8 -4.34,4.57 -8.42,8.85 -11.77,12.81 -3.75,4.43 -6.58,8.47 -7.8,12.08 -1.46,-2.94 -5.35,-6.24 -10.25,-10.17 -3.75,-3.01 -8.09,-6.38 -12.38,-10.24 -3.5,-3.15 -6.96,-6.62 -10.04,-10.49 -2.64,-3.31 -4.99,-6.91 -6.84,-10.83 -2.68,-5.68 -4.32,-12.04 -4.24,-19.21 0.01,-1.19 0.06,-2.34 0.12,-3.46 0.25,-4.41 0.86,-8.31 1.74,-11.74 2.85,-11.04 8.52,-17.23 13.9,-20.13 2.7,-1.46 5.33,-2.1 7.47,-2.1 1.42,0 2.74,0.14 3.96,0.39 8.44,1.71 12.08,8.71 12.75,12.04 0.76,3.81 5.03,6.86 6.4,0.61 1.37,-6.25 14.65,-25.31 30.96,-25.31 9.08,0 14.55,5.69 17.34,13.09 1.33,3.53 2.06,7.44 2.28,11.31 0.08,1.38 0.1,2.76 0.05,4.11 z" id="path12"/>
      </g>
    </g>
  </g>
</svg>