<svg xmlns="http://www.w3.org/2000/svg" width="512" height="512" fill="none"><path fill="var(--flag-palette-bright-red, #d80027)" d="M128 477.8A255 255 0 0 0 256 512c46.6 0 90.3-12.5 128-34.2V34.2A255 255 0 0 0 256 0c-46.6 0-90.3 12.5-128 34.2z"/><path fill="#333" d="M0 256A256 256 0 0 1 144 25.6v460.6A256 256 0 0 1 0 256"/><path fill="var(--flag-palette-dark-green, #496e2d)" d="M512 256A256 256 0 0 0 368 25.7v460.6A256 256 0 0 0 512 256"/><path fill="var(--flag-palette-yellow, #ffda44)" d="M256 167a89 89 0 1 0 0 178 89 89 0 0 0 0-178m0 144.7a55.7 55.7 0 1 1 0-111.4 55.7 55.7 0 0 1 0 111.4"/><path fill="var(--flag-palette-yellow, #ffda44)" d="M256 222.6c-12.3 0-22.3 10-22.3 22.3v33.4h44.6v-33.4c0-12.3-10-22.3-22.3-22.3"/></svg>