<svg xmlns="http://www.w3.org/2000/svg" width="512" height="512" fill="none"><g fill-rule="evenodd" clip-path="url(#a)" clip-rule="evenodd"><path fill="#EEE" d="M285 1.6v508.8q-14.4 1.6-29 1.6A256 256 0 1 1 285 1.6"/><path fill="var(--flag-palette-bright-red, #d80027)" d="M256 512a256 256 0 0 0 256-255.7v-.6A256 256 0 0 0 153.6 21.3l74.7 29.9-128 51.2 128 51.2-128 51.2 128 51.2-128 51.2 128 51.2-128 51.2 128 51.2-74.7 29.9A255 255 0 0 0 256 512"/></g><defs><clipPath id="a"><path fill="#fff" d="M0 0h512v512H0z"/></clipPath></defs></svg>