<svg xmlns="http://www.w3.org/2000/svg" width="512" height="512" fill="none"><path fill="var(--flag-palette-green, #6da544)" d="M0 245.6A255 255 0 0 1 74.9 74.9L256 256 74.9 437.1A255 255 0 0 1 0 266.4z"/><path fill="var(--flag-palette-bright-red, #d80027)" d="M266.4 0a255 255 0 0 1 170.7 74.9L256 256 74.9 74.9A255 255 0 0 1 245.6 0z"/><path fill="var(--flag-palette-green, #6da544)" d="M512 266.4a255 255 0 0 1-74.9 170.7L256 256 437.1 74.9A255 255 0 0 1 512 245.6z"/><path fill="var(--flag-palette-bright-red, #d80027)" d="M245.6 512a255 255 0 0 1-170.7-74.9L256 256l181.1 181.1A255 255 0 0 1 266.4 512z"/><path fill="#EEE" d="M459.4 100.6 304 256l155.4 155.4q-20.9 27.1-48 48L256 304 100.6 459.4q-27.2-20.9-48-48L208 256 52.6 100.6q20.8-27.2 48-48L256 208 411.4 52.6q27.1 20.8 48 48"/><path fill="#EEE" d="M384 256a128 128 0 1 0-256 0 128 128 0 0 0 256 0"/><path fill="var(--flag-palette-bright-red, #d80027)" d="m265.6 172.6-9.6-16.7-9.6 16.7H227l9.6 16.6-9.6 16.7h19.3l9.6 16.7 9.6-16.7H285l-9.6-16.7 9.6-16.6zM323.4 306h19.3l-9.6-16.6 9.6-16.7h-19.3l-9.6-16.7-9.6 16.7h-19.3l9.6 16.7L285 306h19.3l9.6 16.7zM179 289.4l-9.7 16.7h19.2l9.7 16.7 9.6-16.7h19.3l-9.6-16.7 9.6-16.7h-19.3l-9.6-16.7-9.7 16.7h-19.2z"/></svg>