<svg xmlns="http://www.w3.org/2000/svg" width="512" height="512" fill="none"><circle cx="256" cy="256" r="256" fill="#F0F"/><path fill="var(--flag-palette-green, #6da544)" fill-rule="evenodd" d="M255.6 512A256 256 0 0 1 4 300.6h504A256 256 0 0 1 256.4 512z" clip-rule="evenodd"/><path fill="var(--flag-palette-dark-red, #a2001d)" fill-rule="evenodd" d="M496 345a256 256 0 1 0-480.2 0z" clip-rule="evenodd"/><path fill="var(--flag-palette-dark-red, #a2001d)" fill-rule="evenodd" d="M102.4 460.8A256 256 0 0 1 0 256C0 172.2 40.2 97.9 102.4 51.2z" clip-rule="evenodd"/><path fill="var(--flag-palette-bright-white, #fcfcfc)" fill-rule="evenodd" d="m102.4 358.4-25.6 50.8 25.6 51.6zm0-102.4-25.6 50.8 25.6 51.6zm0-102.4-25.6 50.8 25.6 51.6zm0-102.4v102.4L76.8 102zM0 256q.2-41.1 12.2-78.2l13.4 26.6zm51.2 0 25.6-51.6-25.6-50.8-25.6 50.8zm0 102.4 25.6-51.6L51.2 256l-25.6 50.8L0 256q.1 41 12.1 78l13.5-27.2zm0 0-14.8 29.3a257 257 0 0 0 30.7 41l9.7-19.5zM36.6 124.1a257 257 0 0 1 30.7-41l9.5 18.9-25.6 51.6z" clip-rule="evenodd"/></svg>