<svg xmlns="http://www.w3.org/2000/svg" width="512" height="512" fill="none"><circle cx="256" cy="256" r="256" fill="var(--flag-palette-blue, #0052b4)"/><path fill="var(--flag-palette-dark-red, #a2001d)" fill-rule="evenodd" d="M398.8 44.5A255 255 0 0 0 256 1c-52.9 0-102 16-142.8 43.5zM233.2 512a255 255 0 0 1-123-44.5h291.6a255 255 0 0 1-123 44.5z" clip-rule="evenodd"/><path fill="#EEE" d="M256 378.4a122.4 122.4 0 1 0 0-244.8 122.4 122.4 0 0 0 0 244.8"/><path fill="var(--flag-palette-green, #6da544)" d="M256 356.2a100.2 100.2 0 1 0 0-200.4 100.2 100.2 0 0 0 0 200.4"/><path fill="#EEE" d="M256 322.8a66.8 66.8 0 1 0 0-133.6 66.8 66.8 0 0 0 0 133.6"/><path fill="var(--flag-palette-blue, #0052b4)" d="M256 239.3 219.8 256v27.8l36.2 22.3 36.2-22.3V256z"/><path fill="var(--flag-palette-dark-yellow, #ffc635)" d="M219.8 222.6h72.4V256h-72.4z"/></svg>