<svg xmlns="http://www.w3.org/2000/svg" width="512" height="512" fill="none"><circle cx="256" cy="256" r="256" fill="var(--flag-palette-blue, #0052b4)"/><path fill="#EEE" fill-rule="evenodd" d="M477.8 384A255 255 0 0 0 512 256H0c0 46.6 12.5 90.3 34.2 128z" clip-rule="evenodd"/><path fill="var(--flag-palette-bright-red, #d80027)" fill-rule="evenodd" d="M14.6 341.3q-7.4-20.6-11-42.6h504.9q-3.8 22.1-11 42.6z" clip-rule="evenodd"/><path fill="var(--flag-palette-dark-yellow, #ffc635)" d="m223.9 440.3-5.3-16.3-5.3 16.3H196l13.9 10-5.3 16.3 13.9-10 13.8 10-5.3-16.3 13.9-10zM104 357.5l-5.2-16.3-5.3 16.3H76.4l13.8 10-5.3 16.3 13.9-10 13.9 10-5.3-16.2 13.8-10.1zm-1.3-85.1-5.3-16.3-5.3 16.3H75l13.8 10-5.3 16.3 13.9-10 13.8 10-5.3-16.3 14-10zm242.3 0-5.3-16.2-5.3 16.2h-17.2l13.9 10-5.3 16.3 13.9-10 13.8 10-5.3-16.3 13.9-10zm-1.6 85.1-5.3-16.2-5.3 16.2h-17.1l13.8 10-5.3 16.3 13.9-10 13.8 10-5.2-16.3 13.8-10zM218.5 168.6l5.3 16.3h17.1L227.1 195l5.3 16.3-13.9-10-13.9 10L210 195l-13.8-10h17.1zM143.6 193l5.3 16.2H166l-13.8 10.1 5.3 16.3-13.9-10-13.9 10 5.3-16.3-13.8-10h17.1zm155 223-5.3-16.3L288 416h-17.1l13.8 10.1-5.3 16.3 13.9-10 13.9 10-5.3-16.3 13.8-10zm-147.1 2-5.3-16.3L141 418h-17.1l13.8 10-5.2 16.3 13.8-10 13.9 10-5.3-16.3 13.8-10zm144.9-210.6-5.3-16.3-5.3 16.3h-17l13.8 10-5.3 16.3 13.8-10 13.9 10-5.3-16.3 13.9-10z"/></svg>