<svg xmlns="http://www.w3.org/2000/svg" width="512" height="512" fill="none"><path fill="var(--flag-palette-blue, #0052b4)" d="M0 245.6A256 256 0 0 1 256 0v256H0z"/><path fill="var(--flag-palette-bright-red, #d80027)" d="M266.4 0A256 256 0 0 1 512 255.8v.2H256V0z"/><path fill="var(--flag-palette-blue, #0052b4)" d="M512 266.4A256 256 0 0 1 256.2 512h-.2V256h256z"/><path fill="var(--flag-palette-bright-red, #d80027)" d="M245.6 512A256 256 0 0 1 0 256h256v256z"/><path fill="#EEE" d="M288 2q16.4 2 32 6v184h184q4 15.6 6 32l-30 32 30 32a255 255 0 0 1-6 32H320v184a255 255 0 0 1-32 6l-32-30-32 30a255 255 0 0 1-32-6V320H8a255 255 0 0 1-6-32l30-32-30-32q2-16.4 6-32h184V8q15.6-4 32-6l32 30z"/><path fill="#EEE" d="M288 2q-15.5-2-31.5-2h-1q-16 0-31.5 2v222H2a259 259 0 0 0 0 64h222v222a259 259 0 0 0 64 0V288h222a258 258 0 0 0 0-64H288z"/><path fill="var(--flag-palette-bright-red, #d80027)" d="M208 205.4v53.3a48 48 0 1 0 96 0v-53.3z"/><path fill="var(--flag-palette-blue, #0052b4)" fill-rule="evenodd" d="M208 256h48v-50.6h-48zm96 0h-48v50.6h.1a48 48 0 0 0 47.9-48z" clip-rule="evenodd"/><path fill="var(--flag-palette-green, #6da544)" fill-rule="evenodd" d="m240.9 245.8-1.5 4.8a17.5 17.5 0 1 0 33.2 0l-1.5-4.8 9.5-3 1.6 4.7a27.5 27.5 0 1 1-52.4 0l1.6-4.8z" clip-rule="evenodd"/></svg>