<svg xmlns="http://www.w3.org/2000/svg" width="512" height="512" fill="none"><path fill="#EEE" d="M482.2 376c19-35.8 29.8-76.6 29.8-120s-10.8-84.2-29.8-120H29.8A255 255 0 0 0 0 256c0 43.4 10.8 84.2 29.8 120z"/><path fill="#333" d="M496.5 344a256.1 256.1 0 0 1-481 0z"/><path fill="var(--flag-palette-bright-red, #d80027)" d="M496.5 168h-481a256.1 256.1 0 0 1 481 0"/><path fill="var(--flag-palette-brown, #85693d)" fill-rule="evenodd" d="M272.5 224.2a28 28 0 0 0-28.4-23.9c-7.3 0-13.9 2.6-19 6.9 8.8 1 15.6 8.1 15.6 16.8v.3L195 218a5 5 0 0 0-5.7 5v79.5a22.4 22.4 0 0 0 22.3-22v.7c6.5 0 12.3-2.7 16.4-7l3.3 4.4-19.7 33h89l-19.7-33 3.3-4.4c4 4.3 10 7 16.4 7v-.8c0 11.8 10 22 22.3 22V223a5 5 0 0 0-5.7-5z" clip-rule="evenodd"/></svg>