<svg xmlns="http://www.w3.org/2000/svg" width="512" height="512" fill="none"><path fill="var(--flag-palette-light-blue, #338af3)" d="M256 512a256 256 0 0 0 256-255.5v-.5l-256-32L0 256a256 256 0 0 0 256 256"/><path fill="var(--flag-palette-green, #6da544)" d="M512 255.5v.5H0a256 256 0 0 1 512-.5"/><path fill="var(--flag-palette-bright-red, #d80027)" fill-rule="evenodd" d="M102.4 51.2 512 256 102.4 460.8A256 256 0 0 1 0 256C0 172.3 40.2 97.9 102.4 51.2" clip-rule="evenodd"/><path fill="var(--flag-palette-yellow, #ffda44)" d="M133.6 150.3c-49.1 0-89 40-89 89v33.4a89.1 89.1 0 0 0 178 0v-33.4c0-49-40-89-89-89m55.6 122.4c0 24.9-16.4 46-39 53v-36.3l23.7-23.6-23.6-23.6v-19.6h-33.4V256l-23.6 23.6 23.6 23.6v22.6a56 56 0 0 1-39-53.1v-33.4a55.7 55.7 0 0 1 111.3 0z"/></svg>