<svg xmlns="http://www.w3.org/2000/svg" width="512" height="512" fill="none"><circle cx="256" cy="256" r="256" fill="#EEE"/><path fill="var(--flag-palette-bright-red, #d80027)" d="M288 2q-15.5-2-31.5-2h-1q-16 0-31.5 2v222H2a259 259 0 0 0 0 64h222v222a259 259 0 0 0 64 0V288h222a258 258 0 0 0 0-64H288z"/><path fill="var(--flag-palette-bright-red, #d80027)" d="M128 96v32H96v32h32v32h32v-32h32v-32h-32V96zm224 0v32h-32v32h32v32h32v-32h32v-32h-32V96zM128 320v32H96v32h32v32h32v-32h32v-32h-32v-32zm224 0v32h-32v32h32v32h32v-32h32v-32h-32v-32z"/></svg>