<svg xmlns="http://www.w3.org/2000/svg" width="512" height="512" fill="none"><path fill="var(--flag-palette-yellow, #ffda44)" d="M482.2 376c19-35.8 29.8-76.6 29.8-120s-10.8-84.2-29.8-120H29.8A255 255 0 0 0 0 256c0 43.4 10.8 84.2 29.8 120z"/><path fill="var(--flag-palette-dark-green, #496e2d)" d="M496.5 344a256.1 256.1 0 0 1-481 0z"/><path fill="var(--flag-palette-bright-red, #d80027)" d="M496.5 168h-481a256.1 256.1 0 0 1 481 0"/><path fill="#333" d="m256 167 22.1 68h71.5l-57.8 42 22 68-57.8-42-57.9 42 22.1-68-57.8-42h71.5z"/></svg>