<svg xmlns="http://www.w3.org/2000/svg" width="512" height="512" fill="none"><path fill="#EEE" d="M482.2 376c19-35.8 29.8-76.6 29.8-120s-10.8-84.2-29.8-120H29.8A255 255 0 0 0 0 256c0 43.4 10.8 84.2 29.8 120z"/><path fill="var(--flag-palette-bright-red, #d80027)" d="M496.5 344a256.1 256.1 0 0 1-481 0z"/><path fill="var(--flag-palette-green, #6da544)" d="M496.5 168h-481a256.1 256.1 0 0 1 481 0"/><path fill="var(--flag-palette-blue, #0052b4)" d="M0 245.6A255 255 0 0 1 74.9 74.9L256 256 74.9 437.1A255 255 0 0 1 0 266.4z"/><path fill="var(--flag-palette-mid-grey-2, #bdbcc1)" d="M300.5 211.5V267c0 34.1 44.5 44.6 44.5 44.6s44.6-10.5 44.6-44.6v-55.6z"/><path fill="var(--flag-palette-brown, #85693d)" d="M334 257.1h22.2v32.3h-22.3z"/><path fill="var(--flag-palette-green, #6da544)" d="M367.3 244.9a22.3 22.3 0 1 0-44.5 0 11.1 11.1 0 1 0 0 22.2h44.5a11.1 11.1 0 1 0 0-22.2"/></svg>