<svg xmlns="http://www.w3.org/2000/svg" width="512" height="512" fill="none"><circle cx="256" cy="256" r="256" fill="var(--flag-palette-light-blue, #338af3)"/><path fill="#EEE" fill-rule="evenodd" d="M504 192q7.9 30.8 8 64H0q.1-33.2 8-64zM425.2 64c20.8 18.3 38.5 40 52.5 64H34.2c14-24 31.7-45.7 52.5-64zm52.5 320a254 254 0 0 0 26.1-64H8.1a254 254 0 0 0 26.1 64zm-52.5 64H86.7A255 255 0 0 0 256 512a255 255 0 0 0 169.3-64" clip-rule="evenodd"/><path fill="var(--flag-palette-light-blue, #338af3)" fill-rule="evenodd" d="M8 320q-7.9-30.8-8-64A256 256 0 0 1 320 8v312z" clip-rule="evenodd"/><path fill="#EEE" fill-rule="evenodd" d="M128 34.2a254 254 0 0 1 64-26.1V128h128v64H192v128h-64V192H8a254 254 0 0 1 26.2-64H128z" clip-rule="evenodd"/></svg>