<svg xmlns="http://www.w3.org/2000/svg" width="512" height="512" fill="none"><path fill="var(--flag-palette-green, #6da544)" d="M256 512a256 256 0 0 0 256-255.5v-.5l-256-32L0 256a256 256 0 0 0 256 256"/><path fill="var(--flag-palette-yellow, #ffda44)" d="M512 255.5v.5H0a256 256 0 0 1 512-.5"/><path fill="var(--flag-palette-bright-red, #d80027)" fill-rule="evenodd" d="M189.2 503.2a256.1 256.1 0 0 1 0-494.4z" clip-rule="evenodd"/><path fill="#333" d="m94.6 182 16.6 51.2H165l-43.4 31.5 16.6 51.1-43.5-31.6-43.4 31.6 16.6-51-43.5-31.6H78z"/></svg>