<svg xmlns="http://www.w3.org/2000/svg" width="512" height="512" fill="none"><circle cx="256" cy="256" r="256" fill="var(--flag-palette-green, #6da544)"/><path fill="var(--flag-palette-yellow, #ffda44)" fill-rule="evenodd" d="M102.4 51.2A256 256 0 0 0 0 256c0 83.7 40.2 158.1 102.4 204.8L512 256z" clip-rule="evenodd"/><path fill="#EEE" fill-rule="evenodd" d="M102.4 51.2 512 256 102.4 460.8a257 257 0 0 1-21.4-18L454.8 256 81 69.1q10.3-9.5 21.4-18" clip-rule="evenodd"/><path fill="var(--flag-palette-bright-red, #d80027)" fill-rule="evenodd" d="M75 75A255 255 0 0 0 0 256c0 70.7 28.7 134.7 75 181l181-181z" clip-rule="evenodd"/><path fill="#333" fill-rule="evenodd" d="M75 75q-9 9-17.2 19l162 162-162 162q8 10 17.2 19l181-181z" clip-rule="evenodd"/></svg>