<svg xmlns="http://www.w3.org/2000/svg" width="512" height="512" fill="none"><path fill="#EEE" d="M482.2 376c19-35.8 29.8-76.6 29.8-120s-10.8-84.2-29.8-120H29.8A255 255 0 0 0 0 256c0 43.4 10.8 84.2 29.8 120z"/><path fill="var(--flag-palette-blue, #0052b4)" d="M496.5 344a256.1 256.1 0 0 1-481 0z"/><path fill="var(--flag-palette-bright-red, #d80027)" d="M496.5 168h-481a256.1 256.1 0 0 1 481 0"/><path fill="var(--flag-palette-light-blue, #338af3)" d="M338.5 181.7h-55l9.2-68.7 36.6-27.5L366 113v55zm-165 0h55l-9.2-68.7-36.6-27.5L146 113v55z"/><path fill="var(--flag-palette-blue, #0052b4)" d="M292.7 181.7h-73.4V113L256 85.5l36.7 27.5z"/><path fill="#EEE" d="M146 168v110a110 110 0 0 0 220 0V168z"/><path fill="#EEE" d="M146 168v110a110 110 0 0 0 220 0V168z"/><path fill="var(--flag-palette-bright-red, #d80027)" fill-rule="evenodd" d="M146 212h44v44h44v-44h-44v-44h-44zm88-44v44h44v44h44v-44h44v-44h-44v44h-44v-44zm132 88h-44v44h-44v-44h-44v44h44v44h-44v41.8q10.6 2.1 21.9 2.2h.2q11.3 0 21.9-2.2V344h44v22q12.5-9.5 22-22h-22v-44h41.8q2.1-10.7 2.2-22zM190 366v-22h44v-44h-44v-44h-44v22q0 11.3 2.2 22H190v44h-22q9.5 12.5 22 22" clip-rule="evenodd"/></svg>