<svg xmlns="http://www.w3.org/2000/svg" width="512" height="512" fill="none"><path fill="var(--flag-palette-dark-red, #a2001d)" d="M256 512a256 256 0 0 0 256-255.5v-.5l-256-32L0 256a256 256 0 0 0 256 256"/><path fill="var(--flag-palette-blue, #0052b4)" d="M512 255.5v.5H0a256 256 0 0 1 512-.5"/><path fill="#EEE" d="m352 328-96-12-96 12V184h192z"/><path fill="var(--flag-palette-blue, #0052b4)" d="M256 316a48 48 0 1 0 0-96 48 48 0 0 0 0 96"/><path fill="var(--flag-palette-dark-red, #a2001d)" d="M256 292a24 24 0 1 0 0-48 24 24 0 0 0 0 48"/><path fill="#EEE" d="M222 234a48 48 0 0 1 68 0l-34 34z"/><path fill="var(--flag-palette-dark-green, #496e2d)" d="M220 208h72l-36 36z"/><path fill="var(--flag-palette-dark-yellow, #ffc635)" d="M244 232h24v72h-24z"/><path fill="var(--flag-palette-dark-green, #496e2d)" d="M295 296h-78l-57 32h192z"/></svg>