<svg xmlns="http://www.w3.org/2000/svg" width="512" height="512" fill="none"><path fill="#EEE" d="M482.2 376c19-35.8 29.8-76.6 29.8-120s-10.8-84.2-29.8-120H29.8A255 255 0 0 0 0 256c0 43.4 10.8 84.2 29.8 120z"/><path fill="#333" d="M496.5 344a256.1 256.1 0 0 1-481 0z"/><path fill="var(--flag-palette-dark-red, #a2001d)" d="M496.5 168h-481a256.1 256.1 0 0 1 481 0"/><path fill="var(--flag-palette-dark-green, #496e2d)" fill-rule="evenodd" d="M194.8 239.3h-49.4a22 22 0 0 1 21.6-16.7v-33.4c-30.7 0-55.7 25-55.7 55.7v27.8h83.5c3 0 5.5 2.5 5.5 5.6v11H89v33.5h144.7v-44.5a39 39 0 0 0-39-39m83.5 50v-100h-33.4v133.5h55.6v-33.4zm111.3-100v100h22.2v33.5h-100V256H345v33.4h11.2V189.2z" clip-rule="evenodd"/></svg>