<svg xmlns="http://www.w3.org/2000/svg" width="512" height="512" fill="none"><g clip-path="url(#a)"><path fill="#EEE" fill-rule="evenodd" d="M256 512a256 256 0 1 0 0-512 256 256 0 0 0 0 512" clip-rule="evenodd"/><path fill="var(--flag-palette-bright-red, #d80027)" fill-rule="evenodd" d="M499.5 335.3a256.1 256.1 0 0 1-487 0z" clip-rule="evenodd"/><path fill="var(--flag-palette-dark-green, #496e2d)" fill-rule="evenodd" d="M12.5 176.7a256.1 256.1 0 0 1 487 0z" clip-rule="evenodd"/><path fill="var(--flag-palette-bright-red, #d80027)" d="M271.8 201h-32v16h32zm-43.9 87a58 58 0 0 1-15.5-44 37 37 0 0 0-8.4 34.5l-15.5 4.1a53 53 0 0 1 34.3-64l9.7 11.2a42 42 0 0 0 15.3 54V221h16v63.1a42 42 0 0 0 15.7-54.3l9.7-11.1a53 53 0 0 1 34.3 64l-15.5-4.2a37 37 0 0 0-8.4-34.5 58 58 0 0 1-15.5 44q5.4-2 10.2-5.2l9.2 13a58 58 0 0 1-39.7 10.2v5h-16v-5a59 59 0 0 1-39.3-10.1l9.2-13.1a42 42 0 0 0 10.2 5.2"/><path fill="#EEE" fill-rule="evenodd" d="M493.7 160.7a254 254 0 0 1 10.4 32h-80.5v-32zm-37.3-64q6.1 7.8 11.8 16h-28.6v32h-16v-48zm-30.3-32q8.6 7.6 16.5 16h-19v-16zM71.6 78.4q7-7.2 14.3-13.7h1.7v80H25.4a255 255 0 0 1 8.4-16h5.8v-9.6q7.5-11.7 16-22.5v32.1h16zM8 192.7a254 254 0 0 1 10.4-32h69.3v32zm485.8 158.6q6.2-15.5 10.4-32h-80.5v32zm-7.1 16h-63v16h54.6q4.5-7.8 8.4-16m-18.4 32h-44.6v48h2.5q7-6.3 13.5-13v-19h16.8a257 257 0 0 0 11.8-16M86 447.3h1.8v-80h-16v64h-2.3q8 8.5 16.5 16m-30.2-32v-48h-16v25.6q7.3 11.7 16 22.5M8 319.4a254 254 0 0 0 10.4 32h69.4v-32zm95.8-238.6h208v-16h-208zm176 32h48v32h80v-80h-16v64h-16v-64h-16v64h-16v-64h-16v32h-64v48h48v-16h-32zm-96-16h-80v48h16v-32h48v32h80v-48h-48v16h32v16h-48zm-48 48h16v-16h-16zm-32 48h144v-32h-144zm160 0h144v-32h-144zm-160 158.6h144v-32h-144zm160 0h144v-32h-144zm-160 32h208v-16h-208zm176 32h48v32h80v-80h-16v64h-16v-64h-16v64h-16v-64h-16v32h-64v48h48v-16h-32zm-96-16h-80v48h16v-32h48v32h80v-48h-48v16h32v16h-48zm-48 48h16v-16h-16zm320-302.6h16v-16h-16z" clip-rule="evenodd"/></g><defs><clipPath id="a"><path fill="#fff" d="M0 0h512v512H0z"/></clipPath></defs></svg>