<svg xmlns="http://www.w3.org/2000/svg" width="512" height="512" fill="none"><path fill="var(--flag-palette-blue, #0052b4)" d="M482 376.5a256 256 0 0 1-452 0L256 320z"/><path fill="var(--flag-palette-bright-red, #d80027)" d="M477.8 384A255 255 0 0 0 512 256l-256-64L0 256c0 46.6 12.5 90.3 34.2 128z"/><path fill="#EEE" d="M471.6 117.9A255 255 0 0 1 512 256H0c0-50.9 14.8-98.3 40.4-138.1L256 64z"/><path fill="var(--flag-palette-dark-yellow, #ffc635)" d="M477.8 128H34.2a255.9 255.9 0 0 1 443.6 0"/><path fill="var(--flag-palette-green, #6da544)" d="M0 245.6A255 255 0 0 1 74.9 74.9L256 256 74.9 437.1A255 255 0 0 1 0 266.4z"/><path fill="#EEE" d="M67.5 255.3a78 78 0 0 1 61.2-76.1q-8-1.8-16.7-1.9a78 78 0 1 0 16.7 154 78 78 0 0 1-61.2-76"/><path fill="#EEE" d="m127.9 188.5 4.1 12.7h13.4l-10.8 8 4.1 12.7-10.8-8-10.9 8 4.2-12.8-10.9-7.9h13.4zm0 33.4 4.1 12.7h13.4l-10.8 7.9 4.1 12.8-10.8-8-10.9 8 4.2-12.8-10.9-7.9h13.4zm0 33.4L132 268h13.4l-10.8 7.9 4.1 12.8-10.8-8-10.9 8 4.2-12.8-10.9-7.9h13.4zm0 33.4 4.1 12.7h13.4l-10.8 7.9 4.1 12.7-10.8-7.8L117 322l4.2-12.7-10.9-7.9h13.4z"/></svg>