<svg xmlns="http://www.w3.org/2000/svg" width="512" height="512" fill="none"><path fill="#EEE" d="m315.6 209.2 21 29 34-11.1-21 29 21 28.9-34-11.1-21 29V267l-34-11.1 34-11z"/><path fill="#EEE" d="M258.3 328.3a72.3 72.3 0 1 1 34.4-136 89 89 0 1 0 0 127.3 72 72 0 0 1-34.4 8.7"/><path fill="#333" d="M477.8 384A255 255 0 0 0 512 256c0-46.6-12.5-90.3-34.2-128H34.2A255 255 0 0 0 0 256c0 46.6 12.5 90.3 34.2 128z"/><path fill="var(--flag-palette-dark-green, #496e2d)" d="M256 512A256 256 0 0 1 25.6 368h460.6A256 256 0 0 1 256 512"/><path fill="var(--flag-palette-bright-red, #d80027)" d="M256 0A256 256 0 0 0 25.7 144h460.6A256 256 0 0 0 256 0"/><path fill="#EEE" d="m315.6 209.2 21 29 34-11.1-21 29 21 28.9-34-11.1-21 29V267l-34-11.1 34-11z"/><path fill="#EEE" d="M258.3 328.3a72.3 72.3 0 1 1 34.4-136 89 89 0 1 0 0 127.3 72 72 0 0 1-34.4 8.7"/></svg>