<svg xmlns="http://www.w3.org/2000/svg" width="512" height="512" fill="none"><circle cx="256" cy="256" r="256" fill="var(--flag-palette-yellow, #ffda44)"/><path fill="var(--flag-palette-bright-red, #d80027)" fill-rule="evenodd" d="m509.7 221.7-163.6 23.6a90 90 0 0 1 0 25l163.2 23c-6.3 43.3-23.4 83-48.5 116.4l-131.5-98.4q-7.6 10.3-17.7 17.8l98.8 131.1a255 255 0 0 1-116.2 49l-23.5-163a90 90 0 0 1-25 0l-23 163.6a255 255 0 0 1-117.8-47.1l99.8-133.4q-10.2-7.6-17.8-17.7L53.2 412.3A255 255 0 0 1 3 294.8l167-24.1a90 90 0 0 1 0-25L2.1 222c5.9-44.3 23-85 48.6-119.1l135.9 101.7q7.6-10.2 17.7-17.8L102.2 51.3c34-25.6 74.7-43 119-49L245.3 170a90 90 0 0 1 25 0L294 2.7a255 255 0 0 1 117.7 49.9l-100.3 134q10.3 7.6 17.8 17.7l133-100.2c25 33.8 41.8 74 47.6 117.5m-185 36.3a66.8 66.8 0 1 1-133.5 0 66.8 66.8 0 0 1 133.6 0" clip-rule="evenodd"/></svg>