<svg xmlns="http://www.w3.org/2000/svg" width="512" height="512" fill="none"><path fill="var(--flag-palette-green, #6da544)" d="M482 376.5a256 256 0 0 1-452 0L256 320z"/><path fill="var(--flag-palette-yellow, #ffda44)" d="M477.8 384A255 255 0 0 0 512 256l-256-64L0 256c0 46.6 12.5 90.3 34.2 128z"/><path fill="var(--flag-palette-blue, #0052b4)" d="M471.6 117.9A255 255 0 0 1 512 256H0c0-50.9 14.8-98.3 40.4-138.1L256 64z"/><path fill="var(--flag-palette-bright-red, #d80027)" d="M477.8 128H34.2a255.9 255.9 0 0 1 443.6 0"/></svg>