<svg xmlns="http://www.w3.org/2000/svg" width="512" height="512" fill="none"><path fill="#EEE" d="M503.2 322.8q8.7-32 8.8-66.8l-8.8-66.8a255 255 0 0 0-28.8-66.8l-59-66.7A255 255 0 0 0 256 0h-.2A255 255 0 0 0 96.6 55.7l-59 66.7a255 255 0 0 0-28.8 66.8L0 256v.1q0 34.6 8.8 66.7l28.8 66.8a257 257 0 0 0 59 66.7L256 512l159.4-55.7a257 257 0 0 0 59-66.7z"/><path fill="var(--flag-palette-bright-red, #d80027)" d="M503.2 189.2q8.7 32 8.8 66.8H0q0-34.7 8.8-66.8zM415.4 55.7a257 257 0 0 1 59 66.7H37.6a257 257 0 0 1 59-66.7zm59 333.9q19-31 28.8-66.8H8.8a255 255 0 0 0 28.8 66.8zm-59 66.7H96.6A255 255 0 0 0 255.8 512h.4a255 255 0 0 0 159.2-55.7"/><path fill="var(--flag-palette-blue, #0052b4)" d="M0 245.6A256 256 0 0 1 256 0v256H0z"/><path fill="var(--flag-palette-yellow, #ffda44)" d="M100 144a63.3 63.3 0 0 0 93.5 55.7 78 78 0 1 1 0-111.4A63.3 63.3 0 0 0 100 144"/><path fill="var(--flag-palette-yellow, #ffda44)" d="m192.5 123-11.3-23.5L170 123l-25.4-5.9 11.4 23.5-20.4 16.1 25.4 5.8-.1 26 20.3-16.3 20.3 16.3v-26l25.4-5.8-20.4-16.1 11.3-23.5z"/></svg>