<svg xmlns="http://www.w3.org/2000/svg" width="512" height="512" fill="none"><g clip-path="url(#a)"><path fill="var(--flag-palette-dark-green, #496e2d)" d="M437 75 224 224 75 437a256 256 0 0 0 437-178.2v-5.7A255 255 0 0 0 437 75"/><path fill="var(--flag-palette-blue, #0052b4)" d="M437 75 75 437A256 256 0 0 1 437 75"/><path fill="#EEE" d="M372.2 27.8a257 257 0 0 1 112 112L139.8 484.2a257 257 0 0 1-112-112z"/><path fill="var(--flag-palette-dark-red, #a2001d)" d="M402.2 45.8q37.7 26.3 64 64L109.8 466.2a256 256 0 0 1-64-64z"/></g><path fill="var(--flag-palette-yellow, #ffda44)" fill-rule="evenodd" d="M133.7 61.7 144.9 92a43 43 0 0 0-22.4 0zm30.5 41.5q-8-8-19.3-11.2l24.8-20.6zm11.2 19.3q-3.1-11.2-11.2-19.3l31.8-5.5zm1.5 11.2q0-5.8-1.5-11.2l30.3 11.2-30.3 11.2q1.5-5.4 1.5-11.2m-12.7 30.6q8-8.1 11.2-19.4l20.6 24.8zM145 175.4q11.2-3.2 19.3-11.1l5.5 31.8zm-11.2 1.5q5.8 0 11.2-1.5l-11.2 30.3-11.2-30.2q5.4 1.4 11.2 1.4m-41.8-32a43 43 0 0 0 30.6 30.5l-24.8 20.7 5.4-31.8-31.8 5.4zm-1.4-11.2q0 5.8 1.4 11.2l-30.2-11.2L92 122.5q-1.5 5.4-1.4 11.2m-19.2-36L92 122.5A43 43 0 0 1 122.5 92L97.7 71.4l5.4 31.8zm62.4 72a36 36 0 1 0 0-72 36 36 0 0 0 0 72" clip-rule="evenodd"/><defs><clipPath id="a"><path fill="#fff" d="M0 0h512v512H0z"/></clipPath></defs></svg>