<svg xmlns="http://www.w3.org/2000/svg" width="512" height="512" fill="none"><path fill="var(--flag-palette-bright-red, #d80027)" d="M482.2 376c19-35.8 29.8-76.6 29.8-120s-10.8-84.2-29.8-120H29.8A255 255 0 0 0 0 256c0 43.4 10.8 84.2 29.8 120z"/><path fill="var(--flag-palette-green, #6da544)" d="M496.5 344a256.1 256.1 0 0 1-481 0z"/><path fill="#EEE" d="M496.5 168h-481a256.1 256.1 0 0 1 481 0"/><path fill="var(--flag-palette-bright-red, #d80027)" d="M168 15.5v481a256.1 256.1 0 0 1 0-481"/><path fill="#EEE" d="m129 162.9-17-29.6L95 163l-14-8 17.1-29.6H64v-16h34.1l-17-29.5 13.8-8 17.1 29.5 17-29.5 14 8-17.1 29.5H160v16h-34.1l17 29.6z"/></svg>