<svg xmlns="http://www.w3.org/2000/svg" width="512" height="512" fill="none"><path fill="#EEE" d="M477.8 384A255 255 0 0 0 512 256c0-46.6-12.5-90.3-34.2-128H34.2A255 255 0 0 0 0 256c0 46.6 12.5 90.3 34.2 128z"/><path fill="var(--flag-palette-bright-red, #d80027)" d="M256 512A256 256 0 0 1 25.6 368h460.6A256 256 0 0 1 256 512m0-512A256 256 0 0 0 25.7 144h460.6A256 256 0 0 0 256 0"/><path fill="var(--flag-palette-dark-yellow, #ffc635)" d="M345 256c0 49.2-39.8 78-89 78s-89-28.8-89-78a89 89 0 1 1 178 0"/><path fill="var(--flag-palette-blue, #0052b4)" d="M345 256a89 89 0 1 1-178 0"/><path fill="var(--flag-palette-bright-red, #d80027)" fill-rule="evenodd" d="M267.1 200.3H245v78h22zm-66.8 33.4h22.3v44.6h-22.3zm89 0h22.4v44.6h-22.3z" clip-rule="evenodd"/></svg>