<svg xmlns="http://www.w3.org/2000/svg" width="512" height="512" fill="none"><g clip-path="url(#a)"><path fill="var(--flag-palette-dark-green, #496e2d)" d="M437 75 224 224 75 437a256 256 0 0 0 437-178.2v-5.7A255 255 0 0 0 437 75"/><path fill="var(--flag-palette-blue, #0052b4)" d="M437 75 75 437A256 256 0 0 1 437 75"/><path fill="var(--flag-palette-yellow, #ffda44)" d="M447.9 86.8 86.5 448q-12-10.6-22.6-22.6L425.3 64q12 10.5 22.6 22.7"/></g><path fill="#EEE" d="m97.4 92.3 5.5 17h17.9l-14.5 10.5 5.5 17-14.4-10.5-14.5 10.5 5.5-17L74 109.3h17.9zm91.3 0 5.5 17h18l-14.5 10.5 5.5 17-14.5-10.5-14.5 10.5 5.6-17-14.5-10.5h17.9zm-91.3 89 5.5 17h17.9l-14.5 10.5 5.5 17-14.4-10.5-14.5 10.5 5.5-17L74 198.3h17.9zm91.3 0 5.5 17h18l-14.5 10.5 5.5 17-14.5-10.5-14.5 10.5 5.6-17-14.5-10.5h17.9zM143 136.8l5.6 17h17.9L152 164.3l5.5 17-14.5-10.5-14.4 10.5 5.5-17-14.5-10.5h18z"/><defs><clipPath id="a"><path fill="#fff" d="M0 0h512v512H0z"/></clipPath></defs></svg>