<svg xmlns="http://www.w3.org/2000/svg" width="512" height="512" fill="none"><path fill="var(--flag-palette-blue, #0052b4)" fill-rule="evenodd" d="M44.3 400a256 256 0 0 1 156-394z" clip-rule="evenodd"/><path fill="var(--flag-palette-yellow, #ffda44)" fill-rule="evenodd" d="M165.1 16.6A255 255 0 0 1 358 21L63.6 424.8q-13.2-15-24-31.8z" clip-rule="evenodd"/><path fill="var(--flag-palette-bright-red, #d80027)" fill-rule="evenodd" d="M333.4 12a256 256 0 0 1 173.7 193.7l-412.4 249a258 258 0 0 1-34.2-33.4z" clip-rule="evenodd"/><path fill="#EEE" fill-rule="evenodd" d="M478.7 382.4a255 255 0 0 0 21.4-203.8l-409.4 273a257 257 0 0 0 36.8 25.9z" clip-rule="evenodd"/><path fill="var(--flag-palette-green, #6da544)" fill-rule="evenodd" d="M495.4 346.9A256 256 0 0 1 119 472.3z" clip-rule="evenodd"/></svg>