<svg xmlns="http://www.w3.org/2000/svg" width="512" height="512" fill="none"><path fill="#EEE" d="M256 512a256 256 0 0 0 256-255.5v-.5l-256-32L0 256a256 256 0 0 0 256 256"/><path fill="var(--flag-palette-bright-red, #d80027)" d="M512 255.5v.5H0a256 256 0 0 1 512-.5"/><path fill="#EEE" d="M154.9 128A78 78 0 0 1 216 51.9q-8.1-1.8-16.7-1.8A78 78 0 1 0 216 204a78 78 0 0 1-61.2-76.1M255 55.7l5.6 17h17.8L264 83.2l5.5 17L255 89.7l-14.4 10.5 5.5-17-14.5-10.5h18z"/><path fill="#EEE" d="m211.7 89 5.5 17H235l-14.5 10.6 5.5 17-14.4-10.5-14.5 10.5 5.5-17-14.4-10.6H206zm86.7 0 5.5 17h18l-14.5 10.6 5.5 17-14.5-10.5-14.5 10.5 5.6-17L275 106h18zm-16.7 50.1 5.5 17h18l-14.5 10.5 5.5 17-14.5-10.5-14.4 10.6 5.5-17-14.5-10.6h17.9zm-53.3 0 5.5 17h17.9l-14.5 10.5 5.5 17-14.4-10.5-14.5 10.6 5.5-17L205 156h18z"/></svg>