<svg xmlns="http://www.w3.org/2000/svg" width="512" height="512" fill="none"><path fill="var(--flag-palette-yellow, #ffda44)" d="M384 34.2A255 255 0 0 0 256 0c-46.6 0-90.3 12.5-128 34.2v443.6A255 255 0 0 0 256 512c46.6 0 90.3-12.5 128-34.2z"/><path fill="var(--flag-palette-bright-red, #d80027)" d="M512 256a256 256 0 0 1-144 230.3V25.7A256 256 0 0 1 512 256"/><path fill="var(--flag-palette-dark-green, #496e2d)" d="M0 256a256 256 0 0 0 144 230.3V25.7A256 256 0 0 0 0 256m256-98.4 22.1 68h71.5l-57.8 42 22 68-57.8-42-57.9 42 22.1-68-57.8-42h71.5z"/></svg>