<svg xmlns="http://www.w3.org/2000/svg" width="512" height="512" fill="none"><circle cx="256" cy="256" r="256" fill="#EEE"/><path fill="var(--flag-palette-dark-green, #496e2d)" fill-rule="evenodd" d="M51.2 102.4A256 256 0 0 1 256 0c83.8 0 158.1 40.2 204.8 102.4zM256.5 512a256 256 0 0 0 204.3-102.4H51.2A256 256 0 0 0 255.5 512z" clip-rule="evenodd"/><path fill="var(--flag-palette-dark-red, #a2001d)" fill-rule="evenodd" d="M490.7 358.4a255 255 0 0 0 0-204.8H21.3A255 255 0 0 0 0 256c0 36.4 7.6 71 21.3 102.4z" clip-rule="evenodd"/><path fill="var(--flag-palette-yellow, #ffda44)" d="m256 167 22.1 68h71.5l-57.8 42 22 68-57.8-42-57.9 42 22.1-68-57.8-42h71.5z"/></svg>