<svg xmlns="http://www.w3.org/2000/svg" width="512" height="512" fill="none"><path fill="#EEE" d="M477.8 384A255 255 0 0 0 512 256c0-46.6-12.5-90.3-34.2-128H34.2A255 255 0 0 0 0 256c0 46.6 12.5 90.3 34.2 128z"/><path fill="var(--flag-palette-blue, #0052b4)" d="M256 512A256 256 0 0 1 25.6 368h460.6A256 256 0 0 1 256 512m0-512A256 256 0 0 0 25.7 144h460.6A256 256 0 0 0 256 0"/><path fill="var(--flag-palette-dark-yellow, #ffc635)" d="m204.6 267.1 51.4-89 51.4 89z"/><path fill="var(--flag-palette-green, #6da544)" d="M322.8 296.5 256 330l-66.8-33.4V252h133.6z"/><path fill="var(--flag-palette-dark-yellow, #ffc635)" d="m319 182-23.6 23.5a55.5 55.5 0 0 1-39.4 95 55.7 55.7 0 0 1-39.3-95L193 182a89 89 0 1 0 126 0"/></svg>