<svg xmlns="http://www.w3.org/2000/svg" width="512" height="512" fill="none"><path fill="var(--flag-palette-dark-green, #496e2d)" d="M256 0c83.8 0 158.1 40.2 204.8 102.4l46 102.4a257 257 0 0 1 0 102.4l-46 102.4A256 256 0 0 1 256 512 256 256 0 0 1 51.2 409.6l-46-102.4a257 257 0 0 1 0-102.4l46-102.4A256 256 0 0 1 256 0"/><path fill="var(--flag-palette-yellow, #ffda44)" d="M460.8 102.4a255 255 0 0 1 46 102.4H5.2a255 255 0 0 1 46-102.4zm0 307.2a255 255 0 0 0 46-102.4H5.2a255 255 0 0 0 46 102.4z"/><path fill="var(--flag-palette-bright-red, #d80027)" fill-rule="evenodd" d="M5.1 307.2A256 256 0 0 1 256 0v307.2z" clip-rule="evenodd"/><path fill="#EEE" d="m128 122 16.6 51h53.7l-43.4 31.6 16.5 51.1-43.4-31.5-43.4 31.5 16.5-51L57.7 173h53.7z"/></svg>