<svg xmlns="http://www.w3.org/2000/svg" width="512" height="512" fill="none"><g clip-path="url(#a)"><path fill="var(--flag-palette-bright-red, #d80027)" d="m75 75 149 213 213 149A256 256 0 0 0 258.8 0h-5.7A255 255 0 0 0 75 75"/><path fill="var(--flag-palette-bright-red, #d80027)" d="m75 75 362 362A256 256 0 0 1 75 75"/><path fill="#EEE" d="M27.8 139.8a257 257 0 0 1 112-112l344.4 344.4a257 257 0 0 1-112 112z"/><path fill="#333" d="M45.8 109.8a256 256 0 0 1 64-64l356.4 356.4q-26.3 37.7-64 64z"/></g><defs><clipPath id="a"><path fill="#fff" d="M0 512V0h512v512z"/></clipPath></defs></svg>