<svg xmlns="http://www.w3.org/2000/svg" width="512" height="512" fill="none"><path fill="var(--flag-palette-light-blue, #338af3)" d="M512 256a256 256 0 1 1-512 0L256 0a256 256 0 0 1 256 256"/><path fill="var(--flag-palette-blue, #0052b4)" d="M256 0v256H0A256 256 0 0 1 256 0"/><path fill="#EEE" d="M217.6 256H256v-38.4L140.7 102.3H256V0A256 256 0 0 0 0 256h102.3V140.7z"/><path fill="var(--flag-palette-bright-red, #d80027)" d="M256 76.6V25.4H144.7A257 257 0 0 0 25.4 144.7V256h51.2V76.6z"/><path fill="var(--flag-palette-bright-red, #d80027)" d="M256 230.4V256L102.3 102.3h25.6z"/><path fill="var(--flag-palette-yellow, #ffda44)" d="m279.4 423 5.5 17h18l-14.6 10.5 5.6 17-14.5-10.5-14.5 10.5 5.6-17L256 440h17.9zm142.4-111.3 5.5 17h18l-14.5 10.5 5.5 17-14.5-10.5-14.5 10.5 5.6-17-14.5-10.5h17.9zm35.7-167 5.5 17h18l-14.5 10.5 5.6 17-14.5-10.5-14.5 10.5 5.6-17-14.5-10.5H452zm8.8 122.4 5.6 17h17.8l-14.4 10.5 5.5 17-14.5-10.5-14.4 10.6 5.5-17-14.5-10.6h18zM305 383l16 8 12.6-12.6-2.8 17.7 16 8.1L329 407l-2.8 17.7-8.1-16-17.7 2.8 12.7-12.6zm0-66.8 16 8 12.6-12.5-2.8 17.6 16 8.1-17.7 2.8-2.8 17.7-8.1-16-17.7 2.9 12.7-12.7zm55.7 42.8 16 8.1 12.6-12.6-2.8 17.6 16 8.1-17.8 2.8-2.7 17.7-8.2-16-17.6 2.9 12.6-12.7zm0-143 16 8.1 12.6-12.6-2.8 17.6 16 8.2-17.8 2.8-2.7 17.6-8.2-16-17.6 2.9 12.6-12.7zm53.9-1.7 16 8.1 12.6-12.6-2.8 17.6 16 8.1-17.7 2.8-2.8 17.7-8.1-16-17.8 3 12.7-12.7z"/></svg>