<svg xmlns="http://www.w3.org/2000/svg" width="512" height="512" fill="none"><circle cx="256" cy="256" r="256" fill="var(--flag-palette-bright-red, #d80027)"/><path fill="var(--flag-palette-blue, #0052b4)" d="M0 245.6A256 256 0 0 1 256 0v256H0z"/><path fill="#EEE" fill-rule="evenodd" d="m217 136.8-31 14.6a48 48 0 0 0 0-29.3zm-48.4 38.5c8-5.8 14-14.1 17.2-23.7l16.6 30.2zm-28 9.1c10.4 0 20-3.3 27.8-9l-4.2 34.2zm-28-9c7.8 5.7 17.4 9 27.8 9L117 209.6zm-17.4-23.8a48 48 0 0 0 17.3 23.7l-33.9 6.5zM93 136.8q0 7.7 2.3 14.6L64 136.8 95.2 122a48 48 0 0 0-2.3 14.7m19.5-38.5A48 48 0 0 0 95.2 122L78.6 91.8zm28-9.2c-10.4 0-20 3.4-27.8 9l4.3-34.1zm28 9c-7.8-5.6-17.4-9-27.8-9l23.6-25zm34-6.3-33.8 6.5c8 5.8 14 14 17.2 23.7zm-87.3 45a25.4 25.4 0 1 0 50.9 0 25.4 25.4 0 0 0-50.9 0" clip-rule="evenodd"/></svg>