<svg xmlns="http://www.w3.org/2000/svg" width="512" height="512" fill="none"><path fill="var(--flag-palette-bright-red, #d80027)" fill-rule="evenodd" d="M471.2 394.7a255.8 255.8 0 0 1-430.4 0z" clip-rule="evenodd"/><path fill="var(--flag-palette-yellow, #ffda44)" fill-rule="evenodd" d="M65.2 426.7A255 255 0 0 1 5.6 309.3h500.8a255 255 0 0 1-59.6 117.4z" clip-rule="evenodd"/><path fill="#333" fill-rule="evenodd" d="M497.4 341.3A256 256 0 0 0 510 224H2a259 259 0 0 0 12.6 117.3z" clip-rule="evenodd"/><path fill="var(--flag-palette-bright-red, #d80027)" fill-rule="evenodd" d="M512 256a255 255 0 0 0-28.4-117.3H28.4A255 255 0 0 0 0 256z" clip-rule="evenodd"/><path fill="var(--flag-palette-yellow, #ffda44)" fill-rule="evenodd" d="M497.4 170.7H14.6a257 257 0 0 1 85-117.4h312.8a257 257 0 0 1 85 117.4" clip-rule="evenodd"/><path fill="#333" fill-rule="evenodd" d="M446.8 85.3H65.2A255 255 0 0 1 256 0c75.8 0 144 33 190.8 85.3" clip-rule="evenodd"/><path fill="#EEE" d="M341.4 256a85.4 85.4 0 1 1-170.8 0 85.4 85.4 0 0 1 170.8 0"/><path fill="#333" d="M287.3 260.4 256 246.8l7.7-26a17 17 0 0 0-4.4-15.6l7.8-7.8a27.7 27.7 0 0 0-39.3 0l7.8 7.8a17 17 0 0 0-4.1 16.7l-11.9 11.8h21.6s-9 13.4-13.8 24.4 0 24.4 11.3 29.4l6.5 2.9 10.8 10.1v11.2l-11.1 11H267v-22.2l10.2-10.1h21l.3-.7a22 22 0 0 0-11.3-29.3"/></svg>