<svg xmlns="http://www.w3.org/2000/svg" width="512" height="512" fill="none"><path fill="var(--flag-palette-blue, #0052b4)" d="M503.2 322.8q8.7-32 8.8-66.8l-8.8-66.8a255 255 0 0 0-28.8-66.8l-59-66.7A255 255 0 0 0 256 0h-.2A255 255 0 0 0 96.6 55.7l-59 66.7a255 255 0 0 0-28.8 66.8L0 256v.1q0 34.6 8.8 66.7l28.8 66.8a257 257 0 0 0 59 66.7L256 512l159.4-55.7a257 257 0 0 0 59-66.7z"/><path fill="#EEE" d="M503.2 189.2q8.7 32 8.8 66.8H0q0-34.7 8.8-66.8zM415.4 55.7a257 257 0 0 1 59 66.7H37.6a257 257 0 0 1 59-66.7zm59 333.9q19-31 28.8-66.8H8.8a255 255 0 0 0 28.8 66.8zm-59 66.7H96.6A255 255 0 0 0 255.8 512h.4a255 255 0 0 0 159.2-55.7"/><path fill="#EEE" d="M0 245.6A256 256 0 0 1 256 0v256H0z"/><path fill="var(--flag-palette-dark-yellow, #ffc635)" d="m152 72 21.6 58.4L232 152l-58.4 21.6L152 232l-21.6-58.4L72 152l58.4-21.6z"/><path fill="var(--flag-palette-brown, #85693d)" d="M152 72v58.4h21.6L232 152h-58.4v21.6L152 232v-58.4h-21.6L72 152h58.4v-21.6z"/><path fill="var(--flag-palette-dark-yellow, #ffc635)" d="m208.6 95.4-26 56.6 26 56.6-56.6-26-56.6 26 26-56.6-26-56.6 56.6 26z"/><path fill="var(--flag-palette-brown, #85693d)" d="m208.6 95.4-41.3 41.3 15.3 15.3 26 56.6-41.3-41.3-15.3 15.3-56.6 26 41.3-41.3-15.3-15.3-26-56.6 41.3 41.3 15.3-15.3z"/><circle cx="152" cy="152" r="40" fill="var(--flag-palette-dark-yellow, #ffc635)"/></svg>