<svg xmlns="http://www.w3.org/2000/svg" width="512" height="512" fill="none"><path fill="var(--flag-palette-bright-red, #d80027)" fill-rule="evenodd" d="M496 345a256 256 0 0 0 0-178H16a256 256 0 0 0 0 178z" clip-rule="evenodd"/><path fill="var(--flag-palette-light-blue, #338af3)" fill-rule="evenodd" d="M500 178H12a256.1 256.1 0 0 1 488 0" clip-rule="evenodd"/><path fill="var(--flag-palette-green, #6da544)" fill-rule="evenodd" d="M255.4 512C141.4 511.7 45 437 12 334h487.8a256 256 0 0 1-243.3 178z" clip-rule="evenodd"/><path fill="#EEE" fill-rule="evenodd" d="M506 311.7a257 257 0 0 0 0-111.3H6a257 257 0 0 0 0 111.3z" clip-rule="evenodd"/><path fill="#EEE" d="M117 105a50 50 0 0 1 39.3-48.9 50.2 50.2 0 1 0 0 97.9c-22.5-5-39.3-25-39.3-49m69 22.8 3.3 10.4h11l-8.9 6.5 3.4 10.4-8.9-6.4-8.8 6.4 3.4-10.4-9-6.5h11zm35 0 3.4 10.4h11l-9 6.5 3.4 10.4-8.8-6.4-9 6.4 3.5-10.4-8.9-6.5h11zm35 0 3.4 10.4h11l-9 6.5 3.5 10.4-9-6.4-8.8 6.4 3.4-10.4-8.9-6.5h11zm35 0 3.4 10.4h11l-9 6.5 3.5 10.4-8.9-6.4-8.9 6.4 3.4-10.4-8.9-6.5h11zm35 0 3.4 10.4h11l-8.9 6.5 3.4 10.4-8.9-6.4-8.9 6.4 3.4-10.4-8.8-6.5h11zM221 91.4l3.4 10.4h11l-9 6.5 3.4 10.4-8.8-6.4-9 6.4 3.5-10.4-8.9-6.5h11zm35 0 3.4 10.4h11l-9 6.5 3.5 10.4-9-6.4-8.8 6.4 3.4-10.4-8.9-6.5h11zm35 0 3.4 10.4h11l-9 6.5 3.5 10.4-8.9-6.4-8.9 6.4 3.4-10.4-8.9-6.5h11zm35 0 3.4 10.4h11l-8.9 6.5 3.4 10.4-8.9-6.4-8.9 6.4 3.4-10.4-8.8-6.5h11zM256 55l3.4 10.4h11l-9 6.4 3.5 10.5-9-6.5-8.8 6.5 3.4-10.5-8.9-6.4h11zm35 0 3.4 10.4h11l-9 6.4 3.5 10.5-8.9-6.5-8.9 6.5 3.4-10.5-8.9-6.4h11zm35 0 3.4 10.4h11l-8.9 6.4 3.4 10.5-8.9-6.5-8.9 6.5 3.4-10.5-8.8-6.4h11z"/></svg>