<svg xmlns="http://www.w3.org/2000/svg" width="512" height="512" fill="none"><g clip-path="url(#a)"><path fill="#EEE" d="M29.8 136A255 255 0 0 0 0 256c0 43.4 10.8 84.2 29.8 120h452.4c19-35.8 29.8-76.6 29.8-120s-10.8-84.2-29.8-120z"/><path fill="var(--flag-palette-blue, #0052b4)" d="M15.5 168a256.1 256.1 0 0 1 481 0z"/><path fill="var(--flag-palette-bright-red, #d80027)" d="M15.5 344h481a256.1 256.1 0 0 1-481 0"/><path fill="var(--flag-palette-bright-red, #d80027)" d="m256 66 42.7 131.3h138L325 278.4l42.7 131.3L256 328.6l-111.7 81.1L187 278.4 75.3 197.3h138z"/><path fill="var(--flag-palette-dark-yellow, #ffc635)" fill-rule="evenodd" d="M298.7 197.3 256 66l-42.7 131.3h-138L187 278.4l-42.7 131.3L256 328.6l111.7 81.1L325 278.4l111.7-81.1zm76.4 20h-91L256 130.7l-28.1 86.6h-91l73.6 53.5-28.1 86.6 73.6-53.5 73.6 53.5-28-86.6z" clip-rule="evenodd"/></g><defs><clipPath id="a"><path fill="#fff" d="M0 0h512v512H0z"/></clipPath></defs></svg>