<svg xmlns="http://www.w3.org/2000/svg" width="512" height="512" fill="none"><path fill="#333" fill-rule="evenodd" d="M506 311.7a257 257 0 0 0 0-111.4H6a257 257 0 0 0 0 111.4z" clip-rule="evenodd"/><path fill="var(--flag-palette-yellow, #ffda44)" fill-rule="evenodd" d="M418.9 58.5c32 26.5 57.5 60.6 73.7 99.6H19.4a257 257 0 0 1 73.7-99.6zM100.5 459.4A257 257 0 0 1 17 348h477.8a257 257 0 0 1-83.4 111.3z" clip-rule="evenodd"/><path fill="var(--flag-palette-green, #6da544)" fill-rule="evenodd" d="M77.8 72.2A255 255 0 0 1 256 0a255 255 0 0 1 178.2 72.2zM256 512a255 255 0 0 0 178.2-72.2H77.8A255 255 0 0 0 256 512" clip-rule="evenodd"/><path fill="var(--flag-palette-bright-red, #d80027)" fill-rule="evenodd" d="M486.4 144.4a254 254 0 0 1 22.6 72.2H3q6.1-38.4 22.6-72.2zm0 223.2a254 254 0 0 0 22.6-72.2H3q6.1 38.4 22.6 72.2z" clip-rule="evenodd"/><path fill="#EEE" fill-rule="evenodd" d="M75 437A255 255 0 0 1 0 256c0-70.7 28.7-134.7 75-181l181 181z" clip-rule="evenodd"/><path fill="#333" fill-rule="evenodd" d="M75 75q7.8-8 16.4-15l196 196-196 196A257 257 0 0 1 75 437l181-181z" clip-rule="evenodd"/><path fill="var(--flag-palette-bright-red, #d80027)" d="m103 189.2 16.5 51h53.6l-43.4 31.6 16.6 51-43.4-31.5-43.4 31.5 16.6-51-43.4-31.6h53.6z"/><path fill="var(--flag-palette-dark-yellow, #ffc635)" d="m148.5 260.2-43.2-15.3-3.4-31a16.7 16.7 0 1 0-32.5 7.6l-12 12.1h21.5c0 22.4-16.7 22.4-16.7 44.7l9.2 22.2h55.7l9.3-22.2q1.4-3.3 1.7-6.6c8-3.2 10.4-11.5 10.4-11.5"/></svg>