<?xml version="1.0" encoding="utf-8"?>
<svg id="LOGO_LAYER" viewBox="0 0 125.32031 131.44201" version="1.1" width="125.32031" height="131.44202" xmlns="http://www.w3.org/2000/svg">
  <path d="M 110.716 40.084 C 116.262 3.88 84.811 -7.667 55.915 31.94 C 46.723 14.198 14.37 5.664 12.049 50.034 L 110.716 40.084 Z" fill="#00b5e2" id="path1"/>
  <path d="M 56.464 123.66 C 72.384 101.1 79.228 94.119 90.846 78.682 L 21.146 86.091 C 27.304 101.88 41.265 107.035 56.464 123.66 Z" fill="#509e2f" id="path2"/>
  <path d="M 109.621 38.832 C 116.79 40.683 95.404 81.39 89.751 79.464 L 22.241 86.56 C 13.873 86.557 7.305 47.985 13.457 48.939 L 109.621 38.832 Z" fill="#ef3340" id="path3"/>
  <path d="M 50.434 81.56 C 56.064 80.968 61.051 77.742 64.209 73.245 C 61.623 75.98 58.131 77.869 54.277 78.274 C 46.318 79.11 39.866 73.336 39.866 65.377 C 39.866 57.418 46.318 50.287 54.277 49.451 C 58.131 49.046 61.623 50.2 64.208 52.392 C 61.051 48.559 56.064 46.381 50.434 46.972 C 40.883 47.976 33.14 56.533 33.14 66.084 C 33.14 75.635 40.883 82.564 50.434 81.56 Z" fill="#f9f9f9" id="path4"/>
  <polygon points="60.042 63.257 65.211 64.552 62.856 69.754 67.811 66.878 67.897 67.11 69.65 71.854 71.488 66.492 76.443 68.326 74.088 63.619 79.257 61.237 74.088 59.942 76.443 54.739 71.488 57.615 69.65 52.639 67.897 57.752 67.811 58.002 62.856 56.167 65.211 60.875" fill="#f9f9f9" id="polygon5"/>
  <path id="HEART_SHAPE" d="M 95.368 0 C 81.95 0 66.081 9.91 56.476 26.379 C 53.884 20.431 44.65 13.95 33.673 13.95 C 24.828 13.95 0 25.005 0 60.685 C 0 106.734 46.588 116.192 56.006 130.502 C 56.653 131.487 58.738 132.231 59.533 129.878 C 67.048 107.699 125.32 82.642 125.32 37.509 C 125.32 12.198 108.786 0 95.368 0 L 95.368 0 Z M 109.7 37.357 C 108.478 73.035 62.515 101.511 56.464 119.492 C 51.077 108.601 12.343 92.86 12.723 58.55 C 13.041 30.041 27.878 21.117 35.958 21.117 C 47.242 21.117 51.902 29.731 52.664 33.546 C 53.425 37.357 57.696 40.405 59.068 34.154 C 60.441 27.903 73.717 8.842 90.031 8.842 C 104.973 8.842 110.148 24.251 109.7 37.357 L 109.7 37.357 Z"/>
</svg>