<?xml version="1.0" encoding="utf-8"?>
<svg id="LOGO_LAYER" viewBox="0 0 125.33 131.4429" version="1.1" width="125.33" height="131.4429" xmlns="http://www.w3.org/2000/svg">
  <defs id="defs1">
    <style id="style1">.cls-1{fill:#f9f9f9;}.cls-2{fill:#c60c30;}</style>
  </defs>
  <g id="LOGO_GROUP" transform="translate(-232.76,-97.88)">
    <g id="SELECT_FLAG_HERE">
      <g id="BLACK_FLAG">
        <path class="cls-2" d="M 289.669 220.205 C 289.38 220.35 241.902 182.753 242.888 159.99 C 238.693 142.523 260.139 116.927 266.774 116.409 C 276.496 115.65 290.306 128.123 289.733 131.062 C 318.861 79.015 355.575 115.181 342.782 145.23 C 347.814 151.61 290.787 220.484 289.669 220.205 Z" id="path4"/>
        <path class="cls-1" d="M 288.38 134.5 C 287.594 133.224 283.096 117.526 273.07 118.49 L 273.07 157.03 L 245.58 159.92 C 243.605 165.36 246.18 173.052 249.34 174.83 L 273.07 172.34 L 273.07 203.48 C 279.75 208.91 285.73 213.25 288.38 217 L 288.38 170.73 L 330.93 166.26 C 335.974 166.242 341.466 150.357 339.45 150.05 L 288.39 155.42 L 288.39 134.5 L 288.38 134.5 Z" id="path5"/>
        <path d="m 328.12,97.88 c -13.42,0 -29.29,9.91 -38.89,26.38 -2.59,-5.95 -11.83,-12.43 -22.8,-12.43 -8.84,0 -33.67,11.05 -33.67,46.73 0,46.05 46.59,55.51 56.01,69.82 0.65,0.99 2.73,1.73 3.53,-0.62 7.51,-22.18 65.79,-47.24 65.79,-92.37 0,-25.31 -16.53,-37.51 -29.95,-37.51 z m 14.33,37.36 c -0.17,5.09 -1.26,10.03 -3.01,14.81 -2.05,5.62 -5.02,11.03 -8.52,16.21 -14.37,21.31 -37.54,38.71 -41.71,51.12 -0.22,-0.45 -0.51,-0.91 -0.84,-1.38 -2.65,-3.75 -8.63,-8.09 -15.31,-13.52 -8.64,-7.03 -18.45,-15.89 -23.73,-27.65 -2.03,-4.52 -3.39,-9.47 -3.76,-14.91 -0.08,-1.14 -0.12,-2.3 -0.1,-3.49 0.32,-28.51 15.16,-37.43 23.23,-37.43 1.59,0 3.03,0.18 4.36,0.49 8.14,1.85 11.69,8.66 12.35,11.94 0.38,1.9 1.63,3.61 2.96,4.07 1.34,0.47 2.75,-0.33 3.44,-3.46 1.37,-6.25 14.65,-25.31 30.96,-25.31 14.94,0 20.12,15.41 19.67,28.52 z" id="path6"/>
      </g>
    </g>
  </g>
</svg>