<?xml version="1.0" encoding="utf-8"?>
<svg id="LOGO_LAYER" viewBox="0 0 125.33 131.4429" version="1.1" width="125.33" height="131.4429" xmlns="http://www.w3.org/2000/svg">
  <defs id="defs1">
    <style id="style1">.cls-1{fill:#ffffff;}.cls-2{fill:#003580;}</style>
  </defs>
  <g id="LOGO_GROUP" transform="translate(-232.76,-97.88)">
    <g id="SELECT_FLAG_HERE">
      <g id="BLACK_FLAG">
        <path class="cls-1" d="M 288.17 220.203 C 281.62 224.184 238.579 176.604 241.982 154.405 C 251.188 94.361 291.671 125.44 289.012 128.838 C 289.012 124.468 310.65 103.728 323.964 105.709 C 359.228 110.955 342.717 154.471 330.289 171.07 C 318.839 187.02 288.17 220.203 288.17 220.203 Z" id="path3"/>
        <path class="cls-2" d="M 293.73 126.49 C 286.278 126.042 274.975 114.986 270.98 118.12 L 270.98 152.22 L 245.52 154.9 C 242.494 155.689 245.771 177.351 250.45 177.13 L 270.98 174.97 L 270.98 201.74 C 286.427 218.368 291.63 224.36 293.73 210.39 L 293.73 172.57 L 329.11 168.85 C 334.839 168.115 343.787 144.918 341.06 144.84 L 293.74 149.81 L 293.73 126.49 Z" id="path5"/>
        <path d="m 328.12,97.88 c -13.42,0 -29.29,9.91 -38.89,26.38 -2.59,-5.95 -11.83,-12.43 -22.8,-12.43 -8.84,0 -33.67,11.05 -33.67,46.73 0,46.05 46.59,55.51 56.01,69.82 0.65,0.99 2.73,1.73 3.53,-0.62 7.51,-22.18 65.79,-47.24 65.79,-92.37 0,-25.31 -16.53,-37.51 -29.95,-37.51 z m 14.33,37.36 c -0.11,3.27 -0.6,6.48 -1.4,9.63 -2.15,8.48 -6.56,16.49 -11.95,24.01 -11.44,15.96 -27.3,29.63 -35.38,40.53 -2.11,2.84 -3.68,5.5 -4.51,7.96 -2.19,-4.43 -9.89,-9.66 -18.24,-16.61 -7.5,-6.25 -15.52,-13.9 -20.53,-23.62 -3.12,-6.05 -5.06,-12.9 -4.97,-20.71 0,-0.52 0.03,-1.02 0.04,-1.52 0.82,-27.3 15.26,-35.91 23.19,-35.91 0.79,0 1.54,0.05 2.27,0.13 9.64,1.06 13.73,8.75 14.44,12.3 0.76,3.81 5.03,6.86 6.4,0.61 0.25,-1.15 0.91,-2.73 1.91,-4.54 4.44,-8.07 15.74,-20.77 29.06,-20.77 14.94,0 20.12,15.41 19.67,28.52 z" id="path6"/>
      </g>
    </g>
  </g>
</svg>