<?xml version="1.0" encoding="utf-8"?>
<svg id="LOGO_LAYER" viewBox="0 0 125.33 131.4429" version="1.1" width="125.33" height="131.4429" xmlns="http://www.w3.org/2000/svg">
  <defs id="defs1">
    <style id="style1">.cls-1{fill:#ffcc01;}.cls-2{fill:red;}.cls-3{fill:#0b0e0e;}</style>
  </defs>
  <g id="LOGO_GROUP" transform="translate(-232.76,-97.88)">
    <g id="SELECT_FLAG_HERE">
      <g id="BLACK_FLAG">
        <path class="cls-3" d="M 324.072 104.155 C 307.762 104.155 291.276 124.337 289.906 130.587 C 288.536 136.837 287.472 135.23 286.712 131.42 C 285.952 127.61 279.048 117.066 267.758 117.066 C 260.698 117.066 246.715 126.762 243.535 147.502 L 347.69 138.043 C 347.72 137.643 345.977 137.083 345.987 136.683 C 346.437 123.573 339.012 104.155 324.072 104.155 Z" id="path1"/>
        <path class="cls-1" d="M 290.182 222.66 C 298.982 210.937 316.004 192.316 329.454 176.486 L 251.181 184.058 C 262.951 199.518 281.002 215.44 290.182 222.66 Z" id="path3"/>
        <path class="cls-2" d="M 242.755 151.611 C 242.034 152.433 243.554 183.495 255.67 185.34 L 321.6 178.41 C 325.599 179.02 333.018 167.979 338.788 157.579 C 340.27 154.908 347.06 137.579 342.39 136.44 L 246.25 146.54 C 245.79 149.54 242.795 148.011 242.755 151.611 Z" id="path2"/>
        <path d="m 328.12,97.88 c -13.42,0 -29.29,9.91 -38.89,26.38 -2.59,-5.95 -11.83,-12.43 -22.8,-12.43 -8.84,0 -33.67,11.05 -33.67,46.73 0,46.05 46.59,55.51 56.01,69.82 0.65,0.99 2.73,1.73 3.53,-0.62 7.51,-22.18 65.79,-47.24 65.79,-92.37 0,-25.31 -16.53,-37.51 -29.95,-37.51 z m 14.33,37.36 c -0.01,0.4 -0.04,0.8 -0.06,1.2 -0.97,15.45 -10.22,29.53 -20.79,41.97 -13.45,15.83 -29.03,29 -32.38,38.96 -3.57,-7.22 -21.77,-16.56 -33.55,-32.03 -6,-7.88 -10.32,-17.34 -10.19,-28.91 0.04,-3.6 0.31,-6.89 0.77,-9.88 3.19,-20.73 15.4,-27.55 22.46,-27.55 11.28,0 15.94,8.61 16.71,12.43 0.76,3.81 5.03,6.86 6.4,0.61 1.37,-6.25 14.65,-25.31 30.96,-25.31 14.94,0 20.12,15.41 19.67,28.52 z" id="path4"/>
      </g>
    </g>
  </g>
</svg>