<?xml version="1.0" encoding="utf-8"?>
<svg id="LOGO_LAYER" viewBox="0 0 125.33 131.4429" version="1.1" width="125.33" height="131.4429" xmlns="http://www.w3.org/2000/svg">
  <defs id="defs1">
    <style id="style1">.cls-1{fill:#f9f9f9;}.cls-2{fill:#0235b9;}</style>
  </defs>
  <g id="LOGO_GROUP" transform="translate(-232.76,-97.88)">
    <g id="SELECT_FLAG_HERE">
      <g id="BLACK_FLAG">
        <path class="cls-1" d="M 244.248 165.1 C 249.997 188.791 288.426 218.805 289.467 218.681 C 316.898 186.851 332.127 169.926 344.073 142.723 C 344.811 79.631 298.261 111.917 289.718 127.34 C 260.853 94.942 238.557 139.542 244.248 165.1 Z" id="path4"/>
        <path class="cls-1" d="M 289.381 219.779 C 289.381 219.779 298.699 207.6 298.19 203.92 L 277.64 206.13 C 277.515 211.014 289.381 219.779 289.381 219.779 Z" id="path6"/>
        <path class="cls-2" d="M 246.99 142.68 L 342.46 132.4 C 345.697 131.526 341.513 116.46 338.84 116.9 L 297.91 121.31 C 291.605 124.394 287.772 126.756 288.443 128.169 C 288.514 127.028 285.246 125.43 280.37 123.2 L 255.16 125.91 C 246.521 129.187 244.745 140.28 246.99 142.68 Z" id="path7"/>
        <path class="cls-2" d="M 277.64 206.14 L 298.19 203.93 C 306.204 199.027 311.806 193.093 314.63 186.27 L 261.42 192 C 264.114 200.176 272.146 202.634 277.64 206.15 L 277.64 206.14 Z" id="path8"/>
        <path class="cls-2" d="m 272.04,176.17 12.12,-1.31 6.06,10.11 6.06,-11.41 12.12,-1.31 -6.06,-10.11 6.06,-11.41 -12.12,1.31 -6.06,-10.11 -6.06,11.41 -12.12,1.31 6.06,10.11 z m 5.06,-3.54 2.69,-5.06 2.69,4.48 z m 13.13,6.35 -2.69,-4.48 5.38,-0.58 z m 13.13,-9.18 -5.38,0.58 2.69,-5.06 z m 0,-15.53 -2.69,5.06 -2.69,-4.48 z m -13.13,-6.35 2.69,4.48 -5.38,0.58 z m -4.38,8.24 8.75,-0.94 4.37,7.3 -4.37,8.24 -8.75,0.94 -4.37,-7.3 z m -8.75,0.94 5.38,-0.58 -2.69,5.06 z" id="path9"/>
        <path d="m 328.12,97.88 c -13.42,0 -29.29,9.91 -38.89,26.38 -2.59,-5.95 -11.83,-12.43 -22.8,-12.43 -8.84,0 -33.67,11.05 -33.67,46.73 0,46.05 46.59,55.51 56.01,69.82 0.65,0.99 2.73,1.73 3.53,-0.62 7.51,-22.18 65.79,-47.24 65.79,-92.37 0,-25.31 -16.53,-37.51 -29.95,-37.51 z M 268.71,119 c 5.21,0 8.99,1.84 11.65,4.2 3.09,2.74 4.65,6.18 5.06,8.23 0.76,3.81 5.03,6.86 6.4,0.61 0.51,-2.34 2.7,-6.47 6.08,-10.73 5.66,-7.12 14.68,-14.58 24.88,-14.58 7.84,0 12.99,4.25 16.05,10.17 2.36,4.56 3.47,10.11 3.62,15.5 0.03,0.95 0.03,1.9 0,2.84 -0.66,19.29 -14.39,36.47 -27.83,51.02 -5.92,6.41 -11.78,12.32 -16.44,17.66 -4.33,4.97 -7.63,9.47 -8.97,13.45 -1.59,-3.21 -6.07,-6.84 -11.58,-11.23 -5.01,-3.99 -10.88,-8.62 -16.22,-14.15 -8.76,-9.06 -16.1,-20.53 -15.94,-35.56 0.06,-5.22 0.61,-9.78 1.51,-13.75 1.72,-7.6 4.75,-13.04 8.17,-16.77 4.55,-4.97 9.79,-6.91 13.56,-6.91 z" id="path10"/>
      </g>
    </g>
  </g>
</svg>