<?xml version="1.0" encoding="utf-8"?>
<svg id="LOGO_LAYER" viewBox="0 0 125.33 131.4429" version="1.1" width="125.33" height="131.4429" xmlns="http://www.w3.org/2000/svg">
  <defs id="defs1">
    <style id="style1">.cls-1{fill:#f9f9f9;}.cls-2{fill:#019245;}.cls-3{fill:#ce2b37;}</style>
  </defs>
  <g id="LOGO_GROUP" transform="translate(-232.76,-97.88)">
    <path class="cls-3" d="M 343.537 134.778 C 342.403 98.562 314.514 103.924 310.354 109.268 L 310.354 191.796 C 325.306 176.628 344.231 156.964 343.537 134.778 Z" id="path1" style="fill: rgb(205, 33, 42);"/>
    <path class="cls-2" d="M 276.87 120.152 C 272.688 115.824 248.832 114.022 244.556 152.419 C 241.848 176.73 261.579 197.453 276.562 206.526 L 276.87 120.152 Z" id="path3" style="fill: rgb(0, 140, 69);"/>
    <path class="cls-1" d="M 310.97 108.96 C 300.44 114.68 287.739 128.419 287.739 128.419 C 287.739 128.419 282.13 122.08 276.11 119.46 L 276.11 205.91 C 282.32 210.87 287.5 214.87 289.23 218.37 C 291.71 211 300.91 201.86 310.97 191.18 L 310.97 108.96 Z" id="path2" style="fill: rgb(244, 245, 240);"/>
    <path d="m 328.12,97.88 c -13.42,0 -29.29,9.91 -38.89,26.38 -2.59,-5.95 -11.83,-12.43 -22.8,-12.43 -8.84,0 -33.67,11.05 -33.67,46.73 0,46.05 46.59,55.51 56.01,69.82 0.65,0.99 2.73,1.73 3.53,-0.62 7.51,-22.18 65.79,-47.24 65.79,-92.37 0,-25.31 -16.53,-37.51 -29.95,-37.51 z m 14.33,37.36 c -0.72,21.05 -17.01,39.59 -31.49,54.94 -10.07,10.68 -19.26,19.82 -21.74,27.19 -1.73,-3.5 -6.91,-7.5 -13.12,-12.46 -13.12,-10.47 -30.88,-25.2 -30.62,-48.49 0.32,-28.51 15.16,-37.43 23.23,-37.43 2.88,0 5.33,0.57 7.39,1.47 6.02,2.62 8.75,8.12 9.32,10.96 0.76,3.81 5.03,6.86 6.4,0.61 1.02,-4.64 8.61,-16.35 19.14,-22.07 3.64,-1.98 7.63,-3.24 11.82,-3.24 14.94,0 20.12,15.41 19.67,28.52 z" id="path4"/>
  </g>
</svg>