<?xml version="1.0" encoding="utf-8"?>
<svg id="LOGO_LAYER" viewBox="0 0 125.33 131.4429" version="1.1" width="125.33" height="131.4429" xmlns="http://www.w3.org/2000/svg">
  <defs id="defs1133">
    <style id="style1131">.cls-1{fill:#f9f9f9;}.cls-2{fill:#001a5a;}.cls-3{fill:#bb032c;}</style>
  </defs>
  <g id="SELECT_FLAG_HERE" transform="translate(-232.76,-97.88)">
    <g id="BLACK_FLAG">
      <path class="cls-3" d="M 323.867 105.027 C 311.277 105.089 298.035 116.993 293.145 125.053 L 289.08 131.001 C 281.685 117.521 265.891 108.577 248.6 130.975 C 240.066 147.709 242.251 172.709 256.975 190.621 L 289.555 221.419 C 331.945 167.677 341.425 157.939 343.845 136.01 C 344.622 128.969 338.867 104.953 323.867 105.027 Z" id="path1135" style="fill: rgb(186, 12, 47);"/>
      <path class="cls-1" d="M 248.19 172.03 C 247.272 174.04 248.204 175.98 250.81 177.84 L 270.18 175.8 L 270.18 201.09 C 272.26 202.85 274.32 204.49 276.26 206.05 L 276.26 169.08 L 248.18 172.03 L 248.19 172.03 Z" id="path1143"/>
      <path class="cls-1" d="M 294.52 125.13 C 293.07 127.51 292.14 129.61 291.82 131.03 C 291.14 134.12 289.76 134.93 288.43 134.51 L 288.43 155.63 L 339.35 150.28 C 340.778 148.469 342.086 146.66 341.25 144 L 294.51 148.91 L 294.51 125.13 L 294.52 125.13 Z" id="path1145"/>
      <path class="cls-1" d="M 276.27 119.54 C 274.53 118.76 272.51 118.23 270.19 118.06 L 270.19 151.46 L 245.54 154.05 C 244.723 154.83 244.456 158.91 245.59 160.13 L 276.26 156.91 L 276.26 119.54 L 276.27 119.54 Z" id="path1147"/>
      <path class="cls-2" d="M 288.44 134.51 C 287.09 134.08 285.81 132.35 285.42 130.42 C 284.86 127.61 282.17 122.2 276.27 119.54 L 276.27 156.91 L 245.6 160.13 C 244.486 160.205 246.285 171.613 248.19 172.02 L 276.27 169.07 L 276.27 206.04 C 281.66 210.34 286.24 213.91 288.44 217.07 L 288.44 167.79 L 332.96 163.11 C 334.816 163.087 340.486 150.47 339.36 150.27 L 288.44 155.62 L 288.44 134.5 L 288.44 134.51 Z" id="path1151" style="fill: rgb(0, 32, 91);"/>
      <path class="cls-1" d="M 288.44 217.08 C 288.75 217.52 289.01 217.95 289.22 218.37 C 290.15 215.61 292.02 212.6 294.52 209.36 L 294.52 173.24 L 328.53 169.67 C 330.93 168.002 332.593 165.907 332.96 163.12 L 288.44 167.8 L 288.44 217.08 Z" id="path1149"/>
      <path d="m 328.12,97.88 c -13.42,0 -29.29,9.91 -38.89,26.38 -2.59,-5.95 -11.83,-12.43 -22.8,-12.43 -8.84,0 -33.67,11.05 -33.67,46.73 0,46.05 46.59,55.51 56.01,69.82 0.65,0.99 2.73,1.73 3.53,-0.62 7.51,-22.18 65.79,-47.24 65.79,-92.37 0,-25.31 -16.53,-37.51 -29.95,-37.51 z m 14.33,37.36 c -0.1,2.97 -0.52,5.89 -1.19,8.76 -0.5,2.12 -1.14,4.22 -1.9,6.28 -1.63,4.42 -3.83,8.7 -6.4,12.84 -1.38,2.22 -2.86,4.41 -4.43,6.55 -11.03,15.11 -25.87,28.15 -34.01,38.69 -2.5,3.24 -4.37,6.25 -5.3,9.01 -0.21,-0.42 -0.47,-0.86 -0.78,-1.29 -2.2,-3.16 -6.78,-6.73 -12.17,-11.03 -1.95,-1.55 -4,-3.2 -6.08,-4.96 -7.09,-5.98 -14.53,-13.21 -19.37,-22.26 -0.99,-1.86 -1.88,-3.79 -2.62,-5.81 -1.37,-3.68 -2.28,-7.64 -2.59,-11.89 -0.09,-1.21 -0.13,-2.45 -0.12,-3.71 0,-0.81 0.03,-1.59 0.07,-2.37 1.09,-26.63 15.32,-35.06 23.17,-35.06 0.51,0 0.99,0.04 1.48,0.07 2.32,0.16 4.35,0.7 6.08,1.48 5.89,2.65 8.59,8.07 9.15,10.88 0.39,1.93 1.67,3.65 3.02,4.09 1.32,0.42 2.71,-0.39 3.39,-3.48 0.31,-1.43 1.25,-3.52 2.7,-5.9 4.9,-8.06 15.67,-19.41 28.26,-19.41 14.94,0 20.12,15.41 19.67,28.52 z" id="path1153"/>
    </g>
  </g>
</svg>