<?xml version="1.0" encoding="utf-8"?>
<svg id="LOGO_LAYER" viewBox="0 0 125.33 131.4429" version="1.1" width="125.33" height="131.4429" xmlns="http://www.w3.org/2000/svg">
  <defs id="defs1">
    <style id="style1">.cls-1{fill:#fecb00;}.cls-2{fill:#005293;}</style>
  </defs>
  <g id="LOGO_GROUP" transform="translate(-232.76,-97.88)">
    <path class="cls-2" d="M 285.677 128.774 C 274.605 103.899 241.375 121.786 244.423 153.586 C 242.539 184.062 260.672 199.066 288.602 218.635 C 289.563 219.169 330.745 171.117 340.408 152.851 C 349.338 152.682 342.575 107.571 334.346 107.81 C 320.555 97.322 293.189 116.27 291.761 126.154 L 285.677 128.774 Z" id="path1"/>
    <path class="cls-1" d="M 294.43 125.28 C 293.03 127.6 292.13 129.64 291.82 131.03 C 290.45 137.28 286.18 134.23 285.42 130.42 C 284.87 127.68 282.31 122.5 276.75 119.77 L 276.75 154.77 L 245.5 158.06 C 242.885 158.51 246.086 176.154 249.57 175.32 L 276.76 172.46 L 276.76 206.43 C 282.68 211.15 287.56 215 289.23 218.37 C 290.15 215.65 291.98 212.68 294.44 209.48 L 294.44 170.6 L 330.57 166.8 C 332.204 167.359 342.673 148.394 340.13 148.11 L 294.44 152.91 L 294.44 125.28 L 294.43 125.28 Z" id="path5"/>
    <path d="m 328.12,97.88 c -13.42,0 -29.29,9.91 -38.89,26.38 -2.59,-5.95 -11.83,-12.43 -22.8,-12.43 -8.84,0 -33.67,11.05 -33.67,46.73 0,46.05 46.59,55.51 56.01,69.82 0.65,0.99 2.73,1.73 3.53,-0.62 7.51,-22.18 65.79,-47.24 65.79,-92.37 0,-25.31 -16.53,-37.51 -29.95,-37.51 z m 14.33,37.36 c -0.15,4.4 -0.99,8.7 -2.34,12.88 -2.11,6.52 -5.5,12.76 -9.56,18.69 -11.21,16.4 -27.5,30.46 -36.13,41.68 -2.46,3.2 -4.29,6.16 -5.21,8.89 -1.67,-3.38 -6.55,-7.22 -12.47,-11.94 -9.26,-7.38 -21.07,-16.89 -27.19,-30.11 -2.39,-5.16 -3.91,-10.88 -4.07,-17.26 -0.01,-0.54 -0.02,-1.08 -0.01,-1.63 0.32,-28.51 15.16,-37.43 23.23,-37.43 3.19,0 5.84,0.7 8.03,1.78 5.56,2.73 8.13,7.91 8.67,10.65 0.76,3.81 5.03,6.86 6.4,0.61 0.31,-1.4 1.21,-3.43 2.61,-5.75 4.85,-8.06 15.69,-19.56 28.36,-19.56 14.94,0 20.12,15.41 19.67,28.52 z" id="path6"/>
  </g>
</svg>