<?xml version="1.0" encoding="utf-8"?>
<svg id="LOGO_LAYER" viewBox="0 0 125.33 131.4429" version="1.1" width="125.33" height="131.4429" xmlns="http://www.w3.org/2000/svg">
  <defs id="defs1">
    <style id="style1">.cls-1{fill:#0054a6;}.cls-2{fill:#f7941e;}.cls-3{fill:#ed1b35;}</style>
    <circle id="rb" r="145.663293" fill="none" stroke="#013ba6" stroke-width="39.030362"/>
    <circle id="rw" r="145.663293" fill="none" stroke="#fff" stroke-width="17.346827"/>
  </defs>
  <g>
    <path class="cls-1" d="M 110.737 38.467 C 112.009 -21.824 57.077 20.984 56.84 31.818 C 56.792 34.001 55.274 33.689 54.797 32.068 C 47.024 5.66 -2.062 22.068 12.652 69.669 C 14.165 74.565 18.255 84.048 20.857 87.657 C 61.507 144.043 59.871 121.233 90.858 80.053 C 99.77 68.209 110.448 52.166 110.737 38.467 Z" id="path2" style="fill: rgb(255, 0, 0);"/>
    <path d="M 95.36 0 C 81.94 0 66.07 9.91 56.47 26.38 C 53.88 20.43 44.64 13.95 33.67 13.95 C 24.83 13.95 0 25 0 60.68 C 0 106.73 46.59 116.19 56.01 130.5 C 56.66 131.49 58.74 132.23 59.54 129.88 C 67.05 107.7 125.33 82.64 125.33 37.51 C 125.33 12.2 108.8 0 95.38 0 L 95.36 0 Z M 109.69 37.36 C 109.68 37.72 109.65 38.08 109.63 38.43 C 108.71 53.87 99.51 67.95 88.96 80.39 C 75.48 96.28 59.81 109.51 56.45 119.49 C 52.87 112.25 34.58 102.88 22.81 87.34 C 16.86 79.49 12.58 70.07 12.71 58.55 C 12.75 54.89 13.03 51.57 13.51 48.53 C 16.73 27.9 28.9 21.11 35.95 21.11 C 47.23 21.11 51.89 29.72 52.66 33.54 C 53.42 37.35 57.69 40.4 59.06 34.15 C 60.43 27.9 73.71 8.84 90.02 8.84 C 104.96 8.84 110.14 24.25 109.69 37.36 Z" id="path4" style=""/>
    <polygon class="cls-1" points="49.402 60.019 33.022 61.739 33.022 75.779 49.402 74.049 49.402 90.429 63.442 88.959 63.442 72.579 79.822 70.859 79.822 56.819 63.442 58.539 63.442 42.169 49.402 43.639" id="polygon1" style="fill: rgb(255, 255, 255);"/>
  </g>
</svg>