<?xml version="1.0" encoding="utf-8"?>
<svg id="LOGO_LAYER" viewBox="0 0 125.33 131.4429" version="1.1" width="125.33" height="131.4429" xmlns="http://www.w3.org/2000/svg">
  <defs id="defs1">
    <style id="style1">.cls-1{fill:#f9f9f9;}.cls-2{fill:#e30a17;}</style>
  </defs>
  <g id="LOGO_GROUP" transform="translate(-232.76,-97.88)">
    <g id="SELECT_FLAG_HERE">
      <g id="BLACK_FLAG">
        <path class="cls-2" d="M 344.317 135.22 C 346.661 111.249 322.198 84.285 289.983 130.491 L 287.431 130.497 C 276.65 109.577 245.911 111.918 243.643 157.651 C 247.126 189.644 277.991 209.087 291.077 219.361 C 297.127 201.381 340.843 170.752 344.317 135.22 Z" id="path1"/>
        <path class="cls-1" d="m 271.94,175.15 c -5.74,-5.79 -5.22,-15.68 1.17,-22.09 6.39,-6.41 16.23,-6.92 21.97,-1.14 -1.54,-2.27 -3.6,-4.12 -6.03,-5.4 -9.08,-4.79 -21.09,-0.83 -26.83,8.85 -5.74,9.68 -3.04,21.41 6.03,26.2 9.08,4.79 21.09,0.83 26.83,-8.85 -0.37,0.45 -0.76,0.88 -1.17,1.3 -6.39,6.41 -16.23,6.92 -21.97,1.14 z" id="path2" style="fill: rgb(255, 255, 255);"/>
        <polygon class="cls-1" points="300.6,159.55 293.88,162.44 300.6,163.92 300.6,170.98 304.75,164.83 311.47,166.31 307.32,161.03 311.47,154.88 304.75,157.77 300.6,152.49 " id="polygon2" style="fill: rgb(255, 255, 255);"/>
        <path d="m 328.12,97.88 c -13.42,0 -29.29,9.91 -38.89,26.38 -2.59,-5.95 -11.83,-12.43 -22.8,-12.43 -8.84,0 -33.67,11.05 -33.67,46.73 0,46.05 46.59,55.51 56.01,69.82 0.65,0.99 2.73,1.73 3.53,-0.62 7.51,-22.18 65.79,-47.24 65.79,-92.37 0,-25.31 -16.53,-37.51 -29.95,-37.51 z m 14.33,37.36 c -1.22,35.68 -47.19,64.15 -53.24,82.14 -5.39,-10.89 -44.12,-26.63 -43.74,-60.94 0.32,-28.51 15.16,-37.43 23.23,-37.43 11.28,0 15.94,8.61 16.71,12.43 0.76,3.81 5.03,6.86 6.4,0.61 1.37,-6.25 14.65,-25.31 30.96,-25.31 14.94,0 20.12,15.41 19.67,28.52 z" id="path3"/>
      </g>
    </g>
  </g>
</svg>